<svg width="3477" height="500" viewBox="0 0 3477 500" fill="none" xmlns="http://www.w3.org/2000/svg">
<path fill-rule="evenodd" clip-rule="evenodd" d="M1342.7 0C1436.08 0 1505.32 49.9825 1517.39 123.134C1518.78 131.564 1512.14 139.205 1503.6 139.205H1448.75C1442.55 139.205 1437.06 135.126 1435.4 129.171C1425.34 93.1391 1390.26 70.9219 1342.37 70.9219C1287.55 70.9219 1251.19 97.2999 1251.19 137.873C1251.19 169.88 1275.31 188.67 1334.43 202.186L1389.25 214.723C1486.04 236.505 1526.66 276.724 1526.66 349.305C1526.66 441.981 1454.98 499.713 1339.35 499.713C1236.83 499.713 1166.84 451.58 1154.95 374.322C1153.67 366.001 1160.31 358.551 1168.77 358.551H1225.3C1231.58 358.551 1237.02 362.766 1238.71 368.803C1249.07 405.433 1289.23 428.466 1344.66 428.466C1400.08 428.466 1441.44 399.776 1441.44 359.855C1441.44 325.564 1415.33 305.441 1354.23 291.246L1292.44 277.051C1205.89 257.58 1165.26 214.695 1165.26 143.801C1165.31 57.4061 1235.99 1.15895e-05 1342.7 0ZM1652.54 140.428C1660.24 140.428 1666.47 146.655 1666.47 154.351V341.335C1666.47 396.511 1689.25 423.597 1738.15 423.597C1791.34 423.597 1820.41 390.882 1820.41 337.392V154.351C1820.41 146.655 1826.64 140.428 1834.33 140.428H1888.39C1896.09 140.428 1902.32 146.655 1902.32 154.351V474.395C1902.32 482.09 1896.09 488.317 1888.39 488.317L1888.42 488.345H1837.33C1829.63 488.345 1823.4 482.118 1823.4 474.422V439.723C1823.4 434.828 1819.43 430.857 1814.54 430.857H1814.43C1811.03 430.857 1808.01 432.869 1806.54 435.915C1788.32 474.041 1760.07 495.605 1707.2 495.605C1628.26 495.605 1584.56 446.384 1584.56 361.812V154.351C1584.56 146.655 1590.79 140.428 1598.48 140.428H1652.54ZM3385.54 56.0225C3393.24 56.0225 3399.47 62.2496 3399.47 69.9453L3399.49 69.9727V140.432H3462.86C3470.55 140.432 3476.78 146.66 3476.78 154.355V198.056C3476.78 205.751 3470.55 211.978 3462.86 211.979H3399.49V413.158C3399.49 418.923 3404.17 423.602 3409.94 423.602H3462.86C3470.55 423.602 3476.78 429.829 3476.78 437.524V476.058C3476.78 483.753 3470.55 489.981 3462.86 489.981H3432.97C3369.42 489.981 3317.89 438.449 3317.89 374.897V211.952H3274.68C3266.98 211.952 3260.75 205.724 3260.75 198.028V154.328C3260.75 146.632 3266.98 140.405 3274.68 140.405H3317.89V69.9453C3317.89 62.2497 3324.11 56.0226 3331.81 56.0225H3385.54ZM3188.91 140.433C3196.6 140.433 3202.83 146.667 3202.83 154.356V474.428C3202.83 482.117 3196.6 488.35 3188.91 488.351H3135.18C3127.49 488.35 3121.25 482.117 3121.25 474.428V154.356C3121.25 146.667 3127.49 140.433 3135.18 140.433H3188.91ZM2363.44 133.143C2435.78 133.143 2479.4 178.393 2479.4 253.394V474.397C2479.4 482.093 2473.17 488.321 2465.47 488.321H2411.74C2404.04 488.321 2397.82 482.093 2397.82 474.397V274.197C2397.82 227.614 2375.68 204.499 2331.76 204.499C2287.85 204.499 2261.06 235.555 2261.06 276.835V474.397C2261.06 482.093 2254.83 488.321 2247.14 488.321H2195.39C2187.69 488.321 2181.46 482.093 2181.46 474.397V268.241C2181.46 228.593 2156.36 204.499 2116.06 204.499C2075.76 204.499 2045.36 237.866 2045.36 282.138V474.397C2045.36 482.093 2039.13 488.321 2031.43 488.321H1977.37C1969.68 488.321 1963.45 482.093 1963.45 474.397V154.354C1963.45 146.658 1969.68 140.431 1977.37 140.431H2028.44C2036.14 140.431 2042.37 146.658 2042.37 154.354V189.379C2042.37 194.627 2046.64 198.897 2051.88 198.897C2055.69 198.897 2059.15 196.64 2060.61 193.132C2076.44 155.333 2102.76 133.143 2148.39 133.143C2196.61 133.143 2230.63 156.584 2246.56 194.846C2247.57 197.266 2249.86 198.87 2252.49 198.87C2254.91 198.87 2257.12 197.51 2258.18 195.362C2276.7 157.699 2314.74 133.143 2363.44 133.143ZM2940.41 133.143C3012.75 133.143 3056.37 178.393 3056.37 253.394V474.397C3056.37 482.093 3050.14 488.321 3042.44 488.321H2988.71C2981.01 488.321 2974.79 482.093 2974.79 474.397V274.197C2974.79 227.614 2952.65 204.499 2908.73 204.499C2864.81 204.499 2838.03 235.555 2838.03 276.835V474.397C2838.03 482.093 2831.8 488.321 2824.1 488.321H2772.35C2764.66 488.321 2758.43 482.093 2758.43 474.397V268.241C2758.43 228.593 2733.33 204.499 2693.03 204.499C2652.73 204.499 2622.33 237.866 2622.33 282.138V474.397C2622.33 482.093 2616.1 488.321 2608.4 488.321H2554.34C2546.65 488.321 2540.42 482.093 2540.42 474.397V154.354C2540.42 146.658 2546.65 140.431 2554.34 140.431H2605.41C2613.11 140.431 2619.34 146.658 2619.34 154.354V189.379C2619.34 194.627 2623.61 198.897 2628.85 198.897C2632.66 198.897 2636.11 196.64 2637.58 193.132C2653.41 155.333 2679.73 133.143 2725.36 133.143C2773.58 133.143 2807.6 156.584 2823.53 194.846C2824.54 197.266 2826.82 198.87 2829.46 198.87C2831.88 198.87 2834.09 197.51 2835.15 195.362C2853.66 157.699 2891.71 133.143 2940.41 133.143ZM3188.91 39.4355C3196.6 39.4357 3202.83 45.6691 3202.83 53.3584V101.764C3202.83 109.453 3196.6 115.686 3188.91 115.687H3135.18C3127.49 115.686 3121.25 109.453 3121.25 101.764V53.3584C3121.25 45.669 3127.49 39.4356 3135.18 39.4355H3188.91Z" fill="white"></path>
<path d="M301.003 0C387.207 0.000111588 457.312 75.1639 457.312 167.568C457.312 219.807 434.878 266.553 399.825 297.31C435.177 332.634 457.312 383.025 457.312 438.881V485.817C457.312 493.513 451.085 499.74 443.39 499.74H381.741C374.045 499.74 367.818 493.513 367.818 485.817V438.881C367.818 381.692 327.38 335.164 277.697 335.164H150.104C142.409 335.164 136.181 328.936 136.181 321.24V259.592C136.181 251.896 142.409 245.669 150.104 245.669H301.003C337.85 245.669 367.818 210.643 367.818 167.596C367.818 124.548 337.85 89.5226 301.003 89.5225H150.594C142.898 89.5224 136.671 83.2945 136.671 75.5986V13.9229C136.671 6.22722 142.898 2.98016e-05 150.594 0H301.003ZM76.8496 0C84.5453 0 90.7723 6.22718 90.7725 13.9229V485.79C90.7725 493.486 84.5455 499.713 76.8496 499.713H13.9229C6.22718 499.713 0 493.486 0 485.79V13.9229C0.000202661 6.2273 6.2273 0.000202649 13.9229 0H76.8496ZM624.967 0C632.662 3.77245e-05 638.889 6.22722 638.89 13.9229V485.79C638.89 493.486 632.663 499.713 624.967 499.713H562.04C554.344 499.713 548.117 493.486 548.117 485.79V13.9229C548.117 6.22726 554.344 9.77295e-05 562.04 0H624.967ZM989.902 0C997.598 0.000181314 1003.82 6.22731 1003.83 13.9229V485.735C1003.83 493.431 997.598 499.659 989.902 499.659H926.976C919.28 499.659 913.053 493.431 913.053 485.735V305.658C913.053 299.893 908.375 295.216 902.61 295.216H698.222C690.526 295.216 684.298 288.989 684.298 281.293V218.366C684.298 210.67 690.526 204.443 698.222 204.443H902.61C908.375 204.443 913.053 199.766 913.053 194.001V13.9229C913.053 6.2272 919.28 4.54453e-06 926.976 0H989.902Z" fill="#F7229C"></path>
</svg>