<svg width="152" height="38" viewBox="0 0 152 38" fill="none" xmlns="http://www.w3.org/2000/svg">
<g clip-path="url(#clip0_9589_491)">
<path d="M54.0874 0C52.4706 0 51.3798 1.14348 51.3798 2.84511V13.098C50.0013 11.8314 47.9574 10.7775 45.4258 10.7775C38.1139 10.7775 34.2916 17.4241 34.2916 23.9907C34.2916 30.5573 38.1139 37.2007 45.4258 37.2007C48.0774 37.2007 50.1004 36.4426 51.4854 34.9761C51.7269 36.3131 52.6833 37.2007 54.0874 37.2007C55.7075 37.2007 56.7966 36.0572 56.7966 34.3572V2.84511C56.7966 1.14508 55.7075 0 54.0874 0ZM45.7536 32.3389C41.2884 32.3389 39.7052 27.8449 39.7052 23.9907C39.7052 20.1364 41.2884 15.6361 45.7536 15.6361C50.2188 15.6361 51.7989 20.1332 51.7989 23.9907C51.7989 27.8481 50.2172 32.3389 45.7536 32.3389ZM119.259 15.6361C120.684 15.6361 121.438 15.9943 122.167 16.3478C122.752 16.6324 123.362 16.9251 124.19 16.9251C125.586 16.9251 126.522 15.6905 126.522 14.5406C126.522 12.2904 123.601 10.7759 119.259 10.7759C111.154 10.7759 107.526 17.4129 107.526 23.9891C107.526 30.5653 111.154 37.1991 119.259 37.1991C123.932 37.1991 126.386 35.2592 126.386 33.3416C126.386 31.9151 125.482 30.9603 124.139 30.9603C123.451 30.9603 122.93 31.2354 122.37 31.5265C121.633 31.9055 120.803 32.3373 119.259 32.3373C114.266 32.3373 112.936 27.0885 112.936 23.9891C112.936 20.8897 114.266 15.6345 119.259 15.6345V15.6361ZM22.4666 5.21683C22.054 4.14052 21.2991 2.17981 18.9562 2.17981C16.6133 2.17981 15.9 4.04136 15.4602 5.15925C15.4458 5.18964 11.5851 15.5417 8.55451 23.6612H2.74915C0.718074 23.6612 0 24.9407 0 26.0394C0 27.1381 0.721272 28.4063 2.74915 28.4063H6.79371C5.7238 31.2626 4.99773 33.2009 4.99773 33.2009C4.81861 33.6375 4.6187 34.3508 4.6187 34.9329C4.6187 36.0764 5.46951 37.2311 7.10077 37.2311C8.8136 37.2311 9.36854 36.1132 9.77476 35.2944L9.86592 35.1152L12.0329 29.2267C12.0329 29.2267 12.1577 28.8653 12.324 28.4047H19.0138C21.0448 28.4047 21.7709 27.1812 21.7709 26.0378C21.7709 24.8943 21.0464 23.6596 19.0138 23.6596H14.064C15.3546 20.138 17.6736 13.8273 18.9578 10.3361C20.3284 14.0672 24.7823 26.1961 24.7871 26.2009C24.7871 26.2073 25.8762 29.2139 25.8762 29.2139C25.8762 29.2251 28.0209 35.0593 28.0209 35.0593C28.2991 35.7725 28.8573 37.2279 30.8052 37.2279C32.4413 37.2279 33.2953 36.0716 33.2953 34.9297C33.2953 34.3476 33.0858 33.6407 32.8923 33.1689C32.905 33.1977 22.465 5.21363 22.465 5.21363L22.4666 5.21683ZM97.7684 15.6361C99.1965 15.6361 99.9514 15.9943 100.673 16.3478C101.264 16.6324 101.871 16.9251 102.699 16.9251C104.095 16.9251 105.031 15.6905 105.031 14.5406C105.031 12.2904 102.112 10.7759 97.7668 10.7759C89.6633 10.7759 86.0393 17.4129 86.0393 23.9891C86.0393 30.5653 89.6633 37.1991 97.7668 37.1991C102.453 37.1991 104.901 35.2592 104.901 33.3416C104.901 31.9151 103.998 30.9603 102.651 30.9603C101.968 30.9603 101.44 31.2354 100.885 31.5265C100.146 31.9055 99.3117 32.3373 97.7668 32.3373C92.7818 32.3373 91.4528 27.0885 91.4528 23.9891C91.4528 20.8897 92.7802 15.6345 97.7668 15.6345L97.7684 15.6361ZM140.471 10.7775C132.946 10.7775 129.009 17.4241 129.009 23.9907C129.009 30.5573 132.946 37.2007 140.471 37.2007C147.995 37.2007 151.923 30.5525 151.923 23.9907C151.923 17.4289 147.992 10.7775 140.471 10.7775ZM140.471 32.3389C136.005 32.3389 134.425 27.8449 134.425 23.9907C134.425 20.1364 136.005 15.6361 140.471 15.6361C144.936 15.6361 146.522 20.1332 146.522 23.9907C146.522 27.8481 144.936 32.3389 140.471 32.3389ZM83.2118 23.391C83.2118 17.1906 79.0121 10.7775 71.9769 10.7775C64.31 10.7775 60.291 17.4241 60.291 23.9907C60.291 30.0871 63.4128 37.2007 72.2088 37.2007C77.0114 37.2007 82.7032 34.1125 82.7032 31.5025C82.7032 29.8952 81.5885 29.0252 80.5458 29.0252C79.7893 29.0252 79.1608 29.5194 78.4284 30.0871C77.2097 31.0387 75.5433 32.3389 72.2568 32.3389C68.5576 32.3389 66.0404 29.9064 65.7541 26.2313H80.2707C82.2794 26.2313 83.2118 25.3277 83.2118 23.391ZM65.7509 21.8397C65.9684 19.7094 67.0207 15.4522 71.9593 15.6361C75.9111 15.6361 77.5184 19.1273 77.7487 21.8397H65.7509Z" fill="white"></path>
</g>
<defs>
<clipPath id="clip0_9589_491">
<rect width="151.923" height="37.2327" fill="white"></rect>
</clipPath>
</defs>
</svg>