<svg width="82" height="58" viewBox="0 0 82 58" fill="none" xmlns="http://www.w3.org/2000/svg">
<path d="M19.9156 22.369C19.0431 22.5415 18.4895 22.4616 18.3251 21.4217C18.0488 19.6733 18.4943 17.9121 18.9841 16.2462C19.0856 15.9009 19.2969 15.5249 19.4056 15.1746C19.5971 14.0604 19.915 13.1865 20.5638 12.2554C24.7168 6.29555 30.5212 2.0036 37.6887 0.55349C43.1165 -0.542329 48.7471 -0.00332814 53.8687 2.10229C54.9569 2.55127 56.4156 3.25255 57.3986 3.90444L57.3525 4.00458C57.0593 3.83545 56.6121 3.87324 56.3203 3.62147C55.9658 3.31598 52.8804 2.08441 52.6883 2.19538C52.8643 2.42999 53.5406 2.38621 54.011 2.73272L53.9855 2.76088C53.8709 2.73402 53.2371 2.49367 53.2112 2.50916L53.1476 2.48036C53.5603 2.7329 54.9009 3.28102 55.5115 3.58355C57.2728 4.45632 61.3076 7.17019 61.9397 9.0254C61.5767 8.77368 61.2888 8.46511 60.9733 8.15613C60.7607 7.92482 59.9854 7.05205 59.7678 6.94855C59.8301 7.06177 60.7226 8.19006 60.7911 8.24911C61.1264 8.73267 61.5015 9.26862 61.7696 9.79874C63.0641 12.3582 63.6012 15.3799 63.1232 18.2097C62.6563 20.9736 60.95 23.7443 58.639 25.3399C56.1462 27.0253 53.0894 27.66 50.1316 27.1063C46.9602 26.5161 44.2432 24.6879 42.4934 22.0052C40.9478 19.636 40.1828 17.6673 40.3838 14.8557C39.6898 17.2475 40.2065 19.969 41.3775 22.1315C41.8954 23.0871 42.403 23.738 43.0977 24.5609C43.0028 24.5586 42.9106 24.5361 42.8166 24.5182C41.0588 22.4572 40.062 20.5726 39.7706 17.8042C39.4907 15.2768 40.2186 12.607 41.9026 10.6626C43.8246 8.44353 46.5179 7.21214 49.3966 6.97806C46.184 5.98823 43.0731 6.6295 39.9648 7.71513C35.0058 9.42011 30.6487 12.5287 27.4228 16.6633C24.5788 20.3383 22.8837 24.3534 23.1549 29.0465C23.1909 29.6704 23.2777 30.2859 23.3565 30.9054C23.018 30.2013 22.6713 30.1547 22.3577 29.6073C22.124 29.1992 22.3209 28.5449 21.9151 28.0189C21.4912 27.4694 20.4334 27.1489 20.2682 26.5008C19.9277 25.1655 20.5206 23.7344 19.9156 22.369ZM46.5497 1.92748C47.6048 2.11514 48.5009 2.24457 49.5631 2.51395C53.6015 3.53812 57.8095 5.66689 60.4943 8.9228C62.0417 10.799 62.7503 12.7134 62.4947 15.1382C62.031 14.225 61.9074 13.3655 61.5981 12.4075C61.4621 11.987 60.8784 10.5372 60.4728 10.4159C60.4791 10.6408 60.6761 10.9808 60.7714 11.19C61.7906 13.4351 62.1102 15.9255 61.5789 18.3484C61.0458 20.8611 59.5284 23.0556 57.3659 24.4413C55.0929 25.8936 52.5187 26.2807 49.8822 25.8415C49.2126 25.7299 48.6379 25.5645 47.9812 25.4205C49.1079 26.1506 50.9905 26.5671 52.337 26.6033C55.1968 26.6853 57.5879 25.6487 59.6792 23.7293C64.5385 19.2693 63.7203 11.5242 59.5006 6.93951C58.2598 5.73659 56.4904 5.10136 54.9864 4.38536C52.4238 3.1653 49.4207 1.92131 46.5448 1.84791L46.5497 1.92748ZM48.1517 4.66775C47.6195 4.58569 46.6943 4.4244 46.1898 4.44034C43.3596 4.0566 39.3619 4.6541 36.6083 5.41862C36.2592 5.51554 35.2747 5.8229 34.9964 6.0077C35.4692 5.9709 36.208 5.67795 36.7291 5.57987C36.5758 5.71555 35.9544 5.86709 35.7384 5.9525C34.8418 6.30705 33.8046 6.70167 32.9948 7.22727L33.0307 7.24921C33.4859 7.04104 34.9026 6.39309 35.3268 6.38875C35.3604 6.43683 35.3648 6.43177 35.3807 6.48554C37.2814 5.62517 40.1394 5.02239 42.2222 4.75455C42.9187 4.66498 43.7163 4.66766 44.356 4.57038L44.403 4.56304C45.1169 4.61242 47.4472 4.52521 47.9919 4.72228C48.1088 4.75393 48.5313 4.82273 48.6061 4.72013C48.4275 4.66694 48.3339 4.67196 48.1517 4.66775ZM59.1206 9.39763C58.7889 8.89724 57.8337 7.67238 57.3306 7.28386C54.8664 5.37927 51.5791 4.05329 48.5483 3.40901C47.0224 3.08472 45.5793 2.9053 44.0386 2.8569C43.6156 2.84365 43.1205 2.80699 42.7172 2.84831C41.1837 2.9087 39.1713 3.05419 37.6918 3.47101L37.6979 3.51188C38.206 3.48923 38.7322 3.38461 39.2401 3.33622C45.0108 2.78662 51.0442 3.4621 55.9237 6.82464C56.9205 7.49658 58.2871 8.56408 59.1206 9.39763ZM27.1426 11.1025L27.188 11.1637C27.4064 11.0066 30.1947 8.48252 30.1998 8.46972C29.7545 8.54766 27.562 10.6375 27.1426 11.1025Z" fill="white"></path>
<path d="M34.9965 6.00767C35.4693 5.97087 36.2081 5.67792 36.7292 5.57983C36.5759 5.71552 35.9545 5.86706 35.7385 5.95247C34.8419 6.30702 33.8046 6.70164 32.9949 7.22724L33.0308 7.24917C33.486 7.04101 34.9027 6.39306 35.3269 6.38872C35.3605 6.4368 35.3649 6.43174 35.3808 6.4855C34.3904 6.88777 33.4197 7.33656 32.4716 7.83024C32.3964 7.86946 32.299 7.96709 32.1794 8.03738L32.1362 7.99185L32.1692 7.81842C32.1117 7.77679 32.0535 7.74214 31.9902 7.71013C32.0876 7.42743 33.2885 6.96813 33.6391 6.69774L33.604 6.64626L33.3902 6.64742L33.4055 6.61765C33.6937 6.39798 34.6288 6.10186 34.9965 6.00767Z" fill="white"></path>
<path d="M27.1426 11.1023C27.562 10.6373 29.7545 8.54742 30.1998 8.46948C30.1947 8.48229 27.4063 11.0064 27.188 11.1635L27.1426 11.1023Z" fill="white"></path>
<path d="M27.1879 11.1635C27.0974 11.3071 26.5752 11.8613 26.4043 11.9181L26.3906 11.8741C26.4958 11.6604 26.9481 11.2603 27.1425 11.1023L27.1879 11.1635Z" fill="white"></path>
<path d="M39.2477 31.3513L41.9925 31.3433L41.9876 51.6061C41.4303 51.6535 39.7826 51.8818 39.2528 52.0067L39.2419 49.7245C37.6376 52.2153 34.6634 52.4772 32.1603 51.2775C31.3864 50.8056 30.7041 50.2684 30.1986 49.4922C28.7957 47.3376 28.6876 44.1359 29.1408 41.6896C29.4533 40.0028 30.2184 38.5072 31.6547 37.5286C32.8728 36.6986 34.7068 36.3527 36.144 36.6196C37.5459 36.88 38.5032 37.8363 39.2549 38.9766C39.2261 36.4503 39.2529 33.8825 39.2477 31.3513ZM35.7735 51.0331C36.5655 50.9856 37.0557 50.7774 37.599 50.1565C39.0119 48.5409 39.3407 45.529 39.224 43.476C39.1253 41.7406 38.6955 39.309 37.3368 38.1041C36.7761 37.6069 36.3118 37.4989 35.593 37.4917C32.1709 37.7615 31.8807 43.3789 32.136 45.9136C32.3599 48.1371 33.014 50.9928 35.7735 51.0331Z" fill="white"></path>
<path d="M16.5095 38.9859C17.7361 36.8366 20.1255 36.213 22.4254 36.8248C26.9804 38.0364 27.4065 43.6769 26.5243 47.4969C26.1702 49.0301 25.1798 50.4832 23.8084 51.2572C22.5293 51.9918 20.7287 52.2443 19.306 51.8674C18.0117 51.4439 17.212 50.678 16.534 49.5436C16.6067 51.9426 16.5514 54.5914 16.5512 57.0093C15.6702 57.0415 14.6857 57.0205 13.797 57.0191C13.7757 55.0548 13.7995 53.0461 13.799 51.0782L13.7958 37.0029C14.3888 36.8573 15.8107 36.7028 16.481 36.5945L16.5053 36.6031C16.6036 36.7478 16.5506 38.709 16.5095 38.9859ZM20.7417 51.0173C24.0639 50.1058 24.0932 43.2982 23.344 40.7125C22.7581 38.6906 21.8532 37.4152 19.6023 37.5713C15.7969 38.5688 15.8472 47.6294 18.1323 50.134C18.8708 50.9434 19.6604 51.2724 20.7417 51.0173Z" fill="white"></path>
<path d="M5.62063 36.6848C7.22063 36.4975 9.74322 36.8681 10.8491 38.1423C11.9792 39.4442 11.8441 41.3811 11.8392 42.9915L11.838 46.2057L11.8405 49.8878C11.8413 50.5758 11.8645 51.4295 11.8189 52.1068C10.0866 52.0594 9.20899 51.6883 9.06615 49.7875C8.91079 50.0274 8.72641 50.2087 8.53425 50.4227C6.419 52.7774 1.01125 52.8965 0.0892938 49.3277C-0.00296001 48.9705 -0.00166173 48.5833 0.00066588 48.205C0.157018 43.9361 5.98794 43.7731 9.0897 43.552C9.08572 42.39 9.11589 41.1983 8.95949 40.0468C8.79494 38.8352 8.08861 37.6332 6.76348 37.5138C5.90348 37.4363 4.68117 37.4614 4.1494 38.2729C3.66956 38.8811 4.01905 40.1919 3.47883 40.7267C1.84306 42.3463 -0.63089 40.4396 0.966623 38.5126C2.00384 37.2613 4.05348 36.8163 5.62063 36.6848ZM3.55223 49.9621C4.89607 51.271 6.69746 50.6013 7.88977 49.4217C9.15568 48.1692 9.14341 46.5724 9.08393 44.9303C9.08191 44.8547 9.08428 44.7266 9.07166 44.6604C6.87941 44.7965 2.58677 45.1 2.79585 48.2247C2.84012 48.8738 3.1073 49.4875 3.55223 49.9621Z" fill="white"></path>
<path d="M49.6226 36.6852C52.1422 36.4329 55.4497 37.1916 55.7339 40.1913C55.8727 41.6572 55.8167 43.1192 55.8158 44.5916L55.8118 52.1119C55.759 52.1101 55.7062 52.1079 55.6533 52.1057C54.8978 52.0721 54.1659 52.0175 53.6126 51.4234C53.2702 51.0559 53.0415 50.2783 53.0661 49.7868C52.9103 50.0074 52.7367 50.2152 52.5478 50.4086C51.3459 51.6298 49.9494 52.0918 48.2587 52.1012C47.0197 52.1083 45.8644 51.7918 44.9625 50.888C44.1782 50.1024 43.9907 49.3033 43.9902 48.2352C44.1075 43.9286 50.0044 43.793 53.0777 43.5539C53.0491 42.2223 53.1597 40.8961 52.862 39.5983C52.4703 37.8886 51.2242 37.2931 49.5751 37.5179C49.0277 37.5926 48.5416 37.7803 48.1871 38.2207C47.5904 38.9625 48.0667 39.9785 47.4834 40.7149C47.0072 41.3073 46.1867 41.4291 45.4893 41.2197C44.2337 40.8427 44.227 39.2994 45.0117 38.4572C46.1343 37.2524 48.0403 36.8087 49.6226 36.6852ZM47.9261 50.2832C49.5908 51.2878 51.5183 50.1588 52.4591 48.6855C53.2416 47.4602 53.0782 46.0532 53.0737 44.6632L52.4471 44.6991C50.683 44.8163 47.7619 45.1619 46.9338 47.0829C46.4821 48.1304 46.9852 49.6117 47.9261 50.2832Z" fill="white"></path>
<path d="M75.3982 36.6849C77.9304 36.4255 81.2257 37.2382 81.4777 40.2417C81.5963 41.6527 81.5534 43.0539 81.5538 44.4694L81.5475 52.1097C79.7472 52.0591 78.9447 51.6705 78.818 49.7473C76.5848 53.2436 69.5004 52.9468 69.7081 48.2414C70.0496 43.904 75.5665 43.7683 78.8408 43.5543C78.8139 40.8977 79.1891 36.9104 75.2191 37.5329C73.0464 37.8736 73.9775 39.4302 73.1982 40.7433C73.0043 41.0695 72.4448 41.2635 72.0702 41.2994C70.2927 41.4696 69.6253 39.7358 70.7416 38.466C71.8629 37.2357 73.7957 36.8043 75.3982 36.6849ZM73.5889 50.2442C73.8987 50.4282 74.1399 50.5778 74.5007 50.6333C76.0244 50.8665 77.4903 49.8597 78.2423 48.6C78.9746 47.3734 78.8265 46.0152 78.8372 44.6632L78.2146 44.6986C76.6748 44.7899 75.6762 44.93 74.2492 45.5554C72.2344 46.4387 71.8974 48.8122 73.5889 50.2442Z" fill="white"></path>
<path d="M62.455 32.1992L63.4509 32.1917C63.4715 33.7811 63.4532 35.4061 63.4514 36.9981C64.8251 37.0041 66.1989 37.0017 67.5726 36.9908C67.5614 37.3744 67.5565 37.7582 67.5574 38.142L63.4532 38.1425L63.4545 45.6457C63.4532 46.8468 63.4062 48.1177 63.5073 49.3085C63.6855 51.4076 66.4451 51.0575 67.8989 50.7974L67.9016 51.9766C66.6313 52.1664 64.7374 52.1265 63.4563 51.9211C61.8964 51.6838 60.921 50.9617 60.7755 49.3282C60.6569 47.9924 60.6954 46.6825 60.6954 45.3435L60.7008 38.1435C59.7962 38.1236 57.627 38.3359 56.9408 37.7658C55.7837 36.8046 56.4041 35.0797 57.2206 34.0698C56.9977 35.117 56.8817 36.3477 57.9238 36.9888C57.9748 36.9915 58.0258 36.9936 58.0769 36.9949C61.8579 37.0906 62.4438 35.6908 62.455 32.1992Z" fill="white"></path>
<path d="M42.8164 24.5181C42.9104 24.5359 43.0026 24.5584 43.0975 24.5607C43.3177 24.7156 43.7063 25.1736 43.9628 25.3956C44.8137 26.1234 45.7407 26.7575 46.7277 27.2866C47.0338 27.4489 49.0548 28.2391 49.0848 28.2831C48.8856 28.2923 48.1771 28.0094 47.9635 27.9334C45.7872 27.1593 44.3938 26.1599 42.8164 24.5181Z" fill="white"></path>
<path d="M60.7913 8.24904C60.7228 8.18999 59.8303 7.0617 59.7681 6.94849C59.9856 7.05199 60.7609 7.92475 60.9735 8.15606C60.9153 8.18337 60.8419 8.21359 60.7913 8.24904Z" fill="white"></path>
</svg>