<svg width="161" height="43" viewBox="0 0 161 43" fill="none" xmlns="http://www.w3.org/2000/svg">
<path d="M14.932 1.24243H1.2644V25.0953C1.2644 27.2942 3.0236 29.0769 5.19354 29.0769H14.9994C22.584 29.0763 28.7326 22.8445 28.7314 15.1587V15.1563C28.7296 7.46028 22.5274 1.24243 14.932 1.24243ZM22.8344 15.16C22.8344 19.545 19.3268 23.0995 14.9994 23.0995H7.16437V7.22046H14.9994C19.3268 7.22046 22.8344 10.7749 22.8344 15.16Z" fill="white"></path>
<path d="M43.4715 4.87891C36.7155 4.87891 31.2388 10.4286 31.2388 17.2747C31.2388 24.1208 36.7155 29.6706 43.4715 29.6706C46.107 29.6706 48.6722 28.8079 50.7843 27.2119C51.6726 28.3899 53.052 29.0804 54.5149 29.0798H55.7042V17.2747C55.7042 10.4286 50.2275 4.87891 43.4715 4.87891ZM43.4715 23.7004C39.9692 23.7004 37.1304 20.8237 37.1304 17.2747C37.1304 13.7257 39.9692 10.8491 43.4715 10.8491C46.9738 10.8491 49.8126 13.7257 49.8126 17.2747C49.8126 20.8237 46.9738 23.7004 43.4715 23.7004Z" fill="white"></path>
<path d="M122.446 4.87891C115.69 4.87951 110.214 10.4298 110.214 17.2759C110.215 24.122 115.692 29.6712 122.448 29.6706C125.083 29.6706 127.648 28.8079 129.76 27.2119C130.648 28.3899 132.027 29.0804 133.49 29.0798H134.675V17.2747C134.675 10.4292 129.2 4.88011 122.445 4.87891H122.446ZM122.446 23.7004C118.943 23.7004 116.105 20.8237 116.105 17.2747C116.105 13.7257 118.943 10.8491 122.446 10.8491C125.948 10.8491 128.787 13.7257 128.787 17.2747C128.787 20.8237 125.948 23.7004 122.446 23.7004Z" fill="white"></path>
<path d="M70.9028 4.87891C64.3107 4.87891 58.9675 10.2776 58.9675 16.9383V29.0762H64.8651V16.9733C64.8651 13.5947 67.568 10.8551 70.9028 10.8551C74.237 10.8551 76.9399 13.594 76.9399 16.9727V29.0768H82.8386V16.9389C82.8386 10.2782 77.4949 4.87951 70.9034 4.87951L70.9028 4.87891Z" fill="white"></path>
<path d="M110.2 4.88687L110.214 4.87901H105.043C103.833 4.87901 102.69 5.44383 101.945 6.41037L92.044 19.2569V1.24121H90.0773C87.9068 1.24121 86.147 3.02447 86.147 5.22395V29.0769H89.6475C90.8571 29.0769 91.9998 28.5127 92.7444 27.5467L98.2146 20.4523C101.862 21.7052 104.316 25.1745 104.316 29.0769H110.217C110.218 23.3568 107.027 18.1284 101.975 15.5756L110.217 4.88687H110.2H110.2Z" fill="white"></path>
<path d="M144.234 6.07381C142.659 7.6692 142.659 10.2565 144.234 11.8519L149.58 17.2705L144.234 22.6922C142.659 24.2882 142.659 26.8761 144.234 28.4727C145.808 30.0687 148.362 30.0687 149.936 28.4727L158.135 20.1659C159.71 18.5699 159.71 15.982 158.135 14.3854L149.936 6.07864C148.363 4.48144 145.81 4.47902 144.234 6.0732V6.07381ZM152.432 20.1611C153.134 20.8703 153.135 22.0217 152.435 22.7327C152.434 22.7339 152.433 22.7345 152.432 22.7357L148.356 26.8664C147.657 27.5774 146.522 27.5799 145.82 26.8719C145.819 26.8701 145.817 26.8682 145.815 26.8664C145.113 26.1584 145.111 25.0083 145.81 24.2973C145.811 24.2954 145.813 24.2936 145.815 24.2918L151.16 18.875L152.433 20.1605L152.432 20.1611ZM156.561 15.9772C157.263 16.6864 157.264 17.8378 156.564 18.5488C156.563 18.55 156.562 18.5506 156.561 18.5518L154.995 20.1387C154.796 19.5407 154.464 18.9976 154.023 18.5518L152.753 17.2645L154.023 15.9772C154.464 15.5314 154.796 14.9883 154.995 14.3903L156.561 15.9772ZM152.432 11.8011C153.134 12.5103 153.135 13.6617 152.435 14.3727C152.434 14.3739 152.433 14.3745 152.432 14.3758L151.162 15.6631L145.816 10.2462C145.114 9.53824 145.112 8.38806 145.811 7.67705C145.813 7.67524 145.814 7.67343 145.816 7.67161C146.515 6.9606 147.65 6.95819 148.352 7.66618C148.353 7.66799 148.355 7.6698 148.357 7.67161L152.432 11.8011Z" fill="white"></path>
<path d="M1.52612 37.6876C1.52612 36.6425 2.15803 36.1169 2.98308 36.1169C3.5816 36.1169 4.04778 36.4069 4.26716 36.9397C4.48654 36.4069 4.95272 36.1169 5.55124 36.1169C6.37629 36.1169 7.0082 36.6431 7.0082 37.6876V40.6138H6.5289V37.6876C6.5289 36.9391 6.0967 36.5615 5.51786 36.5615C4.93901 36.5615 4.50681 36.959 4.50681 37.6876V40.6138H4.02751V37.6876C4.02751 36.9596 3.60187 36.5615 3.01647 36.5615C2.43106 36.5615 2.00542 36.9391 2.00542 37.6876V40.6138H1.52612V37.6876Z" fill="white"></path>
<path d="M7.54761 38.9486C7.54761 37.9374 8.27966 37.1956 9.31754 37.1956C10.3554 37.1956 11.0875 37.9374 11.0875 38.9486C11.0875 39.9599 10.3554 40.7017 9.31754 40.7017C8.27966 40.7017 7.54761 39.9599 7.54761 38.9486ZM10.6344 38.9486C10.6344 38.1802 10.1021 37.6136 9.31694 37.6136C8.53183 37.6136 7.99948 38.1796 7.99948 38.9486C7.99948 39.7176 8.53183 40.2836 9.31694 40.2836C10.1021 40.2836 10.6344 39.7176 10.6344 38.9486Z" fill="white"></path>
<path d="M11.4734 38.9486C11.4734 37.9374 12.2054 37.1956 13.2433 37.1956C14.0952 37.1956 14.7402 37.6945 14.9334 38.4364H14.4809C14.3015 37.9374 13.8424 37.6136 13.2433 37.6136C12.4582 37.6136 11.9259 38.1796 11.9259 38.9486C11.9259 39.7176 12.4582 40.2836 13.2433 40.2836C13.8418 40.2836 14.3009 39.9599 14.4809 39.4609H14.9334C14.7402 40.2027 14.0952 40.7017 13.2433 40.7017C12.2054 40.7017 11.4734 39.9599 11.4734 38.9486Z" fill="white"></path>
<path d="M15.5718 35.8263H16.0177V37.9297C16.2508 37.4513 16.6895 37.1945 17.2618 37.1945C18.1399 37.1945 18.8189 37.734 18.8189 38.8733V40.6125H18.373V38.8733C18.373 38.0505 17.9074 37.6126 17.1957 37.6126C16.4839 37.6126 16.0183 38.0644 16.0183 38.8733V40.6125H15.5724V35.8257L15.5718 35.8263Z" fill="white"></path>
<path d="M19.4771 36.2922C19.4771 36.0965 19.6237 35.9485 19.8163 35.9485C20.0088 35.9485 20.1555 36.0971 20.1555 36.2922C20.1555 36.4873 20.0088 36.6359 19.8163 36.6359C19.6237 36.6359 19.4771 36.4873 19.4771 36.2922ZM19.5969 37.2829H20.0428V40.6132H19.5969V37.2829Z" fill="white"></path>
<path d="M20.9404 35.8264H21.3863V40.6132H20.9404V35.8264Z" fill="white"></path>
<path d="M22.032 38.9685C22.032 37.9301 22.764 37.1956 23.8019 37.1956C24.8398 37.1956 25.5647 37.9168 25.5647 38.9685V40.6135H25.1522V39.7907C24.9191 40.3839 24.3736 40.7011 23.7351 40.7011C22.8105 40.7011 22.032 40.0336 22.032 38.9685ZM25.1188 38.9486C25.1188 38.1802 24.5864 37.6136 23.8013 37.6136C23.0162 37.6136 22.4839 38.1796 22.4839 38.9486C22.4839 39.7176 23.0162 40.2836 23.8013 40.2836C24.5864 40.2836 25.1188 39.7176 25.1188 38.9486Z" fill="white"></path>
<path d="M26.1038 39.6765H26.5562C26.5759 40.0342 26.8954 40.2903 27.448 40.2903C28.0007 40.2903 28.3393 40.0209 28.3393 39.6632C28.3393 39.2585 27.9202 39.2114 27.448 39.151C26.8561 39.0767 26.1842 38.9824 26.1842 38.2473C26.1842 37.6202 26.6701 37.1956 27.4415 37.1956C28.2129 37.1956 28.6856 37.6269 28.6987 38.1935H28.2594C28.2397 37.8631 27.9399 37.6069 27.4343 37.6069C26.9288 37.6069 26.6296 37.8631 26.6296 38.2068C26.6296 38.6182 27.0552 38.6653 27.5214 38.7257C28.0335 38.7934 28.7923 38.8743 28.7923 39.6294C28.7923 40.2631 28.2665 40.7017 27.4486 40.7017C26.6307 40.7017 26.1246 40.2637 26.105 39.6771L26.1038 39.6765Z" fill="white"></path>
<path d="M30.9873 39.3864C30.9873 38.8197 31.2931 38.4355 31.8058 38.2736V38.2604C31.3933 38.1051 31.1471 37.7747 31.1471 37.2829C31.1471 36.575 31.6991 36.1165 32.5176 36.1165C33.3361 36.1165 33.8213 36.5345 33.8815 37.2491H33.4422C33.3957 36.8444 33.0964 36.5278 32.5241 36.5278C31.9119 36.5278 31.593 36.8921 31.593 37.3168C31.593 37.8025 31.9322 38.0785 32.5045 38.0785H34.3275V38.4627H33.4559C33.8285 38.6379 34.0479 38.9551 34.0479 39.4063C34.0479 40.1952 33.4225 40.7009 32.5176 40.7009C31.6127 40.7009 30.9873 40.1886 30.9873 39.3864ZM33.602 39.3592C33.602 38.8131 33.2025 38.4627 32.5706 38.4627H32.4574C31.8255 38.4627 31.4326 38.7998 31.4326 39.3592C31.4326 39.8853 31.7921 40.2895 32.517 40.2895C33.2419 40.2895 33.6014 39.8847 33.6014 39.3592H33.602Z" fill="white"></path>
<path d="M36.6488 38.0042C36.6488 36.8444 37.3141 36.1165 38.5248 36.1165C39.7356 36.1165 40.4074 36.8444 40.4074 38.0042V40.6133H39.9281V39.1302H37.1138V40.6133H36.6482V38.0042H36.6488ZM39.9287 38.685V38.0042C39.9287 37.1144 39.4494 36.5617 38.5183 36.5617C37.5871 36.5617 37.1144 37.1144 37.1144 38.0042V38.685H39.9287Z" fill="white"></path>
<path d="M40.9468 38.9486C40.9468 37.9374 41.6788 37.1956 42.7167 37.1956C43.5686 37.1956 44.2136 37.6945 44.4068 38.4364H43.9543C43.7749 37.9374 43.3158 37.6136 42.7167 37.6136C41.9316 37.6136 41.3992 38.1796 41.3992 38.9486C41.3992 39.7176 41.9316 40.2836 42.7167 40.2836C43.3152 40.2836 43.7743 39.9599 43.9543 39.4609H44.4068C44.2136 40.2027 43.5686 40.7017 42.7167 40.7017C41.6788 40.7017 40.9468 39.9599 40.9468 38.9486Z" fill="white"></path>
<path d="M44.8057 38.9486C44.8057 37.9374 45.5377 37.1956 46.5756 37.1956C47.6135 37.1956 48.3318 37.9374 48.3318 38.9486V39.0972H45.2647C45.3243 39.7919 45.837 40.2836 46.5756 40.2836C47.0948 40.2836 47.4936 40.068 47.7065 39.6838H48.1923C47.9396 40.2975 47.3404 40.7017 46.5756 40.7017C45.5377 40.7017 44.8057 39.9599 44.8057 38.9486ZM47.8662 38.6925C47.7595 38.0183 47.2409 37.6136 46.5756 37.6136C45.9103 37.6136 45.378 38.0383 45.2784 38.6925H47.8662Z" fill="white"></path>
<path d="M48.7378 39.6765H49.1903C49.2099 40.0342 49.5295 40.2903 50.0821 40.2903C50.6347 40.2903 50.9733 40.0209 50.9733 39.6632C50.9733 39.2585 50.5542 39.2114 50.0821 39.151C49.4901 39.0767 48.8183 38.9824 48.8183 38.2473C48.8183 37.6202 49.3041 37.1956 50.0755 37.1956C50.8469 37.1956 51.3197 37.6269 51.3328 38.1935H50.8934C50.8737 37.8631 50.5739 37.6069 50.0684 37.6069C49.5628 37.6069 49.2636 37.8631 49.2636 38.2068C49.2636 38.6182 49.6892 38.6653 50.1554 38.7257C50.6675 38.7934 51.4264 38.8743 51.4264 39.6294C51.4264 40.2631 50.9006 40.7017 50.0827 40.7017C49.2648 40.7017 48.7587 40.2637 48.739 39.6771L48.7378 39.6765Z" fill="white"></path>
<path d="M51.8521 39.6765H52.3045C52.3242 40.0342 52.6437 40.2903 53.1963 40.2903C53.749 40.2903 54.0876 40.0209 54.0876 39.6632C54.0876 39.2585 53.6685 39.2114 53.1963 39.151C52.6044 39.0767 51.9325 38.9824 51.9325 38.2473C51.9325 37.6202 52.4184 37.1956 53.1898 37.1956C53.9612 37.1956 54.4339 37.6269 54.447 38.1935H54.0077C53.988 37.8631 53.6882 37.6069 53.1826 37.6069C52.6771 37.6069 52.3778 37.8631 52.3778 38.2068C52.3778 38.6182 52.8035 38.6653 53.2697 38.7257C53.7817 38.7934 54.5406 38.8743 54.5406 39.6294C54.5406 40.2631 54.0148 40.7017 53.1969 40.7017C52.379 40.7017 51.8729 40.2637 51.8532 39.6771L51.8521 39.6765Z" fill="white"></path>
<path d="M54.9453 38.9482C54.9453 37.937 55.6774 37.1952 56.7152 37.1952C57.7531 37.1952 58.4852 37.937 58.4852 38.9482C58.4852 39.9595 57.7531 40.7013 56.7152 40.7013C55.6774 40.7013 54.9453 39.9595 54.9453 38.9482ZM58.0321 38.9482C58.0321 38.1798 57.4998 37.6132 56.7146 37.6132C55.9295 37.6132 55.3972 38.1792 55.3972 38.9482C55.3972 39.7172 55.9295 40.2833 56.7146 40.2833C57.4998 40.2833 58.0321 39.7172 58.0321 38.9482ZM57.0878 35.7593H57.5671L56.8023 36.7705H56.4029L57.0884 35.7593H57.0878Z" fill="white"></path>
<path d="M59.0039 38.6182C59.0039 37.6607 59.5696 37.1956 60.3875 37.1956C61.2054 37.1956 61.7646 37.6607 61.7646 38.6248V38.6653H61.3252V38.6182C61.3252 37.9235 60.9461 37.6136 60.3869 37.6136C59.8277 37.6136 59.4486 37.9235 59.4486 38.6182V40.6135H59.0027V38.6182H59.0039Z" fill="white"></path>
<path d="M62.2112 36.2922C62.2112 36.0965 62.3578 35.9485 62.5504 35.9485C62.7429 35.9485 62.8896 36.0971 62.8896 36.2922C62.8896 36.4873 62.7429 36.6359 62.5504 36.6359C62.3578 36.6359 62.2112 36.4873 62.2112 36.2922ZM62.3304 37.2829H62.7763V40.6132H62.3304V37.2829Z" fill="white"></path>
<path d="M63.4153 38.9486C63.4153 37.9374 64.1473 37.1956 65.1852 37.1956C66.2231 37.1956 66.9551 37.9374 66.9551 38.9486C66.9551 39.9599 66.2231 40.7017 65.1852 40.7017C64.1473 40.7017 63.4153 39.9599 63.4153 38.9486ZM66.5021 38.9486C66.5021 38.1802 65.9697 37.6136 65.1846 37.6136C64.3995 37.6136 63.8672 38.1796 63.8672 38.9486C63.8672 39.7176 64.3995 40.2836 65.1846 40.2836C65.9697 40.2836 66.5021 39.7176 66.5021 38.9486Z" fill="white"></path>
<path d="M67.3606 39.6765H67.8131C67.8327 40.0342 68.1523 40.2903 68.7049 40.2903C69.2575 40.2903 69.5961 40.0209 69.5961 39.6632C69.5961 39.2585 69.177 39.2114 68.7049 39.151C68.1129 39.0767 67.4411 38.9824 67.4411 38.2473C67.4411 37.6202 67.9269 37.1956 68.6983 37.1956C69.4697 37.1956 69.9425 37.6269 69.9556 38.1935H69.5162C69.4966 37.8631 69.1967 37.6069 68.6912 37.6069C68.1857 37.6069 67.8864 37.8631 67.8864 38.2068C67.8864 38.6182 68.312 38.6653 68.7782 38.7257C69.2903 38.7934 70.0492 38.8743 70.0492 39.6294C70.0492 40.2631 69.5234 40.7017 68.7055 40.7017C67.8876 40.7017 67.3815 40.2637 67.3618 39.6771L67.3606 39.6765Z" fill="white"></path>
<path d="M72.2571 38.409C72.2571 37.0878 73.2151 36.1165 74.5725 36.1165C75.6634 36.1165 76.5016 36.7435 76.7812 37.6804H76.2756C76.0163 37.0063 75.3844 36.5611 74.5725 36.5611C73.4881 36.5611 72.7364 37.3434 72.7364 38.4084C72.7364 39.4734 73.4881 40.2556 74.5725 40.2556C75.3844 40.2556 76.0163 39.8104 76.2756 39.1363H76.7812C76.5016 40.0732 75.6634 40.7003 74.5725 40.7003C73.2151 40.7003 72.2571 39.7295 72.2571 38.4078V38.409Z" fill="white"></path>
<path d="M77.2205 38.9486C77.2205 37.9374 77.9525 37.1956 78.9904 37.1956C80.0283 37.1956 80.7603 37.9374 80.7603 38.9486C80.7603 39.9599 80.0283 40.7017 78.9904 40.7017C77.9525 40.7017 77.2205 39.9599 77.2205 38.9486ZM80.3073 38.9486C80.3073 38.1802 79.7749 37.6136 78.9898 37.6136C78.2047 37.6136 77.6723 38.1796 77.6723 38.9486C77.6723 39.7176 78.2047 40.2836 78.9898 40.2836C79.7749 40.2836 80.3073 39.7176 80.3073 38.9486Z" fill="white"></path>
<path d="M81.1658 39.6765H81.6182C81.6379 40.0342 81.9574 40.2903 82.5101 40.2903C83.0627 40.2903 83.4013 40.0209 83.4013 39.6632C83.4013 39.2585 82.9822 39.2114 82.5101 39.151C81.9181 39.0767 81.2462 38.9824 81.2462 38.2473C81.2462 37.6202 81.7321 37.1956 82.5035 37.1956C83.2749 37.1956 83.7476 37.6269 83.7608 38.1935H83.3214C83.3017 37.8631 83.0019 37.6069 82.4963 37.6069C81.9908 37.6069 81.6916 37.8631 81.6916 38.2068C81.6916 38.6182 82.1172 38.6653 82.5834 38.7257C83.0955 38.7934 83.8543 38.8743 83.8543 39.6294C83.8543 40.2631 83.3286 40.7017 82.5107 40.7017C81.6928 40.7017 81.1866 40.2637 81.167 39.6771L81.1658 39.6765Z" fill="white"></path>
<path d="M84.3927 39.3865V36.1033H84.8386V37.283H86.7748V37.6944H84.8386V39.3865C84.8386 39.993 85.1712 40.2829 85.6833 40.2829C86.1954 40.2829 86.528 39.9996 86.528 39.3865V39.3122H86.9602V39.3865C86.9602 40.263 86.441 40.701 85.6827 40.701C84.9244 40.701 84.3921 40.263 84.3921 39.3865H84.3927Z" fill="white"></path>
<path d="M87.52 39.0221V37.283H87.9659V39.0221C87.9659 39.8376 88.4315 40.2828 89.1433 40.2828C89.8551 40.2828 90.3207 39.8376 90.3207 39.0221V37.283H90.7666V39.0221C90.7666 40.1276 90.1144 40.7009 89.1433 40.7009C88.1722 40.7009 87.52 40.1276 87.52 39.0221Z" fill="white"></path>
<path d="M91.4187 38.6182C91.4187 37.6607 91.9844 37.1956 92.8023 37.1956C93.6202 37.1956 94.1794 37.6607 94.1794 38.6248V38.6653H93.74V38.6182C93.74 37.9235 93.3609 37.6136 92.8017 37.6136C92.2425 37.6136 91.8634 37.9235 91.8634 38.6182V40.6135H91.4175V38.6182H91.4187Z" fill="white"></path>
<path d="M94.4858 38.9685C94.4858 37.9301 95.2179 37.1956 96.2558 37.1956C97.2936 37.1956 98.0185 37.9168 98.0185 38.9685V40.6135H97.606V39.7907C97.3729 40.3839 96.8275 40.7011 96.189 40.7011C95.2644 40.7011 94.4858 40.0336 94.4858 38.9685ZM97.5726 38.9486C97.5726 38.1802 97.0403 37.6136 96.2552 37.6136C95.4701 37.6136 94.9377 38.1796 94.9377 38.9486C94.9377 39.7176 95.4701 40.2836 96.2552 40.2836C97.0403 40.2836 97.5726 39.7176 97.5726 38.9486Z" fill="white"></path>
<path d="M98.5378 38.9344C98.5378 37.9099 99.2765 37.1953 100.241 37.1953C100.866 37.1953 101.378 37.4919 101.625 37.9975V35.8264H102.071V38.9278C102.071 39.9994 101.332 40.7008 100.314 40.7008C99.2967 40.7008 98.5378 39.959 98.5378 38.9344ZM101.625 38.9483C101.625 38.1799 101.099 37.6133 100.307 37.6133C99.5155 37.6133 98.9897 38.1793 98.9897 38.9483C98.9897 39.7173 99.5221 40.2834 100.307 40.2834C101.092 40.2834 101.625 39.7173 101.625 38.9483Z" fill="white"></path>
<path d="M102.589 38.9486C102.589 37.9374 103.321 37.1956 104.359 37.1956C105.397 37.1956 106.129 37.9374 106.129 38.9486C106.129 39.9599 105.397 40.7017 104.359 40.7017C103.321 40.7017 102.589 39.9599 102.589 38.9486ZM105.677 38.9486C105.677 38.1802 105.144 37.6136 104.359 37.6136C103.574 37.6136 103.042 38.1796 103.042 38.9486C103.042 39.7176 103.574 40.2836 104.359 40.2836C105.144 40.2836 105.677 39.7176 105.677 38.9486Z" fill="white"></path>
<path d="M106.535 39.6765H106.988C107.007 40.0342 107.327 40.2903 107.879 40.2903C108.432 40.2903 108.771 40.0209 108.771 39.6632C108.771 39.2585 108.352 39.2114 107.879 39.151C107.287 39.0767 106.616 38.9824 106.616 38.2473C106.616 37.6202 107.101 37.1956 107.873 37.1956C108.644 37.1956 109.117 37.6269 109.13 38.1935H108.691C108.671 37.8631 108.371 37.6069 107.866 37.6069C107.36 37.6069 107.061 37.8631 107.061 38.2068C107.061 38.6182 107.487 38.6653 107.953 38.7257C108.465 38.7934 109.224 38.8743 109.224 39.6294C109.224 40.2631 108.698 40.7017 107.88 40.7017C107.062 40.7017 106.556 40.2637 106.536 39.6771L106.535 39.6765Z" fill="white"></path>
<path d="M111.531 38.9685C111.531 37.8969 112.27 37.1956 113.287 37.1956C114.305 37.1956 115.064 37.9374 115.064 38.9619C115.064 39.9864 114.325 40.7011 113.361 40.7011C112.735 40.7011 112.223 40.4045 111.977 39.8988V42.0361H111.531V38.9685ZM114.612 38.9486C114.612 38.1802 114.08 37.6136 113.295 37.6136C112.51 37.6136 111.977 38.1796 111.977 38.9486C111.977 39.7176 112.503 40.2836 113.295 40.2836C114.086 40.2836 114.612 39.7176 114.612 38.9486Z" fill="white"></path>
<path d="M115.45 38.9685C115.45 37.9301 116.182 37.1956 117.22 37.1956C118.258 37.1956 118.983 37.9168 118.983 38.9685V40.6135H118.57V39.7907C118.337 40.3839 117.792 40.7011 117.153 40.7011C116.229 40.7011 115.45 40.0336 115.45 38.9685ZM118.537 38.9486C118.537 38.1802 118.005 37.6136 117.22 37.6136C116.434 37.6136 115.902 38.1796 115.902 38.9486C115.902 39.7176 116.434 40.2836 117.22 40.2836C118.005 40.2836 118.537 39.7176 118.537 38.9486Z" fill="white"></path>
<path d="M119.635 38.6182C119.635 37.6607 120.201 37.1956 121.019 37.1956C121.837 37.1956 122.396 37.6607 122.396 38.6248V38.6653H121.957V38.6182C121.957 37.9235 121.577 37.6136 121.018 37.6136C120.459 37.6136 120.08 37.9235 120.08 38.6182V40.6135H119.634V38.6182H119.635Z" fill="white"></path>
<path d="M122.702 38.9685C122.702 37.9301 123.434 37.1956 124.472 37.1956C125.51 37.1956 126.235 37.9168 126.235 38.9685V40.6135H125.823V39.7907C125.589 40.3839 125.044 40.7011 124.406 40.7011C123.481 40.7011 122.702 40.0336 122.702 38.9685ZM125.789 38.9486C125.789 38.1802 125.257 37.6136 124.472 37.6136C123.687 37.6136 123.154 38.1796 123.154 38.9486C123.154 39.7176 123.687 40.2836 124.472 40.2836C125.257 40.2836 125.789 39.7176 125.789 38.9486Z" fill="white"></path>
<path d="M128.777 36.2041H131.97V36.6493H129.256V38.1529H131.585V38.5981H129.256V40.1687H131.97V40.6139H128.777V36.2047V36.2041Z" fill="white"></path>
<path d="M132.602 38.6653C132.602 37.674 133.175 37.1956 133.933 37.1956C134.465 37.1956 134.904 37.4517 135.117 37.944C135.324 37.4517 135.763 37.1956 136.302 37.1956C137.06 37.1956 137.632 37.674 137.632 38.6653V40.6135H137.187V38.6653C137.187 37.9573 136.801 37.6136 136.269 37.6136C135.736 37.6136 135.344 37.9712 135.344 38.6653V40.6135H134.898V38.6653C134.898 37.9706 134.499 37.6136 133.967 37.6136C133.435 37.6136 133.049 37.9573 133.049 38.6653V40.6135H132.603V38.6653H132.602Z" fill="white"></path>
<path d="M138.284 38.9685C138.284 37.8969 139.023 37.1956 140.04 37.1956C141.058 37.1956 141.817 37.9374 141.817 38.9619C141.817 39.9864 141.078 40.7011 140.114 40.7011C139.488 40.7011 138.976 40.4045 138.73 39.8988V42.0361H138.284V38.9685ZM141.364 38.9486C141.364 38.1802 140.832 37.6136 140.047 37.6136C139.262 37.6136 138.729 38.1796 138.729 38.9486C138.729 39.7176 139.255 40.2836 140.047 40.2836C140.839 40.2836 141.364 39.7176 141.364 38.9486Z" fill="white"></path>
<path d="M142.336 38.6182C142.336 37.6607 142.902 37.1956 143.72 37.1956C144.538 37.1956 145.097 37.6607 145.097 38.6248V38.6653H144.658V38.6182C144.658 37.9235 144.278 37.6136 143.719 37.6136C143.16 37.6136 142.781 37.9235 142.781 38.6182V40.6135H142.335V38.6182H142.336Z" fill="white"></path>
<path d="M145.403 38.9486C145.403 37.9374 146.135 37.1956 147.173 37.1956C148.211 37.1956 148.929 37.9374 148.929 38.9486V39.0972H145.862C145.922 39.7919 146.435 40.2836 147.173 40.2836C147.692 40.2836 148.091 40.068 148.304 39.6838H148.79C148.537 40.2975 147.938 40.7017 147.173 40.7017C146.135 40.7017 145.403 39.9599 145.403 38.9486ZM148.464 38.6925C148.357 38.0183 147.839 37.6136 147.173 37.6136C146.508 37.6136 145.976 38.0383 145.876 38.6925H148.464Z" fill="white"></path>
<path d="M149.335 39.6765H149.788C149.808 40.0342 150.127 40.2903 150.68 40.2903C151.232 40.2903 151.571 40.0209 151.571 39.6632C151.571 39.2585 151.152 39.2114 150.68 39.151C150.088 39.0767 149.416 38.9824 149.416 38.2473C149.416 37.6202 149.902 37.1956 150.673 37.1956C151.445 37.1956 151.917 37.6269 151.93 38.1935H151.491C151.471 37.8631 151.172 37.6069 150.666 37.6069C150.161 37.6069 149.861 37.8631 149.861 38.2068C149.861 38.6182 150.287 38.6653 150.753 38.7257C151.265 38.7934 152.024 38.8743 152.024 39.6294C152.024 40.2631 151.498 40.7017 150.68 40.7017C149.862 40.7017 149.356 40.2637 149.337 39.6771L149.335 39.6765Z" fill="white"></path>
<path d="M152.429 38.9685C152.429 37.9301 153.161 37.1956 154.199 37.1956C155.237 37.1956 155.962 37.9168 155.962 38.9685V40.6135H155.549V39.7907C155.316 40.3839 154.771 40.7011 154.132 40.7011C153.208 40.7011 152.429 40.0336 152.429 38.9685ZM155.516 38.9486C155.516 38.1802 154.984 37.6136 154.199 37.6136C153.413 37.6136 152.881 38.1796 152.881 38.9486C152.881 39.7176 153.413 40.2836 154.199 40.2836C154.984 40.2836 155.516 39.7176 155.516 38.9486Z" fill="white"></path>
<path d="M156.501 39.6765H156.953C156.973 40.0342 157.292 40.2903 157.845 40.2903C158.398 40.2903 158.736 40.0209 158.736 39.6632C158.736 39.2585 158.317 39.2114 157.845 39.151C157.253 39.0767 156.581 38.9824 156.581 38.2473C156.581 37.6202 157.067 37.1956 157.838 37.1956C158.61 37.1956 159.083 37.6269 159.096 38.1935H158.656C158.637 37.8631 158.337 37.6069 157.831 37.6069C157.326 37.6069 157.027 37.8631 157.027 38.2068C157.027 38.6182 157.452 38.6653 157.918 38.7257C158.43 38.7934 159.189 38.8743 159.189 39.6294C159.189 40.2631 158.664 40.7017 157.846 40.7017C157.028 40.7017 156.522 40.2637 156.502 39.6771L156.501 39.6765Z" fill="white"></path>
</svg>