<svg width="108" height="52" viewBox="0 0 108 52" fill="none" xmlns="http://www.w3.org/2000/svg">
<g clip-path="url(#clip0_9589_182)">
<mask id="mask0_9589_182" style="mask-type:luminance" maskUnits="userSpaceOnUse" x="34" y="30" width="35" height="10">
<path d="M52.3362 39.5419C45.995 39.5419 39.0619 36.9254 34.7076 32.832C34.2849 32.41 34.2426 31.7348 34.6654 31.3128C35.0881 30.8908 35.7645 30.8486 36.1873 31.2706C40.1188 34.942 46.6291 37.3896 52.3362 37.3896C58.0432 37.3896 64.5113 33.5494 67.1323 31.2706C67.5973 30.8908 68.2737 30.933 68.6542 31.355C69.0346 31.8192 68.9924 32.4944 68.5696 32.8742C65.7372 35.364 59.8611 39.5419 52.3362 39.5419Z" fill="white"></path>
</mask>
<g mask="url(#mask0_9589_182)">
<path d="M34.369 30.8486H34.2422V39.542H34.369V30.8486Z" fill="white"></path>
<path d="M34.7496 30.8489H34.3691V39.5422H34.7496V30.8489Z" fill="white"></path>
<path d="M35.13 30.8486H34.7495V39.542H35.13V30.8486Z" fill="white"></path>
<path d="M35.4684 30.8486H35.0879V39.542H35.4684V30.8486Z" fill="white"></path>
<path d="M35.8487 30.8486H35.4683V39.542H35.8487V30.8486Z" fill="white"></path>
<path d="M36.2291 30.8486H35.8486V39.542H36.2291V30.8486Z" fill="white"></path>
<path d="M36.6095 30.8486H36.229V39.542H36.6095V30.8486Z" fill="white"></path>
<path d="M36.9903 30.8486H36.6099V39.542H36.9903V30.8486Z" fill="white"></path>
<path d="M37.3707 30.8486H36.9902V39.542H37.3707V30.8486Z" fill="white"></path>
<path d="M37.7511 30.8486H37.3706V39.542H37.7511V30.8486Z" fill="white"></path>
<path d="M38.1314 30.8486H37.751V39.542H38.1314V30.8486Z" fill="white"></path>
<path d="M38.5123 30.8486H38.1318V39.542H38.5123V30.8486Z" fill="white"></path>
<path d="M38.8922 30.8486H38.5117V39.542H38.8922V30.8486Z" fill="white"></path>
<path d="M39.2731 30.8486H38.8926V39.542H39.2731V30.8486Z" fill="white"></path>
<path d="M39.6534 30.8486H39.2729V39.542H39.6534V30.8486Z" fill="white"></path>
<path d="M40.0338 30.8486H39.6533V39.542H40.0338V30.8486Z" fill="white"></path>
<path d="M40.4147 30.8486H40.0342V39.542H40.4147V30.8486Z" fill="white"></path>
<path d="M40.795 30.8486H40.4146V39.542H40.795V30.8486Z" fill="white"></path>
<path d="M41.1754 30.8486H40.7949V39.542H41.1754V30.8486Z" fill="white"></path>
<path d="M41.5558 30.8486H41.1753V39.542H41.5558V30.8486Z" fill="white"></path>
<path d="M41.9361 30.8486H41.5557V39.542H41.9361V30.8486Z" fill="white"></path>
<path d="M42.317 30.8486H41.9365V39.542H42.317V30.8486Z" fill="white"></path>
<path d="M42.6974 30.8486H42.3169V39.542H42.6974V30.8486Z" fill="white"></path>
<path d="M43.0777 30.8486H42.6973V39.542H43.0777V30.8486Z" fill="white"></path>
<path d="M43.4581 30.8486H43.0776V39.542H43.4581V30.8486Z" fill="white"></path>
<path d="M43.8385 30.8486H43.458V39.542H43.8385V30.8486Z" fill="white"></path>
<path d="M44.2189 30.8486H43.8384V39.542H44.2189V30.8486Z" fill="white"></path>
<path d="M44.5997 30.8486H44.2192V39.542H44.5997V30.8486Z" fill="white"></path>
<path d="M44.9801 30.8486H44.5996V39.542H44.9801V30.8486Z" fill="white"></path>
<path d="M45.3605 30.8486H44.98V39.542H45.3605V30.8486Z" fill="white"></path>
<path d="M45.7408 30.8486H45.3604V39.542H45.7408V30.8486Z" fill="white"></path>
<path d="M46.1217 30.8486H45.7412V39.542H46.1217V30.8486Z" fill="white"></path>
<path d="M46.5021 30.8486H46.1216V39.542H46.5021V30.8486Z" fill="white"></path>
<path d="M46.8824 30.8486H46.502V39.542H46.8824V30.8486Z" fill="white"></path>
<path d="M47.2628 30.8486H46.8823V39.542H47.2628V30.8486Z" fill="white"></path>
<path d="M47.6432 30.8486H47.2627V39.542H47.6432V30.8486Z" fill="white"></path>
<path d="M48.024 30.8486H47.6436V39.542H48.024V30.8486Z" fill="white"></path>
<path d="M48.4044 30.8486H48.0239V39.542H48.4044V30.8486Z" fill="white"></path>
<path d="M48.7848 30.8486H48.4043V39.542H48.7848V30.8486Z" fill="white"></path>
<path d="M49.1651 30.8486H48.7847V39.542H49.1651V30.8486Z" fill="white"></path>
<path d="M49.546 30.8486H49.1655V39.542H49.546V30.8486Z" fill="white"></path>
<path d="M49.9264 30.8486H49.5459V39.542H49.9264V30.8486Z" fill="white"></path>
<path d="M50.3067 30.8486H49.9263V39.542H50.3067V30.8486Z" fill="white"></path>
<path d="M50.6871 30.8486H50.3066V39.542H50.6871V30.8486Z" fill="white"></path>
<path d="M51.0675 30.8486H50.687V39.542H51.0675V30.8486Z" fill="white"></path>
<path d="M51.4479 30.8486H51.0674V39.542H51.4479V30.8486Z" fill="white"></path>
<path d="M51.8287 30.8486H51.4482V39.542H51.8287V30.8486Z" fill="white"></path>
<path d="M52.2091 30.8486H51.8286V39.542H52.2091V30.8486Z" fill="white"></path>
<path d="M52.5895 30.8486H52.209V39.542H52.5895V30.8486Z" fill="white"></path>
<path d="M52.9698 30.8486H52.5894V39.542H52.9698V30.8486Z" fill="white"></path>
<path d="M53.3507 30.8486H52.9702V39.542H53.3507V30.8486Z" fill="white"></path>
<path d="M53.7311 30.8486H53.3506V39.542H53.7311V30.8486Z" fill="white"></path>
<path d="M54.1114 30.8486H53.731V39.542H54.1114V30.8486Z" fill="white"></path>
<path d="M54.4918 30.8486H54.1113V39.542H54.4918V30.8486Z" fill="white"></path>
<path d="M54.8727 30.8486H54.4922V39.542H54.8727V30.8486Z" fill="white"></path>
<path d="M55.2525 30.8486H54.8721V39.542H55.2525V30.8486Z" fill="white"></path>
<path d="M55.6334 30.8486H55.2529V39.542H55.6334V30.8486Z" fill="white"></path>
<path d="M56.0138 30.8486H55.6333V39.542H56.0138V30.8486Z" fill="white"></path>
<path d="M56.3941 30.8486H56.0137V39.542H56.3941V30.8486Z" fill="white"></path>
<path d="M56.7745 30.8486H56.394V39.542H56.7745V30.8486Z" fill="white"></path>
<path d="M57.1554 30.8486H56.7749V39.542H57.1554V30.8486Z" fill="white"></path>
<path d="M57.5357 30.8486H57.1553V39.542H57.5357V30.8486Z" fill="white"></path>
<path d="M57.8736 30.8486H57.4932V39.542H57.8736V30.8486Z" fill="white"></path>
<path d="M58.2545 30.8486H57.874V39.542H58.2545V30.8486Z" fill="white"></path>
<path d="M58.6349 30.8486H58.2544V39.542H58.6349V30.8486Z" fill="white"></path>
<path d="M59.0152 30.8486H58.6348V39.542H59.0152V30.8486Z" fill="white"></path>
<path d="M59.3956 30.8486H59.0151V39.542H59.3956V30.8486Z" fill="white"></path>
<path d="M59.7765 30.8486H59.396V39.542H59.7765V30.8486Z" fill="white"></path>
<path d="M60.1568 30.8486H59.7764V39.542H60.1568V30.8486Z" fill="white"></path>
<path d="M60.5372 30.8486H60.1567V39.542H60.5372V30.8486Z" fill="white"></path>
<path d="M60.9176 30.8486H60.5371V39.542H60.9176V30.8486Z" fill="white"></path>
<path d="M61.2979 30.8486H60.9175V39.542H61.2979V30.8486Z" fill="white"></path>
<path d="M61.6783 30.8486H61.2979V39.542H61.6783V30.8486Z" fill="white"></path>
<path d="M62.0592 30.8486H61.6787V39.542H62.0592V30.8486Z" fill="white"></path>
<path d="M62.4396 30.8486H62.0591V39.542H62.4396V30.8486Z" fill="white"></path>
<path d="M62.8199 30.8486H62.4395V39.542H62.8199V30.8486Z" fill="white"></path>
<path d="M63.2003 30.8486H62.8198V39.542H63.2003V30.8486Z" fill="white"></path>
<path d="M63.5812 30.8486H63.2007V39.542H63.5812V30.8486Z" fill="white"></path>
<path d="M63.961 30.8486H63.5806V39.542H63.961V30.8486Z" fill="white"></path>
<path d="M64.3419 30.8486H63.9614V39.542H64.3419V30.8486Z" fill="white"></path>
<path d="M64.7223 30.8486H64.3418V39.542H64.7223V30.8486Z" fill="white"></path>
<path d="M65.1031 30.8486H64.7227V39.542H65.1031V30.8486Z" fill="white"></path>
<path d="M65.483 30.8486H65.1025V39.542H65.483V30.8486Z" fill="white"></path>
<path d="M65.8639 30.8486H65.4834V39.542H65.8639V30.8486Z" fill="white"></path>
<path d="M66.2442 30.8486H65.8638V39.542H66.2442V30.8486Z" fill="white"></path>
<path d="M66.6246 30.8486H66.2441V39.542H66.6246V30.8486Z" fill="white"></path>
<path d="M67.005 30.8486H66.6245V39.542H67.005V30.8486Z" fill="white"></path>
<path d="M67.3858 30.8486H67.0054V39.542H67.3858V30.8486Z" fill="white"></path>
<path d="M67.7657 30.8486H67.3853V39.542H67.7657V30.8486Z" fill="white"></path>
<path d="M68.1466 30.8486H67.7661V39.542H68.1466V30.8486Z" fill="white"></path>
<path d="M68.527 30.8486H68.1465V39.542H68.527V30.8486Z" fill="white"></path>
<path d="M68.9078 30.8486H68.5273V39.542H68.9078V30.8486Z" fill="white"></path>
<path d="M69.0345 30.8486H68.9077V39.542H69.0345V30.8486Z" fill="white"></path>
</g>
<path d="M15.7262 14.2216C17.3749 12.8712 18.1781 10.8878 18.1781 8.31352C18.1781 5.73928 17.3749 4.05126 15.7262 2.44764C14.0775 0.801812 12.1328 0 9.80772 0H5.3266C3.88927 0 2.62103 0.506407 1.56416 1.56142C0.507296 2.57424 0 3.84026 0 5.31728V24.1387C0 24.3076 0 24.5186 0 24.6874V28.5698C0 29.034 0.380472 29.456 0.887767 29.456H9.30042H9.80772C12.2174 29.456 14.2888 28.612 16.0221 26.8818C17.7553 25.1516 18.6008 23.1259 18.6008 20.7205C18.6008 18.3151 17.6285 15.6564 15.7262 14.2216ZM4.65021 5.31728C4.65021 5.10627 4.69248 4.93747 4.81931 4.81087C4.94613 4.68427 5.11523 4.59987 5.3266 4.59987H9.80772C10.8223 4.59987 11.7101 4.97967 12.4287 5.69708C13.1474 6.41449 13.4856 7.30071 13.4856 8.31352C13.4856 9.32634 13.1474 10.2125 12.4287 10.93C11.7101 11.6474 10.8223 11.985 9.80772 11.985H4.60794V5.31728H4.65021ZM12.7669 23.6323C11.9637 24.4342 10.9914 24.814 9.84999 24.814H5.36888C5.15751 24.814 4.98841 24.7296 4.86158 24.603C4.73476 24.4764 4.69248 24.3076 4.69248 24.0965V16.5426H9.89226C11.0337 16.5426 12.006 16.9646 12.8092 17.7665C13.6124 18.5683 13.9929 19.5389 13.9929 20.6783C13.9929 21.8177 13.6124 22.7883 12.8092 23.5901L12.7669 23.6323Z" fill="white"></path>
<path d="M52.8434 7.68042C52.7588 7.68042 52.632 7.68042 52.5474 7.68042H51.2792C51.1946 7.68042 51.0678 7.68042 50.9833 7.68042C48.8273 7.76482 47.0095 8.60883 45.4876 10.1281C43.8811 11.7739 43.0356 13.7573 43.0356 16.0783V25.7001V28.8651C43.0356 29.2871 43.3738 29.6247 43.7966 29.6247H46.9672C47.3899 29.6247 47.7281 29.2871 47.7281 28.8651V27.3881C47.7281 27.3881 47.7281 27.3459 47.7281 27.3037V16.0361C47.7281 14.9811 48.1086 14.0949 48.8273 13.3775C49.5459 12.6601 50.4337 12.2803 51.4906 12.2803H52.4206C53.4775 12.2803 54.3652 12.6601 55.0839 13.3775C55.8026 14.0949 56.1831 14.9811 56.1831 16.0361V27.3037V28.8651C56.1831 29.2871 56.5213 29.6247 56.944 29.6247H60.1146C60.5373 29.6247 60.8755 29.2871 60.8755 28.8651V27.3459V16.0783C60.8755 13.7573 60.03 11.7739 58.4236 10.1281C56.9017 8.60883 55.0416 7.80702 52.9279 7.68042H52.8434Z" fill="white"></path>
<path d="M41.5134 16.2893C41.0484 14.3058 40.076 12.5334 38.6387 11.0564C37.1591 9.53718 35.3413 8.56657 33.2698 8.14456C32.4666 7.97576 31.7057 7.89136 30.9447 7.89136C28.9155 7.89136 26.9709 8.48217 25.1954 9.66378C22.7012 11.2674 21.137 13.5462 20.5452 16.4159C19.9533 19.2855 20.4606 22.0286 22.0671 24.4762C23.6735 26.966 25.9563 28.5275 28.831 29.1183C31.0716 29.5825 33.2698 29.3715 35.3836 28.4431C36.4827 27.9788 37.4127 27.3458 38.2582 26.5862C38.3005 26.5862 38.3851 26.5018 38.4273 26.4596L40.4565 24.3496C40.7102 24.0542 40.7102 23.6322 40.4565 23.379L38.3428 21.3534C38.0469 21.1001 37.6241 21.1001 37.3705 21.3534L35.9331 22.8304C35.299 23.5478 34.5381 24.1386 33.6503 24.5184C32.3821 25.067 31.0716 25.1936 29.7188 24.9404C27.6896 24.5184 26.3368 23.59 25.6181 22.1552L25.5336 21.9864H25.7027C26.4213 21.7754 28.7887 21.269 32.4243 20.4671L39.8647 18.8213C40.4565 18.6947 40.9215 18.3993 41.2175 17.8929C41.3866 17.6397 41.4711 17.4287 41.5134 17.1755C41.5557 16.8801 41.5557 16.5847 41.5134 16.2471V16.2893ZM24.7726 17.7663V17.3865C25.1531 15.6141 26.0831 14.2636 27.5205 13.3352C29.0001 12.3646 30.6065 12.0692 32.3398 12.449C34.2844 12.871 35.5949 13.715 36.3136 15.0233L36.3982 15.1921L24.7726 17.8085V17.7663Z" fill="white"></path>
<path d="M81.2518 10.8453C79.73 9.28392 77.9121 8.27111 75.7561 7.8069C72.7969 7.17389 70.0068 7.6803 67.4703 9.28392C64.9338 10.9297 63.3274 13.2086 62.6933 16.2048C62.0592 19.1589 62.5242 21.9441 64.1729 24.4761C65.8216 27.0082 68.1044 28.6118 71.1059 29.2448C73.3888 29.7512 75.6716 29.5402 77.8276 28.6118C79.6877 27.81 81.1673 26.6284 82.3087 25.0247L82.6892 24.4339C82.6892 24.3917 82.7315 24.3495 82.7737 24.3073L83.281 23.5477C83.4079 23.3367 83.3656 23.0835 83.1542 22.9569L81.6323 21.9863C81.4209 21.8597 81.1673 21.9019 81.0405 22.1129L80.3641 23.1257C79.4763 24.5183 78.2503 25.5734 76.7285 26.2486C75.0797 26.966 73.3465 27.1348 71.6132 26.755C68.9499 26.1642 66.9207 24.4339 65.5257 21.5221C67.3435 21.1423 70.3873 20.5093 74.6993 19.5809C78.1658 18.8213 80.9559 18.2305 83.1119 17.8084C83.4501 17.724 83.746 17.5552 83.9151 17.2598C84.1265 16.9644 84.1688 16.6268 84.0842 16.2892C83.6192 14.2214 82.6469 12.4068 81.1673 10.9297L81.2518 10.8453ZM65.0607 18.9057C65.1452 17.935 65.1875 17.2598 65.272 16.8378C65.7793 14.6012 66.963 12.8288 68.9077 11.605C70.8523 10.3389 72.966 9.95913 75.2066 10.4655C77.743 11.0141 79.73 12.66 81.1673 15.4452L65.0607 18.9057Z" fill="white"></path>
<path d="M104.207 10.719C102.051 8.56673 99.4722 7.51172 96.4284 7.51172C93.3846 7.51172 90.8059 8.56673 88.6499 10.719C86.4939 12.8712 85.437 15.4454 85.437 18.4839C85.437 21.5223 86.4939 24.0966 88.6499 26.2488C90.8059 28.401 93.3846 29.456 96.4284 29.456C99.4722 29.456 102.051 28.401 104.207 26.2488C106.363 24.0966 107.42 21.5223 107.42 18.4839C107.42 15.4454 106.363 12.8712 104.207 10.719ZM102.305 24.4342C100.698 26.08 98.7535 26.8818 96.4284 26.8818C94.1033 26.8818 92.1587 26.08 90.51 24.4342C88.9035 22.7883 88.1003 20.8471 88.1003 18.5683C88.1003 16.2894 88.9035 14.306 90.51 12.6602C92.1587 11.0144 94.1033 10.2126 96.4284 10.2126C98.7535 10.2126 100.698 11.0144 102.305 12.6602C103.953 14.306 104.757 16.2472 104.757 18.5683C104.757 20.8893 103.953 22.7883 102.305 24.4342Z" fill="white"></path>
<path d="M0.929889 48.5306V50.1342H0.168945V45.7454H1.85993C2.36723 45.7454 2.7477 45.872 3.04362 46.1252C3.33954 46.3784 3.46637 46.716 3.46637 47.138C3.46637 47.56 3.33954 47.8976 3.04362 48.1508C2.7477 48.404 2.36723 48.4884 1.85993 48.4884H0.972163L0.929889 48.5306ZM0.929889 47.8976H1.85993C2.11358 47.8976 2.32495 47.8132 2.49405 47.6866C2.66315 47.56 2.70542 47.3912 2.70542 47.138C2.70542 46.8848 2.62087 46.716 2.49405 46.5894C2.36723 46.4628 2.15585 46.3784 1.90221 46.3784H0.972163V47.8976H0.929889Z" fill="white"></path>
<path d="M4.81925 50.1343H4.10059V45.5344H4.81925V50.1343Z" fill="white"></path>
<path d="M7.52479 50.1341C7.52479 50.0919 7.48251 49.9653 7.44024 49.8387C7.18659 50.0919 6.93294 50.2185 6.59475 50.2185C6.25655 50.2185 6.0029 50.1341 5.79153 49.9231C5.58015 49.7543 5.49561 49.5011 5.49561 49.2479C5.49561 48.9947 5.62243 48.6149 5.87608 48.4461C6.12972 48.2773 6.5102 48.1507 6.97522 48.1507H7.44024V47.9397C7.44024 47.7709 7.39796 47.6443 7.31341 47.5177C7.22887 47.4333 7.05977 47.3489 6.89067 47.3489C6.72157 47.3489 6.59475 47.3489 6.46792 47.4755C6.3411 47.6021 6.29882 47.6443 6.29882 47.8131H5.58015C5.58015 47.6443 5.62243 47.4755 5.74925 47.3067C5.87608 47.1379 6.04518 47.0113 6.21427 46.9269C6.42565 46.8425 6.63702 46.8003 6.89067 46.8003C7.27114 46.8003 7.56706 46.8847 7.82071 47.0957C8.03208 47.3067 8.15891 47.5599 8.15891 47.8975V49.3745C8.15891 49.6699 8.15891 49.8809 8.28573 50.0919C8.28573 50.1341 7.52479 50.1341 7.52479 50.1341ZM6.72157 49.6277C6.84839 49.6277 7.01749 49.6277 7.14432 49.5433C7.27114 49.4589 7.35569 49.3745 7.44024 49.2479V48.6149H7.05977C6.80612 48.6149 6.59475 48.6571 6.46792 48.7415C6.3411 48.8259 6.25655 48.9525 6.25655 49.1213C6.25655 49.2901 6.29882 49.3745 6.38337 49.4589C6.46792 49.5433 6.59475 49.5855 6.76384 49.5855L6.72157 49.6277Z" fill="white"></path>
<path d="M9.84978 46.1252V46.9271H10.4416V47.4757H9.84978V49.2903C9.84978 49.4169 9.84978 49.5013 9.93433 49.5435C10.0189 49.5857 10.0612 49.6279 10.188 49.6279C10.3148 49.6279 10.3571 49.6279 10.4416 49.6279V50.1765C10.2725 50.2187 10.1034 50.2609 9.97661 50.2609C9.42704 50.2609 9.13111 49.9655 9.13111 49.3325V47.4757H8.58154V46.9271H9.13111V46.1252H9.84978Z" fill="white"></path>
<path d="M12.9359 50.1341C12.9359 50.0919 12.8936 49.9653 12.8514 49.8387C12.5977 50.0919 12.3441 50.2185 12.0059 50.2185C11.6677 50.2185 11.414 50.1341 11.2027 49.9231C10.9913 49.7543 10.9067 49.5011 10.9067 49.2479C10.9067 48.9947 11.0336 48.6149 11.2872 48.4461C11.5409 48.2773 11.9213 48.1507 12.3864 48.1507H12.8514V47.9397C12.8514 47.7709 12.8091 47.6443 12.7245 47.5177C12.64 47.4333 12.4709 47.3489 12.3018 47.3489C12.1327 47.3489 12.0059 47.3489 11.8791 47.4755C11.7522 47.6021 11.71 47.6443 11.71 47.8131H10.9913C10.9913 47.6443 11.0336 47.4755 11.1604 47.3067C11.2872 47.1379 11.4563 47.0113 11.6254 46.9269C11.8368 46.8425 12.0482 46.8003 12.3018 46.8003C12.6823 46.8003 12.9782 46.8847 13.2318 47.0957C13.4432 47.3067 13.57 47.5599 13.57 47.8975V49.3745C13.57 49.6699 13.57 49.8809 13.6969 50.0919C13.6969 50.1341 12.9359 50.1341 12.9359 50.1341ZM12.1327 49.6277C12.2595 49.6277 12.4286 49.6277 12.5554 49.5433C12.6823 49.4589 12.7668 49.3745 12.8514 49.2479V48.6149H12.4709C12.2173 48.6149 12.0059 48.6571 11.8791 48.7415C11.7522 48.8259 11.6677 48.9525 11.6677 49.1213C11.6677 49.2901 11.71 49.3745 11.7945 49.4589C11.8791 49.5433 12.0059 49.5855 12.175 49.5855L12.1327 49.6277Z" fill="white"></path>
<path d="M14.5844 50.1342V47.4334H14.0771V46.8848H14.5844V46.5894C14.5844 46.2096 14.669 45.9564 14.8804 45.7454C15.0917 45.5344 15.3454 45.45 15.7259 45.45C16.1063 45.45 15.9795 45.45 16.1486 45.4922V46.083C16.0641 46.083 15.9372 46.083 15.8527 46.083C15.5145 46.083 15.3454 46.2518 15.3454 46.6316V46.927H16.0218V47.4756H15.3454V50.1764H14.6267L14.5844 50.1342Z" fill="white"></path>
<path d="M16.3604 48.4884C16.3604 48.1507 16.4026 47.8975 16.5294 47.6443C16.6563 47.3911 16.8254 47.1801 17.079 47.0535C17.3327 46.9269 17.5863 46.8425 17.8822 46.8425C18.305 46.8425 18.6855 46.9691 18.9391 47.2645C19.1928 47.5599 19.3619 47.9397 19.4041 48.404V48.5728C19.4041 48.9104 19.3619 49.1636 19.235 49.4168C19.1082 49.67 18.9391 49.881 18.6855 50.0076C18.4318 50.1342 18.1782 50.2186 17.8822 50.2186C17.4172 50.2186 17.0367 50.0498 16.7831 49.7544C16.5295 49.459 16.3604 49.037 16.3604 48.5306V48.4884ZM17.1213 48.5728C17.1213 48.9104 17.2058 49.1636 17.3327 49.3746C17.4595 49.5856 17.6709 49.67 17.9245 49.67C18.1782 49.67 18.3473 49.5856 18.5164 49.3746C18.6432 49.1636 18.7277 48.9104 18.7277 48.5306C18.7277 48.1507 18.6432 47.9397 18.5164 47.7287C18.3895 47.5177 18.1782 47.4333 17.9245 47.4333C17.6709 47.4333 17.5018 47.5177 17.3749 47.7287C17.2481 47.9397 17.1636 48.1929 17.1636 48.5728H17.1213Z" fill="white"></path>
<path d="M21.7291 47.56C21.6445 47.56 21.5177 47.56 21.4331 47.56C21.095 47.56 20.8836 47.6866 20.7568 47.9398V50.1764H20.0381V46.927H20.7568V47.3068C20.9681 47.0114 21.1795 46.8848 21.5177 46.8848C21.8559 46.8848 21.7291 46.8848 21.7713 46.8848V47.56H21.7291Z" fill="white"></path>
<path d="M22.8702 46.8847V47.2223C23.1239 46.9691 23.4198 46.8425 23.8426 46.8425C24.2653 46.8425 24.5612 47.0113 24.7303 47.3489C24.984 47.0113 25.2799 46.8425 25.7449 46.8425C26.2099 46.8425 26.379 46.9269 26.5481 47.1379C26.7172 47.3489 26.8018 47.6443 26.8018 48.0241V50.1764H26.0831V48.0663C26.0831 47.8553 26.0408 47.7287 25.9563 47.6021C25.8717 47.5177 25.7026 47.4755 25.4913 47.4755C25.2799 47.4755 25.1953 47.5177 25.0685 47.6021C24.9417 47.6865 24.8994 47.8131 24.8571 47.9397V50.1764H24.1385V48.0241C24.1385 47.6443 23.9271 47.4333 23.5466 47.4333C23.1662 47.4333 23.0393 47.5599 22.9125 47.7709V50.1342H22.1938V46.8847H22.8702Z" fill="white"></path>
<path d="M29.5077 50.1341C29.5077 50.0919 29.4654 49.9653 29.4231 49.8387C29.1695 50.0919 28.9159 50.2185 28.5777 50.2185C28.2395 50.2185 27.9858 50.1341 27.7744 49.9231C27.5631 49.7543 27.4785 49.5011 27.4785 49.2479C27.4785 48.9947 27.6053 48.6149 27.859 48.4461C28.1126 48.2773 28.4931 48.1507 28.9581 48.1507H29.4231V47.9397C29.4231 47.7709 29.3809 47.6443 29.2963 47.5177C29.2118 47.4333 29.0427 47.3489 28.8736 47.3489C28.7045 47.3489 28.5777 47.3489 28.4508 47.4755C28.324 47.6021 28.2817 47.6443 28.2817 47.8131H27.5631C27.5631 47.6443 27.6053 47.4755 27.7322 47.3067C27.859 47.1379 28.0281 47.0113 28.1972 46.9269C28.4086 46.8425 28.6199 46.8003 28.8736 46.8003C29.2541 46.8003 29.55 46.8847 29.8036 47.0957C30.015 47.3067 30.1418 47.5599 30.1418 47.8975V49.3745C30.1418 49.6699 30.1418 49.8809 30.2686 50.0919C30.2686 50.1341 29.5077 50.1341 29.5077 50.1341ZM28.7045 49.6277C28.8313 49.6277 29.0004 49.6277 29.1272 49.5433C29.2541 49.4589 29.3386 49.3745 29.4231 49.2479V48.6149H29.0427C28.789 48.6149 28.5777 48.6571 28.4508 48.7415C28.324 48.8259 28.2395 48.9525 28.2395 49.1213C28.2395 49.2901 28.2817 49.3745 28.3663 49.4589C28.4508 49.5433 28.5777 49.5855 28.7468 49.5855L28.7045 49.6277Z" fill="white"></path>
<path d="M32.2976 48.4885C32.2976 47.9821 32.4245 47.6023 32.6358 47.2646C32.8472 46.927 33.1854 46.8004 33.5659 46.8004C33.9464 46.8004 34.2 46.927 34.4114 47.1802V45.5344H35.13V50.1343H34.4537V49.7967C34.2 50.0499 33.9041 50.1765 33.5236 50.1765C33.1431 50.1765 32.8472 50.0077 32.5936 49.7123C32.3399 49.4169 32.2554 48.9949 32.2554 48.4463L32.2976 48.4885ZM33.0163 48.5729C33.0163 48.9105 33.1009 49.1637 33.2277 49.3325C33.3545 49.5013 33.5236 49.6279 33.7773 49.6279C34.0309 49.6279 34.2846 49.5013 34.4537 49.2481V47.8555C34.3268 47.6023 34.1155 47.4757 33.8195 47.4757C33.5236 47.4757 33.3968 47.5601 33.27 47.7711C33.1431 47.9821 33.0586 48.2353 33.0586 48.6151L33.0163 48.5729Z" fill="white"></path>
<path d="M37.3283 50.2186C36.8633 50.2186 36.4828 50.092 36.1869 49.7966C35.891 49.5012 35.7642 49.1214 35.7642 48.615V48.5306C35.7642 48.1929 35.8064 47.8975 35.9333 47.6443C36.0601 47.3911 36.2292 47.1801 36.4406 47.0535C36.6519 46.9269 36.9056 46.8425 37.2015 46.8425C37.6242 46.8425 38.0047 46.9691 38.2161 47.2645C38.4275 47.5599 38.5966 47.9397 38.5966 48.4462V48.7416H36.4828C36.4828 48.9948 36.6097 49.2058 36.7365 49.3746C36.9056 49.5434 37.0747 49.6278 37.3283 49.6278C37.582 49.6278 37.9202 49.5012 38.1315 49.2058L38.512 49.5856C38.3852 49.7966 38.2161 49.9232 38.0047 50.0498C37.7933 50.1764 37.5397 50.2186 37.286 50.2186H37.3283ZM37.2438 47.4333C37.0324 47.4333 36.8633 47.5177 36.7365 47.6443C36.6097 47.7709 36.5251 47.9819 36.4828 48.2352H37.8779C37.8779 47.9397 37.7933 47.7709 37.6665 47.6443C37.5397 47.5177 37.4129 47.4755 37.2015 47.4755L37.2438 47.4333Z" fill="white"></path>
<path d="M43.5851 48.5727C43.5851 49.0791 43.4583 49.4589 43.2469 49.7965C43.0356 50.0919 42.6974 50.2607 42.3169 50.2607C41.9364 50.2607 41.6405 50.1341 41.4291 49.8387V50.1763H40.7104V45.5764H41.4291V47.2644C41.6405 47.0112 41.9364 46.8846 42.2746 46.8846C42.6128 46.8846 42.9933 47.0112 43.2047 47.3066C43.416 47.602 43.5428 48.0241 43.5428 48.5305L43.5851 48.5727ZM42.8665 48.4883C42.8665 48.1507 42.8242 47.8552 42.6974 47.6864C42.5705 47.5176 42.4014 47.4332 42.1478 47.4332C41.8941 47.4332 41.5982 47.5598 41.4714 47.8552V49.2057C41.5982 49.5011 41.8096 49.6277 42.1478 49.6277C42.486 49.6277 42.5705 49.5433 42.6974 49.3745C42.8242 49.2057 42.8665 48.9525 42.9087 48.6149V48.5305L42.8665 48.4883Z" fill="white"></path>
<path d="M45.6564 50.2186C45.1914 50.2186 44.811 50.092 44.515 49.7966C44.2191 49.5012 44.0923 49.1214 44.0923 48.615V48.5306C44.0923 48.1929 44.1346 47.8975 44.2614 47.6443C44.3882 47.3911 44.5573 47.1801 44.7687 47.0535C44.9801 46.9269 45.2337 46.8425 45.5296 46.8425C45.9524 46.8425 46.3328 46.9691 46.5442 47.2645C46.7556 47.5599 46.9247 47.9397 46.9247 48.4462V48.7416H44.811C44.811 48.9948 44.9378 49.2058 45.0646 49.3746C45.2337 49.5434 45.4028 49.6278 45.6564 49.6278C45.9101 49.6278 46.2483 49.5012 46.4597 49.2058L46.8401 49.5856C46.7133 49.7966 46.5442 49.9232 46.3328 50.0498C46.1215 50.1764 45.8678 50.2186 45.6142 50.2186H45.6564ZM45.5719 47.4333C45.3605 47.4333 45.1914 47.5177 45.0646 47.6443C44.9378 47.7709 44.8532 47.9819 44.811 48.2352H46.206C46.206 47.9397 46.1215 47.7709 45.9946 47.6443C45.8678 47.5177 45.741 47.4755 45.5296 47.4755L45.5719 47.4333Z" fill="white"></path>
<path d="M48.193 46.8847V47.2645C48.4466 46.9691 48.7848 46.8425 49.1653 46.8425C49.8417 46.8425 50.1799 47.2223 50.1799 48.0241V50.1764H49.4612V48.0663C49.4612 47.8553 49.419 47.6865 49.3344 47.6021C49.2499 47.5177 49.0808 47.4333 48.9117 47.4333C48.6157 47.4333 48.4044 47.5599 48.2353 47.8131V50.1342H47.5166V46.8847H48.193Z" fill="white"></path>
<path d="M52.3781 50.2186C51.9131 50.2186 51.5326 50.092 51.2367 49.7966C50.9408 49.5012 50.814 49.1214 50.814 48.615V48.5306C50.814 48.1929 50.8562 47.8975 50.9831 47.6443C51.1099 47.3911 51.279 47.1801 51.5326 47.0535C51.744 46.9269 51.9977 46.8425 52.2936 46.8425C52.7163 46.8425 53.0968 46.9691 53.3082 47.2645C53.5618 47.5599 53.6886 47.9397 53.6886 48.4462V48.7416H51.5749C51.5749 48.9948 51.7017 49.2058 51.8286 49.3746C51.9977 49.5434 52.1668 49.6278 52.4204 49.6278C52.6741 49.6278 53.0122 49.5012 53.2236 49.2058L53.6041 49.5856C53.4773 49.7966 53.3082 49.9232 53.0968 50.0498C52.8854 50.1764 52.6318 50.2186 52.3781 50.2186ZM52.2936 47.4333C52.0822 47.4333 51.9131 47.5177 51.8286 47.6443C51.744 47.7709 51.6172 47.9819 51.5749 48.2352H52.97C52.97 47.9397 52.8854 47.7709 52.7586 47.6443C52.6318 47.5177 52.505 47.4755 52.2936 47.4755V47.4333Z" fill="white"></path>
<path d="M54.5341 50.1342V47.4334H54.0269V46.8848H54.5341V46.5894C54.5341 46.2096 54.6187 45.9564 54.8301 45.7454C55.0414 45.5344 55.2951 45.45 55.6756 45.45C56.056 45.45 55.9292 45.45 56.0983 45.4922V46.083C56.0138 46.083 55.8869 46.083 55.8024 46.083C55.4642 46.083 55.2951 46.2518 55.2951 46.6316V46.927H55.9715V47.4756H55.2951V50.1764H54.5764L54.5341 50.1342Z" fill="white"></path>
<path d="M57.2397 50.1341H56.521V46.8846H57.2397V50.1341ZM57.1128 45.5764H57.9583L57.1128 46.5048H56.521L57.1128 45.5764Z" fill="white"></path>
<path d="M59.3958 49.6278C59.5649 49.6278 59.734 49.5856 59.8609 49.459C59.9877 49.3324 60.03 49.2058 60.0722 49.0792H60.7486C60.7486 49.2902 60.6641 49.459 60.5795 49.6278C60.4527 49.7966 60.2836 49.9232 60.1145 50.0498C59.9031 50.1342 59.6918 50.2186 59.4381 50.2186C58.9731 50.2186 58.6349 50.092 58.339 49.7966C58.0853 49.5012 57.9585 49.0792 57.9585 48.5728V48.4884C57.9585 47.9819 58.0853 47.6021 58.339 47.3067C58.5926 47.0113 58.9731 46.8425 59.4381 46.8425C59.9031 46.8425 60.1568 46.9691 60.3681 47.1801C60.6218 47.3911 60.7486 47.6865 60.7486 48.0663H60.0722C60.0722 47.8975 59.9877 47.7287 59.8609 47.6021C59.734 47.4755 59.6072 47.4333 59.3958 47.4333C59.1845 47.4333 58.9731 47.5177 58.8463 47.6865C58.7194 47.8553 58.6349 48.1085 58.6349 48.4462V48.5728C58.6349 48.9104 58.7194 49.2058 58.8463 49.3746C58.9731 49.5434 59.1422 49.6278 59.3958 49.6278Z" fill="white"></path>
<path d="M61.2979 46.0409C61.2979 45.9143 61.2979 45.8299 61.4247 45.7455C61.5092 45.6611 61.5938 45.6189 61.7206 45.6189C61.8474 45.6189 61.9742 45.6189 62.0165 45.7455C62.0588 45.8721 62.1433 45.9143 62.1433 46.0409C62.1433 46.1675 62.1433 46.2519 62.0165 46.3363C61.932 46.4207 61.8474 46.4629 61.7206 46.4629C61.5938 46.4629 61.467 46.4629 61.4247 46.3363C61.3401 46.2519 61.2979 46.1675 61.2979 46.0409ZM62.0588 50.1344H61.3401V46.8849H62.0588V50.1344Z" fill="white"></path>
<path d="M62.7354 48.4884C62.7354 48.1507 62.7776 47.8975 62.9045 47.6443C63.0313 47.3911 63.2004 47.1801 63.454 47.0535C63.6654 46.9269 63.9613 46.8425 64.2572 46.8425C64.68 46.8425 65.0605 46.9691 65.3141 47.2645C65.5678 47.5599 65.7369 47.9397 65.7791 48.404V48.5728C65.7791 48.9104 65.7369 49.1636 65.61 49.4168C65.4832 49.67 65.3141 49.881 65.0605 50.0076C64.8068 50.1342 64.5532 50.2186 64.2572 50.2186C63.7922 50.2186 63.4117 50.0498 63.1581 49.7544C62.8622 49.459 62.7354 49.037 62.7354 48.5306V48.4884ZM63.454 48.5728C63.454 48.9104 63.5386 49.1636 63.6654 49.3746C63.7922 49.5434 64.0036 49.67 64.2572 49.67C64.5109 49.67 64.68 49.5856 64.8491 49.3746C64.9759 49.1636 65.0605 48.9104 65.0605 48.5306C65.0605 48.1507 64.9759 47.9397 64.8491 47.7287C64.7223 47.5177 64.5109 47.4333 64.2572 47.4333C64.0036 47.4333 63.8345 47.5177 63.7077 47.7287C63.5808 47.9397 63.4963 48.1929 63.4963 48.5728H63.454Z" fill="white"></path>
<path d="M68.1891 49.2479C68.1891 49.1213 68.1469 49.0369 68.02 48.9525C67.8932 48.8681 67.7241 48.8259 67.4705 48.7837C67.2168 48.7415 67.0054 48.6571 66.8363 48.5727C66.4559 48.4039 66.2868 48.1507 66.2868 47.8131C66.2868 47.4755 66.4136 47.3067 66.625 47.0957C66.8786 46.9269 67.1745 46.8003 67.5127 46.8003C67.8509 46.8003 68.2314 46.8847 68.4428 47.0957C68.6964 47.3067 68.8233 47.5177 68.8233 47.8553H68.1046C68.1046 47.7287 68.0623 47.6021 67.9355 47.5177C67.8509 47.4333 67.6818 47.3911 67.5127 47.3911C67.3436 47.3911 67.2168 47.3911 67.1323 47.5177C67.0477 47.6443 66.9632 47.6865 66.9632 47.8131C66.9632 47.9397 67.0054 48.0241 67.09 48.0663C67.1745 48.1085 67.3859 48.1929 67.6818 48.2351C67.9778 48.2773 68.1891 48.3617 68.3582 48.4461C68.5273 48.5305 68.6542 48.6571 68.7387 48.7415C68.8233 48.8681 68.8655 48.9947 68.8655 49.2057C68.8655 49.5011 68.7387 49.7543 68.4851 49.9231C68.2314 50.0919 67.9355 50.1763 67.5127 50.1763C67.09 50.1763 67.0054 50.1341 66.7941 50.0497C66.5827 49.9653 66.4136 49.8387 66.2868 49.6699C66.16 49.5011 66.1177 49.3323 66.1177 49.1213H66.8363C66.8363 49.2901 66.9209 49.4167 67.0477 49.5011C67.1745 49.5855 67.3436 49.6277 67.5127 49.6277C67.6818 49.6277 67.8509 49.6277 67.9355 49.5011C68.02 49.3745 68.1046 49.3323 68.1046 49.2057L68.1891 49.2479Z" fill="white"></path>
<path d="M72.5432 50.2186C72.0781 50.2186 71.6977 50.092 71.4018 49.7966C71.1058 49.5012 70.979 49.1214 70.979 48.615V48.5306C70.979 48.1929 71.0213 47.8975 71.1481 47.6443C71.2749 47.3911 71.444 47.1801 71.6977 47.0535C71.9091 46.9269 72.1627 46.8425 72.4586 46.8425C72.8814 46.8425 73.2618 46.9691 73.4732 47.2645C73.7269 47.5599 73.8537 47.9397 73.8537 48.4462V48.7416H71.7399C71.7399 48.9948 71.8668 49.2058 71.9936 49.3746C72.1627 49.5434 72.3318 49.6278 72.5854 49.6278C72.8391 49.6278 73.1773 49.5012 73.3887 49.2058L73.7691 49.5856C73.6423 49.7966 73.4732 49.9232 73.2618 50.0498C73.0505 50.1764 72.7968 50.2186 72.5432 50.2186ZM72.4586 47.4333C72.2472 47.4333 72.0781 47.5177 71.9936 47.6443C71.909 47.7709 71.7822 47.9819 71.7399 48.2352H73.135C73.135 47.9397 73.0505 47.7709 72.9236 47.6443C72.7968 47.5177 72.67 47.4755 72.4586 47.4755V47.4333Z" fill="white"></path>
<path d="M79.3072 47.0958H78.2081V45.0279H79.3072C80.1105 45.0279 80.5332 45.4077 80.5332 46.0408C80.5332 46.6738 80.1105 47.0536 79.3072 47.0536M81.1673 48.2774C82.0551 47.8554 82.5624 47.0958 82.5624 46.0408C82.5624 44.4371 81.3364 43.4243 79.4341 43.4243H76.2212V50.4296H78.2081V48.5728H79.3072L80.5755 50.4296H82.6892L81.1673 48.2352V48.2774Z" fill="white"></path>
<path d="M87.9313 43.4666V46.083H85.2257V43.4666H83.2388V50.4719H85.2257V47.7288H87.9313V50.4719H89.9182V43.4666H87.9313Z" fill="white"></path>
<path d="M99.8949 45.4921C99.9794 45.5765 99.9794 45.6609 99.9794 45.7453C99.9794 45.8297 99.9794 45.9563 99.8949 45.9985C99.8103 46.0829 99.7258 46.0829 99.6412 46.0829C99.5567 46.0829 99.4298 46.0829 99.3876 45.9985C99.303 45.9141 99.2607 45.8297 99.2607 45.7453C99.2607 45.6609 99.2607 45.5343 99.3453 45.4921C99.4298 45.4077 99.5144 45.4077 99.5989 45.4077C99.6835 45.4077 99.8103 45.4077 99.8526 45.4921M99.9371 50.4718C99.9371 50.4718 99.8949 50.4718 99.8526 50.4718H99.4298H99.3453C99.3453 50.4718 99.3453 50.4296 99.3453 50.3874V46.9269V46.8425C99.3453 46.8425 99.3876 46.8425 99.4298 46.8425H99.8526H99.9371C99.9371 46.8425 99.9371 46.8847 99.9371 46.9269V50.3874V50.4718Z" fill="white"></path>
<path d="M93.1311 49.7966C93.1311 49.7966 93.1311 49.881 93.0888 49.881C93.0042 49.881 92.9197 49.881 92.8351 49.881C92.666 49.881 92.5392 49.881 92.3701 49.881C92.0742 49.881 91.8628 49.8388 91.6937 49.67C91.5246 49.5434 91.4401 49.2902 91.4401 48.9948V48.2774C91.4401 47.982 91.5246 47.771 91.6514 47.6443C91.8205 47.4755 92.0742 47.4333 92.3278 47.4333C92.5815 47.4333 92.666 47.4333 92.7929 47.4755C92.9197 47.4755 93.0042 47.5177 93.0888 47.5599C93.0888 47.5599 93.1311 47.6021 93.1311 47.6443V49.7122V49.7966ZM93.7652 45.4077C93.7652 45.4077 93.7229 45.4077 93.6806 45.4077H93.2579H93.1733C93.1733 45.4077 93.1733 45.4499 93.1733 45.4921V46.9691C93.1733 46.9691 93.1733 46.9691 93.0888 46.9691C93.0042 46.9691 92.8774 46.8847 92.7929 46.8847C92.666 46.8847 92.4969 46.8425 92.3278 46.8425C91.8628 46.8425 91.4823 46.9691 91.1864 47.2223C90.9328 47.4755 90.7637 47.8132 90.7637 48.2774V49.037C90.7637 49.5434 90.9328 49.881 91.1864 50.1342C91.4823 50.3874 91.8628 50.514 92.3278 50.514H93.7229C93.8074 50.514 93.8497 50.4718 93.8497 50.3874V50.1764V45.5343V45.4499L93.7652 45.4077Z" fill="white"></path>
<path d="M106.279 50.1764C106.109 46.3783 102.897 46.7581 102.897 46.7581H102.812C102.812 46.7581 102.812 46.8003 102.812 46.8425V47.2645V47.3489C102.812 47.3489 102.854 47.3489 102.897 47.3489H103.15C105.264 47.3489 105.644 49.2901 105.687 49.9232V50.303V50.3874C105.687 50.3874 105.729 50.3874 105.771 50.3874H106.194H106.279C106.279 50.3874 106.279 50.3452 106.279 50.303V50.0498" fill="white"></path>
<path d="M104.461 50.2608C104.883 49.8388 104.883 49.1636 104.461 48.7838C104.038 48.3618 103.362 48.3618 102.981 48.7838C102.558 49.2058 102.558 49.881 102.981 50.2608C103.404 50.6828 104.038 50.6828 104.461 50.2608Z" fill="white"></path>
<path d="M95.0757 50.4718C95.0757 50.4718 95.0335 50.4718 94.9912 50.4718H94.5684H94.4839C94.4839 50.4718 94.4839 50.4296 94.4839 50.3874V46.9269V46.8425C94.4839 46.8425 94.5262 46.8425 94.5684 46.8425H94.9912H95.0757C95.0757 46.8425 95.0757 46.8847 95.0757 46.9269V50.3874V50.4718Z" fill="white"></path>
<path d="M107.42 45.45C107.42 45.45 107.378 45.45 107.335 45.45H106.913H106.828C106.828 45.45 106.828 45.4922 106.828 45.5344V50.4296V50.514C106.828 50.514 106.87 50.514 106.913 50.514H107.335H107.42C107.42 50.514 107.42 50.4718 107.42 50.4296V45.5344V45.45Z" fill="white"></path>
<path d="M97.9924 49.5855C97.9924 49.5855 97.9924 49.6277 97.9501 49.6699C97.8656 49.7121 97.781 49.7543 97.6542 49.7543C97.5274 49.7543 97.3583 49.7965 97.1892 49.7965C96.8932 49.7965 96.6819 49.7543 96.5128 49.5855C96.3859 49.4589 96.3014 49.2479 96.3014 48.9525V48.2351C96.3014 47.8975 96.3859 47.6865 96.555 47.5599C96.7241 47.4333 96.9355 47.3489 97.2314 47.3489C97.5274 47.3489 97.5274 47.3489 97.6965 47.3489C97.781 47.3489 97.8656 47.3489 97.9501 47.3489C97.9501 47.3489 97.9924 47.3911 97.9924 47.4333V49.5011V49.5855ZM98.6688 46.8847C98.6688 46.8003 98.6265 46.7581 98.542 46.7581H97.2314C97.2314 46.7581 97.2314 46.7581 97.1892 46.7581C96.7241 46.7581 96.3437 46.8847 96.0477 47.1379C95.7941 47.3911 95.625 47.7287 95.625 48.2351V48.9525C95.625 49.4167 95.7941 49.7965 96.0477 50.0075C96.3437 50.2607 96.7241 50.3873 97.1892 50.3873C97.6542 50.3873 97.4851 50.3873 97.6542 50.3451C97.781 50.3451 97.9078 50.2607 98.0347 50.2185V50.3029C98.0347 50.6405 97.9924 50.8937 97.8233 51.0625C97.6965 51.2313 97.4851 51.2735 97.1469 51.2735C96.8087 51.2735 96.7664 51.2735 96.5973 51.1891C96.4282 51.1047 96.2591 51.0203 96.1323 50.9359C96.1323 50.9359 96.09 50.9359 96.0477 50.9359C96.0477 50.9359 96.0055 50.9359 95.9632 50.9781L95.7518 51.3157C95.7518 51.3157 95.7518 51.3579 95.7518 51.4001C95.7518 51.4001 95.7518 51.4423 95.7941 51.4845C95.9632 51.6533 96.1746 51.7799 96.4282 51.8643C96.6396 51.9487 96.8932 51.9909 97.1892 51.9909C97.6965 51.9909 98.0769 51.8643 98.3306 51.6111C98.5842 51.3579 98.711 50.9359 98.711 50.4717V47.2645V47.0113L98.6688 46.8847Z" fill="white"></path>
<path d="M95.0755 45.4921C95.1601 45.5765 95.1601 45.6609 95.1601 45.7453C95.1601 45.8297 95.1601 45.9563 95.0755 45.9985C94.991 46.0829 94.9064 46.0829 94.8219 46.0829C94.7373 46.0829 94.6105 46.0829 94.5682 45.9985C94.4837 45.9141 94.4414 45.8297 94.4414 45.7453C94.4414 45.6609 94.4414 45.5343 94.526 45.4921C94.6105 45.4077 94.6951 45.4077 94.7796 45.4077C94.8642 45.4077 94.991 45.4077 95.0333 45.4921" fill="white"></path>
<path d="M102.304 49.9655C102.304 49.9655 102.262 49.9655 102.22 49.9655H102.051C102.009 49.9655 101.924 49.9655 101.924 49.9655C101.713 49.9655 101.586 49.9233 101.459 49.7967C101.332 49.6701 101.29 49.5013 101.29 49.2903V47.4757H102.135H102.22C102.22 47.4757 102.22 47.4335 102.22 47.3913V47.0536V46.9692C102.22 46.9692 102.178 46.9692 102.135 46.9692H101.29L101.205 45.6188V45.5344C101.205 45.5344 101.163 45.5344 101.121 45.5344H100.74H100.656C100.656 45.5344 100.656 45.5766 100.656 45.6188V49.4169C100.656 49.8389 100.783 50.1343 100.994 50.3453C101.205 50.5563 101.544 50.6829 101.924 50.6829C102.304 50.6829 102.009 50.6829 102.093 50.6829C102.178 50.6829 102.262 50.6829 102.304 50.6829C102.304 50.6829 102.389 50.6829 102.389 50.6407C102.389 50.6407 102.389 50.5985 102.389 50.5563V50.1765V50.0921" fill="white"></path>
<mask id="mask1_9589_182" style="mask-type:alpha" maskUnits="userSpaceOnUse" x="34" y="30" width="35" height="10">
<mask id="mask2_9589_182" style="mask-type:luminance" maskUnits="userSpaceOnUse" x="34" y="30" width="35" height="10">
<path d="M52.3362 39.5416C45.995 39.5416 39.0619 36.9252 34.7076 32.8317C34.2849 32.4097 34.2426 31.7345 34.6654 31.3125C35.0881 30.8905 35.7645 30.8483 36.1873 31.2703C40.1188 34.9418 46.6291 37.3894 52.3362 37.3894C58.0432 37.3894 64.5113 33.5491 67.1323 31.2703C67.5973 30.8905 68.2737 30.9327 68.6542 31.3547C69.0346 31.8189 68.9924 32.4941 68.5696 32.8739C65.7372 35.3638 59.8611 39.5416 52.3362 39.5416Z" fill="white"></path>
</mask>
<g mask="url(#mask2_9589_182)">
<path d="M34.369 30.8484H34.2422V39.5417H34.369V30.8484Z" fill="white"></path>
<path d="M34.7496 30.8486H34.3691V39.542H34.7496V30.8486Z" fill="white"></path>
<path d="M35.13 30.8484H34.7495V39.5417H35.13V30.8484Z" fill="#F39642"></path>
<path d="M35.4684 30.8484H35.0879V39.5417H35.4684V30.8484Z" fill="white"></path>
<path d="M35.8487 30.8484H35.4683V39.5417H35.8487V30.8484Z" fill="white"></path>
<path d="M36.2291 30.8484H35.8486V39.5417H36.2291V30.8484Z" fill="#F39941"></path>
<path d="M36.6095 30.8484H36.229V39.5417H36.6095V30.8484Z" fill="#F49A41"></path>
<path d="M36.9903 30.8484H36.6099V39.5417H36.9903V30.8484Z" fill="#F39A41"></path>
<path d="M37.3707 30.8484H36.9902V39.5417H37.3707V30.8484Z" fill="#F39B41"></path>
<path d="M37.7511 30.8484H37.3706V39.5417H37.7511V30.8484Z" fill="#F39C41"></path>
<path d="M38.1314 30.8484H37.751V39.5417H38.1314V30.8484Z" fill="#F49D41"></path>
<path d="M38.5123 30.8484H38.1318V39.5417H38.5123V30.8484Z" fill="#F49E41"></path>
<path d="M38.8922 30.8484H38.5117V39.5417H38.8922V30.8484Z" fill="#F49E40"></path>
<path d="M39.2731 30.8484H38.8926V39.5417H39.2731V30.8484Z" fill="#F39F40"></path>
<path d="M39.6534 30.8484H39.2729V39.5417H39.6534V30.8484Z" fill="#F4A040"></path>
<path d="M40.0338 30.8484H39.6533V39.5417H40.0338V30.8484Z" fill="#F4A03F"></path>
<path d="M40.4147 30.8484H40.0342V39.5417H40.4147V30.8484Z" fill="#F4A13F"></path>
<path d="M40.795 30.8484H40.4146V39.5417H40.795V30.8484Z" fill="#F4A23F"></path>
<path d="M41.1754 30.8484H40.7949V39.5417H41.1754V30.8484Z" fill="white"></path>
<path d="M41.5558 30.8484H41.1753V39.5417H41.5558V30.8484Z" fill="white"></path>
<path d="M41.9361 30.8484H41.5557V39.5417H41.9361V30.8484Z" fill="#F4A43F"></path>
<path d="M42.317 30.8484H41.9365V39.5417H42.317V30.8484Z" fill="#F4A53F"></path>
<path d="M42.6974 30.8484H42.3169V39.5417H42.6974V30.8484Z" fill="#F4A63E"></path>
<path d="M43.0777 30.8484H42.6973V39.5417H43.0777V30.8484Z" fill="white"></path>
<path d="M43.4581 30.8484H43.0776V39.5417H43.4581V30.8484Z" fill="white"></path>
<path d="M43.8385 30.8484H43.458V39.5417H43.8385V30.8484Z" fill="#F4A83D"></path>
<path d="M44.2189 30.8484H43.8384V39.5417H44.2189V30.8484Z" fill="white"></path>
<path d="M44.5997 30.8484H44.2192V39.5417H44.5997V30.8484Z" fill="white"></path>
<path d="M44.9801 30.8484H44.5996V39.5417H44.9801V30.8484Z" fill="#F4AA3C"></path>
<path d="M45.3605 30.8484H44.98V39.5417H45.3605V30.8484Z" fill="#F5AB3C"></path>
<path d="M45.7408 30.8484H45.3604V39.5417H45.7408V30.8484Z" fill="#F4AB3D"></path>
<path d="M46.1217 30.8484H45.7412V39.5417H46.1217V30.8484Z" fill="#F4AC3D"></path>
<path d="M46.5021 30.8484H46.1216V39.5417H46.5021V30.8484Z" fill="#F4AD3C"></path>
<path d="M46.8824 30.8484H46.502V39.5417H46.8824V30.8484Z" fill="#F4AE3C"></path>
<path d="M47.2628 30.8484H46.8823V39.5417H47.2628V30.8484Z" fill="#F5AE3C"></path>
<path d="M47.6432 30.8484H47.2627V39.5417H47.6432V30.8484Z" fill="#F5AF3B"></path>
<path d="M48.024 30.8484H47.6436V39.5417H48.024V30.8484Z" fill="white"></path>
<path d="M48.4044 30.8484H48.0239V39.5417H48.4044V30.8484Z" fill="white"></path>
<path d="M48.7848 30.8484H48.4043V39.5417H48.7848V30.8484Z" fill="#F4B13A"></path>
<path d="M49.1651 30.8484H48.7847V39.5417H49.1651V30.8484Z" fill="#F5B23A"></path>
<path d="M49.546 30.8484H49.1655V39.5417H49.546V30.8484Z" fill="white"></path>
<path d="M49.9264 30.8484H49.5459V39.5417H49.9264V30.8484Z" fill="white"></path>
<path d="M50.3067 30.8484H49.9263V39.5417H50.3067V30.8484Z" fill="white"></path>
<path d="M50.6871 30.8484H50.3066V39.5417H50.6871V30.8484Z" fill="white"></path>
<path d="M51.0675 30.8484H50.687V39.5417H51.0675V30.8484Z" fill="#F5B539"></path>
<path d="M51.4479 30.8484H51.0674V39.5417H51.4479V30.8484Z" fill="#F5B638"></path>
<path d="M51.8287 30.8484H51.4482V39.5417H51.8287V30.8484Z" fill="#F5B738"></path>
<path d="M52.2091 30.8484H51.8286V39.5417H52.2091V30.8484Z" fill="#F4B738"></path>
<path d="M52.5895 30.8484H52.209V39.5417H52.5895V30.8484Z" fill="#F4B838"></path>
<path d="M52.9698 30.8484H52.5894V39.5417H52.9698V30.8484Z" fill="#F5B837"></path>
<path d="M53.3507 30.8484H52.9702V39.5417H53.3507V30.8484Z" fill="#F5B937"></path>
<path d="M53.7311 30.8484H53.3506V39.5417H53.7311V30.8484Z" fill="#F5BA37"></path>
<path d="M54.1114 30.8484H53.731V39.5417H54.1114V30.8484Z" fill="#F5BB36"></path>
<path d="M54.4918 30.8484H54.1113V39.5417H54.4918V30.8484Z" fill="#F4BB36"></path>
<path d="M54.8727 30.8484H54.4922V39.5417H54.8727V30.8484Z" fill="#F5BC36"></path>
<path d="M55.2525 30.8484H54.8721V39.5417H55.2525V30.8484Z" fill="#F5BC35"></path>
<path d="M55.6334 30.8484H55.2529V39.5417H55.6334V30.8484Z" fill="#F5BD35"></path>
<path d="M56.0138 30.8484H55.6333V39.5417H56.0138V30.8484Z" fill="#F5BE35"></path>
<path d="M56.3941 30.8484H56.0137V39.5417H56.3941V30.8484Z" fill="#F5BF34"></path>
<path d="M56.7745 30.8484H56.394V39.5417H56.7745V30.8484Z" fill="#F4BF33"></path>
<path d="M57.1554 30.8484H56.7749V39.5417H57.1554V30.8484Z" fill="#F5C033"></path>
<path d="M57.5357 30.8484H57.1553V39.5417H57.5357V30.8484Z" fill="#F5C033"></path>
<path d="M57.8736 30.8484H57.4932V39.5417H57.8736V30.8484Z" fill="#F5C132"></path>
<path d="M58.2545 30.8484H57.874V39.5417H58.2545V30.8484Z" fill="#F5C232"></path>
<path d="M58.6349 30.8484H58.2544V39.5417H58.6349V30.8484Z" fill="#F4C232"></path>
<path d="M59.0152 30.8484H58.6348V39.5417H59.0152V30.8484Z" fill="#F4C331"></path>
<path d="M59.3956 30.8484H59.0151V39.5417H59.3956V30.8484Z" fill="#F5C331"></path>
<path d="M59.7765 30.8484H59.396V39.5417H59.7765V30.8484Z" fill="#F5C431"></path>
<path d="M60.1568 30.8484H59.7764V39.5417H60.1568V30.8484Z" fill="#F5C531"></path>
<path d="M60.5372 30.8484H60.1567V39.5417H60.5372V30.8484Z" fill="#F5C52F"></path>
<path d="M60.9176 30.8484H60.5371V39.5417H60.9176V30.8484Z" fill="#F5C72F"></path>
<path d="M61.2979 30.8484H60.9175V39.5417H61.2979V30.8484Z" fill="#F5C72F"></path>
<path d="M61.6783 30.8484H61.2979V39.5417H61.6783V30.8484Z" fill="#F5C82D"></path>
<path d="M62.0592 30.8484H61.6787V39.5417H62.0592V30.8484Z" fill="#F5C92D"></path>
<path d="M62.4396 30.8484H62.0591V39.5417H62.4396V30.8484Z" fill="#F5C92D"></path>
<path d="M62.8199 30.8484H62.4395V39.5417H62.8199V30.8484Z" fill="#F5CA2C"></path>
<path d="M63.2003 30.8484H62.8198V39.5417H63.2003V30.8484Z" fill="#F5CA2C"></path>
<path d="M63.5812 30.8484H63.2007V39.5417H63.5812V30.8484Z" fill="#F5CB2C"></path>
<path d="M63.961 30.8484H63.5806V39.5417H63.961V30.8484Z" fill="#F5CC2C"></path>
<path d="M64.3419 30.8484H63.9614V39.5417H64.3419V30.8484Z" fill="#F5CC2A"></path>
<path d="M64.7223 30.8484H64.3418V39.5417H64.7223V30.8484Z" fill="#F5CD2A"></path>
<path d="M65.1031 30.8484H64.7227V39.5417H65.1031V30.8484Z" fill="#F5CE2A"></path>
<path d="M65.483 30.8484H65.1025V39.5417H65.483V30.8484Z" fill="#F5CE28"></path>
<path d="M65.8639 30.8484H65.4834V39.5417H65.8639V30.8484Z" fill="white"></path>
<path d="M66.2442 30.8484H65.8638V39.5417H66.2442V30.8484Z" fill="white"></path>
<path d="M66.6246 30.8484H66.2441V39.5417H66.6246V30.8484Z" fill="#F5D026"></path>
<path d="M67.005 30.8484H66.6245V39.5417H67.005V30.8484Z" fill="#F5D026"></path>
<path d="M67.3858 30.8484H67.0054V39.5417H67.3858V30.8484Z" fill="white"></path>
<path d="M67.7657 30.8484H67.3853V39.5417H67.7657V30.8484Z" fill="white"></path>
<path d="M68.1466 30.8484H67.7661V39.5417H68.1466V30.8484Z" fill="#F5D224"></path>
<path d="M68.527 30.8484H68.1465V39.5417H68.527V30.8484Z" fill="white"></path>
<path d="M68.9078 30.8484H68.5273V39.5417H68.9078V30.8484Z" fill="white"></path>
<path d="M69.0345 30.8484H68.9077V39.5417H69.0345V30.8484Z" fill="white"></path>
</g>
</mask>
<g mask="url(#mask1_9589_182)">
<rect x="8.87793" y="30.8064" width="77.3626" height="18.5683" fill="white"></rect>
</g>
</g>
<defs>
<clipPath id="clip0_9589_182">
<rect width="107.42" height="51.9489" fill="white"></rect>
</clipPath>
</defs>
</svg>