<svg width="55" height="39" viewBox="0 0 55 39" fill="none" xmlns="http://www.w3.org/2000/svg">
<g clip-path="url(#clip0_9589_1340)">
<path d="M27.0093 19.3985H23.1041C23.2382 19.7027 23.322 19.9548 23.4393 20.1894C27.5122 27.9767 22.6097 37.2762 14.4892 38.5972C6.64525 39.8748 0.720385 34.017 0.0332018 27.1684C-0.00869966 26.7425 0.00806091 26.308 0.00806091 25.8734V3.5199C-0.000319379 3.14618 -0.000319381 2.77246 0.0751032 2.41613C0.385174 0.964713 1.60032 0 3.07525 0C4.55856 0 5.75694 0.929948 6.07539 2.39875C6.18433 2.87676 6.20109 3.38084 6.20109 3.86754C6.20947 11.0464 6.20109 18.2079 6.20947 25.3867C6.20947 26.0038 6.20947 26.6382 6.33518 27.2292C7.37433 32.1136 13.0729 33.8084 16.534 30.8969C18.5034 29.2456 19.0145 27.0033 18.5034 24.5437C17.967 21.9711 16.425 20.285 13.9529 19.5811C13.4668 19.442 12.9556 19.4159 12.4528 19.3725C11.2041 19.2682 10.3493 18.3817 10.3661 17.1736C10.3829 16.0699 11.2963 15.0617 12.5366 15.0704C18.3776 15.0964 24.2271 15.0704 30.0681 15.0878C31.9202 15.0878 33.2024 16.4349 33.2275 18.373C33.2527 20.8152 33.2359 23.2574 33.2359 25.6996C33.2359 28.8197 33.2359 31.9485 33.2359 35.0686C33.2359 35.4945 33.2108 35.9377 33.1186 36.3549C32.7498 37.9367 31.476 38.8492 29.8503 38.7449C28.3669 38.6493 27.1937 37.4587 27.0345 35.8856C27.001 35.5466 27.0177 35.2077 27.0177 34.8687V20.4936C27.0177 20.1547 27.0177 19.8244 27.0177 19.4072L27.0093 19.3985Z" fill="white"></path>
<path d="M45.4881 21.5106C45.0607 21.4845 44.7758 21.4585 44.4908 21.4585C42.4963 21.4585 40.4934 21.3976 38.4989 21.4759C36.5547 21.5541 35.0044 19.8767 35.3731 17.6083C35.5994 16.2264 36.6301 15.2183 37.9794 15.1053C38.214 15.0879 38.457 15.0879 38.6917 15.0879C42.5047 15.0879 46.3177 15.0879 50.1391 15.0879C50.5582 15.0879 50.9856 15.0879 51.3794 15.1922C53.2985 15.6615 54.3796 17.5909 53.9187 19.7202C53.6924 20.7806 53.1309 21.641 52.427 22.4232C49.8039 25.3347 47.1893 28.2549 44.5663 31.1751C44.3232 31.4446 44.0886 31.7227 43.745 32.1051C44.0634 32.1485 44.2729 32.2007 44.4825 32.2007C46.5691 32.2007 48.6558 32.192 50.7425 32.2094C52.1923 32.2181 53.3823 33.0263 53.8013 34.33C54.6561 36.9895 52.7957 38.7798 50.9353 38.7538C46.8792 38.7016 42.8315 38.6756 38.7755 38.7712C36.6972 38.8233 34.6608 36.9634 35.4988 34.0866C35.6999 33.4001 36.0854 32.7221 36.5463 32.1746C39.2867 28.872 42.0689 25.6041 44.8428 22.3276C45.0188 22.0929 45.1948 21.8583 45.4629 21.5106H45.4881Z" fill="white"></path>
<path d="M30.0934 13.0106C27.7721 12.9932 25.9536 11.0811 25.9619 8.6737C25.9787 6.27496 27.8307 4.38899 30.1521 4.40637C32.465 4.42375 34.3087 6.35318 34.2919 8.73454C34.2752 11.1159 32.4064 13.0193 30.0934 13.0106Z" fill="white"></path>
</g>
<defs>
<clipPath id="clip0_9589_1340">
<rect width="54.0445" height="38.771" fill="white"></rect>
</clipPath>
</defs>
</svg>