<svg width="198" height="41" viewBox="0 0 198 41" fill="none" xmlns="http://www.w3.org/2000/svg">
<path d="M49.1953 36.6214V36.6047C49.1953 34.7231 50.6185 33.1855 52.6658 33.1855C53.9213 33.1855 54.6683 33.6018 55.2905 34.2032L54.3591 35.2689C53.8468 34.8082 53.3233 34.5214 52.6565 34.5214C51.535 34.5214 50.7266 35.4465 50.7266 36.5807V36.601C50.7266 37.7352 51.5145 38.6788 52.6565 38.6788C53.4165 38.6788 53.8841 38.3754 54.4075 37.9036L55.3389 38.8361C54.6571 39.5632 53.8971 40.0184 52.6117 40.0184C50.6539 40.0184 49.199 38.516 49.199 36.6195" fill="white"></path>
<path d="M56.4941 36.6214V36.6047C56.4941 34.7231 57.9863 33.1855 60.0372 33.1855C62.0882 33.1855 63.5654 34.7064 63.5654 36.5844V36.6047C63.5654 38.4809 62.0733 40.0239 60.0223 40.0239C57.9714 40.0239 56.4941 38.5031 56.4941 36.6251M62.0361 36.6214V36.6047C62.0361 35.4706 61.1997 34.527 60.0205 34.527C58.8413 34.527 58.0254 35.4521 58.0254 36.5862V36.6066C58.0254 37.7408 58.8618 38.6844 60.041 38.6844C61.2201 38.6844 62.0398 37.7593 62.0398 36.6251" fill="white"></path>
<path d="M65.3408 33.2983H66.6932L69.8116 37.367V33.2983H71.2534V39.9055H70.0109L66.7882 35.7036V39.9055H65.3408V33.2983Z" fill="white"></path>
<path d="M72.8699 38.9451L73.7361 37.9164C74.3341 38.4085 74.9638 38.7194 75.7238 38.7194C76.3218 38.7194 76.6831 38.4807 76.6831 38.0977V38.0774C76.6831 37.7092 76.4559 37.5204 75.3419 37.2374C74.0007 36.8988 73.1345 36.5306 73.1345 35.2151V35.1947C73.1345 33.9958 74.105 33.2002 75.463 33.2002C76.4335 33.2002 77.2588 33.5036 77.9331 34.0402L77.1731 35.1337C76.5844 34.7266 76.0032 34.4805 75.4425 34.4805C74.8818 34.4805 74.5856 34.734 74.5856 35.0578V35.0782C74.5856 35.5148 74.8706 35.6554 76.02 35.9459C77.3687 36.2975 78.1287 36.7767 78.1287 37.9275V37.9478C78.1287 39.2597 77.1209 39.9979 75.6865 39.9979C74.6787 39.9979 73.6635 39.6463 72.8662 38.9396" fill="white"></path>
<path d="M79.7795 37.0728V33.2947H81.2418V37.0321C81.2418 38.1089 81.7821 38.6677 82.6762 38.6677C83.5704 38.6677 84.1106 38.1311 84.1106 37.0821V33.2965H85.5729V37.0266C85.5729 39.0285 84.444 40.0091 82.6557 40.0091C80.8674 40.0091 79.7739 39.0211 79.7739 37.0747" fill="white"></path>
<path d="M87.5454 33.2983H89.0077V38.5826H92.3236V39.9055H87.5454V33.2983Z" fill="white"></path>
<path d="M94.4978 34.6379H92.4785V33.2983H97.9888V34.6379H95.9657V39.9055H94.4978V34.6379Z" fill="white"></path>
<path d="M99.0039 36.6214V36.6047C99.0039 34.7231 100.496 33.1855 102.547 33.1855C104.598 33.1855 106.075 34.7064 106.075 36.5844V36.6047C106.075 38.4809 104.583 40.0239 102.532 40.0239C100.481 40.0239 99.0039 38.5031 99.0039 36.6251M104.548 36.6214V36.6047C104.548 35.4706 103.711 34.527 102.532 34.527C101.353 34.527 100.533 35.4521 100.533 36.5862V36.6066C100.533 37.7408 101.37 38.6844 102.549 38.6844C103.728 38.6844 104.544 37.7593 104.544 36.6251" fill="white"></path>
<path d="M107.852 33.2983H110.892C111.742 33.2983 112.395 33.5333 112.831 33.9681C113.202 34.3363 113.405 34.8562 113.405 35.4779V35.4945C113.405 36.5603 112.824 37.2337 111.978 37.5446L113.604 39.9055H111.894L110.467 37.7907H109.318V39.9055H107.856V33.2983H107.852ZM110.801 36.5066C111.513 36.5066 111.922 36.1273 111.922 35.5741V35.5575C111.922 34.9321 111.483 34.6138 110.773 34.6138H109.318V36.5103H110.801V36.5066Z" fill="white"></path>
<path d="M116.736 33.2983H115.268V39.9055H116.736V33.2983Z" fill="white"></path>
<path d="M121.147 33.2502H122.496L125.348 39.9055H123.82L123.211 38.4234H120.398L119.789 39.9055H118.293L121.145 33.2502H121.147ZM122.688 37.1375L121.807 34.995L120.92 37.1375H122.688Z" fill="white"></path>
<path d="M130.178 33.2983H132.771C134.863 33.2983 136.307 34.723 136.307 36.5843V36.6047C136.307 38.466 134.86 39.911 132.771 39.911H130.178V33.3002V33.2983ZM131.641 34.6101V38.5937H132.769C133.969 38.5937 134.778 37.7907 134.778 36.6195V36.6028C134.778 35.4316 133.969 34.6083 132.769 34.6083H131.641V34.6101Z" fill="white"></path>
<path d="M138.086 33.2983H143.104V34.5898H139.541V35.9312H142.678V37.2263H139.541V38.614H143.153V39.9055H138.086V33.2983Z" fill="white"></path>
<path d="M147.797 38.9451L148.663 37.9164C149.261 38.4085 149.891 38.7194 150.651 38.7194C151.252 38.7194 151.61 38.4807 151.61 38.0977V38.0774C151.61 37.7092 151.383 37.5204 150.269 37.2374C148.927 36.8988 148.061 36.5306 148.061 35.2151V35.1947C148.061 33.9958 149.032 33.2002 150.39 33.2002C151.36 33.2002 152.186 33.5036 152.86 34.0402L152.1 35.1337C151.511 34.7266 150.93 34.4805 150.369 34.4805C149.809 34.4805 149.512 34.734 149.512 35.0578V35.0782C149.512 35.5148 149.797 35.6554 150.95 35.9459C152.299 36.2975 153.059 36.7767 153.059 37.9275V37.9478C153.059 39.2597 152.051 39.9979 150.617 39.9979C149.609 39.9979 148.594 39.6463 147.793 38.9396" fill="white"></path>
<path d="M154.812 33.2983H159.83V34.5898H156.267V35.9312H159.404V37.2263H156.267V38.614H159.879V39.9055H154.812V33.2983Z" fill="white"></path>
<path d="M161.358 36.6214V36.6047C161.358 34.7231 162.834 33.1855 164.849 33.1855C166.049 33.1855 166.768 33.5038 167.463 34.094L166.541 35.2004C166.029 34.7767 165.57 34.5307 164.801 34.5307C163.735 34.5307 162.892 35.4632 162.892 36.5899V36.6103C162.892 37.8166 163.724 38.7047 164.907 38.7047C165.44 38.7047 165.915 38.5715 166.286 38.3051V37.3615H164.81V36.107H167.699V38.9767C167.018 39.554 166.073 40.0258 164.859 40.0258C162.785 40.0258 161.36 38.5808 161.36 36.6269" fill="white"></path>
<path d="M169.478 37.0728V33.2947H170.941V37.0321C170.941 38.1089 171.481 38.6677 172.375 38.6677C173.269 38.6677 173.809 38.1311 173.809 37.0821V33.2965H175.272V37.0266C175.272 39.0285 174.143 40.0091 172.354 40.0091C170.566 40.0091 169.473 39.0211 169.473 37.0747" fill="white"></path>
<path d="M177.243 33.2983H180.287C181.132 33.2983 181.786 33.5333 182.226 33.9681C182.596 34.3363 182.794 34.8562 182.794 35.4779V35.4945C182.794 36.5603 182.213 37.2337 181.371 37.5446L182.997 39.9055H181.287L179.86 37.7907H178.711V39.9055H177.248V33.2983H177.245H177.243ZM180.19 36.5066C180.901 36.5066 181.311 36.1273 181.311 35.5741V35.5575C181.311 34.9321 180.871 34.6138 180.162 34.6138H178.707V36.5103H180.19V36.5066Z" fill="white"></path>
<path d="M184.293 36.6214V36.6047C184.293 34.7231 185.786 33.1855 187.837 33.1855C189.888 33.1855 191.365 34.7064 191.365 36.5844V36.6047C191.365 38.4809 189.873 40.0239 187.822 40.0239C185.771 40.0239 184.293 38.5031 184.293 36.6251M189.837 36.6214V36.6047C189.837 35.4706 189.001 34.527 187.822 34.527C186.642 34.527 185.827 35.4521 185.827 36.5862V36.6066C185.827 37.7408 186.663 38.6844 187.842 38.6844C189.021 38.6844 189.837 37.7593 189.837 36.6251" fill="white"></path>
<path d="M192.637 38.9451L193.503 37.9164C194.101 38.4085 194.731 38.7194 195.491 38.7194C196.089 38.7194 196.45 38.4807 196.45 38.0977V38.0774C196.45 37.7092 196.223 37.5204 195.109 37.2374C193.768 36.8988 192.901 36.5306 192.901 35.2151V35.1947C192.901 33.9958 193.872 33.2002 195.23 33.2002C196.2 33.2002 197.026 33.5036 197.7 34.0402L196.94 35.1337C196.351 34.7266 195.77 34.4805 195.209 34.4805C194.649 34.4805 194.353 34.734 194.353 35.0578V35.0782C194.353 35.5148 194.638 35.6554 195.787 35.9459C197.136 36.2975 197.896 36.7767 197.896 37.9275V37.9478C197.896 39.2597 196.888 39.9979 195.453 39.9979C194.446 39.9979 193.43 39.6463 192.629 38.9396" fill="white"></path>
<path d="M70.9291 0.608643V23.8214H65.3201V15.3216H55.1081V23.8214H49.501V0.608643H55.1081V10.3241H65.3201V0.608643H70.9291Z" fill="white"></path>
<path d="M99.248 12.2503C99.248 18.998 93.7452 24.4635 86.9515 24.4635C80.1577 24.4635 74.6177 19.0017 74.6177 12.2503C74.6177 5.49884 80.1205 0 86.9515 0C93.7825 0 99.248 5.50069 99.248 12.2503ZM93.8551 12.2503C93.8551 8.46474 90.7628 5.36007 86.9515 5.36007C83.1401 5.36007 80.0143 8.46844 80.0143 12.2503C80.0143 16.0321 83.1066 19.1072 86.9515 19.1072C90.7963 19.1072 93.8551 16.0358 93.8551 12.2503Z" fill="white"></path>
<path d="M123.33 18.2523V23.8214H103.089V0.608643H108.696V18.2523H123.33Z" fill="white"></path>
<path d="M150.131 12.1817C150.131 18.6075 144.917 23.8214 138.448 23.8214H127.373V0.608643H138.448C145.605 0.608643 150.131 5.7874 150.131 12.1799M144.522 12.1817C144.522 8.71814 141.933 6.18334 138.988 6.18334H132.982V18.256H138.988C141.901 18.1468 144.522 15.649 144.522 12.1854" fill="white"></path>
<path d="M159.009 5.60977V9.75056H168.465V14.7165H159.009V18.8573H170.986V23.8214H153.402V0.608643H170.986V5.60977H159.009Z" fill="white"></path>
<path d="M197.842 0.608643V23.8214H192.231L180.585 9.92818V23.8214H174.976V0.608643H180.585L192.231 15.0718V0.608643H197.842Z" fill="white"></path>
<path d="M23.0544 6.32032H17.0393L13.7719 9.5656L17.9446 13.7101L13.1944 18.43L9.01795 14.2836L4.26215 19.0072L4.25843 4.84385H39.5572V0.614258H0V29.2093L9.01795 20.258L13.1944 24.4025L23.9634 13.7101L19.787 9.5656L23.0544 6.32032Z" fill="white"></path>
<path d="M16.5028 34.1956H22.5179L25.7834 30.9503L21.6107 26.8003L26.3609 22.0822L30.5392 26.2267L35.2932 21.505L35.2969 35.6721H0V39.9017H39.5572V11.301L30.5392 20.2579L26.3609 16.1079L15.5919 26.8003L19.7702 30.9503L16.5028 34.1956Z" fill="white"></path>
</svg>