<svg width="85" height="46" viewBox="0 0 85 46" fill="none" xmlns="http://www.w3.org/2000/svg">
<path d="M37.8752 11.8591C36.9042 11.8591 36.0869 11.5251 35.4146 10.8529C34.7819 10.1806 34.4656 9.35895 34.4656 8.3923C34.4656 7.42565 34.7819 6.60399 35.4146 5.93173C36.0869 5.25947 36.9085 4.92553 37.8752 4.92553C38.8419 4.92553 39.6459 5.25947 40.2786 5.93173C40.9509 6.60399 41.2848 7.42565 41.2848 8.3923C41.2848 9.35895 40.9509 10.1806 40.2786 10.8529C39.6459 11.5251 38.8419 11.8591 37.8752 11.8591ZM0 38.9385C0 36.7767 0.654687 35.0236 1.95967 33.6791C3.26465 32.2994 5.1672 31.1789 7.66731 30.3221L12.7027 28.5865V23.8851C12.7027 21.6091 12.5181 19.9702 12.1447 18.964C11.7712 17.9578 11.0242 17.4525 9.90819 17.4525C8.90199 17.4525 8.15503 17.7864 7.6717 18.4587C7.22353 19.0914 6.75778 20.0976 6.27445 21.4817C5.82628 22.8613 5.36053 23.8851 4.8772 24.5574C4.39387 25.2296 3.64692 25.5636 2.64072 25.5636C1.9333 25.5636 1.37089 25.3395 0.962259 24.8913C0.553628 24.408 0.347116 23.7709 0.347116 22.9888C0.347116 21.7189 0.777716 20.5633 1.63452 19.522C2.49133 18.4762 3.62934 17.6766 5.04856 17.1185C6.50293 16.521 8.08912 16.2222 9.80273 16.2222C12.3775 16.2222 14.3899 16.8549 15.8443 18.1247C17.2987 19.3946 18.0281 21.1082 18.0281 23.27V41.0036C18.0281 41.8253 18.195 42.458 18.5334 42.9062C18.9068 43.3148 19.4297 43.5213 20.102 43.5213C20.7347 43.5213 21.4465 43.3719 22.2286 43.0732L23.0678 42.7392V2.74178H19.0387V0.89635H24.408C25.713 0.89635 26.6093 0.597567 27.0926 0H28.38V43.2445H34.7555V18.964H31.2317V17.1185H36.1001C37.4051 17.1185 38.3014 16.8198 38.7847 16.2222H40.0721V43.2445H43.9871V45.0899H20.7127C19.4429 45.314 18.4762 45.4239 17.804 45.4239C15.0051 45.4239 13.3662 44.3034 12.8828 42.067L12.2106 42.6821C11.2395 43.5389 10.2905 44.2112 9.35895 44.6945C8.4626 45.1778 7.49595 45.4239 6.45021 45.4239C4.54766 45.4239 3.00102 44.8263 1.80588 43.6356C0.610749 42.4404 0.0175755 40.8762 0.0175755 38.9341L0 38.9385ZM5.20235 37.427C5.20235 38.8067 5.57583 39.9052 6.32279 40.7268C7.06974 41.5089 8.09352 41.9 9.3985 41.9C10.4442 41.9 11.4504 41.5089 12.4215 40.7268L12.7027 40.5027V30.3221L9.40289 31.6095C6.60399 32.6904 5.20674 34.6325 5.20674 37.427H5.20235Z" fill="white"></path>
<path d="M55.6397 18.0149C54.4841 18.0149 53.4559 18.5553 52.564 19.6362C51.672 20.7171 50.9778 22.1539 50.4945 23.9422C50.0463 25.6954 49.8222 27.5408 49.8222 29.4785C49.8222 33.244 50.4945 36.2099 51.8346 38.3717C53.2143 40.4983 55.1168 41.5616 57.5422 41.5616C59.5942 41.5616 61.1979 40.7048 62.3535 38.9868C63.5487 37.2337 64.1418 34.8478 64.1418 31.8248C64.1418 28.8018 64.59 26.0644 65.4864 23.7137C66.4179 21.363 67.7448 19.5351 69.4584 18.2302C71.172 16.8856 73.1712 16.2178 75.4429 16.2178C78.2022 16.2178 80.4211 17.1317 82.0996 18.9596C83.8132 20.7874 84.6744 23.3051 84.6744 26.5126V28.525H69.0102V29.3071C69.0102 32.664 69.7001 35.5552 71.0798 37.9762C72.4594 40.3621 74.4718 41.5572 77.1213 41.5572C78.2022 41.5572 79.1162 41.4254 79.8631 41.1662C80.6101 40.8674 81.357 40.3665 82.0996 39.6547L83.1629 38.7056L84.3361 39.9359L83.0487 41.5572C80.6628 44.5055 77.921 45.9775 74.8233 45.9775C72.3628 45.9775 70.2537 45.2129 68.5006 43.6839C66.7474 42.1548 65.5171 40.0458 64.8097 37.3611C64.177 39.9359 63.0214 42.023 61.3429 43.6268C59.704 45.1954 57.7619 45.9775 55.5254 45.9775C52.0587 45.9775 49.3345 44.7296 47.3572 42.2295C45.4195 39.7294 44.4485 36.3197 44.4485 31.9918C44.4485 28.9336 44.9538 26.2094 45.96 23.8236C47.0057 21.3982 48.4205 19.5351 50.2132 18.2302C52.0411 16.8856 54.1106 16.2178 56.4218 16.2178C58.733 16.2178 60.451 16.7406 61.7911 17.7864C63.1708 18.8321 63.8606 20.2118 63.8606 21.9254C63.8606 22.9712 63.619 23.8104 63.1312 24.4431C62.6479 25.0407 62.0108 25.3395 61.2287 25.3395C60.2972 25.3395 59.6249 25.0055 59.2163 24.3333C58.8077 23.661 58.4342 22.6943 58.0959 21.4245C57.7619 20.2294 57.4412 19.3726 57.1468 18.8497C56.848 18.2917 56.3471 18.0105 55.6353 18.0105L55.6397 18.0149ZM79.5248 26.8509V25.0055C79.5248 22.7295 79.1337 20.9763 78.3516 19.7461C77.6047 18.5158 76.5238 17.9006 75.1089 17.9006C73.47 17.9006 72.1255 18.7399 71.0798 20.4183C70.0736 22.0968 69.4189 24.241 69.1201 26.8509H79.5248Z" fill="white"></path>
</svg>