<svg width="132" height="39" viewBox="0 0 132 39" fill="none" xmlns="http://www.w3.org/2000/svg">
<g clip-path="url(#clip0_9589_436)">
<mask id="mask0_9589_436" style="mask-type:luminance" maskUnits="userSpaceOnUse" x="0" y="0" width="132" height="39">
<path d="M132 0H0V39H132V0Z" fill="white"></path>
</mask>
<g mask="url(#mask0_9589_436)">
<mask id="mask1_9589_436" style="mask-type:luminance" maskUnits="userSpaceOnUse" x="0" y="0" width="132" height="39">
<path d="M131.774 0H0V39H131.774V0Z" fill="white"></path>
</mask>
<g mask="url(#mask1_9589_436)">
<mask id="mask2_9589_436" style="mask-type:luminance" maskUnits="userSpaceOnUse" x="0" y="0" width="132" height="39">
<path d="M131.774 0H0V39H131.774V0Z" fill="white"></path>
</mask>
<g mask="url(#mask2_9589_436)">
<path d="M97.3661 15.4114C98.0333 16.0239 98.3664 17.0406 98.3654 18.4615C98.3654 21.1073 97.0712 22.4303 94.4827 22.4305H91.993C91.979 22.4324 91.9648 22.4312 91.9514 22.4267C91.938 22.4223 91.9258 22.4148 91.9158 22.4049C91.9058 22.395 91.8983 22.3829 91.8938 22.3696C91.8894 22.3563 91.8881 22.3422 91.8901 22.3283L91.9811 14.595C91.9791 14.5812 91.9803 14.567 91.9848 14.5537C91.9892 14.5404 91.9967 14.5283 92.0067 14.5184C92.0167 14.5085 92.0288 14.501 92.0422 14.4966C92.0556 14.4921 92.0698 14.4909 92.0838 14.4928H94.4821C95.7381 14.4928 96.6993 14.7991 97.3655 15.4116M96.9312 21.1035C97.4905 20.5822 97.7704 19.7015 97.7708 18.4617C97.7708 16.753 97.2455 15.6985 96.1949 15.298C95.6434 15.1128 95.0637 15.0246 94.4817 15.0373H92.5744L92.483 21.886H94.4815C95.5552 21.886 96.3716 21.6252 96.931 21.1035" fill="white"></path>
<path d="M97.3661 15.4114C98.0333 16.0239 98.3664 17.0406 98.3654 18.4615C98.3654 21.1073 97.0712 22.4303 94.4827 22.4305H91.993C91.979 22.4324 91.9648 22.4312 91.9514 22.4267C91.938 22.4223 91.9258 22.4148 91.9158 22.4049C91.9058 22.395 91.8983 22.3829 91.8938 22.3696C91.8894 22.3563 91.8881 22.3422 91.8901 22.3283L91.9811 14.595C91.9791 14.5812 91.9803 14.567 91.9848 14.5537C91.9892 14.5404 91.9967 14.5283 92.0067 14.5184C92.0167 14.5085 92.0288 14.501 92.0422 14.4966C92.0556 14.4921 92.0698 14.4909 92.0838 14.4928H94.4821C95.7381 14.4928 96.6993 14.7991 97.3655 15.4116M96.9312 21.1035C97.4905 20.5822 97.7704 19.7015 97.7708 18.4617C97.7708 16.753 97.2455 15.6985 96.1949 15.298C95.6434 15.1128 95.0637 15.0246 94.4817 15.0373H92.5744L92.483 21.886H94.4815C95.5552 21.886 96.3716 21.6252 96.931 21.1035" fill="white"></path>
<path d="M100.051 22.3451C100.024 22.3196 100.002 22.2888 99.9874 22.2546C99.9727 22.2205 99.9652 22.1836 99.9654 22.1465V14.7423C99.9644 14.7034 99.9714 14.6646 99.9862 14.6285C100.001 14.5924 100.023 14.5597 100.051 14.5325C100.077 14.5055 100.108 14.4841 100.142 14.4695C100.176 14.4549 100.213 14.4474 100.251 14.4476H100.273C100.311 14.4458 100.349 14.452 100.385 14.4656C100.42 14.4792 100.452 14.5 100.479 14.5267C100.506 14.5534 100.527 14.5853 100.541 14.6205C100.554 14.6557 100.561 14.6934 100.559 14.7311V22.1469C100.56 22.2208 100.531 22.2921 100.479 22.3454C100.453 22.3733 100.421 22.3953 100.386 22.41C100.35 22.4246 100.312 22.4316 100.273 22.4304H100.251C100.213 22.4304 100.176 22.4229 100.142 22.4083C100.108 22.3937 100.077 22.3723 100.051 22.3454" fill="white"></path>
<path d="M100.051 22.3451C100.024 22.3196 100.002 22.2888 99.9874 22.2546C99.9727 22.2205 99.9652 22.1836 99.9654 22.1465V14.7423C99.9644 14.7034 99.9714 14.6646 99.9862 14.6285C100.001 14.5924 100.023 14.5597 100.051 14.5325C100.077 14.5055 100.108 14.4841 100.142 14.4695C100.176 14.4549 100.213 14.4474 100.251 14.4476H100.273C100.311 14.4458 100.349 14.452 100.385 14.4656C100.42 14.4792 100.452 14.5 100.479 14.5267C100.506 14.5534 100.527 14.5853 100.541 14.6205C100.554 14.6557 100.561 14.6934 100.559 14.7311V22.1469C100.56 22.2208 100.531 22.2921 100.479 22.3454C100.453 22.3733 100.421 22.3953 100.386 22.41C100.35 22.4246 100.312 22.4316 100.273 22.4304H100.251C100.213 22.4304 100.176 22.4229 100.142 22.4083C100.108 22.3937 100.077 22.3723 100.051 22.3454" fill="white"></path>
<path d="M109.113 16.3411C108.938 16.0305 108.712 15.7508 108.444 15.5133C108.184 15.2982 107.883 15.1364 107.56 15.0374C107.116 14.9237 106.658 14.8702 106.2 14.8784C105.556 14.8612 104.918 15.0118 104.351 15.3153C103.835 15.6031 103.421 16.0403 103.163 16.5684C102.878 17.1589 102.737 17.8076 102.751 18.4621C102.736 19.1148 102.877 19.7617 103.163 20.3501C103.423 20.8764 103.837 21.3128 104.351 21.6027C104.917 21.9097 105.555 22.0623 106.2 22.0451C107.312 22.0451 108.138 21.8201 108.678 21.3701C109.219 20.9201 109.524 20.1888 109.592 19.1763H106.92C106.842 19.1782 106.766 19.1496 106.709 19.0966C106.682 19.0724 106.66 19.0427 106.645 19.0095C106.63 18.9763 106.623 18.9403 106.623 18.9041C106.623 18.8681 106.629 18.8324 106.643 18.7992C106.657 18.766 106.677 18.7359 106.703 18.7107C106.73 18.6844 106.763 18.6638 106.798 18.6502C106.833 18.6366 106.871 18.6303 106.909 18.6316H110.13C110.144 18.6297 110.158 18.631 110.171 18.6354C110.185 18.6399 110.197 18.6474 110.207 18.6573C110.217 18.6672 110.224 18.6793 110.229 18.6925C110.233 18.7058 110.234 18.7199 110.232 18.7338C110.225 20.0491 109.882 21.0204 109.204 21.6479C108.527 22.2754 107.526 22.5891 106.2 22.589C105.46 22.605 104.728 22.4291 104.077 22.0788C103.474 21.7454 102.982 21.245 102.66 20.6386C102.314 19.9653 102.142 19.2173 102.158 18.4616C102.141 17.7051 102.309 16.9558 102.649 16.2785C102.965 15.6668 103.458 15.1633 104.065 14.8332C104.722 14.4887 105.457 14.3168 106.2 14.3339C107.069 14.3339 107.764 14.4682 108.285 14.7367C108.846 15.0422 109.31 15.4955 109.627 16.0466C109.656 16.0944 109.672 16.149 109.672 16.2048C109.671 16.2584 109.655 16.3106 109.624 16.3549C109.594 16.3992 109.551 16.4339 109.501 16.4546C109.459 16.4763 109.412 16.4878 109.364 16.4883C109.313 16.4853 109.264 16.4704 109.221 16.4447C109.177 16.4191 109.14 16.3837 109.113 16.3411Z" fill="white"></path>
<path d="M109.113 16.3411C108.938 16.0305 108.712 15.7508 108.444 15.5133C108.184 15.2982 107.883 15.1364 107.56 15.0374C107.116 14.9237 106.658 14.8702 106.2 14.8784C105.556 14.8612 104.918 15.0118 104.351 15.3153C103.835 15.6031 103.421 16.0403 103.163 16.5684C102.878 17.1589 102.737 17.8076 102.751 18.4621C102.736 19.1148 102.877 19.7617 103.163 20.3501C103.423 20.8764 103.837 21.3128 104.351 21.6027C104.917 21.9097 105.555 22.0623 106.2 22.0451C107.312 22.0451 108.138 21.8201 108.678 21.3701C109.219 20.9201 109.524 20.1888 109.592 19.1763H106.92C106.842 19.1782 106.766 19.1496 106.709 19.0966C106.682 19.0724 106.66 19.0427 106.645 19.0095C106.63 18.9763 106.623 18.9403 106.623 18.9041C106.623 18.8681 106.629 18.8324 106.643 18.7992C106.657 18.766 106.677 18.7359 106.703 18.7107C106.73 18.6844 106.763 18.6638 106.798 18.6502C106.833 18.6366 106.871 18.6303 106.909 18.6316H110.13C110.144 18.6297 110.158 18.631 110.171 18.6354C110.185 18.6399 110.197 18.6474 110.207 18.6573C110.217 18.6672 110.224 18.6793 110.229 18.6925C110.233 18.7058 110.234 18.7199 110.232 18.7338C110.225 20.0491 109.882 21.0204 109.204 21.6479C108.527 22.2754 107.526 22.5891 106.2 22.589C105.46 22.605 104.728 22.4291 104.077 22.0788C103.474 21.7454 102.982 21.245 102.66 20.6386C102.314 19.9653 102.142 19.2173 102.158 18.4616C102.141 17.7051 102.309 16.9558 102.649 16.2785C102.965 15.6668 103.458 15.1633 104.065 14.8332C104.722 14.4887 105.457 14.3168 106.2 14.3339C107.069 14.3339 107.764 14.4682 108.285 14.7367C108.846 15.0422 109.31 15.4955 109.627 16.0466C109.656 16.0944 109.672 16.149 109.672 16.2048C109.671 16.2584 109.655 16.3106 109.624 16.3549C109.594 16.3992 109.551 16.4339 109.501 16.4546C109.459 16.4763 109.412 16.4878 109.364 16.4883C109.313 16.4853 109.264 16.4704 109.221 16.4447C109.177 16.4191 109.14 16.3837 109.113 16.3411Z" fill="white"></path>
<path d="M111.804 22.3451C111.777 22.3196 111.755 22.2888 111.74 22.2546C111.726 22.2204 111.718 22.1836 111.718 22.1465V14.7423C111.717 14.7034 111.724 14.6646 111.739 14.6285C111.754 14.5924 111.776 14.5597 111.804 14.5325C111.83 14.5055 111.861 14.4841 111.895 14.4695C111.929 14.4549 111.966 14.4474 112.004 14.4476H112.026C112.064 14.4458 112.102 14.452 112.137 14.4656C112.173 14.4792 112.205 14.5001 112.232 14.5267C112.259 14.5534 112.28 14.5854 112.294 14.6205C112.307 14.6557 112.313 14.6934 112.312 14.7311V22.1469C112.312 22.2208 112.284 22.2921 112.232 22.3454C112.206 22.3733 112.174 22.3953 112.138 22.41C112.103 22.4246 112.065 22.4316 112.026 22.4304H112.004C111.966 22.4304 111.929 22.4229 111.895 22.4083C111.861 22.3937 111.83 22.3723 111.804 22.3454" fill="white"></path>
<path d="M111.804 22.3451C111.777 22.3196 111.755 22.2888 111.74 22.2546C111.726 22.2204 111.718 22.1836 111.718 22.1465V14.7423C111.717 14.7034 111.724 14.6646 111.739 14.6285C111.754 14.5924 111.776 14.5597 111.804 14.5325C111.83 14.5055 111.861 14.4841 111.895 14.4695C111.929 14.4549 111.966 14.4474 112.004 14.4476H112.026C112.064 14.4458 112.102 14.452 112.137 14.4656C112.173 14.4792 112.205 14.5001 112.232 14.5267C112.259 14.5534 112.28 14.5854 112.294 14.6205C112.307 14.6557 112.313 14.6934 112.312 14.7311V22.1469C112.312 22.2208 112.284 22.2921 112.232 22.3454C112.206 22.3733 112.174 22.3953 112.138 22.41C112.103 22.4246 112.065 22.4316 112.026 22.4304H112.004C111.966 22.4304 111.929 22.4229 111.895 22.4083C111.861 22.3937 111.83 22.3723 111.804 22.3454" fill="white"></path>
<path d="M116.189 22.3906C116.162 22.3651 116.14 22.3344 116.126 22.3003C116.111 22.2662 116.104 22.2295 116.104 22.1924L116.149 15.0374H114.15C114.112 15.0387 114.075 15.0323 114.039 15.0186C114.004 15.0049 113.972 14.9842 113.945 14.9577C113.894 14.9067 113.865 14.8374 113.865 14.7653C113.865 14.6931 113.894 14.6239 113.945 14.5728C113.972 14.5462 114.004 14.5255 114.039 14.5117C114.075 14.498 114.112 14.4917 114.15 14.4931H118.615C118.694 14.4907 118.77 14.5194 118.827 14.5728C118.854 14.5968 118.876 14.6264 118.891 14.6596C118.906 14.6928 118.913 14.7287 118.913 14.765C118.914 14.8009 118.907 14.8366 118.893 14.8698C118.879 14.903 118.859 14.933 118.833 14.9579C118.806 14.9844 118.774 15.0051 118.738 15.0188C118.703 15.0325 118.665 15.0389 118.627 15.0376H116.743L116.697 22.1926C116.698 22.2665 116.669 22.3377 116.617 22.3908C116.591 22.4188 116.559 22.4409 116.524 22.4555C116.488 22.4702 116.45 22.4771 116.412 22.4757H116.389C116.352 22.4759 116.314 22.4685 116.28 22.4539C116.246 22.4393 116.215 22.4176 116.189 22.3906Z" fill="white"></path>
<path d="M116.189 22.3906C116.162 22.3651 116.14 22.3344 116.126 22.3003C116.111 22.2662 116.104 22.2295 116.104 22.1924L116.149 15.0374H114.15C114.112 15.0387 114.075 15.0323 114.039 15.0186C114.004 15.0049 113.972 14.9842 113.945 14.9577C113.894 14.9067 113.865 14.8374 113.865 14.7653C113.865 14.6931 113.894 14.6239 113.945 14.5728C113.972 14.5462 114.004 14.5255 114.039 14.5117C114.075 14.498 114.112 14.4917 114.15 14.4931H118.615C118.694 14.4907 118.77 14.5194 118.827 14.5728C118.854 14.5968 118.876 14.6264 118.891 14.6596C118.906 14.6928 118.913 14.7287 118.913 14.765C118.914 14.8009 118.907 14.8366 118.893 14.8698C118.879 14.903 118.859 14.933 118.833 14.9579C118.806 14.9844 118.774 15.0051 118.738 15.0188C118.703 15.0325 118.665 15.0389 118.627 15.0376H116.743L116.697 22.1926C116.698 22.2665 116.669 22.3377 116.617 22.3908C116.591 22.4188 116.559 22.4409 116.524 22.4555C116.488 22.4702 116.45 22.4771 116.412 22.4757H116.389C116.352 22.4759 116.314 22.4685 116.28 22.4539C116.246 22.4393 116.215 22.4176 116.189 22.3906Z" fill="white"></path>
<path d="M125.401 22.3056L124.692 20.6953H120.193L119.554 22.3056C119.531 22.3576 119.492 22.401 119.443 22.4295C119.393 22.458 119.336 22.4702 119.279 22.4642C119.201 22.4698 119.122 22.4561 119.051 22.4243C119.027 22.4093 119.008 22.3882 118.996 22.3633C118.984 22.3383 118.979 22.3106 118.982 22.2831C118.989 22.1855 119.012 22.0897 119.051 21.9996L121.986 14.6858C122.003 14.6389 122.035 14.5992 122.078 14.5733C122.121 14.5432 122.173 14.5271 122.226 14.5273H122.729C122.782 14.5273 122.833 14.5433 122.877 14.5733C122.919 14.5994 122.952 14.6391 122.968 14.6858L125.903 21.9996C125.951 22.0908 125.978 22.1912 125.984 22.294C125.984 22.369 125.961 22.4172 125.914 22.4361C125.825 22.4605 125.733 22.4701 125.641 22.4644C125.588 22.4645 125.536 22.4487 125.492 22.419C125.45 22.3931 125.418 22.3533 125.401 22.3065M122.488 14.9577L120.387 20.1396H124.487L122.488 14.9577Z" fill="white"></path>
<path d="M125.401 22.3056L124.692 20.6953H120.193L119.554 22.3056C119.531 22.3576 119.492 22.401 119.443 22.4295C119.393 22.458 119.336 22.4702 119.279 22.4642C119.201 22.4698 119.122 22.4561 119.051 22.4243C119.027 22.4093 119.008 22.3882 118.996 22.3633C118.984 22.3383 118.979 22.3106 118.982 22.2831C118.989 22.1855 119.012 22.0897 119.051 21.9996L121.986 14.6858C122.003 14.6389 122.035 14.5992 122.078 14.5733C122.121 14.5432 122.173 14.5271 122.226 14.5273H122.729C122.782 14.5273 122.833 14.5433 122.877 14.5733C122.919 14.5994 122.952 14.6391 122.968 14.6858L125.903 21.9996C125.951 22.0908 125.978 22.1912 125.984 22.294C125.984 22.369 125.961 22.4172 125.914 22.4361C125.825 22.4605 125.733 22.4701 125.641 22.4644C125.588 22.4645 125.536 22.4487 125.492 22.419C125.45 22.3931 125.418 22.3533 125.401 22.3065M122.488 14.9577L120.387 20.1396H124.487L122.488 14.9577Z" fill="white"></path>
<path d="M131.488 22.4307H127.708C127.694 22.4326 127.68 22.4313 127.667 22.4268C127.653 22.4224 127.641 22.4149 127.631 22.405C127.621 22.395 127.614 22.3829 127.609 22.3696C127.605 22.3563 127.603 22.3422 127.605 22.3283L127.537 14.7426C127.537 14.7055 127.544 14.6687 127.559 14.6345C127.574 14.6004 127.596 14.5696 127.623 14.544C127.664 14.5023 127.717 14.4737 127.775 14.4621C127.833 14.4505 127.893 14.4564 127.948 14.4789C128.003 14.5014 128.049 14.5396 128.082 14.5886C128.114 14.6376 128.131 14.6952 128.131 14.7539L128.199 21.886H131.488C131.526 21.8847 131.564 21.8911 131.599 21.9048C131.635 21.9185 131.667 21.9392 131.694 21.9657C131.745 22.0171 131.774 22.0863 131.774 22.1584C131.774 22.2305 131.745 22.2998 131.694 22.3512C131.667 22.3777 131.635 22.3984 131.6 22.4121C131.564 22.4258 131.526 22.4322 131.488 22.4309" fill="white"></path>
<path d="M131.488 22.4307H127.708C127.694 22.4326 127.68 22.4313 127.667 22.4268C127.653 22.4224 127.641 22.4149 127.631 22.405C127.621 22.395 127.614 22.3829 127.609 22.3696C127.605 22.3563 127.603 22.3422 127.605 22.3283L127.537 14.7426C127.537 14.7055 127.544 14.6687 127.559 14.6345C127.574 14.6004 127.596 14.5696 127.623 14.544C127.664 14.5023 127.717 14.4737 127.775 14.4621C127.833 14.4505 127.893 14.4564 127.948 14.4789C128.003 14.5014 128.049 14.5396 128.082 14.5886C128.114 14.6376 128.131 14.6952 128.131 14.7539L128.199 21.886H131.488C131.526 21.8847 131.564 21.8911 131.599 21.9048C131.635 21.9185 131.667 21.9392 131.694 21.9657C131.745 22.0171 131.774 22.0863 131.774 22.1584C131.774 22.2305 131.745 22.2998 131.694 22.3512C131.667 22.3777 131.635 22.3984 131.6 22.4121C131.564 22.4258 131.526 22.4322 131.488 22.4309" fill="white"></path>
<path d="M98.8451 26.9216C98.6697 26.611 98.4439 26.3313 98.1766 26.0938C97.9162 25.8786 97.6154 25.7167 97.2917 25.6174C96.8478 25.5038 96.3904 25.4504 95.9321 25.4588C95.2877 25.4413 94.6501 25.5919 94.0827 25.8956C93.5674 26.1834 93.153 26.6206 92.8947 27.1487C92.6235 27.7427 92.4832 28.3873 92.4832 29.0394C92.4832 29.6916 92.6235 30.3362 92.8947 30.9302C93.1555 31.4565 93.5693 31.893 94.0827 32.1831C94.6492 32.4896 95.2872 32.642 95.9321 32.6248C97.0438 32.6248 97.87 32.3998 98.4106 31.9498C98.9512 31.4998 99.2558 30.7686 99.3244 29.7561H96.6523C96.5741 29.7582 96.4983 29.7298 96.441 29.6769C96.4137 29.6526 96.392 29.6228 96.3773 29.5895C96.3625 29.5562 96.3551 29.5202 96.3554 29.4838C96.3549 29.448 96.3617 29.4124 96.3755 29.3793C96.3893 29.3461 96.4097 29.3161 96.4355 29.2911C96.4626 29.2646 96.4948 29.2439 96.5303 29.2303C96.5657 29.2167 96.6036 29.2104 96.6415 29.2119H99.8618C99.8758 29.21 99.8901 29.2113 99.9035 29.2157C99.9169 29.2201 99.9291 29.2276 99.9391 29.2375C99.949 29.2474 99.9566 29.2595 99.9611 29.2728C99.9656 29.2861 99.9669 29.3002 99.965 29.3141C99.9568 30.6294 99.614 31.6008 98.9365 32.2283C98.2591 32.8558 97.2578 33.1694 95.9326 33.1693C95.192 33.1853 94.4601 33.0095 93.8087 32.6591C93.2058 32.3257 92.7137 31.8253 92.3924 31.2189C92.0466 30.5455 91.874 29.7976 91.8899 29.0419C91.8724 28.2854 92.0409 27.5361 92.3809 26.8588C92.6965 26.247 93.1899 25.7433 93.7972 25.4132C94.454 25.0689 95.1886 24.8971 95.9311 24.9143C96.7998 24.9143 97.4947 25.0485 98.0159 25.317C98.5763 25.6223 99.0407 26.0755 99.3578 26.6265C99.3866 26.6745 99.4022 26.7292 99.403 26.7851C99.402 26.8387 99.3853 26.8909 99.3549 26.9352C99.3245 26.9795 99.2817 27.014 99.2319 27.0345C99.1897 27.0565 99.1428 27.0682 99.0951 27.0686C99.0445 27.0656 98.9952 27.0506 98.9515 27.025C98.9078 26.9994 98.8708 26.9638 98.8436 26.9213" fill="white"></path>
<path d="M98.8451 26.9216C98.6697 26.611 98.4439 26.3313 98.1766 26.0938C97.9162 25.8786 97.6154 25.7167 97.2917 25.6174C96.8478 25.5038 96.3904 25.4504 95.9321 25.4588C95.2877 25.4413 94.6501 25.5919 94.0827 25.8956C93.5674 26.1834 93.153 26.6206 92.8947 27.1487C92.6235 27.7427 92.4832 28.3873 92.4832 29.0394C92.4832 29.6916 92.6235 30.3362 92.8947 30.9302C93.1555 31.4565 93.5693 31.893 94.0827 32.1831C94.6492 32.4896 95.2872 32.642 95.9321 32.6248C97.0438 32.6248 97.87 32.3998 98.4106 31.9498C98.9512 31.4998 99.2558 30.7686 99.3244 29.7561H96.6523C96.5741 29.7582 96.4983 29.7298 96.441 29.6769C96.4137 29.6526 96.392 29.6228 96.3773 29.5895C96.3625 29.5562 96.3551 29.5202 96.3554 29.4838C96.3549 29.448 96.3617 29.4124 96.3755 29.3793C96.3893 29.3461 96.4097 29.3161 96.4355 29.2911C96.4626 29.2646 96.4948 29.2439 96.5303 29.2303C96.5657 29.2167 96.6036 29.2104 96.6415 29.2119H99.8618C99.8758 29.21 99.8901 29.2113 99.9035 29.2157C99.9169 29.2201 99.9291 29.2276 99.9391 29.2375C99.949 29.2474 99.9566 29.2595 99.9611 29.2728C99.9656 29.2861 99.9669 29.3002 99.965 29.3141C99.9568 30.6294 99.614 31.6008 98.9365 32.2283C98.2591 32.8558 97.2578 33.1694 95.9326 33.1693C95.192 33.1853 94.4601 33.0095 93.8087 32.6591C93.2058 32.3257 92.7137 31.8253 92.3924 31.2189C92.0466 30.5455 91.874 29.7976 91.8899 29.0419C91.8724 28.2854 92.0409 27.5361 92.3809 26.8588C92.6965 26.247 93.1899 25.7433 93.7972 25.4132C94.454 25.0689 95.1886 24.8971 95.9311 24.9143C96.7998 24.9143 97.4947 25.0485 98.0159 25.317C98.5763 25.6223 99.0407 26.0755 99.3578 26.6265C99.3866 26.6745 99.4022 26.7292 99.403 26.7851C99.402 26.8387 99.3853 26.8909 99.3549 26.9352C99.3245 26.9795 99.2817 27.014 99.2319 27.0345C99.1897 27.0565 99.1428 27.0682 99.0951 27.0686C99.0445 27.0656 98.9952 27.0506 98.9515 27.025C98.9078 26.9994 98.8708 26.9638 98.8436 26.9213" fill="white"></path>
<path d="M101.553 25.0732H104.088C104.593 25.0621 105.094 25.1689 105.55 25.385C105.951 25.5684 106.289 25.8642 106.522 26.2359C106.755 26.6077 106.874 27.0391 106.863 27.4769C106.892 28.082 106.735 28.6816 106.412 29.1956C106.104 29.6347 105.649 29.9503 105.128 30.0854L106.498 32.5683C106.566 32.6716 106.613 32.7871 106.636 32.9082C106.638 32.9263 106.635 32.9445 106.627 32.9607C106.618 32.9769 106.605 32.9903 106.589 32.9992C106.535 33.0183 106.476 33.0261 106.419 33.0221H106.281C106.229 33.0246 106.178 33.0119 106.133 32.9857C106.089 32.9595 106.053 32.9209 106.03 32.8747L104.545 30.2098C104.462 30.219 104.378 30.2228 104.295 30.2214H102.044V32.7384C102.044 32.8123 102.016 32.8836 101.964 32.9369C101.938 32.9649 101.906 32.9869 101.871 33.0016C101.835 33.0162 101.797 33.0231 101.758 33.0219H101.736C101.661 33.0199 101.589 32.9894 101.536 32.9367C101.483 32.8839 101.452 32.8129 101.45 32.7384V25.1752C101.448 25.1613 101.449 25.1472 101.454 25.1339C101.458 25.1206 101.466 25.1085 101.476 25.0986C101.486 25.0887 101.498 25.0813 101.512 25.0769C101.525 25.0724 101.539 25.0712 101.553 25.0732ZM105.721 29.1494C106.095 28.7979 106.281 28.2404 106.281 27.4767C106.294 27.2217 106.251 26.9668 106.153 26.7305C106.055 26.4943 105.906 26.2825 105.715 26.1106C105.339 25.7819 104.796 25.6174 104.088 25.6173H102.044V29.6771H104.088C104.804 29.6771 105.348 29.5012 105.721 29.1494Z" fill="white"></path>
<path d="M101.553 25.0732H104.088C104.593 25.0621 105.094 25.1689 105.55 25.385C105.951 25.5684 106.289 25.8642 106.522 26.2359C106.755 26.6077 106.874 27.0391 106.863 27.4769C106.892 28.082 106.735 28.6816 106.412 29.1956C106.104 29.6347 105.649 29.9503 105.128 30.0854L106.498 32.5683C106.566 32.6716 106.613 32.7871 106.636 32.9082C106.638 32.9263 106.635 32.9445 106.627 32.9607C106.618 32.9769 106.605 32.9903 106.589 32.9992C106.535 33.0183 106.476 33.0261 106.419 33.0221H106.281C106.229 33.0246 106.178 33.0119 106.133 32.9857C106.089 32.9595 106.053 32.9209 106.03 32.8747L104.545 30.2098C104.462 30.219 104.378 30.2228 104.295 30.2214H102.044V32.7384C102.044 32.8123 102.016 32.8836 101.964 32.9369C101.938 32.9649 101.906 32.9869 101.871 33.0016C101.835 33.0162 101.797 33.0231 101.758 33.0219H101.736C101.661 33.0199 101.589 32.9894 101.536 32.9367C101.483 32.8839 101.452 32.8129 101.45 32.7384V25.1752C101.448 25.1613 101.449 25.1472 101.454 25.1339C101.458 25.1206 101.466 25.1085 101.476 25.0986C101.486 25.0887 101.498 25.0813 101.512 25.0769C101.525 25.0724 101.539 25.0712 101.553 25.0732ZM105.721 29.1494C106.095 28.7979 106.281 28.2404 106.281 27.4767C106.294 27.2217 106.251 26.9668 106.153 26.7305C106.055 26.4943 105.906 26.2825 105.715 26.1106C105.339 25.7819 104.796 25.6174 104.088 25.6173H102.044V29.6771H104.088C104.804 29.6771 105.348 29.5012 105.721 29.1494Z" fill="white"></path>
<path d="M108.2 29.0422C108.2 27.7569 108.539 26.761 109.217 26.0544C109.894 25.3477 110.876 24.9942 112.162 24.9937C112.886 24.968 113.605 25.1242 114.252 25.4476C114.831 25.7729 115.303 26.257 115.612 26.8421C115.97 27.5196 116.147 28.2772 116.126 29.0422C116.126 30.3499 115.78 31.3516 115.087 32.0472C114.395 32.7429 113.42 33.0906 112.163 33.0903C110.914 33.0903 109.942 32.7407 109.245 32.0414C108.548 31.3422 108.2 30.3422 108.2 29.0414M115.543 29.0414C115.543 27.9148 115.26 27.0473 114.693 26.4389C114.125 25.8306 113.282 25.5263 112.162 25.5262C111.027 25.5262 110.18 25.8286 109.621 26.4333C109.062 27.0381 108.783 27.9077 108.783 29.0422C108.783 30.1913 109.072 31.0643 109.651 31.6612C110.231 32.2581 111.068 32.5566 112.163 32.5567C113.252 32.5567 114.088 32.2562 114.67 31.6554C115.251 31.0545 115.543 30.1834 115.543 29.0422" fill="white"></path>
<path d="M108.2 29.0422C108.2 27.7569 108.539 26.761 109.217 26.0544C109.894 25.3477 110.876 24.9942 112.162 24.9937C112.886 24.968 113.605 25.1242 114.252 25.4476C114.831 25.7729 115.303 26.257 115.612 26.8421C115.97 27.5196 116.147 28.2772 116.126 29.0422C116.126 30.3499 115.78 31.3516 115.087 32.0472C114.395 32.7429 113.42 33.0906 112.163 33.0903C110.914 33.0903 109.942 32.7407 109.245 32.0414C108.548 31.3422 108.2 30.3422 108.2 29.0414M115.543 29.0414C115.543 27.9148 115.26 27.0473 114.693 26.4389C114.125 25.8306 113.282 25.5263 112.162 25.5262C111.027 25.5262 110.18 25.8286 109.621 26.4333C109.062 27.0381 108.783 27.9077 108.783 29.0422C108.783 30.1913 109.072 31.0643 109.651 31.6612C110.231 32.2581 111.068 32.5566 112.163 32.5567C113.252 32.5567 114.088 32.2562 114.67 31.6554C115.251 31.0545 115.543 30.1834 115.543 29.0422" fill="white"></path>
<path d="M123.917 25.1188C123.943 25.1457 123.964 25.1776 123.977 25.2127C123.991 25.2478 123.997 25.2852 123.996 25.3228V29.8815C123.996 30.9392 123.739 31.7517 123.226 32.319C122.712 32.8862 121.956 33.1698 120.958 33.1696C119.854 33.1696 119.053 32.9031 118.554 32.3701C118.056 31.8371 117.806 31.0076 117.806 29.8816V25.334C117.805 25.2951 117.812 25.2564 117.827 25.2203C117.842 25.1841 117.864 25.1514 117.892 25.124C117.918 25.0971 117.949 25.0757 117.983 25.0611C118.017 25.0465 118.054 25.039 118.092 25.0391H118.115C118.153 25.0374 118.19 25.0436 118.226 25.0573C118.261 25.071 118.293 25.0919 118.32 25.1187C118.347 25.1454 118.368 25.1774 118.382 25.2126C118.395 25.2478 118.401 25.2855 118.4 25.3231V29.9263C118.38 30.4554 118.465 30.9832 118.651 31.4797C118.802 31.8551 119.086 32.1621 119.451 32.3422C119.924 32.5515 120.44 32.6486 120.958 32.6257C122.587 32.6257 123.401 31.7261 123.402 29.927V25.3231C123.401 25.285 123.408 25.247 123.422 25.2118C123.437 25.1766 123.46 25.145 123.488 25.1191C123.541 25.0676 123.613 25.039 123.687 25.0395H123.711C123.748 25.0382 123.786 25.0446 123.822 25.0583C123.857 25.072 123.889 25.0927 123.916 25.1191" fill="white"></path>
<path d="M123.917 25.1188C123.943 25.1457 123.964 25.1776 123.977 25.2127C123.991 25.2478 123.997 25.2852 123.996 25.3228V29.8815C123.996 30.9392 123.739 31.7517 123.226 32.319C122.712 32.8862 121.956 33.1698 120.958 33.1696C119.854 33.1696 119.053 32.9031 118.554 32.3701C118.056 31.8371 117.806 31.0076 117.806 29.8816V25.334C117.805 25.2951 117.812 25.2564 117.827 25.2203C117.842 25.1841 117.864 25.1514 117.892 25.124C117.918 25.0971 117.949 25.0757 117.983 25.0611C118.017 25.0465 118.054 25.039 118.092 25.0391H118.115C118.153 25.0374 118.19 25.0436 118.226 25.0573C118.261 25.071 118.293 25.0919 118.32 25.1187C118.347 25.1454 118.368 25.1774 118.382 25.2126C118.395 25.2478 118.401 25.2855 118.4 25.3231V29.9263C118.38 30.4554 118.465 30.9832 118.651 31.4797C118.802 31.8551 119.086 32.1621 119.451 32.3422C119.924 32.5515 120.44 32.6486 120.958 32.6257C122.587 32.6257 123.401 31.7261 123.402 29.927V25.3231C123.401 25.285 123.408 25.247 123.422 25.2118C123.437 25.1766 123.46 25.145 123.488 25.1191C123.541 25.0676 123.613 25.039 123.687 25.0395H123.711C123.748 25.0382 123.786 25.0446 123.822 25.0583C123.857 25.072 123.889 25.0927 123.916 25.1191" fill="white"></path>
<path d="M125.909 32.9371C125.882 32.9115 125.86 32.8807 125.846 32.8465C125.831 32.8123 125.824 32.7755 125.824 32.7383V25.1753C125.822 25.1615 125.823 25.1474 125.827 25.1341C125.832 25.1208 125.839 25.1087 125.849 25.0988C125.859 25.0889 125.871 25.0814 125.885 25.077C125.898 25.0725 125.912 25.0712 125.926 25.0731H128.462C128.967 25.062 129.468 25.1688 129.923 25.3851C130.324 25.5688 130.662 25.8646 130.895 26.2363C131.128 26.6079 131.247 27.0392 131.237 27.4771C131.237 28.3843 130.995 29.0686 130.512 29.5298C130.028 29.9911 129.345 30.2218 128.462 30.2221H126.417V32.7383C126.418 32.8124 126.39 32.8838 126.338 32.9371C126.312 32.965 126.28 32.987 126.244 33.0016C126.209 33.0163 126.171 33.0232 126.132 33.022H126.11C126.072 33.0222 126.035 33.0147 126.001 33.0001C125.966 32.9855 125.935 32.964 125.909 32.9371ZM128.462 29.6772C129.177 29.6772 129.722 29.5013 130.095 29.1496C130.468 28.7978 130.655 28.2403 130.655 27.4769C130.668 27.2218 130.625 26.9669 130.527 26.7307C130.429 26.4944 130.28 26.2827 130.089 26.1108C129.713 25.7818 129.17 25.6173 128.462 25.6175H126.417V29.6772H128.462Z" fill="white"></path>
<path d="M125.909 32.9371C125.882 32.9115 125.86 32.8807 125.846 32.8465C125.831 32.8123 125.824 32.7755 125.824 32.7383V25.1753C125.822 25.1615 125.823 25.1474 125.827 25.1341C125.832 25.1208 125.839 25.1087 125.849 25.0988C125.859 25.0889 125.871 25.0814 125.885 25.077C125.898 25.0725 125.912 25.0712 125.926 25.0731H128.462C128.967 25.062 129.468 25.1688 129.923 25.3851C130.324 25.5688 130.662 25.8646 130.895 26.2363C131.128 26.6079 131.247 27.0392 131.237 27.4771C131.237 28.3843 130.995 29.0686 130.512 29.5298C130.028 29.9911 129.345 30.2218 128.462 30.2221H126.417V32.7383C126.418 32.8124 126.39 32.8838 126.338 32.9371C126.312 32.965 126.28 32.987 126.244 33.0016C126.209 33.0163 126.171 33.0232 126.132 33.022H126.11C126.072 33.0222 126.035 33.0147 126.001 33.0001C125.966 32.9855 125.935 32.964 125.909 32.9371ZM128.462 29.6772C129.177 29.6772 129.722 29.5013 130.095 29.1496C130.468 28.7978 130.655 28.2403 130.655 27.4769C130.668 27.2218 130.625 26.9669 130.527 26.7307C130.429 26.4944 130.28 26.2827 130.089 26.1108C129.713 25.7818 129.17 25.6173 128.462 25.6175H126.417V29.6772H128.462Z" fill="white"></path>
<path d="M33.5816 23.2518C33.5761 21.143 34.0017 19.0551 34.8329 17.1145C35.6116 15.2226 36.7599 13.5024 38.2115 12.0533C39.6632 10.6042 41.3894 9.45476 43.2907 8.6714C45.2628 7.8327 47.3871 7.40462 49.5325 7.41365C52.6404 7.38714 55.6838 8.29513 58.2622 10.0182C60.8756 11.7432 62.9246 14.1886 64.1575 17.054C65.0018 19.0111 65.4229 21.1225 65.3934 23.2514C65.4122 26.0167 64.6832 28.7362 63.2826 31.1264C61.9051 33.512 59.9184 35.4949 57.5229 36.875C55.1023 38.2891 52.3402 39.0238 49.5317 39.0007C46.7246 39.0235 43.9618 38.3052 41.5262 36.9194C39.0987 35.5471 37.0832 33.5577 35.6868 31.1556C34.2904 28.7536 33.5635 26.0256 33.5809 23.2522M42.6573 23.2938C42.6483 24.1757 42.8232 25.05 43.1709 25.8616C43.5187 26.6732 44.0317 27.4046 44.6779 28.0098C45.31 28.6487 46.0663 29.1536 46.9007 29.4938C47.7352 29.8339 48.6305 30.0023 49.5325 29.9887C50.4242 30.0023 51.3094 29.8352 52.1339 29.4975C52.9584 29.1598 53.7048 28.6587 54.3275 28.0248C54.9683 27.414 55.4756 26.6788 55.818 25.8649C56.1603 25.0511 56.3304 24.176 56.3175 23.2942C56.3307 22.4033 56.1611 21.5191 55.819 20.6954C55.4769 19.8718 54.9694 19.1259 54.3275 18.5033C53.7092 17.8617 52.9642 17.3535 52.1392 17.0104C51.3142 16.6674 50.4268 16.4968 49.5325 16.5095C48.6293 16.4966 47.7329 16.6667 46.8982 17.0096C46.0635 17.3524 45.308 17.8607 44.6779 18.5033C44.0282 19.1214 43.5135 19.8656 43.1659 20.6897C42.8182 21.5138 42.6451 22.4001 42.6573 23.2934" fill="white"></path>
<path d="M33.5816 23.2518C33.5761 21.143 34.0017 19.0551 34.8329 17.1145C35.6116 15.2226 36.7599 13.5024 38.2115 12.0533C39.6632 10.6042 41.3894 9.45476 43.2907 8.6714C45.2628 7.8327 47.3871 7.40462 49.5325 7.41365C52.6404 7.38714 55.6838 8.29513 58.2622 10.0182C60.8756 11.7432 62.9246 14.1886 64.1575 17.054C65.0018 19.0111 65.4229 21.1225 65.3934 23.2514C65.4122 26.0167 64.6832 28.7362 63.2826 31.1264C61.9051 33.512 59.9184 35.4949 57.5229 36.875C55.1023 38.2891 52.3402 39.0238 49.5317 39.0007C46.7246 39.0235 43.9618 38.3052 41.5262 36.9194C39.0987 35.5471 37.0832 33.5577 35.6868 31.1556C34.2904 28.7536 33.5635 26.0256 33.5809 23.2522M42.6573 23.2938C42.6483 24.1757 42.8232 25.05 43.1709 25.8616C43.5187 26.6732 44.0317 27.4046 44.6779 28.0098C45.31 28.6487 46.0663 29.1536 46.9007 29.4938C47.7352 29.8339 48.6305 30.0023 49.5325 29.9887C50.4242 30.0023 51.3094 29.8352 52.1339 29.4975C52.9584 29.1598 53.7048 28.6587 54.3275 28.0248C54.9683 27.414 55.4756 26.6788 55.818 25.8649C56.1603 25.0511 56.3304 24.176 56.3175 23.2942C56.3307 22.4033 56.1611 21.5191 55.819 20.6954C55.4769 19.8718 54.9694 19.1259 54.3275 18.5033C53.7092 17.8617 52.9642 17.3535 52.1392 17.0104C51.3142 16.6674 50.4268 16.4968 49.5325 16.5095C48.6293 16.4966 47.7329 16.6667 46.8982 17.0096C46.0635 17.3524 45.308 17.8607 44.6779 18.5033C44.0282 19.1214 43.5135 19.8656 43.1659 20.6897C42.8182 21.5138 42.6451 22.4001 42.6573 23.2934" fill="white"></path>
<path d="M22.7083 0V9.04875C22.6852 9.04723 22.6627 9.04116 22.6421 9.03089C22.6214 9.02062 22.603 9.00636 22.588 8.98894C22.2103 8.82806 21.8435 8.68756 21.4876 8.56744C21.1423 8.45044 20.8063 8.35294 20.4796 8.27494C19.9801 8.11763 19.5203 7.99275 19.0912 7.89244C18.6389 7.80394 18.1814 7.7325 17.7157 7.683C16.881 7.63631 16.2067 7.608 15.6889 7.59581C14.1737 7.61194 12.6688 7.84431 11.2203 8.28581C11.1869 8.29594 11.1544 8.30719 11.1217 8.3175C10.9593 8.36831 10.799 8.42456 10.6385 8.48063C7.14179 9.73307 4.17974 12.1319 2.24129 15.2813C1.8685 15.9111 1.53703 16.5641 1.24893 17.2363C0.419357 19.1653 -0.00574452 21.2418 -0.00043923 23.3393C-0.00043923 23.4053 0.00182687 23.4705 0.00220455 23.5369C0.0453892 23.8063 0.064348 24.079 0.0588569 24.3518C0.300196 28.0834 1.77095 31.3631 4.47113 34.1908C5.1212 34.8753 5.82876 35.5035 6.58615 36.0688C7.01879 36.3731 7.46502 36.6639 7.93599 36.9313C9.4916 37.8148 11.1884 38.4266 12.9526 38.7399C13.3376 38.8001 13.7283 38.8496 14.1256 38.8811C14.2456 38.9014 14.4362 38.9213 14.6974 38.9409C14.8712 38.9539 15.0156 38.9674 15.1363 38.9809C15.4007 38.9925 15.6651 39.0008 15.9325 39.0008C16.2724 39.0008 16.61 38.9899 16.9441 38.97C19.4017 38.8379 21.7917 38.1234 23.9142 36.8863C26.3043 35.5158 28.2884 33.5441 29.6665 31.1698C30.261 30.1575 30.7373 29.0812 31.0862 27.9617C31.5485 26.464 31.7806 24.9057 31.7747 23.3393V0H22.7083ZM19.9072 27.9263C19.2845 28.5601 18.5381 29.0612 17.7137 29.3989C16.8893 29.7366 16.0042 29.9037 15.1125 29.8901C14.2106 29.9036 13.3153 29.7352 12.4808 29.3951C11.6463 29.055 10.8901 28.5502 10.2578 27.9114C9.61169 27.3062 9.09866 26.5748 8.75093 25.7632C8.4032 24.9516 8.22829 24.0774 8.23719 23.1954C8.22505 22.302 8.39816 21.4157 8.74578 20.5916C9.09339 19.7675 9.60807 19.0232 10.2578 18.405C10.8879 17.7624 11.6435 17.2541 12.4782 16.9114C13.3129 16.5686 14.2093 16.3985 15.1125 16.4115C16.0068 16.3989 16.8941 16.5694 17.719 16.9124C18.5439 17.2554 19.2888 17.7635 19.9072 18.405C20.549 19.0276 21.0564 19.7734 21.3985 20.597C21.7406 21.4205 21.9102 22.3047 21.897 23.1954C21.91 24.0773 21.74 24.9524 21.3977 25.7662C21.0553 26.5801 20.548 27.3153 19.9072 27.9261" fill="white"></path>
<path d="M22.7083 0V9.04875C22.6852 9.04723 22.6627 9.04116 22.6421 9.03089C22.6214 9.02062 22.603 9.00636 22.588 8.98894C22.2103 8.82806 21.8435 8.68756 21.4876 8.56744C21.1423 8.45044 20.8063 8.35294 20.4796 8.27494C19.9801 8.11763 19.5203 7.99275 19.0912 7.89244C18.6389 7.80394 18.1814 7.7325 17.7157 7.683C16.881 7.63631 16.2067 7.608 15.6889 7.59581C14.1737 7.61194 12.6688 7.84431 11.2203 8.28581C11.1869 8.29594 11.1544 8.30719 11.1217 8.3175C10.9593 8.36831 10.799 8.42456 10.6385 8.48063C7.14179 9.73307 4.17974 12.1319 2.24129 15.2813C1.8685 15.9111 1.53703 16.5641 1.24893 17.2363C0.419357 19.1653 -0.00574452 21.2418 -0.00043923 23.3393C-0.00043923 23.4053 0.00182687 23.4705 0.00220455 23.5369C0.0453892 23.8063 0.064348 24.079 0.0588569 24.3518C0.300196 28.0834 1.77095 31.3631 4.47113 34.1908C5.1212 34.8753 5.82876 35.5035 6.58615 36.0688C7.01879 36.3731 7.46502 36.6639 7.93599 36.9313C9.4916 37.8148 11.1884 38.4266 12.9526 38.7399C13.3376 38.8001 13.7283 38.8496 14.1256 38.8811C14.2456 38.9014 14.4362 38.9213 14.6974 38.9409C14.8712 38.9539 15.0156 38.9674 15.1363 38.9809C15.4007 38.9925 15.6651 39.0008 15.9325 39.0008C16.2724 39.0008 16.61 38.9899 16.9441 38.97C19.4017 38.8379 21.7917 38.1234 23.9142 36.8863C26.3043 35.5158 28.2884 33.5441 29.6665 31.1698C30.261 30.1575 30.7373 29.0812 31.0862 27.9617C31.5485 26.464 31.7806 24.9057 31.7747 23.3393V0H22.7083ZM19.9072 27.9263C19.2845 28.5601 18.5381 29.0612 17.7137 29.3989C16.8893 29.7366 16.0042 29.9037 15.1125 29.8901C14.2106 29.9036 13.3153 29.7352 12.4808 29.3951C11.6463 29.055 10.8901 28.5502 10.2578 27.9114C9.61169 27.3062 9.09866 26.5748 8.75093 25.7632C8.4032 24.9516 8.22829 24.0774 8.23719 23.1954C8.22505 22.302 8.39816 21.4157 8.74578 20.5916C9.09339 19.7675 9.60807 19.0232 10.2578 18.405C10.8879 17.7624 11.6435 17.2541 12.4782 16.9114C13.3129 16.5686 14.2093 16.3985 15.1125 16.4115C16.0068 16.3989 16.8941 16.5694 17.719 16.9124C18.5439 17.2554 19.2888 17.7635 19.9072 18.405C20.549 19.0276 21.0564 19.7734 21.3985 20.597C21.7406 21.4205 21.9102 22.3047 21.897 23.1954C21.91 24.0773 21.74 24.9524 21.3977 25.7662C21.0553 26.5801 20.548 27.3153 19.9072 27.9261" fill="white"></path>
<path d="M77.0341 34.4409C77.0287 34.9744 77.1344 35.5033 77.3447 35.9942C77.555 36.4852 77.8653 36.9277 78.2561 37.2939C78.6385 37.6804 79.096 37.9858 79.6009 38.1915C80.1058 38.3972 80.6474 38.499 81.1931 38.4907C81.7326 38.499 82.268 38.3979 82.7668 38.1936C83.2655 37.9893 83.717 37.6861 84.0937 37.3025C84.4812 36.933 84.788 36.4882 84.995 35.9959C85.202 35.5036 85.3049 34.9743 85.2972 34.4409C85.3051 33.9021 85.2025 33.3674 84.9956 32.8692C84.7887 32.371 84.4818 31.9199 84.0937 31.5433C83.7196 31.1551 83.269 30.8477 82.77 30.6401C82.2709 30.4326 81.7341 30.3295 81.1931 30.3371C80.6466 30.3292 80.1043 30.4321 79.5993 30.6395C79.0943 30.8469 78.6372 31.1544 78.2561 31.5433C77.8631 31.9172 77.5518 32.3674 77.3415 32.8659C77.1313 33.3644 77.0266 33.9005 77.0341 34.4409Z" fill="white"></path>
<path d="M77.7798 37.7724C77.325 37.344 76.9638 36.8272 76.7188 36.2542C76.4738 35.6811 76.3502 35.0642 76.3558 34.4417C76.3482 33.8125 76.4705 33.1885 76.7151 32.6081C76.9597 32.0276 77.3214 31.503 77.7779 31.0667C78.2127 30.6258 78.7314 30.2752 79.3039 30.0351C79.8764 29.795 80.4913 29.6704 81.1127 29.6683C80.1505 29.4217 79.2574 28.9608 78.5012 28.3206C78.3997 28.263 78.3066 28.1921 78.2242 28.1098C78.1836 28.0688 78.1454 28.0271 78.1054 27.9862C78.081 27.9621 78.0576 27.9366 78.034 27.9113C77.9945 27.8691 77.9557 27.8266 77.9175 27.7837C77.9045 27.7699 77.8935 27.7551 77.8809 27.7412C77.2842 27.1428 76.8131 26.4329 76.4948 25.6525C76.1765 24.872 76.0174 24.0366 76.0266 23.1947C76.0375 21.6097 76.6029 20.0778 77.626 18.8611C78.6492 17.6444 80.0665 16.8187 81.6352 16.5253V7.65937C81.4955 7.66706 81.351 7.67456 81.2009 7.68319C80.7352 7.73213 80.2776 7.80356 79.8254 7.89263C79.3963 7.992 78.9365 8.11763 78.4366 8.27456C78.1104 8.35294 77.7747 8.45063 77.4293 8.56763C77.0723 8.68763 76.7053 8.82819 76.3284 8.98931C76.3133 9.00682 76.2949 9.02114 76.2741 9.03141C76.2533 9.04169 76.2307 9.04771 76.2076 9.04913V0H67.1432V23.3392C67.1374 24.9057 67.3696 26.4641 67.8319 27.9619C67.9505 28.3442 68.0855 28.7205 68.2347 29.0938C68.5256 29.8283 68.8714 30.5402 69.2693 31.2234C70.647 33.6088 72.6336 35.5914 75.029 36.9714C76.2112 37.6611 77.4809 38.1908 78.8045 38.5464C78.4311 38.3332 78.0868 38.0731 77.7802 37.7726" fill="white"></path>
<path d="M77.7798 37.7724C77.325 37.344 76.9638 36.8272 76.7188 36.2542C76.4738 35.6811 76.3502 35.0642 76.3558 34.4417C76.3482 33.8125 76.4705 33.1885 76.7151 32.6081C76.9597 32.0276 77.3214 31.503 77.7779 31.0667C78.2127 30.6258 78.7314 30.2752 79.3039 30.0351C79.8764 29.795 80.4913 29.6704 81.1127 29.6683C80.1505 29.4217 79.2574 28.9608 78.5012 28.3206C78.3997 28.263 78.3066 28.1921 78.2242 28.1098C78.1836 28.0688 78.1454 28.0271 78.1054 27.9862C78.081 27.9621 78.0576 27.9366 78.034 27.9113C77.9945 27.8691 77.9557 27.8266 77.9175 27.7837C77.9045 27.7699 77.8935 27.7551 77.8809 27.7412C77.2842 27.1428 76.8131 26.4329 76.4948 25.6525C76.1765 24.872 76.0174 24.0366 76.0266 23.1947C76.0375 21.6097 76.6029 20.0778 77.626 18.8611C78.6492 17.6444 80.0665 16.8187 81.6352 16.5253V7.65937C81.4955 7.66706 81.351 7.67456 81.2009 7.68319C80.7352 7.73213 80.2776 7.80356 79.8254 7.89263C79.3963 7.992 78.9365 8.11763 78.4366 8.27456C78.1104 8.35294 77.7747 8.45063 77.4293 8.56763C77.0723 8.68763 76.7053 8.82819 76.3284 8.98931C76.3133 9.00682 76.2949 9.02114 76.2741 9.03141C76.2533 9.04169 76.2307 9.04771 76.2076 9.04913V0H67.1432V23.3392C67.1374 24.9057 67.3696 26.4641 67.8319 27.9619C67.9505 28.3442 68.0855 28.7205 68.2347 29.0938C68.5256 29.8283 68.8714 30.5402 69.2693 31.2234C70.647 33.6088 72.6336 35.5914 75.029 36.9714C76.2112 37.6611 77.4809 38.1908 78.8045 38.5464C78.4311 38.3332 78.0868 38.0731 77.7802 37.7726" fill="white"></path>
</g>
</g>
</g>
</g>
<defs>
<clipPath id="clip0_9589_436">
<rect width="132" height="39" fill="white"></rect>
</clipPath>
</defs>
</svg>