<svg width="166" height="44" viewBox="0 0 166 44" fill="none" xmlns="http://www.w3.org/2000/svg">
<g clip-path="url(#clip0_9589_429)">
<path d="M17.175 0.574561C14.5583 1.2657 10.7998 2.99355 8.84919 4.41902L7.46948 5.49894L8.61131 7.74513C10.3716 11.1145 14.5108 14.3973 18.412 15.5205C20.1248 15.9956 22.3133 16.3844 23.2172 16.3844C26.4524 16.3844 29.0691 18.5874 29.0691 21.3519C29.0691 24.3325 26.4524 26.3195 22.5512 26.3195C16.1284 26.2763 9.4201 23.6414 4.37702 19.1489C0.570915 15.7796 0.0475763 15.6932 0.0475763 18.5874C0.0475763 19.9697 0.428186 20.488 2.94973 22.6047C8.99192 27.7018 20.1248 30.8984 26.3573 29.3001C28.8788 28.6954 31.5431 26.1467 32.3994 23.5118C33.0655 21.5247 33.2558 21.3519 34.7307 21.2224L36.3483 21.0928L36.0628 23.2958C35.4919 27.7882 31.21 31.8055 25.9766 32.7991C19.649 34.0086 9.32495 31.2872 2.52154 26.6652L0 24.9805L0.333034 26.1899C1.28456 29.9479 2.14093 30.8551 6.28007 32.6693C12.2271 35.3042 17.6508 36.3842 23.5503 36.1683C28.7836 35.9523 31.5906 35.0452 34.921 32.3669C37.0619 30.6825 39.4407 26.5354 39.9165 23.6846C40.2495 21.3952 40.2971 21.3519 41.9147 21.3519C43.342 21.3519 43.6274 21.5247 43.7226 22.3887C44.0081 24.2029 42.3429 28.8249 40.4874 31.4598C38.3941 34.3971 34.5404 37.2483 30.9246 38.4578C25.8339 40.2286 17.5081 39.9263 10.4668 37.7666L7.04129 36.6866L8.08797 37.7232C8.70646 38.328 10.7047 39.4944 12.5126 40.3584C21.8375 44.8076 32.8276 43.2957 40.2971 36.5137C45.0072 32.2374 47.1481 27.5723 47.1481 21.5679C47.1481 11.7192 40.7253 3.64149 30.5915 0.833738C27.0709 -0.159776 20.6005 -0.289364 17.175 0.574561Z" fill="white"></path>
<path d="M69.8421 5.45569C69.6518 5.58529 69.5091 6.96756 69.5091 8.47943V11.2008H67.8439H66.1787V13.7926V16.3844H67.7963H69.4139L69.6042 23.5981C69.7945 31.3733 70.2227 32.9286 72.5064 34.3109C74.0288 35.218 77.9776 35.8228 80.3564 35.5204L82.3546 35.2611V32.7557V30.2072H80.4992C77.3591 30.2072 77.1213 29.732 77.1213 22.6478V16.4276L79.6428 16.298L82.1168 16.1684L82.2595 13.663L82.4022 11.2008H79.7379H77.1213V8.17706V5.15332H73.6482C71.6976 5.15332 69.9848 5.28291 69.8421 5.45569Z" fill="white"></path>
<path d="M115.182 20.272V35.3906H118.75H122.319V31.5895C122.319 28.1336 122.414 27.6587 123.46 26.7946L124.555 25.8443L126.22 27.9177C127.124 29.0408 128.789 31.2007 129.883 32.6692L131.881 35.3906H136.116C138.495 35.3906 140.398 35.3042 140.398 35.1747C140.398 35.0882 138.161 32.1078 135.402 28.5224C132.643 24.9804 130.407 21.9135 130.407 21.6975C130.407 21.5247 131.691 19.9696 133.309 18.3282C134.879 16.6435 137.067 14.3973 138.114 13.231L140.017 11.2008H135.735H131.453L127.219 15.7364C124.935 18.2418 122.889 20.272 122.699 20.272C122.461 20.272 122.319 16.8595 122.319 12.7127V5.15332H118.75H115.182V20.272Z" fill="white"></path>
<path d="M3.42558 9.90508L2.37891 11.6329L3.80619 13.5336C8.04048 19.1059 16.1285 23.1231 22.5037 22.7776C24.9776 22.648 25.0252 22.6048 25.0252 21.3521C25.0252 20.0562 24.9776 20.0562 21.2667 19.4946C14.4633 18.5011 9.13474 15.3046 6.13743 10.4234C5.32864 9.21393 4.66257 8.17725 4.61499 8.17725C4.56741 8.17725 4.04408 8.95477 3.42558 9.90508Z" fill="white"></path>
<path d="M94.6768 11.3304C91.965 12.0215 89.824 13.4038 88.5871 15.2612C86.9695 17.637 87.2073 17.9394 90.6804 18.285C93.7253 18.5441 93.8204 18.5441 95.0099 17.2482C96.0565 16.1251 96.5799 15.9523 98.5305 15.9523C101.004 15.9523 102.146 16.6003 102.622 18.3281C103.288 20.7039 102.955 20.9199 97.8169 21.1791C90.4425 21.5247 87.588 23.0365 86.5889 27.0539C84.9237 33.7923 94.1059 38.3712 100.767 34.138L102.765 32.8421L102.908 34.0085C103.05 35.1316 103.145 35.1746 106.523 35.3042L109.996 35.4339L109.854 25.7579L109.711 16.0819L108.331 14.4837C107.57 13.5765 106.048 12.4535 104.906 11.9783C102.241 10.9416 97.4838 10.596 94.6768 11.3304ZM102.337 26.2331C102.337 28.1336 101.385 29.516 99.482 30.4231C96.4371 31.8485 93.2971 30.6824 93.2971 28.1336C93.2971 26.3626 94.7244 25.4123 97.912 25.0236C102.574 24.462 102.337 24.4188 102.337 26.2331Z" fill="white"></path>
<path d="M149.77 11.2009C143.395 12.6696 139.446 17.2916 139.446 23.2959C139.446 29.8185 144.394 34.9156 151.483 35.6501C156.621 36.2115 162.282 33.447 164.804 29.1705C166.184 26.7948 166.326 19.9698 164.994 17.81C161.949 12.6696 155.527 9.90505 149.77 11.2009ZM155.669 17.4644C157.763 18.4579 158.952 20.5313 158.952 23.2095C158.952 27.1836 156.621 29.7752 153.053 29.7752C149.199 29.7752 146.582 27.1836 146.582 23.2959C146.582 18.3715 151.197 15.391 155.669 17.4644Z" fill="white"></path>
</g>
<defs>
<clipPath id="clip0_9589_429">
<rect width="165.988" height="43.083" fill="white"></rect>
</clipPath>
</defs>
</svg>