<svg width="196" height="50" viewBox="0 0 196 50" fill="none" xmlns="http://www.w3.org/2000/svg">
<g clip-path="url(#clip0_9589_1309)">
<path d="M20.3918 0C21.3144 0.323656 21.9239 0.880224 22.6635 1.48368C27.9796 5.82884 33.0114 10.7699 38.267 15.2103C42.6697 20.3964 42.6666 26.9572 38.4788 32.2703C36.0529 35.3466 33.0356 38.1567 30.6112 41.2616C28.9838 42.6168 26.3643 41.7471 26.204 39.5541C26.1133 38.323 26.9844 37.5214 27.6953 36.6533C30.2044 33.5907 35.9485 28.6239 36.3811 24.799C37.0344 19.005 31.3689 14.6432 25.8879 16.7333C22.5591 18.0038 18.2109 24.5752 15.5022 27.3157C14.3528 28.4787 12.7466 29.0035 11.4595 27.6666C10.2617 26.4218 10.6761 25.0561 11.6047 23.8507C13.527 21.3553 16.4293 18.1656 18.6193 15.8486C20.661 13.6873 22.9266 11.9239 25.9257 11.3204C25.9726 11.2599 25.4584 10.7714 25.3601 10.6837C23.2306 8.76897 19.9487 6.46708 18.1399 4.44347C16.641 2.76771 17.5999 0.685123 19.5434 0H20.3949L20.3918 0Z" fill="white"></path>
<path d="M26.5397 22.411C28.8961 20.5296 32.0706 23.2186 30.4387 25.8064C26.8165 29.2638 23.4937 35.1697 19.1183 37.579C18.0294 38.1779 16.8572 38.5258 15.7139 38.9916C17.804 41.0228 20.2814 42.7923 22.3791 44.7917C23.6344 45.988 24.7233 47.2176 23.4287 48.9569C22.1341 50.6962 20.2405 50.0277 18.9716 48.7588C14.3164 44.2669 8.87474 40.3346 4.22104 35.8791C-0.786556 31.0862 -1.44143 23.8629 2.80845 18.3305C4.86079 15.6596 8.22591 11.7863 10.6019 9.4073C10.862 9.14565 11.1781 8.76906 11.4988 8.60421C12.6679 8.00378 14.2514 8.2866 14.9788 9.43452C16.1827 11.3326 14.6461 12.6514 13.5148 14.0126C11.4655 16.4809 8.8097 18.9204 6.9207 21.4431C2.61183 27.1978 6.93885 34.7417 14.0653 33.9507C18.7538 33.4305 23.2079 25.4616 26.5397 22.4095V22.411Z" fill="white"></path>
<path d="M134.281 22.3611L137.047 31.7033L139.813 22.3611H143.927C142.223 26.8288 140.745 31.4189 138.927 35.8412C137.229 39.9762 135.394 42.6516 130.311 41.3252V38.0705C131.356 38.3276 132.291 38.7692 133.342 38.193C134.172 37.7393 134.704 36.2012 134.86 35.3119L129.813 22.7876L129.745 22.3611H134.284H134.281Z" fill="white"></path>
<path d="M114.567 35.5235H110.453V27.8102C110.453 27.7406 110.258 26.9178 110.214 26.7742C109.624 24.8519 107.399 24.6795 106.362 26.2766C106.282 26.4006 105.914 27.1825 105.914 27.2445V35.5235H101.8V22.3609H105.914V24.3422L106.763 23.2775C108.697 21.514 112.504 21.4853 113.832 24.014C114.167 24.6522 114.567 26.2645 114.567 26.9617V35.525V35.5235Z" fill="white"></path>
<path d="M74.4287 22.3611V30.3572C74.4287 30.4041 74.6041 31.1815 74.6389 31.2798C75.2756 33.137 77.9526 33.069 78.7133 31.3766C78.7602 31.2737 78.9674 30.6794 78.9674 30.64V22.3611H83.0812V35.5236H78.9674V33.6845C76.9241 36.6851 71.8697 36.726 70.7021 32.9449C70.575 32.5336 70.3164 31.4371 70.3164 31.065V22.3611H74.4302H74.4287Z" fill="white"></path>
<path d="M59.5362 17.125V20.5219H53.0132V25.0516H58.9691V28.4469H53.0132V35.5235H48.8994V17.125H59.5362Z" fill="white"></path>
<path d="M98.824 30.1455H90.3137C90.6887 33.8388 95.3318 33.323 97.6882 31.8439V34.958C93.3763 36.6277 87.4159 36.3509 86.3799 30.885C85.3454 25.4267 89.1567 20.8441 94.8524 22.29C96.7157 22.7634 98.8225 24.9836 98.8225 26.9618V30.147L98.824 30.1455ZM94.9946 27.5986C95.2683 23.6118 90.5496 24.0883 90.3137 27.5986H94.9946Z" fill="white"></path>
<path d="M148.605 33.8252V41.6096H146.477V22.3611H148.605V24.4845C148.939 24.2305 149.165 23.7329 149.47 23.438C151.267 21.7078 154.6 21.5338 156.535 23.1521C159.248 25.4222 159.122 31.1891 157.031 33.8131C154.941 36.4371 150.6 36.6443 148.604 33.8252H148.605ZM154.937 33.0675C157.374 30.6688 156.976 23.5136 152.369 23.7737C148.835 23.9734 148.36 27.7151 148.6 30.504C148.879 33.7148 152.617 35.3497 154.937 33.0675Z" fill="white"></path>
<path d="M128.182 26.0423C126.656 25.3391 125.423 24.8868 123.746 25.5084C121.15 26.4688 120.858 30.9093 123.234 32.1827C124.96 33.1083 126.516 32.5669 128.182 31.8455V35.0306C126.832 35.8412 124.971 35.9244 123.423 35.8155C115.252 35.2378 115.358 22.7165 123.85 22.0753C124.385 22.0344 128.182 22.0571 128.182 22.718V26.0438V26.0423Z" fill="white"></path>
<path d="M66.77 16.1345H62.6562V35.5237H66.77V16.1345Z" fill="white"></path>
<path d="M171.866 35.5237H169.738L169.667 33.6831C167.961 36.8697 161.91 36.5808 161.513 32.6213C160.999 27.4897 166.06 27.6379 169.736 27.1721C169.895 22.5336 165.316 23.4062 162.788 25.4752V23.2111C165.279 21.862 169.744 21.1073 171.353 24.0762C171.459 24.2713 171.866 25.2665 171.866 25.4041V35.5237ZM169.738 28.8721C167.338 29.5194 163.036 28.7798 163.814 32.5896C164.224 34.595 167.45 34.3606 168.673 33.1159C168.986 32.7983 169.738 31.4613 169.738 31.0651V28.8721Z" fill="white"></path>
<path d="M183.779 24.7674C182.327 24.0823 180.75 23.432 179.144 24.0339C178.052 24.4422 177.427 25.4934 178.047 26.5959C178.991 28.2762 183.799 28.2218 184.313 31.2405C185.104 35.8882 178.569 36.7881 175.553 35.0276V32.8346C176.022 32.945 176.331 33.311 176.79 33.5107C178.546 34.2729 182.74 34.6465 182.047 31.661C181.648 29.9399 176.99 29.7206 175.907 27.458C174.566 24.6585 177.057 22.3294 179.741 22.0799C180.257 22.0315 183.781 22.1252 183.781 22.7151V24.7674H183.779Z" fill="white"></path>
<path d="M195.41 24.7674C193.958 24.0823 192.38 23.432 190.774 24.0339C189.682 24.4422 189.057 25.4934 189.678 26.5959C190.621 28.2762 195.429 28.2218 195.943 31.2405C196.734 35.8882 190.199 36.7881 187.184 35.0276V32.8346C187.652 32.945 187.961 33.311 188.421 33.5107C190.177 34.2729 194.371 34.6465 193.678 31.661C193.279 29.9399 188.62 29.7206 187.537 27.458C186.196 24.6585 188.687 22.3294 191.371 22.0799C191.887 22.0315 195.411 22.1252 195.411 22.7151V24.7674H195.41Z" fill="white"></path>
</g>
<defs>
<clipPath id="clip0_9589_1309">
<rect width="196.009" height="49.9731" fill="white"></rect>
</clipPath>
</defs>
</svg>