<svg width="331" height="53" viewBox="0 0 331 53" fill="none" xmlns="http://www.w3.org/2000/svg">
<path d="M72.2419 1.96948V16.9307C72.3879 16.9678 72.3455 16.8962 72.3839 16.8524C72.5843 16.6201 72.729 16.3321 72.9267 16.0946C76.0788 12.3227 82.2541 11.8927 86.1759 14.7077C92.1628 19.0037 92.2941 30.221 87.6172 35.4938C83.5534 40.0752 75.747 40.7613 71.9433 35.5124C71.877 35.4208 71.5359 34.7811 71.435 34.8727L71.1244 38.5967H65.7202C65.7361 37.6372 65.7547 36.6644 65.8476 35.7128C65.9777 24.4756 65.8742 13.2159 65.9073 1.96948H72.2433H72.2419ZM77.5095 17.8796C74.534 18.1689 72.433 20.9308 72.2433 23.7908C72.1504 25.183 72.1517 27.2415 72.2406 28.635C72.6321 34.7944 80.9999 36.3286 83.5773 30.4612C85.6623 25.7152 84.148 17.2333 77.5095 17.8796Z" fill="white"></path>
<path d="M45.8431 13.4543L45.8404 27.89C45.9944 30.3041 46.6102 33.1973 49.3083 33.8596C52.6422 34.6785 55.6615 31.9909 55.7836 28.6969L55.7809 13.4543H62.1169L62.1142 33.9127C62.1169 34.06 62.1779 34.1954 62.1819 34.3427C62.2151 35.7641 62.2323 37.1762 62.304 38.5976H56.7139L56.4658 34.8098C56.2242 34.7554 56.1791 35.0726 56.057 35.2385C54.3768 37.5305 51.9972 38.9719 49.1053 39.155C42.7521 39.5558 39.7739 35.2677 39.5059 29.3804L39.5085 13.4543H45.8444H45.8431Z" fill="white"></path>
<path d="M116.346 27.795H99.6055C99.506 27.795 99.5073 28.0485 99.5113 28.1347C99.867 34.821 107.81 34.9737 112.694 33.6757C113.214 33.5377 113.715 33.3399 114.232 33.1979L115.163 37.6015C114.203 37.9386 113.24 38.2703 112.247 38.5066C103.64 40.5531 94.4442 38.1867 93.4873 28.1374C92.6538 19.3913 98.3102 11.6792 107.671 13.0315C114.889 14.0747 117.319 21.3502 116.346 27.7963V27.795ZM110.569 23.3875C110.592 20.3496 109.092 17.4364 105.758 17.2387C102.05 17.0184 99.8896 20.0032 99.5126 23.3875H110.569Z" fill="white"></path>
<path d="M28.9469 13.0191C33.7871 13.5991 36.1707 17.9907 36.403 22.4832L36.4003 38.5951H30.0644L30.0671 23.7241C30.0034 20.1487 27.6861 17.1108 23.8055 18.2787C22.0589 18.8043 20.0629 20.9755 20.0629 22.8575V38.5951H13.6964L13.6035 20.9025C18.7078 18.2734 23.7949 15.5341 28.9469 13.0178V13.0191Z" fill="white"></path>
<path d="M36.4629 7.74271L1.11768 25.4976C1.14289 24.7677 1.32737 23.9156 1.43885 23.1804C1.99095 19.5386 2.60676 15.9022 3.20797 12.2697L28.4813 0C30.63 2.0465 32.7415 4.13281 34.8769 6.19258C35.4065 6.70354 35.9333 7.2291 36.4629 7.74271ZM30.9352 4.14343C30.3274 4.19253 29.7222 4.34781 29.1223 4.47256C24.1228 5.50908 19.1407 6.63452 14.1465 7.69493L2.9213 17.2107C3.00491 17.3435 3.02747 17.2625 3.09251 17.2612C8.05878 17.0727 13.0569 16.4742 18.0112 16.153C22.1029 12.3161 26.2861 8.57219 30.3765 4.73402C30.5716 4.55087 30.7693 4.35445 30.9352 4.14343Z" fill="white"></path>
<path d="M28.9469 13.0193C23.7948 15.5356 18.7078 18.2735 13.6035 20.904C13.1178 21.1548 12.6002 21.3645 12.1118 21.6167C8.82568 23.3101 5.55554 25.0368 2.2469 26.6878C2.17523 28.8232 2.30662 30.9706 2.23894 33.106C2.2323 33.3117 2.13144 33.5134 2.17391 33.7244C2.2031 33.8718 2.52162 34.0151 2.63709 34.1929C2.92641 34.6375 2.77644 34.9972 2.49641 35.3887L3.41614 38.5354H0L0.918402 35.3874C0.452565 34.818 0.558739 34.2142 1.18118 33.8359C1.16791 31.3979 1.19578 28.9586 1.1772 26.5206C1.17455 26.1317 1.10819 25.8119 1.1188 25.4986L36.4627 7.74243C36.7016 7.97336 37.1329 8.21889 37.3333 8.51883C37.3798 8.58784 37.4302 8.5613 37.3306 8.64093L28.9456 13.0193H28.9469Z" fill="white"></path>
<path d="M35.6556 49.6771C35.4738 51.7462 33.7392 52.3872 31.9011 51.8152C31.8175 51.7887 31.4392 51.6413 31.4273 51.5909C31.3742 51.3666 31.637 50.9539 31.6184 50.7004C32.0298 50.7959 32.3908 50.987 32.8261 51.0123C34.0312 51.0839 34.5196 50.4349 34.4121 49.2723C33.5335 50.2797 31.8719 50.0195 31.2733 48.8397C30.6363 47.5828 31.0278 45.62 32.4691 45.1263C33.2681 44.8529 34.0007 45.0148 34.5355 45.6717C34.6231 45.5722 34.57 45.113 34.5979 45.113H35.6543V49.6758L35.6556 49.6771ZM33.0915 45.9982C31.9661 46.2305 31.9104 48.7375 33.1539 48.9485C33.8002 49.0587 34.3431 48.6525 34.4134 48.0022C34.5169 47.0467 34.3961 45.7301 33.0915 45.9982Z" fill="white"></path>
<path d="M99.6359 42.9418L99.6054 49.9572H98.6737C98.5065 49.9572 98.6552 49.2737 98.4879 49.275C98.4428 49.275 98.326 49.4927 98.2636 49.5471C97.101 50.5624 95.4527 49.9121 95.0439 48.4946C94.7427 47.4515 94.9285 46.0765 95.8654 45.4103C96.6525 44.8502 97.7036 44.8263 98.395 45.5483V42.9404H99.6373L99.6359 42.9418ZM97.0732 45.9982C95.8628 46.2225 95.8376 48.7999 97.0732 49.0109C98.326 49.2246 98.5543 48.0607 98.4481 47.0786C98.3645 46.3114 97.8642 45.8522 97.0732 45.9982Z" fill="white"></path>
<path d="M76.5909 49.4607V51.8815H75.4415C75.4415 51.8815 75.3486 51.7952 75.3486 51.7886V45.1156H76.4051L76.4674 45.7991C77.062 45.1461 77.8079 44.8302 78.6904 45.097C80.437 45.6265 80.5989 48.5251 79.2824 49.5749C78.4861 50.2092 77.3155 50.1986 76.5909 49.462V49.4607ZM77.5053 45.9995C77.0328 46.0791 76.6413 46.6113 76.5895 47.0705C76.5046 47.8256 76.5404 48.8715 77.4562 49.0599C79.3527 49.4501 79.4124 45.6783 77.5053 45.9995Z" fill="white"></path>
<path d="M74.5404 49.957H73.2357L72.6173 48.0605C72.3532 48.0353 70.6172 47.9848 70.5575 48.0684L70.0054 49.9557H68.7632L70.8429 43.3119C70.9477 43.1858 72.1236 43.2574 72.3665 43.28L74.5112 49.7035L74.539 49.9543L74.5404 49.957ZM72.4288 47.1009L71.5901 44.3072L70.8137 47.1009H72.4288Z" fill="white"></path>
<path d="M17.5795 43.2524V44.3075H14.9703V45.9838H17.4547V46.9778H14.9703V48.9022H17.7029V49.9573H13.728V43.2524H17.5795Z" fill="white"></path>
<path d="M50.7721 49.3757C49.6134 48.2171 49.9267 45.8441 51.4954 45.2084C53.6573 44.3311 55.4503 46.1241 54.8584 48.3206C54.3886 50.0658 52.0103 50.6153 50.7707 49.3757H50.7721ZM52.2864 45.937C50.9526 46.1653 51.0654 49.2324 52.5797 49.1527C54.1285 49.0704 54.1258 45.6211 52.2864 45.937Z" fill="white"></path>
<path d="M92.7412 49.9572V47.0082C92.7412 46.9113 92.5872 46.4614 92.5209 46.3592C92.1692 45.8204 91.288 45.9757 90.9893 46.4986C90.9509 46.5663 90.8155 46.8994 90.8155 46.9458V49.9572H89.6661C89.6661 49.9572 89.5732 49.8709 89.5732 49.8643V45.1157H90.6297L90.692 45.7992C91.5162 44.6551 93.3981 44.7321 93.8282 46.1721C93.8706 46.3168 93.9834 46.768 93.9834 46.8861V49.8656C93.9834 49.8656 93.8972 49.9585 93.8905 49.9585H92.7412V49.9572Z" fill="white"></path>
<path d="M43.1715 49.9572H42.1469C42.0089 49.9572 42.1098 49.5285 41.9611 49.4622C40.8038 50.6102 38.7321 49.9678 39.0998 48.1536C39.3187 47.0772 40.9352 46.7056 41.8682 46.7919C41.9877 45.5603 40.3367 45.843 39.6319 46.2332C39.6054 46.0354 39.3466 45.5377 39.4528 45.3718C39.5457 45.2285 40.8543 44.9883 41.0892 44.9869C43.6334 44.967 43.0521 47.3347 43.1065 49.06C43.1158 49.3427 43.2259 49.6533 43.1715 49.9572ZM41.9293 47.5975C41.6121 47.5895 41.2909 47.5882 40.9843 47.6771C39.7939 48.0209 40.1867 49.49 41.3267 49.0746C42.0116 48.8251 41.9492 48.212 41.9306 47.5975H41.9293Z" fill="white"></path>
<path d="M30.0644 49.9574H29.008C28.9828 49.9574 28.9217 49.5247 28.9456 49.461C28.6828 49.5632 28.4957 49.7782 28.2236 49.887C27.0478 50.3568 25.7949 49.6614 25.9701 48.317C26.132 47.0681 27.779 46.723 28.8222 46.7907C28.7691 45.5419 27.3066 45.8458 26.5249 46.232C26.5209 45.9984 26.2329 45.5764 26.3988 45.3932C26.7306 45.0296 28.1745 44.9619 28.6497 45.0694C30.4174 45.4715 29.9622 47.3773 29.9994 48.7483C30.002 48.8664 30.1308 49.956 30.0644 49.956V49.9574ZM28.8222 47.5977C28.3882 47.5592 27.5149 47.6534 27.2774 48.0715C26.8075 48.897 27.7989 49.5101 28.509 48.9301C28.5687 48.8824 28.8222 48.5333 28.8222 48.4975V47.5977Z" fill="white"></path>
<path d="M111.874 47.8471H108.706C108.729 49.3522 110.452 49.1677 111.501 48.9022L111.619 49.7662C110.672 50.0489 109.562 50.2015 108.65 49.7344C106.838 48.804 107.218 45.5923 109.199 45.0826C111.049 44.6062 112.183 46.1285 111.874 47.8485V47.8471ZM110.755 47.0389C110.845 45.3985 108.707 45.51 108.704 47.0389H110.755Z" fill="white"></path>
<path d="M66.1552 47.8469H62.9873C62.9833 49.3572 64.7378 49.1688 65.7823 48.902C65.761 49.3679 66.1751 49.6625 65.5832 49.8523C63.8605 50.4044 61.8963 49.8456 61.753 47.8084C61.4929 44.1109 66.7591 44.0326 66.1552 47.8469ZM65.0364 47.0387C65.0377 45.3877 63.051 45.5151 62.9249 47.0387H65.0364Z" fill="white"></path>
<path d="M88.6414 47.847H85.4111C85.4761 49.3334 87.1497 49.1928 88.2035 48.9034C88.2035 49.0561 88.4065 49.5883 88.3853 49.6732C88.3136 49.9559 86.6613 50.0448 86.3746 50.0183C83.2306 49.7263 83.6937 44.9432 86.6215 44.9856C87.589 45.0002 88.6414 45.8908 88.6414 46.8835V47.8457V47.847ZM85.4111 47.0388H87.4297C87.5678 47.0388 87.4616 46.6313 87.4311 46.5398C87.0329 45.3015 85.354 45.8483 85.4111 47.0388Z" fill="white"></path>
<path d="M106.966 45.1143C106.941 45.4036 107.032 45.742 106.896 46.0061L104.543 48.9631H107.027V49.9558H102.99L103.022 49.1502L105.474 46.107H103.176V45.1143H106.965H106.966Z" fill="white"></path>
<path d="M115.598 46.1055C115.202 46.0272 114.328 45.7127 114.005 46.0657C113.395 46.7333 114.835 47.0412 115.185 47.2363C115.535 47.4314 115.912 47.795 115.967 48.1932C116.239 50.1561 113.872 50.3352 112.557 49.7061L112.808 48.8422C113.268 49.012 114.69 49.4699 114.792 48.6789C114.874 48.0379 113.862 47.9184 113.408 47.6477C112.808 47.2894 112.544 46.7306 112.776 46.0485C113.108 45.0743 114.28 44.8739 115.178 45.0717C116.032 45.2601 115.753 45.3902 115.598 46.1055Z" fill="white"></path>
<path d="M58.8161 45.2469C58.9024 45.3823 58.7033 45.9132 58.6423 46.0817C58.2268 46.0432 57.3775 45.6875 57.0496 46.1029C56.5241 46.7692 57.9973 47.0811 58.3848 47.3239C59.3815 47.949 59.2793 49.332 58.2176 49.8164C57.6601 50.0712 56.2056 50.1229 55.7185 49.7394C55.5619 49.616 55.8645 49.0479 55.8446 48.8422C55.96 48.744 57.1532 49.47 57.7225 48.967C58.487 48.2928 56.8546 47.876 56.5294 47.6876C55.0337 46.8196 55.887 45.0598 57.4903 44.9908C57.6867 44.9828 58.7431 45.1341 58.8148 45.2469H58.8161Z" fill="white"></path>
<path d="M21.4921 46.1083C21.0501 45.9941 19.7508 45.6132 19.7495 46.387C19.7495 46.8953 20.8749 47.093 21.2638 47.3598C22.1742 47.9822 22.0561 49.3386 21.0568 49.8018C20.2498 50.1747 19.2438 50.0592 18.4502 49.7049C18.5112 49.543 18.5922 48.886 18.7355 48.8435C18.8191 48.8183 19.2319 49.024 19.3779 49.0599C19.8716 49.182 20.8311 49.2271 20.6546 48.4666C20.5564 48.0433 19.6765 47.88 19.2983 47.6491C17.7946 46.728 18.7793 45.02 20.3414 44.9881C20.5697 44.9841 21.5412 45.1248 21.6513 45.3027C21.7257 45.4234 21.4416 45.9278 21.4907 46.1109L21.4921 46.1083Z" fill="white"></path>
<path d="M24.226 43.9355V45.1154H25.4059V46.0471H24.226V48.2515C24.226 48.2727 24.303 48.6059 24.3189 48.6563C24.4609 49.1089 24.952 49.073 25.3435 48.9655V49.8653C25.3435 50.0405 24.307 50.0379 24.1371 50.0153C23.8265 49.9728 23.4722 49.7486 23.3036 49.4831C23.2412 49.3849 23.0448 48.8939 23.0448 48.8102V46.0471H22.3613V45.1154H23.0448C23.082 44.9177 22.9798 44.3855 23.0727 44.2435C23.1284 44.1585 24.0482 43.9409 24.2247 43.9355H24.226Z" fill="white"></path>
<path d="M47.0852 45.0533V46.1707C46.5384 46.111 45.9717 46.2238 45.7341 46.7759C45.7063 46.8423 45.5948 47.2165 45.5948 47.2564V49.9571H44.4454C44.4454 49.9571 44.3525 49.8709 44.3525 49.8642V45.1156H45.409C45.409 45.2683 45.3997 45.4209 45.4169 45.5735C45.4249 45.6452 45.4448 45.9146 45.5324 45.9225C45.7182 45.3094 46.4614 44.8714 47.0865 45.0533H47.0852Z" fill="white"></path>
<path d="M83.8585 45.0533V46.1707C83.4139 46.1442 82.9388 46.1601 82.6256 46.5224C82.5658 46.5915 82.3681 46.9485 82.3681 47.0095V49.8656C82.3681 49.8656 82.2818 49.9585 82.2752 49.9585H81.1259L81.0635 45.1156H82.0881C82.2686 45.1156 82.1212 45.9823 82.2128 45.9849C82.453 45.3426 83.1644 44.8383 83.8585 45.0533Z" fill="white"></path>
<path d="M49.0719 45.1143H47.8921V49.8947H49.0719V45.1143Z" fill="white"></path>
<path d="M102.12 45.1143H100.94V49.8947H102.12V45.1143Z" fill="white"></path>
<path d="M38.0778 45.1143H36.8979V49.8947H38.0778V45.1143Z" fill="white"></path>
<path d="M42.675 43.0667L41.5243 44.4934C41.4115 44.5876 40.8833 44.5783 40.7161 44.5571C40.6298 44.5451 40.6086 44.5916 40.6245 44.4642L41.4314 43.0667H42.6737H42.675Z" fill="white"></path>
<path d="M48.3106 43.1425C49.2728 42.9461 49.4904 44.2108 48.7645 44.402C47.6629 44.6926 47.5183 43.3044 48.3106 43.1425Z" fill="white"></path>
<path d="M101.358 43.1425C102.321 42.9461 102.538 44.2108 101.812 44.402C100.711 44.6926 100.566 43.3044 101.358 43.1425Z" fill="white"></path>
<path d="M37.316 43.1423C38.3844 42.9233 38.5278 44.4973 37.4249 44.4362C36.6392 44.3924 36.598 43.2896 37.316 43.1423Z" fill="white"></path>
<path d="M14.9083 9.04594C14.2407 9.63653 13.4869 11.1508 13.321 12.0228C13.0874 13.2531 13.4152 14.3679 14.8459 14.3851C14.404 13.1469 14.7835 11.9179 15.4179 10.8283C16.2182 9.45338 17.4803 8.34652 18.8845 7.61923C20.2024 7.30602 21.7206 6.87734 23.0598 7.32592C24.4254 7.7838 23.6119 9.10035 22.9815 9.821C20.7147 12.4183 13.5108 15.6114 10.092 15.3195C9.05944 15.2319 8.25252 14.7674 8.71039 13.6233C9.20543 12.3878 11.5625 10.7898 12.7158 10.1143C13.4019 9.7135 14.1664 9.31402 14.9083 9.04594Z" fill="white"></path>
<path d="M155.6 30.4072H169.337L159.689 40.0232C159.573 40.0232 159.265 39.5618 159.18 39.4451C159.058 39.2807 158.597 38.6707 158.549 38.5328C158.538 38.4957 158.517 38.4745 158.549 38.4374L164.877 32.2424L155.982 32.3432L155.918 32.2053L155.605 30.561V30.4125L155.6 30.4072Z" fill="white"></path>
<path d="M177.473 8.70337C177.871 8.73519 178.566 8.87309 178.964 8.97387C179.027 8.98978 179.25 9.0216 179.261 9.07995L179.16 17.964L185.36 11.6948H185.556L186.999 12.7397L177.33 22.4246V8.70337C177.378 8.70337 177.431 8.70337 177.479 8.70337H177.473Z" fill="white"></path>
<path d="M155.6 25.4057C155.717 25.1617 155.669 24.7852 155.759 24.5465C155.78 24.4881 155.807 24.4669 155.876 24.4616L166.415 24.5624L158.92 17.1528L158.873 17.052C158.926 16.9035 159.44 16.1292 159.541 16.1292L169.141 25.6974H155.6V25.4004V25.4057Z" fill="white"></path>
<path d="M172.61 8.70337V22.2284L162.988 12.6442C163.253 12.4957 163.582 12.1191 163.848 12.013C163.911 11.9865 163.959 11.9547 164.028 11.9971L171.469 19.5075L171.368 8.97917L171.453 8.86249L172.366 8.70337H172.615H172.61Z" fill="white"></path>
<path d="M306.619 23.1724C306.709 23.1883 306.714 23.1459 306.762 23.0875C307.08 22.6685 307.276 22.2283 307.664 21.804C310.533 18.6269 316.129 18.3988 317.99 22.7375C318.059 22.8966 318.202 23.4853 318.229 23.5118C318.303 23.5861 318.314 23.4853 318.34 23.4482C318.584 23.0663 318.77 22.6579 319.051 22.276C322.313 17.9003 329.579 18.5527 330.184 24.5249V36.6921H327.007V24.4294C327.007 23.533 325.829 22.4776 324.976 22.345C321.825 21.857 318.632 24.684 318.425 27.7974V36.6921H315.248V24.5249C315.248 23.5702 314.102 22.4563 313.18 22.3344C310.05 21.91 306.942 24.6097 306.672 27.6966C306.566 30.688 306.645 33.6954 306.619 36.6921H303.495V20.0431H306.619V23.1671V23.1724Z" fill="white"></path>
<path d="M234.756 28.8742H222.058C222.079 29.5797 222.207 30.3116 222.466 30.9693C224.238 35.4564 230.698 34.7033 234.109 32.7408V35.5413C234.109 35.7481 232.082 36.4111 231.791 36.496C227.914 37.5515 223.416 37.1802 220.774 33.8546C218.52 31.017 218.398 26.5936 220.17 23.4908C223.517 17.6246 232.783 18.1073 234.496 25.0024C234.819 26.2965 234.766 27.5589 234.756 28.8795V28.8742ZM231.679 26.6943C231.716 20.8812 223.745 20.4781 222.27 25.7927C222.191 26.0844 222.111 26.392 222.106 26.6943H231.679Z" fill="white"></path>
<path d="M288.713 20.0537V31.7701C288.713 32.8945 289.88 34.0242 290.972 34.125C294.24 34.4273 297.257 31.5314 297.342 28.3013V20.0537H300.519V36.7027H297.348V33.234C296.738 34.1728 296.101 34.9949 295.184 35.6525C291.179 38.5273 285.706 36.6656 285.546 31.4784V20.0537H288.723H288.713Z" fill="white"></path>
<path d="M256.327 20.0537V32.0194C256.327 32.9475 257.563 33.9977 258.449 34.1144C261.594 34.5122 264.713 31.7064 264.909 28.6036V20.059H268.086V36.708H264.914V33.2393L264.288 34.1781C261.026 38.4901 253.893 37.9279 253.161 32.0247V20.059H256.332L256.327 20.0537Z" fill="white"></path>
<path d="M216.505 23.2255C215.285 22.7853 214.049 22.361 212.755 22.1912C211.297 22.0003 207.807 21.995 207.245 23.7559C206.502 26.0684 210.782 26.7632 212.267 27.2353C215.041 28.1157 218.118 29.4152 217.582 32.9476C216.935 37.2332 210.655 37.265 207.414 36.7929C206.231 36.6232 205.075 36.3209 203.961 35.9072V33.0802C204.014 33.0802 204.067 33.0802 204.126 33.0908C204.688 33.2128 205.468 33.5894 206.088 33.7591C207.992 34.2842 212.952 35.154 214.156 33.0749C215.619 30.5502 210.613 29.691 209.138 29.2242C206.529 28.4021 203.633 27.161 203.871 23.8832C204.179 19.6506 210.125 19.1415 213.312 19.6029C214.389 19.7567 215.535 20.0166 216.521 20.4621V23.2149L216.505 23.2255Z" fill="white"></path>
<path d="M180.894 41.9536L180.969 46.4672C179.452 47.0135 177.839 47.2734 176.232 47.406L176.185 30.6562L187.986 42.3832C187.996 42.4522 187.593 42.781 187.519 42.8447C186.469 43.7463 185.27 44.526 184.045 45.1731L180.9 41.9536H180.894Z" fill="white"></path>
<path d="M194.335 29.2663C194.282 30.8999 193.916 32.5123 193.438 34.0663L188.978 33.9709L192.144 37.0259C191.439 38.4845 190.463 39.7999 189.397 41.0039L177.574 29.261H194.34L194.335 29.2663Z" fill="white"></path>
<path d="M250.477 23.6708C250.084 23.5064 249.74 23.2624 249.352 23.0821C244.499 20.8279 239.153 23.1882 239.763 28.996C240.262 33.743 244.637 35.122 248.727 33.6422C249.337 33.4248 249.893 33.1118 250.472 32.836V35.6842C247.539 37.3815 243.433 37.5141 240.506 35.732C235.111 32.4382 235.207 23.708 240.718 20.5893C243.619 18.9451 247.618 19.1042 250.472 20.7696V23.6708H250.477Z" fill="white"></path>
<path d="M173.655 31.3513V47.4063C173.024 47.348 172.387 47.2949 171.761 47.1941C171.353 47.1305 170.515 47.0032 170.159 46.86C170.112 46.8388 170.059 46.8441 170.037 46.7804L170.181 39.7739L165.237 44.8339C164.15 44.3035 163.19 43.5185 162.241 42.7707L173.649 31.3513H173.655Z" fill="white"></path>
<path d="M178.264 26.7419L189.688 15.3491C189.778 15.365 190.723 16.6327 190.85 16.8183C191.057 17.11 191.624 17.8897 191.725 18.1761C191.746 18.2292 191.773 18.2769 191.746 18.3352L186.745 23.2254L193.783 23.13C194.059 24.3128 194.303 25.522 194.335 26.7419H178.264Z" fill="white"></path>
<path d="M282.316 36.7029H279.091V12.6443C279.091 12.6443 279.16 12.5701 279.166 12.5701H282.242C282.242 12.5701 282.316 12.639 282.316 12.6443V36.7029Z" fill="white"></path>
<path d="M274.827 12.6177H271.655V36.6975H274.827V12.6177Z" fill="white"></path>
<path d="M298.583 45.2262C298.583 45.2262 298.53 45.7247 298.658 45.7194C298.673 45.7194 298.827 45.5391 298.886 45.502C299.644 44.961 300.965 44.9557 301.437 45.8679C301.66 45.7406 301.782 45.5391 302.01 45.4012C303.113 44.7435 304.683 45.258 304.683 46.6847V50.127H303.792V46.4832C303.792 46.4832 303.627 46.1703 303.596 46.1331C303.245 45.7194 302.354 45.7937 301.983 46.1544C301.882 46.2498 301.665 46.6105 301.665 46.7272V50.1217H300.822V46.8757C300.822 46.8226 300.747 46.4991 300.726 46.4249C300.498 45.7035 299.352 45.6982 298.886 46.1809C298.843 46.2233 298.642 46.5044 298.642 46.5309V50.1217H297.798V45.2156C297.915 45.2368 298.562 45.189 298.594 45.2156L298.583 45.2262Z" fill="white"></path>
<path d="M218.637 45.4698H217.821C217.709 45.3531 217.752 45.1728 217.699 44.9978C217.343 43.815 214.93 43.8839 214.962 45.247C214.983 46.1699 216.404 46.3556 217.073 46.6101C217.704 46.8488 218.425 47.2466 218.611 47.9467C219.401 50.8798 213.79 50.9965 213.874 48.196H214.691C214.792 48.3445 214.776 48.5302 214.856 48.7264C215.291 49.7978 217.794 49.8243 217.794 48.4718C217.794 47.8619 217.359 47.6232 216.861 47.4163C215.885 47.0132 214.193 46.7958 214.071 45.4486C213.827 42.7701 218.754 42.786 218.632 45.4751L218.637 45.4698Z" fill="white"></path>
<path d="M251.718 49.7344V52.0151H250.827V45.3003C250.827 45.3003 250.896 45.2261 250.901 45.2261H251.622L251.67 45.7194C252.593 44.7912 254.131 44.9556 254.72 46.1649C255.118 46.9764 255.102 48.488 254.667 49.2836C254.046 50.4186 252.672 50.5088 251.718 49.7344ZM252.545 45.8785C252.222 45.9315 251.872 46.202 251.728 46.499L251.718 48.8646C252.349 49.9731 253.776 49.6814 254.073 48.4456C254.338 47.3424 254.03 45.6239 252.545 45.8785Z" fill="white"></path>
<path d="M288.219 43.1948V45.7725C289.02 44.9345 290.675 44.8178 291.121 46.0695C291.147 46.1385 291.248 46.4992 291.248 46.5416V50.1324H290.405V46.6371C290.405 46.5522 290.224 46.1703 290.155 46.0961C289.811 45.746 289.084 45.8256 288.702 46.0749C288.601 46.1438 288.225 46.5469 288.225 46.6371V50.1324H287.381V43.1948H288.225H288.219Z" fill="white"></path>
<path d="M260.05 50.1323H259.159C259.159 50.1323 259.095 49.6921 259.037 49.639C257.992 50.8589 255.6 50.1058 256.056 48.3502C256.226 47.6872 257.085 47.1621 257.743 47.1621H259.058C259.085 46.5734 258.995 46.0271 258.347 45.8679C257.838 45.7407 257.212 45.9051 257 46.4196C256.974 46.4832 256.984 46.6158 256.974 46.6158H256.13C256.088 46.1278 256.443 45.7035 256.841 45.4702C257.928 44.8284 259.721 45.0883 259.896 46.5469C260.029 47.6978 259.716 48.9867 260.05 50.1323ZM259.058 47.7508H258.04C257.934 47.7508 257.552 47.8463 257.435 47.8887C257.175 47.9842 256.921 48.1858 256.878 48.4722C256.719 49.5542 257.939 49.7186 258.655 49.2094C258.729 49.1564 259.053 48.8275 259.053 48.7692V47.7508H259.058Z" fill="white"></path>
<path d="M237.583 50.1323H236.692C236.692 50.1323 236.628 49.6921 236.57 49.639C235.525 50.8589 233.133 50.1058 233.589 48.3502C233.759 47.6872 234.618 47.1621 235.276 47.1621H236.591C236.628 46.5734 236.517 46.0218 235.88 45.8679C235.371 45.7407 234.745 45.9051 234.533 46.4196C234.506 46.4832 234.517 46.6158 234.506 46.6158H233.663C233.621 46.1278 233.976 45.7035 234.374 45.4702C235.461 44.8284 237.254 45.0883 237.429 46.5469C237.562 47.6978 237.249 48.9867 237.583 50.1323ZM236.591 47.7508H235.573C235.466 47.7508 235.085 47.8463 234.968 47.8887C234.708 47.9842 234.453 48.1858 234.411 48.4722C234.252 49.5542 235.472 49.7186 236.188 49.2094C236.262 49.1564 236.586 48.8275 236.586 48.7692V47.7508H236.591Z" fill="white"></path>
<path d="M268.234 50.1324H267.343C267.343 50.1324 267.316 49.6922 267.221 49.6869C266.457 50.4772 264.744 50.4347 264.309 49.3209C263.874 48.2071 264.839 47.1569 265.98 47.1569H267.242C267.274 46.6212 267.226 46.0802 266.648 45.8946C266.118 45.7195 265.407 45.8628 265.184 46.4144C265.158 46.478 265.168 46.6106 265.158 46.6106H264.314C264.458 44.7224 267.873 44.5686 268.08 46.5417C268.202 47.7191 267.916 48.9655 268.234 50.1271V50.1324ZM267.242 47.7509H266.224C266.075 47.7509 265.63 47.8782 265.487 47.9525C265.285 48.0533 265.099 48.2442 265.062 48.4723C264.893 49.5331 266.107 49.7187 266.813 49.2307C266.897 49.1724 267.242 48.8436 267.242 48.7693V47.7509Z" fill="white"></path>
<path d="M309.944 50.1325H309.075C308.969 50.1325 308.953 49.687 308.926 49.687C308.422 50.0476 307.987 50.281 307.34 50.2333C305.638 50.1007 305.314 47.942 306.884 47.3532C307.017 47.3055 307.526 47.1623 307.637 47.1623H308.9C308.947 46.5099 308.841 45.9583 308.109 45.8469C307.627 45.7727 307.08 45.9265 306.863 46.3932C306.831 46.4622 306.826 46.616 306.815 46.616H305.972C306.094 44.7755 309.515 44.5793 309.738 46.4463C309.881 47.629 309.531 48.9709 309.939 50.1325H309.944ZM308.9 47.751H307.881C307.743 47.751 307.314 47.873 307.176 47.942C306.444 48.3079 306.614 49.3422 307.393 49.4748C307.791 49.5438 308.21 49.4324 308.534 49.199C308.608 49.146 308.894 48.8701 308.894 48.8171V47.751H308.9Z" fill="white"></path>
<path d="M280.682 47.9471H277.41C277.346 49.1935 278.693 49.9997 279.738 49.2572C279.834 49.1882 280.062 48.9018 280.12 48.8965C280.157 48.8912 280.587 49.2042 280.613 49.236C280.661 49.3102 280.619 49.3102 280.587 49.3633C280.083 50.1589 278.985 50.3763 278.115 50.1429C275.649 49.4853 276.142 44.9928 278.821 45.1254C279.722 45.1679 280.682 46.0059 280.682 46.9341V47.9524V47.9471ZM279.839 47.2576C279.908 45.3005 277.5 45.4118 277.41 47.2576H279.839Z" fill="white"></path>
<path d="M223.697 47.9473H220.371C220.361 49.4801 222.159 50.1272 223.076 48.8861C223.718 49.2043 223.713 49.3581 223.172 49.7824C222.567 50.2545 221.687 50.3499 220.965 50.106C218.473 49.252 219.327 44.4202 222.286 45.2211C223.082 45.4332 223.692 46.319 223.692 47.1358V47.9526L223.697 47.9473ZM222.854 47.2578C222.88 45.3006 220.446 45.4067 220.424 47.2578H222.854Z" fill="white"></path>
<path d="M318.165 45.1412C321.454 44.8601 321.459 50.5194 318.149 50.2277C315.45 49.9943 315.45 45.3693 318.165 45.1412ZM318.266 45.8308C316.51 45.974 316.537 49.6284 318.452 49.5382C320.366 49.448 320.234 45.6716 318.266 45.8308Z" fill="white"></path>
<path d="M293.428 45.2263V48.7693C293.428 48.7958 293.523 49.0504 293.55 49.0928C293.847 49.6603 294.791 49.5702 295.242 49.236C295.305 49.1883 295.565 48.9178 295.565 48.8647V45.2209H296.456V50.1271H295.613C295.613 50.1271 295.629 49.7346 295.613 49.6815C294.908 50.4029 293.401 50.4824 292.828 49.5649C292.669 49.3103 292.542 48.7587 292.542 48.4669V45.2952C292.542 45.2952 292.611 45.2209 292.616 45.2209H293.433L293.428 45.2263Z" fill="white"></path>
<path d="M314.999 50.1323H314.155V46.5415C314.155 46.5415 314.028 46.2445 313.996 46.202C313.71 45.7724 312.967 45.7989 312.548 46.027C312.432 46.0907 312.018 46.4832 312.018 46.5892V50.1323H311.127V45.2261H311.97V45.8202C312.708 44.9503 314.357 44.7912 314.856 45.9846C314.882 46.0482 314.994 46.3559 314.994 46.3877V50.1269L314.999 50.1323Z" fill="white"></path>
<path d="M275.522 46.6638H274.678C274.678 46.6638 274.636 46.4039 274.572 46.2979C274.159 45.5924 272.546 45.6985 272.7 46.6851C272.78 47.1995 274.127 47.3427 274.583 47.5337C275.039 47.7246 275.49 48.0216 275.564 48.5361C275.856 50.5304 272.446 50.8062 271.783 49.1938C271.745 49.1036 271.57 48.5998 271.735 48.5998H272.504C272.552 49.4961 273.676 49.7507 274.366 49.3954C274.869 49.1302 274.843 48.5361 274.366 48.255C273.687 47.8572 272.048 47.9262 271.873 46.8813C271.496 44.6855 275.506 44.5264 275.532 46.6691L275.522 46.6638Z" fill="white"></path>
<path d="M242.738 46.9075H241.943C241.863 45.7831 240.394 45.4596 239.768 46.3453C239.317 46.9871 239.323 48.6101 239.88 49.1882C240.505 49.8353 241.826 49.5383 241.938 48.5942H242.733C242.579 50.2437 240.341 50.7582 239.243 49.6285C238.463 48.8276 238.405 47.0614 238.957 46.1332C239.917 44.5102 242.654 44.9133 242.733 46.9075H242.738Z" fill="white"></path>
<path d="M230.789 44.3565C230.937 43.2745 232.003 42.9138 232.969 43.1472C232.979 43.3752 232.979 43.6086 232.916 43.8314C232.544 43.7996 232.067 43.7412 231.807 44.086C231.775 44.1337 231.632 44.4254 231.632 44.4572V45.2263H232.672V45.8681H231.632V50.1271H230.789V45.8681H229.993V45.2263H230.789C230.815 44.9558 230.752 44.6217 230.789 44.3618V44.3565Z" fill="white"></path>
<path d="M247.056 43.1948H246.165V50.1324H247.056V43.1948Z" fill="white"></path>
<path d="M227.118 45.1736V45.9638H226.397C226.333 45.9638 225.941 46.176 225.877 46.2343C225.814 46.2927 225.58 46.6268 225.58 46.6799V50.1221H224.737V45.216H225.58L225.607 45.7623C225.925 45.2372 226.53 45.0197 227.118 45.1683V45.1736Z" fill="white"></path>
<path d="M263.668 45.1731V45.9634H262.946C262.867 45.9634 262.533 46.1438 262.453 46.2127C262.384 46.2657 262.129 46.5787 262.129 46.6317V50.127H261.286V45.2209H262.129C262.129 45.2209 262.092 45.6558 262.156 45.7141C262.538 45.2262 263.058 45.0405 263.668 45.1678V45.1731Z" fill="white"></path>
<path d="M284.151 45.9687H283.43C283.202 45.9687 282.613 46.4196 282.613 46.637V50.1323H281.77V45.2262H282.565C282.565 45.2262 282.597 45.6717 282.639 45.7195C282.846 45.3747 283.329 45.1201 283.732 45.1201C284.363 45.1201 284.109 45.502 284.151 45.9687Z" fill="white"></path>
<path d="M244.674 45.2261H243.831V50.1322H244.674V45.2261Z" fill="white"></path>
<path d="M237.084 43.1948C236.761 43.6244 236.368 44.0222 235.992 44.4094C235.949 44.4519 235.949 44.5314 235.944 44.5314H235.249C235.313 44.3617 236.039 43.1948 236.119 43.1948H237.084Z" fill="white"></path>
<path d="M322.079 49.1991C322.509 49.1036 322.917 49.3211 322.827 49.7931C322.758 50.1538 322.408 50.2386 322.079 50.1644C321.655 50.0689 321.66 49.2892 322.079 49.1938V49.1991Z" fill="white"></path>
<path d="M244.112 43.4495C244.998 43.248 245.003 44.6164 244.122 44.4095C243.635 44.2982 243.677 43.5503 244.112 43.4495Z" fill="white"></path>
</svg>