<svg width="172" height="50" viewBox="0 0 172 50" fill="none" xmlns="http://www.w3.org/2000/svg">
<mask id="mask0_9589_944" style="mask-type:luminance" maskUnits="userSpaceOnUse" x="0" y="8" width="31" height="20">
<path d="M24.6337 17.442C20.8222 13.4579 14.4483 13.0282 10.3349 16.7902C8.02497 18.7391 6.59206 21.7583 6.67832 24.7935C6.74381 28.8622 0.334826 28.8718 0.398724 24.7935C0.109585 10.3461 19.3893 2.27893 28.9884 13.4979C32.2296 16.4132 27.244 20.926 24.6337 17.442Z" fill="white"></path>
</mask>
<g mask="url(#mask0_9589_944)">
<mask id="mask1_9589_944" style="mask-type:luminance" maskUnits="userSpaceOnUse" x="-1" y="7" width="32" height="22">
<path d="M30.8445 7.42896H-0.40332V28.6464H30.8445V7.42896Z" fill="white"></path>
</mask>
<g mask="url(#mask1_9589_944)">
<rect x="-0.432129" y="7.37476" width="31.2846" height="21.3164" fill="white"></rect>
</g>
</g>
<mask id="mask2_9589_944" style="mask-type:luminance" maskUnits="userSpaceOnUse" x="0" y="21" width="30" height="21">
<path d="M24.6337 32.0219C20.8222 36.0059 14.4483 36.4356 10.3349 32.6736C8.02497 30.7247 6.59206 27.7055 6.67832 24.6704C6.74381 20.6017 0.334825 20.5921 0.398724 24.6704C0.109584 39.1178 19.3909 47.1849 28.9884 35.966C32.0619 32.7519 27.244 28.5378 24.6337 32.0219Z" fill="white"></path>
</mask>
<g mask="url(#mask2_9589_944)">
<mask id="mask3_9589_944" style="mask-type:luminance" maskUnits="userSpaceOnUse" x="-1" y="20" width="32" height="23">
<path d="M30.7758 20.8174H-0.40332V42.0348H30.7758V20.8174Z" fill="white"></path>
</mask>
<g mask="url(#mask3_9589_944)">
<rect x="-0.432617" y="20.7932" width="31.2079" height="21.3164" fill="white"></rect>
</g>
</g>
<path d="M30.7043 22.8557H23.5141C22.4422 22.8557 21.5732 23.7247 21.5732 24.7966C21.5732 25.8686 22.4422 26.7375 23.5141 26.7375H30.7043C31.7762 26.7375 32.6452 25.8686 32.6452 24.7966C32.6452 23.7247 31.7762 22.8557 30.7043 22.8557Z" fill="white"></path>
<g opacity="0.6" style="mix-blend-mode:color-dodge">
<path d="M6.70239 24.819C6.70239 22.8781 5.5075 21.6177 3.55541 21.6177C1.60332 21.6177 0.394043 22.8733 0.394043 24.6672C0.394043 26.4612 1.75188 27.9851 3.53464 27.9851C5.3174 27.9851 6.70239 26.6017 6.70239 24.8174V24.819Z" fill="white"></path>
</g>
<g opacity="0.6" style="mix-blend-mode:color-dodge">
<path d="M26.985 36.7425C28.6428 36.7425 29.9866 35.3986 29.9866 33.7409C29.9866 32.0831 28.6428 30.7393 26.985 30.7393C25.3273 30.7393 23.9834 32.0831 23.9834 33.7409C23.9834 35.3986 25.3273 36.7425 26.985 36.7425Z" fill="#F1EFE7"></path>
</g>
<g opacity="0.6" style="mix-blend-mode:color-dodge">
<path d="M27.1097 18.8541C28.801 18.8541 30.172 17.4831 30.172 15.7918C30.172 14.1005 28.801 12.7295 27.1097 12.7295C25.4184 12.7295 24.0474 14.1005 24.0474 15.7918C24.0474 17.4831 25.4184 18.8541 27.1097 18.8541Z" fill="#F1EFE7"></path>
</g>
<path d="M54.4535 15.5536C60.4264 15.5536 63.1021 19.5808 63.4264 23.1751H58.912C58.642 21.5265 57.3721 19.445 54.5062 19.445C51.2905 19.445 49.3704 22.1479 49.3704 25.4994C49.3704 28.8508 51.2889 31.5537 54.5062 31.5537C57.3705 31.5537 58.642 29.4722 58.912 27.8237H63.4264C63.1021 31.4179 60.4264 35.4451 54.4535 35.4451C48.1563 35.4451 44.832 30.985 44.832 25.4978C44.832 20.0105 48.1563 15.552 54.4535 15.552V15.5536Z" fill="white"></path>
<path d="M114.011 28.744H103.66C103.957 30.5555 105.174 31.7711 106.984 31.7711C108.336 31.7711 109.173 31.0954 109.524 30.0411H113.821C113.254 32.744 111.037 35.2312 107.01 35.2312C102.037 35.2312 99.3882 31.8798 99.3882 27.6625C99.3882 23.2296 102.145 20.0938 106.93 20.0938C110.551 20.0938 114.093 22.3094 114.093 27.2296C114.093 27.6353 114.066 28.3382 114.011 28.744ZM103.767 26.1481H109.848C109.685 24.4181 108.605 23.4452 107.01 23.4452C104.955 23.4452 104.091 24.6066 103.767 26.1481Z" fill="white"></path>
<path d="M122.654 20.0936C126.978 20.0936 129.465 23.0665 129.681 26.1751L125.411 26.2023C125.168 24.878 124.248 23.7694 122.681 23.7694C120.599 23.7694 119.302 25.5537 119.302 27.6624C119.302 29.771 120.599 31.5538 122.681 31.5538C124.248 31.5538 125.168 30.418 125.411 29.0937L129.681 29.1209C129.465 32.2295 127.005 35.2295 122.654 35.2295C117.842 35.2295 114.978 31.8238 114.978 27.6608C114.978 23.4978 117.762 20.092 122.654 20.092V20.0936Z" fill="white"></path>
<path d="M141.321 24.4195H137.43V30.3652C137.43 31.7167 137.484 31.771 138.727 31.771H141.321V35.2311H137.321C134.457 35.2311 133.104 34.2854 133.104 30.8524V24.4195H130.51V20.9594H133.104V17.0664H137.428V20.9594H141.32V24.4195H141.321Z" fill="white"></path>
<path d="M148.256 26.3925C150.796 26.2296 152.607 26.3925 152.58 25.1769C152.553 24.3653 152.12 23.3382 150.147 23.3382C148.174 23.3382 147.553 24.2024 147.336 25.2839H143.066C143.553 21.4724 147.066 20.0938 150.256 20.0938C153.634 20.0938 156.904 21.1752 156.904 26.9053V34.7967H152.58V34.0667C152.58 33.6338 152.689 33.2552 152.877 32.8766C153.093 32.4165 153.337 31.9852 153.04 31.8494C152.689 31.6865 152.58 32.0124 152.473 32.2009C151.582 33.9581 149.986 35.228 147.607 35.228C144.716 35.228 142.634 33.3622 142.634 30.9836C142.634 27.7679 145.174 26.5778 148.256 26.3893V26.3925ZM148.85 28.9053C147.85 29.0139 146.959 29.4724 146.959 30.6897C146.959 31.9069 148.094 32.3926 149.256 32.2041C150.553 31.9884 152.553 30.8255 152.58 27.8797C151.877 28.6098 150.877 28.6641 148.85 28.9069V28.9053Z" fill="white"></path>
<path d="M162.267 30.0409C162.294 31.1495 162.943 32.2038 164.997 32.2038C166.863 32.2038 167.511 31.6367 167.511 30.9067C167.511 30.0425 166.214 29.7981 163.808 29.5281C158.836 28.961 158.43 26.4466 158.43 24.9594C158.43 22.5536 160.7 20.3108 164.971 20.3108C168.404 20.3108 171.189 21.8779 171.404 25.2837H167.134C167.08 24.2293 166.459 23.5536 164.892 23.5536C163.324 23.5536 162.756 24.0664 162.756 24.7693C162.756 25.2565 163.053 25.715 165.404 25.9322C169.35 26.3108 171.837 27.5537 171.837 30.6351C171.837 33.3652 169.243 35.4467 164.892 35.4467C160.54 35.4467 158.189 33.3923 157.999 30.0409H162.269H162.267Z" fill="white"></path>
<path d="M98.6087 24.1558C98.5129 23.0839 98.1071 21.9961 97.2892 21.2964C97.2764 21.2868 97.2637 21.2772 97.2509 21.2676C97.2093 21.2213 97.171 21.1734 97.1279 21.1303C96.0911 20.0679 94.6949 19.5504 92.8595 19.5504C91.4266 19.5504 89.8531 20.1382 88.3738 21.151C88.4569 21.3795 88.6422 21.6271 88.8419 21.9961C88.9936 22.2213 88.9153 22.552 88.6486 22.6414C88.3115 22.7533 88.1518 22.389 87.9856 22.1143C87.6518 21.5632 87.4936 21.0136 86.9952 20.5903C86.3387 20.0312 85.4808 19.7005 84.6182 19.6909C83.3083 19.6782 82.2476 20.4737 81.5143 21.4993C80.7428 22.5791 80.2651 23.782 79.3035 24.7245C78.5878 21.2069 75.7587 19.2948 73.0654 18.9481C70.0686 18.5599 66.4551 19.9913 65.1404 24.0504C64.2714 26.7325 64.4152 29.5105 65.5334 31.6703C66.5142 33.5616 68.1436 34.8172 70.2459 35.2981C70.6612 35.3923 71.0734 35.4562 71.4823 35.4866C73.2204 35.6176 74.8721 35.1703 76.23 34.1847C77.8306 33.0217 78.96 30.8268 79.3977 28.5728C79.7715 28.4115 80.1102 28.2373 80.444 28.0137C82.0048 26.9674 82.4137 26.1606 83.3434 24.6063C83.476 24.3843 83.8195 23.929 84.4505 24.1223C84.9345 24.2149 84.9569 24.9785 84.7907 25.5201C83.8179 28.7086 82.8275 31.7022 81.8386 34.9227C81.8386 34.9227 85.5879 34.9115 85.591 34.9115C85.5655 34.9083 86.4664 32.2166 86.524 32.0137C87.4377 28.7884 88.4681 24.9961 92.0128 23.79C92.6278 23.5807 93.3483 23.5264 93.8882 23.8859C94.3339 24.183 94.5751 24.7165 94.6422 25.2485C94.7093 25.7804 94.6215 26.3172 94.5384 26.8459C94.1119 29.6 93.3387 32.5824 92.9266 34.9227L96.7381 34.9275C97.1582 32.4674 97.9234 29.822 98.3419 27.3603C98.5224 26.2996 98.7046 25.2229 98.6087 24.151V24.1558ZM73.3657 22.0312C75.0271 22.5456 76.1006 24.1462 76.1996 26.1159C75.5558 26.2102 75.0255 26.1463 74.6421 26.1015C73.5159 25.9657 72.6021 25.5552 71.7443 24.8044C71.1085 24.2485 70.3849 23.4993 70.0925 22.6478C71.0702 21.9465 72.2427 21.6846 73.3657 22.0328V22.0312ZM75.468 29.6559C75.2843 30.1319 75.0303 30.56 74.722 30.9242C73.5862 32.2693 71.5606 32.5904 70.0255 31.7597C68.1149 30.7246 67.6053 28.0792 67.9551 26.1015C68.0302 25.675 68.1612 25.2581 68.2938 24.8475C68.3928 24.5408 68.8833 23.7964 68.8609 23.5121L68.8641 23.5536C68.8673 23.5887 68.8689 23.6239 68.8721 23.659C68.9424 24.5728 69.3178 25.3667 69.8465 26.1175C70.2315 26.6638 70.6916 27.1574 71.2108 27.5792C72.3002 28.4642 73.6405 29.0105 75.0399 29.1287C75.099 29.1335 75.6325 29.1926 75.6453 29.1543L75.4664 29.6543L75.468 29.6559Z" fill="white"></path>
</svg>