<svg width="102" height="40" viewBox="0 0 102 40" fill="none" xmlns="http://www.w3.org/2000/svg">
<path d="M54.3415 0C56.2794 0.241775 58.8813 1.98596 59.9645 3.61516C61.3656 5.63188 61.9401 8.72134 61.353 11.1445C59.0609 20.6014 48.5892 25.9895 39.9172 28.2586C36.1517 29.2442 32.3913 29.6627 28.5937 30.0338C21.8477 30.6941 15.0708 30.8397 8.31449 30.3599C6.58628 30.2357 4.8021 29.9835 3.0957 29.7174C2.17592 29.5739 1.18931 29.2922 0.262207 29.1089C2.00417 28.9551 3.77711 29.1392 5.51752 29.1577C7.9488 29.1836 10.3789 29.1436 12.811 29.1932C12.8391 27.1828 12.7924 25.1562 12.8064 23.1442C12.8265 20.2595 12.4799 17.8334 14.5788 15.5387C15.7958 14.3653 17.2398 13.965 18.896 13.9548C20.4473 13.9451 22.0013 13.9598 23.5523 13.9606L35.2441 13.9574C35.252 15.3667 35.252 16.776 35.2439 18.1852L27.8465 18.1795C26.5324 18.1792 25.2128 18.1359 23.905 18.2397C22.2081 18.3744 22.5148 19.7887 22.4721 21.0403C22.4548 21.5509 22.473 22.0805 22.473 22.5914L22.4756 28.5514C23.8303 28.4412 25.1263 28.2091 26.4626 28.0213C30.7896 27.412 34.7981 26.419 38.9422 25.0054C39.0557 21.509 38.9406 17.5214 38.958 13.9632C42.0722 13.8879 45.6185 13.9381 48.7521 13.9685C48.8013 15.9373 48.7631 18.0857 48.7692 20.0666C54.0968 16.4494 59.3456 9.9941 56.902 3.17598C56.4066 1.7949 55.4099 0.9427 54.3415 0Z" fill="#FEFEFE"></path>
<path d="M83.5563 14.0027C84.8613 13.8671 87.9408 13.9587 89.3633 13.9586L100.89 13.9588L100.887 18.1826L93.5312 18.1814C92.3319 18.1809 90.9973 18.131 89.8032 18.2291C88.6372 18.3249 88.2121 18.7209 88.2047 19.8988C88.1966 21.3039 88.2114 22.7378 88.235 24.1603C92.4251 24.1559 96.6971 24.1108 100.881 24.1699C100.9 25.5023 100.914 27.0609 100.858 28.3792L88.2306 28.3777C88.1847 29.35 88.2151 30.5359 88.2158 31.5237C88.204 34.2661 87.6783 35.2953 91.1437 35.2117C91.9164 35.1932 92.8398 35.2117 93.6273 35.2117L100.893 35.2088L100.888 39.4062L89.438 39.4136C87.5082 39.4143 85.4846 39.4772 83.591 39.3389C81.1674 39.1614 79.1186 37.3041 78.7289 34.9101C78.2446 31.8816 78.3659 28.6424 78.4051 25.5622C78.4664 20.7154 77.5045 15.1484 83.5563 14.0027Z" fill="#FEFEFE"></path>
<path d="M61.7028 13.9651C66.057 13.8683 70.7609 13.9567 75.1439 13.9604C75.1587 15.3679 75.1564 16.7756 75.1372 18.1832L67.518 18.1806C66.4703 18.1803 63.3612 18.001 62.7232 18.6535C62.1294 19.2612 62.3387 23.243 62.3623 24.1371C63.6318 24.197 65.0581 24.1423 66.3417 24.1519C69.2614 24.1741 72.2115 24.1098 75.1291 24.1719C75.1675 25.4088 75.1919 27.1597 75.1091 28.3789L62.3579 28.3856C62.2847 29.9922 62.3542 31.7068 62.3468 33.3223C62.3439 33.922 62.4932 34.5438 62.976 34.9349C64.2418 35.3578 67.5838 35.2129 69.0692 35.2107L75.1505 35.21L75.1513 39.4089L63.6422 39.4133C61.7842 39.414 58.9657 39.5774 57.2008 39.2395C52.3553 38.3101 52.6604 33.3992 52.662 29.5626L52.6675 24.2288C55.8426 22.1379 58.5819 19.7169 60.5664 16.4323C60.979 15.7495 61.5054 14.737 61.7028 13.9651Z" fill="#FEFEFE"></path>
<path d="M12.8197 31.4083C14.0845 31.3721 15.4883 31.4105 16.7636 31.412C18.6675 31.3972 20.5714 31.3965 22.4752 31.4098C22.4806 32.3532 22.4392 33.4157 22.5569 34.3385C22.966 34.9595 23.3354 35.1067 24.0798 35.1599C25.3622 35.2516 26.6763 35.2124 27.9639 35.2117L35.2455 35.2072L35.2467 39.4054L23.6807 39.4128C22.9805 39.4142 22.2793 39.4209 21.5792 39.4157C19.1112 39.3906 16.4176 39.7403 14.5217 37.7884C12.794 36.0087 12.8074 33.7063 12.8197 31.4083Z" fill="#FEFEFE"></path>
<path d="M48.6262 26.3997C48.6396 26.4078 48.6569 26.4122 48.6663 26.4248C48.89 26.7265 48.7597 37.8392 48.7563 39.4082L39.0896 39.4104L38.9822 39.3202C38.892 38.5963 38.9436 36.9372 38.944 36.1047L38.9506 29.5782C39.803 29.3054 41.0893 29.0555 42.0201 28.7997C44.403 28.1438 46.3927 27.4392 48.6262 26.3997Z" fill="#FEFEFE"></path>
<path d="M43.7086 2.17072C46.5808 2.01124 49.0341 4.21952 49.1768 7.09257C49.3194 9.96563 47.0968 12.406 44.223 12.5318C41.3729 12.6565 38.957 10.4562 38.8156 7.60688C38.6741 4.75764 40.8602 2.32887 43.7086 2.17072Z" fill="#FEFEFE"></path>
</svg>