<svg width="73" height="51" viewBox="0 0 73 51" fill="none" xmlns="http://www.w3.org/2000/svg">
<path d="M51.7866 15.2526C52.6853 15.2011 53.8036 15.2254 54.7203 15.224C54.7963 16.1692 55.2685 18.3318 55.4373 19.3559C55.9707 22.5992 56.6162 25.8604 57.0704 29.1166C57.8737 25.1245 59.0616 21.2499 60.0633 17.3089C60.2005 16.7683 60.2869 16.2271 60.6206 15.7628C61.6622 15.1091 65.3239 15.2255 66.6368 15.2244L62.51 29.2147C61.6577 32.1075 60.7964 34.9978 59.9493 37.8919C59.5557 39.2366 59.3051 40.6904 58.9939 42.066C57.951 46.1666 56.5479 50.7945 51.5257 50.7931C49.5867 50.7925 46.8488 50.8124 45.9927 48.6478C45.456 47.2906 45.9701 44.8869 46.5248 43.5872C48.1333 44.5516 51.0651 45.4736 52.4315 43.7499C53.3714 42.65 53.5337 41.2717 53.8178 39.9288C54.1115 38.5385 54.0297 37.9974 53.64 36.6419C53.4087 35.8362 53.1929 34.9133 52.9816 34.0852L49.9429 22.179L49.0861 18.848C48.1398 15.16 48.105 15.3475 51.7866 15.2526Z" fill="white"></path>
<path d="M8.66057 15.0511C10.259 14.9666 12.4532 15.2093 13.9121 15.8755C17.4096 17.4727 17.2764 21.9329 17.2653 25.1669C17.2591 26.9965 17.2685 28.7758 17.2692 30.5797L17.2692 35.5592C17.269 36.4238 17.3677 38.4628 17.0422 39.1652C16.7673 39.4054 16.3494 39.5242 15.9936 39.5499C14.249 39.6756 12.4401 39.6638 10.694 39.6826L10.6966 29.8314C10.6966 27.9878 10.7542 26.0676 10.6378 24.2338C10.5536 22.9088 10.5158 21.627 8.9741 21.4301C7.93932 21.4431 7.46538 21.6297 6.63945 22.215L6.64364 32.8912C6.64377 34.0213 6.79181 38.3627 6.39678 39.2156C5.80147 39.79 1.42522 39.6703 0.293612 39.6795C0.381159 32.2648 0.299797 24.6661 0.292969 17.2348C2.46264 16.0039 6.17968 15.1977 8.66057 15.0511Z" fill="white"></path>
<path d="M33.2346 4.16461C34.2297 4.10979 35.3379 4.11951 36.3435 4.11011L36.3455 23.2355C38.3258 21.9748 39.6161 20.2165 39.8487 17.8503C39.926 17.0765 39.8841 16.3128 40.0625 15.552C40.402 14.1062 41.9185 13.508 43.1077 12.8269L46.6282 10.8106C46.9188 11.6649 47.0708 12.7275 47.0824 13.6272C47.141 18.039 45.5666 22.7642 41.9552 25.5112C41.1525 26.114 40.2654 26.5956 39.323 26.9406C38.0204 27.4182 37.3363 27.2283 36.3423 28.2284L36.3442 35.0379C36.3448 35.9005 36.4878 38.8611 36.0672 39.4841C35.1756 39.9639 31.1493 39.8489 29.9435 39.854L29.9409 17.6604L29.9413 10.5953C29.9415 9.31738 29.9185 8.03967 29.9716 6.76287C30.0681 4.44677 31.2017 4.29751 33.2346 4.16461Z" fill="white"></path>
<path d="M25.0771 15.2453C25.5277 15.2049 26.3596 15.2264 26.8386 15.2245L26.8378 31.017L26.8376 35.8025C26.8376 36.3598 26.92 39.147 26.6187 39.4046C25.9746 39.9553 23.0081 39.8386 22.1767 39.8418L20.3788 39.8544L20.3802 24.8619L20.3774 20.2601C20.3751 15.6449 20.3274 15.4386 25.0771 15.2453Z" fill="white"></path>
<path d="M44.2311 24.2109C44.284 24.2493 44.3349 24.2901 44.3838 24.3333C46.6211 26.3246 47.7034 31.4217 47.8206 34.3033C47.858 35.2299 48.0242 38.7714 47.3942 39.4106C46.835 39.978 43.7506 39.8373 42.8004 39.84L40.4516 39.8404C40.6384 36.7417 41.3026 30.0841 39.3423 27.6416C41.5493 26.7379 42.6258 25.9589 44.2311 24.2109Z" fill="white"></path>
<path d="M67.8696 29.6662C69.9581 29.478 71.4468 30.7479 72.3204 32.5104C72.294 32.6072 72.2643 32.703 72.2315 32.7978C71.7238 34.2997 70.9656 35.1259 69.5619 35.8246C70.0824 33.6655 68.1292 32.2465 66.9896 34.2318C66.1122 35.7594 67.8238 37.3239 69.5993 36.4862C71.2149 35.7237 71.8147 35.1389 72.5916 33.5058L72.6006 33.5067C72.7378 33.6239 72.7327 33.8391 72.7687 34.024C73.2764 36.5967 71.7329 39.9129 68.9402 40.3459C67.8367 40.5273 66.7062 40.2516 65.8101 39.5823C62.3153 37.01 63.1914 30.3559 67.8696 29.6662Z" fill="white"></path>
</svg>