<svg width="161" height="44" viewBox="0 0 161 44" fill="none" xmlns="http://www.w3.org/2000/svg">
<g clip-path="url(#clip0_9589_546)">
<path d="M121.658 34.6193H117.251V22.5341C117.251 22.0308 116.667 20.905 116.294 20.5404C114.969 19.242 112.294 19.6333 111.459 21.3549C111.364 21.5524 111.058 22.4754 111.058 22.6408V34.6211H106.44V22.5359C106.44 22.4843 106.193 21.684 106.145 21.5666C105.262 19.3808 102.033 19.1958 100.79 21.0757C100.656 21.2802 100.247 22.2389 100.247 22.431V34.4628L100.09 34.6211H95.7339V16.0442H99.9322L100.304 17.2038C101.671 16.5831 103.061 15.7205 104.604 15.6245C106.629 15.4964 108.223 16.688 109.765 17.821C110.626 17.2785 111.358 16.5938 112.319 16.2043C114.904 15.1567 118.681 15.6191 120.501 17.8939C121.488 19.1282 121.592 20.5706 121.663 22.1091C121.852 26.2264 121.513 30.4896 121.66 34.6211L121.658 34.6193Z" fill="white"></path>
<path d="M48.6134 9.18262V17.3106C49.1651 17.2714 49.5896 16.7752 50.0812 16.5173C52.3643 15.315 54.9162 15.1603 57.0436 16.8019C59.3019 18.5431 59.3373 21.1665 59.4275 23.7987C59.5513 27.4109 59.2542 31.0143 59.3179 34.6212H54.9109V22.7476C54.9109 20.2025 51.7542 18.8846 49.823 20.375C49.3862 20.7111 48.7177 21.7907 48.7177 22.3243V34.6212H44.2046V9.18262H48.6116H48.6134Z" fill="white"></path>
<path d="M141.914 26.9146H130.473C130.327 29.5557 132.348 31.3521 134.932 31.1351C136.5 31.0035 137.864 29.9897 139.181 29.2374L140.191 30.8096L141.489 31.9248C137.673 36.4565 128.095 36.2075 126.471 29.7247C124.737 22.8062 127.2 14.0237 135.931 15.8841C141.089 16.9832 142.536 22.2139 141.912 26.9146H141.914ZM137.505 23.6421C137.392 22.1214 136.918 20.3304 135.372 19.7186C132.719 18.671 130.279 20.6648 130.595 23.4678L130.737 23.6421H137.507H137.505Z" fill="white"></path>
<path d="M70.2116 15.8627C75.1421 15.3825 78.465 17.6892 79.1406 22.6532C79.8303 27.7202 78.923 34.3471 72.6857 34.9216C67.0814 35.4391 63.9813 32.5063 63.7213 26.9715C63.4844 21.9293 64.1299 16.4532 70.2116 15.8627ZM70.7333 19.9765C70.0188 20.0814 69.1116 20.6274 68.7827 21.2872C68.3441 22.1694 68.3105 25.0435 68.3388 26.1267C68.3582 26.8576 68.4201 28.1702 68.5634 28.8567C69.0214 31.0568 72.286 31.4694 73.6424 30.0804C75.1279 28.5579 75.0872 22.5856 73.798 20.9547C73.0464 20.0049 71.8899 19.8075 70.7315 19.9765H70.7333Z" fill="white"></path>
<path d="M151.861 15.6528C154.489 15.4163 157.501 16.0565 159.538 17.7959L157.275 20.2397C155.713 20.0707 154.132 19.6207 152.563 19.5282C151.32 19.4553 149.971 19.6314 149.882 21.1592C149.808 22.47 150.6 22.8186 151.737 22.9964C154.933 23.4997 159.038 23.0782 160 27.1422C161.116 31.8625 157.895 34.6068 153.508 34.934C150.563 35.1546 146.644 34.7437 144.655 32.3284L147.437 29.4579C148.054 29.81 148.598 30.2707 149.26 30.5535C150.991 31.2898 154.625 31.7291 155.503 29.5521C156.121 28.0137 154.585 27.4677 153.387 27.2471C150.37 26.6887 146.588 27.16 145.677 23.2863C144.635 18.8542 147.689 16.0263 151.861 15.651V15.6528Z" fill="white"></path>
<path d="M88.3894 9.18269L88.3841 28.4497C88.5203 29.0153 88.3859 29.7569 88.7042 30.2389C89.263 31.089 90.9678 30.7013 91.8538 30.9236V34.6177C90.1543 34.7333 88.354 34.8862 86.7447 34.2139C84.9586 33.4687 83.9965 31.8342 83.8728 29.9259C83.4483 23.3701 84.2052 16.3591 83.8728 9.75716L83.9824 9.18091H88.3894V9.18269Z" fill="white"></path>
<path d="M20.4877 0V14.1964C20.4877 14.2746 20.3656 14.9789 20.3338 15.0981C20.0491 16.1688 17.9216 17.2946 16.9896 17.8566C16.047 18.424 15.0426 18.8917 14.1371 19.5249L13.9797 19.2634C14.0505 14.8846 13.5305 9.98476 13.8701 5.64333C13.9426 4.71137 14.2768 3.79897 15.0373 3.22806L20.4877 0Z" fill="white"></path>
<path d="M27.8336 12.2436C27.9184 12.1547 29.5773 13.156 29.793 13.2805C30.8063 13.8674 32.6738 14.8545 33.4926 15.5766C33.8021 15.8487 34.0338 16.1991 34.1629 16.5904L34.1806 31.347L33.9737 31.5319L28.426 28.1652C28.2032 27.9588 27.9803 27.612 27.9043 27.3186C27.7911 26.8811 27.7451 25.8904 27.7221 25.3906C27.5577 21.7731 27.4516 16.5939 27.7221 13.0333C27.7434 12.7665 27.8336 12.514 27.8318 12.2454L27.8336 12.2436Z" fill="white"></path>
<path d="M20.3814 24.382C20.3531 24.6879 20.4698 24.9743 20.491 25.2748C20.7899 29.4758 20.2541 34.0271 20.491 38.2653C20.4574 39.0283 20.1886 39.738 19.6881 40.3071L13.9813 43.6952C13.9636 39.8429 13.999 35.987 13.9849 32.1329C13.9813 31.032 13.7762 29.8617 14.0521 28.727C14.1016 28.5278 14.2377 28.2521 14.3545 28.0814C14.8779 27.313 18.1549 25.5683 19.1576 24.9956C19.3132 24.9067 20.3159 24.3037 20.3814 24.3802V24.382Z" fill="white"></path>
<path d="M6.63356 31.5584C5.69981 31.0995 4.76783 30.5891 3.87299 30.0591C2.88619 29.4757 1.19023 28.59 0.631398 27.6207C0.00889964 26.5411 0.28478 25.6092 0.235263 24.43C0.0920174 21.0116 -0.150262 16.6151 0.122081 13.243C0.150377 12.8944 0.258253 12.5796 0.336065 12.2434L6.13131 15.829C6.26041 15.9499 6.63179 16.6008 6.63179 16.7289V31.5584H6.63356Z" fill="white"></path>
</g>
<defs>
<clipPath id="clip0_9589_546">
<rect width="160.223" height="43.6971" fill="white"></rect>
</clipPath>
</defs>
</svg>