<svg width="171" height="59" viewBox="0 0 171 59" fill="none" xmlns="http://www.w3.org/2000/svg">
<path d="M16.0272 0C7.17579 0 0 7.17579 0 16.0272C0 22.8204 4.22898 28.6194 10.1918 30.9543L8.27587 37.3469H10.5888L12.2607 31.6026C13.4701 31.894 14.7304 32.0543 16.0308 32.0543C16.548 32.0543 17.058 32.0288 17.5607 31.9814L16.9524 29.8834C16.6464 29.9015 16.344 29.9161 16.0345 29.9161C14.9417 29.9161 13.8817 29.785 12.8618 29.5482L16.0162 18.7117L19.1707 29.5592L19.768 31.6135L21.4363 37.3469H23.7493L21.837 30.9652C27.818 28.6413 32.0616 22.8314 32.0616 16.0272C32.0543 7.17579 24.8785 0 16.0272 0ZM21.2141 28.9108L17.353 16.0272H14.6685L10.8074 28.8998C5.72242 26.8346 2.13453 21.8516 2.13453 16.0272C2.13817 8.35601 8.35601 2.13817 16.0272 2.13817C23.6983 2.13817 29.9161 8.35601 29.9161 16.0272C29.9161 21.8661 26.3137 26.8564 21.2105 28.9108H21.2141Z" fill="white"></path>
<path d="M52.6821 16.0271H50.1833L45.0946 24.5251L39.9951 16.0271H37.4963L43.8124 26.6561L37.3979 37.3469H39.8821L45.0874 28.6776L50.2925 37.3469H52.7804L46.3622 26.6561L52.6821 16.0271Z" fill="white"></path>
<path d="M66.5781 37.3469H78.7591V35.318H68.7052V26.7143H75.3566V24.7911H68.7052V18.0596H78.7591V16.0271H66.5781V37.3469Z" fill="white"></path>
<path d="M105.812 33.3255L95.3796 16.0271H93.1284V37.3469H95.2707V20.1978L105.703 37.3469H107.95V16.0271H105.812V33.3255Z" fill="white"></path>
<path d="M128.206 25.4758L122.258 16.0271H119.821L127.157 27.5557V37.3505H129.284V27.5557L136.617 16.0271H134.187L128.206 25.4758Z" fill="white"></path>
<path d="M159.674 27.4246L156.258 16.0271H153.573L150.149 27.4428C143.633 29.479 138.905 35.5547 138.905 42.7378C138.905 51.5892 146.08 58.765 154.931 58.765C163.783 58.765 170.959 51.5892 170.959 42.7378C170.959 35.5366 166.209 29.4462 159.671 27.4246H159.674ZM154.931 56.6305C147.26 56.6305 141.043 50.4126 141.043 42.7415C141.043 37.0445 144.474 32.1563 149.381 30.0145L147.18 37.3505H149.494L154.913 18.7153L157.292 26.8928C156.52 26.7799 155.733 26.718 154.931 26.718C154.921 26.718 154.91 26.718 154.899 26.718L154.272 28.8707C154.491 28.8598 154.71 28.8525 154.931 28.8525C155.973 28.8525 156.986 28.969 157.959 29.1876L160.333 37.3505H162.647L160.44 29.9889C165.371 32.1235 168.821 37.0263 168.821 42.7415C168.821 50.4126 162.603 56.6305 154.931 56.6305Z" fill="white"></path>
</svg>