<svg width="58" height="60" viewBox="0 0 58 60" fill="none" xmlns="http://www.w3.org/2000/svg">
<path d="M48.1771 0C48.3846 0.102051 48.6129 0.209212 48.7806 0.370117C49.2788 0.848912 49.7708 1.34919 50.2592 1.83789L53.1254 4.70605L55.7806 7.36035C56.2746 7.85393 57.2608 8.72142 57.5209 9.31445V10.3994C57.4042 10.6627 57.2486 10.9032 57.0345 11.1055C56.4838 11.6254 55.9765 12.2112 55.3988 12.6973C55.2396 12.831 54.9688 12.9211 54.766 12.96C53.7113 13.1616 53.0712 12.2507 52.4066 11.584L50.3275 9.50391L50.3256 17.2197L50.3275 19.1689C50.3281 19.7959 50.356 20.4272 50.2318 21.0391C50.0617 21.8879 49.6559 22.7101 49.0619 23.3447C48.4945 23.9509 47.8758 24.5252 47.2992 25.125C46.9879 25.4489 46.6608 25.7202 46.1859 25.7354C45.8762 25.7481 45.5749 25.6303 45.3558 25.4111C45.2169 25.2738 45.0593 25.0518 45.0492 24.8584C45.024 24.3774 45.0336 23.8516 45.0336 23.3711L45.0355 20.2314L45.0326 9.50195L43.3763 11.165C41.6428 12.9402 40.9198 13.9486 38.9818 11.7451C38.3323 11.0067 37.4335 10.508 37.8568 9.30957C37.9201 9.12888 38.0187 8.96265 38.1478 8.82129C38.5706 8.35047 39.2138 7.74534 39.6703 7.28906L42.6468 4.31445C43.5455 3.39683 44.4502 2.48483 45.3607 1.5791C45.8897 1.05023 46.4985 0.32211 47.1508 0H48.1771Z" fill="white"></path>
<path d="M3.10032 18.5565L3.13355 18.5754C3.56405 18.8256 3.4917 19.2376 3.48651 19.6772L3.47362 20.7134C3.46767 21.399 3.42376 22.1799 4.08624 22.5993C4.45957 22.8356 4.98657 22.9112 5.41322 22.8056C5.7562 22.723 6.05245 22.5078 6.23714 22.2072C6.61712 21.5849 6.57414 20.5791 6.41548 19.8804C6.23665 19.0615 5.68387 18.5896 5.13667 18.0289C3.53622 16.3887 0.978445 14.8989 0.319983 12.585C-0.0607004 11.2472 -0.07497 8.87124 0.647811 7.63406C1.31362 6.49436 2.60377 5.94638 3.87499 5.84464C6.12727 5.6542 9.25033 5.7139 9.91464 8.42114C10.0733 9.06412 10.0356 9.64897 10.0348 10.3053L10.03 11.9241C9.9185 12.097 9.88521 12.1366 9.71538 12.2497C8.78582 12.2497 7.84256 12.2581 6.91413 12.2471L6.88336 12.2271C6.45022 11.939 6.56587 11.4402 6.56085 10.9854C6.55342 10.3076 6.68059 9.41695 6.05036 8.95931C5.47422 8.54091 4.41615 8.61745 4.00146 9.22961C3.67349 9.71378 3.69326 10.5072 3.80316 11.0532C3.87719 11.4076 4.02256 11.7433 4.23039 12.0397C4.60114 12.5678 5.09401 12.9481 5.55867 13.4048C7.08303 14.9029 9.13843 16.2314 9.93542 18.2905C10.2552 19.1413 10.2534 20.0134 10.2572 20.8971C10.2622 22.0319 10.146 23.0529 9.51498 24.0238C8.48599 25.6071 6.8012 25.9414 5.0333 25.9215C3.79341 25.9076 2.5567 25.8644 1.46809 25.1416C0.559658 24.5296 0.256819 23.8161 0 22.8074V18.8483C0.0916385 18.7209 0.166909 18.599 0.331574 18.578C0.64553 18.5382 1.00808 18.5524 1.32725 18.5528L3.10032 18.5565Z" fill="white"></path>
<path d="M30.2942 57.9785C30.5496 58.0473 30.6991 58.0923 30.9594 57.9593C31.3387 57.7657 31.435 57.0755 31.2182 56.7457C31.0787 56.5332 30.735 56.2932 30.527 56.1158L29.4093 55.1449C28.6585 54.4891 28.3726 54.2543 28.3392 53.2337C28.2813 51.4619 29.185 50.9754 30.8212 50.9986C32.3559 51.0206 33.1171 51.5542 33.0008 53.2023C32.9859 53.3707 33.0495 53.7272 32.9433 53.879C32.7619 53.9669 31.4507 54.0467 31.3706 53.8261C31.2328 53.4479 31.5587 52.6151 30.9597 52.4082C30.1201 52.2073 30.087 52.8189 30.1099 53.3687C30.3171 53.6285 30.5864 53.8079 30.8355 54.0244C31.2133 54.3536 31.5828 54.6938 31.9583 55.0258C32.9552 55.8525 33.1755 56.2148 33.0855 57.5503C33.046 58.1379 32.8815 58.6125 32.409 59.0104C32.1411 59.2357 31.812 59.346 31.4771 59.4482H29.7857C27.9013 58.8972 28.3644 57.8934 28.2984 56.283C28.2878 56.0258 29.8734 56.0714 29.9131 56.2177C30.0826 56.8371 29.7184 57.4836 30.2942 57.9785Z" fill="white"></path>
<path d="M40.7238 59.448C39.5112 59.0654 39.2112 58.616 39.2312 57.3162C39.2361 56.9989 39.1479 56.3957 39.3679 56.1577C39.5173 56.0956 40.635 56.0788 40.7856 56.1438C40.8459 56.1699 40.8813 56.2544 40.8973 56.3142C41.0244 56.7963 40.7287 57.6651 41.2296 57.9847C41.3826 58.0825 41.5796 58.0622 41.7471 58.0184C41.9183 57.9734 42.0503 57.911 42.1435 57.7545C42.2793 57.5261 42.3208 57.1499 42.2416 56.8962C42.0637 56.3278 39.7916 54.9894 39.4285 54.0852C39.2994 53.7635 39.3087 53.4236 39.309 53.0831C39.3095 52.6666 39.329 52.3043 39.5188 51.9235C39.717 51.5252 40.0595 51.2753 40.4753 51.1438C41.1594 50.927 42.4677 50.9113 43.1189 51.2486C43.4712 51.4312 43.7301 51.7348 43.8459 52.1157C43.9382 52.4187 44.0319 53.5818 43.8828 53.8405C43.8563 53.8863 43.8253 53.913 43.7806 53.9418C43.5519 53.9798 43.3107 53.9255 43.1221 53.9487C41.7433 54.118 42.6453 53.3839 42.1148 52.5113C41.9363 52.4161 41.8777 52.403 41.6844 52.3502C41.0563 52.5026 40.9234 52.8416 41.1109 53.459L41.1362 53.4834C41.907 54.2172 43.2338 55.1264 43.8067 55.9815C44.2171 56.5943 44.0908 58.3339 43.5098 58.861C43.0841 59.2471 42.9323 59.2604 42.416 59.448H40.7238Z" fill="white"></path>
<path d="M21.8605 6.38781C21.9712 6.20372 22.0322 6.08912 22.2603 6.03716C22.4972 5.98317 22.7477 5.99876 22.99 6.00506C24.0343 6.0322 25.0815 5.99847 26.1255 6.01391C26.5221 6.01975 26.6948 6.17896 26.7539 6.56517C27.2403 9.19098 27.7221 11.8176 28.2095 14.4433L28.5933 16.5212C28.6537 16.8483 28.7239 17.3112 28.802 17.6231C28.9037 16.8264 29.095 15.9046 29.243 15.1069L29.9929 11.0557L30.5579 7.98124C30.6537 7.45831 30.7434 6.93091 30.8566 6.41188C30.9158 6.14088 31.132 6.02816 31.3914 6.01885C31.841 6.00271 32.2914 6.0095 32.7412 6.01005L35.3328 6.01472C35.4962 6.11298 35.561 6.15792 35.6858 6.30903C35.7746 6.75567 35.7461 7.87703 35.7461 8.38948L35.7464 11.9998V20.4084C35.7464 21.8645 35.7432 23.3223 35.7426 24.7795C35.7423 25.8569 35.3462 25.726 34.4227 25.7279C34.1459 25.7284 33.8562 25.7346 33.5779 25.7382C33.0776 25.7389 32.628 25.6851 32.6489 25.0727C32.5947 23.9148 32.6704 22.7675 32.6791 21.615L32.6782 14.0494C32.6811 13.7317 32.7642 11.1032 32.6922 11.0107C32.6315 11.1414 32.3515 12.8139 32.2986 13.0876L30.6424 21.6134L30.1856 23.9342C30.1006 24.3853 30.0306 24.8498 29.9183 25.2937C29.779 25.8187 29.2018 25.721 28.7931 25.7209C28.5813 25.7209 28.0771 25.7611 27.9344 25.6497C27.5037 25.3135 27.3686 23.8238 27.2736 23.3384L26.436 19.0494L25.5678 14.5612C25.384 13.6185 25.1732 12.6206 25.0165 11.6767C24.9632 11.4857 24.9786 11.2611 24.8727 11.1106C24.9256 13.3257 24.8415 15.5767 24.8792 17.7868L24.9227 22.9386C24.9225 23.7033 24.9331 24.4816 24.9123 25.2463C24.9069 25.4414 24.7651 25.5511 24.6281 25.6726C24.2047 25.7593 23.6772 25.7287 23.2481 25.7319C22.8921 25.7346 21.9543 25.8097 21.899 25.3434C21.8212 24.687 21.8519 23.9546 21.8517 23.2878L21.852 19.3031L21.8519 10.8718C21.852 9.4171 21.8208 7.83456 21.8605 6.38781Z" fill="white"></path>
<path d="M24.8728 11.1106C24.8608 11.0252 24.8401 10.9139 24.8471 10.8314L24.88 10.8018C25.0089 10.9607 25.0439 11.4804 25.0166 11.6766C24.9633 11.4856 24.9787 11.261 24.8728 11.1106Z" fill="white"></path>
<path d="M25.2785 27.7795C28.5695 27.7927 32.1355 27.1905 31.9259 31.8097C31.8822 32.7804 31.9968 34.023 31.9074 35.0304C31.8792 35.3537 31.8123 35.6724 31.7082 35.9797C31.4035 36.8591 30.9305 37.2695 30.1261 37.6642C31.9775 38.5449 31.9412 40.0735 31.925 41.8654C31.9093 43.6198 31.9408 45.3846 31.9181 47.1408C31.814 47.3235 31.7762 47.3574 31.6017 47.4777C31.0127 47.5581 29.4422 47.4958 28.7951 47.4865C28.6174 47.4839 28.4829 47.2981 28.3879 47.1593C28.3601 46.3058 28.3775 45.3669 28.3771 44.507L28.38 42.4943C28.3837 39.5973 28.1587 39.5805 25.4006 39.5959C25.4026 42.097 25.4296 44.6602 25.3947 47.1564C25.2838 47.3281 25.2469 47.3635 25.0763 47.4787C24.7264 47.5265 24.1958 47.502 23.8263 47.5089C23.3993 47.5168 22.9448 47.5104 22.5168 47.506C22.3481 47.5042 22.0155 47.42 21.9172 47.2736C21.8696 47.2029 21.8539 46.7897 21.8537 46.6916C21.8513 45.6185 21.8519 44.543 21.8517 43.4699V37.0968L21.8527 30.9826C21.8534 30.127 21.859 29.2714 21.8459 28.4162C21.8399 28.0316 21.999 27.9107 22.3175 27.7882C23.2801 27.7481 24.3691 27.7782 25.2785 27.7795ZM25.4006 36.7199C26.13 36.7249 27.366 36.8501 27.9015 36.3224C27.9205 36.3036 27.9399 36.2833 27.9582 36.2638C28.5467 35.5431 28.3514 34.2522 28.382 33.38C28.4839 30.484 27.978 30.495 25.4006 30.5089V36.7199Z" fill="white"></path>
<path d="M47.8898 27.7783C49.4282 27.7783 51.8253 27.618 53.2433 28.1035C55.2637 28.7954 55.1284 31.2859 55.1095 33.0215C55.0898 34.8393 55.3247 36.8011 53.2756 37.6543C55.2167 38.5132 55.107 40.3128 55.1076 42.1123V44.9316L55.1056 46.2246C55.1048 46.7741 55.2251 47.167 54.7297 47.4863C53.9821 47.5687 53.1111 47.449 52.3556 47.5117C51.3639 47.594 51.5308 46.8059 51.5314 46.125L51.5265 44.6221C51.5164 43.8304 51.5286 43.0335 51.5265 42.2392C51.5242 41.2471 51.6851 39.8012 50.3342 39.6279C49.7825 39.5574 49.1431 39.5928 48.5842 39.5957L48.5822 44.7031L48.5851 46.1709C48.5857 46.6689 48.7164 47.511 47.9884 47.5029C47.1652 47.4936 46.3306 47.5251 45.5109 47.4961C45.3011 47.4885 45.1563 47.3277 45.048 47.1719C45.0312 46.5719 45.05 45.8921 45.05 45.2832V41.3818L45.0451 28.1465C45.1925 27.894 45.2471 27.838 45.5353 27.79C45.7031 27.7701 46.1558 27.7794 46.3361 27.7793L47.8898 27.7783ZM51.0109 30.8066C50.4738 30.3969 49.2596 30.5055 48.5851 30.5088L48.5842 36.7207C49.4545 36.7268 50.4099 36.859 51.0968 36.3125C51.2618 36.0884 51.3923 35.8753 51.4533 35.5996C51.5656 35.0913 51.569 32.2512 51.4845 31.6953C51.4326 31.3543 51.2923 31.0211 51.0109 30.8066Z" fill="white"></path>
<path d="M38.7762 27.7784C39.261 27.778 39.9095 27.7112 40.3787 27.8204C40.5439 27.8589 40.6456 27.9124 40.7361 28.0597C40.8847 28.3033 41.3585 31.3628 41.4539 31.9112L43.2029 42.0694C43.4667 43.6103 43.7476 45.149 44.0047 46.6905C44.0462 46.9407 44.0418 47.2619 43.7957 47.3888C43.6954 47.4404 43.5616 47.4883 43.449 47.4962C42.9954 47.5281 42.5363 47.5039 42.0818 47.5089C41.7939 47.5086 41.4535 47.5262 41.1775 47.4601C41.0889 47.3853 41.0019 47.2886 40.9207 47.2042C40.7196 46.2385 40.5389 44.8728 40.3787 43.8673C39.126 43.847 37.8199 43.8633 36.5643 43.8653C36.4279 44.8586 36.2423 45.8624 36.0975 46.8565C36.0467 47.2036 35.992 47.2821 35.7137 47.4815C35.5236 47.5111 35.2904 47.5053 35.0945 47.505C34.5647 47.5035 34.0297 47.5257 33.5008 47.5011C33.3889 47.4926 33.2794 47.4562 33.1785 47.4112C32.8674 47.2733 32.886 46.9214 32.9354 46.6349C33.1861 45.1766 33.4431 43.7188 33.6971 42.2608L35.2127 33.545C35.3294 32.8772 36.0501 28.3626 36.2107 28.0616C36.2957 27.9025 36.4385 27.8336 36.6053 27.7862C37.3256 27.7571 38.0553 27.779 38.7762 27.7784ZM38.4637 31.9522C38.1894 34.0418 37.765 36.1908 37.4676 38.2823C37.3541 39.0788 37.14 40.0967 37.0721 40.8683L38.5076 40.8702L39.8797 40.8683C39.8179 40.2613 38.4956 31.9937 38.4637 31.9522Z" fill="white"></path>
<path d="M13.4504 27.7861C13.8534 27.7683 17.0881 27.7259 17.3254 27.8418C17.4641 27.9096 17.5767 28.0288 17.6243 28.1767C17.6938 28.3938 17.7187 28.6445 17.758 28.8691L18.0061 30.292L18.8323 35.0439L20.1926 42.8623L20.6301 45.3545C20.7129 45.8267 20.8031 46.3064 20.8684 46.7812C20.9028 47.0311 20.8545 47.1349 20.7453 47.3437C20.6912 47.3768 20.5422 47.4664 20.4895 47.4717C20.0096 47.5181 18.4225 47.5499 18.0227 47.4648C17.9645 47.4167 17.7914 47.2687 17.7746 47.2099C17.6769 46.861 17.622 46.4283 17.5657 46.0713C17.4526 45.3353 17.3344 44.5995 17.2112 43.8652L13.4162 43.8642C13.3931 44.2009 12.962 46.9455 12.8703 47.1699C12.8161 47.3025 12.6961 47.4149 12.5627 47.4648C12.338 47.549 10.6913 47.5351 10.386 47.5058C10.2768 47.4954 10.1679 47.4738 10.0676 47.4277C9.93428 47.3665 9.846 47.2831 9.79808 47.1435C9.74939 47.0017 9.75332 46.8779 9.77562 46.7314C10.0203 45.1285 10.3286 43.5293 10.6077 41.9316L12.1428 33.1133L12.7659 29.5302C12.8385 29.1146 12.927 28.5061 13.0412 28.0976C13.0798 27.9596 13.2968 27.8327 13.4504 27.7861ZM15.3078 31.8613C15.1277 33.1131 14.9337 34.3629 14.7258 35.6103C14.6441 36.1212 14.519 37.1122 14.4026 37.581C14.2786 37.7636 13.8794 40.5154 13.8284 40.955C14.7794 40.9681 15.8671 40.9811 16.8108 40.9384C16.6818 39.9434 16.4777 38.7731 16.2952 37.789C16.1873 37.2079 15.9606 34.9563 15.7248 34.5127C15.5753 33.771 15.3998 32.6111 15.3078 31.8613Z" fill="white"></path>
<path d="M15.7247 34.5125C15.9605 34.9554 16.1875 37.2085 16.2954 37.7893C16.4779 38.7734 16.682 39.9432 16.811 40.9382C15.8672 40.9809 14.7793 40.9681 13.8281 40.9551C13.8792 40.5153 14.279 37.7626 14.4029 37.5812C14.4015 37.8776 14.2979 38.4457 14.2484 38.7539C14.1293 39.4558 14.0202 40.1594 13.9213 40.8645L16.7212 40.8657L16.0609 36.6764C15.9548 36.0103 15.7985 35.1743 15.7247 34.5125Z" fill="white"></path>
<path d="M3.63019 27.7806C4.90737 27.7844 6.2526 27.6961 7.50421 27.9671C10.4782 28.6115 10.0112 31.7861 10.0403 34.1009C10.0433 35.623 10.1484 37.3716 8.99152 38.5472C7.98836 39.566 6.65338 39.5946 5.33722 39.5941L3.65558 39.5921L3.65363 41.5814L3.65167 45.5023C3.6527 46.0449 3.67352 46.5987 3.64093 47.139C3.58721 47.3756 3.3082 47.509 3.08038 47.5052C2.23199 47.4904 1.36535 47.5311 0.521791 47.4896C0.324657 47.4797 0.188546 47.3062 0.0911265 47.1566C0.0594627 46.5006 0.0863119 45.5575 0.0862437 44.8841V40.4632L0.0881968 28.1575L0.233705 27.9251C0.361633 27.8541 0.418941 27.8353 0.5589 27.7884C0.60009 27.7866 0.641713 27.7857 0.682923 27.7845C1.64873 27.7568 2.66088 27.7777 3.63019 27.7806ZM3.65558 36.5716C3.96901 36.5687 4.28258 36.569 4.59601 36.5716C5.22302 36.5768 5.62396 36.6173 6.09796 36.1605C6.55161 35.5658 6.46854 34.1792 6.46124 33.4486C6.45056 32.3801 6.62953 30.7216 5.1214 30.7054C4.63235 30.7002 4.14256 30.7059 3.65656 30.6995L3.65558 36.5716Z" fill="white"></path>
<path d="M11.9584 6.01249L17.4275 6.01177L19.0702 6.01174C20.0214 6.01183 20.6988 5.81769 20.5473 7.09373C20.4676 7.76493 20.8023 8.75378 20.1858 9.13853L15.0932 9.13563L15.0968 13.9091C15.509 13.8982 15.9289 13.8952 16.3463 13.9009C17.2419 13.913 18.155 13.87 19.0488 13.9249C19.2221 13.9355 19.3052 14.0344 19.4124 14.1592C19.558 14.3777 19.5124 14.9992 19.5115 15.2731C19.5099 15.7683 19.5162 16.2764 19.4951 16.7698C19.3804 16.9533 19.3098 17.0902 19.0765 17.1108C18.6318 17.1501 18.1773 17.1345 17.7302 17.1344L15.0959 17.1321L15.0975 22.4788L18.322 22.4799C18.856 22.4795 19.3939 22.469 19.9284 22.4911C20.295 22.5108 20.5287 22.6491 20.5398 23.0486C20.5584 23.7171 20.5331 24.3921 20.553 25.0622C20.5614 25.3434 20.4449 25.5002 20.2485 25.674C19.86 25.7554 18.8537 25.7326 18.4063 25.7331L15.1491 25.7338L13.0818 25.7317C12.7515 25.7306 12.3623 25.7441 12.0364 25.7045C11.7052 25.6642 11.5799 25.3784 11.5779 25.0672C11.5681 23.5033 11.5713 21.938 11.5721 20.3734L11.5727 11.6216L11.5724 8.03515C11.5725 7.54293 11.5489 6.88189 11.6085 6.39371C11.6319 6.20294 11.8065 6.10184 11.9584 6.01249Z" fill="white"></path>
<path d="M15.0972 13.9091C15.5093 13.8982 15.9292 13.8953 16.3467 13.901C17.2422 13.9131 18.1553 13.87 19.0492 13.9249C19.2225 13.9356 19.3056 14.0344 19.4128 14.1593C19.2788 14.1136 19.2111 14.056 19.0566 14.0251C18.7352 13.9608 18.3946 14.0029 18.0799 13.9898C17.2074 13.9535 15.9203 14.0901 15.0972 13.9091Z" fill="white"></path>
<path d="M6.6203 53.6791C6.63391 55.437 6.61487 57.2242 6.66638 58.985C6.6788 59.4097 6.13892 59.2785 5.87726 59.3023C5.6914 59.3179 5.39724 59.2936 5.23469 59.2062C5.18791 59.1342 5.19589 59.0259 5.19455 58.942C5.16434 57.0117 5.19377 55.0709 5.20172 53.1398C5.20349 52.7104 5.13869 51.5427 5.21118 51.2016C5.22572 51.1334 5.24116 51.0936 5.30504 51.0594C5.44977 50.9816 7.1796 50.9653 7.33736 51.0298C7.42634 51.066 7.44581 51.1302 7.47469 51.2158C7.64949 51.7337 7.7605 52.5557 7.8715 53.1113C8.04528 53.9807 8.27212 54.8692 8.38484 55.747L8.39639 55.7107C8.50612 55.3609 8.60447 54.7946 8.67853 54.4239L9.10506 52.2823C9.1432 52.0904 9.29623 51.0446 9.46377 51.0367C9.88789 51.017 11.1495 50.9285 11.5145 51.0553C11.6039 51.147 11.6275 51.3171 11.6291 51.4434C11.6398 52.3133 11.6345 53.1998 11.6344 54.0698L11.6315 59.014C11.6312 59.0462 11.6306 59.0782 11.6295 59.1101C11.576 59.1763 11.531 59.2393 11.4686 59.2967C11.1956 59.2976 10.3495 59.3615 10.1846 59.1882C10.1318 58.9449 10.1633 57.9812 10.1576 57.6625C10.1341 56.345 10.194 54.963 10.1489 53.6501C10.1148 53.8443 10.0891 53.9781 10.0363 54.1676C9.75335 55.8045 9.24736 57.4971 8.93523 59.1377C8.89094 59.3705 8.01574 59.3487 7.8989 59.1891C7.64183 58.2703 7.47251 57.3101 7.25073 56.3769C7.0569 55.4872 6.84005 54.592 6.66545 53.6994L6.6203 53.6791Z" fill="white"></path>
<path d="M10.0362 54.1676C10.0338 53.918 10.1055 53.4245 10.2137 53.2068C10.3021 53.3412 10.2003 54.2645 10.1988 54.4907C10.1911 55.6166 10.1919 56.7435 10.1933 57.8692C10.1935 58.0703 10.211 59.0253 10.1845 59.1882C10.1317 58.9449 10.1632 57.9812 10.1575 57.6625C10.134 56.3449 10.1938 54.9629 10.1487 53.65C10.1147 53.8442 10.089 53.978 10.0362 54.1676Z" fill="white"></path>
<path d="M6.61523 53.1521C6.74815 53.7266 7.33982 56.0061 7.25078 56.377C7.05694 55.4873 6.84009 54.5921 6.6655 53.6996L6.62034 53.6792L6.61523 53.1521Z" fill="white"></path>
<path d="M20.0022 51.0024C20.8998 51.0381 22.2112 50.7886 22.594 51.8745C22.7512 52.3522 22.755 52.9137 22.7346 53.4175C22.7 54.2738 22.9041 54.8099 21.9876 55.1597C22.2537 55.2572 22.614 55.4372 22.6575 55.7476C22.7352 56.3054 22.843 58.886 22.6204 59.2427C22.574 59.2706 22.4597 59.3041 22.4163 59.2954C22.0782 59.2267 21.0092 59.5174 21.0247 58.9722C21.0309 58.7552 21.0408 58.3997 21.0403 58.1724C21.0417 57.7966 21.1258 56.4375 20.9055 56.1567C20.768 55.9821 19.9927 56.0238 19.7337 56.0259C19.732 56.4935 19.8109 58.9862 19.6409 59.2192C19.6014 59.2735 19.5392 59.2843 19.4759 59.2915C19.219 59.3211 18.2168 59.3334 18.0725 59.1987C18.0209 59.1495 18.0407 58.9862 18.0393 58.9155C18.0063 57.1383 18.0387 55.3541 18.0364 53.5757L18.0345 51.8862C18.0341 51.6572 18.032 51.4068 18.0374 51.1763C18.0394 51.0932 18.1142 51.061 18.1848 51.0083C18.7792 50.9897 19.402 51.0027 20.0022 51.0024ZM20.9827 52.5571C20.6315 52.1831 20.2137 52.275 19.7356 52.2847L19.7327 54.7163C20.144 54.7198 20.5123 54.746 20.8821 54.5444C21.1397 54.1568 21.0559 53.0311 20.9827 52.5571Z" fill="white"></path>
<path d="M36.7333 55.8972C36.8723 56.0316 36.8767 56.2264 36.9028 56.4188C36.657 56.4267 35.7181 56.4812 35.5498 56.3852C35.5504 56.3077 35.5397 56.3425 35.5939 56.2833C35.6537 56.3823 36.6265 56.3396 36.8015 56.3381C36.7757 56.1916 36.7531 56.0447 36.7333 55.8972Z" fill="white"></path>
<path d="M14.6148 51.0015C15.9482 50.9997 17.3436 50.9294 17.3238 52.7251C17.2652 53.6212 17.5538 54.8712 16.856 55.5728C16.2712 56.1603 15.1461 56.0551 14.3931 56.062L14.3922 56.5816C14.3922 56.8979 14.4251 59.0989 14.3521 59.2144C14.1693 59.3439 12.9168 59.3574 12.7359 59.1763C12.6918 58.9553 12.707 51.2436 12.7203 51.1724C12.7404 51.0807 12.8029 51.0572 12.8736 51.0073L14.6148 51.0015ZM14.3931 54.6353C14.7347 54.6405 15.2083 54.6911 15.4888 54.5025C15.6422 54.2717 15.6346 54.0775 15.6324 53.8081C15.6212 52.4627 15.7461 52.3412 14.3912 52.3618L14.3931 54.6353Z" fill="white"></path>
<path d="M23.8169 51.0081C24.9574 50.971 26.1839 51.0282 27.3312 51C27.6298 50.9924 27.6657 50.9736 27.8513 51.162L27.8535 52.31L27.6763 52.4763L25.3285 52.4766L25.3281 54.2749C25.6212 54.2798 27.1593 54.227 27.3021 54.3338C27.3999 54.5129 27.384 55.447 27.3457 55.6264C27.0964 55.8711 25.7214 55.7686 25.3252 55.7672L25.3278 57.3509L25.3279 57.7912C25.6835 57.7909 27.5063 57.7483 27.7074 57.822C27.9385 58.0583 27.9709 59.2975 27.6168 59.298C26.427 59.2989 25.2302 59.2989 24.0385 59.2925C23.9322 59.2919 23.8198 59.2731 23.7227 59.2298C23.6096 58.8742 23.6731 53.9852 23.6728 53.359L23.6711 51.7698C23.6707 51.582 23.6693 51.3631 23.6732 51.1745C23.6749 51.0943 23.7504 51.0589 23.8169 51.0081Z" fill="white"></path>
<path d="M0.213801 51.0058C0.674431 50.9982 4.00983 50.9518 4.18195 51.065C4.2303 51.0969 4.24841 51.2171 4.25439 51.2711C4.28063 51.5083 4.30602 52.2502 4.17011 52.422C4.00959 52.5149 2.04007 52.4746 1.73083 52.4737L1.73525 54.2737C2.27601 54.2801 2.81849 54.2664 3.35925 54.2711C3.49911 54.2722 3.66795 54.2821 3.75955 54.395C3.78215 54.5303 3.79501 55.5419 3.73581 55.6493C3.4783 55.8487 2.12767 55.7677 1.73033 55.7648L1.73252 57.4075L1.73314 57.7921L4.0977 57.7889L4.25933 57.9552C4.23178 59.5082 4.55488 59.2966 2.82749 59.2975L0.605699 59.2966C0.449064 59.2951 0.220198 59.3024 0.11522 59.1944C0.0368007 58.977 0.0861539 54.3849 0.0858489 53.7811L0.0821556 52.0569C0.081453 51.7724 0.0782632 51.4755 0.088437 51.1904C0.0914628 51.1057 0.151205 51.0618 0.213801 51.0058Z" fill="white"></path>
<path d="M35.2113 51.1234C35.5482 51.1231 37.0117 51.0831 37.223 51.1644C37.299 51.306 37.339 51.4719 37.3695 51.6292C37.8303 54.0029 38.2893 56.3769 38.7406 58.7523C38.7687 58.9012 38.7767 59.0865 38.7738 59.2386C38.6664 59.4215 38.4408 59.4138 38.2474 59.4036C37.9726 59.3888 37.6109 59.4566 37.3666 59.3294C37.2312 59.1182 37.1077 58.1072 37.0775 57.8157C36.9849 57.7261 35.5694 57.7684 35.3451 57.7698C35.3059 58.1916 35.1811 58.8179 35.1068 59.2503C35.0592 59.302 34.9408 59.407 34.8451 59.3997C34.5354 59.3772 33.9283 59.4863 33.683 59.3118C33.6072 59.2576 33.6066 59.1896 33.6127 59.1185C33.6428 58.7796 33.7228 58.4203 33.7875 58.0863L34.1341 56.2991L34.725 53.2493C34.8451 52.6155 34.9557 51.9729 35.0941 51.3431C35.1185 51.2316 35.13 51.1974 35.2113 51.1234ZM36.1937 53.1068C36.0624 53.8595 35.9294 54.6831 35.7689 55.43C35.7316 55.6037 35.5931 56.2835 35.5931 56.2835L35.5492 56.3851C35.5492 56.3851 36.6569 56.4271 36.9027 56.4193C36.836 56.1976 36.7552 55.8978 36.7552 55.8978C36.7483 55.8626 36.3331 53.7723 36.1937 53.1068Z" fill="white"></path>
</svg>