<svg width="164" height="39" viewBox="0 0 164 39" fill="none" xmlns="http://www.w3.org/2000/svg">
<path d="M90.0955 38.9965C88.7017 38.5791 87.2707 38.2512 85.9291 37.7145C79.9664 35.3295 76.4708 29.0911 77.5292 22.8452C78.6025 16.5173 84.0434 11.4342 90.4458 11.3969C93.6358 11.382 96.8333 12.3435 100.217 12.895C100.217 9.74228 100.307 6.0827 100.18 2.42313C100.12 0.664149 100.508 -0.0886349 102.475 0.00825811C106.299 0.202044 105.949 -0.446394 105.956 3.53367C105.971 10.4429 105.971 17.3521 105.956 24.2613C105.941 32.1171 101.611 37.2375 93.7998 38.6611C93.5389 38.7058 93.3079 38.8773 93.0619 38.9891H90.1029L90.0955 38.9965ZM91.3476 16.7707C86.8384 16.8006 83.3651 20.557 83.4546 25.3122C83.544 30.142 86.9651 33.6078 91.616 33.5705C96.1997 33.5332 99.7326 29.732 99.6655 24.8874C99.6059 20.162 96.0954 16.7409 91.3402 16.7707H91.3476Z" fill="white"></path>
<path d="M121.81 38.9966C118.292 38.1767 114.967 36.9991 112.426 34.2414C108.423 29.8886 107.641 23.4788 110.525 18.2764C113.44 13.0143 119.73 10.0479 125.752 11.0914C132.483 12.2541 136.865 17.0987 137.409 23.8291C137.544 25.5061 137.178 26.1992 135.308 26.162C129.531 26.0502 123.755 26.1247 117.971 26.1247C117.211 26.1247 116.451 26.1247 115.683 26.1247C115.847 29.3222 117.889 32.147 120.803 33.019C124.388 34.0923 127.862 33.6749 130.716 31.1631C132.14 29.911 133.042 29.9482 134.145 31.3346C134.749 32.0948 135.457 32.7731 136.269 33.6451C133.876 36.4177 130.798 37.7295 127.407 38.527C126.811 38.6686 126.214 38.84 125.618 39.004H121.81V38.9966ZM130.91 22.3235C129.964 18.2093 126.982 16.0851 122.838 16.346C119.328 16.5696 116.413 19.1037 116.063 22.3235H130.91Z" fill="white"></path>
<path d="M37.6616 38.9963C34.494 38.0125 31.4754 36.7678 29.2766 34.1591C25.6991 29.9256 24.909 25.1108 26.9363 20.0649C29.1127 14.6538 33.3983 11.7396 39.2492 11.3371C45.0329 10.9346 49.5422 13.26 52.5533 18.1569C57.4203 26.0648 52.7993 36.5963 43.6913 38.5789C43.2218 38.6833 42.7746 38.8547 42.3125 39.0038H37.6616V38.9963ZM48.2304 25.2673C48.2751 20.4227 45.0404 16.8227 40.5759 16.7407C35.6343 16.6587 32.1983 20.0053 32.1611 24.9394C32.1313 29.9182 35.3809 33.4659 40.0169 33.5107C44.7199 33.5554 48.1857 30.0821 48.2304 25.2673Z" fill="white"></path>
<path d="M150.139 38.9966C147.538 38.0351 144.915 37.1258 142.343 36.0898C141.672 35.8215 141.151 35.1805 140.398 34.5842C141.24 33.4588 142.03 32.4899 142.716 31.4613C143.439 30.388 144.087 30.6563 145.161 31.0886C147.598 32.065 150.147 32.7805 152.696 33.429C153.449 33.6228 154.537 33.4886 155.133 33.0489C155.998 32.4153 157.011 31.4091 157.093 30.4849C157.146 29.8216 155.886 28.6589 155.006 28.398C152.659 27.7123 150.184 27.4738 147.792 26.9073C142.239 25.603 140.122 23.285 140.517 19.0963C140.912 14.8628 144.475 11.792 149.379 11.3299C154.626 10.838 159.441 11.8293 163.66 15.0938V15.9361C163.101 16.6441 162.475 17.3149 161.99 18.0677C161.066 19.5062 160.201 19.782 158.629 18.6863C156.013 16.8677 152.934 16.4056 149.774 16.7187C148.328 16.8603 147.21 17.5385 147.046 19.1335C146.875 20.8329 148.015 21.4888 149.431 21.7645C151.839 22.2416 154.261 22.6217 156.669 23.0838C159.933 23.7024 162.631 25.0515 163.66 28.5098V31.8638C162.721 34.696 161.021 36.8277 158.077 37.7742C156.706 38.214 155.319 38.5867 153.941 38.9891H150.132L150.139 38.9966Z" fill="white"></path>
<path d="M8.48932 38.9964C5.42601 38.02 2.30307 37.1554 0 34.5318C0.275772 34.0995 0.506825 33.6822 0.79005 33.302C2.95896 30.3878 2.85462 30.6636 6.11917 31.8785C8.53404 32.7803 11.2545 33.0412 13.8632 33.2275C15.4358 33.3393 16.7327 32.348 16.7699 30.5443C16.7998 28.8077 15.3911 28.4201 14.0644 28.1369C11.18 27.5183 8.26572 27.0115 5.38129 26.3854C2.1391 25.6848 0.506825 23.5308 0.141613 20.3482C-0.193786 17.4414 0.909303 15.1383 3.27946 13.4688C8.18373 10.0254 17.6942 10.6142 22.0841 14.6762C22.4792 15.0414 22.5984 16.1818 22.3227 16.6812C21.7338 17.7619 20.8096 18.6563 20.3177 19.26C17.1724 18.3358 14.3551 17.4116 11.4781 16.7259C10.5092 16.4948 9.2421 16.5843 8.39988 17.0464C7.5502 17.5085 6.544 18.6116 6.544 19.4314C6.544 20.2066 7.63219 21.4364 8.47441 21.6749C11.1651 22.4426 13.9824 22.7705 16.7178 23.4115C21.0556 24.4252 22.6581 26.0351 22.9413 29.4189C23.2767 33.4735 21.5922 36.2088 17.7314 37.7964C16.6432 38.2436 15.5178 38.6013 14.4072 39.0038H8.48932V38.9964Z" fill="white"></path>
<path d="M57.9571 38.9964C57.7932 38.4151 57.4876 37.8263 57.4876 37.2449C57.4652 25.2302 57.4727 13.2154 57.4801 1.19326C57.4801 0.917486 57.5546 0.649167 57.6441 0.0678092C59.1496 0.0678092 60.6701 0.000729411 62.1757 0.112529C62.5558 0.142342 63.085 0.708794 63.2117 1.12618C63.4055 1.77462 63.331 2.50504 63.331 3.20565C63.331 14.244 63.3384 25.2823 63.3235 36.3207C63.3235 37.2151 63.1372 38.102 63.0403 38.9964H57.9646H57.9571Z" fill="white"></path>
<path d="M67.6834 38.9966C67.5493 38.1841 67.3108 37.3717 67.3108 36.5593C67.2809 28.9569 67.3555 21.3546 67.2511 13.7597C67.2213 11.8292 67.7729 11.2106 69.7331 11.3075C73.6013 11.4938 73.1392 10.8976 73.1691 14.6466C73.2212 21.9657 73.2138 29.2923 73.1914 36.6115C73.1914 37.409 72.9082 38.2065 72.7591 39.004H67.6834V38.9966Z" fill="white"></path>
<path d="M46.0166 8.43779C46.0166 6.7757 45.9495 5.44901 46.0315 4.12977C46.1805 1.73726 48.2153 -0.0291711 50.5407 0.112442C52.6649 0.239148 54.5133 2.16955 54.5431 4.27139C54.573 6.57446 52.8811 8.31853 50.4289 8.43033C49.0426 8.48996 47.6488 8.44524 46.024 8.44524L46.0166 8.43779Z" fill="white"></path>
<path d="M70.3593 8.40072C67.937 8.42308 66.0289 6.61938 66.0065 4.27904C65.9842 2.06541 67.8699 0.0902791 70.0611 0.0306526C72.3717 -0.0289738 74.4586 1.88653 74.5108 4.12997C74.5704 6.55975 72.804 8.37836 70.3593 8.40072Z" fill="white"></path>
</svg>