<svg width="117" height="45" viewBox="0 0 117 45" fill="none" xmlns="http://www.w3.org/2000/svg">
<path d="M45.6017 1.51282C44.6954 0.651208 43.4891 0.15977 42.1105 0.0959473H42.0978H42.085H42.0722H42.0595C40.6043 0.115094 39.3278 0.619297 38.3577 1.55112C37.4387 2.43187 36.8962 3.61898 36.8387 4.89545V4.90821V4.91459C36.8387 4.92098 36.8515 11.8522 36.8515 11.8522V11.8649V11.8905C37.0111 14.2392 38.2429 16.2624 40.6107 18.0813L40.6235 18.0941C43.0104 19.7471 43.3551 21.1448 43.3678 22.2936V25.1848C43.1381 28.1271 41.1979 29.9843 38.3003 30.0482C36.2197 29.9397 33.8454 28.4653 33.5263 25.4848V23.7424L33.4753 12.8031C33.4753 12.7968 33.4753 12.7904 33.4753 12.7904V12.7585C33.1753 9.19713 31.7839 6.12723 29.4672 3.86151C27.0355 1.48729 23.7295 0.1853 19.9065 0.0959473H19.8937H19.8809H19.8682H19.8554C15.9494 0.293799 12.6306 1.7745 10.25 4.39125C8.06088 6.791 6.7908 10.0587 6.66316 13.5945V13.6073L6.65039 33.2712V33.584H6.96312H9.86708H10.1798V33.2712V13.4031C10.6585 6.87396 15.6495 3.79769 20.0915 3.70196C25.6314 3.86151 29.6969 7.86322 29.9778 13.435L30.0352 25.3891V25.3954V25.4146C30.2075 29.1738 33.1625 33.3159 38.2811 33.5776H38.3003C40.7702 33.5776 42.9211 32.7543 44.5167 31.2161C46.1122 29.678 47.0122 27.5463 47.127 25.0572C47.127 25.0508 47.127 25.0444 47.127 25.0444L47.1398 22.3575C47.1398 22.3511 47.1398 22.3447 47.1398 22.3447V22.3319C46.9994 19.4088 45.6527 17.0984 43.1381 15.4646C41.4021 14.1626 40.5915 12.8159 40.5788 11.2395L40.5915 4.88268C40.7128 4.14233 41.2042 3.68919 41.9446 3.63813C42.7743 3.67004 43.2785 4.1551 43.3678 4.99757V9.56092V9.87365H43.6806H46.8398H47.1526V4.96565V4.94651V4.92736C47.0185 3.56154 46.476 2.3872 45.5697 1.52559L45.6017 1.51282Z" fill="white"></path>
<path d="M103.272 13.1223V13.1095C102.979 9.20993 101.453 5.90389 98.8559 3.5552C96.437 1.37245 93.182 0.140658 89.6781 0.0895996H89.6654H89.6526H89.6398H89.6271C85.9253 0.281069 82.7405 1.55115 80.4238 3.75943C77.8964 6.16556 76.505 9.63116 76.4029 13.7733C76.4029 13.7797 76.3901 33.2521 76.3901 33.2521V33.5648H76.7029H79.6068H79.9196V33.2521V13.3967C80.4621 7.62073 84.3489 3.81049 89.8185 3.68923C95.4733 3.74667 99.3729 7.69732 99.7558 13.7541V33.2585C99.7622 33.2585 99.7622 33.5712 99.7622 33.5712H100.075H102.947H103.26V33.2585V13.1606V13.1223H103.272Z" fill="white"></path>
<path d="M60.3579 5.04876V5.01047V4.9977C60.243 3.52977 59.7005 2.29798 58.7814 1.42999C57.9071 0.606671 56.72 0.13438 55.3541 0.0705566H55.3414H55.3286H55.3158H55.3031C53.7777 0.0897036 52.4757 0.606671 51.5375 1.5704C50.6504 2.47669 50.127 3.72762 50.0249 5.18917V5.20194V5.2147V33.2714V33.5841H53.7968V28.057C54.2947 28.191 54.7925 28.2612 55.2839 28.2612C56.1838 28.2612 57.0646 28.0251 57.8241 27.5847C59.292 26.7295 60.2111 25.1722 60.3579 23.3086V23.2958V23.283V5.06153V5.04876ZM56.5923 5.11897V23.232C56.5923 24.0042 55.9668 24.6297 55.1946 24.6297C54.4223 24.6297 53.7968 24.0042 53.7968 23.232V5.11897C53.7968 4.34671 54.4223 3.72124 55.1946 3.72124C55.9668 3.72124 56.5923 4.34671 56.5923 5.11897Z" fill="white"></path>
<path d="M73.518 5.07419C73.518 5.06781 73.518 5.05504 73.518 5.05504C73.3584 3.58073 72.7713 2.33617 71.8331 1.44903C70.8885 0.561891 69.6439 0.0895996 68.2398 0.0895996H68.2079H68.1824C66.8166 0.178952 65.6422 0.670391 64.787 1.51924C63.919 2.37447 63.3893 3.54243 63.2042 4.99122L63.1467 5.42521L63.1021 5.77624H63.4531L66.6059 5.82092H66.8931L66.9251 5.5401L66.9634 5.18907C67.0782 4.18705 67.7867 3.83602 68.3611 3.83602C68.9291 3.83602 69.6375 4.18705 69.7524 5.16354V6.30598C69.2482 6.17195 68.7376 6.10174 68.2398 6.10174C67.308 6.10174 66.4017 6.35065 65.6294 6.81018C64.187 7.67817 63.2999 9.22908 63.1914 11.0608V11.0736V11.0863V28.593V28.5994C63.1914 28.6058 63.1914 28.6377 63.1914 28.6377C63.1914 28.6441 63.1914 28.6505 63.1914 28.6505C63.319 30.1184 63.8232 31.2927 64.6912 32.1416C65.5592 32.9904 66.7463 33.4691 68.2207 33.5712H68.2398H68.2526H68.2653H68.2845C69.7652 33.5393 71.0289 33.0543 71.9416 32.1607C72.8478 31.2736 73.3967 29.9907 73.5116 28.4654V28.4526V28.4398V5.13801C73.5116 5.13163 73.5116 5.11886 73.5116 5.11886V5.07419H73.518ZM69.7524 11.214V28.6313C69.7524 29.3908 69.1333 30.0099 68.3738 30.0099H68.3419C67.5824 30.0099 66.9634 29.3908 66.9634 28.6313V11.214C66.9634 10.4545 67.5824 9.8354 68.3419 9.8354H68.3738C69.1333 9.8354 69.7524 10.4545 69.7524 11.214Z" fill="white"></path>
<path d="M116.146 0.0703816H112.693V6.45908C112.195 6.32505 111.697 6.25485 111.206 6.25485C110.306 6.25485 109.425 6.49099 108.666 6.93137C107.198 7.7866 106.279 9.34389 106.132 11.2075V11.2203V11.2331V11.4373V28.5866V28.5993V28.6312C106.247 30.1056 106.789 31.3373 107.708 32.2053C108.583 33.0287 109.77 33.501 111.136 33.5648H111.148H111.161H111.174H111.187C112.712 33.5456 114.014 33.0287 114.952 32.0649C115.839 31.1586 116.363 29.9077 116.465 28.4462V28.4334V28.4206V26.4038V7.37813V0.370351V0.0576172H116.152L116.146 0.0703816ZM112.686 11.2841V28.5291C112.686 29.3014 112.061 29.9269 111.289 29.9269C110.516 29.9269 109.891 29.3014 109.891 28.5291V11.2841C109.891 10.5119 110.516 9.88638 111.289 9.88638C112.061 9.88638 112.686 10.5119 112.686 11.2841Z" fill="white"></path>
<path d="M0.35769 0H0.0385742V0.312733V33.2646V33.5774H0.35769H3.49779H3.81052V33.2646V0.312733V0H3.49779H0.35769Z" fill="white"></path>
<path d="M0.159668 42.9788V38.0198H3.36997V38.4091H0.587283V40.3302H3.01256V40.7131H0.587283V42.5959H3.40188V42.9788H0.159668Z" fill="white"></path>
<path d="M3.40816 43.1449H0.16594C0.0765879 43.1449 0 43.0684 0 42.979V38.0199C0 37.9306 0.0765879 37.854 0.16594 37.854H3.37624C3.4656 37.854 3.54218 37.9306 3.54218 38.0199V38.4093C3.54218 38.4986 3.4656 38.5752 3.37624 38.5752H0.759496V40.1644H3.01884C3.10819 40.1644 3.18478 40.241 3.18478 40.3303V40.7133C3.18478 40.8026 3.10819 40.8792 3.01884 40.8792H0.759496V42.4301H3.40816C3.49751 42.4301 3.5741 42.5067 3.5741 42.5961V42.979C3.5741 43.0684 3.49751 43.1449 3.40816 43.1449ZM0.325498 42.8131H3.23583V42.762H0.587173C0.497821 42.762 0.421233 42.6854 0.421233 42.5961V40.7133C0.421233 40.6239 0.497821 40.5473 0.587173 40.5473H2.84651V40.4963H0.587173C0.497821 40.4963 0.421233 40.4197 0.421233 40.3303V38.4093C0.421233 38.3199 0.497821 38.2433 0.587173 38.2433H3.20392V38.1859H0.325498V42.8131Z" fill="white"></path>
<path d="M5.80176 41.1284C5.80176 40.8604 5.85282 40.6051 5.94855 40.3689C6.05067 40.1328 6.1847 39.9286 6.3634 39.7499C6.54211 39.5775 6.74634 39.4371 6.98887 39.335C7.2314 39.2329 7.48669 39.1818 7.76751 39.1818C8.04833 39.1818 8.11216 39.201 8.27171 39.2457C8.43127 39.2903 8.57807 39.3478 8.71209 39.418C8.84612 39.4946 8.97377 39.5839 9.08227 39.686C9.19715 39.7882 9.29288 39.903 9.36947 40.0307V37.8416H9.7907V42.9729H9.42053L9.38862 42.2007C9.31203 42.3283 9.2163 42.4432 9.10141 42.5517C8.98653 42.6602 8.86527 42.7496 8.72486 42.8261C8.58445 42.9027 8.43765 42.9666 8.2781 43.0112C8.11854 43.0559 7.94622 43.0751 7.77389 43.0751C7.49307 43.0751 7.2314 43.024 6.99525 42.9219C6.75272 42.8198 6.54849 42.6857 6.36978 42.507C6.19108 42.3347 6.05705 42.1241 5.95493 41.8879C5.85282 41.6518 5.80176 41.3965 5.80176 41.1221V41.1284ZM6.22937 41.1284C6.22937 41.3518 6.26767 41.5624 6.35064 41.7539C6.43361 41.9454 6.54849 42.1113 6.6889 42.2517C6.82931 42.3921 7.00163 42.5006 7.1931 42.5836C7.38457 42.6666 7.58881 42.7049 7.81219 42.7049C8.03557 42.7049 8.23342 42.6666 8.43127 42.5836C8.62274 42.507 8.78868 42.3921 8.93547 42.2517C9.07589 42.1113 9.19077 41.9454 9.27374 41.7539C9.35671 41.5624 9.395 41.3518 9.395 41.1284C9.395 40.9051 9.35671 40.7008 9.27374 40.5094C9.19077 40.3179 9.07589 40.152 8.93547 40.0115C8.79506 39.8711 8.62274 39.7626 8.43127 39.6797C8.2398 39.5967 8.03557 39.5584 7.81219 39.5584C7.58881 39.5584 7.38457 39.5967 7.1931 39.6797C7.00163 39.7626 6.82931 39.8711 6.6889 40.0115C6.54849 40.152 6.43361 40.3179 6.35064 40.5094C6.26767 40.7008 6.22937 40.9051 6.22937 41.1284Z" fill="white"></path>
<path d="M7.77382 43.2406C7.47385 43.2406 7.18665 43.1832 6.93135 43.0747C6.66968 42.9662 6.4463 42.813 6.25483 42.6279C6.06336 42.4365 5.91018 42.2131 5.80168 41.9578C5.69318 41.7025 5.63574 41.4217 5.63574 41.1281C5.63574 40.8345 5.69318 40.5601 5.7953 40.3048C5.9038 40.0495 6.05698 39.8197 6.24206 39.6346C6.43353 39.4432 6.6633 39.2964 6.91859 39.1879C7.18026 39.0794 7.46108 39.0219 7.76105 39.0219C8.06102 39.0219 8.13761 39.0475 8.30993 39.0921C8.48226 39.1368 8.64181 39.2006 8.78861 39.2836C8.9354 39.3666 9.07581 39.4623 9.19707 39.5772C9.19707 39.5772 9.19707 39.5772 9.20346 39.5836V37.8476C9.20346 37.7582 9.28004 37.6816 9.3694 37.6816H9.79063C9.87998 37.6816 9.95657 37.7582 9.95657 37.8476V42.979C9.95657 43.0683 9.87998 43.1449 9.79063 43.1449H9.42046C9.3311 43.1449 9.2609 43.0747 9.25452 42.9853L9.24175 42.6535C9.23537 42.6598 9.22899 42.6662 9.21622 42.6726C9.09496 42.7875 8.95455 42.8896 8.80775 42.9726C8.66096 43.0555 8.49502 43.1258 8.3227 43.1704C8.15037 43.2151 7.96529 43.2406 7.77382 43.2406ZM7.77382 39.3538C7.51853 39.3538 7.276 39.3985 7.059 39.4942C6.842 39.5836 6.64415 39.7112 6.48459 39.8708C6.32503 40.0303 6.19739 40.2218 6.10803 40.4324C6.01868 40.6494 5.97401 40.8792 5.97401 41.1281C5.97401 41.377 6.01868 41.6131 6.11442 41.8238C6.20377 42.0408 6.33141 42.2322 6.49735 42.3918C6.65691 42.5513 6.84838 42.679 7.07176 42.7683C7.28876 42.8577 7.53129 42.9088 7.78658 42.9088C8.04188 42.9088 8.1057 42.8896 8.25249 42.8513C8.39928 42.813 8.5397 42.7556 8.66096 42.6854C8.78861 42.6152 8.90349 42.5322 9.00561 42.4365C9.07581 42.3663 9.14602 42.2897 9.20346 42.2131C9.15878 42.2705 9.10772 42.3216 9.05666 42.3726C8.89711 42.5258 8.71202 42.6535 8.5014 42.7364C8.29079 42.8258 8.06102 42.8705 7.82488 42.8705C7.58873 42.8705 7.35897 42.8258 7.14197 42.7364C6.93135 42.6471 6.74627 42.5258 6.58671 42.3726C6.42715 42.2195 6.2995 42.0344 6.21015 41.8238C6.1208 41.6131 6.06974 41.377 6.06974 41.1345C6.06974 40.8919 6.11442 40.6558 6.21015 40.4452C6.2995 40.2346 6.42715 40.0495 6.58033 39.8963C6.73988 39.7431 6.92497 39.6219 7.13559 39.5325C7.3462 39.4432 7.57597 39.3985 7.81849 39.3985C8.06102 39.3985 8.2844 39.4432 8.5014 39.5325C8.71202 39.6219 8.89711 39.7431 9.05666 39.8963C9.10134 39.941 9.14602 39.992 9.19069 40.0431C9.13325 39.9601 9.06305 39.8899 8.98646 39.8197C8.88434 39.724 8.76946 39.641 8.6482 39.5772C8.52693 39.507 8.38652 39.4559 8.24611 39.4176C8.1057 39.3793 7.94614 39.3602 7.78658 39.3602L7.77382 39.3538ZM9.5864 42.813H9.63107V38.0135H9.54172V40.0367C9.54172 40.1133 9.49066 40.1771 9.42046 40.1963C9.36301 40.2154 9.30557 40.1963 9.2609 40.158C9.31834 40.2473 9.3694 40.3431 9.41407 40.4388C9.50343 40.6494 9.55448 40.8792 9.55448 41.1281C9.55448 41.377 9.50981 41.6068 9.41407 41.8174C9.37578 41.9067 9.32472 41.9961 9.27366 42.0791C9.31196 42.0408 9.3694 42.028 9.42684 42.0408C9.49704 42.0599 9.5481 42.1237 9.5481 42.1939L9.57363 42.8066L9.5864 42.813ZM7.81211 39.7304C7.61426 39.7304 7.42917 39.7687 7.25685 39.8389C7.08453 39.9091 6.93135 40.0112 6.80371 40.1324C6.67606 40.2537 6.57394 40.4069 6.50374 40.5728C6.43353 40.7388 6.39524 40.9302 6.39524 41.1281C6.39524 41.3259 6.43353 41.5174 6.50374 41.6834C6.58033 41.8557 6.67606 42.0025 6.80371 42.1301C6.93135 42.2514 7.08453 42.3535 7.25685 42.4237C7.42917 42.4939 7.61426 42.5322 7.81211 42.5322C8.00996 42.5322 8.19505 42.4939 8.36737 42.4237C8.5397 42.3535 8.69287 42.2514 8.81414 42.1301C8.94178 42.0025 9.0439 41.8557 9.1141 41.6834C9.18431 41.5174 9.2226 41.3259 9.2226 41.1217C9.2226 40.9175 9.18431 40.7324 9.1141 40.5664C9.03752 40.3941 8.94178 40.2473 8.81414 40.1261C8.68649 40.0048 8.53331 39.9027 8.36099 39.8325C8.18867 39.7623 8.00358 39.724 7.80573 39.724L7.81211 39.7304Z" fill="white"></path>
<path d="M14.4816 42.6982C14.9092 42.6982 15.2411 42.5769 15.4645 42.3344C15.6879 42.0919 15.8028 41.7217 15.8028 41.2239V39.29H16.224V41.2366C16.224 41.543 16.1857 41.8174 16.1027 42.0472C16.0198 42.277 15.9049 42.4684 15.7581 42.6216C15.6113 42.7748 15.4262 42.8897 15.2092 42.9663C14.9922 43.0428 14.7497 43.0811 14.4816 43.0811C14.2136 43.0811 13.971 43.0428 13.754 42.9663C13.537 42.8897 13.3583 42.7748 13.2052 42.6216C13.0584 42.4684 12.9435 42.277 12.8605 42.0472C12.7776 41.8174 12.7393 41.5494 12.7393 41.2366V39.29H13.1605V41.2239C13.1605 41.7153 13.269 42.0791 13.4924 42.328C13.7158 42.5769 14.0413 42.6982 14.4816 42.6982Z" fill="white"></path>
<path d="M14.4816 43.2409C14.1943 43.2409 13.9327 43.1962 13.6965 43.1196C13.4604 43.0366 13.2561 42.9026 13.0838 42.7367C12.9179 42.5643 12.7902 42.3537 12.7009 42.0984C12.6179 41.8495 12.5732 41.5623 12.5732 41.2368V39.2902C12.5732 39.2009 12.6498 39.1243 12.7392 39.1243H13.1604C13.2498 39.1243 13.3264 39.2009 13.3264 39.2902V41.2241C13.3264 41.6708 13.4221 42.0027 13.6136 42.2197C13.805 42.4303 14.0859 42.5388 14.4752 42.5388C14.8645 42.5388 15.1389 42.4367 15.3368 42.2261C15.5346 42.0155 15.6304 41.6772 15.6304 41.2304V39.2966C15.6304 39.2072 15.707 39.1307 15.7963 39.1307H16.2175C16.3069 39.1307 16.3835 39.2072 16.3835 39.2966V41.2432C16.3835 41.5687 16.3388 41.8623 16.2558 42.1048C16.1665 42.3601 16.0388 42.5707 15.8729 42.743C15.707 42.9154 15.5027 43.043 15.2602 43.126C15.0304 43.2089 14.7624 43.2472 14.4752 43.2472L14.4816 43.2409ZM12.9115 39.4498V41.2304C12.9115 41.5176 12.9498 41.7729 13.02 41.9835C13.0902 42.1878 13.1923 42.3601 13.3264 42.5005C13.4604 42.6345 13.6199 42.7367 13.8114 42.8069C14.0093 42.8771 14.2326 42.909 14.4816 42.909C14.7305 42.909 14.9538 42.8707 15.1517 42.8069C15.3432 42.7367 15.5027 42.6345 15.6368 42.5005C15.7708 42.3665 15.8729 42.1942 15.9431 41.9835C16.0197 41.7729 16.0516 41.5176 16.0516 41.2304V39.4498H15.9623V41.2177C15.9623 41.7538 15.8346 42.1622 15.5793 42.4431C15.324 42.7239 14.9538 42.8643 14.4752 42.8643C13.9965 42.8643 13.6136 42.7175 13.3646 42.4367C13.1157 42.1559 12.9881 41.7474 12.9881 41.2241V39.4561H12.8987L12.9115 39.4498Z" fill="white"></path>
<path d="M19.2938 41.1282C19.2938 41.3708 19.3384 41.5878 19.4278 41.7792C19.5171 41.9707 19.632 42.1367 19.7788 42.2707C19.9256 42.4047 20.0915 42.5132 20.283 42.5834C20.4745 42.6536 20.6723 42.6919 20.8766 42.6919C21.0808 42.6919 21.1702 42.6728 21.3106 42.6345C21.451 42.5962 21.5786 42.5451 21.6935 42.4749C21.8148 42.4047 21.9233 42.3217 22.019 42.2196C22.1147 42.1175 22.1977 42.009 22.2679 41.8814H22.7019C22.6317 42.0537 22.5424 42.2196 22.4211 42.3664C22.2998 42.5132 22.1658 42.6409 22.0062 42.743C21.8467 42.8451 21.6744 42.9281 21.4765 42.9855C21.285 43.0429 21.0808 43.0749 20.8702 43.0749C20.6596 43.0749 20.3277 43.0238 20.0852 42.9217C19.8426 42.8196 19.632 42.6791 19.4533 42.5068C19.2746 42.3281 19.1342 42.1239 19.0321 41.8877C18.93 41.6516 18.8789 41.3963 18.8789 41.1282C18.8789 40.8602 18.93 40.6049 19.0321 40.3687C19.1342 40.1326 19.2746 39.9284 19.4533 39.7497C19.632 39.5773 19.8426 39.4369 20.0852 39.3348C20.3277 39.2327 20.5894 39.1816 20.8702 39.1816C21.151 39.1816 21.285 39.2072 21.4765 39.2646C21.668 39.3221 21.8403 39.405 21.9999 39.5071C22.1594 39.6093 22.2998 39.7369 22.4147 39.8837C22.536 40.0305 22.6317 40.19 22.7019 40.3687H22.2679C22.2041 40.2411 22.1211 40.1262 22.0254 40.0305C21.9297 39.9284 21.8212 39.8454 21.6999 39.7752C21.5786 39.705 21.451 39.6475 21.3106 39.6156C21.1702 39.5773 21.0297 39.5582 20.8766 39.5582C20.7234 39.5582 20.4745 39.5965 20.283 39.6667C20.0915 39.7369 19.9256 39.8454 19.7788 39.9794C19.632 40.1135 19.5171 40.2794 19.4278 40.4709C19.3384 40.6623 19.3001 40.8793 19.3001 41.1155L19.2938 41.1282Z" fill="white"></path>
<path d="M20.8638 43.2407C20.5638 43.2407 20.2766 43.1832 20.0149 43.0747C19.7532 42.9662 19.5235 42.8131 19.332 42.6216C19.1405 42.4301 18.9874 42.2067 18.8725 41.9515C18.764 41.6962 18.7065 41.4153 18.7065 41.1281C18.7065 40.8409 18.764 40.5601 18.8725 40.3048C18.981 40.0495 19.1342 39.8261 19.332 39.6347C19.5235 39.4432 19.7532 39.2964 20.0149 39.1879C20.2766 39.0794 20.5638 39.022 20.8638 39.022C21.1637 39.022 21.3105 39.0539 21.5148 39.1177C21.719 39.1815 21.9105 39.2645 22.0828 39.3794C22.2551 39.4943 22.4083 39.6283 22.5359 39.7879C22.6636 39.9474 22.7721 40.1261 22.8487 40.3176C22.8678 40.3686 22.8614 40.4261 22.8295 40.4708C22.7976 40.5154 22.7465 40.541 22.6891 40.541H22.2551C22.1913 40.541 22.1338 40.509 22.1083 40.4516C22.0509 40.3431 21.9807 40.241 21.8913 40.1516C21.802 40.0623 21.7062 39.9857 21.6041 39.9219C21.4956 39.8581 21.3807 39.8134 21.2595 39.7751C21.1382 39.7432 21.0042 39.724 20.8701 39.724C20.7361 39.724 20.5064 39.7559 20.334 39.8261C20.1681 39.89 20.0149 39.9857 19.8809 40.107C19.7532 40.2282 19.6447 40.375 19.5682 40.5473C19.4916 40.7197 19.4533 40.9111 19.4533 41.1281C19.4533 41.3451 19.4916 41.5366 19.5682 41.7089C19.6447 41.8812 19.7532 42.028 19.8809 42.1493C20.0085 42.2706 20.1617 42.3663 20.3277 42.4301C20.5 42.494 20.6787 42.5259 20.8574 42.5259C21.0361 42.5259 21.1254 42.5067 21.2467 42.4748C21.368 42.4429 21.4828 42.3918 21.5913 42.328C21.6998 42.2642 21.7956 42.1876 21.8786 42.0982C21.9615 42.0089 22.0381 41.9068 22.1019 41.7983C22.1338 41.7472 22.1849 41.7089 22.2487 41.7089H22.6827C22.7402 41.7089 22.7912 41.7345 22.8168 41.7791C22.8487 41.8238 22.855 41.8812 22.8359 41.9323C22.7593 42.1238 22.6572 42.3025 22.5295 42.462C22.4019 42.6216 22.2487 42.762 22.0764 42.8705C21.9041 42.9854 21.7126 43.0747 21.5084 43.1322C21.3041 43.196 21.0808 43.2279 20.8574 43.2279L20.8638 43.2407ZM20.8638 39.3539C20.6085 39.3539 20.3659 39.3985 20.1426 39.4943C19.9192 39.5836 19.7277 39.7113 19.5618 39.8708C19.4022 40.0304 19.2682 40.2218 19.1788 40.4388C19.0831 40.6558 19.0384 40.8856 19.0384 41.1345C19.0384 41.3834 19.0831 41.6132 19.1788 41.8302C19.2746 42.0472 19.4022 42.2387 19.5618 42.3982C19.7213 42.5578 19.9192 42.6854 20.1426 42.7812C20.3659 42.8705 20.6085 42.9216 20.8638 42.9216C21.1191 42.9216 21.2467 42.896 21.419 42.8386C21.5977 42.7875 21.7573 42.711 21.9041 42.6152C22.0509 42.5195 22.1785 42.4046 22.2806 42.2706C22.3381 42.2004 22.3828 42.1302 22.4274 42.06H22.3508C22.287 42.1621 22.2104 42.2642 22.1275 42.3472C22.019 42.4557 21.8977 42.5514 21.7701 42.628C21.636 42.7046 21.4956 42.7684 21.3424 42.8067C21.1893 42.845 21.0297 42.8705 20.8638 42.8705C20.6978 42.8705 20.4234 42.8322 20.2128 42.7492C20.0022 42.6663 19.8171 42.5514 19.6575 42.4046C19.4979 42.2514 19.3639 42.0727 19.2682 41.8557C19.1725 41.6387 19.1214 41.4026 19.1214 41.1345C19.1214 40.8665 19.1725 40.6303 19.2682 40.4197C19.3639 40.2091 19.4916 40.024 19.6575 39.8708C19.8171 39.724 20.0022 39.6028 20.2128 39.5198C20.4234 39.4368 20.6404 39.3985 20.8701 39.3985C21.0999 39.3985 21.1956 39.4177 21.3488 39.4624C21.502 39.507 21.6424 39.5645 21.7764 39.6411C21.9105 39.7176 22.0317 39.8134 22.1338 39.9283C22.2168 40.0176 22.2934 40.1133 22.3572 40.2155H22.4274C22.3828 40.1389 22.3317 40.0687 22.2806 39.9985C22.1721 39.8644 22.0445 39.7496 21.8977 39.6538C21.7509 39.5581 21.5913 39.4815 21.419 39.4304C21.2467 39.3794 21.0552 39.3539 20.8638 39.3539Z" fill="white"></path>
<path d="M25.1079 41.1282C25.1079 40.8602 25.159 40.6049 25.2547 40.3687C25.3569 40.1326 25.4909 39.9284 25.6696 39.7497C25.8483 39.5773 26.0589 39.4369 26.2951 39.3348C26.5376 39.2327 26.7929 39.1816 27.0737 39.1816C27.3545 39.1816 27.4247 39.2008 27.5843 39.2455C27.7438 39.2901 27.897 39.3476 28.031 39.4242C28.1715 39.5008 28.2927 39.5901 28.4076 39.6986C28.5161 39.8007 28.6118 39.9156 28.6884 40.0369L28.7203 39.2774H29.0905V42.9727H28.7203L28.6884 42.2196C28.6118 42.3409 28.5161 42.4558 28.4012 42.5579C28.2863 42.66 28.1651 42.7494 28.0247 42.8259C27.8843 42.9025 27.7375 42.96 27.5779 43.0046C27.4183 43.0493 27.246 43.0685 27.0737 43.0685C26.7929 43.0685 26.5312 43.0174 26.2951 42.9153C26.0525 42.8132 25.8483 42.6791 25.6696 42.5004C25.4909 42.3281 25.3569 42.1175 25.2547 41.8814C25.1526 41.6452 25.1016 41.3899 25.1016 41.1155L25.1079 41.1282ZM25.5356 41.1282C25.5356 41.3516 25.5739 41.5622 25.6568 41.7537C25.7398 41.9452 25.8547 42.1111 25.9951 42.2515C26.1355 42.3919 26.3078 42.5004 26.4993 42.5834C26.6908 42.6664 26.895 42.7047 27.1184 42.7047C27.3418 42.7047 27.5396 42.6664 27.7375 42.5834C27.9289 42.5068 28.0949 42.3919 28.2417 42.2515C28.3885 42.1111 28.497 41.9452 28.5799 41.7537C28.6629 41.5622 28.7012 41.3516 28.7012 41.1282C28.7012 40.9049 28.6565 40.7006 28.5735 40.5092C28.4906 40.3177 28.3757 40.1518 28.2353 40.0113C28.0949 39.8709 27.9225 39.7624 27.7311 39.6795C27.5396 39.5965 27.3354 39.5582 27.112 39.5582C26.8886 39.5582 26.6844 39.5965 26.4929 39.6795C26.3014 39.7624 26.1291 39.8709 25.9887 40.0113C25.8483 40.1518 25.7334 40.3177 25.6504 40.5092C25.5675 40.7006 25.5292 40.9049 25.5292 41.1282H25.5356Z" fill="white"></path>
<path d="M27.08 43.2407C26.78 43.2407 26.4928 43.1832 26.2375 43.0747C25.9758 42.9662 25.7524 42.8131 25.561 42.628C25.3695 42.4365 25.2163 42.2131 25.1078 41.9578C24.9993 41.7025 24.9419 41.4217 24.9419 41.1281C24.9419 40.8346 24.9993 40.5601 25.1015 40.3048C25.21 40.0495 25.3631 39.8198 25.5546 39.6347C25.7461 39.4432 25.9758 39.2964 26.2311 39.1879C26.4928 39.0794 26.7736 39.022 27.0736 39.022C27.3736 39.022 27.4565 39.0475 27.6288 39.0922C27.8012 39.1369 27.9671 39.2071 28.1139 39.29C28.2607 39.373 28.4011 39.4751 28.5224 39.5836C28.5288 39.59 28.5351 39.5964 28.5415 39.6028L28.5543 39.2773C28.5543 39.1879 28.6309 39.1177 28.7202 39.1177H29.0904C29.1798 39.1177 29.2563 39.1943 29.2563 39.2836V42.979C29.2563 43.0684 29.1798 43.1449 29.0904 43.1449H28.7202C28.6309 43.1449 28.5607 43.0747 28.5543 42.9854L28.5415 42.6599C28.5351 42.6663 28.5224 42.6727 28.516 42.6854C28.3947 42.7939 28.2607 42.896 28.1075 42.979C27.9607 43.062 27.7948 43.1258 27.6225 43.1769C27.4501 43.2215 27.2651 43.2471 27.0736 43.2471L27.08 43.2407ZM27.08 39.3539C26.8247 39.3539 26.5822 39.3985 26.3652 39.4943C26.1482 39.5836 25.9503 39.7113 25.7907 39.8708C25.6312 40.0304 25.5035 40.2218 25.4142 40.4325C25.3248 40.6495 25.2802 40.8792 25.2802 41.1281C25.2802 41.377 25.3248 41.6132 25.4206 41.8238C25.5099 42.0408 25.6376 42.2323 25.8035 42.3918C25.9631 42.5514 26.1545 42.679 26.3779 42.7684C26.5949 42.8577 26.8374 42.9088 27.0927 42.9088C27.348 42.9088 27.4119 42.8897 27.5586 42.8514C27.7054 42.8131 27.8458 42.7556 27.9735 42.6854C28.1011 42.6152 28.216 42.5322 28.3181 42.4365C28.4203 42.3408 28.5032 42.2387 28.5734 42.1302C28.6117 42.0663 28.6883 42.0408 28.7585 42.06C28.8287 42.0791 28.8798 42.1429 28.8798 42.2131L28.9053 42.8067H28.95V39.4432H28.9053L28.8798 40.0431C28.8798 40.1133 28.8287 40.1772 28.7585 40.1963C28.6883 40.2155 28.6117 40.1836 28.5734 40.1261C28.5032 40.0176 28.4139 39.9155 28.3181 39.8198C28.216 39.724 28.1011 39.6411 27.9799 39.5709C27.8522 39.5006 27.7182 39.4432 27.565 39.4049C27.4182 39.3666 27.2651 39.3475 27.0991 39.3475L27.08 39.3539ZM27.1119 42.8641C26.8694 42.8641 26.646 42.8194 26.429 42.7301C26.2184 42.6407 26.0333 42.5195 25.8737 42.3663C25.7142 42.2131 25.5865 42.028 25.4972 41.8174C25.4078 41.6068 25.3567 41.3707 25.3567 41.1281C25.3567 40.8856 25.4014 40.6495 25.4972 40.4388C25.5865 40.2282 25.7142 40.0431 25.8673 39.89C26.0269 39.7368 26.212 39.6155 26.4226 39.5262C26.6332 39.4368 26.863 39.3921 27.1055 39.3921C27.348 39.3921 27.5714 39.4368 27.7884 39.5262C27.999 39.6155 28.1841 39.7368 28.3437 39.89C28.5032 40.0431 28.6309 40.2282 28.7202 40.4388C28.816 40.6495 28.8606 40.8792 28.8606 41.1281C28.8606 41.377 28.816 41.6068 28.7202 41.8174C28.6309 42.028 28.5032 42.2131 28.3437 42.3663C28.1841 42.5195 27.999 42.6471 27.7884 42.7301C27.5778 42.8194 27.348 42.8641 27.1119 42.8641ZM27.1119 39.7304C26.914 39.7304 26.7289 39.7687 26.5566 39.8389C26.3843 39.9091 26.2311 40.0112 26.1035 40.1325C25.9758 40.2538 25.8737 40.4069 25.8035 40.5729C25.7333 40.7388 25.695 40.9303 25.695 41.1281C25.695 41.326 25.7333 41.5175 25.8035 41.6834C25.8801 41.8557 25.9758 42.0025 26.1035 42.1302C26.2311 42.2514 26.3843 42.3535 26.5566 42.4237C26.7289 42.494 26.914 42.5322 27.1119 42.5322C27.3097 42.5322 27.4948 42.494 27.6671 42.4237C27.8395 42.3535 27.9926 42.2514 28.1203 42.1302C28.2479 42.0025 28.3501 41.8557 28.4266 41.6834C28.4968 41.5175 28.5351 41.326 28.5351 41.1218C28.5351 40.9175 28.4968 40.7388 28.4203 40.5665C28.3437 40.3942 28.2416 40.2474 28.1139 40.1197C27.9863 39.9985 27.8331 39.8963 27.6608 39.8261C27.4884 39.7559 27.3034 39.7176 27.1055 39.7176L27.1119 39.7304Z" fill="white"></path>
<path d="M32.3074 41.1282C32.3074 41.3708 32.3521 41.5878 32.4415 41.7792C32.5308 41.9707 32.6457 42.1367 32.7925 42.2707C32.9393 42.4047 33.1052 42.5132 33.2967 42.5834C33.4882 42.6536 33.686 42.6919 33.8902 42.6919C34.0945 42.6919 34.1838 42.6728 34.3242 42.6345C34.4647 42.5962 34.5923 42.5451 34.7072 42.4749C34.8284 42.4047 34.9369 42.3217 35.0327 42.2196C35.1284 42.1175 35.2114 42.009 35.2816 41.8814H35.7156C35.6454 42.0537 35.556 42.2196 35.4348 42.3664C35.3135 42.5132 35.1795 42.6409 35.0199 42.743C34.8604 42.8451 34.688 42.9281 34.4902 42.9855C34.2987 43.0429 34.0945 43.0749 33.8839 43.0749C33.6732 43.0749 33.3414 43.0238 33.0988 42.9217C32.8563 42.8196 32.6457 42.6791 32.467 42.5068C32.2883 42.3345 32.1479 42.1239 32.0458 41.8877C31.9436 41.6516 31.8926 41.3963 31.8926 41.1282C31.8926 40.8602 31.9436 40.6049 32.0458 40.3687C32.1479 40.1326 32.2883 39.9284 32.467 39.7497C32.6457 39.5773 32.8563 39.4369 33.0988 39.3348C33.3414 39.2327 33.603 39.1816 33.8839 39.1816C34.1647 39.1816 34.2987 39.2072 34.4902 39.2646C34.6817 39.3221 34.854 39.405 35.0135 39.5071C35.1731 39.6093 35.3135 39.7369 35.4284 39.8837C35.5496 40.0305 35.6454 40.19 35.7156 40.3687H35.2816C35.2178 40.2411 35.1348 40.1262 35.0391 40.0305C34.9433 39.9284 34.8348 39.8454 34.7136 39.7752C34.5923 39.705 34.4647 39.6475 34.3242 39.6156C34.1838 39.5773 34.0434 39.5582 33.8902 39.5582C33.7371 39.5582 33.4882 39.5965 33.2967 39.6667C33.1052 39.7369 32.9393 39.8454 32.7925 39.9794C32.6457 40.1135 32.5308 40.2794 32.4415 40.4709C32.3521 40.6623 32.3138 40.8793 32.3138 41.1155L32.3074 41.1282ZM33.6222 43.6173L33.8711 42.9536H34.1264L33.9541 43.4067C34.0243 43.4195 34.0945 43.445 34.1647 43.4769C34.2285 43.5088 34.2923 43.5471 34.3434 43.5982C34.3944 43.6493 34.4327 43.7067 34.4647 43.7769C34.4966 43.8471 34.5093 43.9301 34.5093 44.0194C34.5093 44.1088 34.4838 44.2301 34.4391 44.3194C34.3944 44.4151 34.3306 44.4981 34.254 44.5683C34.1774 44.6385 34.0945 44.6896 33.9987 44.7343C33.903 44.7725 33.8137 44.7917 33.7179 44.7917C33.6222 44.7917 33.5392 44.7917 33.4562 44.7725C33.3733 44.7598 33.2967 44.7343 33.2265 44.696L33.3222 44.4407C33.386 44.4662 33.4435 44.4853 33.5009 44.4917C33.5584 44.4981 33.6222 44.5045 33.686 44.5045C33.7498 44.5045 33.8009 44.4917 33.8583 44.4662C33.9158 44.4407 33.9668 44.4088 34.0179 44.3641C34.0626 44.3194 34.1072 44.2683 34.1392 44.2109C34.1711 44.1535 34.1838 44.0896 34.1838 44.0258C34.1838 43.962 34.1647 43.879 34.1328 43.828C34.0945 43.7769 34.0498 43.7322 33.9987 43.7003C33.9477 43.6684 33.8839 43.6493 33.82 43.6365C33.7562 43.6237 33.6924 43.6173 33.6286 43.6173H33.6222Z" fill="white"></path>
<path d="M33.7179 44.9576C33.6158 44.9576 33.5201 44.9512 33.4307 44.9384C33.3286 44.9257 33.2329 44.8937 33.1499 44.8427C33.0797 44.8044 33.0478 44.715 33.0733 44.6384L33.169 44.3832C33.1818 44.3385 33.2201 44.3066 33.2584 44.2874C33.2967 44.2683 33.3477 44.2683 33.3924 44.2874C33.4371 44.3066 33.4882 44.3193 33.5264 44.3257C33.5775 44.3321 33.6349 44.3385 33.6924 44.3385C33.7498 44.3385 33.7626 44.3321 33.7945 44.3129C33.8328 44.2938 33.8711 44.2683 33.9094 44.2364C33.9413 44.2045 33.9732 44.1662 33.9924 44.1279C34.0115 44.096 34.0179 44.0577 34.0179 44.0194C34.0179 43.9811 34.0115 43.9364 33.9924 43.9109C33.9732 43.879 33.9477 43.8534 33.9158 43.8407C33.8775 43.8215 33.8328 43.8024 33.7817 43.7896C33.7243 43.7768 33.6732 43.7705 33.6222 43.7705C33.5711 43.7705 33.5392 43.7513 33.5073 43.7258C33.4562 43.6811 33.4371 43.6109 33.4626 43.5471L33.5839 43.2152C33.386 43.1897 33.2009 43.145 33.0222 43.0684C32.7606 42.9599 32.5308 42.8067 32.3393 42.6153C32.1479 42.4238 31.9947 42.2004 31.8798 41.9451C31.7713 41.6898 31.7139 41.409 31.7139 41.1218C31.7139 40.8346 31.7713 40.5538 31.8798 40.2985C31.9883 40.0432 32.1415 39.8198 32.3393 39.6283C32.5308 39.4369 32.7606 39.2901 33.0222 39.1816C33.2839 39.0731 33.5711 39.0156 33.8711 39.0156C34.1711 39.0156 34.3179 39.0475 34.5221 39.1114C34.7263 39.1752 34.9178 39.2582 35.0901 39.373C35.2624 39.4879 35.4156 39.6219 35.5433 39.7815C35.6709 39.9411 35.7794 40.1198 35.856 40.3112C35.8751 40.3623 35.8688 40.4197 35.8368 40.4644C35.8049 40.5091 35.7539 40.5346 35.6964 40.5346H35.2624C35.1986 40.5346 35.1412 40.5027 35.1156 40.4453C35.0582 40.3368 34.988 40.2346 34.8986 40.1453C34.8093 40.0559 34.7136 39.9794 34.6114 39.9155C34.5029 39.8517 34.3881 39.807 34.2668 39.7687C34.1455 39.7368 34.0115 39.7177 33.8775 39.7177C33.7434 39.7177 33.5137 39.7496 33.3414 39.8198C33.1754 39.8836 33.0222 39.9794 32.8882 40.1006C32.7606 40.2219 32.6521 40.3687 32.5755 40.541C32.4989 40.7133 32.4606 40.9048 32.4606 41.1218C32.4606 41.3388 32.4989 41.5303 32.5755 41.7026C32.6521 41.8749 32.7606 42.0217 32.8882 42.143C33.0159 42.2642 33.169 42.36 33.335 42.4238C33.5073 42.4876 33.686 42.5195 33.8647 42.5195C34.0434 42.5195 34.1328 42.5004 34.254 42.4685C34.3753 42.4365 34.4902 42.3855 34.5987 42.3217C34.7072 42.2578 34.8029 42.1813 34.8859 42.0919C34.9688 42.0025 35.0454 41.9004 35.1093 41.7919C35.1412 41.7409 35.1922 41.7026 35.2561 41.7026H35.69C35.7475 41.7026 35.7985 41.7281 35.8241 41.7728C35.856 41.8175 35.8624 41.8749 35.8432 41.926C35.7666 42.1174 35.6645 42.2961 35.5369 42.4557C35.4092 42.6153 35.2561 42.7557 35.0837 42.8642C34.9114 42.979 34.7199 43.0684 34.5157 43.1258C34.4072 43.1577 34.2987 43.1833 34.1838 43.196L34.1519 43.279C34.1711 43.2854 34.1902 43.2918 34.2094 43.3045C34.2923 43.3428 34.3689 43.3939 34.4327 43.4577C34.4966 43.5215 34.554 43.5981 34.5923 43.6939C34.6306 43.7832 34.6497 43.8917 34.6497 44.0066C34.6497 44.1215 34.6178 44.2619 34.5668 44.3832C34.5093 44.498 34.4391 44.5938 34.3498 44.6767C34.2604 44.7597 34.1583 44.8235 34.0498 44.8682C33.9349 44.9193 33.82 44.9448 33.6988 44.9448L33.7179 44.9576ZM33.8775 39.3539C33.6222 39.3539 33.3796 39.3986 33.1563 39.4943C32.9329 39.5837 32.7414 39.7113 32.5755 39.8709C32.4159 40.0304 32.2819 40.2219 32.1925 40.4389C32.0968 40.6559 32.0521 40.8856 32.0521 41.1346C32.0521 41.3835 32.0968 41.6132 32.1925 41.8302C32.2883 42.0472 32.4159 42.2387 32.5755 42.3983C32.735 42.5578 32.9329 42.6855 33.1563 42.7812C33.3286 42.8514 33.5137 42.8961 33.7115 42.9152C33.7115 42.8897 33.7243 42.8769 33.7307 42.8705C33.5584 42.8578 33.3924 42.8195 33.2329 42.7557C33.0222 42.6727 32.8372 42.5578 32.6776 42.411C32.518 42.2578 32.384 42.0791 32.2883 41.8621C32.1925 41.6451 32.1415 41.409 32.1415 41.1409C32.1415 40.8729 32.1925 40.6367 32.2883 40.4261C32.384 40.2155 32.5117 40.0304 32.6776 39.8772C32.8372 39.7304 33.0222 39.6092 33.2329 39.5262C33.4435 39.4432 33.6605 39.4049 33.8902 39.4049C34.12 39.4049 34.2157 39.4241 34.3689 39.4688C34.5221 39.5134 34.6625 39.5709 34.7965 39.6475C34.9306 39.7241 35.0518 39.8198 35.1539 39.9347C35.2369 40.024 35.3135 40.1198 35.3773 40.2219H35.4475C35.4028 40.1453 35.3518 40.0751 35.3007 40.0049C35.1922 39.8709 35.0646 39.756 34.9178 39.6602C34.771 39.5645 34.6114 39.4879 34.4391 39.4369C34.2668 39.3858 34.0753 39.3603 33.8839 39.3603L33.8775 39.3539ZM34.2349 42.8323C34.2476 42.8386 34.254 42.8514 34.2668 42.8642C34.2668 42.8642 34.2668 42.8642 34.2668 42.8705C34.3242 42.8578 34.3817 42.845 34.4327 42.8259C34.6114 42.7748 34.771 42.6982 34.9178 42.6025C35.0646 42.5068 35.1922 42.3919 35.2943 42.2578C35.3518 42.1876 35.3965 42.1174 35.4411 42.0472H35.3646C35.3007 42.1493 35.2241 42.2515 35.1412 42.3344C35.0327 42.4429 34.9114 42.5387 34.7838 42.6153C34.6497 42.6918 34.5093 42.7557 34.3561 42.794C34.3115 42.8067 34.2732 42.8131 34.2285 42.8259L34.2349 42.8323Z" fill="white"></path>
<path d="M38.1216 41.128C38.1216 40.86 38.1727 40.6047 38.2684 40.3685C38.3705 40.1324 38.5046 39.9282 38.6833 39.7495C38.862 39.5771 39.0726 39.4367 39.3087 39.3346C39.5513 39.2325 39.8065 39.1814 40.0874 39.1814C40.3682 39.1814 40.4384 39.2006 40.598 39.2453C40.7575 39.2899 40.9107 39.3474 41.0447 39.424C41.1851 39.5005 41.3064 39.5899 41.4213 39.6984C41.5298 39.8005 41.6255 39.9154 41.7021 40.0367L41.734 39.2772H42.1042V42.9725H41.734L41.7021 42.2194C41.6255 42.3407 41.5298 42.4556 41.4149 42.5577C41.3 42.6598 41.1787 42.7491 41.0383 42.8257C40.8979 42.9023 40.7511 42.9598 40.5916 43.0044C40.432 43.0491 40.2597 43.0683 40.0874 43.0683C39.8065 43.0683 39.5449 43.0172 39.3087 42.9151C39.0662 42.813 38.862 42.6789 38.6833 42.5002C38.5046 42.3279 38.3705 42.1173 38.2684 41.8811C38.1663 41.645 38.1152 41.3897 38.1152 41.1153L38.1216 41.128ZM38.5492 41.128C38.5492 41.3514 38.5875 41.562 38.6705 41.7535C38.7535 41.945 38.8683 42.1109 39.0088 42.2513C39.1492 42.3917 39.3215 42.5002 39.513 42.5832C39.7044 42.6662 39.9087 42.7045 40.132 42.7045C40.3554 42.7045 40.5533 42.6662 40.7511 42.5832C40.9426 42.5066 41.1085 42.3917 41.2553 42.2513C41.4021 42.1109 41.5106 41.945 41.5936 41.7535C41.6766 41.562 41.7149 41.3514 41.7149 41.128C41.7149 40.9047 41.6702 40.7004 41.5872 40.5089C41.5042 40.3175 41.3894 40.1515 41.249 40.0111C41.1085 39.8707 40.9362 39.7622 40.7447 39.6792C40.5533 39.5963 40.349 39.558 40.1257 39.558C39.9023 39.558 39.698 39.5963 39.5066 39.6792C39.3151 39.7622 39.1428 39.8707 39.0024 40.0111C38.862 40.1515 38.7471 40.3175 38.6641 40.5089C38.5811 40.7004 38.5429 40.9047 38.5429 41.128H38.5492ZM41.1213 38.0581L41.3319 38.2049C41.217 38.3964 41.0958 38.5368 40.9681 38.6262C40.8405 38.7155 40.7065 38.7538 40.5597 38.7538C40.4129 38.7538 40.3618 38.741 40.2661 38.7091C40.1703 38.6772 40.081 38.6453 39.998 38.6134C39.915 38.5751 39.8321 38.5432 39.7555 38.5177C39.6789 38.4858 39.6023 38.473 39.5321 38.473C39.4619 38.473 39.3981 38.4921 39.3343 38.5241C39.2704 38.556 39.213 38.6198 39.1492 38.7155L38.9386 38.5687C39.0088 38.4411 39.0981 38.3453 39.2002 38.2751C39.3023 38.2049 39.4236 38.1666 39.5513 38.1666C39.6789 38.1666 39.6661 38.173 39.73 38.1858C39.8002 38.1985 39.8768 38.2241 39.947 38.2496C40.0172 38.2815 40.0874 38.3071 40.1576 38.3326C40.2278 38.3581 40.2916 38.3836 40.3554 38.4028C40.4193 38.4219 40.4895 38.4347 40.5533 38.4347C40.6171 38.4347 40.7384 38.4092 40.8341 38.3517C40.9298 38.2943 41.0192 38.1922 41.1149 38.0518L41.1213 38.0581Z" fill="white"></path>
<path d="M40.0936 43.2408C39.7937 43.2408 39.5065 43.1833 39.2512 43.0748C38.9895 42.9663 38.7661 42.8132 38.5747 42.6281C38.3832 42.4366 38.23 42.2132 38.1215 41.9579C38.013 41.7026 37.9556 41.4218 37.9556 41.1282C37.9556 40.8347 38.013 40.5602 38.1151 40.3049C38.2236 40.0496 38.3768 39.8199 38.5683 39.6348C38.7597 39.4433 38.9895 39.2965 39.2448 39.188C39.5065 39.0795 39.7873 39.0221 40.0873 39.0221C40.3872 39.0221 40.4702 39.0476 40.6425 39.0923C40.8148 39.137 40.9808 39.2072 41.1276 39.2901C41.2744 39.3731 41.4148 39.4752 41.536 39.5837C41.5424 39.5901 41.5488 39.5965 41.5552 39.6029L41.568 39.2774C41.568 39.188 41.6445 39.1178 41.7339 39.1178H42.1041C42.1934 39.1178 42.27 39.1944 42.27 39.2837V42.9791C42.27 43.0685 42.1934 43.1451 42.1041 43.1451H41.7339C41.6445 43.1451 41.5743 43.0748 41.568 42.9855L41.5552 42.66C41.5488 42.6664 41.536 42.6728 41.5297 42.6855C41.4084 42.794 41.2744 42.8961 41.1212 42.9791C40.9744 43.0621 40.8085 43.1259 40.6361 43.177C40.4638 43.2216 40.2787 43.2472 40.0873 43.2472L40.0936 43.2408ZM40.0936 39.354C39.8383 39.354 39.5958 39.3986 39.3788 39.4944C39.1618 39.5837 38.964 39.7114 38.8044 39.8709C38.6449 40.0305 38.5172 40.2219 38.4279 40.4326C38.3385 40.6496 38.2938 40.8793 38.2938 41.1282C38.2938 41.3772 38.3385 41.6133 38.4342 41.8239C38.5236 42.0409 38.6512 42.2324 38.8172 42.3919C38.9767 42.5515 39.1682 42.6791 39.3916 42.7685C39.6086 42.8578 39.8511 42.9089 40.1064 42.9089C40.3617 42.9089 40.4255 42.8898 40.5723 42.8515C40.7191 42.8132 40.8595 42.7557 40.9872 42.6855C41.1148 42.6153 41.2297 42.5323 41.3318 42.4366C41.4339 42.3409 41.5169 42.2388 41.5871 42.1303C41.6254 42.0664 41.702 42.0409 41.7722 42.0601C41.8424 42.0792 41.8935 42.143 41.8935 42.2132L41.919 42.8068H41.9637V39.4433H41.919L41.8935 40.0432C41.8935 40.1135 41.8424 40.1773 41.7722 40.1964C41.702 40.2156 41.6254 40.1837 41.5871 40.1262C41.5169 40.0177 41.4275 39.9156 41.3318 39.8199C41.2297 39.7241 41.1148 39.6412 40.9936 39.571C40.8659 39.5007 40.7319 39.4433 40.5787 39.405C40.4319 39.3667 40.2787 39.3476 40.1128 39.3476L40.0936 39.354ZM40.1256 42.8642C39.883 42.8642 39.6596 42.8196 39.4426 42.7302C39.232 42.6408 39.0469 42.5196 38.8874 42.3664C38.7278 42.2132 38.6002 42.0281 38.5108 41.8175C38.4215 41.6069 38.3704 41.3708 38.3704 41.1282C38.3704 40.8857 38.4151 40.6496 38.5108 40.439C38.6002 40.2283 38.7278 40.0432 38.881 39.8901C39.0406 39.7369 39.2256 39.6156 39.4363 39.5263C39.6469 39.4369 39.8766 39.3922 40.1192 39.3922C40.3617 39.3922 40.5851 39.4369 40.8021 39.5263C41.0127 39.6156 41.1978 39.7369 41.3573 39.8901C41.5169 40.0432 41.6445 40.2283 41.7339 40.439C41.8296 40.6496 41.8743 40.8793 41.8743 41.1282C41.8743 41.3772 41.8296 41.6069 41.7339 41.8175C41.6445 42.0281 41.5169 42.2132 41.3573 42.3664C41.1978 42.5196 41.0127 42.6472 40.8021 42.7302C40.5915 42.8196 40.3617 42.8642 40.1256 42.8642ZM40.1256 39.7305C39.9277 39.7305 39.7426 39.7688 39.5703 39.839C39.398 39.9092 39.2448 40.0113 39.1171 40.1326C38.9895 40.2539 38.8874 40.407 38.8172 40.573C38.747 40.7389 38.7087 40.9304 38.7087 41.1282C38.7087 41.3261 38.747 41.5176 38.8172 41.6835C38.8938 41.8558 38.9895 42.0026 39.1171 42.1303C39.2448 42.2515 39.398 42.3536 39.5703 42.4238C39.7426 42.4941 39.9277 42.5323 40.1256 42.5323C40.3234 42.5323 40.5085 42.4941 40.6808 42.4238C40.8531 42.3536 41.0063 42.2515 41.134 42.1303C41.2616 42.0026 41.3637 41.8558 41.4403 41.6835C41.5105 41.5176 41.5488 41.3261 41.5488 41.1219C41.5488 40.9176 41.5105 40.7389 41.4339 40.5666C41.3573 40.3943 41.2552 40.2475 41.1276 40.1198C40.9999 39.9986 40.8468 39.8965 40.6744 39.8262C40.5021 39.756 40.317 39.7177 40.1192 39.7177L40.1256 39.7305ZM40.5595 38.92C40.4383 38.92 40.3234 38.9008 40.2149 38.8689C40.1192 38.837 40.0234 38.8051 39.9341 38.7668C39.8511 38.7349 39.7681 38.703 39.6979 38.671C39.5958 38.6328 39.5065 38.62 39.4235 38.671C39.4044 38.6838 39.3597 38.7157 39.3022 38.8115C39.2767 38.8498 39.2384 38.8753 39.1937 38.8817C39.1491 38.888 39.1044 38.8817 39.0661 38.8561L38.8555 38.7093C38.7853 38.6583 38.7661 38.5626 38.8044 38.4923C38.8874 38.3456 38.9959 38.2243 39.1171 38.1413C39.3022 38.0137 39.5384 37.9754 39.7809 38.0328C39.8575 38.0456 39.9405 38.0711 40.0234 38.1094C40.0936 38.1413 40.1638 38.1668 40.2277 38.1924C40.2915 38.2179 40.3553 38.2434 40.4191 38.2626C40.534 38.3009 40.6425 38.3009 40.7574 38.2243C40.8085 38.1924 40.8851 38.1286 40.9808 37.9754C41.0063 37.9371 41.0446 37.9116 41.0893 37.8988C41.134 37.8924 41.1786 37.8988 41.2169 37.9243L41.4275 38.0711C41.4978 38.1222 41.5233 38.2179 41.4786 38.2945C41.351 38.5115 41.2169 38.6647 41.0638 38.7668C40.9106 38.8689 40.7383 38.9263 40.5595 38.9263V38.92Z" fill="white"></path>
<path d="M44.9058 41.1282C44.9058 40.8602 44.9568 40.6049 45.0589 40.3687C45.1611 40.1326 45.3015 39.9284 45.4802 39.7497C45.6589 39.5773 45.8695 39.4369 46.112 39.3348C46.3545 39.2327 46.6162 39.1816 46.897 39.1816C47.1779 39.1816 47.4395 39.2327 47.6821 39.3348C47.9246 39.4369 48.1352 39.571 48.3139 39.7497C48.4926 39.922 48.633 40.1326 48.7352 40.3687C48.8373 40.6049 48.8883 40.8602 48.8883 41.1282C48.8883 41.3963 48.8373 41.658 48.7352 41.8941C48.633 42.1303 48.4926 42.3345 48.3139 42.5132C48.1352 42.6855 47.9246 42.8259 47.6821 42.9281C47.4395 43.0302 47.1779 43.0812 46.897 43.0812C46.6162 43.0812 46.3545 43.0302 46.112 42.9281C45.8695 42.8259 45.6589 42.6919 45.4802 42.5132C45.3015 42.3409 45.1611 42.1303 45.0589 41.8941C44.9568 41.658 44.9058 41.4027 44.9058 41.1282ZM45.327 41.1282C45.327 41.3516 45.3653 41.5622 45.4483 41.7537C45.5312 41.9452 45.6461 42.1111 45.7865 42.2515C45.9269 42.3919 46.0929 42.5004 46.2907 42.577C46.4822 42.6536 46.6864 42.6983 46.9098 42.6983C47.1332 42.6983 47.331 42.66 47.5225 42.577C47.714 42.5004 47.8799 42.3856 48.0203 42.2515C48.1607 42.1111 48.2756 41.9452 48.3586 41.7537C48.4416 41.5622 48.4799 41.3516 48.4799 41.1282C48.4799 40.9049 48.4416 40.7006 48.3586 40.5092C48.2756 40.3177 48.1607 40.1518 48.0203 40.0113C47.8799 39.8709 47.7076 39.7624 47.5161 39.6795C47.3247 39.5965 47.1204 39.5582 46.9034 39.5582C46.6864 39.5582 46.4822 39.5965 46.2907 39.6795C46.0993 39.7624 45.9333 39.8709 45.7929 40.0113C45.6525 40.1518 45.5376 40.3177 45.4546 40.5092C45.3717 40.7006 45.3334 40.9049 45.3334 41.1282H45.327Z" fill="white"></path>
<path d="M46.897 43.2404C46.597 43.2404 46.3098 43.183 46.0481 43.0745C45.7864 42.966 45.5567 42.8128 45.3652 42.6277C45.1737 42.4363 45.0206 42.2129 44.9057 41.9576C44.7908 41.7023 44.7397 41.4215 44.7397 41.1279C44.7397 40.8343 44.7972 40.5599 44.9057 40.3046C45.0142 40.0493 45.1737 39.8195 45.3652 39.6344C45.5567 39.443 45.7928 39.2962 46.0545 39.1877C46.3162 39.0792 46.6034 39.0217 46.9034 39.0217C47.2033 39.0217 47.4905 39.0792 47.7522 39.1877C48.0139 39.2962 48.2436 39.4493 48.4415 39.6344C48.6393 39.8259 48.7925 40.0493 48.901 40.3046C49.0095 40.5599 49.067 40.8407 49.067 41.1279C49.067 41.4151 49.0095 41.7023 48.901 41.9576C48.7925 42.2129 48.6393 42.4363 48.4415 42.6277C48.25 42.8192 48.0139 42.966 47.7522 43.0745C47.4905 43.183 47.2033 43.2404 46.9034 43.2404H46.897ZM46.897 39.3536C46.6417 39.3536 46.3991 39.3983 46.1758 39.494C45.9524 39.5834 45.7545 39.711 45.595 39.8706C45.429 40.0301 45.3014 40.2216 45.2057 40.4322C45.1099 40.6492 45.0652 40.879 45.0652 41.1279C45.0652 41.3768 45.1099 41.6129 45.2057 41.8236C45.3014 42.0406 45.429 42.232 45.595 42.3916C45.7545 42.5511 45.9524 42.6788 46.1758 42.7681C46.3991 42.8575 46.6417 42.9086 46.897 42.9086C47.1523 42.9086 47.4012 42.8639 47.6182 42.7681C47.8416 42.6788 48.0394 42.5511 48.199 42.3916C48.3649 42.232 48.4926 42.0406 48.5883 41.8299C48.684 41.6129 48.7287 41.3832 48.7287 41.1343C48.7287 40.8854 48.684 40.6556 48.5883 40.4386C48.4926 40.2216 48.3649 40.0301 48.199 39.877C48.033 39.7174 47.8416 39.5898 47.6182 39.5004C47.3948 39.411 47.1523 39.36 46.897 39.36V39.3536ZM46.9034 42.8639C46.6608 42.8639 46.4374 42.8192 46.2268 42.7299C46.0162 42.6405 45.8311 42.5192 45.6716 42.3661C45.512 42.2129 45.3907 42.0278 45.3014 41.8172C45.212 41.6066 45.161 41.3704 45.161 41.1279C45.161 40.8854 45.2057 40.6492 45.3014 40.4386C45.3907 40.228 45.5184 40.0429 45.6716 39.8897C45.8311 39.7365 46.0162 39.6153 46.2204 39.5259C46.4311 39.4366 46.6608 39.3919 46.897 39.3919C47.1331 39.3919 47.3629 39.4366 47.5735 39.5259C47.7841 39.6153 47.9692 39.7365 48.1288 39.8897C48.2883 40.0429 48.416 40.228 48.5053 40.4386C48.5947 40.6492 48.6457 40.879 48.6457 41.1279C48.6457 41.3768 48.601 41.6066 48.5053 41.8172C48.416 42.0278 48.2883 42.2129 48.1288 42.3661C47.9692 42.5192 47.7841 42.6405 47.5735 42.7299C47.3629 42.8192 47.1331 42.8639 46.897 42.8639H46.9034ZM46.9034 39.7302C46.7055 39.7302 46.5204 39.7685 46.3545 39.8387C46.1822 39.9089 46.0354 40.011 45.9077 40.1322C45.7801 40.2535 45.6779 40.4067 45.6077 40.5726C45.5375 40.7386 45.4992 40.93 45.4992 41.1279C45.4992 41.3257 45.5375 41.5172 45.6077 41.6832C45.6843 41.8555 45.7801 42.0023 45.9077 42.1299C46.0354 42.2512 46.1822 42.3533 46.3545 42.4235C46.5268 42.4937 46.7119 42.532 46.9097 42.532C47.1076 42.532 47.2927 42.4937 47.4586 42.4235C47.6309 42.3533 47.7777 42.2576 47.9054 42.1299C48.033 42.0087 48.1351 41.8555 48.2053 41.6832C48.2756 41.5108 48.3138 41.3257 48.3138 41.1279C48.3138 40.93 48.2756 40.7386 48.2053 40.5726C48.1288 40.4003 48.033 40.2535 47.9054 40.1322C47.7777 40.0046 47.6246 39.9089 47.4586 39.8387C47.2863 39.7685 47.1012 39.7302 46.9097 39.7302H46.9034Z" fill="white"></path>
<path d="M59.745 39.475H59.2983C59.2089 39.2963 59.0941 39.1304 58.96 38.9836C58.826 38.8368 58.6728 38.7155 58.5069 38.6134C58.3409 38.5113 58.1559 38.4347 57.958 38.3772C57.7602 38.3198 57.5559 38.2943 57.3453 38.2943C57.0389 38.2943 56.7581 38.3517 56.4837 38.4666C56.2156 38.5815 55.9795 38.7347 55.7816 38.9325C55.5838 39.1304 55.4242 39.3665 55.3093 39.6282C55.1945 39.8962 55.137 40.1834 55.137 40.4898C55.137 40.7961 55.1945 41.0834 55.3093 41.3514C55.4242 41.6195 55.5838 41.8492 55.7816 42.0471C55.9795 42.2449 56.2156 42.3981 56.4837 42.513C56.7517 42.6279 57.0389 42.6853 57.3453 42.6853C57.6516 42.6853 57.7538 42.6598 57.9516 42.6023C58.1495 42.5449 58.3282 42.4683 58.5005 42.3662C58.6664 42.2641 58.8196 42.1428 58.96 41.996C59.0941 41.8492 59.2089 41.6897 59.2983 41.5046H59.7514C59.6557 41.7471 59.5217 41.9641 59.3557 42.1556C59.1898 42.347 58.9983 42.513 58.7877 42.647C58.5771 42.781 58.3473 42.8832 58.1048 42.9598C57.8623 43.03 57.607 43.0682 57.3517 43.0682C56.9879 43.0682 56.6432 43.0044 56.3241 42.8704C56.005 42.7364 55.7242 42.5513 55.488 42.3215C55.2519 42.0918 55.0604 41.8173 54.9264 41.5046C54.786 41.1918 54.7222 40.8536 54.7222 40.4962C54.7222 40.1388 54.7924 39.7941 54.9264 39.4814C55.0668 39.1687 55.2519 38.8942 55.488 38.6645C55.7242 38.4347 56.005 38.2496 56.3241 38.1156C56.6432 37.9815 56.9879 37.9177 57.3517 37.9177C57.7155 37.9177 57.8623 37.956 58.1048 38.0262C58.3473 38.0964 58.5771 38.1985 58.7877 38.3326C58.9983 38.4666 59.1898 38.6325 59.3557 38.824C59.5217 39.0155 59.6493 39.2389 59.7514 39.4814L59.745 39.475Z" fill="white"></path>
<path d="M57.3453 43.2345C56.9623 43.2345 56.5921 43.1643 56.2539 43.0239C55.9156 42.8835 55.6157 42.6857 55.3667 42.4431C55.1114 42.1942 54.9136 41.907 54.7668 41.5751C54.62 41.2433 54.5498 40.8795 54.5498 40.5029C54.5498 40.1264 54.6264 39.7562 54.7668 39.4243C54.9136 39.0924 55.1114 38.7988 55.3667 38.5563C55.622 38.3138 55.9156 38.1159 56.2539 37.9755C56.5921 37.8351 56.9623 37.7649 57.3453 37.7649C57.7282 37.7649 57.8878 37.8032 58.1494 37.8798C58.4111 37.9564 58.6536 38.0649 58.877 38.2053C59.1004 38.3457 59.3046 38.5244 59.477 38.7286C59.6557 38.9329 59.7961 39.169 59.8982 39.4307C59.9173 39.4817 59.9109 39.5392 59.879 39.5839C59.8471 39.6285 59.7961 39.6541 59.7386 39.6541H59.2919C59.228 39.6541 59.1706 39.6158 59.1451 39.5647C59.0621 39.3988 58.96 39.2456 58.8323 39.1116C58.7111 38.9775 58.5707 38.8627 58.4111 38.7669C58.2579 38.6712 58.0856 38.601 57.9069 38.5499C57.7282 38.4989 57.5367 38.4733 57.3389 38.4733C57.0581 38.4733 56.79 38.5244 56.5475 38.6329C56.2986 38.735 56.0816 38.8818 55.8965 39.0669C55.7114 39.252 55.5646 39.469 55.4625 39.7115C55.354 39.954 55.3029 40.2285 55.3029 40.5093C55.3029 40.7901 55.354 41.0582 55.4625 41.3007C55.571 41.5496 55.7178 41.7666 55.8965 41.9453C56.0816 42.124 56.2986 42.2708 56.5475 42.3729C56.7964 42.475 57.0644 42.5325 57.3389 42.5325C57.6133 42.5325 57.7218 42.507 57.9005 42.4559C58.0792 42.4048 58.2515 42.3346 58.4047 42.2389C58.5579 42.1432 58.7047 42.0283 58.826 41.8943C58.9536 41.7602 59.0557 41.607 59.1387 41.4475C59.1642 41.39 59.2217 41.3581 59.2855 41.3581H59.7386C59.7961 41.3581 59.8471 41.3837 59.879 41.4283C59.9109 41.473 59.9173 41.5305 59.8982 41.5815C59.7961 41.8368 59.6493 42.073 59.477 42.2772C59.2982 42.4814 59.1004 42.6601 58.8706 42.8005C58.6473 42.941 58.4047 43.0558 58.143 43.1324C57.8814 43.209 57.6133 43.2473 57.3389 43.2473L57.3453 43.2345ZM57.3453 38.0776C57.007 38.0776 56.6815 38.1414 56.3815 38.2627C56.0816 38.3904 55.8199 38.5627 55.5965 38.7797C55.3731 38.9967 55.1944 39.252 55.0668 39.5456C54.9391 39.8391 54.8753 40.1583 54.8753 40.4901C54.8753 40.822 54.9391 41.1411 55.0668 41.4283C55.1944 41.7219 55.3731 41.9772 55.5965 42.1942C55.8199 42.4112 56.0816 42.5835 56.3815 42.7112C56.6815 42.8388 57.0006 42.8963 57.3453 42.8963C57.6899 42.8963 57.8239 42.8644 58.0537 42.7942C58.2835 42.7303 58.5005 42.6282 58.6983 42.5006C58.8962 42.3729 59.0749 42.2197 59.228 42.041C59.3302 41.9262 59.4131 41.7985 59.4897 41.6645H59.4004C59.311 41.824 59.2025 41.9708 59.0812 42.0985C58.9345 42.258 58.7685 42.3921 58.5898 42.5006C58.4111 42.6091 58.2133 42.692 58.0026 42.7559C57.792 42.8133 57.575 42.8452 57.3516 42.8452C57.0261 42.8452 56.7198 42.7814 56.4262 42.6601C56.139 42.5389 55.8837 42.3729 55.6731 42.1623C55.4625 41.9517 55.2902 41.6964 55.1625 41.4156C55.0412 41.1284 54.9774 40.8156 54.9774 40.4901C54.9774 40.1646 55.0412 39.8455 55.1625 39.5583C55.2838 39.2711 55.4561 39.0222 55.6731 38.8052C55.8837 38.5946 56.139 38.4223 56.4262 38.301C56.7134 38.1797 57.0261 38.1159 57.3516 38.1159C57.6771 38.1159 57.7984 38.1478 58.009 38.2053C58.2196 38.2627 58.4175 38.3521 58.5962 38.4606C58.7749 38.5691 58.9408 38.7031 59.0876 38.8627C59.2089 38.9967 59.3174 39.1371 59.4004 39.2966H59.4897C59.4131 39.1562 59.3302 39.0286 59.228 38.9137C59.0749 38.735 58.8962 38.5818 58.6983 38.4542C58.5005 38.3265 58.2835 38.2308 58.0537 38.167C57.8239 38.1032 57.5878 38.0649 57.3453 38.0649V38.0776Z" fill="white"></path>
<path d="M62.3105 41.1282C62.3105 40.8602 62.3616 40.6049 62.4637 40.3687C62.5658 40.1326 62.7063 39.9284 62.885 39.7497C63.0637 39.571 63.2743 39.4369 63.5168 39.3348C63.7593 39.2327 64.021 39.1816 64.3018 39.1816C64.5826 39.1816 64.8443 39.2327 65.0869 39.3348C65.3294 39.4369 65.54 39.571 65.7187 39.7497C65.8974 39.9284 66.0378 40.1326 66.1399 40.3687C66.2421 40.6049 66.2931 40.8602 66.2931 41.1282C66.2931 41.3963 66.2421 41.658 66.1399 41.8941C66.0378 42.1303 65.8974 42.3345 65.7187 42.5132C65.54 42.6919 65.3294 42.8259 65.0869 42.9281C64.8443 43.0302 64.5826 43.0812 64.3018 43.0812C64.021 43.0812 63.7593 43.0302 63.5168 42.9281C63.2743 42.8259 63.0637 42.6919 62.885 42.5132C62.7063 42.3409 62.5658 42.1303 62.4637 41.8941C62.3616 41.658 62.3105 41.4027 62.3105 41.1282ZM62.7318 41.1282C62.7318 41.3516 62.7701 41.5622 62.853 41.7537C62.936 41.9452 63.0509 42.1111 63.1913 42.2515C63.3317 42.3919 63.4977 42.5004 63.6955 42.577C63.887 42.6536 64.0912 42.6983 64.3146 42.6983C64.538 42.6983 64.7358 42.66 64.9273 42.577C65.1188 42.5004 65.2847 42.3856 65.4251 42.2515C65.5655 42.1111 65.6804 41.9452 65.7634 41.7537C65.8463 41.5622 65.8846 41.3516 65.8846 41.1282C65.8846 40.9049 65.8463 40.7006 65.7634 40.5092C65.6804 40.3177 65.5655 40.1518 65.4251 40.0113C65.2847 39.8709 65.1124 39.7624 64.9209 39.6795C64.7294 39.5965 64.5252 39.5582 64.3082 39.5582C64.0912 39.5582 63.887 39.5965 63.6955 39.6795C63.504 39.7624 63.3381 39.8709 63.1977 40.0113C63.0573 40.1518 62.9424 40.3177 62.8594 40.5092C62.7765 40.7006 62.7382 40.9049 62.7382 41.1282H62.7318Z" fill="white"></path>
<path d="M64.3018 43.2404C64.0018 43.2404 63.7146 43.183 63.4529 43.0745C63.1912 42.966 62.9615 42.8128 62.77 42.6277C62.5785 42.4363 62.4254 42.2129 62.3105 41.9576C62.1956 41.7023 62.1445 41.4215 62.1445 41.1279C62.1445 40.8343 62.202 40.5599 62.3105 40.3046C62.419 40.0493 62.5785 39.8259 62.77 39.6344C62.9615 39.443 63.1976 39.2962 63.4593 39.1877C63.721 39.0792 64.0082 39.0217 64.3081 39.0217C64.6081 39.0217 64.8953 39.0792 65.157 39.1877C65.4187 39.2962 65.6484 39.4493 65.8463 39.6344C66.0441 39.8259 66.1973 40.0493 66.3058 40.3046C66.4143 40.5599 66.4717 40.8407 66.4717 41.1279C66.4717 41.4151 66.4143 41.7023 66.3058 41.9576C66.1973 42.2129 66.0441 42.4363 65.8463 42.6277C65.6548 42.8192 65.4187 42.966 65.157 43.0745C64.8953 43.183 64.6081 43.2404 64.3081 43.2404H64.3018ZM64.3018 39.3536C64.0465 39.3536 63.8039 39.3983 63.5806 39.494C63.3572 39.5834 63.1593 39.711 62.9998 39.8706C62.8338 40.0301 62.7062 40.2216 62.6104 40.4322C62.5147 40.6492 62.47 40.879 62.47 41.1279C62.47 41.3768 62.5147 41.6129 62.6104 41.8236C62.7062 42.0406 62.8338 42.232 62.9998 42.3916C63.1593 42.5511 63.3572 42.6788 63.5806 42.7681C63.8039 42.8575 64.0465 42.9086 64.3018 42.9086C64.557 42.9086 64.806 42.8639 65.023 42.7681C65.2463 42.6788 65.4442 42.5511 65.6037 42.3916C65.7697 42.232 65.8973 42.0406 65.9931 41.8299C66.0888 41.6129 66.1335 41.3832 66.1335 41.1343C66.1335 40.8854 66.0888 40.6556 65.9931 40.4386C65.8973 40.2216 65.7697 40.0301 65.6037 39.877C65.4378 39.7174 65.2463 39.5898 65.023 39.5004C64.7996 39.411 64.557 39.36 64.3018 39.36V39.3536ZM64.3081 42.8639C64.0656 42.8639 63.8422 42.8192 63.6316 42.7299C63.421 42.6405 63.2359 42.5192 63.0764 42.3661C62.9168 42.2129 62.7955 42.0278 62.7062 41.8172C62.6168 41.6066 62.5658 41.3704 62.5658 41.1279C62.5658 40.8854 62.6104 40.6492 62.7062 40.4386C62.7955 40.228 62.9232 40.0429 63.0764 39.8897C63.2359 39.7365 63.421 39.6153 63.6252 39.5259C63.8358 39.4366 64.0656 39.3919 64.3018 39.3919C64.5379 39.3919 64.7677 39.4366 64.9783 39.5259C65.1889 39.6153 65.374 39.7365 65.5335 39.8897C65.6931 40.0429 65.8207 40.228 65.9101 40.4386C65.9995 40.6492 66.0505 40.879 66.0505 41.1279C66.0505 41.3768 66.0058 41.6066 65.9101 41.8172C65.8207 42.0278 65.6931 42.2129 65.5399 42.3661C65.3804 42.5192 65.1953 42.6405 64.9847 42.7299C64.774 42.8192 64.5443 42.8639 64.3081 42.8639ZM64.3081 39.7302C64.1103 39.7302 63.9252 39.7685 63.7593 39.8387C63.5869 39.9089 63.4401 40.011 63.3125 40.1322C63.1848 40.2535 63.0827 40.4067 63.0125 40.5726C62.9423 40.7386 62.904 40.93 62.904 41.1279C62.904 41.3257 62.9423 41.5172 63.0125 41.6832C63.0891 41.8555 63.1848 42.0023 63.3125 42.1299C63.4401 42.2512 63.5869 42.3533 63.7593 42.4235C63.9316 42.4937 64.1167 42.532 64.3145 42.532C64.5124 42.532 64.6975 42.4937 64.8634 42.4235C65.0357 42.3533 65.1825 42.2576 65.3102 42.1299C65.4378 42.0087 65.5399 41.8555 65.6101 41.6832C65.6803 41.5108 65.7186 41.3257 65.7186 41.1279C65.7186 40.93 65.6803 40.7386 65.6101 40.5726C65.5335 40.4003 65.4378 40.2535 65.3102 40.1322C65.1825 40.011 65.0293 39.9089 64.8634 39.8387C64.6911 39.7685 64.506 39.7302 64.3145 39.7302H64.3081Z" fill="white"></path>
<path d="M71.2717 39.2837V39.6666H70.8951C70.6909 39.6666 70.5058 39.6985 70.3335 39.7624C70.1611 39.8262 70.0143 39.9155 69.8931 40.0368C69.7718 40.1581 69.6761 40.3049 69.6059 40.49C69.5357 40.6687 69.5038 40.8793 69.5038 41.1154V42.9791H69.0825V39.2837H69.4399L69.4846 39.9921C69.5484 39.89 69.625 39.7943 69.7144 39.7049C69.8037 39.6156 69.9122 39.539 70.0271 39.4815C70.142 39.4241 70.276 39.3667 70.4164 39.3347C70.5568 39.2965 70.71 39.2837 70.8759 39.2837H71.2653H71.2717Z" fill="white"></path>
<path d="M69.5037 43.1452H69.0824C68.9931 43.1452 68.9165 43.0686 68.9165 42.9792V39.2839C68.9165 39.1945 68.9931 39.1179 69.0824 39.1179H69.4399C69.5292 39.1179 69.5994 39.1881 69.6058 39.2711L69.6249 39.5647C69.7207 39.4753 69.8292 39.3987 69.9568 39.3349C70.0845 39.2647 70.2313 39.2137 70.3844 39.1754C70.5376 39.1371 70.7099 39.1179 70.8886 39.1179H71.278C71.3673 39.1179 71.4439 39.1945 71.4439 39.2839V39.6668C71.4439 39.7561 71.3673 39.8327 71.278 39.8327H70.9014C70.7163 39.8327 70.544 39.8583 70.3972 39.9157C70.2504 39.9668 70.1228 40.0497 70.0143 40.1519C69.9121 40.254 69.8228 40.388 69.7653 40.5412C69.7015 40.7007 69.6696 40.8922 69.6696 41.1092V42.9728C69.6696 43.0622 69.593 43.1388 69.5037 43.1388V43.1452ZM69.2484 42.8133H69.3377V41.1156C69.3377 40.8603 69.376 40.6241 69.4526 40.4263C69.5292 40.2221 69.6377 40.0561 69.7781 39.9157C69.9185 39.7817 70.0845 39.6732 70.2759 39.603C70.4674 39.5328 70.6716 39.5009 70.895 39.5009H71.1056V39.4498H70.8823C70.7291 39.4498 70.5887 39.4689 70.461 39.5009C70.3334 39.5328 70.2121 39.5774 70.11 39.6349C70.0079 39.6923 69.9121 39.7562 69.8292 39.8327C69.7462 39.9093 69.6824 39.9923 69.6249 40.0816C69.5866 40.1455 69.5164 40.171 69.4462 40.1582C69.376 40.1391 69.325 40.0816 69.3186 40.0051L69.2867 39.4498H69.2484V42.8133Z" fill="white"></path>
<path d="M77.8195 41.1282C77.8195 41.3963 77.7685 41.6516 77.6728 41.8877C77.5706 42.1239 77.4366 42.3281 77.2579 42.5068C77.0792 42.6855 76.875 42.8195 76.6324 42.9216C76.3899 43.0238 76.1346 43.0748 75.8474 43.0748C75.5602 43.0748 75.5028 43.0557 75.3432 43.011C75.1836 42.9663 75.0369 42.9089 74.9028 42.8387C74.7688 42.7621 74.6412 42.6727 74.5327 42.5706C74.4242 42.4685 74.3284 42.3536 74.2455 42.2324V44.2428H73.8242V39.2901H74.1816L74.2199 40.0496C74.2965 39.9283 74.3922 39.8135 74.5071 39.7113C74.622 39.6092 74.7433 39.5135 74.8837 39.4369C75.0241 39.3603 75.1709 39.2965 75.3368 39.2518C75.5028 39.2071 75.6687 39.188 75.8474 39.188C76.1282 39.188 76.3899 39.239 76.626 39.3412C76.8686 39.4433 77.0728 39.5773 77.2515 39.756C77.4302 39.9283 77.5643 40.139 77.6664 40.3751C77.7685 40.6112 77.8195 40.8665 77.8195 41.1346V41.1282ZM77.3919 41.1282C77.3919 40.9048 77.3536 40.7006 77.2707 40.5091C77.1877 40.3177 77.0728 40.1517 76.9324 40.0113C76.792 39.8709 76.6261 39.7624 76.4282 39.6794C76.2303 39.5965 76.0325 39.5582 75.8091 39.5582C75.5857 39.5582 75.3879 39.5965 75.19 39.6794C74.9986 39.756 74.8326 39.8709 74.6858 40.0113C74.5454 40.1517 74.4305 40.3177 74.3476 40.5091C74.2646 40.7006 74.2263 40.9048 74.2263 41.1282C74.2263 41.3516 74.2646 41.5622 74.3476 41.7473C74.4305 41.9388 74.5454 42.1047 74.6858 42.2451C74.8262 42.3855 74.9986 42.494 75.19 42.577C75.3815 42.6536 75.5857 42.6983 75.8091 42.6983C76.0325 42.6983 76.2303 42.66 76.4282 42.577C76.6197 42.5004 76.7856 42.3855 76.9324 42.2451C77.0728 42.1047 77.1877 41.9388 77.2707 41.7473C77.3536 41.5558 77.3919 41.3516 77.3919 41.1282Z" fill="white"></path>
<path d="M74.2454 44.402H73.8241C73.7348 44.402 73.6582 44.3254 73.6582 44.2361V39.2834C73.6582 39.194 73.7348 39.1175 73.8241 39.1175H74.1816C74.2709 39.1175 74.3411 39.1877 74.3475 39.277L74.3666 39.6153C74.373 39.6089 74.3858 39.5961 74.3922 39.5898C74.5134 39.4749 74.6475 39.3791 74.8006 39.2898C74.9474 39.2068 75.1134 39.1366 75.2921 39.0919C75.4708 39.0473 75.6559 39.0217 75.8473 39.0217C76.1473 39.0217 76.4345 39.0792 76.6898 39.1877C76.9515 39.2962 77.1749 39.4493 77.3663 39.6344C77.5578 39.8259 77.711 40.0493 77.8195 40.3046C77.928 40.5599 77.9854 40.8407 77.9854 41.1343C77.9854 41.4279 77.928 41.7023 77.8259 41.9576C77.7174 42.2129 77.5642 42.4426 77.3791 42.6277C77.1876 42.8192 76.9579 42.9724 76.7026 43.0809C76.4409 43.1894 76.1601 43.2468 75.8537 43.2468C75.5474 43.2468 75.4772 43.2213 75.3048 43.1766C75.1325 43.1319 74.973 43.0681 74.8262 42.9851C74.6794 42.9022 74.5453 42.8064 74.4241 42.6916C74.4241 42.6916 74.4241 42.6916 74.4177 42.6852V44.2361C74.4177 44.3254 74.3411 44.402 74.2518 44.402H74.2454ZM73.9965 44.0701H74.0858V42.2257C74.0858 42.1491 74.1369 42.0852 74.2071 42.0661C74.2709 42.0469 74.3411 42.0661 74.3794 42.1172C74.3156 42.0214 74.2581 41.9193 74.2071 41.8108C74.1177 41.6002 74.0667 41.3704 74.0667 41.1215C74.0667 40.8726 74.1114 40.6428 74.2071 40.4322C74.2964 40.2216 74.4241 40.0365 74.5836 39.8833C74.7432 39.7302 74.9283 39.6025 75.1389 39.5195C75.3495 39.4302 75.5793 39.3855 75.8154 39.3855C76.0516 39.3855 76.2813 39.4302 76.492 39.5195C76.7026 39.6089 76.8877 39.7302 77.0472 39.8833C77.2068 40.0365 77.328 40.2216 77.4174 40.4322C77.5067 40.6428 77.5578 40.8726 77.5578 41.1215C77.5578 41.3704 77.5131 41.6002 77.4174 41.8108C77.328 42.0214 77.2004 42.2065 77.0472 42.3597C76.8877 42.5129 76.7026 42.6405 76.492 42.7235C76.2813 42.8128 76.0516 42.8575 75.8154 42.8575C75.5793 42.8575 75.3495 42.8128 75.1389 42.7235C74.9283 42.6341 74.7432 42.5129 74.5836 42.3597C74.5134 42.2895 74.4496 42.2193 74.3922 42.1363C74.4624 42.2448 74.5517 42.3469 74.6475 42.4426C74.7496 42.5384 74.8581 42.615 74.9857 42.6852C75.107 42.7554 75.2474 42.8064 75.3942 42.8447C75.541 42.883 75.6942 42.9022 75.8537 42.9022C76.109 42.9022 76.3515 42.8575 76.5685 42.7618C76.7855 42.6724 76.977 42.5448 77.1366 42.3788C77.2961 42.2193 77.4238 42.0278 77.5131 41.8108C77.6025 41.5938 77.6471 41.364 77.6471 41.1151C77.6471 40.8662 77.6025 40.6301 77.5067 40.4195C77.4174 40.2025 77.2897 40.0174 77.1238 39.8578C76.9642 39.6983 76.7728 39.5706 76.5494 39.4813C76.3324 39.3919 76.0899 39.3408 75.8346 39.3408C75.5793 39.3408 75.5155 39.36 75.3687 39.3983C75.2219 39.4366 75.0815 39.494 74.9538 39.5642C74.8262 39.6344 74.7113 39.7174 74.6092 39.8131C74.5071 39.9089 74.4241 40.011 74.3539 40.1195C74.3156 40.1833 74.239 40.2088 74.1688 40.1897C74.0986 40.1705 74.0475 40.1131 74.0475 40.0365L74.0156 39.4302H73.9837V44.051L73.9965 44.0701ZM75.8154 39.7302C75.6176 39.7302 75.4325 39.7685 75.2602 39.8387C75.0878 39.9089 74.9347 40.011 74.8134 40.1322C74.6858 40.2599 74.5836 40.4067 74.5071 40.579C74.4368 40.745 74.3986 40.9364 74.3986 41.1343C74.3986 41.3321 74.4368 41.5236 74.5071 41.6895C74.5836 41.8619 74.6858 42.0087 74.8134 42.1363C74.9411 42.2639 75.0942 42.3597 75.2602 42.4299C75.4325 42.5001 75.6176 42.5384 75.8154 42.5384C76.0133 42.5384 76.1984 42.5001 76.3707 42.4299C76.543 42.3597 76.6898 42.2576 76.8174 42.1363C76.9451 42.0087 77.0472 41.8619 77.1174 41.6895C77.1876 41.5236 77.2259 41.3321 77.2259 41.1343C77.2259 40.9364 77.1876 40.745 77.1174 40.579C77.0408 40.4067 76.9451 40.2599 76.8174 40.1322C76.6898 40.0046 76.543 39.9089 76.3707 39.8387C76.1984 39.7685 76.0133 39.7302 75.8154 39.7302Z" fill="white"></path>
<path d="M80.3218 41.1282C80.3218 40.8602 80.3728 40.6049 80.475 40.3687C80.5771 40.1326 80.7175 39.9284 80.8962 39.7497C81.0749 39.5773 81.2855 39.4369 81.528 39.3348C81.7706 39.2327 82.0322 39.1816 82.3131 39.1816C82.5939 39.1816 82.8556 39.2327 83.0981 39.3348C83.3406 39.4369 83.5512 39.571 83.7299 39.7497C83.9086 39.922 84.049 40.1326 84.1512 40.3687C84.2533 40.6049 84.3043 40.8602 84.3043 41.1282C84.3043 41.3963 84.2533 41.658 84.1512 41.8941C84.049 42.1303 83.9086 42.3345 83.7299 42.5132C83.5512 42.6855 83.3406 42.8259 83.0981 42.9281C82.8556 43.0302 82.5939 43.0812 82.3131 43.0812C82.0322 43.0812 81.7706 43.0302 81.528 42.9281C81.2855 42.8259 81.0749 42.6919 80.8962 42.5132C80.7175 42.3409 80.5771 42.1303 80.475 41.8941C80.3728 41.658 80.3218 41.4027 80.3218 41.1282ZM80.7494 41.1282C80.7494 41.3516 80.7877 41.5622 80.8707 41.7537C80.9536 41.9452 81.0685 42.1111 81.2089 42.2515C81.3493 42.3919 81.5153 42.5004 81.7131 42.577C81.9046 42.6536 82.1088 42.6983 82.3322 42.6983C82.5556 42.6983 82.7534 42.66 82.9449 42.577C83.1364 42.5004 83.3023 42.3856 83.4427 42.2515C83.5831 42.1111 83.698 41.9452 83.781 41.7537C83.864 41.5622 83.9023 41.3516 83.9023 41.1282C83.9023 40.9049 83.864 40.7006 83.781 40.5092C83.698 40.3177 83.5831 40.1518 83.4427 40.0113C83.3023 39.8709 83.13 39.7624 82.9385 39.6795C82.7471 39.5965 82.5428 39.5582 82.3258 39.5582C82.1088 39.5582 81.9046 39.5965 81.7131 39.6795C81.5217 39.7624 81.3557 39.8709 81.2153 40.0113C81.0749 40.1518 80.96 40.3177 80.877 40.5092C80.7941 40.7006 80.7558 40.9049 80.7558 41.1282H80.7494Z" fill="white"></path>
<path d="M82.3193 43.2404C82.0194 43.2404 81.7322 43.183 81.4705 43.0745C81.2088 42.966 80.979 42.8128 80.7876 42.6277C80.5961 42.4363 80.4429 42.2129 80.328 41.9576C80.2132 41.7023 80.1621 41.4215 80.1621 41.1279C80.1621 40.8343 80.2195 40.5599 80.328 40.3046C80.4365 40.0493 80.5961 39.8259 80.7876 39.6344C80.979 39.443 81.2152 39.2962 81.4769 39.1877C81.7385 39.0792 82.0257 39.0217 82.3257 39.0217C82.6257 39.0217 82.9129 39.0792 83.1746 39.1877C83.4362 39.2962 83.666 39.4493 83.8639 39.6344C84.0617 39.8259 84.2149 40.0493 84.3234 40.3046C84.4319 40.5599 84.4893 40.8407 84.4893 41.1279C84.4893 41.4151 84.4319 41.7023 84.3234 41.9576C84.2149 42.2129 84.0617 42.4363 83.8639 42.6277C83.6724 42.8192 83.4362 42.966 83.1746 43.0745C82.9129 43.183 82.6257 43.2404 82.3257 43.2404H82.3193ZM82.3193 39.3536C82.064 39.3536 81.8215 39.3983 81.5981 39.494C81.3747 39.5834 81.1769 39.711 81.0173 39.8706C80.8514 40.0301 80.7238 40.2216 80.628 40.4322C80.5323 40.6492 80.4876 40.879 80.4876 41.1279C80.4876 41.3768 80.5323 41.6129 80.628 41.8236C80.7238 42.0406 80.8514 42.232 81.0173 42.3916C81.1769 42.5511 81.3747 42.6788 81.5981 42.7681C81.8215 42.8575 82.064 42.9086 82.3193 42.9086C82.5746 42.9086 82.8235 42.8639 83.0405 42.7681C83.2639 42.6788 83.4618 42.5511 83.6213 42.3916C83.7873 42.232 83.9149 42.0406 84.0106 41.8299C84.1064 41.6129 84.1511 41.3832 84.1511 41.1343C84.1511 40.8854 84.1064 40.6556 84.0106 40.4386C83.9149 40.2216 83.7873 40.0301 83.6213 39.877C83.4554 39.7174 83.2639 39.5898 83.0405 39.5004C82.8172 39.411 82.5746 39.36 82.3193 39.36V39.3536ZM82.3257 42.8639C82.0832 42.8639 81.8598 42.8192 81.6492 42.7299C81.4386 42.6405 81.2535 42.5192 81.0939 42.3661C80.9344 42.2129 80.8131 42.0278 80.7174 41.8172C80.628 41.6066 80.577 41.3704 80.577 41.1279C80.577 40.8854 80.6216 40.6492 80.7174 40.4386C80.8067 40.228 80.9344 40.0429 81.0875 39.8897C81.2471 39.7365 81.4322 39.6153 81.6364 39.5259C81.847 39.4366 82.0768 39.3919 82.313 39.3919C82.5491 39.3919 82.7789 39.4366 82.9895 39.5259C83.2001 39.6153 83.3852 39.7365 83.5447 39.8897C83.7043 40.0429 83.8319 40.228 83.9213 40.4386C84.0106 40.6492 84.0617 40.879 84.0617 41.1279C84.0617 41.3768 84.017 41.6066 83.9213 41.8172C83.8319 42.0278 83.7043 42.2129 83.5511 42.3661C83.3916 42.5192 83.2065 42.6405 82.9959 42.7299C82.7852 42.8192 82.5555 42.8639 82.3193 42.8639H82.3257ZM82.3193 39.7302C82.1215 39.7302 81.9364 39.7685 81.7705 39.8387C81.5981 39.9089 81.4513 40.011 81.3237 40.1322C81.196 40.2535 81.0939 40.4067 81.0237 40.5726C80.9535 40.7386 80.9152 40.93 80.9152 41.1279C80.9152 41.3257 80.9535 41.5172 81.0237 41.6832C81.1003 41.8555 81.196 42.0023 81.3237 42.1299C81.4513 42.2512 81.5981 42.3533 81.7705 42.4235C81.9428 42.4937 82.1279 42.532 82.3257 42.532C82.5236 42.532 82.7087 42.4937 82.8746 42.4235C83.0469 42.3533 83.1937 42.2576 83.3214 42.1299C83.449 42.0087 83.5511 41.8555 83.6213 41.6832C83.6915 41.5108 83.7298 41.3257 83.7298 41.1279C83.7298 40.93 83.6915 40.7386 83.6213 40.5726C83.5447 40.4003 83.449 40.2535 83.3214 40.1322C83.1937 40.0046 83.0405 39.9089 82.8746 39.8387C82.7023 39.7685 82.5172 39.7302 82.3257 39.7302H82.3193Z" fill="white"></path>
<path d="M89.2887 39.2837V39.6666H88.9122C88.7079 39.6666 88.5229 39.6985 88.3505 39.7624C88.1782 39.8262 88.0314 39.9155 87.9102 40.0368C87.7889 40.1581 87.6932 40.3049 87.623 40.49C87.5528 40.6687 87.5208 40.8793 87.5208 41.1154V42.9791H87.0996V39.2837H87.457L87.5017 39.9921C87.5655 39.89 87.6421 39.7943 87.7315 39.7049C87.8208 39.6156 87.9293 39.539 88.0442 39.4815C88.1591 39.4241 88.2931 39.3667 88.4335 39.3347C88.5739 39.2965 88.7271 39.2837 88.893 39.2837H89.2824H89.2887Z" fill="white"></path>
<path d="M87.5144 43.1452H87.0932C87.0038 43.1452 86.9272 43.0686 86.9272 42.9792V39.2839C86.9272 39.1945 87.0038 39.1179 87.0932 39.1179H87.4506C87.54 39.1179 87.6102 39.1881 87.6165 39.2711L87.6357 39.5647C87.7314 39.4753 87.8399 39.3987 87.9676 39.3349C88.0952 39.2647 88.242 39.2137 88.3952 39.1754C88.5484 39.1371 88.7207 39.1179 88.8994 39.1179H89.2887C89.3781 39.1179 89.4546 39.1945 89.4546 39.2839V39.6668C89.4546 39.7561 89.3781 39.8327 89.2887 39.8327H88.9121C88.7271 39.8327 88.5547 39.8583 88.4079 39.9157C88.2612 39.9668 88.1335 40.0497 88.025 40.1519C87.9229 40.254 87.8335 40.388 87.7761 40.5412C87.7123 40.7007 87.6804 40.8922 87.6804 41.1092V42.9728C87.6804 43.0622 87.6038 43.1388 87.5144 43.1388V43.1452ZM87.2655 42.8133H87.3549V41.1156C87.3549 40.8603 87.3932 40.6241 87.4697 40.4263C87.5463 40.2221 87.6548 40.0561 87.7952 39.9157C87.9357 39.7817 88.1016 39.6732 88.2931 39.603C88.4845 39.5328 88.6888 39.5009 88.9121 39.5009H89.1228V39.4498H88.8994C88.7462 39.4498 88.6058 39.4689 88.4782 39.5009C88.3505 39.5328 88.2292 39.5774 88.1271 39.6349C88.025 39.6923 87.9293 39.7562 87.8463 39.8327C87.7633 39.9093 87.6995 39.9923 87.6421 40.0816C87.6038 40.1455 87.5336 40.171 87.4634 40.1582C87.3932 40.1391 87.3421 40.0816 87.3357 40.0051L87.3038 39.4498H87.2655V42.8133Z" fill="white"></path>
<path d="M91.5611 41.1282C91.5611 40.8602 91.6121 40.6049 91.7079 40.3687C91.81 40.1326 91.944 39.9284 92.1227 39.7497C92.3014 39.5773 92.512 39.4369 92.7482 39.3348C92.9907 39.2327 93.246 39.1816 93.5268 39.1816C93.8076 39.1816 93.8779 39.2008 94.0374 39.2455C94.197 39.2901 94.3501 39.3476 94.4842 39.4242C94.6246 39.5008 94.7458 39.5901 94.8607 39.6986C94.9692 39.8007 95.065 39.9156 95.1416 40.0369L95.1735 39.2774H95.5436V42.9727H95.1735L95.1416 42.2196C95.065 42.3409 94.9692 42.4558 94.8543 42.5579C94.7395 42.66 94.6182 42.7494 94.4778 42.8259C94.3374 42.9025 94.1906 42.96 94.031 43.0046C93.8715 43.0493 93.6991 43.0685 93.5268 43.0685C93.246 43.0685 92.9843 43.0174 92.7482 42.9153C92.5057 42.8132 92.3014 42.6791 92.1227 42.5004C91.944 42.3281 91.81 42.1175 91.7079 41.8814C91.6057 41.6452 91.5547 41.3899 91.5547 41.1155L91.5611 41.1282ZM91.9823 41.1282C91.9823 41.3516 92.0206 41.5622 92.1036 41.7537C92.1865 41.9452 92.3014 42.1111 92.4418 42.2515C92.5822 42.3919 92.7546 42.5004 92.946 42.5834C93.1375 42.6664 93.3417 42.7047 93.5651 42.7047C93.7885 42.7047 93.9864 42.6664 94.1842 42.5834C94.3757 42.5068 94.5416 42.3919 94.6884 42.2515C94.8352 42.1111 94.9437 41.9452 95.0267 41.7537C95.1096 41.5622 95.1479 41.3516 95.1479 41.1282C95.1479 40.9049 95.1033 40.7006 95.0203 40.5092C94.9373 40.3177 94.8224 40.1518 94.682 40.0113C94.5416 39.8709 94.3693 39.7624 94.1778 39.6795C93.9863 39.5965 93.7821 39.5582 93.5587 39.5582C93.3354 39.5582 93.1311 39.5965 92.9397 39.6795C92.7482 39.7624 92.5759 39.8709 92.4355 40.0113C92.295 40.1518 92.1802 40.3177 92.0972 40.5092C92.0142 40.7006 91.9759 40.9049 91.9759 41.1282H91.9823Z" fill="white"></path>
<path d="M93.5331 43.2404C93.2331 43.2404 92.9459 43.183 92.6906 43.0745C92.429 42.966 92.2056 42.8128 92.0141 42.6277C91.8226 42.4363 91.6695 42.2129 91.561 41.9576C91.4525 41.7023 91.395 41.4215 91.395 41.1279C91.395 40.8343 91.4525 40.5599 91.5546 40.3046C91.6631 40.0493 91.8163 39.8195 92.0077 39.6344C92.1992 39.443 92.429 39.2962 92.6843 39.1877C92.9459 39.0792 93.2267 39.0217 93.5267 39.0217C93.8267 39.0217 93.9097 39.0473 94.082 39.0919C94.2543 39.1366 94.4202 39.2068 94.567 39.2898C94.7202 39.3728 94.8542 39.4749 94.9755 39.5834C94.9819 39.5898 94.9883 39.5961 94.9946 39.6025L95.0074 39.277C95.0074 39.1877 95.084 39.1175 95.1734 39.1175H95.5435C95.6329 39.1175 95.7095 39.194 95.7095 39.2834V42.9788C95.7095 43.0681 95.6329 43.1447 95.5435 43.1447H95.1734C95.084 43.1447 95.0138 43.0745 95.0074 42.9851L94.9946 42.6596C94.9883 42.666 94.9755 42.6724 94.9691 42.6852C94.8479 42.8001 94.7138 42.8958 94.5606 42.9788C94.4139 43.0617 94.2479 43.1256 94.0756 43.1766C93.9033 43.2213 93.7182 43.2468 93.5267 43.2468L93.5331 43.2404ZM93.5331 39.3536C93.2778 39.3536 93.0353 39.3983 92.8183 39.494C92.6013 39.5834 92.4034 39.711 92.2439 39.8706C92.0843 40.0301 91.9567 40.2216 91.8673 40.4322C91.778 40.6492 91.7333 40.879 91.7333 41.1279C91.7333 41.3768 91.778 41.6129 91.8737 41.8236C91.963 42.0406 92.0907 42.232 92.2566 42.3916C92.4162 42.5511 92.6077 42.6788 92.831 42.7681C93.048 42.8575 93.2906 42.9086 93.5459 42.9086C93.8012 42.9086 93.865 42.8894 94.0118 42.8511C94.1586 42.8128 94.299 42.7554 94.4266 42.6852C94.5543 42.615 94.6691 42.532 94.7713 42.4363C94.8734 42.3405 94.9564 42.2384 95.0266 42.1299C95.0649 42.0661 95.1414 42.0406 95.2116 42.0597C95.2819 42.0789 95.3329 42.1427 95.3329 42.2129L95.3584 42.8064H95.4031V39.443H95.3584L95.3329 40.0429C95.3329 40.1131 95.2819 40.1769 95.2116 40.1961C95.1414 40.2152 95.0649 40.1833 95.0266 40.1259C94.9564 40.0174 94.867 39.9153 94.7713 39.8195C94.6691 39.7238 94.5543 39.6408 94.433 39.5706C94.3054 39.5004 94.1713 39.443 94.0181 39.4047C93.8714 39.3664 93.7182 39.3472 93.5522 39.3472L93.5331 39.3536ZM93.565 42.8639C93.3225 42.8639 93.0991 42.8192 92.8821 42.7299C92.6715 42.6405 92.4864 42.5192 92.3268 42.3661C92.1673 42.2129 92.0396 42.0278 91.9503 41.8172C91.8609 41.6066 91.8099 41.3704 91.8099 41.1279C91.8099 40.8854 91.8546 40.6492 91.9503 40.4386C92.0396 40.228 92.1673 40.0429 92.3205 39.8897C92.48 39.7365 92.6651 39.6153 92.8757 39.5259C93.0863 39.4366 93.3161 39.3919 93.5586 39.3919C93.8012 39.3919 94.0245 39.4366 94.2415 39.5259C94.4521 39.6153 94.6372 39.7365 94.7968 39.8897C94.9564 40.0429 95.084 40.228 95.1734 40.4386C95.2691 40.6492 95.3138 40.879 95.3138 41.1279C95.3138 41.3768 95.2691 41.6066 95.1734 41.8172C95.084 42.0278 94.9564 42.2129 94.7968 42.3661C94.6372 42.5192 94.4521 42.6469 94.2415 42.7299C94.0309 42.8192 93.8012 42.8639 93.565 42.8639ZM93.565 39.7302C93.3672 39.7302 93.1821 39.7685 93.0097 39.8387C92.8374 39.9089 92.6843 40.011 92.5566 40.1322C92.429 40.2535 92.3268 40.4067 92.2566 40.5726C92.1864 40.7386 92.1481 40.93 92.1481 41.1279C92.1481 41.3257 92.1864 41.5172 92.2566 41.6832C92.3332 41.8555 92.429 42.0023 92.5566 42.1299C92.6843 42.2512 92.8374 42.3533 93.0097 42.4235C93.1821 42.4937 93.3672 42.532 93.565 42.532C93.7629 42.532 93.948 42.4937 94.1203 42.4235C94.2926 42.3533 94.4458 42.2512 94.5734 42.1299C94.7011 42.0023 94.8032 41.8555 94.8798 41.6832C94.95 41.5172 94.9883 41.3257 94.9883 41.1215C94.9883 40.9173 94.95 40.7386 94.8734 40.5662C94.7968 40.3939 94.6947 40.2471 94.567 40.1195C94.4394 39.9982 94.2862 39.8961 94.1139 39.8259C93.9416 39.7557 93.7565 39.7174 93.5586 39.7174L93.565 39.7302Z" fill="white"></path>
<path d="M98.779 39.2514L98.8747 38.1855H99.2002V39.2897H100.598V39.6662H99.2002V41.6065C99.2002 41.8235 99.2258 41.9958 99.2768 42.1362C99.3279 42.2766 99.3917 42.3915 99.4747 42.4681C99.5576 42.5447 99.6534 42.6085 99.7619 42.6404C99.8704 42.6723 99.9789 42.6915 100.094 42.6915H100.758V43.0553H100.062C99.8768 43.0553 99.7108 43.0297 99.5576 42.9787C99.4045 42.9276 99.2704 42.8446 99.1555 42.7361C99.0407 42.6213 98.9513 42.4745 98.8875 42.2894C98.8237 42.1043 98.7918 41.8745 98.7918 41.6065V39.6662H98.1152V39.3216L98.7854 39.2578L98.779 39.2514Z" fill="white"></path>
<path d="M100.751 43.2148H100.055C99.8576 43.2148 99.6725 43.1892 99.5002 43.1318C99.3215 43.0744 99.1619 42.9786 99.0279 42.8446C98.8939 42.7169 98.7918 42.5446 98.7216 42.334C98.6513 42.1298 98.613 41.8872 98.613 41.6V39.8258H98.1025C98.0131 39.8258 97.9365 39.7492 97.9365 39.6598V39.3152C97.9365 39.2322 98.0003 39.1556 98.0897 39.1492L98.6258 39.0982L98.7088 38.1664C98.7152 38.0834 98.7854 38.0196 98.8747 38.0132H99.2002C99.2449 38.0132 99.2896 38.0259 99.3215 38.0579C99.3534 38.0898 99.3725 38.1344 99.3725 38.1727V39.1109H100.604C100.694 39.1109 100.77 39.1875 100.77 39.2769V39.6534C100.77 39.7428 100.694 39.8194 100.604 39.8194H99.3725V41.5937C99.3725 41.7851 99.3917 41.9511 99.4364 42.0723C99.4747 42.1872 99.5321 42.2766 99.5959 42.3404C99.6597 42.4042 99.73 42.4489 99.8129 42.4744C99.9023 42.4999 99.998 42.5191 100.094 42.5191H100.758C100.802 42.5191 100.847 42.5382 100.872 42.5702C100.904 42.6021 100.923 42.6467 100.923 42.6914V43.0552C100.923 43.1446 100.847 43.2212 100.751 43.2212V43.2148ZM98.2684 39.4939H98.779C98.8683 39.4939 98.9449 39.5705 98.9449 39.6598V41.6C98.9449 41.849 98.9768 42.0596 99.0343 42.2255C99.0917 42.3851 99.1683 42.5127 99.264 42.6085C99.3598 42.7042 99.4683 42.768 99.6023 42.8127C99.7427 42.8574 99.8959 42.8765 100.055 42.8765H100.585V42.8446H100.087C99.9597 42.8446 99.8321 42.8254 99.7044 42.7872C99.5704 42.7489 99.4555 42.6787 99.3534 42.5765C99.2513 42.4808 99.1747 42.3468 99.1173 42.1808C99.0598 42.0213 99.0343 41.8234 99.0343 41.5937V39.6534C99.0343 39.5641 99.1109 39.4875 99.2002 39.4875H100.432V39.4428H99.2002C99.1109 39.4428 99.0343 39.3662 99.0343 39.2769V38.3387H99.0215L98.9386 39.2577C98.9322 39.3343 98.8683 39.3981 98.7918 39.4045L98.2748 39.4556V39.4875L98.2684 39.4939Z" fill="white"></path>
<path d="M103.406 38.1415C103.406 38.0586 103.438 37.9883 103.496 37.9309C103.559 37.8735 103.636 37.8416 103.732 37.8416C103.827 37.8416 103.904 37.8735 103.962 37.9309C104.025 37.9883 104.057 38.0586 104.057 38.1415C104.057 38.2245 104.025 38.2947 103.962 38.3521C103.898 38.4096 103.821 38.4351 103.725 38.4351C103.63 38.4351 103.559 38.4032 103.496 38.3458C103.432 38.2883 103.406 38.2181 103.406 38.1351V38.1415ZM103.515 42.9793V39.284H103.936V42.9793H103.515Z" fill="white"></path>
<path d="M103.936 43.1451H103.515C103.425 43.1451 103.349 43.0686 103.349 42.9792V39.2838C103.349 39.1945 103.425 39.1179 103.515 39.1179H103.936C104.025 39.1179 104.102 39.1945 104.102 39.2838V42.9792C104.102 43.0686 104.025 43.1451 103.936 43.1451ZM103.681 42.8133H103.77V39.4498H103.681V42.8133ZM103.725 38.6073C103.591 38.6073 103.47 38.5626 103.381 38.4733C103.285 38.3839 103.24 38.2691 103.24 38.1414C103.24 38.0138 103.291 37.9053 103.381 37.8159C103.47 37.7266 103.591 37.6819 103.732 37.6819C103.872 37.6819 103.987 37.7266 104.076 37.8159C104.172 37.9053 104.223 38.0201 104.223 38.1478C104.223 38.2754 104.172 38.3967 104.076 38.4861C103.981 38.569 103.866 38.6137 103.732 38.6137L103.725 38.6073ZM103.732 38.0074C103.668 38.0074 103.636 38.0329 103.617 38.0521C103.585 38.0776 103.579 38.1095 103.579 38.1414C103.579 38.1733 103.591 38.2052 103.617 38.2308C103.636 38.2499 103.668 38.2691 103.732 38.2691C103.796 38.2691 103.834 38.2435 103.853 38.2244C103.878 38.1989 103.891 38.1733 103.891 38.135C103.891 38.0967 103.891 38.0776 103.847 38.0457C103.815 38.0138 103.783 38.001 103.732 38.001V38.0074Z" fill="white"></path>
<path d="M109.642 39.2834H110.095L108.487 42.9788H108.084L106.476 39.2834H106.929L108.282 42.4363L109.642 39.2834Z" fill="white"></path>
<path d="M108.487 43.145H108.085C108.021 43.145 107.957 43.1067 107.931 43.0428L106.323 39.3475C106.304 39.2964 106.304 39.239 106.336 39.1879C106.368 39.1432 106.419 39.1113 106.476 39.1113H106.929C106.993 39.1113 107.057 39.1496 107.083 39.2134L108.289 42.0153L109.495 39.2134C109.521 39.1496 109.578 39.1113 109.648 39.1113H110.101C110.159 39.1113 110.21 39.1369 110.242 39.1879C110.274 39.2326 110.28 39.2964 110.255 39.3475L108.646 43.0428C108.621 43.1003 108.563 43.145 108.493 43.145H108.487ZM108.193 42.8131H108.378L109.84 39.4496H109.75L108.436 42.5003C108.41 42.5642 108.353 42.6025 108.282 42.6025C108.219 42.6025 108.155 42.5642 108.129 42.5003L106.815 39.4496H106.725L108.187 42.8131H108.193Z" fill="white"></path>
<path d="M112.246 41.1282C112.246 40.8602 112.297 40.6049 112.392 40.3687C112.495 40.1326 112.629 39.9284 112.807 39.7497C112.986 39.5773 113.197 39.4369 113.433 39.3348C113.675 39.2327 113.931 39.1816 114.211 39.1816C114.492 39.1816 114.562 39.2008 114.722 39.2455C114.882 39.2901 115.035 39.3476 115.169 39.4242C115.309 39.5008 115.43 39.5901 115.545 39.6986C115.654 39.8007 115.75 39.9156 115.826 40.0369L115.858 39.2774H116.228V42.9727H115.858L115.826 42.2196C115.75 42.3409 115.654 42.4558 115.539 42.5579C115.424 42.66 115.303 42.7494 115.162 42.8259C115.022 42.9025 114.875 42.96 114.716 43.0046C114.556 43.0493 114.384 43.0685 114.211 43.0685C113.931 43.0685 113.669 43.0174 113.433 42.9153C113.19 42.8132 112.986 42.6791 112.807 42.5004C112.629 42.3281 112.495 42.1175 112.392 41.8814C112.29 41.6452 112.239 41.3899 112.239 41.1155L112.246 41.1282ZM112.673 41.1282C112.673 41.3516 112.712 41.5622 112.795 41.7537C112.877 41.9452 112.992 42.1111 113.133 42.2515C113.273 42.3919 113.446 42.5004 113.637 42.5834C113.828 42.6664 114.033 42.7047 114.256 42.7047C114.479 42.7047 114.677 42.6664 114.875 42.5834C115.073 42.5004 115.233 42.3919 115.379 42.2515C115.526 42.1111 115.635 41.9452 115.718 41.7537C115.801 41.5622 115.839 41.3516 115.839 41.1282C115.839 40.9049 115.794 40.7006 115.711 40.5092C115.628 40.3177 115.513 40.1518 115.373 40.0113C115.233 39.8709 115.06 39.7624 114.869 39.6795C114.677 39.5965 114.473 39.5582 114.25 39.5582C114.026 39.5582 113.822 39.5965 113.631 39.6795C113.439 39.7624 113.267 39.8709 113.126 40.0113C112.986 40.1518 112.871 40.3177 112.788 40.5092C112.705 40.7006 112.667 40.9049 112.667 41.1282H112.673Z" fill="white"></path>
<path d="M114.218 43.2404C113.918 43.2404 113.63 43.183 113.375 43.0745C113.114 42.966 112.89 42.8128 112.699 42.6277C112.507 42.4363 112.354 42.2129 112.246 41.9576C112.137 41.7023 112.08 41.4215 112.08 41.1279C112.08 40.8343 112.137 40.5599 112.239 40.3046C112.348 40.0493 112.501 39.8195 112.692 39.6344C112.884 39.443 113.114 39.2962 113.369 39.1877C113.63 39.0792 113.911 39.0217 114.211 39.0217C114.511 39.0217 114.594 39.0473 114.767 39.0919C114.939 39.1366 115.105 39.2068 115.252 39.2898C115.405 39.3728 115.539 39.4749 115.66 39.5834C115.666 39.5898 115.673 39.5961 115.679 39.6025L115.692 39.277C115.692 39.1877 115.769 39.1175 115.858 39.1175H116.228C116.317 39.1175 116.394 39.194 116.394 39.2834V42.9788C116.394 43.0681 116.317 43.1447 116.228 43.1447H115.858C115.769 43.1447 115.698 43.0745 115.692 42.9851L115.679 42.6596C115.673 42.666 115.66 42.6724 115.654 42.6852C115.532 42.8001 115.398 42.8958 115.245 42.9788C115.098 43.0617 114.932 43.1256 114.76 43.1766C114.588 43.2213 114.403 43.2468 114.211 43.2468L114.218 43.2404ZM114.218 39.3536C113.962 39.3536 113.72 39.3983 113.503 39.494C113.286 39.5834 113.088 39.711 112.928 39.8706C112.769 40.0301 112.641 40.2216 112.552 40.4322C112.463 40.6492 112.418 40.879 112.418 41.1279C112.418 41.3768 112.463 41.6129 112.558 41.8236C112.648 42.0406 112.775 42.232 112.941 42.3916C113.101 42.5511 113.292 42.6788 113.516 42.7681C113.733 42.8575 113.975 42.9086 114.23 42.9086C114.486 42.9086 114.55 42.8894 114.696 42.8511C114.843 42.8128 114.984 42.7554 115.111 42.6852C115.239 42.615 115.354 42.532 115.456 42.4363C115.558 42.3405 115.641 42.2384 115.711 42.1299C115.749 42.0661 115.826 42.0406 115.896 42.0597C115.966 42.0789 116.017 42.1427 116.017 42.2129L116.043 42.8064H116.088V39.443H116.043L116.017 40.0429C116.017 40.1131 115.966 40.1769 115.896 40.1961C115.826 40.2152 115.749 40.1833 115.711 40.1259C115.641 40.0174 115.552 39.9153 115.456 39.8195C115.354 39.7238 115.239 39.6408 115.118 39.5706C114.99 39.5004 114.856 39.443 114.703 39.4047C114.556 39.3664 114.403 39.3472 114.237 39.3472L114.218 39.3536ZM114.256 42.8639C114.013 42.8639 113.79 42.8192 113.573 42.7299C113.362 42.6405 113.177 42.5192 113.018 42.3661C112.858 42.2129 112.731 42.0278 112.641 41.8172C112.552 41.6066 112.501 41.3704 112.501 41.1279C112.501 40.8854 112.546 40.6492 112.641 40.4386C112.731 40.228 112.858 40.0429 113.011 39.8897C113.171 39.7365 113.356 39.6153 113.567 39.5259C113.777 39.4366 114.007 39.3919 114.25 39.3919C114.492 39.3919 114.715 39.4366 114.932 39.5259C115.143 39.6153 115.328 39.7365 115.488 39.8897C115.647 40.0429 115.775 40.228 115.864 40.4386C115.96 40.6492 116.005 40.879 116.005 41.1279C116.005 41.3768 115.96 41.6066 115.864 41.8172C115.775 42.0278 115.647 42.2129 115.488 42.3661C115.328 42.5192 115.143 42.6469 114.932 42.7299C114.722 42.8192 114.492 42.8639 114.256 42.8639ZM114.256 39.7302C114.058 39.7302 113.873 39.7685 113.701 39.8387C113.528 39.9089 113.375 40.011 113.248 40.1322C113.12 40.2535 113.018 40.4067 112.948 40.5726C112.877 40.7386 112.839 40.93 112.839 41.1279C112.839 41.3257 112.877 41.5172 112.948 41.6832C113.024 41.8555 113.12 42.0023 113.248 42.1299C113.375 42.2512 113.528 42.3533 113.701 42.4235C113.873 42.4937 114.058 42.532 114.256 42.532C114.454 42.532 114.639 42.4937 114.811 42.4235C114.984 42.3533 115.137 42.2512 115.264 42.1299C115.392 42.0023 115.494 41.8555 115.571 41.6832C115.641 41.5172 115.679 41.3257 115.679 41.1215C115.679 40.9173 115.641 40.7386 115.564 40.5662C115.488 40.3939 115.386 40.2471 115.258 40.1195C115.13 39.9982 114.977 39.8961 114.805 39.8259C114.633 39.7557 114.447 39.7174 114.25 39.7174L114.256 39.7302Z" fill="white"></path>
</svg>