<svg width="93" height="21" viewBox="0 0 93 21" fill="none" xmlns="http://www.w3.org/2000/svg">
<path d="M3.91541 0.459473H0.46245C0.207046 0.459473 0 0.666519 0 0.921923V19.8361C0 20.0915 0.207046 20.2986 0.46245 20.2986H3.91541C4.17081 20.2986 4.37786 20.0915 4.37786 19.8361V0.921923C4.37786 0.666519 4.17081 0.459473 3.91541 0.459473Z" fill="white"></path>
<path d="M34.1598 10.3713V0.798604C34.1598 0.613625 34.0056 0.459473 33.8206 0.459473H30.3831C30.1981 0.459473 30.0439 0.613625 30.0439 0.798604V19.944C30.0439 20.129 30.1981 20.2832 30.3831 20.2832H33.8206C34.0056 20.2832 34.1598 20.129 34.1598 19.944V14.1172H35.7167C36.9345 14.1172 38.0597 13.4235 38.6301 12.3136L39.7246 10.433H34.2368C34.1906 10.433 34.1598 10.4021 34.1598 10.3559V10.3713Z" fill="white"></path>
<path d="M45.2894 6.74879H43.7325C42.5147 6.74879 41.3894 7.44247 40.8191 8.55235L39.7246 10.433H45.2124C45.2586 10.433 45.2894 10.4638 45.2894 10.5101V19.9594C45.2894 20.1444 45.4436 20.2986 45.6286 20.2986H49.0661C49.2511 20.2986 49.4052 20.1444 49.4052 19.9594V0.798605C49.4052 0.613625 49.2511 0.459473 49.0661 0.459473H45.6286C45.4436 0.459473 45.2894 0.613625 45.2894 0.798605V6.74879Z" fill="white"></path>
<path d="M56.7734 0.428711H53.2588C53.0204 0.428711 52.8271 0.621954 52.8271 0.860331V19.8362C52.8271 20.0746 53.0204 20.2678 53.2588 20.2678H56.7734C57.0118 20.2678 57.205 20.0746 57.205 19.8362V0.860331C57.205 0.621954 57.0118 0.428711 56.7734 0.428711Z" fill="white"></path>
<path d="M92.1969 10.1709C92.1969 3.6349 87.6649 -0.742961 81.3601 0.104864C77.2135 0.659803 73.9763 4.23608 73.4831 8.73726C72.7277 15.7048 76.9052 20.6685 83.2253 20.6685C89.5455 20.6685 89.0985 19.3582 90.8249 17.0459C90.9637 16.861 90.9483 16.5835 90.7633 16.4293L88.6977 14.5641C88.5127 14.41 88.2506 14.4254 88.0965 14.6104C86.9095 16.0902 85.1214 16.938 83.2099 16.938C80.2348 16.938 78.1076 14.9495 77.6451 11.8203H92.0119C92.1198 11.2807 92.166 10.7412 92.166 10.1709H92.1969ZM77.6759 8.93766C78.0613 5.76217 80.1115 3.72739 83.0095 3.72739C85.9076 3.72739 87.8498 5.74675 88.189 8.93766H77.6605H77.6759Z" fill="white"></path>
<path d="M26.4678 0.474904H23.2769C23.0919 0.474904 22.9532 0.644469 22.9532 0.860279V15.2733C22.9532 15.597 22.7682 15.9053 22.5061 15.9824C22.2441 16.0595 21.9974 15.9207 21.8741 15.6433L16.0935 3.00296C15.2302 1.10692 13.5038 -0.00296175 11.6694 0.228263C9.35713 0.505733 7.61523 2.92589 7.61523 5.716V19.9286C7.61523 20.1444 7.75397 20.314 7.93895 20.314H11.1299C11.3148 20.314 11.4536 20.1444 11.4536 19.9286V5.57727C11.4536 5.26897 11.6231 4.97608 11.8698 4.88359C11.9314 4.86818 11.9777 4.85276 12.0393 4.85276C12.2397 4.85276 12.4401 4.9915 12.548 5.20731L18.2824 17.8014C19.0686 19.5433 20.5947 20.6223 22.2441 20.6223H22.2903C24.7875 20.6223 26.8069 18.2022 26.8069 15.2116V0.860279C26.8069 0.644469 26.6682 0.474904 26.4832 0.474904H26.4678Z" fill="white"></path>
<path d="M73.1443 0.937412C73.1443 0.706187 72.9593 0.536621 72.7435 0.536621H70.015C66.115 0.629111 63.6024 1.47694 62.1071 3.188C61.3826 4.005 60.9048 5.05322 60.6119 6.34808C60.3652 7.42713 60.2573 8.7374 60.2573 10.4485V19.7745C60.2573 20.0058 60.4423 20.1753 60.6581 20.1753H64.2036C64.4348 20.1753 64.6044 19.9904 64.6044 19.7745V4.66784H72.7281C72.9593 4.66784 73.1288 4.48286 73.1288 4.26705V0.952828L73.1443 0.937412Z" fill="white"></path>
</svg>