<svg width="132" height="40" viewBox="0 0 132 40" fill="none" xmlns="http://www.w3.org/2000/svg">
<path d="M100.797 20.5907C106.124 20.4432 110.564 24.6351 110.724 29.9607C110.883 35.2858 106.699 39.7352 101.373 39.9051C96.0311 40.0755 91.5657 35.8777 91.406 30.5366C91.2468 25.195 95.4541 20.7387 100.797 20.5907ZM124.676 21.2532C125.15 20.9892 129.735 21.0993 130.552 21.1516C130.674 22.2961 130.594 24.8648 130.593 26.1428L130.587 34.3155C130.586 35.9066 130.55 37.7322 130.625 39.3056C126.339 39.4948 126.991 39.9115 124.018 36.9068L120.178 33.0397C119.633 32.4851 119.114 31.8226 118.476 31.407C118.474 31.8039 118.504 32.2484 118.52 32.6491C118.672 32.8922 118.585 34.1098 118.571 34.4769C118.649 34.409 118.731 33.9779 118.763 33.8432C118.992 34.1788 119.014 38.3771 118.82 38.8478C118.678 38.6827 118.666 38.4417 118.624 38.2162C118.567 38.555 118.63 38.8387 118.534 39.1373C118.193 39.5535 113.213 39.413 112.418 39.2928C112.338 38.5945 112.382 37.0547 112.383 36.2998L112.384 30.5815V24.6094C112.384 23.597 112.327 22.1011 112.446 21.1458C113.591 21.0795 115.272 21.0763 116.416 21.142C116.669 21.313 116.878 21.5192 117.092 21.7361C119.066 23.7386 121.077 25.7052 123.005 27.7536C123.478 28.2564 123.97 28.8045 124.534 29.2015C124.482 27.9753 124.216 22.0978 124.676 21.2532ZM1.68471 0.579032C4.23938 0.663447 6.91362 0.459889 9.45616 0.602005C10.1961 1.22283 11.106 2.27801 11.8328 2.98592C14.751 5.87259 17.6393 8.78863 20.4981 11.7341L38.7168 30.059C38.7307 30.1301 38.7424 30.2011 38.7526 30.2727C38.7761 30.4458 38.7857 31.937 38.7686 32.0684C38.6644 32.8554 38.9251 39.0705 38.7007 39.3708C38.362 39.3922 37.9982 39.3948 37.6562 39.3884C35.0469 39.3382 32.4012 39.5006 29.8014 39.3334C29.3248 39.303 28.7409 38.6474 28.3904 38.3162C26.7747 36.7903 25.2238 35.1036 23.6637 33.5318L9.67532 19.3693C7.73623 17.424 5.79892 15.5274 3.89435 13.5292C2.97391 12.6525 2.07478 11.7645 1.18805 10.8541C0.492754 10.1403 0.100815 10.0142 0.0835042 8.91525C0.0415106 6.25832 0.0382532 3.58271 0.090772 0.926313C0.0949927 0.713139 0.154778 0.699783 0.301061 0.590258C0.739216 0.564078 1.24496 0.564607 1.68471 0.579032ZM51.5868 21.181C52.5848 21.0662 54.5515 20.9203 55.4619 21.235C56.5806 21.6223 60.7581 26.2283 61.8966 27.401C62.4389 27.9593 62.9571 28.6005 63.5876 29.0605L63.6186 29.0824C63.7185 26.8416 63.4706 23.1701 63.7238 21.1132C64.5883 21.1143 68.9554 21.0549 69.5265 21.1613C69.7317 21.3851 69.6719 21.3723 69.7194 21.734L69.7531 21.7068C69.893 21.5914 69.8995 21.5849 69.9913 21.4327L70.1612 21.4113C70.1928 21.4444 70.2243 21.4781 70.2553 21.5112C70.2756 27.0986 70.2617 32.6871 70.2676 38.2745C70.2681 38.8739 70.181 38.8974 69.7621 39.3083L69.7616 39.3078C68.8357 39.4536 67.0716 39.428 66.1184 39.3281C64.4691 39.1544 58.4602 31.7184 57.7966 31.5849C57.6727 31.8189 57.6903 32.2244 57.6818 32.5044C57.7988 33.7514 58.5558 38.3952 57.6855 39.2736C56.9535 39.459 52.4785 39.4168 51.5745 39.2843C51.5307 37.6905 51.5948 35.7239 51.5959 34.0847L51.5868 21.181ZM72.0868 21.1346C76.12 20.9818 80.3044 21.1997 84.3536 21.1137C86.2177 21.0742 88.258 21.0566 90.1098 21.133C90.2626 21.9824 90.2183 26.2678 90.2028 27.3428C87.3172 27.4416 84.4124 27.378 81.5246 27.3706C80.6751 27.3684 79.8075 27.2877 78.9623 27.3241C78.7667 27.3326 78.5381 27.3551 78.3714 27.4673C78.2399 27.5554 78.1705 27.6607 78.1625 27.8236C78.1539 27.9834 78.2261 28.2254 78.3692 28.3178C78.9115 28.6662 87.143 27.9743 87.6981 28.5978C88.0646 29.0102 87.8825 31.4433 87.8696 32.1026C85.4847 32.0401 82.8619 32.0972 80.4492 32.0882C79.6136 32.0785 78.8885 32.062 78.0658 32.2212C78.1074 32.5428 78.1993 32.9264 78.2672 33.2491C80.8766 33.3699 83.5864 33.2588 86.2016 33.2887C87.2568 33.301 89.1861 33.1989 90.1387 33.3832C90.276 34.369 90.1959 38.1265 90.2028 39.311C89.2881 39.4184 87.8793 39.3761 86.9058 39.3751L81.4648 39.3703L75.6343 39.3756C74.5503 39.3761 73.0639 39.4285 72.0242 39.2992C71.9644 38.1174 72.0125 36.5461 72.0125 35.3413L72.0082 27.8696L72.0077 23.6408C72.0077 23.0424 71.9756 21.6667 72.0868 21.1346ZM0.171125 13.5549C1.29491 14.2334 1.87064 15.1139 2.78195 16.0264L8.46017 21.7559C9.3734 22.6765 12.6167 25.7202 12.9952 26.5328L13.0223 26.5927C13.1961 26.9693 13.4467 27.034 13.4658 27.4913C13.5177 28.7356 13.4973 29.9901 13.4971 31.236L13.4898 38.3049C13.4867 38.6303 13.5017 38.8884 13.3302 39.1678C13.2259 39.2127 13.136 39.2559 13.027 39.2885L12.8496 39.3206C12.4238 39.3836 11.9187 39.3745 11.5051 39.3735C7.96244 39.3607 4.41879 39.3943 0.876521 39.3713C0.605272 39.3692 0.262914 39.2907 0 39.2217C0.201367 33.4121 -0.0189685 27.3935 0.060531 21.5646C0.0967545 18.9056 0.00176162 16.2145 0.171125 13.5549ZM98.3061 27.3294C98.1324 27.79 98.3034 29.9575 98.2569 30.6072C98.2051 31.314 98.0293 32.6449 98.2307 33.2614C99.31 33.3063 102.816 33.3736 103.804 33.2411C104.07 32.9959 104.067 32.7907 104.075 32.4381C104.115 30.7749 104.058 29.0979 104.057 27.4336C102.07 27.2621 100.067 27.4662 98.3061 27.3294ZM28.8066 0.599339C30.4158 0.77832 37.8774 0.299073 38.7862 0.76656L38.7803 0.821596C38.6927 1.69139 38.7632 4.398 38.7632 5.39388L38.7606 20.1403C38.7611 20.9321 38.868 25.8399 38.6927 26.0456C37.6338 25.9056 27.6365 15.1187 26.1042 13.9267C26.0626 13.8941 25.9584 13.658 25.9311 13.5944C25.8045 12.9811 25.843 9.9715 25.8499 9.23207C25.8777 6.40258 25.8034 3.49241 25.8852 0.676273C26.3249 0.604146 28.3861 0.552858 28.8066 0.599339ZM121.35 0.0175165C126.688 -0.300909 131.278 3.76008 131.61 9.09691C131.942 14.4337 127.892 19.0327 122.556 19.3784C117.199 19.7257 112.579 15.6577 112.246 10.3017C111.913 4.94562 115.993 0.33701 121.35 0.0175165ZM99.1128 0.577434C100.774 0.577434 104.383 0.394175 105.916 0.689626C110.565 1.58667 112.132 7.91403 109.152 11.3115C107.827 12.8224 106.512 13.2434 104.544 13.3716C101.526 13.4619 98.4012 13.3534 95.3649 13.4021C95.4306 13.5586 95.4894 13.7189 95.5412 13.8808C95.6588 14.2638 95.7442 18.4808 95.6134 18.7026C95.5621 18.7907 95.5188 18.7982 95.4221 18.8254C94.8029 18.9975 93.1253 18.9809 92.5621 18.6801C92.3869 18.2425 92.5231 15.1091 92.5231 14.4011L92.513 4.22009C92.5098 3.27496 92.4799 1.77419 92.4612 0.774573C92.5173 0.710461 92.5659 0.655436 92.6065 0.609489L92.6642 0.603611C93.2802 0.549116 94.3258 0.580104 94.9706 0.57957L99.1128 0.577434ZM86.6665 1.64491C88.0737 0.279846 88.1165 0.523473 90.1788 0.554461C90.2776 2.98486 90.4566 2.75244 88.6935 4.44074C86.9902 6.0724 85.2677 8.10423 83.4833 9.64667C85.1443 11.4819 86.9614 13.1664 88.7154 14.9124C89.2336 15.4275 89.7732 15.8832 90.1873 16.4928C90.2113 17.1265 90.2952 18.2655 90.0837 18.8527C90.0003 18.8623 89.9164 18.8692 89.8325 18.873C89.3239 18.8954 88.0187 18.9435 87.6805 18.6438C85.6342 16.8273 83.0959 13.986 81.133 12.1743C80.6714 12.528 79.9395 13.2829 79.5014 13.7114C78.4163 14.7709 77.3445 15.8426 76.284 16.9261C75.7048 17.5106 74.8361 18.4295 74.1522 18.8463C73.6345 18.9018 72.5991 18.9622 72.1546 18.7122C71.8212 18.2645 71.9329 17.4043 72.0114 16.8711C72.0296 16.7482 72.1605 16.2695 72.2406 16.1803C73.7457 14.5203 75.4281 13.0206 76.9967 11.4188C77.5096 10.8931 78.2277 10.2734 78.631 9.67606C77.8328 8.70315 76.1755 7.22108 75.2651 6.28237C74.1966 5.18017 73.0436 4.05233 71.9526 2.97203C71.9115 2.43776 71.8939 1.07377 72.0985 0.608421C72.8924 0.522938 73.5629 0.543771 74.3542 0.599869C75.0493 1.17474 75.7465 1.96173 76.4005 2.57721C78.0011 4.08278 79.5169 5.83465 81.1629 7.26383C82.9672 5.36183 84.8019 3.48867 86.6665 1.64491ZM52.12 0.598801C55.7621 0.49729 59.7323 0.586513 63.4011 0.583842L67.2719 0.577964C67.9617 0.576361 68.949 0.53576 69.6024 0.623381C69.9027 0.945011 69.962 3.2819 69.8086 3.65429C69.4501 3.93318 67.1565 3.79587 66.5619 3.7948L59.2669 3.78733C58.0055 3.78733 56.0704 3.73657 54.8539 3.87441C54.9062 5.33297 54.8907 6.38495 54.8645 7.8216C55.6585 8.02409 57.9024 7.96585 58.8417 7.96532L64.7475 7.94556C65.3598 7.94128 66.8701 7.87984 67.3702 8.05615C67.6283 8.44831 67.7447 10.9775 67.468 11.3392C67.0491 11.6053 60.7196 11.4573 59.6473 11.4562C58.0568 11.4424 56.4658 11.4605 54.8758 11.5107C54.8277 12.5173 54.9639 13.8503 54.9121 14.8959C54.9078 14.9749 54.9586 15.3222 54.98 15.3281C56.6741 15.786 69.089 15.1336 69.6531 15.6727C69.9523 16.262 69.8717 17.6271 69.8503 18.3179C69.8428 18.5476 69.6478 18.6983 69.4859 18.8174C68.903 18.8992 65.917 18.7966 65.1204 18.7977L55.6077 18.826C54.5349 18.8212 52.5586 18.9339 51.5916 18.6935C51.714 14.2174 51.6333 9.40518 51.6322 4.90716C51.637 3.95883 51.6327 3.0105 51.6189 2.06271C51.6103 1.72077 51.5179 1.07698 51.5638 0.817854C51.7733 0.5972 51.754 0.661311 52.12 0.598801ZM128.223 9.29565C128.007 5.81916 125.017 3.17345 121.54 3.38182C118.054 3.59125 115.4 6.58904 115.615 10.0741C115.831 13.5591 118.833 16.2075 122.319 15.9863C125.795 15.7657 128.437 12.7722 128.223 9.29565ZM100.63 3.78519C99.2304 3.78947 97.7761 3.74832 96.3822 3.82366C96.1444 3.8493 95.8751 3.84236 95.709 3.98875C95.5514 4.67208 95.5695 9.28283 95.7907 9.93678C96.2262 10.0372 97.775 10.0778 98.251 10.0335C100.428 9.82885 104.156 10.4919 106.071 9.52806C106.768 8.93556 107.166 8.40342 107.251 7.44975C107.388 5.9009 106.527 4.05927 104.827 3.87495C103.431 3.72429 102.032 3.8071 100.63 3.78519Z" fill="white"></path>
</svg>