<svg width="183" height="45" viewBox="0 0 183 45" fill="none" xmlns="http://www.w3.org/2000/svg">
<path fill-rule="evenodd" clip-rule="evenodd" d="M61.4175 11.6807C65.2934 11.6807 67.5809 14.7255 67.5809 18.182C67.5809 21.6709 65.262 24.5569 61.4175 24.5569H54.8955V33.8807H53.1885V11.6807H61.4175ZM75.9687 11.6807L85.1822 33.8807H83.3485L81.2197 28.7115H69.5422L67.4131 33.8807H65.6109L74.8251 11.6807H75.9687ZM75.3972 13.7764L69.828 27.5265H80.9019L75.3972 13.7764ZM61.4175 13.3212H54.8955V22.9164H61.4175C64.7537 22.9164 65.8421 20.8779 65.8421 18.182C65.8421 15.4861 64.7851 13.3212 61.4175 13.3212ZM88.51 15.2268V33.8807H86.8023V11.6807H88.0535L102.062 31.2139V11.6807H103.769V33.8807H102.062L88.5097 15.2264L88.51 15.2268ZM115.96 11.6804C122.029 11.6804 125.882 16.6598 125.882 22.7804C125.882 28.9334 122.029 33.8811 115.96 33.8811H108.407V11.6804H115.96ZM136.103 11.5881L145.316 33.7882H143.482L141.354 28.619H129.676L127.547 33.7882H125.745L134.959 11.5881H136.103ZM115.048 13.3212H110.114V32.2402H115.048C120.639 32.2402 124.143 28.521 124.143 22.7804C124.143 17.0725 120.639 13.3212 115.048 13.3212ZM135.531 13.6838L129.962 27.4339H141.036L135.531 13.6838Z" fill="white"></path>
<path fill-rule="evenodd" clip-rule="evenodd" d="M156.605 22.9396C159.147 22.9396 160.672 21.1637 160.672 18.6259C160.672 16.0573 159.115 14.2814 156.605 14.2814H151.554V22.9396H156.605ZM148.376 33.8808V11.6808H157.273C161.53 11.6808 163.976 14.9157 163.976 18.6579C163.976 22.4002 161.499 25.4764 157.273 25.4764H151.554V33.8812L148.376 33.8808ZM178.941 5.21094L175.827 9.61953H173.19L175.668 5.21127L178.941 5.21094ZM182.34 33.8808H168.202V11.6808H182.34V14.2814H171.379V21.7024H180.942V24.303H171.379V31.2802H182.34V33.8805V33.8808Z" fill="white"></path>
<path d="M22.1621 0C34.4017 9.27723e-05 44.3242 9.92247 44.3242 22.1621C44.3241 34.4017 34.4017 44.3241 22.1621 44.3242C9.92247 44.3242 9.27784e-05 34.4017 0 22.1621C0 9.92241 9.92241 0 22.1621 0ZM22.0986 20.1357C19.4811 20.1359 17.7667 21.9024 16.2549 23.7852C14.9891 25.3609 13.4576 26.0407 13.1611 29.0186C13.109 31.0848 13.5821 32.0328 14.1211 32.7139C14.9698 33.784 16.9058 34.3153 18.9697 33.5977C19.4109 33.4443 19.8866 33.1942 20.3691 32.9346C20.4424 32.8951 21.0767 32.5238 21.8369 31.8301C22.5688 31.1617 24.1457 29.7275 24.9404 27.8721C25.0591 27.5953 25.3718 27.4599 25.6504 27.5732C25.9294 27.6868 26.085 28.0135 25.9502 28.2842C24.8674 30.449 23.8829 31.3518 22.9014 32.3223C24.0127 32.5024 25.0306 33.2778 25.9492 33.5977C28.0135 34.3155 29.5896 33.7829 30.4385 32.7129C30.9765 32.0322 31.2527 30.8676 31.0371 29.0186C30.6808 26.5427 28.924 24.981 27.5615 23.4004C26.1703 21.4989 24.7019 20.1357 22.0986 20.1357ZM35.3555 19.5332C33.9649 18.7302 31.4917 20.8811 30.7939 22.0898C30.0572 23.3664 30.4959 25.0024 31.7725 25.7393C33.0485 26.4757 34.6839 26.0377 35.4209 24.7617C36.1203 23.55 36.7454 20.3361 35.3555 19.5332ZM13.4893 21.6807C12.7685 20.4813 10.261 18.3768 8.88477 19.2031C7.50825 20.0302 8.19068 23.2362 8.90918 24.4326C9.66843 25.6957 11.312 26.1054 12.5752 25.3467C13.8384 24.5874 14.2478 22.9439 13.4893 21.6807ZM18.5352 16.6016C18.085 15.1285 15.9663 12.2127 14.2764 12.7295C12.5865 13.2461 12.4621 16.851 12.9111 18.3203C13.3853 19.8716 15.0317 20.748 16.583 20.2734C18.134 19.7991 19.0095 18.1527 18.5352 16.6016ZM30.5547 12.8193C28.9048 12.1861 26.5865 14.9504 26.0361 16.3848C25.4552 17.8992 26.2132 19.6021 27.7275 20.1836C29.242 20.7647 30.9458 20.0066 31.5273 18.4922C32.0791 17.0545 32.2045 13.4527 30.5547 12.8193ZM22.2852 9.6709C20.5181 9.6713 19.3447 13.082 19.3447 14.6182C19.3448 16.2406 20.6637 17.5586 22.2861 17.5586C23.9077 17.5584 25.2255 16.2405 25.2256 14.6182C25.2256 13.0779 24.0527 9.6709 22.2852 9.6709Z" fill="white"></path>
</svg>