<svg width="131" height="36" viewBox="0 0 131 36" fill="none" xmlns="http://www.w3.org/2000/svg">
<path d="M8.55776 11.8327C8.79625 10.4111 10.1603 8.69454 11.4262 8.01048C12.7407 7.31636 14.2792 7.17954 15.6955 7.63103C17.8218 8.31958 18.7969 9.82621 19.7302 11.6658C21.9486 10.7599 25.4147 11.0355 27.8818 11.0606C28.672 20.4789 26.6253 27.1254 15.5916 26.1593C11.6943 25.8181 7.23618 27.3106 4.00368 24.3849C-0.333441 20.5495 -0.0247409 16.2723 0.0228346 11.0561C2.24013 11.0409 6.72292 10.686 8.55776 11.8327Z" fill="white"></path>
<path d="M8.55762 11.8327C8.79611 10.4111 10.1602 8.69454 11.4261 8.01048C12.7405 7.31636 14.2791 7.17954 15.6953 7.63103C17.8217 8.31958 18.7967 9.82621 19.7301 11.6658C16.1034 13.9394 15.0987 15.9446 13.916 19.9087C13.0458 15.8177 12.4053 13.9883 8.55762 11.8327Z" fill="white"></path>
<path d="M115.789 6.43579C112.893 6.5568 112.268 6.69986 111.924 9.78735L115.787 9.79224L115.795 12.927C119.124 8.81416 124.873 7.83133 128.832 11.8967C130.938 14.0595 131.065 16.5454 130.937 19.4055L118.153 19.3997C119.15 22.0447 120.861 23.2447 123.825 23.0364C125.382 22.9272 126.384 22.2217 127.351 21.0393L130.336 22.7727C129.874 23.423 129.464 23.8407 128.922 24.4143C128.321 24.9057 127.402 25.511 126.672 25.7493C118.068 28.5579 111.769 21.3011 115.602 13.2112L111.947 13.2063L111.945 25.9661L108.344 25.9602L108.341 13.2112L106.006 13.1956L106.004 9.78833L108.299 9.7854C108.728 5.78568 109.508 3.67518 113.815 2.94751C114.146 2.88801 115.38 2.88556 115.784 2.8772L115.789 6.43579ZM127.416 16.4495C126.553 13.3554 124.814 12.369 121.633 12.7288C119.438 13.5346 118.883 14.2881 118.079 16.4573L124.052 16.4543L127.416 16.4495Z" fill="white"></path>
<path d="M43.406 3.2557C47.5581 2.71651 50.5051 4.52898 52.4271 8.12728C51.3812 8.74951 50.3291 9.36121 49.271 9.96269C48.9055 9.32542 48.4837 8.63099 47.9433 8.13271C46.9627 7.23298 45.6592 6.76955 44.3307 6.84811C40.0429 7.09214 40.2939 11.2589 44.4121 12.4614C47.5347 13.373 52.7939 14.8808 53.0009 18.6943C53.2932 24.079 50.0306 25.898 45.1914 26.2764C41.0354 26.2118 38.1477 24.6312 36.4927 20.7443C37.4986 20.1 38.6987 19.4264 39.7377 18.8094C41.0254 22.0031 43.231 22.9106 46.5957 22.4852C48.9286 22.1682 50.3475 19.5333 48.2649 17.8385C47.3921 17.1233 46.3098 16.8737 45.2786 16.4917C42.4074 15.4277 38.1099 14.6087 37.5739 10.9617C36.9401 6.64947 39.2618 4.0259 43.406 3.2557Z" fill="white"></path>
<path d="M54.2451 3.36494L57.7981 3.36401L57.8004 11.56L57.9397 11.4136C59.2945 10.0061 60.5273 9.41484 62.5133 9.382C64.1839 9.32684 65.8901 9.77554 67.0942 10.98C69.1197 13.0063 68.9662 15.9863 68.9538 18.6318C68.9414 21.071 68.9368 23.522 68.926 25.967L65.3849 25.9594L65.3865 18.0527C65.4206 16.4605 65.4903 14.9503 64.2924 13.6989C63.6338 13.0204 62.7287 12.6374 61.7839 12.6374C60.7775 12.6253 59.8082 13.0164 59.0922 13.7234C57.1148 15.7083 57.7838 22.9938 57.7969 25.9654L54.2493 25.9606L54.2451 3.36494Z" fill="white"></path>
<path d="M83.9798 9.4447C87.9052 9.20005 90.7581 10.337 91.3501 14.5997C91.9297 18.7781 89.6935 21.8531 91.2928 25.9629L87.9067 25.9596C87.8633 23.1168 87.9702 20.2342 87.9455 17.387C87.916 14.1623 86.9583 12.6144 83.58 12.7252C80.8975 13.6152 80.2853 15.3824 80.2853 18.1089C80.2853 20.7244 80.3179 23.3472 80.3225 25.9632L76.7954 25.959L76.7861 9.79146L80.3179 9.7834L80.3411 11.5567C81.5964 10.2564 82.238 9.87822 83.9798 9.4447Z" fill="white"></path>
<path d="M99.8825 0.0373906C100.155 -0.0338813 100.174 0.00160285 100.436 0.102623C101.022 1.72065 96.0687 21.1991 97.1674 22.4744C97.7269 22.711 98.5219 22.587 99.151 22.5416C98.8907 23.5931 98.6753 24.734 98.4258 25.8061C97.2403 26.0694 96.8203 26.1488 95.5976 26.1953C93.4435 25.9731 92.4223 25.2638 92.5308 22.9471C92.616 20.6523 93.2359 18.3828 93.5675 16.1185C94.3346 10.8977 95.6735 5.52347 96.2919 0.294434C97.279 0.141819 98.8411 0.0954926 99.8825 0.0373906Z" fill="white"></path>
<path d="M70.9839 9.78735L74.5559 9.78967L74.545 25.9637L70.9668 25.9591L70.9839 9.78735Z" fill="white"></path>
<path d="M101.38 9.78809L104.916 9.79165L104.905 25.9654L101.372 25.9597L101.38 9.78809Z" fill="white"></path>
<path d="M72.1509 2.99268C72.9521 2.78026 73.8044 3.01809 74.3809 3.61398C74.9558 4.21003 75.165 5.07087 74.9248 5.86385C74.6846 6.65682 74.0338 7.25784 73.2233 7.43447C72.0099 7.69926 70.8058 6.94594 70.5144 5.7382C70.2231 4.5306 70.9499 3.31108 72.1509 2.99268Z" fill="white"></path>
<path d="M102.633 2.983C103.438 2.79289 104.281 3.05164 104.84 3.65962C105.398 4.2676 105.585 5.12999 105.327 5.91445C105.069 6.69875 104.409 7.28302 103.599 7.44183C102.379 7.6809 101.192 6.90001 100.929 5.68529C100.667 4.47057 101.425 3.26902 102.633 2.983Z" fill="white"></path>
<mask id="mask0_9589_1213" style="mask-type:luminance" maskUnits="userSpaceOnUse" x="88" y="30" width="43" height="6">
<path d="M130.972 30.8843H88.6899V35.335H130.972V30.8843Z" fill="white"></path>
</mask>
<g mask="url(#mask0_9589_1213)">
<path d="M90.1563 34.3334C89.871 34.3334 89.6296 34.2679 89.4322 34.137C89.2343 34.0061 89.0999 33.8292 89.0293 33.6052L89.2318 33.4866C89.2875 33.6779 89.3939 33.8292 89.5509 33.9407C89.7073 34.0527 89.9093 34.1084 90.1563 34.1084C90.4058 34.1084 90.5971 34.0511 90.7311 33.9366C90.8645 33.8221 90.9315 33.6738 90.9315 33.4907C90.9315 33.322 90.8666 33.1916 90.7372 33.1C90.6088 33.009 90.4079 32.9195 90.1338 32.8321C90.0341 32.7994 89.961 32.7748 89.9149 32.7585C89.8699 32.7421 89.8045 32.7175 89.7186 32.6848C89.6337 32.6511 89.5713 32.6209 89.5304 32.5948C89.4895 32.5677 89.4404 32.5324 89.3831 32.4885C89.3259 32.4435 89.2834 32.3985 89.2563 32.3535C89.2303 32.3085 89.2072 32.2548 89.1868 32.1919C89.1663 32.128 89.1561 32.0579 89.1561 31.9812C89.1561 31.7317 89.2446 31.5312 89.422 31.3799C89.6005 31.2285 89.8234 31.1528 90.0909 31.1528C90.3307 31.1528 90.5357 31.2137 90.7065 31.3349C90.8768 31.455 91.0016 31.6105 91.0808 31.8012L90.8824 31.9117C90.7362 31.5558 90.4723 31.3778 90.0909 31.3778C89.8792 31.3778 89.7104 31.4341 89.5836 31.5455C89.4578 31.6575 89.3954 31.8002 89.3954 31.973C89.3954 32.1397 89.4537 32.2645 89.5713 32.3473C89.6884 32.4292 89.8807 32.5145 90.1481 32.603C90.3184 32.6577 90.4513 32.7053 90.547 32.7462C90.6421 32.7861 90.7444 32.8403 90.8538 32.9098C90.9642 32.9783 91.044 33.0602 91.0931 33.1553C91.1432 33.2509 91.1688 33.3613 91.1688 33.4866C91.1688 33.7433 91.0757 33.9484 90.8906 34.1023C90.7065 34.2567 90.4616 34.3334 90.1563 34.3334Z" fill="white"></path>
<path d="M92.7491 32.0344C93.0723 32.0344 93.3341 32.149 93.5346 32.378C93.736 32.6071 93.8373 32.8787 93.8373 33.1921C93.8373 33.2044 93.8363 33.2223 93.8352 33.2453C93.8337 33.2688 93.8332 33.2862 93.8332 33.2985H91.8389C91.8645 33.5455 91.9637 33.7444 92.1355 33.8957C92.3073 34.0461 92.519 34.1207 92.7716 34.1207C92.9475 34.1207 93.1015 34.0849 93.2339 34.0123C93.3658 33.9387 93.4655 33.8415 93.5325 33.7198L93.7268 33.8344C93.6353 33.9873 93.5059 34.1084 93.3382 34.1984C93.1715 34.2884 92.9813 34.3334 92.7675 34.3334C92.429 34.3334 92.1519 34.2261 91.9351 34.0103C91.7183 33.7935 91.6099 33.5183 91.6099 33.1839C91.6099 32.8556 91.7162 32.5821 91.9289 32.3637C92.1417 32.1444 92.4147 32.0344 92.7491 32.0344ZM92.7491 32.2451C92.4996 32.2451 92.291 32.3228 92.1233 32.4783C91.9566 32.6337 91.862 32.8352 91.8389 33.0817H93.6082C93.5847 32.8214 93.4916 32.6168 93.328 32.468C93.1654 32.3198 92.9726 32.2451 92.7491 32.2451Z" fill="white"></path>
<mask id="mask1_9589_1213" style="mask-type:luminance" maskUnits="userSpaceOnUse" x="94" y="31" width="3" height="5">
<path d="M94.188 31.9316H96.5443V35.283H94.188V31.9316Z" fill="white"></path>
</mask>
<g mask="url(#mask1_9589_1213)">
<path d="M96.3081 32.0835H96.5269V34.178C96.5269 34.4981 96.4226 34.7507 96.214 34.9348C96.0064 35.1199 95.7456 35.2129 95.4306 35.2129C95.178 35.2129 94.9622 35.1659 94.7822 35.0718C94.6032 34.9777 94.4734 34.8489 94.3915 34.6852L94.5859 34.5748C94.726 34.8596 95.0077 35.0023 95.4306 35.0023C95.7031 35.0023 95.9174 34.9276 96.0728 34.7793C96.2293 34.6305 96.3081 34.4301 96.3081 34.178V33.773C96.2165 33.9463 96.0877 34.0834 95.9215 34.1841C95.7563 34.2838 95.5697 34.3334 95.3611 34.3334C95.043 34.3334 94.773 34.223 94.5511 34.0021C94.3302 33.7802 94.2197 33.5071 94.2197 33.1839C94.2197 32.8608 94.3302 32.5887 94.5511 32.3678C94.773 32.1459 95.043 32.0344 95.3611 32.0344C95.5697 32.0344 95.7563 32.0845 95.9215 32.1837C96.0877 32.2834 96.2165 32.42 96.3081 32.5928V32.0835ZM94.7106 33.8487C94.8916 34.0302 95.1125 34.1207 95.3733 34.1207C95.6351 34.1207 95.856 34.0302 96.036 33.8487C96.217 33.6661 96.3081 33.4447 96.3081 33.1839C96.3081 32.9221 96.217 32.7007 96.036 32.5192C95.856 32.3366 95.6351 32.2451 95.3733 32.2451C95.1125 32.2451 94.8916 32.3366 94.7106 32.5192C94.5306 32.7007 94.4406 32.9221 94.4406 33.1839C94.4406 33.4447 94.5306 33.6661 94.7106 33.8487Z" fill="white"></path>
</g>
<path d="M98.7909 32.0835H99.0118V34.2843H98.7909V33.865C98.6324 34.1775 98.3695 34.3334 98.0014 34.3334C97.7406 34.3334 97.5335 34.2536 97.3796 34.0941C97.2251 33.9335 97.1484 33.7193 97.1484 33.4519V32.0835H97.3734V33.4519C97.3734 33.6579 97.4292 33.821 97.5412 33.9407C97.6542 34.0609 97.8137 34.1207 98.0198 34.1207C98.2458 34.1207 98.4309 34.0466 98.5741 33.8978C98.7183 33.7479 98.7909 33.5306 98.7909 33.2453V32.0835Z" fill="white"></path>
<path d="M99.9078 32.513C100.04 32.2052 100.285 32.0508 100.644 32.0508V32.2635C100.436 32.2635 100.26 32.3305 100.118 32.4639C99.9779 32.5979 99.9078 32.7963 99.9078 33.0592V34.2843H99.689V32.0835H99.9078V32.513Z" fill="white"></path>
<path d="M101.965 34.3334C101.642 34.3334 101.368 34.223 101.143 34.0021C100.919 33.7802 100.808 33.5071 100.808 33.1839C100.808 32.8608 100.919 32.5887 101.143 32.3678C101.368 32.1459 101.642 32.0344 101.965 32.0344C102.284 32.0344 102.556 32.1459 102.781 32.3678C103.006 32.5887 103.119 32.8608 103.119 33.1839C103.119 33.5071 103.006 33.7802 102.781 34.0021C102.556 34.223 102.284 34.3334 101.965 34.3334ZM101.301 33.8487C101.482 34.0302 101.702 34.1207 101.963 34.1207C102.225 34.1207 102.445 34.0302 102.624 33.8487C102.804 33.6661 102.894 33.4447 102.894 33.1839C102.894 32.9221 102.804 32.7007 102.624 32.5192C102.445 32.3366 102.225 32.2451 101.963 32.2451C101.702 32.2451 101.482 32.3366 101.301 32.5192C101.121 32.7007 101.031 32.9221 101.031 33.1839C101.031 33.4447 101.121 33.6661 101.301 33.8487Z" fill="white"></path>
<path d="M103.752 32.6603C103.752 32.7682 103.797 32.8536 103.887 32.916C103.978 32.9773 104.09 33.0239 104.223 33.0551C104.355 33.0852 104.487 33.1195 104.618 33.1573C104.748 33.1957 104.859 33.2596 104.949 33.3496C105.04 33.4386 105.086 33.5577 105.086 33.7075C105.086 33.8891 105.013 34.0389 104.867 34.1575C104.722 34.2751 104.533 34.3334 104.298 34.3334C104.087 34.3334 103.908 34.2884 103.763 34.1984C103.618 34.1084 103.518 33.9908 103.462 33.8446L103.65 33.7341C103.692 33.8543 103.769 33.9489 103.881 34.0184C103.994 34.087 104.133 34.1207 104.298 34.1207C104.463 34.1207 104.599 34.0854 104.706 34.0144C104.813 33.9423 104.867 33.84 104.867 33.7075C104.867 33.5986 104.821 33.5122 104.73 33.4478C104.639 33.3839 104.527 33.3363 104.395 33.3046C104.262 33.2734 104.131 33.2386 104 33.2003C103.87 33.1625 103.76 33.0996 103.668 33.0121C103.577 32.9237 103.531 32.8066 103.531 32.6603C103.531 32.4834 103.601 32.3346 103.74 32.2144C103.88 32.0948 104.06 32.0344 104.28 32.0344C104.457 32.0344 104.61 32.0743 104.74 32.1531C104.871 32.2323 104.967 32.3392 105.029 32.4742L104.845 32.5805C104.801 32.4716 104.727 32.3883 104.624 32.331C104.521 32.2737 104.407 32.2451 104.28 32.2451C104.131 32.2451 104.006 32.2829 103.904 32.3576C103.802 32.4328 103.752 32.5335 103.752 32.6603Z" fill="white"></path>
<path d="M107.785 32.0344C108.108 32.0344 108.37 32.149 108.571 32.378C108.772 32.6071 108.873 32.8787 108.873 33.1921C108.873 33.2044 108.872 33.2223 108.871 33.2453C108.87 33.2688 108.869 33.2862 108.869 33.2985H106.875C106.901 33.5455 107 33.7444 107.172 33.8957C107.343 34.0461 107.555 34.1207 107.808 34.1207C107.984 34.1207 108.138 34.0849 108.27 34.0123C108.402 33.9387 108.502 33.8415 108.569 33.7198L108.763 33.8344C108.671 33.9873 108.542 34.1084 108.374 34.1984C108.208 34.2884 108.017 34.3334 107.804 34.3334C107.465 34.3334 107.188 34.2261 106.971 34.0103C106.754 33.7935 106.646 33.5183 106.646 33.1839C106.646 32.8556 106.752 32.5821 106.965 32.3637C107.178 32.1444 107.451 32.0344 107.785 32.0344ZM107.785 32.2451C107.536 32.2451 107.327 32.3228 107.159 32.4783C106.993 32.6337 106.898 32.8352 106.875 33.0817H108.644C108.621 32.8214 108.528 32.6168 108.364 32.468C108.202 32.3198 108.009 32.2451 107.785 32.2451Z" fill="white"></path>
<path d="M112.249 32.6848C112.409 32.7477 112.537 32.8464 112.634 32.9814C112.731 33.1164 112.779 33.2708 112.779 33.4436C112.779 33.6758 112.696 33.8742 112.532 34.0388C112.368 34.2025 112.17 34.2843 111.938 34.2843H110.607V31.2019H111.836C112.06 31.2019 112.25 31.2812 112.409 31.4392C112.567 31.5977 112.646 31.7884 112.646 32.0119C112.646 32.1591 112.61 32.2921 112.538 32.4107C112.467 32.5294 112.371 32.6209 112.249 32.6848ZM111.836 31.4228H110.84V32.603H111.836C111.994 32.603 112.13 32.5452 112.243 32.4291C112.356 32.312 112.413 32.1729 112.413 32.0119C112.413 31.8513 112.356 31.7127 112.243 31.5967C112.13 31.4811 111.994 31.4228 111.836 31.4228ZM111.938 34.0634C112.105 34.0634 112.247 34.0031 112.366 33.8814C112.486 33.7602 112.546 33.6144 112.546 33.4436C112.546 33.2734 112.486 33.1276 112.366 33.0059C112.247 32.8832 112.105 32.8218 111.938 32.8218H110.84V34.0634H111.938Z" fill="white"></path>
<path d="M114.297 32.0344C114.62 32.0344 114.882 32.149 115.082 32.378C115.284 32.6071 115.385 32.8787 115.385 33.1921C115.385 33.2044 115.384 33.2223 115.383 33.2453C115.382 33.2688 115.381 33.2862 115.381 33.2985H113.387C113.412 33.5455 113.512 33.7444 113.683 33.8957C113.855 34.0461 114.067 34.1207 114.319 34.1207C114.495 34.1207 114.649 34.0849 114.782 34.0123C114.914 33.9387 115.013 33.8415 115.08 33.7198L115.275 33.8344C115.183 33.9873 115.054 34.1084 114.886 34.1984C114.719 34.2884 114.529 34.3334 114.315 34.3334C113.977 34.3334 113.7 34.2261 113.483 34.0103C113.266 33.7935 113.158 33.5183 113.158 33.1839C113.158 32.8556 113.264 32.5821 113.477 32.3637C113.69 32.1444 113.963 32.0344 114.297 32.0344ZM114.297 32.2451C114.047 32.2451 113.839 32.3228 113.671 32.4783C113.504 32.6337 113.41 32.8352 113.387 33.0817H115.156C115.133 32.8214 115.039 32.6168 114.876 32.468C114.713 32.3198 114.52 32.2451 114.297 32.2451Z" fill="white"></path>
<path d="M116.909 32.0344C117.169 32.0344 117.376 32.1142 117.531 32.2737C117.684 32.4333 117.762 32.647 117.762 32.9139V34.2843H117.539V32.9139C117.539 32.7094 117.482 32.5473 117.369 32.4271C117.255 32.3059 117.096 32.2451 116.89 32.2451C116.664 32.2451 116.478 32.3203 116.334 32.4701C116.191 32.6204 116.119 32.8377 116.119 33.1226V34.2843H115.9V32.0835H116.119V32.5008C116.279 32.1899 116.542 32.0344 116.909 32.0344Z" fill="white"></path>
<path d="M119.373 32.0344C119.696 32.0344 119.958 32.149 120.159 32.378C120.36 32.6071 120.461 32.8787 120.461 33.1921C120.461 33.2044 120.46 33.2223 120.459 33.2453C120.458 33.2688 120.457 33.2862 120.457 33.2985H118.463C118.489 33.5455 118.588 33.7444 118.76 33.8957C118.931 34.0461 119.143 34.1207 119.396 34.1207C119.572 34.1207 119.725 34.0849 119.858 34.0123C119.99 33.9387 120.09 33.8415 120.157 33.7198L120.351 33.8344C120.259 33.9873 120.13 34.1084 119.962 34.1984C119.796 34.2884 119.605 34.3334 119.392 34.3334C119.053 34.3334 118.776 34.2261 118.559 34.0103C118.342 33.7935 118.234 33.5183 118.234 33.1839C118.234 32.8556 118.34 32.5821 118.553 32.3637C118.766 32.1444 119.039 32.0344 119.373 32.0344ZM119.373 32.2451C119.124 32.2451 118.915 32.3228 118.747 32.4783C118.581 32.6337 118.486 32.8352 118.463 33.0817H120.232C120.209 32.8214 120.116 32.6168 119.952 32.468C119.789 32.3198 119.597 32.2451 119.373 32.2451Z" fill="white"></path>
<path d="M121.95 31.3655C121.512 31.3302 121.293 31.5291 121.293 31.9627V32.0834H121.95V32.2982H121.293V34.2842H121.068V32.2982H120.69V32.0834H121.068V31.9627C121.068 31.6876 121.144 31.479 121.295 31.3368C121.447 31.1937 121.665 31.1323 121.95 31.1528V31.3655Z" fill="white"></path>
<path d="M122.278 31.7745H122.495L122.79 31.2141H122.522L122.278 31.7745ZM122.289 34.2842V32.0834H122.507V34.2842H122.289Z" fill="white"></path>
<path d="M124.195 34.3334C123.864 34.3334 123.588 34.224 123.367 34.0041C123.147 33.7832 123.038 33.5102 123.038 33.1839C123.038 32.8582 123.147 32.5857 123.367 32.3658C123.588 32.1449 123.864 32.0344 124.195 32.0344C124.409 32.0344 124.603 32.085 124.776 32.1858C124.949 32.287 125.075 32.4241 125.155 32.5969L124.975 32.7033C124.91 32.5632 124.808 32.4517 124.668 32.3699C124.529 32.287 124.371 32.2451 124.195 32.2451C123.93 32.2451 123.708 32.3361 123.528 32.5171C123.35 32.6971 123.261 32.9196 123.261 33.1839C123.261 33.4488 123.35 33.6707 123.528 33.8507C123.708 34.0307 123.93 34.1207 124.195 34.1207C124.371 34.1207 124.529 34.0798 124.668 33.998C124.808 33.9162 124.914 33.8047 124.987 33.6625L125.173 33.773C125.084 33.9438 124.953 34.0798 124.778 34.1821C124.603 34.2833 124.409 34.3334 124.195 34.3334Z" fill="white"></path>
<path d="M125.89 31.4985C125.854 31.5327 125.813 31.5496 125.765 31.5496C125.719 31.5496 125.678 31.5327 125.643 31.4985C125.607 31.4647 125.589 31.4228 125.589 31.3737C125.589 31.3262 125.607 31.2858 125.643 31.253C125.678 31.2193 125.719 31.2019 125.765 31.2019C125.813 31.2019 125.854 31.2193 125.89 31.253C125.925 31.2858 125.943 31.3262 125.943 31.3737C125.943 31.4228 125.925 31.4647 125.89 31.4985ZM125.657 34.2843V32.0835H125.876V34.2843H125.657Z" fill="white"></path>
<path d="M127.563 34.3334C127.24 34.3334 126.966 34.223 126.741 34.0021C126.517 33.7802 126.406 33.5071 126.406 33.1839C126.406 32.8608 126.517 32.5887 126.741 32.3678C126.966 32.1459 127.24 32.0344 127.563 32.0344C127.883 32.0344 128.155 32.1459 128.38 32.3678C128.605 32.5887 128.717 32.8608 128.717 33.1839C128.717 33.5071 128.605 33.7802 128.38 34.0021C128.155 34.223 127.883 34.3334 127.563 34.3334ZM126.899 33.8487C127.08 34.0302 127.301 34.1207 127.561 34.1207C127.823 34.1207 128.043 34.0302 128.222 33.8487C128.402 33.6661 128.492 33.4447 128.492 33.1839C128.492 32.9221 128.402 32.7007 128.222 32.5192C128.043 32.3366 127.823 32.2451 127.561 32.2451C127.301 32.2451 127.08 32.3366 126.899 32.5192C126.719 32.7007 126.629 32.9221 126.629 33.1839C126.629 33.4447 126.719 33.6661 126.899 33.8487Z" fill="white"></path>
<path d="M129.351 32.6603C129.351 32.7682 129.396 32.8536 129.485 32.916C129.577 32.9773 129.689 33.0239 129.821 33.0551C129.953 33.0852 130.085 33.1195 130.216 33.1573C130.347 33.1957 130.457 33.2596 130.547 33.3496C130.638 33.4386 130.684 33.5577 130.684 33.7075C130.684 33.8891 130.611 34.0389 130.465 34.1575C130.321 34.2751 130.131 34.3334 129.897 34.3334C129.685 34.3334 129.506 34.2884 129.361 34.1984C129.216 34.1084 129.116 33.9908 129.06 33.8446L129.248 33.7341C129.29 33.8543 129.367 33.9489 129.479 34.0184C129.592 34.087 129.731 34.1207 129.897 34.1207C130.061 34.1207 130.197 34.0854 130.304 34.0144C130.411 33.9423 130.465 33.84 130.465 33.7075C130.465 33.5986 130.419 33.5122 130.328 33.4478C130.237 33.3839 130.125 33.3363 129.993 33.3046C129.86 33.2734 129.729 33.2386 129.598 33.2003C129.468 33.1625 129.358 33.0996 129.267 33.0121C129.175 32.9237 129.13 32.8066 129.13 32.6603C129.13 32.4834 129.199 32.3346 129.338 32.2144C129.478 32.0948 129.658 32.0344 129.878 32.0344C130.055 32.0344 130.209 32.0743 130.338 32.1531C130.469 32.2323 130.565 32.3392 130.627 32.4742L130.443 32.5805C130.399 32.4716 130.325 32.3883 130.222 32.331C130.12 32.2737 130.005 32.2451 129.878 32.2451C129.729 32.2451 129.604 32.2829 129.502 32.3576C129.401 32.4328 129.351 32.5335 129.351 32.6603Z" fill="white"></path>
</g>
</svg>