<svg width="272" height="49" viewBox="0 0 272 49" fill="none" xmlns="http://www.w3.org/2000/svg">
<g clip-path="url(#clip0_9589_525)">
<mask id="mask0_9589_525" style="mask-type:luminance" maskUnits="userSpaceOnUse" x="0" y="0" width="272" height="49">
<path d="M272 0H0V49H272V0Z" fill="white"></path>
</mask>
<g mask="url(#mask0_9589_525)">
<path fill-rule="evenodd" clip-rule="evenodd" d="M11.2805 7.09987H4.47403L5.55857 1.71509H12.4024L11.2805 7.09987ZM6.86751 28.7876H0.0610352L3.87566 10.0337H10.6821L6.86751 28.7876Z" fill="white"></path>
<path fill-rule="evenodd" clip-rule="evenodd" d="M9.5068 34.0551H16.2558L20.3718 13.7822H25.3037L26.0825 10.0321H21.0764L21.2618 9.17816C21.5585 7.58158 22.0776 5.72509 24.6363 5.72509C26.1567 5.72509 27.6029 5.87361 29.0121 6.46769L29.7536 2.53193C28.2333 1.97499 26.5275 1.71509 24.8959 1.71509C19.4819 1.71509 15.7366 4.94537 14.3646 10.0321H11.9913L11.2497 13.7822H13.5858L9.46973 34.0551H9.5068Z" fill="white"></path>
<path fill-rule="evenodd" clip-rule="evenodd" d="M30.7881 29.1551C38.7505 29.1551 44.2944 21.9248 44.2944 15.9922C44.2944 11.6911 40.2016 9.80005 36.2948 9.80005C27.5511 9.80005 22.7886 17.6236 22.7886 22.9629C22.7886 27.3011 26.9186 29.1551 30.7881 29.1551Z" fill="white"></path>
<path fill-rule="evenodd" clip-rule="evenodd" d="M51.9812 29.1551C59.9491 29.1551 65.434 21.9248 65.434 15.9922C65.434 11.6911 61.3574 9.80005 57.5031 9.80005C48.7941 9.80005 44.0503 17.6236 44.0503 22.9629C44.0503 27.3011 48.164 29.1551 51.9812 29.1551Z" fill="white"></path>
<path fill-rule="evenodd" clip-rule="evenodd" d="M76.8446 28.7099H83.535L88.8948 2.08252H82.1673L80.5778 9.98176C79.6908 9.83342 78.8036 9.68508 77.8795 9.68508C71.2999 9.68508 65.3118 18.1406 65.3118 24.2226C65.3118 26.7074 66.9011 29.155 69.6364 29.155C73.4807 29.155 76.1423 27.2266 77.2511 25.4465H77.6946L76.8446 28.7099Z" fill="white"></path>
<path fill-rule="evenodd" clip-rule="evenodd" d="M55.7282 42.9355C50.8252 47.189 44.2133 49.3906 37.0817 48.9429C28.0926 48.3831 21.8152 41.2937 20.5894 34.0923H20.998C23.0409 38.6817 27.9441 42.9355 34.1472 43.607C40.2017 44.3161 47.6306 41.5175 51.6795 37.5624L47.1107 34.0549L60.6684 34.0923L57.734 48.6816L55.7282 42.9355Z" fill="white"></path>
<path d="M93.8707 28.7875C93.5242 28.7875 93.3758 28.6138 93.4253 28.2665L98.6208 2.48087C98.695 2.13359 98.9052 1.95996 99.2517 1.95996H108.974C111.943 1.95996 114.083 2.60491 115.395 3.89481C116.731 5.18472 117.164 6.94592 116.693 9.17844C116.446 10.4435 115.865 11.5598 114.949 12.5272C114.059 13.4947 112.921 14.2388 111.535 14.7598C113.019 15.231 114.083 16.0248 114.727 17.1411C115.37 18.2823 115.531 19.6341 115.209 21.1968C114.912 22.7349 114.257 24.0743 113.242 25.2154C112.253 26.3565 110.966 27.2371 109.383 27.8573C107.799 28.4774 105.969 28.7875 103.89 28.7875H93.8336H93.8707ZM104.855 24.0991C106.265 24.0991 107.391 23.8015 108.232 23.2061C109.073 22.6356 109.593 21.8418 109.791 20.8248C110.014 19.8077 109.816 19.0139 109.197 18.4434C108.579 17.8481 107.564 17.5504 106.154 17.5504H100.922L99.5856 24.0991H104.855ZM106.822 12.9365C107.96 12.9365 108.937 12.6265 109.754 12.0063C110.545 11.3862 111.04 10.6172 111.238 9.69938C111.411 8.75675 111.238 8.01259 110.719 7.46686C110.174 6.92113 109.296 6.64825 108.084 6.64825H103.111L101.849 12.9365H106.822Z" fill="white"></path>
<path d="M120.758 28.0504C119.473 27.2076 118.571 26.0179 118.052 24.4809C117.533 22.9687 117.471 21.2212 117.867 19.238C118.237 17.3541 118.966 15.6684 120.054 14.1811C121.141 12.669 122.475 11.4791 124.057 10.6115C125.639 9.74387 127.344 9.31006 129.173 9.31006C130.903 9.31006 132.336 9.70668 133.473 10.4999C134.61 11.2932 135.387 12.3839 135.809 13.7721C136.252 15.1355 136.302 16.7096 135.956 18.4944C135.883 18.8166 135.747 19.3247 135.548 20.0189C135.475 20.3411 135.265 20.5023 134.919 20.5023H122.686C122.562 21.9152 122.858 23.0184 123.575 23.8115C124.267 24.6048 125.256 25.0014 126.541 25.0014C128.172 25.0014 129.556 24.3446 130.692 23.0307C130.964 22.758 131.211 22.6961 131.434 22.8448L134.177 24.2949C134.474 24.4685 134.548 24.6545 134.4 24.8527C133.436 26.2161 132.2 27.2944 130.692 28.0877C129.16 28.8809 127.43 29.2776 125.503 29.2776C123.538 29.2776 122.055 28.8685 120.758 28.0504ZM131.397 16.9698C131.52 15.8048 131.298 14.9123 130.73 14.2927C130.161 13.6729 129.358 13.363 128.32 13.363C127.282 13.363 126.343 13.6854 125.503 14.3298C124.638 14.9743 123.958 15.8543 123.464 16.9698H131.397Z" fill="white"></path>
<path d="M141.712 28.7876H137.71C137.364 28.7876 137.228 28.6145 137.303 28.2682L140.934 10.3118C141.008 9.96549 141.218 9.79235 141.564 9.79235H145.344C145.69 9.79235 145.838 9.96549 145.788 10.3118L145.381 12.3152C146.542 11.2764 147.679 10.5096 148.79 10.015C149.926 9.54502 151.088 9.31006 152.274 9.31006C154.398 9.31006 155.918 9.99022 156.832 11.3506C157.72 12.7356 157.918 14.603 157.424 16.9526L155.164 28.2682C155.09 28.6145 154.88 28.7876 154.534 28.7876H150.569C150.223 28.7876 150.075 28.6145 150.124 28.2682L152.311 17.3978C152.532 16.3096 152.458 15.4687 152.087 14.875C151.718 14.2567 151.051 13.9476 150.087 13.9476C149.296 13.9476 148.445 14.1702 147.529 14.6153C146.616 15.0358 145.665 15.6913 144.676 16.5817L142.342 28.2682C142.268 28.6145 142.058 28.7876 141.712 28.7876Z" fill="white"></path>
<path d="M163.281 28.0504C161.996 27.2076 161.094 26.0179 160.575 24.4809C160.056 22.9687 159.994 21.2212 160.389 19.238C160.76 17.3541 161.489 15.6684 162.577 14.1811C163.64 12.669 164.973 11.4791 166.58 10.6115C168.162 9.74387 169.867 9.31006 171.695 9.31006C173.425 9.31006 174.859 9.70668 175.996 10.4999C177.133 11.2932 177.91 12.3839 178.33 13.7721C178.775 15.1355 178.826 16.7096 178.48 18.4944C178.406 18.8166 178.27 19.3247 178.072 20.0189C177.998 20.3411 177.788 20.5023 177.442 20.5023H165.208C165.084 21.9152 165.381 23.0184 166.098 23.8115C166.79 24.6048 167.779 25.0014 169.064 25.0014C170.695 25.0014 172.078 24.3446 173.215 23.0307C173.487 22.758 173.734 22.6961 173.957 22.8448L176.7 24.2949C176.997 24.4685 177.071 24.6545 176.923 24.8527C175.959 26.2161 174.723 27.2944 173.215 28.0877C171.684 28.8809 169.954 29.2776 168.026 29.2776C166.061 29.2776 164.579 28.8685 163.281 28.0504ZM173.92 16.9698C174.043 15.8048 173.821 14.9123 173.252 14.2927C172.684 13.6729 171.88 13.363 170.842 13.363C169.805 13.363 168.866 13.6854 168.026 14.3298C167.161 14.9743 166.481 15.8543 165.987 16.9698H173.92Z" fill="white"></path>
<path d="M186.093 28.7874H182.097C181.753 28.7874 181.617 28.6141 181.691 28.2675L184.502 14.3025H181.21C180.864 14.3025 180.729 14.1291 180.803 13.7824L181.506 10.2912C181.58 9.94458 181.79 9.77125 182.134 9.77125H185.427L185.538 9.21414C185.957 7.0352 187.067 5.2153 188.867 3.75443C190.667 2.26878 193.281 1.31549 196.709 0.894565L197.3 0.857422C197.448 0.857422 197.547 0.894569 197.596 0.968851C197.646 1.04313 197.658 1.17932 197.633 1.37741L197.3 4.83151L197.263 4.90579C197.214 5.17817 197.03 5.3391 196.709 5.38863C195.18 5.56194 193.997 5.82193 193.158 6.16859C192.295 6.49047 191.678 6.89902 191.308 7.39424C190.939 7.88944 190.68 8.52084 190.532 9.28842L190.421 9.77125H195.6C195.944 9.77125 196.08 9.94458 196.006 10.2912L195.303 13.7824C195.229 14.1291 195.02 14.3025 194.674 14.3025H189.532L186.721 28.2675C186.647 28.6141 186.437 28.7874 186.093 28.7874Z" fill="white"></path>
<path d="M199.661 28.785H195.629C195.283 28.8097 195.148 28.6487 195.222 28.3016L198.848 10.3016C198.922 9.95451 199.132 9.78096 199.476 9.78096H203.473C203.818 9.78096 203.954 9.95451 203.88 10.3016L200.291 28.3016C200.217 28.6487 200.007 28.8097 199.661 28.785ZM207.653 3.49586C207.628 3.64461 207.506 3.78097 207.284 3.90494L200.106 7.47519C200.032 7.52477 199.933 7.54955 199.809 7.54955C199.637 7.54955 199.513 7.47519 199.439 7.32643L198.589 5.31816C198.539 5.19419 198.527 5.09502 198.552 5.02065C198.552 4.92147 198.663 4.7851 198.885 4.61155L205.693 0.111565C205.792 0.0371854 205.915 0 206.062 0C206.21 0 206.321 0.0743821 206.395 0.223142L207.617 3.19834C207.665 3.29751 207.679 3.39668 207.653 3.49586Z" fill="white"></path>
<path d="M208.355 28.0124C207.096 27.1696 206.219 25.9799 205.726 24.443C205.257 22.931 205.22 21.2082 205.615 19.2747C205.984 17.3661 206.725 15.6557 207.837 14.1437C208.947 12.6316 210.305 11.4418 211.909 10.5742C213.513 9.73145 215.242 9.31006 217.093 9.31006C219.043 9.31006 220.548 9.75624 221.61 10.6486C222.697 11.541 223.424 12.7432 223.795 14.2552C223.795 14.3047 223.795 14.3792 223.795 14.4784C223.745 14.6519 223.597 14.8006 223.35 14.9245L219.759 16.263C219.611 16.3126 219.525 16.3373 219.5 16.3373C219.352 16.3373 219.228 16.2258 219.13 16.0028C218.66 14.6394 217.674 13.9578 216.167 13.9578C214.859 13.9578 213.699 14.4412 212.687 15.4079C211.675 16.3993 211.009 17.6759 210.688 19.2376C210.367 20.8735 210.515 22.1873 211.131 23.1788C211.749 24.1703 212.712 24.6661 214.02 24.6661C215.65 24.6661 217.019 23.9473 218.129 22.5096C218.353 22.212 218.599 22.1253 218.87 22.2492L221.87 23.6249C222.018 23.6994 222.117 23.7737 222.166 23.8481C222.191 23.9473 222.166 24.0588 222.092 24.1827C221.079 25.7195 219.821 26.9589 218.316 27.9009C216.785 28.8428 215.045 29.3014 213.095 29.2766C211.094 29.2766 209.651 28.8675 208.355 28.0124Z" fill="white"></path>
<path d="M228.533 28.7876H224.47C224.121 28.7876 223.984 28.6138 224.059 28.2664L227.713 10.2524C227.788 9.90497 227.999 9.73127 228.347 9.73127H232.374C232.721 9.73127 232.858 9.90497 232.783 10.2524L229.167 28.2664C229.093 28.6138 228.881 28.7876 228.533 28.7876ZM228.868 5.67438C228.397 5.12849 228.248 4.39651 228.422 3.47843C228.595 2.60998 229.031 1.91523 229.726 1.39416C230.422 0.873086 231.242 0.612549 232.186 0.612549C233.132 0.612549 233.828 0.873086 234.275 1.39416C234.747 1.91523 234.896 2.62239 234.723 3.51566C234.548 4.40892 234.113 5.12849 233.417 5.67438C232.746 6.22025 231.938 6.49321 230.994 6.49321C230.05 6.49321 229.341 6.22025 228.868 5.67438Z" fill="white"></path>
<path d="M237.233 28.0504C235.948 27.2076 235.058 26.0179 234.564 24.4809C234.094 22.9687 234.057 21.2335 234.452 19.2752C234.823 17.3912 235.565 15.6932 236.677 14.1811C237.764 12.669 239.124 11.4791 240.754 10.6115C242.385 9.74387 244.128 9.31006 245.98 9.31006C247.834 9.31006 249.428 9.71908 250.689 10.5743C251.974 11.4171 252.85 12.5946 253.32 14.1068C253.814 15.6189 253.864 17.3417 253.468 19.2752C253.097 21.1839 252.356 22.8944 251.245 24.4066C250.133 25.9434 248.773 27.1457 247.167 28.0134C245.535 28.8562 243.794 29.2776 241.94 29.2776C240.124 29.2776 238.492 28.8685 237.233 28.0504ZM246.388 23.2167C247.377 22.2499 248.032 20.9485 248.353 19.3124C248.674 17.7011 248.526 16.3997 247.908 15.4082C247.315 14.4414 246.363 13.958 245.053 13.958C243.745 13.958 242.583 14.4414 241.57 15.4082C240.531 16.3749 239.852 17.6516 239.53 19.238C239.209 20.8741 239.357 22.1879 239.975 23.1794C240.618 24.171 241.594 24.6668 242.904 24.6668C244.202 24.6668 245.387 24.1834 246.388 23.2167Z" fill="white"></path>
<path d="M254.465 25.2989C254.465 25.1502 254.465 25.0634 254.465 25.0387C254.49 24.8652 254.613 24.7165 254.835 24.5925L257.796 23.0679C257.946 22.9935 258.057 22.9564 258.13 22.9564C258.278 22.9564 258.389 23.0555 258.463 23.2539C259.179 24.5925 260.388 25.2617 262.092 25.2617C263.004 25.2617 263.733 25.1006 264.276 24.7783C264.818 24.4561 265.152 24.0222 265.275 23.4769C265.374 22.9315 265.201 22.4978 264.758 22.1755C264.313 21.878 263.511 21.5806 262.35 21.2831C260.45 20.7873 258.957 20.0932 257.872 19.2009C256.81 18.2837 256.452 16.9451 256.797 15.185C257.02 14.0943 257.526 13.0904 258.315 12.1732C259.13 11.2808 260.155 10.5743 261.388 10.0537C262.622 9.55795 263.967 9.31006 265.423 9.31006C268.804 9.31006 270.963 10.6115 271.902 13.2143C271.926 13.363 271.939 13.4498 271.939 13.4747C271.889 13.6234 271.754 13.7597 271.531 13.8836L268.606 15.2595C268.459 15.309 268.36 15.3337 268.311 15.3337C268.138 15.3337 268.015 15.247 267.941 15.0735C267.373 13.8836 266.3 13.2887 264.719 13.2887C263.955 13.2887 263.301 13.4374 262.757 13.7349C262.214 14.0323 261.907 14.4042 261.833 14.8504C261.709 15.3462 261.87 15.7304 262.313 16.0031C262.733 16.251 263.474 16.5112 264.534 16.7839C265.818 17.1805 266.904 17.6019 267.793 18.0482C268.657 18.4944 269.347 19.1389 269.866 19.9817C270.359 20.7998 270.483 21.8657 270.236 23.1794C269.989 24.3693 269.458 25.4228 268.643 26.3401C267.83 27.2821 266.78 28.0009 265.497 28.4967C264.239 29.0173 262.819 29.2776 261.24 29.2776C257.662 29.2776 255.403 27.9514 254.465 25.2989Z" fill="white"></path>
</g>
</g>
<defs>
<clipPath id="clip0_9589_525">
<rect width="272" height="49" fill="white"></rect>
</clipPath>
</defs>
</svg>