<svg width="136" height="39" viewBox="0 0 136 39" fill="none" xmlns="http://www.w3.org/2000/svg">
<g clip-path="url(#clip0_9589_1355)">
<path d="M45.6824 0.14031C45.0147 0.491713 44.7687 1.12424 45.085 1.75676C45.2958 2.21359 45.5769 2.38929 46.0689 2.45957C46.5257 2.49471 46.9825 2.31901 47.2285 1.96761C47.4745 1.6162 47.4745 0.913397 47.2285 0.561994C46.8068 -0.000251224 46.2446 -0.175953 45.6824 0.14031Z" fill="white"></path>
<path d="M44.312 3.68969C43.6795 3.86539 43.047 4.49792 42.8361 5.02502C42.6604 5.51699 42.6956 6.25493 42.9064 6.71176C43.293 7.51998 44.2417 8.04709 45.1202 7.94167C45.6122 7.87139 46.2447 7.51998 46.561 7.16858C47.299 6.25493 47.1584 4.84932 46.2447 4.07623C45.7176 3.65455 44.8743 3.47885 44.2769 3.65455L44.312 3.68969Z" fill="white"></path>
<path d="M48.107 8.22285C46.0689 8.60939 45.1201 10.9989 46.35 12.6857C46.9123 13.4588 47.7556 13.8453 48.7396 13.775C49.7938 13.7047 50.7074 13.1425 51.1291 12.1937C51.3048 11.8072 51.3399 11.6315 51.3399 10.9638C51.3399 10.015 51.1642 9.59332 50.4966 8.96079C49.864 8.32827 48.9153 8.04714 48.0368 8.22285H48.107Z" fill="white"></path>
<path d="M43.9959 9.41762C43.7499 9.4879 43.3985 9.62846 43.2228 9.69874C42.8011 9.90958 42.1335 10.5421 41.8875 10.9287C41.7118 11.2098 41.3604 12.1234 41.3955 12.1586C41.3955 12.1586 41.7118 12.3343 42.0983 12.51C42.9066 12.9317 43.7851 13.7399 44.2067 14.4778C44.4176 14.8644 44.4879 14.9346 44.6987 14.9346C44.9095 14.9346 44.9798 14.9346 45.0501 14.9698C45.1555 14.9698 45.2258 14.8995 45.4015 14.5832C45.5069 14.3373 45.7529 13.9859 45.8935 13.8102L46.1746 13.4588L45.8935 13.0722C45.3664 12.3343 45.261 11.9829 45.261 10.9989C45.261 10.261 45.261 10.0501 45.4367 9.73388C45.5772 9.41762 45.5772 9.34734 45.4718 9.3122C45.2609 9.24192 44.4527 9.27706 44.031 9.38248L43.9959 9.41762Z" fill="white"></path>
<path d="M38.7247 12.7206C37.2137 13.1423 35.9838 14.3019 35.527 15.813C35.1053 17.2537 35.4918 18.9053 36.546 20.0649C36.9677 20.5218 37.6354 21.0137 37.7759 21.0137C37.9165 21.0137 37.8462 20.9083 37.8462 20.8029C37.8462 20.3812 38.1625 19.2216 38.4436 18.6593C39.0761 17.3591 40.1303 16.2698 41.3954 15.6724C41.9928 15.3561 42.5902 15.1804 43.5741 15.0047C43.7498 15.0047 43.7498 14.9696 43.6092 14.6885C43.3633 14.2316 42.4496 13.3883 41.8874 13.1072C40.8683 12.6152 39.7087 12.4746 38.7247 12.7206Z" fill="white"></path>
<path d="M50.9532 13.529C50.3558 14.0912 49.4773 14.4426 48.634 14.4426C48.142 14.4426 47.3689 14.2318 46.9824 14.0209L46.7012 13.8452L46.4904 14.0561C46.1741 14.3723 45.7876 15.0751 45.9282 15.1103C45.9984 15.1103 46.1741 15.1806 46.3498 15.2508C47.2283 15.532 48.4231 16.305 49.0908 17.0079C49.407 17.3241 49.5125 17.3944 49.8287 17.4647C50.0396 17.4647 50.391 17.5701 50.6018 17.6755C50.9181 17.8161 51.2343 17.8512 52.1831 17.8512H53.3779L53.4833 17.4998C53.7293 16.305 53.3779 14.9697 52.5345 14.0561C52.148 13.6344 51.5155 13.1424 51.41 13.1776C51.41 13.1776 51.1992 13.3533 50.9884 13.529H50.9532Z" fill="white"></path>
<path d="M42.8359 15.7427C40.7626 16.3049 39.1813 17.8511 38.6191 19.8892C38.5136 20.2055 38.4434 20.4866 38.4434 20.4866H39.6381C40.6572 20.4866 40.9032 20.4866 41.4303 20.6623C43.117 21.1894 44.4172 22.2788 45.1552 23.7898C45.5768 24.6332 45.7174 25.2306 45.7877 26.2496V27.093C45.8228 27.093 46.0337 27.0579 46.0337 27.0579C46.4905 26.9524 47.5798 26.355 48.0367 25.9334C48.6692 25.4063 49.126 24.844 49.4774 24.1412C49.7937 23.5087 49.8288 23.3681 49.5477 23.4384C49.2314 23.5087 48.3881 23.2978 47.9312 23.0519C47.4744 22.8059 46.9122 22.2085 46.6662 21.7868C45.9282 20.3109 46.5608 18.4485 48.1069 17.7105L48.5989 17.4645L48.1421 17.078C47.4744 16.5158 46.7716 16.0941 46.0337 15.8481C45.12 15.567 43.6441 15.4967 42.7656 15.7427H42.8359Z" fill="white"></path>
<path d="M48.3532 18.3431C47.7558 18.6242 47.3341 19.1162 47.1584 19.7487C46.8773 20.6623 47.0881 21.4003 47.7558 22.0679C48.4235 22.7356 49.302 22.9816 50.2156 22.6302C51.1293 22.2788 51.1996 22.0679 51.4807 21.4706C51.9375 20.5569 51.7969 19.5027 51.059 18.7647C50.3211 18.0268 49.302 17.8511 48.3532 18.3431Z" fill="white"></path>
<path d="M51.7617 18.4835C51.7617 18.5187 51.9374 18.7998 52.078 19.1161C52.3591 19.6432 52.3591 19.7486 52.3591 20.4514C52.3591 21.1191 52.3591 21.2948 52.1483 21.6813C51.8672 22.2084 51.34 22.8058 50.9184 23.0166C50.6724 23.1572 50.567 23.2275 50.4967 23.5438C50.2156 24.4574 49.3722 25.7576 48.5991 26.355C48.1071 26.7767 47.3692 27.2335 46.8772 27.4092C46.6664 27.5146 46.4204 27.62 46.3853 27.62C46.3501 27.62 46.4907 27.9363 46.7015 28.2526L47.0881 28.8148L47.4043 28.358C48.7045 26.355 51.4455 25.5819 53.589 26.6361C54.6784 27.1632 55.4163 27.9363 55.9434 29.0608L56.1894 29.5879L56.5057 29.2716C57.2788 28.5337 57.9113 27.4092 58.1924 26.2496C58.333 25.6873 58.3681 25.4062 58.333 24.5628C58.333 23.6843 58.2627 23.4383 58.0167 22.7707C57.3139 20.6974 55.6623 19.1864 53.589 18.6241C52.9214 18.4484 51.7266 18.3078 51.7617 18.4133V18.4835Z" fill="white"></path>
<path d="M22.736 19.0459C22.0684 19.1161 20.8384 19.327 20.1708 19.5378C16.6216 20.5569 14.3726 22.9464 13.8455 26.2848C13.705 27.1984 13.6698 30.5367 13.8455 31.5207C14.3023 34.9644 16.1999 37.3188 19.3626 38.373C22.1035 39.2867 26.1446 39.1813 29.483 38.0919L30.2561 37.8459V27.9715H23.2983V31.8721H26.1446V33.348C26.1446 34.4373 26.1446 34.859 26.0392 34.8941C25.9689 34.9293 25.1958 34.9644 24.2822 34.9996C22.3495 35.0347 21.8575 34.9644 20.9439 34.4725C19.8545 33.9102 19.1166 32.9614 18.6949 31.6261C18.5192 31.0638 18.5192 30.8881 18.5192 29.0257C18.5192 27.1633 18.5543 26.5307 19.0463 25.5468C19.6085 24.352 20.7682 23.4735 22.2792 23.1221C23.8957 22.7356 27.1988 23.0167 29.483 23.7547C29.8344 23.8601 30.1858 23.9655 30.2209 23.9655C30.2912 23.9655 30.3263 23.5438 30.2912 21.9976V20.0298L29.5532 19.8189C27.6205 19.1864 24.8796 18.9053 22.8063 19.081L22.736 19.0459Z" fill="white"></path>
<path d="M0 26.9172C0 34.5426 0 34.6129 0.210842 35.2806C0.702806 37.1079 1.86244 38.2675 3.58431 38.654C4.04114 38.7595 4.91964 38.7595 7.97685 38.7595H11.8071V34.8589H8.8905C7.13348 34.8589 5.83329 34.8589 5.65759 34.7886C5.48189 34.7535 5.23591 34.6129 5.09535 34.4723C4.56824 34.0155 4.56824 34.4723 4.56824 26.4603V19.2214H0V26.882V26.9172Z" fill="white"></path>
<path d="M38.4786 21.2246C38.2326 21.2949 37.7407 21.5057 37.3541 21.6814C36.7919 21.9625 36.5459 22.1382 35.9837 22.7005C34.8943 23.7898 34.4375 24.9495 34.4023 26.4605C34.4023 27.9013 34.8592 29.0609 35.8431 30.1151C36.4756 30.8179 37.1433 31.2396 38.0218 31.591C38.584 31.8018 38.7246 31.8018 39.814 31.837C40.9033 31.837 41.0439 31.837 41.571 31.6261C42.4143 31.3099 43.0117 30.9585 43.6091 30.3611C44.2416 29.7286 44.6633 29.096 44.9444 28.2175C45.1553 27.6201 45.1553 27.4796 45.1553 26.5308C45.1553 25.582 45.1553 25.4063 44.9444 24.844C44.6282 23.9655 44.2416 23.333 43.574 22.7005C42.9414 22.068 42.3441 21.7166 41.5358 21.4354C41.0439 21.2597 40.7627 21.2246 39.9194 21.1895C39.1814 21.1895 38.7949 21.1895 38.4786 21.2949V21.2246Z" fill="white"></path>
<path d="M62.4443 22.1734V22.5951H62.9714H63.4634V29.9042H64.4473V21.7166H62.4092V22.1382L62.4443 22.1734Z" fill="white"></path>
<path d="M96.5305 22.8411V23.9304H95.8277C94.7735 24.0358 94.2815 24.2467 93.6139 24.9143C92.9462 25.582 93.0516 25.5117 92.911 26.0388C92.7705 26.5308 92.7353 26.7768 92.7705 27.6904C92.7705 28.6041 92.8408 28.8149 92.9813 29.096C93.5787 30.2557 94.9843 30.3259 96.144 29.2717L96.5656 28.8852V29.9394H97.5496V21.7517H96.5656V22.8411H96.5305ZM96.5305 26.3551V27.9013L96.0737 28.3229C95.5114 28.8149 94.914 29.1312 94.5275 29.1312C94.141 29.1312 94.1761 29.0609 94.0004 28.8852L93.7193 28.6392V27.4444C93.7193 26.2848 93.7193 26.2497 93.9301 25.8631C94.3518 25.1603 94.9492 24.8441 95.898 24.8441H96.4954V26.3551H96.5305Z" fill="white"></path>
<path d="M127.208 23.2626V23.9654H126.224V24.8439H127.208V26.6712C127.208 27.7957 127.208 28.5688 127.313 28.7445C127.595 29.5528 128.192 29.9042 129.281 29.9042H130.019V29.4825V29.0608H129.492C128.86 29.0608 128.438 28.8851 128.262 28.5688C128.192 28.4283 128.157 27.8309 128.157 26.601V24.8439H129.773V23.9654H128.157V23.2978L128.122 22.6301H127.665L127.208 22.595V23.2978V23.2626Z" fill="white"></path>
<path d="M100.853 23.9656C100.326 24.1413 100.044 24.317 99.6931 24.7036C99.2363 25.2307 99.0957 25.7227 99.0957 27.0228C99.0957 28.323 99.166 28.4987 99.4822 29.061C100.044 29.9746 101.696 30.2558 103.067 29.7286C103.383 29.6232 103.383 29.5881 103.383 29.2367C103.383 28.8853 103.383 28.815 103.348 28.815C103.313 28.815 103.102 28.815 102.856 28.9204C102.188 29.1664 101.134 29.1664 100.747 28.9204C100.361 28.7096 100.115 28.2176 100.115 27.6905V27.2688H101.239C102.364 27.2688 102.715 27.1985 103.137 26.9174C103.875 26.3903 103.91 24.9496 103.242 24.3522C102.715 23.8954 101.661 23.7197 100.888 23.9656H100.853ZM102.329 24.8441C102.575 24.9847 102.75 25.2658 102.75 25.5821C102.75 25.8984 102.715 25.8632 102.645 26.0038C102.469 26.3552 102.223 26.4606 101.099 26.4606H100.08V26.1443C100.08 25.6524 100.396 25.1604 100.818 24.9144C101.239 24.7036 102.012 24.6684 102.364 24.8441H102.329Z" fill="white"></path>
<path d="M115.822 24.0007C115.085 24.2115 114.593 24.7035 114.311 25.3711C114.101 25.9334 114.065 27.9715 114.311 28.5689C114.487 29.096 115.014 29.588 115.541 29.7988C116.139 30.0097 117.193 30.0097 117.825 29.7988L118.317 29.6231V29.1663C118.353 28.9203 118.353 28.7095 118.317 28.7095C118.282 28.7095 118.107 28.7798 117.861 28.8852C117.228 29.1312 116.174 29.1312 115.752 28.8852C115.295 28.6392 115.12 28.2526 115.12 27.7255V27.2336H116.279C117.334 27.2336 117.474 27.2336 117.825 27.0227C118.388 26.7416 118.634 26.3902 118.669 25.6523C118.704 24.7386 118.353 24.2115 117.544 23.9655C117.017 23.825 116.35 23.825 115.822 23.9655V24.0007ZM117.369 24.8792C117.72 25.0549 117.861 25.4414 117.72 25.8982C117.615 26.3551 117.369 26.4254 116.139 26.4254H115.12V26.0739C115.12 25.3009 115.752 24.7386 116.631 24.7386C117.509 24.7386 117.193 24.8089 117.334 24.8792H117.369Z" fill="white"></path>
<path d="M122.64 23.9655C122.253 24.106 122.007 24.2818 121.55 24.7034L121.199 25.0197V23.9303H120.742L120.285 23.9655V29.8691H120.742L121.199 29.9042V25.9333L121.691 25.4765C122.464 24.7737 123.097 24.5277 123.553 24.7737C123.905 24.9494 123.905 25.1251 123.975 27.5147V29.8339C124.01 29.8339 124.502 29.8339 124.502 29.8339H124.959V27.4092C124.959 24.9494 124.959 24.9494 124.748 24.5629C124.397 23.8952 123.553 23.6141 122.71 23.8952L122.64 23.9655Z" fill="white"></path>
<path d="M132.584 24.0007C131.39 24.4224 130.933 25.2306 130.933 26.9876C130.933 28.7447 131.073 28.7095 131.46 29.2015C131.811 29.6232 132.233 29.834 132.936 29.9394C133.639 30.0448 133.604 30.0097 134.131 29.9394C135.185 29.7286 135.22 29.7286 135.22 29.1663C135.22 28.6041 135.22 28.7095 135.079 28.7798C134.623 28.9906 133.744 29.1663 133.358 29.1312C132.444 29.0609 131.987 28.6392 131.917 27.7959V27.3039C131.882 27.3039 133.006 27.3039 133.006 27.3039C134.341 27.3039 134.658 27.2336 135.079 26.8119C135.712 26.1794 135.712 25.0549 135.079 24.4224C134.587 23.9304 133.463 23.7547 132.584 24.071V24.0007ZM134.166 24.8792C134.482 25.0198 134.587 25.2306 134.587 25.6523C134.587 26.074 134.517 26.0389 134.377 26.2146C134.166 26.4254 134.166 26.4254 133.041 26.4605H131.882L131.917 26.1091C132.022 25.2306 132.584 24.7738 133.463 24.7738C134.341 24.7738 134.025 24.8441 134.166 24.8792Z" fill="white"></path>
<path d="M66.415 26.1794C66.415 28.0067 66.415 28.5338 66.5556 28.85C66.9421 30.1854 68.5235 30.3611 69.7534 29.2015L70.1751 28.8149V29.9043H71.159V23.8953H70.1751V27.831L69.6831 28.2878C68.664 29.2015 67.9261 29.3069 67.5395 28.5689C67.4341 28.3581 67.4341 27.9364 67.4341 26.1091V23.8953H66.4502V26.1442L66.415 26.1794Z" fill="white"></path>
<path d="M74.7435 24.1061C73.4081 24.5278 72.7405 25.582 72.7405 27.1985C72.7405 28.8149 73.0567 29.0609 73.7595 29.4123C74.4272 29.7286 75.0246 29.6583 76.3951 29.096C76.5356 29.0258 76.5356 29.096 76.5005 29.4826C76.3951 30.6773 75.7625 31.0639 74.0055 31.0639H73.1973V31.9775H74.2867C75.6571 31.8721 76.2194 31.6964 76.7816 31.1342C77.3439 30.5719 77.4493 30.3962 77.4844 26.9173V23.8953H76.3599C75.4814 23.8953 75.0949 23.8953 74.7435 24.0358V24.1061ZM76.5356 26.5308V28.2175L76.114 28.3932C75.868 28.4986 75.4463 28.6041 75.1652 28.6743C74.7083 28.7446 74.6029 28.7446 74.3218 28.6041C73.865 28.3932 73.7244 28.0418 73.7244 27.1985C73.7244 25.6171 74.4272 24.8441 75.9031 24.8441H76.5708V26.5308H76.5356Z" fill="white"></path>
<path d="M81.3849 24.071C80.8227 24.2115 80.5416 24.3872 80.0847 24.7738C79.2765 25.5117 79.0657 26.1443 79.1008 27.6904C79.1008 28.6041 79.1711 28.8149 79.3117 29.096C79.909 30.2557 81.3147 30.326 82.4743 29.2717L82.896 28.8852V29.9394H83.8799V23.9304H82.8608C82.2283 23.9304 81.6661 24.0007 81.3849 24.071ZM82.9311 26.3551V27.9013L82.4743 28.323C81.6309 29.0609 80.9281 29.3069 80.5064 28.9906C80.155 28.7095 80.0847 28.4635 80.1199 27.3039C80.1199 26.3551 80.155 26.2497 80.3659 25.8983C80.7875 25.1955 81.3849 24.8792 82.3337 24.8792H82.9311V26.3902V26.3551Z" fill="white"></path>
<path d="M85.918 26.9173V29.9043H86.3748L86.8316 29.8691V27.9013L86.8668 25.9334L87.2533 25.582C87.7101 25.1603 88.2021 24.9495 88.6941 24.9495H89.0806V23.8953H88.7643C88.167 23.8953 87.8507 24.0358 87.3587 24.5278L86.9019 24.9846V24.4575L86.8668 23.9304H86.4099L85.9531 23.8953V26.8822L85.918 26.9173Z" fill="white"></path>
<path d="M109.849 24.071C109.005 24.2818 108.408 24.8441 108.021 25.6523C107.811 26.074 107.811 26.1794 107.811 27.1985C107.811 28.2175 107.916 28.7095 108.338 29.1312C108.865 29.6232 109.884 29.7286 110.762 29.342C111.641 28.9906 111.606 28.9555 111.535 29.4826C111.36 30.6774 110.903 31.0288 109.251 31.0639H108.267V31.9776H109.286C110.938 31.8721 111.711 31.5207 112.168 30.6422C112.484 29.9746 112.554 29.3772 112.519 26.4957V23.9304H111.36C110.622 23.9304 110.095 23.9304 109.849 24.0358V24.071ZM111.571 26.5308V28.2175L111.149 28.3932C110.938 28.4987 110.516 28.6041 110.235 28.6392C109.638 28.7446 109.286 28.6392 108.97 28.323C108.794 28.1473 108.759 28.0418 108.759 27.2336C108.759 26.4254 108.759 26.32 108.935 25.8983C109.146 25.4415 109.532 25.0549 109.989 24.8792C110.13 24.8441 110.551 24.7738 110.938 24.7738H111.606V26.4605L111.571 26.5308Z" fill="white"></path>
<path d="M50.356 26.9875C49.6181 27.1983 49.0558 27.5146 48.4584 28.112C47.5799 28.9905 47.2285 29.869 47.2285 31.1341C47.2285 32.3991 47.6502 33.3128 48.4936 34.121C49.091 34.7184 49.7586 35.0698 50.6723 35.2455C52.9915 35.7374 55.3108 34.0507 55.6622 31.626C55.8379 30.361 55.4162 29.0256 54.4674 28.112C53.9052 27.5497 53.2375 27.1632 52.4996 26.9875C51.9373 26.8469 50.848 26.8469 50.3209 26.9875H50.356Z" fill="white"></path>
<path d="M45.6474 28.0067C45.0852 29.8691 43.9958 31.2044 42.3091 31.9775C41.1846 32.5046 39.7439 32.6803 38.5842 32.4344L38.0571 32.3289V32.6803C38.0571 33.4886 38.5491 34.8942 39.1465 35.7727C40.0601 37.1432 41.3603 38.092 42.9768 38.5839C43.6093 38.7596 43.8201 38.7948 44.7689 38.7948C46.3502 38.7948 47.3693 38.5136 48.6344 37.6703C49.2317 37.2837 50.1805 36.3701 50.3562 36.0187C50.4265 35.8781 50.3914 35.843 50.0751 35.7727C49.5832 35.6321 49.056 35.3861 48.4587 34.9293C47.0179 33.8751 46.28 31.8018 46.7016 30.0448L46.8071 29.5177L46.5259 29.1663C46.3854 28.9906 46.1043 28.6041 45.9637 28.3581C45.788 28.077 45.6474 27.9364 45.6474 28.0067Z" fill="white"></path>
<path d="M99.8687 32.0828C99.5876 32.2585 99.6579 32.3639 100.044 32.3639C100.431 32.3639 100.396 32.3639 100.396 32.4342C100.396 32.5045 100.08 33.875 99.6579 35.4914C99.2713 37.143 98.9199 38.5486 98.9199 38.6189C98.9199 38.7243 99.0253 38.7595 99.3416 38.7595H99.7633L99.939 38.0567C100.29 36.6159 101.204 35.2806 101.942 35.0698C102.118 35.0346 102.293 34.9995 102.329 35.0698C102.364 35.14 102.188 35.8077 101.942 36.6862C101.696 37.5296 101.485 38.3027 101.485 38.4081C101.485 38.6541 101.837 38.9703 102.118 38.9703C102.645 38.9703 103.277 38.4784 103.629 37.7756C103.875 37.2836 103.699 37.3187 103.207 37.8458C102.715 38.3729 102.539 38.4432 102.539 38.0918C102.539 37.7404 102.715 37.2836 102.961 36.5105C103.172 35.7374 103.383 35.0698 103.383 34.9995C103.383 34.9292 103.277 34.7886 103.137 34.6832C102.856 34.4372 102.399 34.4021 101.977 34.5778C101.591 34.7535 100.993 35.3157 100.607 35.878C100.431 36.1591 100.29 36.2997 100.326 36.1942C100.888 34.1912 101.415 32.1531 101.38 32.0828C101.309 31.9423 100.044 31.9774 99.8336 32.1531L99.8687 32.0828Z" fill="white"></path>
<path d="M68.2776 32.6452C68.0668 32.8911 68.0668 32.9966 68.2073 33.2777C68.4533 33.8399 69.3318 33.6291 69.3318 33.0317C69.3318 32.4343 69.0156 32.4343 68.7344 32.4343C68.4533 32.4343 68.4182 32.5046 68.3128 32.6452H68.2776Z" fill="white"></path>
<path d="M75.2355 33.348C74.9543 33.4885 74.8489 33.594 74.7435 33.8751C74.5678 34.367 74.4975 34.4373 74.111 34.5427C73.4785 34.7184 73.373 34.9293 73.9704 34.9293C74.5678 34.9293 74.3921 34.9293 74.3921 34.9293C74.3921 34.9293 74.1461 35.6672 73.865 36.5106C73.5839 37.354 73.3379 38.1622 73.3379 38.2325C73.3379 38.4785 73.6893 38.7947 74.0407 38.8299C74.6381 38.9001 75.1652 38.5136 75.6572 37.6702C76.0086 37.0377 75.6923 37.108 75.2355 37.7405C74.9192 38.1973 74.7786 38.2676 74.6029 38.1271C74.4272 37.9865 74.4624 37.7757 74.8841 36.2998C75.0949 35.5618 75.3058 34.9293 75.3058 34.8941C75.3058 34.859 75.5517 34.8941 75.868 34.8941C76.1843 34.8941 76.4654 34.8941 76.5357 34.7887C76.7465 34.5427 76.6059 34.4725 76.0086 34.5076C75.6923 34.5076 75.4815 34.5076 75.4815 34.4725C75.4815 34.4373 75.5517 34.1562 75.6572 33.8751C75.9031 33.0668 75.868 33.0317 75.2706 33.348H75.2355Z" fill="white"></path>
<path d="M64.2365 34.5779C63.7797 34.7888 63.4634 35.1753 63.3229 35.597C63.1823 36.089 63.4283 36.4404 64.2014 36.8972C64.5528 37.108 64.7988 37.3189 64.9042 37.4595C65.0799 37.8109 64.9745 38.1623 64.6582 38.338C64.3068 38.5488 63.6391 38.5488 63.3931 38.338L63.2174 38.1974L63.4283 37.9866C63.6743 37.7406 63.7094 37.5649 63.4634 37.354C63.0769 37.0026 62.4795 37.2837 62.4795 37.7757C62.4795 38.2677 62.7606 38.4785 63.0769 38.6542C63.4986 38.8651 64.4473 38.8651 64.9393 38.6191C65.5718 38.3028 66.0287 37.4946 65.7827 37.0026C65.6421 36.7215 65.2907 36.3701 64.9393 36.2295C64.5879 36.089 64.5528 36.0187 64.4122 35.8781C63.7094 35.3159 64.4825 34.4022 65.3259 34.7536L65.6421 34.8591L65.4313 35.1051C65.1853 35.351 65.1853 35.5267 65.5016 35.7024C65.6773 35.8079 65.7475 35.8079 65.9232 35.7024C66.0287 35.6322 66.2044 35.4916 66.2395 35.3862C66.3449 35.2105 66.3449 35.1402 66.2395 34.8591C65.9584 34.2617 65.0096 34.086 64.2014 34.4374L64.2365 34.5779Z" fill="white"></path>
<path d="M70.8779 34.5429C70.3157 34.824 69.8589 35.3862 69.8589 35.8782C69.8589 36.3702 70.2805 36.6162 70.8076 36.8973C71.5807 37.3541 71.7564 37.8109 71.3347 38.2678C71.1239 38.4786 71.0185 38.5137 70.6671 38.5137C70.3157 38.5137 70.14 38.4435 69.9994 38.3732L69.7534 38.2326L69.9994 37.9515C70.2103 37.7406 70.2454 37.6704 70.1751 37.5298C69.9643 37.1081 69.3669 37.1784 69.156 37.6352C68.8749 38.2326 69.6129 38.9003 70.5265 38.9003C71.4402 38.9003 71.651 38.6543 71.9673 38.338C72.2835 38.0218 72.4944 37.4947 72.4241 37.1433C72.3538 36.8621 71.897 36.4405 71.3347 36.1242C70.8428 35.8431 70.7022 35.5619 70.8076 35.2105C70.9482 34.7537 71.8619 34.578 72.143 34.9294C72.2133 35.0348 72.2133 35.1051 72.0376 35.2808C71.8267 35.4917 71.8267 35.4917 71.9673 35.7025C72.1781 35.9485 72.5998 35.9485 72.8106 35.7025C72.9863 35.4917 72.9512 35.07 72.7404 34.7889C72.389 34.4023 71.5104 34.2969 70.8779 34.578V34.5429Z" fill="white"></path>
<path d="M78.0468 34.5075C77.8008 34.6129 77.5197 34.8237 77.1331 35.1751C76.5006 35.8076 76.2546 36.3699 76.1843 37.2484C76.1843 37.7404 76.1843 37.8809 76.3249 38.162C76.606 38.7243 76.852 38.8649 77.5548 38.8649C78.1873 38.8649 78.5739 38.7243 79.0658 38.2675C79.3118 38.0566 79.9443 37.143 79.9443 37.0024C79.9443 36.8619 79.6632 37.0024 79.347 37.4241C78.9604 37.9512 78.3279 38.3378 77.9062 38.3378C77.4845 38.3378 77.2034 37.9512 77.2034 37.6701C77.2034 37.389 77.2034 37.4241 77.1683 37.3538C77.1683 37.2835 77.2737 37.1781 77.6954 37.0376C78.5387 36.7564 79.1713 36.405 79.5929 35.9834C79.9795 35.5617 80.0498 35.3508 79.8389 34.894C79.5929 34.402 78.8198 34.2263 78.0116 34.5075H78.0468ZM79.1361 34.9994C79.2415 35.2805 79.0307 35.8428 78.6793 36.1591C78.3982 36.405 77.5197 36.897 77.344 36.897C77.1683 36.897 77.5548 35.6319 77.9062 35.2454C78.3279 34.7886 78.9955 34.648 79.1361 34.9994Z" fill="white"></path>
<path d="M83.4232 34.5429C83.0367 34.7186 82.5447 35.1754 82.1582 35.7728C81.9825 36.0188 81.877 36.1594 81.877 36.0891C82.1582 35.2457 82.2636 34.6835 82.2284 34.6132C82.1582 34.4375 81.104 34.4375 80.7877 34.6132C80.4714 34.7889 80.4714 34.9295 80.858 34.9295C81.2445 34.9295 81.2094 34.9295 81.2094 34.9997C81.2094 35.0349 81.0688 35.9134 80.8228 36.8973C80.5066 38.2678 80.4012 38.7598 80.5066 38.7598C80.5769 38.7598 80.7526 38.7598 80.9634 38.7598H81.3148L81.4905 38.0569C81.7365 37.073 82.2636 36.0891 82.7556 35.562C83.1772 35.1403 83.5638 34.9646 83.7043 35.1052C83.8449 35.2457 83.6341 35.7377 83.3529 36.7919C82.7556 38.9355 82.7556 38.7246 83.2827 38.7246H83.7395L83.9503 37.9164C84.0909 37.4596 84.3017 36.8622 84.4774 36.5459C84.9342 35.6323 85.8479 34.824 86.129 35.1052C86.4101 35.3863 86.0236 35.8431 85.7425 36.7568C85.3208 38.2678 85.3208 38.3732 85.4262 38.5841C85.5668 38.8652 85.9182 38.9706 86.3047 38.83C86.7616 38.6895 87.7455 37.4947 87.5346 37.319C87.5346 37.319 87.2535 37.4947 87.0075 37.7758C86.5858 38.2678 86.5156 38.3029 86.4101 38.1624C86.3047 38.0218 86.3399 37.811 86.7615 36.4405L87.2184 34.8592L86.9372 34.6132C86.621 34.3321 86.3047 34.2969 85.8128 34.5429C85.4262 34.7186 84.864 35.2809 84.5828 35.7377C84.4774 35.9485 84.372 36.0891 84.372 36.0891C84.372 36.0891 84.4423 35.8431 84.5477 35.5268C84.7586 34.8943 84.7234 34.6835 84.3369 34.5078C84.0557 34.3672 83.7746 34.3672 83.3881 34.5429H83.4232Z" fill="white"></path>
<path d="M94.6681 34.4724C94.0707 34.6832 93.5436 35.3509 93.5085 35.878C93.5085 36.124 93.9301 36.6159 94.4221 36.8971C95.0195 37.2485 95.1952 37.4242 95.1952 37.8107C95.1952 38.1973 94.8438 38.5487 94.3167 38.5487C93.7896 38.5487 93.5085 38.4081 93.5085 38.2675C93.5085 38.127 93.6139 38.0918 93.7193 37.9513C93.895 37.7756 93.9301 37.7053 93.8247 37.5647C93.5436 37.0376 92.7705 37.2836 92.7705 37.881C92.7705 39.0055 94.7735 39.2866 95.6871 38.3027C96.3197 37.635 96.1791 36.8619 95.2303 36.3348C94.4924 35.9131 94.2815 35.632 94.4572 35.2103C94.6329 34.7535 95.4763 34.5778 95.7574 34.9292C95.8629 35.0346 95.8277 35.0698 95.6871 35.2455C95.3709 35.5617 95.5466 35.878 96.0034 35.878C96.7765 35.878 96.7414 34.8238 95.9683 34.5075C95.652 34.367 95.0195 34.367 94.6681 34.5075V34.4724Z" fill="white"></path>
<path d="M112.414 34.578C111.992 34.7537 111.325 35.4214 111.114 35.8782C110.903 36.2647 110.903 36.089 111.114 35.3511C111.219 34.9646 111.289 34.6132 111.289 34.578C111.219 34.4726 110.095 34.4726 109.884 34.578C109.568 34.7537 109.568 34.8943 109.954 34.8943C110.341 34.8943 110.27 34.8943 110.27 35.0348C110.27 35.1754 110.095 35.8782 109.919 36.7216C109.743 37.5649 109.532 38.3732 109.497 38.5137L109.427 38.7948H110.341L110.446 38.4434C110.481 38.2677 110.587 37.9515 110.622 37.7758C110.727 37.2838 111.289 36.1945 111.571 35.8431C111.992 35.316 112.695 34.9294 112.836 35.1403C112.836 35.1403 112.66 35.9836 112.379 36.8973C112.133 37.8461 111.887 38.6543 111.887 38.6894C111.887 38.7597 112.027 38.7948 112.344 38.7948C112.66 38.7948 112.8 38.7948 112.836 38.6894C113.257 37.0378 113.574 36.3702 114.136 35.7376C114.663 35.1403 115.225 34.8943 115.225 35.2105C115.225 35.5268 115.049 36.0188 114.803 36.827C114.347 38.4434 114.347 38.6191 114.733 38.8651C115.049 39.0408 115.471 38.9354 115.858 38.5489C116.209 38.2326 116.701 37.4244 116.596 37.3541C116.596 37.3541 116.315 37.5298 116.069 37.8109C115.647 38.3029 115.577 38.338 115.471 38.1975C115.366 38.0569 115.366 37.9515 115.752 36.581C115.998 35.7728 116.174 35.0348 116.174 34.9294C116.174 34.5077 115.647 34.2969 115.049 34.4726C114.593 34.6131 114.136 34.9997 113.714 35.5971C113.538 35.8782 113.398 36.089 113.398 36.0539C113.398 36.0539 113.468 35.8079 113.574 35.5268C113.784 34.8943 113.784 34.7889 113.468 34.578C113.152 34.332 112.906 34.2969 112.379 34.578H112.414Z" fill="white"></path>
<path d="M125.205 34.5427C124.818 34.7184 124.291 35.2103 123.905 35.7726C123.729 36.0186 123.624 36.1943 123.624 36.1591C123.624 36.124 123.729 35.7726 123.87 35.3509C124.045 34.7887 124.08 34.5778 124.01 34.5075C123.87 34.4021 122.78 34.4373 122.569 34.5427C122.253 34.7184 122.253 34.8589 122.64 34.8589C123.026 34.8589 122.991 34.8589 122.991 34.9292C122.991 34.9644 122.851 35.8077 122.605 36.8268C122.359 37.8459 122.218 38.6892 122.253 38.7244C122.253 38.7595 122.499 38.7947 122.71 38.7595H123.097L123.272 38.0216C123.624 36.616 124.537 35.2806 125.24 35.0698C125.732 34.9292 125.732 35.0346 125.24 36.616C124.748 38.3378 124.713 38.5487 125.029 38.7595C125.451 39.0758 125.943 38.9352 126.505 38.3378C126.892 37.9162 127.138 37.4242 127.067 37.3188C126.997 37.2133 126.786 37.4945 126.54 37.7756C126.119 38.2324 126.048 38.3027 125.943 38.1973C125.837 38.0919 125.873 37.9162 126.259 36.5457C126.505 35.7023 126.681 34.9644 126.646 34.8589C126.505 34.4021 125.802 34.2616 125.205 34.5427Z" fill="white"></path>
<path d="M129.246 34.5426C128.122 34.9995 127.243 36.5808 127.489 37.8107C127.559 38.2324 128.016 38.6892 128.473 38.8297C129.808 39.2163 131.284 38.0215 131.601 36.4051C131.741 35.632 131.565 34.9995 131.003 34.6129C130.687 34.3669 129.843 34.3318 129.246 34.5778V34.5426ZM130.441 34.9643C130.581 35.1049 130.617 35.2454 130.617 35.7374C130.617 37.4593 129.598 38.9 128.754 38.4432C128.086 38.0918 128.543 35.632 129.457 34.9643C129.773 34.7535 130.23 34.7183 130.441 34.9643Z" fill="white"></path>
<path d="M133.568 34.578C132.866 34.8942 132.444 35.6322 132.725 36.1593C132.831 36.4053 133.077 36.6161 133.814 37.0729C134.693 37.6352 134.412 38.5137 133.323 38.5137C132.233 38.5137 132.831 38.4785 132.725 38.3731L132.549 38.2326L132.76 38.0217C132.866 37.9163 132.971 37.7757 132.971 37.7055C132.971 37.4946 132.655 37.2838 132.374 37.2838C131.882 37.2838 131.671 37.8109 131.987 38.338C132.233 38.7245 132.585 38.9002 133.287 38.9002C133.99 38.9002 134.939 38.4785 135.15 37.6352C135.29 37.1432 134.974 36.7215 134.236 36.2647C133.674 35.9484 133.533 35.7727 133.533 35.4565C133.533 34.9294 134.131 34.6131 134.728 34.8591L135.044 34.9645L134.834 35.2105C134.588 35.4565 134.588 35.6322 134.904 35.8079C135.08 35.9133 135.15 35.9133 135.326 35.8079C135.431 35.7376 135.607 35.597 135.677 35.4916C135.782 35.3159 135.782 35.2456 135.677 34.9645C135.396 34.3671 134.447 34.1563 133.639 34.5428L133.568 34.578Z" fill="white"></path>
<path d="M67.2587 34.5427C67.1533 34.5427 67.0479 34.6481 67.0479 34.7536C67.0127 34.859 67.0479 34.8941 67.3641 34.8941C67.6804 34.8941 67.7507 34.8941 67.7507 34.9644C67.7507 34.9644 67.575 35.7726 67.2939 36.7214C66.837 38.2325 66.8019 38.4082 66.9073 38.619C66.9776 38.7596 67.1182 38.865 67.329 38.9353C67.8912 39.0758 68.4535 38.6893 68.9806 37.8108C69.3671 37.1782 69.0509 37.2485 68.5238 37.9162C68.2075 38.3379 67.9264 38.4433 67.8912 38.1622C67.8912 38.0919 68.1021 37.2837 68.3481 36.37C68.6292 35.4564 68.8049 34.6481 68.8049 34.613C68.7346 34.5076 67.5047 34.5076 67.2587 34.613V34.5427Z" fill="white"></path>
<path d="M90.3809 34.5428C89.8187 34.6482 89.3267 34.9293 88.8699 35.3861C88.2374 36.0538 87.8508 36.9323 87.8508 37.9162C87.8508 38.9002 87.8508 38.4433 88.0265 38.619C88.4482 39.111 89.397 38.9002 90.0998 38.0919C90.3106 37.846 90.5566 37.5297 90.6269 37.4243C90.8378 37.0026 90.8378 37.2134 90.6269 37.8459C90.4512 38.3731 90.4161 38.4785 90.5566 38.619C90.8026 39.0056 91.4703 38.9704 91.9974 38.4785C92.3488 38.1622 92.8408 37.3891 92.7353 37.2837C92.6299 37.1783 92.4542 37.4594 92.2082 37.7405C91.7514 38.2325 91.7163 38.2676 91.6108 38.1271C91.5054 37.9865 91.5054 37.8811 91.9623 36.2646C92.2434 35.3158 92.4191 34.5076 92.4191 34.4725C92.3488 34.3319 91.9271 34.4022 91.7865 34.5779C91.646 34.7185 91.646 34.7185 91.3297 34.5779C91.0135 34.4022 90.908 34.4022 90.3809 34.5076V34.5428ZM91.0837 35.0699C91.3297 35.3158 91.2946 35.5618 90.8378 36.4403C90.4864 37.1783 89.9241 37.8811 89.4321 38.0919C88.9753 38.3028 88.8699 38.2676 88.8699 37.7405C88.8699 36.5809 89.5024 35.3861 90.2755 34.9644C90.6269 34.7887 90.8378 34.7887 91.0486 35.0347L91.0837 35.0699Z" fill="white"></path>
<path d="M104.613 34.5779C104.261 34.7536 104.296 34.8941 104.718 34.8941C105.14 34.8941 105.105 34.8941 105.105 34.9995C105.105 35.105 104.894 35.8078 104.648 36.6511C104.402 37.4945 104.191 38.2676 104.191 38.373C104.191 38.6541 104.613 38.9704 104.999 38.9704C105.597 38.9704 106.58 38.2676 106.967 37.5999C107.143 37.2837 107.143 37.4594 106.967 37.9865C106.826 38.4433 106.791 38.5136 106.932 38.6893C107.213 39.111 108.021 39.0055 108.513 38.4433C108.794 38.127 109.181 37.4594 109.146 37.3891C109.04 37.2837 108.829 37.4945 108.548 37.8459C108.232 38.2676 108.056 38.4082 107.916 38.2676C107.775 38.127 107.916 37.7405 108.267 36.4403C108.513 35.4915 108.689 34.6833 108.654 34.613C108.583 34.5076 107.986 34.5076 107.846 34.613C107.81 34.613 107.705 34.859 107.635 35.105C107.354 36.3349 106.862 37.3188 106.299 37.8459C105.913 38.1973 105.386 38.4433 105.245 38.3027C105.105 38.1622 105.315 37.6702 105.667 36.5106C105.948 35.5618 106.159 34.7536 106.124 34.6833C106.053 34.5427 104.894 34.5427 104.613 34.6833V34.5779Z" fill="white"></path>
<path d="M119.442 34.5429C118.177 34.7889 117.158 35.9485 116.947 37.3541C116.806 38.1272 116.841 38.2678 117.052 38.5489C117.579 39.1814 118.704 38.83 119.477 37.7055C119.653 37.4596 119.793 37.2839 119.828 37.2839C119.828 37.2839 119.793 37.5298 119.688 37.7758C119.477 38.4083 119.477 38.5138 119.723 38.6895C120.25 39.1112 121.164 38.6192 121.656 37.6704C121.902 37.1784 121.726 37.2136 121.234 37.7407C120.742 38.2678 120.566 38.3381 120.566 37.9867C120.566 37.6353 120.777 37.1433 121.023 36.2648C121.269 35.4214 121.48 34.6483 121.48 34.5781C121.48 34.3672 121.058 34.3672 120.883 34.5781C120.742 34.7186 120.742 34.7186 120.426 34.5781C120.11 34.4024 120.004 34.4024 119.477 34.5078L119.442 34.5429ZM120.145 35.07C120.32 35.2809 120.32 35.2809 120.18 35.7025C119.828 36.7919 119.126 37.811 118.493 38.1272C118.177 38.2678 118.107 38.3029 118.001 38.1975C117.896 38.0921 117.896 37.9867 117.931 37.6001C118.036 36.4756 118.563 35.4566 119.231 35.07C119.653 34.824 119.934 34.824 120.145 35.07Z" fill="white"></path>
</g>
<defs>
<clipPath id="clip0_9589_1355">
<rect width="135.677" height="39.0057" fill="white"></rect>
</clipPath>
</defs>
</svg>