<svg width="152" height="52" viewBox="0 0 152 52" fill="none" xmlns="http://www.w3.org/2000/svg">
<g clip-path="url(#clip0_9589_887)">
<path d="M25.8827 0C24.6323 0 21.8377 0.327642 18.9726 9.19622C10.3994 5.02182 8.51883 6.6661 7.58057 7.61666C6.70271 8.49846 4.95506 10.7191 9.15306 18.9992C0.243625 22.045 0 25.1212 0 25.999C0 26.8161 0.330203 29.9833 9.1289 32.9219C4.96915 41.4164 6.96043 43.7665 7.57453 44.3894C8.14836 44.9658 10.6168 46.9721 18.8961 42.8018C21.89 51.7533 24.6786 51.998 25.8786 51.998C27.0786 51.998 29.9176 51.6703 32.7767 42.8402C41.1908 47.0449 43.3371 45.2368 44.1807 44.3894C45.0586 43.5036 46.8062 41.2869 42.6082 32.9988C51.5197 29.9529 51.7633 26.8747 51.7633 25.997C51.7633 25.1799 51.4331 22.0127 42.6344 19.074C46.7942 10.5836 44.8029 8.22947 44.1807 7.61464C43.6029 7.03823 41.1304 5.02789 32.825 9.22049C29.7042 0.167866 27.2156 0 25.8827 0ZM9.86984 9.9142C10.1477 9.6351 11.086 8.42566 18.3343 11.3299C18.3001 11.4553 18.2618 11.5747 18.2316 11.7081C17.1907 15.4861 14.9195 17.2801 11.7202 18.1963C11.5571 18.2428 11.4021 18.2873 11.249 18.3338C8.18661 11.2551 9.51749 10.2702 9.86984 9.91218V9.9142ZM31.4216 12.2603C31.4981 12.2219 31.5706 12.1875 31.6491 12.1571C31.6954 12.2684 31.7357 12.3776 31.778 12.4888C33.2599 16.2709 35.6337 18.805 39.4713 20.2167C39.5579 20.2511 39.6344 20.2774 39.7109 20.3077C39.6586 20.419 39.6123 20.5221 39.5619 20.6394C37.8787 24.3406 37.772 27.8819 39.5619 31.5729C39.6002 31.6498 39.6344 31.7287 39.6727 31.8055C39.5619 31.852 39.4451 31.8925 39.3344 31.935C35.5471 33.3467 32.972 35.7696 31.6411 39.6507C31.6149 39.7377 31.5807 39.8146 31.5545 39.8955C31.4438 39.8429 31.3371 39.7964 31.2162 39.7458C27.5196 38.0813 24.0404 38.0166 20.3316 39.7458C20.2551 39.7842 20.1766 39.8186 20.1041 39.8489C20.0578 39.7377 20.0175 39.6285 19.9753 39.5092C18.5316 35.713 16.1195 33.193 12.2819 31.7813C12.1954 31.7469 12.1188 31.7206 12.0423 31.6903C12.0886 31.579 12.141 31.4759 12.1913 31.3626C13.8746 27.6615 13.9511 24.1424 12.1913 20.4291C12.1531 20.3522 12.1188 20.2733 12.0806 20.1965C12.1913 20.15 12.3081 20.1095 12.4188 20.0671C16.2101 18.6513 18.7471 16.2122 20.1222 12.3432C20.1484 12.2663 20.1826 12.1875 20.2088 12.1106C20.3196 12.1571 20.4283 12.2097 20.5471 12.2522C24.2478 13.8864 27.7189 13.9915 31.4236 12.2603H31.4216ZM3.23357 25.999C3.23357 25.5419 3.00203 23.934 10.194 20.9549C10.2665 21.0803 10.3349 21.2098 10.4074 21.3331C12.3303 24.741 11.9799 27.6251 10.3692 30.5415C10.2927 30.679 10.2202 30.8125 10.1417 30.95C3.0725 28.072 3.23156 26.4136 3.23156 25.997L3.23357 25.999ZM9.86984 42.0898C9.54367 41.7622 8.25104 40.7894 11.241 33.5732C11.3779 33.6116 11.5108 33.65 11.6558 33.6885C15.4168 34.7341 17.1947 37.0154 18.1169 40.2292C18.1632 40.3849 18.2075 40.5346 18.2457 40.6842C11.2148 43.6714 10.1618 42.3831 9.86984 42.0878V42.0898ZM25.8827 48.7499C25.5021 48.7499 23.9558 49.1422 20.8753 41.748C20.99 41.6833 21.1149 41.6105 21.2397 41.5458C24.6323 39.6143 27.5035 39.9662 30.4068 41.5842C30.5558 41.6712 30.7028 41.7521 30.8518 41.8289C28.0974 48.9501 26.2511 48.7479 25.8827 48.7479V48.7499ZM41.9015 42.0898C41.6317 42.3609 40.8082 43.7341 33.433 40.7004C33.4713 40.571 33.5095 40.4334 33.5438 40.2959C34.5847 36.5179 36.8559 34.724 40.0552 33.8058C40.2223 33.7592 40.3854 33.7067 40.5485 33.6642C43.6029 40.666 42.1673 41.8269 41.9015 42.0898ZM48.5318 25.999C48.5318 26.4561 48.7633 28.0639 41.5713 31.0431C41.4988 30.9177 41.4344 30.7983 41.366 30.6649C39.4431 27.257 39.7935 24.3729 41.4042 21.4565C41.4807 21.3149 41.5592 21.1774 41.6317 21.0399C48.6969 23.928 48.5338 25.5884 48.5338 26.001L48.5318 25.999ZM41.9015 9.9142C42.2277 10.2418 43.5203 11.2147 40.5304 18.4309C40.3935 18.3924 40.2606 18.354 40.1156 18.3156C36.3545 17.27 34.627 14.9684 33.6545 11.7749C33.6082 11.6252 33.5639 11.4776 33.5176 11.3279C40.5566 8.33667 41.6096 9.62296 41.9015 9.91622V9.9142ZM30.874 10.2621C30.7632 10.3268 30.6464 10.3875 30.5317 10.4562C27.139 12.3877 24.2941 11.9872 21.3645 10.4178C21.2155 10.3409 21.0726 10.2621 20.9236 10.1852C23.7504 3.00338 25.3874 3.2481 25.8887 3.2481C26.2733 3.2481 27.7874 3.05395 30.876 10.2621H30.874Z" fill="white"></path>
<path fill-rule="evenodd" clip-rule="evenodd" d="M68.9541 33.8928C68.9541 34.3438 69.3044 34.7139 69.7373 34.7139H82.8548C82.9152 34.7139 82.9615 34.6613 82.9615 34.6026V33.4276C82.9615 33.3669 82.9152 33.3163 82.8548 33.3163H70.7783C70.6373 33.3163 70.5206 33.195 70.5206 33.0453V26.444C70.5206 26.2943 70.6353 26.177 70.7783 26.177H82.0535C82.1139 26.177 82.1602 26.1244 82.1602 26.0658V24.9251C82.1602 24.8644 82.1139 24.8138 82.0535 24.8138H70.7783C70.6373 24.8138 70.5206 24.6925 70.5206 24.5469V18.9608C70.5206 18.8111 70.6353 18.6938 70.7783 18.6938H82.6756C82.736 18.6938 82.7823 18.6412 82.7823 18.5826V17.4035C82.7823 17.3428 82.736 17.2922 82.6756 17.2922H69.7373C69.3044 17.2922 68.9541 17.6623 68.9541 18.1134V33.8928Z" fill="white"></path>
<path fill-rule="evenodd" clip-rule="evenodd" d="M90.7717 34.7098H103.863C103.923 34.7098 103.974 34.6573 103.974 34.5986V33.4235C103.974 33.3588 103.921 33.3123 103.863 33.3123H91.7019C91.557 33.3123 91.4362 33.191 91.4362 33.0413V17.4035C91.4362 17.3428 91.3838 17.2922 91.3254 17.2922H90.0751C90.0147 17.2922 89.9644 17.3448 89.9644 17.4035V33.8928C89.9684 34.3438 90.3288 34.7098 90.7738 34.7098H90.7717Z" fill="white"></path>
<path fill-rule="evenodd" clip-rule="evenodd" d="M137.437 28.3066L142.102 19.1023C142.154 19.0073 142.257 18.9729 142.333 18.9729C142.414 18.9729 142.517 19.0073 142.565 19.1023L147.222 28.3066C147.264 28.3875 147.26 28.4927 147.214 28.5696C147.168 28.6505 147.081 28.703 146.986 28.703H137.664C137.574 28.703 137.489 28.6565 137.441 28.5736C137.394 28.4927 137.394 28.3936 137.437 28.3066ZM136.684 30.0702H147.977C148.076 30.0702 148.16 30.1269 148.208 30.2118L150.445 34.6491C150.464 34.6876 150.502 34.7098 150.544 34.7098H151.893C151.931 34.7098 151.966 34.6876 151.988 34.6532C152.006 34.6188 152.01 34.5763 151.992 34.5419L143.668 18.1336C143.626 18.0466 143.215 17.2861 142.327 17.2861C141.439 17.2861 141.008 18.0951 140.99 18.1295L132.671 34.546C132.653 34.5804 132.653 34.6228 132.675 34.6572C132.697 34.6916 132.731 34.7138 132.769 34.7138H134.118C134.161 34.7138 134.195 34.6916 134.217 34.6532L136.454 30.2219C136.5 30.1269 136.587 30.0723 136.686 30.0723L136.684 30.0702Z" fill="white"></path>
<path fill-rule="evenodd" clip-rule="evenodd" d="M125.28 28.5938C125.032 28.1509 124.694 27.7504 124.273 27.4066C123.852 27.0668 123.357 26.7615 122.791 26.5026C122.23 26.2437 121.626 26.0111 120.995 25.8008C120.365 25.5945 119.711 25.3963 119.042 25.2203C118.374 25.0403 117.724 24.8623 117.093 24.6864C116.481 24.5185 115.881 24.3284 115.303 24.1221C114.746 23.9239 114.25 23.7014 113.834 23.4547C113.419 23.214 113.089 22.9289 112.845 22.6154C112.601 22.3019 112.481 21.9439 112.481 21.5232C112.481 21.0196 112.605 20.599 112.865 20.2369C113.123 19.8749 113.499 19.5695 113.987 19.3329C114.462 19.1003 115.054 18.9749 115.795 18.8556C116.475 18.7484 117.26 18.6877 118.124 18.6877H124.241C124.267 18.6877 124.293 18.6756 124.313 18.6533C124.332 18.6311 124.344 18.6068 124.344 18.5765V17.3974C124.344 17.3367 124.297 17.2861 124.245 17.2861H118.132C117.532 17.2861 115.781 17.3286 114.79 17.5875C114.266 17.7129 113.767 17.8888 113.308 18.1032C112.845 18.3176 112.438 18.5947 112.096 18.9122C111.754 19.2297 111.476 19.614 111.279 20.0569C111.081 20.4958 110.979 21.0075 110.979 21.5758C110.979 22.1441 111.103 22.6639 111.351 23.1028C111.599 23.5376 111.937 23.9239 112.358 24.2556C112.772 24.5832 113.27 24.8745 113.836 25.1253C114.397 25.37 115.001 25.5945 115.621 25.7886C116.242 25.9828 116.898 26.1668 117.566 26.3347C118.235 26.5026 118.885 26.6745 119.507 26.8464C120.138 27.0224 120.738 27.2165 121.289 27.4188C121.851 27.621 122.342 27.8576 122.759 28.1206C123.176 28.3835 123.504 28.6929 123.748 29.0367C123.991 29.3846 124.108 29.777 124.108 30.2381C124.108 30.8145 123.959 31.2878 123.655 31.6842C123.355 32.0806 122.926 32.4022 122.383 32.6489C121.821 32.9037 121.136 33.019 120.43 33.1262C119.739 33.2334 118.934 33.29 117.967 33.2981H111.168C111.111 33.2981 111.069 33.3507 111.069 33.4093V34.5885C111.069 34.6532 111.111 34.6997 111.168 34.6997L117.919 34.7037C118.505 34.7037 119.115 34.6774 119.719 34.6228C120.327 34.5703 120.923 34.4772 121.493 34.3478L121.622 34.3174C122.139 34.2022 122.632 34.0849 123.103 33.8786C123.609 33.6541 124.05 33.3669 124.426 33.0271C124.803 32.6873 125.103 32.2747 125.326 31.8055C125.55 31.3323 125.66 30.772 125.66 30.141C125.652 29.5606 125.528 29.0388 125.28 28.5958V28.5938Z" fill="white"></path>
</g>
<defs>
<clipPath id="clip0_9589_887">
<rect width="152" height="52" fill="white"></rect>
</clipPath>
</defs>
</svg>