<svg width="179" height="56" viewBox="0 0 179 56" fill="none" xmlns="http://www.w3.org/2000/svg">
<g clip-path="url(#clip0_9589_842)">
<path d="M61.8156 21.0479C61.8156 22.2551 61.3887 23.2847 60.5337 24.1367C59.6788 24.9887 58.6521 25.4142 57.4535 25.4142C56.6731 25.4142 55.9447 25.2172 55.267 24.8231C54.5893 24.429 54.0554 23.8974 53.6653 23.2294C53.6296 23.158 53.6123 23.0909 53.6123 23.027C53.6123 22.7856 53.7431 22.6643 54.0057 22.6643C54.1192 22.6643 54.2219 22.7282 54.3137 22.8548C54.3851 22.9674 54.5018 23.1374 54.665 23.3637C55.3816 24.2255 56.3111 24.6575 57.4524 24.6575C58.4456 24.6575 59.2962 24.3023 60.0063 23.5921C60.7153 22.8819 61.0698 22.0299 61.0698 21.036C61.0698 20.0421 60.7153 19.1901 60.0063 18.4799C59.2973 17.7696 58.4478 17.4145 57.4578 17.4145C56.4678 17.4145 55.6258 17.0648 54.9309 16.3655C54.2359 15.6661 53.8879 14.8259 53.8879 13.8461C53.8879 12.8663 54.2348 12.0273 54.9309 11.3279C55.6258 10.6285 56.4667 10.2788 57.4524 10.2788C58.8077 10.2788 59.8323 10.8689 60.5273 12.0479C60.5694 12.1117 60.591 12.1799 60.591 12.2503C60.591 12.4917 60.4592 12.613 60.1976 12.613C60.1057 12.613 59.9425 12.4787 59.708 12.2103C59.4173 11.8649 59.1471 11.6105 58.8996 11.4481C58.4813 11.1731 57.9982 11.0356 57.4524 11.0356C56.672 11.0356 56.0074 11.3127 55.4572 11.866C54.9071 12.4203 54.6326 13.0839 54.6326 13.857C54.6326 14.63 54.9071 15.2947 55.4572 15.849C56.0074 16.4033 56.672 16.6794 57.4524 16.6794C58.651 16.6794 59.6777 17.1049 60.5327 17.9569C61.3876 18.809 61.8145 19.8386 61.8145 21.0457L61.8156 21.0479Z" fill="white"></path>
<path d="M73.1996 20.2458C73.1996 21.6738 72.6959 22.8929 71.6886 23.9019C70.6813 24.9109 69.4654 25.4155 68.0387 25.4155C66.6121 25.4155 65.3962 24.9109 64.3889 23.9019C63.3816 22.8929 62.8779 21.6738 62.8779 20.2458C62.8779 18.8178 63.3816 17.5987 64.3889 16.5897C65.3962 15.5807 66.6121 15.0762 68.0387 15.0762C69.4654 15.0762 70.6813 15.5807 71.6886 16.5897C72.6959 17.5987 73.1996 18.8178 73.1996 20.2458ZM72.4549 20.2458C72.4549 19.0268 72.0236 17.9863 71.1623 17.1256C70.3009 16.2638 69.259 15.834 68.0398 15.834C66.8207 15.834 65.7788 16.2649 64.9174 17.1256C64.056 17.9874 63.6248 19.0268 63.6248 20.2458C63.6248 21.4649 64.056 22.5053 64.9174 23.366C65.7788 24.2278 66.8207 24.6576 68.0398 24.6576C69.259 24.6576 70.3009 24.2267 71.1623 23.366C72.0236 22.5042 72.4549 21.4649 72.4549 20.2458Z" fill="white"></path>
<path d="M81.499 11.3574C81.499 11.6064 81.3715 11.7309 81.1164 11.7309C81.1024 11.7309 80.9057 11.6151 80.5263 11.3845C80.147 11.1539 79.7795 11.0381 79.425 11.0381C78.8716 11.0381 78.3961 11.2362 77.9994 11.6335C77.6017 12.0308 77.4039 12.505 77.4039 13.0583V15.0785H79.425C79.6736 15.0785 79.7979 15.2052 79.7979 15.4563C79.7979 15.7075 79.6736 15.8342 79.425 15.8342H77.4039V25.0432C77.4039 25.2911 77.2796 25.4156 77.031 25.4156C76.7824 25.4156 76.6581 25.2911 76.6581 25.0432V15.8342H74.637C74.3885 15.8342 74.2642 15.7086 74.2642 15.4563C74.2642 15.2041 74.3885 15.0785 74.637 15.0785H76.6581V13.0539C76.6581 12.2939 76.9294 11.6422 77.472 11.0987C78.0145 10.5552 78.6652 10.2834 79.4239 10.2834C80.2756 10.2834 80.9273 10.553 81.3812 11.0933C81.459 11.1853 81.4979 11.2741 81.4979 11.3596L81.499 11.3574Z" fill="white"></path>
<path d="M89.2655 24.349C89.2655 24.427 89.2266 24.5125 89.1488 24.6045C88.6949 25.1448 88.0421 25.4144 87.1915 25.4144C86.4328 25.4144 85.7821 25.1426 85.2395 24.6002C84.697 24.0578 84.4257 23.406 84.4257 22.646V15.8329H82.4046C82.156 15.8329 82.0317 15.7073 82.0317 15.4551C82.0317 15.2028 82.156 15.0772 82.4046 15.0772H84.4257V10.6535C84.4257 10.4045 84.55 10.28 84.7986 10.28C85.0472 10.28 85.1715 10.4045 85.1715 10.6535V15.0772H87.1926C87.4411 15.0772 87.5654 15.2039 87.5654 15.4551C87.5654 15.7063 87.4411 15.8329 87.1926 15.8329H85.1715V22.6374C85.1715 23.1906 85.3703 23.6648 85.767 24.0621C86.1636 24.4595 86.6392 24.6576 87.1926 24.6576C87.5471 24.6576 87.9145 24.5417 88.2939 24.3111C88.6732 24.0805 88.87 23.9647 88.884 23.9647C89.1391 23.9647 89.2666 24.0924 89.2666 24.348L89.2655 24.349Z" fill="white"></path>
<path d="M107.045 15.4387C107.045 15.4961 105.445 18.7321 102.246 25.1479C102.154 25.3255 102.031 25.4142 101.876 25.4142C101.722 25.4142 101.609 25.3244 101.518 25.1447L98.6945 19.4878L95.8639 25.1479C95.7709 25.3255 95.6466 25.4132 95.491 25.4132C95.3354 25.4132 95.2208 25.3244 95.1278 25.1468C91.9287 18.7311 90.3291 15.4939 90.3291 15.4376C90.3291 15.1962 90.461 15.075 90.7247 15.075C90.8673 15.075 90.9743 15.1421 91.0457 15.2763L95.4986 24.2136L98.2784 18.6563C97.2354 16.5744 96.7145 15.5015 96.7145 15.4376C96.7145 15.1962 96.8463 15.075 97.1079 15.075C97.2495 15.075 97.3565 15.1421 97.4267 15.2774L101.882 24.2038L106.329 15.2763C106.401 15.1421 106.508 15.075 106.649 15.075C106.913 15.075 107.045 15.1962 107.045 15.4376V15.4387Z" fill="white"></path>
<path d="M115.248 25.0419C115.248 25.291 115.124 25.4155 114.875 25.4155C114.627 25.4155 114.503 25.291 114.503 25.0419V24.0297C113.787 24.9532 112.847 25.4155 111.684 25.4155C110.704 25.4155 109.866 25.0658 109.168 24.3653C108.469 23.6659 108.119 22.8247 108.119 21.8449C108.119 20.8651 108.468 20.0239 109.168 19.3245C109.866 18.6251 110.705 18.2743 111.684 18.2743C112.847 18.2743 113.787 18.7366 114.503 19.6601V18.65C114.503 17.8781 114.227 17.2155 113.673 16.6623C113.12 16.1101 112.456 15.8329 111.684 15.8329C111.18 15.8329 110.674 15.9888 110.167 16.3017C109.66 16.6146 109.414 16.7705 109.428 16.7705C109.173 16.7705 109.044 16.6428 109.044 16.3873C109.044 16.2952 109.083 16.2065 109.161 16.1209C109.8 15.4248 110.64 15.0762 111.683 15.0762C112.662 15.0762 113.5 15.4259 114.199 16.1263C114.897 16.8268 115.247 17.6669 115.247 18.6467V25.0419H115.248ZM114.503 21.8449C114.503 21.073 114.227 20.4115 113.673 19.8593C113.12 19.3072 112.456 19.0311 111.684 19.0311C110.911 19.0311 110.247 19.3072 109.694 19.8593C109.14 20.4115 108.864 21.073 108.864 21.8449C108.864 22.6168 109.14 23.2783 109.694 23.8305C110.247 24.3826 110.911 24.6587 111.684 24.6587C112.456 24.6587 113.12 24.3826 113.673 23.8305C114.227 23.2783 114.503 22.6168 114.503 21.8449Z" fill="white"></path>
<path d="M123.122 16.6641C123.122 16.9055 122.99 17.0268 122.729 17.0268C122.679 17.0268 122.457 16.8275 122.064 16.4302C121.67 16.0329 121.204 15.8337 120.664 15.8337C120.125 15.8337 119.635 16.0329 119.239 16.4302C118.841 16.8275 118.643 17.3028 118.643 17.8571V25.0438C118.643 25.2917 118.519 25.4162 118.271 25.4162C118.024 25.4162 117.898 25.2917 117.898 25.0427V15.4504C117.898 15.2014 118.023 15.0769 118.271 15.0769C118.52 15.0769 118.651 15.3714 118.643 15.9614C119.189 15.3714 119.863 15.0769 120.665 15.0769C121.772 15.0769 122.57 15.5392 123.059 16.4627C123.101 16.5341 123.123 16.6013 123.123 16.6651L123.122 16.6641Z" fill="white"></path>
<path d="M133.868 22.6331C133.868 22.6969 133.851 22.7651 133.815 22.8355C133.361 23.6248 132.731 24.2516 131.927 24.7171C131.122 25.1827 130.262 25.4155 129.347 25.4155C127.922 25.4155 126.705 24.9109 125.697 23.9019C124.69 22.8929 124.187 21.6738 124.187 20.2458C124.187 18.8178 124.69 17.5987 125.697 16.5897C126.705 15.5807 127.921 15.0762 129.347 15.0762C129.907 15.0762 130.482 15.179 131.071 15.3847C131.617 15.5839 132.184 15.9066 132.773 16.3548C133.497 16.9091 133.859 17.4104 133.859 17.8575C133.859 17.9993 133.798 18.1022 133.678 18.166L125.719 22.7705C126.599 24.0286 127.808 24.6576 129.347 24.6576C130.681 24.6576 131.777 24.1693 132.635 23.1928C132.755 23.0304 132.933 22.7825 133.167 22.4501C133.259 22.3299 133.366 22.2693 133.486 22.2693C133.741 22.2693 133.868 22.3905 133.868 22.632V22.6331ZM132.971 17.7146C132.093 16.4609 130.883 15.834 129.344 15.834C128.125 15.834 127.084 16.2649 126.223 17.1256C125.361 17.9874 124.93 19.0268 124.93 20.2458C124.93 20.9051 125.067 21.532 125.342 22.1275L132.97 17.7146H132.971Z" fill="white"></path>
<path d="M147.827 20.7687C147.827 22.0473 147.374 23.1419 146.466 24.0513C145.558 24.9607 144.465 25.4154 143.189 25.4154C142.38 25.4154 141.606 25.2054 140.869 24.7864C140.111 24.3599 139.543 23.7947 139.167 23.0921C139.089 22.9427 139.05 22.8084 139.05 22.6872C139.05 22.4739 139.134 22.2931 139.3 22.1437C139.466 21.9943 139.657 21.9196 139.87 21.9196C140.082 21.9196 140.302 22.0517 140.508 22.3137C140.586 22.4349 140.71 22.6081 140.88 22.8355C141.476 23.5251 142.245 23.8694 143.189 23.8694C144.039 23.8694 144.769 23.5652 145.375 22.9578C145.981 22.3505 146.285 21.6208 146.285 20.7676C146.285 19.9145 145.981 19.1848 145.375 18.5774C144.769 17.9701 144.039 17.6659 143.189 17.6659C142.124 17.6659 141.215 17.2869 140.46 16.5291C139.704 15.7712 139.326 14.8585 139.326 13.7911C139.326 12.7236 139.704 11.8109 140.46 11.053C141.215 10.2952 142.125 9.91626 143.189 9.91626C143.862 9.91626 144.509 10.0906 145.131 10.4403C145.751 10.79 146.218 11.2566 146.531 11.8412C146.608 11.9906 146.647 12.1303 146.647 12.258C146.647 12.4648 146.565 12.6435 146.403 12.7929C146.24 12.9423 146.052 13.017 145.839 13.017C145.669 13.017 145.346 12.7571 144.87 12.2385C144.395 11.72 143.835 11.4601 143.19 11.4601C142.545 11.4601 142.005 11.6886 141.551 12.1443C141.097 12.6001 140.87 13.149 140.87 13.7889C140.87 14.4287 141.097 14.9787 141.551 15.4345C142.005 15.8903 142.551 16.1177 143.19 16.1177C144.466 16.1177 145.559 16.5724 146.467 17.4818C147.375 18.3912 147.829 19.4858 147.829 20.7644L147.827 20.7687Z" fill="white"></path>
<path d="M162.297 12.7302C162.297 12.9446 162.217 13.1308 162.057 13.291C161.897 13.4512 161.711 13.5314 161.498 13.5314C161.343 13.5314 161.164 13.4491 160.967 13.2845C160.136 12.6209 159.466 12.1705 158.955 11.9345C158.274 11.6205 157.486 11.4624 156.594 11.4624C154.891 11.4624 153.436 12.0687 152.226 13.2813C151.017 14.4938 150.411 15.9532 150.411 17.6606C150.411 19.3679 151.018 20.8381 152.229 22.0507C153.441 23.2633 154.9 23.8696 156.607 23.8696C158.199 23.8696 159.581 23.3369 160.754 22.2705V17.666C160.754 17.1539 161.011 16.8984 161.525 16.8984C162.04 16.8984 162.297 17.1539 162.297 17.666V22.6007C162.297 23.3607 161.517 24.0428 159.956 24.6469C158.65 25.159 157.534 25.4145 156.604 25.4145C154.469 25.4145 152.647 24.6577 151.136 23.1431C149.625 21.6285 148.869 19.801 148.869 17.6606C148.869 15.5202 149.626 13.7035 151.139 12.1889C152.652 10.6743 154.472 9.91748 156.598 9.91748C157.584 9.91748 158.571 10.1134 159.564 10.5054C160.606 10.9265 161.435 11.4852 162.052 12.1835C162.215 12.3686 162.296 12.5505 162.296 12.7291L162.297 12.7302Z" fill="white"></path>
<path d="M177.278 12.7302C177.278 12.9446 177.198 13.1308 177.038 13.291C176.878 13.4512 176.692 13.5314 176.479 13.5314C176.324 13.5314 176.145 13.4491 175.947 13.2845C175.117 12.6209 174.447 12.1705 173.936 11.9345C173.255 11.6205 172.467 11.4624 171.575 11.4624C169.872 11.4624 168.416 12.0687 167.207 13.2813C165.998 14.4938 165.392 15.9532 165.392 17.6606C165.392 19.3679 165.999 20.8381 167.21 22.0507C168.422 23.2633 169.881 23.8696 171.588 23.8696C173.18 23.8696 174.562 23.3369 175.735 22.2705V17.666C175.735 17.1539 175.992 16.8984 176.506 16.8984C177.021 16.8984 177.278 17.1539 177.278 17.666V22.6007C177.278 23.3607 176.498 24.0428 174.937 24.6469C173.631 25.159 172.515 25.4145 171.585 25.4145C169.45 25.4145 167.627 24.6577 166.117 23.1431C164.606 21.6285 163.85 19.801 163.85 17.6606C163.85 15.5202 164.607 13.7035 166.12 12.1889C167.633 10.6743 169.453 9.91748 171.579 9.91748C172.565 9.91748 173.552 10.1134 174.545 10.5054C175.586 10.9265 176.415 11.4852 177.033 12.1835C177.196 12.3686 177.277 12.5505 177.277 12.7291L177.278 12.7302Z" fill="white"></path>
<path d="M77.5733 35.0811C77.5733 35.5196 77.4177 35.8941 77.1075 36.2038C76.7962 36.5134 76.4234 36.6682 75.9878 36.6682C75.7036 36.6682 75.4388 36.5968 75.1923 36.4528C74.9459 36.3099 74.7514 36.1161 74.6098 35.8736C74.5968 35.8476 74.5903 35.8227 74.5903 35.8C74.5903 35.7123 74.6379 35.6679 74.733 35.6679C74.7741 35.6679 74.8119 35.6906 74.8454 35.7372C74.8713 35.7783 74.9135 35.84 74.9729 35.9223C75.2334 36.2363 75.5717 36.3922 75.9867 36.3922C76.3477 36.3922 76.6568 36.2633 76.9151 36.0046C77.1734 35.7458 77.3021 35.4362 77.3021 35.0746C77.3021 34.713 77.1734 34.4033 76.9151 34.1457C76.6568 33.8869 76.3488 33.7581 75.9889 33.7581C75.629 33.7581 75.3231 33.6314 75.0702 33.377C74.8173 33.1226 74.6908 32.8173 74.6908 32.4611C74.6908 32.1049 74.8173 31.7996 75.0702 31.5452C75.3231 31.2907 75.629 31.1641 75.9867 31.1641C76.4796 31.1641 76.8524 31.3784 77.1053 31.8072C77.1205 31.831 77.128 31.8548 77.128 31.8808C77.128 31.9685 77.0805 32.0129 76.9854 32.0129C76.9519 32.0129 76.8924 31.9641 76.8071 31.8667C76.7011 31.7411 76.6028 31.648 76.5131 31.5895C76.3607 31.4899 76.1856 31.4391 75.9867 31.4391C75.7025 31.4391 75.4615 31.5397 75.2615 31.7411C75.0616 31.9425 74.9621 32.1839 74.9621 32.4654C74.9621 32.7469 75.0616 32.9883 75.2615 33.1897C75.4615 33.3911 75.7036 33.4918 75.9867 33.4918C76.4223 33.4918 76.7962 33.6466 77.1064 33.9562C77.4177 34.2658 77.5723 34.6404 77.5723 35.0789L77.5733 35.0811Z" fill="white"></path>
<path d="M81.4801 35.6569C81.4801 35.6808 81.4736 35.7046 81.4607 35.7306C81.2953 36.0175 81.0662 36.2459 80.7744 36.4148C80.4815 36.5837 80.1691 36.6681 79.8362 36.6681C79.3174 36.6681 78.8754 36.4852 78.509 36.1181C78.1426 35.7511 77.96 35.3083 77.96 34.7887C77.96 34.269 78.1426 33.8262 78.509 33.4592C78.8754 33.0921 79.3174 32.9092 79.8362 32.9092C80.0394 32.9092 80.2491 32.9471 80.4631 33.0218C80.662 33.0943 80.8684 33.2112 81.0824 33.3747C81.345 33.5761 81.4769 33.758 81.4769 33.9215C81.4769 33.9734 81.4553 34.0102 81.411 34.034L78.5166 35.7089C78.8365 36.1658 79.2764 36.3953 79.8362 36.3953C80.3215 36.3953 80.7192 36.2178 81.0316 35.8626C81.0759 35.8031 81.1397 35.7132 81.2251 35.5931C81.2586 35.5487 81.2975 35.527 81.3407 35.527C81.4336 35.527 81.4801 35.5714 81.4801 35.6591V35.6569ZM81.1537 33.8684C80.8338 33.4126 80.3939 33.1842 79.8351 33.1842C79.392 33.1842 79.0137 33.3412 78.7003 33.654C78.3869 33.9669 78.2302 34.3459 78.2302 34.7887C78.2302 35.0279 78.2799 35.2564 78.3804 35.4729L81.1548 33.8684H81.1537Z" fill="white"></path>
<path d="M85.0404 33.0467C85.0404 33.1387 84.995 33.1842 84.9053 33.1842H84.2471C84.5822 33.4451 84.7497 33.7872 84.7497 34.2105C84.7497 34.7291 84.5206 35.1113 84.0612 35.357C84.3552 35.4805 84.5919 35.6764 84.7713 35.9438C84.9507 36.2113 85.0404 36.5047 85.0404 36.8251C85.0404 37.2636 84.8859 37.6382 84.5757 37.9478C84.2666 38.2575 83.8926 38.4123 83.4538 38.4123C83.015 38.4123 82.641 38.2575 82.3319 37.9467C82.0228 37.6371 81.8672 37.2625 81.8672 36.823C81.8672 36.732 81.9126 36.6876 82.0023 36.6876C82.092 36.6876 82.1374 36.7331 82.1374 36.823C82.1374 37.1835 82.266 37.4931 82.5243 37.7508C82.7826 38.0084 83.0917 38.1373 83.4527 38.1373C83.8137 38.1373 84.1228 38.0084 84.3811 37.7497C84.6394 37.4909 84.7681 37.1813 84.7681 36.8197C84.7681 36.4581 84.6394 36.1485 84.3811 35.8908C84.1228 35.632 83.8148 35.5032 83.456 35.5032C83.0971 35.5032 82.7913 35.3765 82.5373 35.1221C82.2833 34.8677 82.1558 34.5624 82.1558 34.2062C82.1558 33.85 82.2833 33.5447 82.5373 33.2903C82.7913 33.0358 83.0961 32.9092 83.4527 32.9092H84.9032C84.9939 32.9092 85.0383 32.9546 85.0383 33.0467H85.0404ZM84.4784 34.2094C84.4784 33.928 84.3779 33.6876 84.1769 33.4862C83.9758 33.2849 83.7348 33.1842 83.4538 33.1842C83.1728 33.1842 82.9318 33.2849 82.7308 33.4862C82.5297 33.6876 82.4292 33.928 82.4292 34.2094C82.4292 34.4909 82.5297 34.7313 82.7308 34.9326C82.9318 35.134 83.1728 35.2347 83.4538 35.2347C83.7348 35.2347 83.9758 35.134 84.1769 34.9326C84.3779 34.7313 84.4784 34.4898 84.4784 34.2094Z" fill="white"></path>
<path d="M88.2126 35.37C88.2126 35.7262 88.085 36.0326 87.8311 36.287C87.5771 36.5415 87.2723 36.6692 86.9156 36.6692C86.5589 36.6692 86.2542 36.5415 86.0002 36.287C85.7462 36.0326 85.6187 35.7273 85.6187 35.37V33.0445C85.6187 32.9536 85.664 32.9092 85.7538 32.9092C85.8435 32.9092 85.8889 32.9547 85.8889 33.0445V35.3668C85.8889 35.6483 85.9894 35.8897 86.1904 36.0911C86.3914 36.2925 86.6324 36.3931 86.9134 36.3931C87.1945 36.3931 87.4355 36.2925 87.6365 36.0911C87.8375 35.8897 87.938 35.6483 87.938 35.3668V33.0445C87.938 32.9547 87.9834 32.9092 88.0731 32.9092C88.1629 32.9092 88.2082 32.9547 88.2082 33.0445V35.37H88.2126Z" fill="white"></path>
<path d="M91.0797 33.4873C91.0797 33.575 91.0322 33.6194 90.9371 33.6194C90.9187 33.6194 90.8387 33.5469 90.695 33.4029C90.5512 33.2578 90.3826 33.1864 90.1859 33.1864C89.9892 33.1864 89.812 33.2589 89.6671 33.4029C89.5223 33.548 89.4499 33.7201 89.4499 33.9215V36.535C89.4499 36.6249 89.4045 36.6703 89.3148 36.6703C89.2251 36.6703 89.1797 36.6249 89.1797 36.535V33.0467C89.1797 32.9558 89.2251 32.9114 89.3148 32.9114C89.4045 32.9114 89.4531 33.0186 89.4499 33.2329C89.6488 33.0186 89.893 32.9114 90.1848 32.9114C90.5869 32.9114 90.8776 33.0792 91.0549 33.4148C91.07 33.4408 91.0776 33.4657 91.0776 33.4884L91.0797 33.4873Z" fill="white"></path>
<path d="M94.0621 36.533C94.0621 36.624 94.0167 36.6683 93.927 36.6683C93.8373 36.6683 93.7919 36.6229 93.7919 36.533V36.1649C93.5314 36.5005 93.1899 36.6683 92.7662 36.6683C92.4106 36.6683 92.1048 36.5406 91.8508 36.2862C91.5968 36.0317 91.4692 35.7264 91.4692 35.3692C91.4692 35.0119 91.5968 34.7066 91.8508 34.4522C92.1048 34.1977 92.4095 34.07 92.7662 34.07C93.1888 34.07 93.5314 34.2378 93.7919 34.5734V34.2064C93.7919 33.926 93.6914 33.6846 93.4903 33.4832C93.2893 33.2818 93.0483 33.1822 92.7673 33.1822C92.5835 33.1822 92.3998 33.2385 92.2161 33.3522C92.0313 33.4659 91.9415 33.5233 91.9469 33.5233C91.854 33.5233 91.8075 33.4767 91.8075 33.3836C91.8075 33.35 91.8216 33.3175 91.8497 33.2872C92.0821 33.0339 92.3879 32.9072 92.7662 32.9072C93.1218 32.9072 93.4276 33.035 93.6816 33.2894C93.9356 33.5438 94.0632 33.8491 94.0632 34.2064V36.5319L94.0621 36.533ZM93.7919 35.3703C93.7919 35.0898 93.6914 34.8495 93.4903 34.6481C93.2893 34.4468 93.0483 34.3471 92.7673 34.3471C92.4863 34.3471 92.2453 34.4478 92.0442 34.6481C91.8432 34.8484 91.7427 35.0898 91.7427 35.3703C91.7427 35.6507 91.8432 35.891 92.0442 36.0924C92.2453 36.2927 92.4863 36.3934 92.7673 36.3934C93.0483 36.3934 93.2893 36.2927 93.4903 36.0924C93.6914 35.8921 93.7919 35.6507 93.7919 35.3703Z" fill="white"></path>
<path d="M97.6179 36.5328C97.6179 36.6237 97.5725 36.6681 97.4828 36.6681C97.3931 36.6681 97.3477 36.6227 97.3477 36.5328V34.2105C97.3477 33.929 97.2472 33.6876 97.0462 33.4862C96.8451 33.2849 96.6041 33.1842 96.3231 33.1842C96.0421 33.1842 95.8011 33.2849 95.6001 33.4862C95.399 33.6876 95.2985 33.929 95.2985 34.2105V36.5328C95.2985 36.6227 95.2531 36.6681 95.1634 36.6681C95.0737 36.6681 95.0283 36.6227 95.0283 36.5328V33.0445C95.0283 32.9536 95.0737 32.9092 95.1634 32.9092C95.2531 32.9092 95.2985 32.9547 95.2985 33.0445V33.4126C95.559 33.077 95.9005 32.9092 96.3242 32.9092C96.6798 32.9092 96.9846 33.0369 97.2396 33.2914C97.4936 33.5458 97.6212 33.8511 97.6212 34.2084V36.5339L97.6179 36.5328Z" fill="white"></path>
<path d="M101.445 33.5522C101.445 33.6453 101.398 33.6918 101.306 33.6918C101.321 33.6918 101.193 33.6074 100.922 33.4385C100.651 33.2696 100.368 33.1851 100.075 33.1851C99.6314 33.1851 99.252 33.3421 98.9386 33.655C98.6252 33.9679 98.4684 34.3468 98.4684 34.7896C98.4684 35.2324 98.6252 35.6114 98.9386 35.9242C99.252 36.2371 99.6303 36.3941 100.075 36.3941C100.368 36.3941 100.651 36.3097 100.922 36.1408C101.193 35.9719 101.32 35.8864 101.301 35.8864C101.394 35.8864 101.441 35.9329 101.441 36.026C101.441 36.1115 101.329 36.2209 101.108 36.3551C100.935 36.4612 100.782 36.5359 100.652 36.5803C100.938 36.7817 101.081 37.0567 101.081 37.4053C101.081 37.6814 100.982 37.9185 100.785 38.1166C100.587 38.3136 100.35 38.4133 100.075 38.4133C99.6897 38.4133 99.399 38.2444 99.2001 37.9055C99.1872 37.8849 99.1807 37.8611 99.1807 37.8362C99.1807 37.7485 99.2282 37.7041 99.3244 37.7041C99.3428 37.7041 99.4206 37.7767 99.56 37.9206C99.6995 38.0657 99.8713 38.1372 100.075 38.1372C100.278 38.1372 100.448 38.0646 100.593 37.9206C100.738 37.7767 100.809 37.6034 100.809 37.4031C100.809 37.2029 100.737 37.0296 100.593 36.8856C100.448 36.7416 100.276 36.6691 100.075 36.6691C99.5557 36.6691 99.1137 36.4861 98.7473 36.1191C98.3809 35.7521 98.1982 35.3093 98.1982 34.7896C98.1982 34.27 98.382 33.8272 98.7473 33.4601C99.1126 33.0931 99.5557 32.9102 100.075 32.9102C100.627 32.9102 101.069 33.0942 101.402 33.4601C101.43 33.4915 101.444 33.5219 101.444 33.5532L101.445 33.5522Z" fill="white"></path>
<path d="M104.428 36.533C104.428 36.624 104.382 36.6683 104.293 36.6683C104.203 36.6683 104.158 36.6229 104.158 36.533V36.1649C103.897 36.5005 103.556 36.6683 103.132 36.6683C102.776 36.6683 102.47 36.5406 102.216 36.2862C101.962 36.0317 101.835 35.7264 101.835 35.3692C101.835 35.0119 101.962 34.7066 102.216 34.4522C102.47 34.1977 102.775 34.07 103.132 34.07C103.555 34.07 103.897 34.2378 104.158 34.5734V34.2064C104.158 33.926 104.057 33.6846 103.856 33.4832C103.655 33.2818 103.414 33.1822 103.133 33.1822C102.949 33.1822 102.766 33.2385 102.582 33.3522C102.397 33.4659 102.307 33.5233 102.313 33.5233C102.22 33.5233 102.173 33.4767 102.173 33.3836C102.173 33.35 102.187 33.3175 102.215 33.2872C102.448 33.0339 102.754 32.9072 103.132 32.9072C103.488 32.9072 103.793 33.035 104.047 33.2894C104.301 33.5438 104.429 33.8491 104.429 34.2064V36.5319L104.428 36.533ZM104.157 35.3703C104.157 35.0898 104.056 34.8495 103.855 34.6481C103.654 34.4468 103.413 34.3471 103.132 34.3471C102.851 34.3471 102.61 34.4478 102.409 34.6481C102.208 34.8484 102.107 35.0898 102.107 35.3703C102.107 35.6507 102.208 35.891 102.409 36.0924C102.61 36.2927 102.851 36.3934 103.132 36.3934C103.413 36.3934 103.654 36.2927 103.855 36.0924C104.056 35.8921 104.157 35.6507 104.157 35.3703Z" fill="white"></path>
<path d="M110.289 35.6569C110.289 35.6808 110.282 35.7046 110.269 35.7306C110.104 36.0175 109.875 36.2459 109.583 36.4148C109.29 36.5837 108.978 36.6681 108.645 36.6681C108.126 36.6681 107.684 36.4852 107.318 36.1181C106.951 35.7511 106.769 35.3083 106.769 34.7887C106.769 34.269 106.952 33.8262 107.318 33.4592C107.684 33.0921 108.126 32.9092 108.645 32.9092C108.848 32.9092 109.058 32.9471 109.272 33.0218C109.471 33.0943 109.677 33.2112 109.891 33.3747C110.155 33.5761 110.285 33.758 110.285 33.9215C110.285 33.9734 110.264 34.0102 110.22 34.034L107.325 35.7089C107.645 36.1658 108.085 36.3953 108.645 36.3953C109.13 36.3953 109.528 36.2178 109.84 35.8626C109.884 35.8031 109.948 35.7132 110.034 35.5931C110.067 35.5487 110.106 35.527 110.149 35.527C110.242 35.527 110.289 35.5714 110.289 35.6591V35.6569ZM109.962 33.8684C109.642 33.4126 109.203 33.1842 108.644 33.1842C108.201 33.1842 107.822 33.3412 107.509 33.654C107.195 33.9669 107.039 34.3459 107.039 34.7887C107.039 35.0279 107.088 35.2564 107.189 35.4729L109.963 33.8684H109.962Z" fill="white"></path>
<path d="M118.515 36.5371C118.515 36.6248 118.468 36.6692 118.375 36.6692C118.305 36.6692 118.263 36.6346 118.248 36.5653L117.18 31.7432L115.613 35.4014C115.582 35.4707 115.537 35.5065 115.478 35.5065C115.418 35.5065 115.373 35.4718 115.343 35.4014L113.78 31.7421L112.709 36.5642C112.694 36.6335 112.65 36.6681 112.581 36.6681C112.488 36.6681 112.442 36.6238 112.442 36.5361C112.442 36.5231 112.443 36.5112 112.446 36.5014L113.603 31.2928C113.62 31.2073 113.666 31.165 113.74 31.165C113.796 31.165 113.839 31.2008 113.87 31.2711L115.479 35.029L117.089 31.2701C117.117 31.1997 117.161 31.165 117.22 31.165C117.293 31.165 117.339 31.2073 117.36 31.2928L118.513 36.5014C118.515 36.5144 118.517 36.5263 118.517 36.5361L118.515 36.5371Z" fill="white"></path>
<path d="M122.422 35.6569C122.422 35.6808 122.416 35.7046 122.403 35.7306C122.237 36.0175 122.008 36.2459 121.716 36.4148C121.423 36.5837 121.111 36.6681 120.778 36.6681C120.259 36.6681 119.817 36.4852 119.451 36.1181C119.085 35.7511 118.902 35.3083 118.902 34.7887C118.902 34.269 119.086 33.8262 119.451 33.4592C119.816 33.0921 120.259 32.9092 120.778 32.9092C120.981 32.9092 121.191 32.9471 121.405 33.0218C121.604 33.0943 121.81 33.2112 122.024 33.3747C122.288 33.5761 122.419 33.758 122.419 33.9215C122.419 33.9734 122.397 34.0102 122.353 34.034L119.458 35.7089C119.778 36.1658 120.218 36.3953 120.778 36.3953C121.263 36.3953 121.661 36.2178 121.973 35.8626C122.018 35.8031 122.082 35.7132 122.167 35.5931C122.2 35.5487 122.239 35.527 122.283 35.527C122.376 35.527 122.422 35.5714 122.422 35.6591V35.6569ZM122.096 33.8684C121.776 33.4126 121.336 33.1842 120.777 33.1842C120.334 33.1842 119.956 33.3412 119.642 33.654C119.329 33.9669 119.172 34.3459 119.172 34.7887C119.172 35.0279 119.222 35.2564 119.322 35.4729L122.097 33.8684H122.096Z" fill="white"></path>
<path d="M126.566 36.5331C126.566 36.624 126.521 36.6684 126.431 36.6684C126.341 36.6684 126.296 36.6229 126.296 36.5331V35.7622C126.125 36.0437 125.897 36.2657 125.611 36.427C125.324 36.5883 125.017 36.6695 124.69 36.6695C124.171 36.6695 123.729 36.4865 123.363 36.1195C122.996 35.7525 122.813 35.3097 122.813 34.79C122.813 34.2703 122.996 33.8275 123.363 33.4605C123.729 33.0935 124.171 32.9105 124.69 32.9105C125.017 32.9105 125.324 32.9917 125.611 33.1531C125.897 33.3144 126.125 33.5363 126.296 33.8178V31.3028C126.296 31.2119 126.341 31.1675 126.431 31.1675C126.521 31.1675 126.566 31.213 126.566 31.3028V36.5352V36.5331ZM126.296 34.7889C126.296 34.3461 126.139 33.9672 125.826 33.6543C125.512 33.3414 125.134 33.1845 124.69 33.1845C124.246 33.1845 123.867 33.3414 123.554 33.6543C123.24 33.9672 123.084 34.3461 123.084 34.7889C123.084 35.2317 123.24 35.6107 123.554 35.9236C123.867 36.2364 124.246 36.3934 124.69 36.3934C125.134 36.3934 125.512 36.2364 125.826 35.9236C126.139 35.6107 126.296 35.2317 126.296 34.7889Z" fill="white"></path>
<path d="M128.145 31.4519C128.145 31.636 128.05 31.7269 127.859 31.7269C127.667 31.7269 127.572 31.6349 127.572 31.4519C127.572 31.374 127.6 31.3069 127.658 31.2506C127.714 31.1943 127.781 31.165 127.859 31.165C127.936 31.165 128.004 31.1932 128.06 31.2506C128.116 31.3079 128.145 31.374 128.145 31.4519ZM127.994 33.0456V36.5339C127.994 36.6248 127.948 36.6692 127.859 36.6692C127.769 36.6692 127.724 36.6238 127.724 36.5339V33.0456C127.724 32.9547 127.769 32.9103 127.859 32.9103C127.948 32.9103 127.994 32.9557 127.994 33.0456Z" fill="white"></path>
<path d="M132.014 33.5522C132.014 33.6453 131.968 33.6918 131.875 33.6918C131.89 33.6918 131.762 33.6074 131.491 33.4385C131.22 33.2696 130.938 33.1851 130.644 33.1851C130.201 33.1851 129.821 33.3421 129.508 33.655C129.194 33.9679 129.038 34.3468 129.038 34.7896C129.038 35.2324 129.194 35.6114 129.508 35.9242C129.821 36.2371 130.2 36.3941 130.644 36.3941C130.938 36.3941 131.22 36.3097 131.491 36.1408C131.762 35.9719 131.889 35.8864 131.87 35.8864C131.963 35.8864 132.01 35.9329 132.01 36.026C132.01 36.0596 131.996 36.0921 131.968 36.1224C131.629 36.4861 131.188 36.6691 130.645 36.6691C130.101 36.6691 129.684 36.4861 129.318 36.1191C128.951 35.7521 128.769 35.3093 128.769 34.7896C128.769 34.27 128.952 33.8272 129.318 33.4601C129.683 33.0931 130.126 32.9102 130.645 32.9102C131.19 32.9102 131.632 33.0942 131.972 33.4601C132 33.4915 132.014 33.5219 132.014 33.5532V33.5522Z" fill="white"></path>
<path d="M133.21 31.4519C133.21 31.636 133.114 31.7269 132.923 31.7269C132.732 31.7269 132.637 31.6349 132.637 31.4519C132.637 31.374 132.665 31.3069 132.722 31.2506C132.778 31.1943 132.845 31.165 132.923 31.165C133.001 31.165 133.068 31.1932 133.124 31.2506C133.18 31.3079 133.21 31.374 133.21 31.4519ZM133.058 33.0456V36.5339C133.058 36.6248 133.013 36.6692 132.923 36.6692C132.833 36.6692 132.788 36.6238 132.788 36.5339V33.0456C132.788 32.9547 132.833 32.9103 132.923 32.9103C133.013 32.9103 133.058 32.9557 133.058 33.0456Z" fill="white"></path>
<path d="M136.812 36.5328C136.812 36.6237 136.766 36.6681 136.677 36.6681C136.587 36.6681 136.542 36.6227 136.542 36.5328V34.2105C136.542 33.929 136.441 33.6876 136.24 33.4862C136.039 33.2849 135.798 33.1842 135.517 33.1842C135.236 33.1842 134.995 33.2849 134.794 33.4862C134.593 33.6876 134.492 33.929 134.492 34.2105V36.5328C134.492 36.6227 134.447 36.6681 134.357 36.6681C134.268 36.6681 134.222 36.6227 134.222 36.5328V33.0445C134.222 32.9536 134.268 32.9092 134.357 32.9092C134.447 32.9092 134.492 32.9547 134.492 33.0445V33.4126C134.753 33.077 135.094 32.9092 135.518 32.9092C135.874 32.9092 136.178 33.0369 136.433 33.2914C136.687 33.5458 136.815 33.8511 136.815 34.2084V36.5339L136.812 36.5328Z" fill="white"></path>
<path d="M139.988 36.533C139.988 36.624 139.943 36.6683 139.853 36.6683C139.764 36.6683 139.718 36.6229 139.718 36.533V36.1649C139.458 36.5005 139.116 36.6683 138.692 36.6683C138.337 36.6683 138.031 36.5406 137.777 36.2862C137.523 36.0317 137.396 35.7264 137.396 35.3692C137.396 35.0119 137.523 34.7066 137.777 34.4522C138.031 34.1977 138.336 34.07 138.692 34.07C139.115 34.07 139.458 34.2378 139.718 34.5734V34.2064C139.718 33.926 139.618 33.6846 139.417 33.4832C139.216 33.2818 138.975 33.1822 138.694 33.1822C138.51 33.1822 138.326 33.2385 138.142 33.3522C137.958 33.4659 137.868 33.5233 137.873 33.5233C137.78 33.5233 137.734 33.4767 137.734 33.3836C137.734 33.35 137.748 33.3175 137.776 33.2872C138.008 33.0339 138.314 32.9072 138.692 32.9072C139.048 32.9072 139.354 33.035 139.608 33.2894C139.862 33.5438 139.989 33.8491 139.989 34.2064V36.5319L139.988 36.533ZM139.717 35.3703C139.717 35.0898 139.617 34.8495 139.416 34.6481C139.214 34.4468 138.973 34.3471 138.692 34.3471C138.411 34.3471 138.17 34.4478 137.969 34.6481C137.768 34.8484 137.668 35.0898 137.668 35.3703C137.668 35.6507 137.768 35.891 137.969 36.0924C138.17 36.2927 138.411 36.3934 138.692 36.3934C138.973 36.3934 139.214 36.2927 139.416 36.0924C139.617 35.8921 139.717 35.6507 139.717 35.3703Z" fill="white"></path>
<path d="M146.085 36.5331C146.085 36.624 146.04 36.6684 145.95 36.6684C145.86 36.6684 145.815 36.6229 145.815 36.5331V35.7622C145.644 36.0437 145.416 36.2657 145.13 36.427C144.843 36.5883 144.536 36.6695 144.209 36.6695C143.69 36.6695 143.248 36.4865 142.882 36.1195C142.515 35.7525 142.333 35.3097 142.333 34.79C142.333 34.2703 142.515 33.8275 142.882 33.4605C143.248 33.0935 143.69 32.9105 144.209 32.9105C144.536 32.9105 144.843 32.9917 145.13 33.1531C145.416 33.3144 145.644 33.5363 145.815 33.8178V31.3028C145.815 31.2119 145.86 31.1675 145.95 31.1675C146.04 31.1675 146.085 31.213 146.085 31.3028V36.5352V36.5331ZM145.815 34.7889C145.815 34.3461 145.658 33.9672 145.345 33.6543C145.031 33.3414 144.653 33.1845 144.209 33.1845C143.765 33.1845 143.386 33.3414 143.073 33.6543C142.759 33.9672 142.603 34.3461 142.603 34.7889C142.603 35.2317 142.759 35.6107 143.073 35.9236C143.386 36.2364 143.765 36.3934 144.209 36.3934C144.653 36.3934 145.031 36.2364 145.345 35.9236C145.658 35.6107 145.815 35.2317 145.815 34.7889Z" fill="white"></path>
<path d="M150.608 34.7887C150.608 35.3083 150.425 35.7511 150.059 36.1181C149.693 36.4852 149.251 36.6681 148.732 36.6681C148.213 36.6681 147.771 36.4852 147.405 36.1181C147.039 35.7511 146.856 35.3083 146.856 34.7887C146.856 34.269 147.04 33.8262 147.405 33.4592C147.771 33.0921 148.213 32.9092 148.732 32.9092C149.251 32.9092 149.693 33.0932 150.059 33.4592C150.426 33.8262 150.608 34.269 150.608 34.7887ZM150.338 34.7887C150.338 34.3459 150.182 33.9669 149.868 33.654C149.555 33.3412 149.176 33.1842 148.732 33.1842C148.288 33.1842 147.91 33.3412 147.596 33.654C147.283 33.9669 147.126 34.3459 147.126 34.7887C147.126 35.2315 147.283 35.6104 147.596 35.9233C147.91 36.2362 148.288 36.3931 148.732 36.3931C149.176 36.3931 149.555 36.2362 149.868 35.9233C150.182 35.6104 150.338 35.2315 150.338 34.7887Z" fill="white"></path>
<path d="M156.513 31.3025C156.513 31.3946 156.467 31.44 156.378 31.44H154.772V36.5328C154.772 36.6227 154.726 36.6681 154.637 36.6681C154.547 36.6681 154.501 36.6227 154.501 36.5328V31.44H152.895C152.805 31.44 152.76 31.3946 152.76 31.3025C152.76 31.2105 152.806 31.165 152.895 31.165H156.378C156.468 31.165 156.513 31.2105 156.513 31.3025Z" fill="white"></path>
<path d="M158.017 33.4873C158.017 33.575 157.97 33.6194 157.873 33.6194C157.855 33.6194 157.775 33.5469 157.631 33.4029C157.488 33.2589 157.319 33.1864 157.122 33.1864C156.926 33.1864 156.748 33.2589 156.604 33.4029C156.459 33.548 156.387 33.7201 156.387 33.9215V36.535C156.387 36.6249 156.342 36.6703 156.252 36.6703C156.163 36.6703 156.117 36.6249 156.117 36.535V33.0467C156.117 32.9558 156.163 32.9114 156.252 32.9114C156.342 32.9114 156.391 33.0186 156.387 33.2329C156.586 33.0186 156.831 32.9114 157.122 32.9114C157.524 32.9114 157.815 33.0792 157.992 33.4148C158.008 33.4408 158.016 33.4657 158.016 33.4884L158.017 33.4873Z" fill="white"></path>
<path d="M161 36.533C161 36.624 160.955 36.6683 160.865 36.6683C160.775 36.6683 160.73 36.6229 160.73 36.533V36.1649C160.469 36.5005 160.128 36.6683 159.704 36.6683C159.349 36.6683 159.043 36.5406 158.789 36.2862C158.535 36.0317 158.407 35.7264 158.407 35.3692C158.407 35.0119 158.535 34.7066 158.789 34.4522C159.043 34.1977 159.348 34.07 159.704 34.07C160.127 34.07 160.469 34.2378 160.73 34.5734V34.2064C160.73 33.926 160.629 33.6846 160.428 33.4832C160.227 33.2818 159.986 33.1822 159.705 33.1822C159.522 33.1822 159.338 33.2385 159.154 33.3522C158.969 33.4659 158.88 33.5233 158.885 33.5233C158.792 33.5233 158.746 33.4767 158.746 33.3836C158.746 33.35 158.76 33.3175 158.788 33.2872C159.02 33.0339 159.326 32.9072 159.704 32.9072C160.06 32.9072 160.366 33.035 160.62 33.2894C160.874 33.5438 161.001 33.8491 161.001 34.2064V36.5319L161 36.533ZM160.73 35.3703C160.73 35.0898 160.629 34.8495 160.428 34.6481C160.227 34.4468 159.986 34.3471 159.705 34.3471C159.424 34.3471 159.183 34.4478 158.982 34.6481C158.781 34.8484 158.681 35.0898 158.681 35.3703C158.681 35.6507 158.781 35.891 158.982 36.0924C159.183 36.2927 159.424 36.3934 159.705 36.3934C159.986 36.3934 160.227 36.2927 160.428 36.0924C160.629 35.8921 160.73 35.6507 160.73 35.3703Z" fill="white"></path>
<path d="M165.524 34.7887C165.524 35.3083 165.34 35.7511 164.974 36.1182C164.608 36.4852 164.166 36.6681 163.647 36.6681C163.128 36.6681 162.686 36.4852 162.32 36.1182C161.954 35.7511 161.771 35.3083 161.771 34.7887V31.3004C161.771 31.2094 161.816 31.165 161.906 31.165C161.996 31.165 162.041 31.2105 162.041 31.3004V33.8154C162.212 33.5339 162.44 33.3119 162.726 33.1506C163.013 32.9893 163.32 32.9081 163.647 32.9081C164.166 32.9081 164.608 33.0922 164.974 33.4581C165.341 33.8251 165.524 34.2679 165.524 34.7876V34.7887ZM165.253 34.7887C165.253 34.3459 165.097 33.9669 164.783 33.654C164.47 33.3412 164.091 33.1842 163.647 33.1842C163.203 33.1842 162.825 33.3412 162.511 33.654C162.198 33.9669 162.041 34.3459 162.041 34.7887C162.041 35.2315 162.198 35.6104 162.511 35.9233C162.825 36.2362 163.203 36.3931 163.647 36.3931C164.091 36.3931 164.47 36.2362 164.783 35.9233C165.097 35.6104 165.253 35.2315 165.253 34.7887Z" fill="white"></path>
<path d="M168.506 36.533C168.506 36.624 168.461 36.6683 168.371 36.6683C168.282 36.6683 168.236 36.6229 168.236 36.533V36.1649C167.976 36.5005 167.634 36.6683 167.211 36.6683C166.855 36.6683 166.549 36.5406 166.295 36.2862C166.041 36.0317 165.914 35.7264 165.914 35.3692C165.914 35.0119 166.041 34.7066 166.295 34.4522C166.549 34.1977 166.854 34.07 167.211 34.07C167.633 34.07 167.976 34.2378 168.236 34.5734V34.2064C168.236 33.926 168.136 33.6846 167.935 33.4832C167.734 33.2818 167.493 33.1822 167.212 33.1822C167.028 33.1822 166.844 33.2385 166.66 33.3522C166.476 33.4659 166.386 33.5233 166.391 33.5233C166.298 33.5233 166.252 33.4767 166.252 33.3836C166.252 33.35 166.266 33.3175 166.294 33.2872C166.526 33.0339 166.832 32.9072 167.211 32.9072C167.566 32.9072 167.872 33.035 168.126 33.2894C168.38 33.5438 168.507 33.8491 168.507 34.2064V36.5319L168.506 36.533ZM168.236 35.3703C168.236 35.0898 168.136 34.8495 167.935 34.6481C167.734 34.4468 167.493 34.3471 167.212 34.3471C166.931 34.3471 166.69 34.4478 166.489 34.6481C166.288 34.8484 166.187 35.0898 166.187 35.3703C166.187 35.6507 166.288 35.891 166.489 36.0924C166.69 36.2927 166.931 36.3934 167.212 36.3934C167.493 36.3934 167.734 36.2927 167.935 36.0924C168.136 35.8921 168.236 35.6507 168.236 35.3703Z" fill="white"></path>
<path d="M170.417 36.5316C170.417 36.6236 170.372 36.6691 170.282 36.6691C170.007 36.6691 169.77 36.5706 169.572 36.3725C169.374 36.1743 169.276 35.9372 169.276 35.6612V31.3013C169.276 31.2104 169.321 31.166 169.411 31.166C169.501 31.166 169.546 31.2115 169.546 31.3013V35.6579C169.546 35.8593 169.618 36.0325 169.762 36.1765C169.907 36.3216 170.08 36.393 170.281 36.393C170.372 36.393 170.416 36.4385 170.416 36.5305L170.417 36.5316Z" fill="white"></path>
<path d="M173.784 36.5328C173.784 36.6238 173.739 36.6681 173.649 36.6681C173.559 36.6681 173.514 36.6227 173.514 36.5328V34.2105C173.514 33.929 173.413 33.6876 173.212 33.4862C173.011 33.2849 172.77 33.1842 172.489 33.1842C172.208 33.1842 171.967 33.2849 171.766 33.4862C171.565 33.6876 171.465 33.929 171.465 34.2105V36.5328C171.465 36.6227 171.419 36.6681 171.329 36.6681C171.24 36.6681 171.194 36.6227 171.194 36.5328V31.3004C171.194 31.2094 171.24 31.165 171.329 31.165C171.419 31.165 171.465 31.2105 171.465 31.3004V33.4126C171.725 33.077 172.067 32.9092 172.49 32.9092C172.846 32.9092 173.151 33.0369 173.406 33.2914C173.66 33.5458 173.787 33.8511 173.787 34.2084V36.5339L173.784 36.5328Z" fill="white"></path>
<path d="M178.117 34.7887C178.117 35.3083 177.933 35.7511 177.568 36.1181C177.201 36.4852 176.759 36.6681 176.241 36.6681C175.722 36.6681 175.28 36.4852 174.913 36.1181C174.547 35.7511 174.364 35.3083 174.364 34.7887C174.364 34.269 174.548 33.8262 174.913 33.4592C175.28 33.0921 175.722 32.9092 176.241 32.9092C176.759 32.9092 177.201 33.0932 177.568 33.4592C177.934 33.8251 178.117 34.269 178.117 34.7887ZM177.847 34.7887C177.847 34.3459 177.69 33.9669 177.376 33.654C177.063 33.3412 176.685 33.1842 176.241 33.1842C175.796 33.1842 175.418 33.3412 175.105 33.654C174.791 33.9669 174.634 34.3459 174.634 34.7887C174.634 35.2315 174.791 35.6104 175.105 35.9233C175.418 36.2362 175.796 36.3931 176.241 36.3931C176.685 36.3931 177.063 36.2362 177.376 35.9233C177.69 35.6104 177.847 35.2315 177.847 34.7887Z" fill="white"></path>
<path d="M46.9726 8.1558L24.01 0.0435235C23.8414 -0.0138568 23.6565 -0.0138568 23.4879 0.0435235L0.522026 8.1558C0.210756 8.26732 0 8.56396 0 8.89417C0 17.1061 2.17025 26.5955 5.95088 34.9318C9.01711 41.6941 14.5335 50.7179 23.3885 55.2856C23.5041 55.343 23.6263 55.3744 23.7495 55.3744C23.8727 55.3744 23.9948 55.343 24.1072 55.2856C32.9665 50.7179 38.4786 41.6941 41.5492 34.9318C45.3298 26.5965 47.4957 17.1061 47.4957 8.89417C47.4957 8.56288 47.2882 8.26732 46.9737 8.1558H46.9726ZM33.6356 32.5663V37.8268C33.6356 42.8503 29.5674 46.9362 24.5536 46.9362C19.5398 46.9362 15.4533 42.8503 15.4533 37.8268L15.45 31.7987C13.5122 31.541 11.6326 30.4085 9.94335 28.4782C9.69585 28.1924 9.62344 27.8253 9.66559 27.4746C7.43698 24.5525 6.06437 20.5586 6.06437 17.498C6.06437 12.7657 8.17949 12.285 11.6759 11.4763H11.6802C11.9104 11.0454 12.3449 10.7293 12.8702 10.7293C13.6105 10.7293 14.2039 11.3269 14.2103 12.0587C14.2103 12.7982 13.6105 13.3937 12.8702 13.3937C12.561 13.3937 12.3049 13.2746 12.0704 13.1035L12.0585 13.1132C8.64856 13.8906 7.74825 14.1028 7.74825 17.498C7.74825 20.1905 9.02143 23.7979 10.968 26.406C11.29 26.4233 11.6067 26.5695 11.8434 26.8347C12.8345 27.9802 14.42 29.3443 16.2941 29.3443C18.1682 29.3443 19.7538 27.9661 20.7449 26.8163C20.9826 26.5511 21.3026 26.4103 21.6236 26.393C23.5657 23.7903 24.8378 20.1883 24.8378 17.498C24.8378 14.106 23.9224 13.8938 20.5319 13.1132L20.4995 13.1035C20.2834 13.2756 20.0099 13.3937 19.7138 13.3937C18.9788 13.3937 18.3812 12.7982 18.3812 12.0587C18.3812 11.3193 18.9778 10.7293 19.7138 10.7293C20.2423 10.7293 20.6757 11.0454 20.8908 11.4763L20.894 11.486C24.3882 12.285 26.499 12.7765 26.499 17.498C26.499 20.5543 25.1297 24.5373 22.927 27.4562C22.9702 27.808 22.8924 28.1761 22.6438 28.463C20.9567 30.4064 19.0577 31.5421 17.1155 31.803L17.1328 37.8312C17.1328 41.929 20.4595 45.2603 24.5525 45.2603C28.6455 45.2603 31.9679 41.9333 31.9679 37.8312V32.5673C29.6042 32.1711 27.8003 30.1206 27.8003 27.6348C27.8003 24.8719 30.0516 22.6254 32.8131 22.6254C35.5745 22.6254 37.8215 24.873 37.8215 27.6348C37.8215 30.1206 35.9993 32.1711 33.6345 32.5673L33.6356 32.5663Z" fill="white"></path>
</g>
<defs>
<clipPath id="clip0_9589_842">
<rect width="178.117" height="55.3731" fill="white"></rect>
</clipPath>
</defs>
</svg>