<svg width="178" height="54" viewBox="0 0 178 54" fill="none" xmlns="http://www.w3.org/2000/svg">
<g clip-path="url(#clip0_9589_627)">
<path d="M23.9349 0.136423C23.7983 0.153489 23.2608 0.213219 22.7403 0.264416C22.2283 0.315613 21.2812 0.469204 20.6412 0.597197C10.0007 2.79014 1.9969 11.2206 0.332988 21.9976C0.0770025 23.653 0.0172725 26.8101 0.204995 28.457C0.281791 29.114 0.401251 29.9929 0.478047 30.411L0.623105 31.179L0.870558 30.4963C1.22894 29.5065 2.21875 27.544 2.77339 26.7077C3.49015 25.6411 4.08745 24.9414 5.15405 23.9175C8.06376 21.1273 12.0145 19.3354 17.1768 18.4735C18.8834 18.1919 20.718 18.0298 23.3802 17.9189C26.4521 17.7994 27.7405 17.569 28.9693 16.912C29.6007 16.5707 30.5393 15.598 30.9062 14.8897C31.6656 13.4221 31.9131 12.2104 31.9728 9.5055C32.024 7.27842 31.9558 6.03263 31.6059 3.19972C31.495 2.2611 31.4011 1.31396 31.4011 1.10064V0.708124L30.6758 0.563066C29.1996 0.264416 28.0733 0.162021 26.1534 0.12789C25.0783 0.110824 24.0799 0.110824 23.9349 0.136423Z" fill="white"></path>
<path d="M34.8143 2.372C34.7546 2.64505 34.6863 3.54953 34.6692 4.39428C34.6351 5.63155 34.6607 6.20325 34.8058 7.33812C34.9508 8.47299 35.7188 13.1234 35.8809 13.8828L35.9236 14.062L36.6233 13.8487C38.9698 13.1405 40.6081 12.509 42.2123 11.7069C43.7311 10.939 45.4804 9.71879 45.4804 9.42014C45.4804 9.24948 42.6645 6.4507 41.8112 5.76807C39.9852 4.30896 36.6659 2.38053 35.3604 2.01362L34.9167 1.89416L34.8143 2.372Z" fill="white"></path>
<path d="M47.255 12.3811C47.1782 12.4237 46.0775 12.876 44.8232 13.388C41.4271 14.7617 40.3178 15.359 39.1829 16.4171C38.1419 17.3984 37.5446 18.3285 37.0839 19.7193C36.4012 21.7587 36.35 24.1991 36.8876 28.457C37.6044 34.0801 37.8689 37.0325 37.9457 40.2323C38.0139 43.4321 37.8262 45.6507 37.2972 47.8351L37.0583 48.7993L37.8945 48.3727C38.9781 47.818 40.7786 46.632 41.8964 45.736C43.0313 44.823 44.8061 43.0482 45.6935 41.9389C47.9376 39.1401 49.6613 35.727 50.5572 32.3224C52.2979 25.7094 51.3593 18.7466 47.9376 12.8589C47.6049 12.2787 47.5195 12.219 47.255 12.3811Z" fill="white"></path>
<path d="M59.1333 36.7766V52.6477H61.5652H63.997L64.0141 47.0757L64.0397 41.5038L68.3744 47.0757L72.7176 52.6477H75.6614C77.9056 52.6477 78.5797 52.6221 78.537 52.5453C78.5029 52.4941 76.2929 49.7636 73.6221 46.487C70.9598 43.2104 68.7754 40.4884 68.7754 40.4457C68.7754 40.3945 70.8233 38.0395 73.3234 35.2151C75.815 32.3907 77.9141 30.01 77.9824 29.9247C78.0933 29.7882 77.9397 29.7796 75.3372 29.7796H72.5726L68.3061 34.797L64.0397 39.8143L63.997 30.3769L63.9544 20.9481L61.5481 20.9225L59.1333 20.9055V36.7766Z" fill="white"></path>
<path d="M145.187 21.0077C145.153 21.1186 144.632 26.9551 144.632 27.2452C144.632 27.3988 144.726 27.4073 146.279 27.3732C148.054 27.3391 148.199 27.3135 148.66 26.8186C148.788 26.6906 148.933 26.4687 148.984 26.3322C149.035 26.1957 149.155 25.1717 149.257 24.0625C149.436 22.0658 149.436 22.0316 149.274 21.7074C148.933 21.0248 148.549 20.9138 146.612 20.9053C145.579 20.9053 145.213 20.9309 145.187 21.0077ZM147.789 22.2962C148.071 22.4412 148.088 22.6289 147.96 24.2672C147.815 26.0165 147.789 26.0506 146.731 26.1018C146.33 26.1103 145.998 26.1103 145.998 26.1018C145.998 26.0847 146.074 25.2229 146.168 24.1905C146.262 23.158 146.339 22.2876 146.339 22.245C146.339 22.1426 147.559 22.1767 147.789 22.2962Z" fill="white"></path>
<path d="M150.563 21.0078C150.546 21.0675 150.435 22.3048 150.307 23.7639C150.187 25.2145 150.068 26.631 150.034 26.8955L149.982 27.3904H150.639C151.1 27.3904 151.288 27.3562 151.288 27.2795C151.288 27.2283 151.399 25.8886 151.544 24.3186C151.68 22.7485 151.8 21.3321 151.8 21.1785V20.9054H151.203C150.793 20.9054 150.588 20.9395 150.563 21.0078Z" fill="white"></path>
<path d="M152.875 21.0078C152.849 21.0675 152.738 22.3304 152.61 23.8066C152.491 25.2828 152.363 26.6992 152.337 26.9381L152.286 27.3904H152.926H153.566L153.668 26.1275C153.848 23.9516 153.788 23.9772 154.53 25.7691C155.068 27.0832 155.179 27.2965 155.264 27.1771C155.324 27.1003 155.725 26.4176 156.16 25.6667C156.595 24.9159 156.971 24.3442 156.988 24.4039C157.022 24.5063 156.868 26.4688 156.783 27.0661L156.732 27.3904H157.38H158.02L158.063 27.0235C158.097 26.8272 158.208 25.5302 158.327 24.1479C158.447 22.7656 158.558 21.4686 158.592 21.2638L158.635 20.8969L157.978 20.9225L157.321 20.9481L156.416 22.5011C155.921 23.3629 155.486 24.0626 155.46 24.0626C155.435 24.0626 155.128 23.3629 154.778 22.5011L154.138 20.9481L153.523 20.9225C153.071 20.9054 152.9 20.931 152.875 21.0078Z" fill="white"></path>
<path d="M159.65 20.9225C159.59 21.2467 159.087 27.2795 159.112 27.3221C159.129 27.3648 159.906 27.3904 160.836 27.3904H162.525L162.585 27.0661C162.611 26.8955 162.636 26.6054 162.636 26.4262V26.1105H161.57H160.503V25.735C160.503 25.5302 160.529 25.2401 160.554 25.095L160.614 24.8305H161.57H162.534L162.585 24.566C162.611 24.4209 162.636 24.1308 162.636 23.926V23.5506H161.655H160.682L160.725 22.9704C160.751 22.6546 160.785 22.356 160.802 22.2963C160.827 22.2195 161.16 22.1853 161.928 22.1683L163.02 22.1427L163.063 21.5624C163.089 21.2382 163.089 20.9566 163.072 20.9395C163.029 20.9054 159.65 20.8883 159.65 20.9225Z" fill="white"></path>
<path d="M164.138 21.1785C164.113 21.3321 163.993 22.629 163.874 24.0626C163.754 25.4961 163.635 26.8272 163.609 27.0235L163.566 27.3904H164.206H164.846L164.889 27.0235C164.915 26.8272 165.026 25.6667 165.128 24.4465L165.324 22.228H166.024C166.63 22.228 166.749 22.2536 166.911 22.4072C167.09 22.5864 167.09 22.629 167.005 23.5079C166.894 24.6428 166.809 24.7623 166.067 24.8135L165.555 24.8476L165.503 25.1633C165.478 25.334 165.452 25.6155 165.452 25.7862V26.1105H166.032C167.125 26.1105 167.748 25.7862 168.046 25.078C168.2 24.7025 168.405 22.356 168.319 21.9123C168.242 21.4942 167.858 21.1187 167.381 20.9993C167.167 20.9481 166.365 20.9054 165.589 20.9054H164.181L164.138 21.1785Z" fill="white"></path>
<path d="M31.3926 21.1953C31.3073 21.2807 28.6621 21.7841 25.9998 22.2278C24.4469 22.4923 22.7829 22.7825 22.3136 22.8763C14.4207 24.4634 10.4188 27.3049 8.1491 32.9366C6.47666 37.0835 6.8521 40.7527 9.30103 44.1402C9.82154 44.8655 11.4172 46.4441 12.2449 47.0755C14.8986 49.0807 17.996 50.4801 20.6924 50.8982C21.8273 51.0774 24.0885 51.0348 25.0612 50.8129C27.3907 50.3009 29.2167 49.2855 30.838 47.6131C34.1231 44.2255 35.3177 39.0717 34.3791 32.3393C34.0463 29.9757 33.5173 27.6718 32.3653 23.5248C31.8534 21.6903 31.6742 21.1612 31.5633 21.1612C31.495 21.1612 31.4097 21.1783 31.3926 21.1953Z" fill="white"></path>
<path d="M88.1019 29.5236C86.5318 29.6089 84.2621 29.8564 82.5811 30.1294L81.4207 30.3086L81.4548 30.5817C81.4804 30.7267 81.5657 31.5117 81.6596 32.3309C81.7449 33.1415 81.8388 33.8241 81.8473 33.8412C81.8644 33.8497 82.5129 33.79 83.2808 33.7047C86.8476 33.3036 90.5082 33.2012 91.5833 33.4743C92.7864 33.7815 93.6397 34.4214 94.109 35.3686C94.3991 35.9488 94.6295 36.9557 94.6295 37.6298V38.0394L93.8445 38.0906C93.4093 38.1162 92.2659 38.1759 91.3017 38.2271C89.3733 38.3295 86.8305 38.594 85.9089 38.7817C82.9566 39.4046 81.3524 40.8211 80.6612 43.4236C80.4564 44.1574 80.4394 44.3964 80.4394 45.8213C80.4308 47.2549 80.4564 47.4767 80.6612 48.2276C81.3695 50.8643 83.1016 52.2466 86.3953 52.7842C87.1206 52.9036 87.7862 52.9377 89.3392 52.9377C92.1721 52.9292 94.365 52.6732 96.319 52.1271C97.2918 51.8541 98.9983 51.1714 99.1434 50.9923C99.3482 50.7448 99.4165 48.0484 99.3909 41.6402C99.3653 35.2065 99.3567 35.1041 99.169 34.43C98.3925 31.6312 96.4982 30.1721 92.9827 29.6601C91.8307 29.4895 89.7829 29.4383 88.1019 29.5236ZM94.621 44.7803C94.5954 47.6474 94.5613 48.3812 94.4674 48.4921C94.1687 48.859 92.3086 49.226 90.4484 49.2942C86.2673 49.4478 84.9874 48.3727 85.2519 44.951C85.414 42.9116 86.3356 42.1437 89.2197 41.6488C90.1839 41.4866 92.1891 41.3245 93.7762 41.2733C94.1773 41.2563 94.5357 41.2392 94.5783 41.2307C94.6125 41.2221 94.6381 42.8178 94.621 44.7803Z" fill="white"></path>
<path d="M122.063 29.5237C119.452 29.7114 116.883 30.3343 115.194 31.1876L114.614 31.4777L114.563 32.0579C114.528 32.3736 114.486 37.1435 114.46 42.6387L114.417 52.6477H116.849H119.281L119.315 43.6285C119.332 38.6624 119.384 34.4898 119.418 34.3533C119.503 34.0461 119.955 33.8328 121.073 33.5938C121.747 33.4488 122.199 33.4146 123.624 33.4146C125.288 33.4061 125.357 33.3976 125.391 33.2355C125.433 33.0392 125.766 29.5749 125.749 29.5578C125.681 29.4981 122.788 29.4725 122.063 29.5237Z" fill="white"></path>
<path d="M136.517 29.5236C132.823 29.8137 130.51 31.0595 129.282 33.4402C128.812 34.3532 128.531 35.1809 128.292 36.3755C128.002 37.8602 127.908 39.0122 127.908 41.2136C127.908 43.4151 128.002 44.5671 128.292 46.0518C129.111 50.139 131.227 52.1784 135.263 52.7671C137.976 53.1596 141.048 52.9463 143.028 52.221C144.077 51.8371 144.845 51.3421 145.613 50.5657C146.91 49.2431 147.593 47.656 148.02 44.951C148.242 43.5517 148.242 38.8671 148.02 37.4763C147.337 33.1501 145.673 30.9572 142.354 29.9929C140.929 29.5748 138.42 29.3786 136.517 29.5236ZM139.726 33.4914C140.084 33.5597 140.588 33.7047 140.844 33.8242C141.415 34.0887 142.081 34.7031 142.405 35.2748C142.721 35.8294 143.045 36.9302 143.19 37.9712C143.344 39.0548 143.352 43.3639 143.199 44.4135C142.806 47.1355 142.013 48.2874 140.152 48.8676C139.495 49.0639 136.756 49.0895 136.014 48.9018C134.871 48.6116 133.992 47.9034 133.539 46.8965C132.985 45.6849 132.712 43.125 132.806 40.1897C132.985 34.8055 134.051 33.3975 137.994 33.372C138.616 33.3634 139.342 33.4146 139.726 33.4914Z" fill="white"></path>
<path d="M158.413 29.5321C154.104 29.8819 151.979 31.8104 151.826 35.4966C151.732 37.6724 152.227 39.1998 153.396 40.3347C154.479 41.3842 155.879 42.0071 159.522 43.0567C162.56 43.9356 163.302 44.5243 163.388 46.1712C163.422 46.7855 163.396 46.9647 163.234 47.3402C162.79 48.3641 161.809 48.8249 159.676 48.987C157.978 49.1235 154.667 48.8932 152.457 48.475C152.235 48.4409 152.056 48.4068 152.056 48.4153C152.047 48.4153 151.945 49.243 151.817 50.2413L151.578 52.0503L151.885 52.1271C153.788 52.622 156.689 52.9292 159.352 52.9292C161.493 52.9292 162.44 52.8268 163.789 52.4343C166.127 51.7602 167.577 50.3864 168.157 48.2959C168.277 47.8607 168.311 47.4255 168.311 46.2053C168.311 44.8486 168.285 44.5841 168.115 43.9868C167.586 42.1693 166.451 41.0515 164.198 40.1555C163.695 39.9507 162.295 39.4643 161.101 39.0804C159.906 38.6964 158.66 38.2356 158.328 38.065C157.261 37.5189 156.749 36.8277 156.681 35.8635C156.613 34.8993 157.022 34.2508 157.952 33.8327C158.763 33.4743 159.556 33.3719 161.613 33.3634C163.464 33.3634 164.872 33.4828 166.622 33.7815L167.492 33.9351L167.535 33.7132C167.663 33.0562 167.944 30.539 167.901 30.4366C167.799 30.1721 164.437 29.6601 161.86 29.5236C160.017 29.4297 159.65 29.4297 158.413 29.5321Z" fill="white"></path>
<path d="M104.357 41.2137V52.6477H106.789H109.221V41.2137V29.7796H106.789H104.357V41.2137Z" fill="white"></path>
<path d="M174.011 48.3471C173.815 48.4239 173.482 48.6287 173.269 48.8164C172.159 49.7891 172.108 51.5213 173.158 52.5452C173.635 53.0146 174.224 53.262 174.873 53.2705C175.888 53.2876 176.707 52.8268 177.185 51.9565C177.415 51.5384 177.441 51.4189 177.441 50.7277C177.441 50.1048 177.407 49.8915 177.253 49.6099C176.946 49.0382 176.656 48.7481 176.101 48.4751C175.658 48.2532 175.487 48.2106 174.975 48.2191C174.642 48.2191 174.207 48.2788 174.011 48.3471ZM175.76 48.7737C175.931 48.842 176.204 49.0212 176.357 49.1748C177.774 50.523 176.878 52.8183 174.949 52.8183C173.746 52.8183 172.876 51.9394 172.876 50.7277C172.876 49.8915 173.277 49.2174 174.002 48.8591C174.523 48.5945 175.257 48.5604 175.76 48.7737Z" fill="white"></path>
<path d="M173.985 50.6852V52.1357H174.199C174.403 52.1357 174.412 52.1187 174.412 51.5384V50.9411H174.736C175.052 50.9411 175.069 50.9582 175.351 51.5384C175.607 52.0675 175.666 52.1357 175.88 52.1357C176.008 52.1357 176.119 52.1187 176.119 52.0931C176.119 52.0675 175.982 51.7774 175.82 51.4531C175.658 51.1203 175.564 50.8558 175.607 50.8558C175.658 50.8558 175.794 50.762 175.905 50.6425C176.059 50.4974 176.119 50.3438 176.119 50.0964C176.119 49.3882 175.88 49.2346 174.753 49.2346H173.985V50.6852ZM175.572 49.7551C175.735 49.8831 175.726 50.1647 175.547 50.3609C175.444 50.4718 175.282 50.5145 174.907 50.5145H174.412V50.1049C174.412 49.8745 174.438 49.6612 174.48 49.6271C174.566 49.5332 175.427 49.6271 175.572 49.7551Z" fill="white"></path>
</g>
<defs>
<clipPath id="clip0_9589_627">
<rect width="177.569" height="53.3304" fill="white"></rect>
</clipPath>
</defs>
</svg>