<svg width="178" height="45" viewBox="0 0 178 45" fill="none" xmlns="http://www.w3.org/2000/svg">
<path d="M89.8563 19.1606C88.5047 19.1606 87.3726 19.4497 86.4601 20.0279C85.5476 20.606 84.7758 21.269 84.1461 22.018C83.6959 21.0882 83.0705 20.3795 82.2711 19.8917C81.4716 19.4051 80.4637 19.1606 79.2474 19.1606C78.5267 19.1606 77.8902 19.2522 77.3381 19.433C76.7859 19.6138 76.308 19.8404 75.9022 20.1127C75.4964 20.385 75.1471 20.6853 74.8544 21.0145C74.5616 21.3427 74.3244 21.644 74.1447 21.9153L74.0438 19.5346H71.1377C71.1599 20.1015 71.1721 20.6395 71.1721 21.1507V35.3491H74.2124V28.0027C74.2124 27.2549 74.2856 26.5059 74.4319 25.7581C74.5783 25.0103 74.8255 24.3473 75.1748 23.7692C75.5241 23.191 75.9798 22.7211 76.5431 22.3584C77.1063 21.9956 77.8038 21.8137 78.6376 21.8137C79.7186 21.8137 80.5469 22.1597 81.1213 22.8517C81.6956 23.5437 81.9828 24.6264 81.9828 26.0997V35.3502H85.0231V26.5751C85.0231 25.9412 85.1295 25.334 85.3447 24.7558C85.5587 24.1777 85.8625 23.6732 86.2572 23.2424C86.6508 22.8115 87.1132 22.4666 87.6421 22.2043C88.171 21.9443 88.7509 21.8137 89.3818 21.8137C90.485 21.8137 91.3244 22.1597 91.8987 22.8517C92.4731 23.5437 92.7603 24.6264 92.7603 26.0997V35.3502H95.8017V25.8619C95.8017 23.8205 95.3171 22.1943 94.3492 20.9811C93.3801 19.7689 91.8821 19.1618 89.8552 19.1618L89.8563 19.1606Z" fill="white"></path>
<path d="M109.256 32.5264C108.4 32.9807 107.308 33.2061 105.978 33.2061C105.302 33.2061 104.66 33.0822 104.052 32.8322C103.444 32.5822 102.904 32.2429 102.43 31.811C101.957 31.3801 101.58 30.8712 101.298 30.2807C101.017 29.6914 100.865 29.0452 100.841 28.342H113.241C113.241 27.1411 113.095 25.9847 112.802 24.8731C112.509 23.7625 112.052 22.7758 111.434 21.9142C110.814 21.0525 110.02 20.3616 109.052 19.8393C108.083 19.3181 106.923 19.0569 105.573 19.0569C104.424 19.0569 103.371 19.2723 102.414 19.7031C101.456 20.134 100.628 20.7177 99.9299 21.4555C99.2314 22.1921 98.6914 23.0649 98.3078 24.0739C97.9241 25.0829 97.7334 26.1656 97.7334 27.3219C97.7334 28.592 97.9308 29.7483 98.3244 30.7908C98.718 31.8344 99.2757 32.7295 99.9964 33.4774C100.717 34.2263 101.584 34.8044 102.598 35.2118C103.611 35.6203 104.727 35.8246 105.943 35.8246C106.934 35.8246 107.818 35.7163 108.595 35.5009C109.372 35.2855 110.048 35.031 110.622 34.7352C111.164 34.4573 111.609 34.1682 111.96 33.8691L110.116 32.013C109.859 32.1826 109.579 32.3523 109.254 32.5242L109.256 32.5264ZM101.215 24.4155C101.44 23.8831 101.756 23.4132 102.161 23.0047C102.567 22.5973 103.056 22.268 103.63 22.0191C104.204 21.7691 104.852 21.6452 105.573 21.6452C106.969 21.6452 108.05 22.076 108.816 22.9377C109.582 23.7993 110.01 24.8418 110.1 26.0662H100.842C100.865 25.4992 100.989 24.949 101.214 24.4166L101.215 24.4155Z" fill="white"></path>
<path d="M123.247 32.935C122.864 33.1158 122.38 33.2062 121.794 33.2062C121.074 33.2062 120.516 32.9685 120.122 32.493C119.728 32.0164 119.531 31.1436 119.531 29.8734V22.0851H124.126V19.5347H119.531V14.3647H116.49V19.5347H113.651V22.0851H116.49V30.1793C116.49 32.1068 116.879 33.5243 117.655 34.4306C118.432 35.338 119.654 35.7912 121.321 35.7912C122.267 35.7912 123.083 35.6494 123.77 35.366C124.457 35.0825 125.127 34.6237 125.78 33.9886L124.396 32.118C124.012 32.4807 123.629 32.7531 123.247 32.9339V32.935Z" fill="white"></path>
<path d="M139.832 32.2207V24.7381C139.832 22.9244 139.252 21.5236 138.093 20.5381C136.933 19.5514 135.339 19.0581 133.311 19.0581C132.455 19.0581 131.7 19.1206 131.047 19.2456C130.394 19.3706 129.809 19.5291 129.29 19.7222C128.772 19.9153 128.321 20.1251 127.938 20.3517C127.555 20.5783 127.229 20.8049 126.958 21.0314L128.377 23.1063C128.851 22.7659 129.436 22.4322 130.135 22.1029C130.832 21.7748 131.779 21.6096 132.973 21.6096C134.167 21.6096 135.152 21.8641 135.862 22.3753C136.571 22.8853 136.926 23.7302 136.926 24.9089V25.487C136.813 25.4647 136.622 25.4424 136.352 25.419C136.081 25.3966 135.766 25.3743 135.406 25.3509C135.046 25.3286 134.662 25.3062 134.257 25.2828C133.851 25.2605 133.469 25.2482 133.109 25.2482C130.879 25.2482 129.172 25.7583 127.99 26.7784C126.807 27.7986 126.216 29.1591 126.216 30.8601C126.216 31.7664 126.379 32.5321 126.706 33.1549C127.032 33.7788 127.46 34.2889 127.99 34.6851C128.519 35.0825 129.106 35.3648 129.747 35.5356C130.389 35.7053 131.036 35.7901 131.689 35.7901C132.703 35.7901 133.688 35.597 134.645 35.2119C135.602 34.8269 136.374 34.2375 136.959 33.4429L137.027 35.3481H139.866C139.843 34.963 139.832 34.492 139.832 33.9373V32.2196V32.2207ZM136.926 29.6703C136.926 30.1469 136.802 30.6112 136.555 31.0644C136.306 31.5175 135.98 31.9149 135.575 32.2553C135.169 32.5957 134.701 32.8669 134.172 33.0712C133.642 33.2754 133.085 33.377 132.5 33.377C131.463 33.377 130.653 33.156 130.067 32.714C129.482 32.272 129.189 31.6202 129.189 30.7586C129.189 30.4181 129.246 30.0621 129.358 29.6871C129.47 29.3132 129.679 28.9727 129.983 28.6669C130.287 28.3611 130.704 28.1055 131.234 27.9012C131.762 27.697 132.455 27.5954 133.311 27.5954C133.672 27.5954 134.043 27.6066 134.427 27.6289C134.809 27.6523 135.17 27.6747 135.508 27.697C135.846 27.7193 136.144 27.7483 136.403 27.7818C136.661 27.8153 136.836 27.8443 136.926 27.8666V29.6692V29.6703Z" fill="white"></path>
<path d="M156.838 31.9148V12.6648H153.797V20.1809C153.459 20.0458 152.975 19.8404 152.344 19.5692C151.713 19.2969 150.835 19.1607 149.709 19.1607C148.876 19.1607 147.992 19.3192 147.057 19.6373C146.122 19.9554 145.254 20.4599 144.456 21.1508C143.656 21.8428 142.998 22.7268 142.479 23.8038C141.96 24.8809 141.702 26.1678 141.702 27.6634C141.702 28.9113 141.876 30.0386 142.225 31.0475C142.574 32.0565 143.063 32.9126 143.695 33.6158C144.325 34.3189 145.069 34.8636 145.925 35.2487C146.781 35.6337 147.705 35.8268 148.696 35.8268C149.462 35.8268 150.132 35.7253 150.706 35.521C151.281 35.3168 151.782 35.0779 152.21 34.8067C152.638 34.5344 152.981 34.2564 153.241 33.9729C153.5 33.6894 153.685 33.4796 153.799 33.3434L153.899 35.3503H156.872C156.85 34.7833 156.838 34.2453 156.838 33.7341V31.9148ZM153.797 28.6836C153.797 29.1378 153.713 29.6312 153.544 30.1636C153.375 30.6971 153.116 31.1837 152.766 31.6268C152.417 32.0688 151.96 32.4371 151.398 32.7318C150.835 33.0265 150.16 33.1738 149.371 33.1738C148.583 33.1738 147.901 33.032 147.327 32.7485C146.752 32.465 146.279 32.0744 145.907 31.5744C145.536 31.0766 145.26 30.4917 145.08 29.8231C144.899 29.1546 144.81 28.4458 144.81 27.698C144.81 26.7917 144.939 25.9747 145.199 25.2492C145.457 24.5237 145.818 23.9121 146.28 23.4132C146.741 22.9143 147.282 22.5281 147.902 22.2569C148.521 21.9845 149.203 21.8484 149.947 21.8484C151.072 21.8484 151.94 22.0013 152.548 22.3082C153.155 22.614 153.572 22.8585 153.797 23.0393V28.6847V28.6836Z" fill="white"></path>
<path d="M162.706 12.6648H159.666V16.0824H162.706V12.6648Z" fill="white"></path>
<path d="M162.706 19.5344H159.666V35.3489H162.706V19.5344Z" fill="white"></path>
<path d="M168.491 12.6648H165.45V35.3491H168.491V12.6648Z" fill="white"></path>
<path d="M18.7872 35.8258C16.5319 35.8258 14.2789 34.9508 12.5791 33.2063L11.6277 32.2296C8.27031 28.7841 8.32353 23.2314 11.7464 19.8517L20.4981 11.2106C22.1557 9.57433 24.319 8.70039 26.6707 8.70597C28.9925 8.72941 31.168 9.66027 32.7946 11.3289L50.4488 29.1446C51.5465 30.2284 53.3538 30.2117 54.4526 29.0833L55.404 28.1066C55.9362 27.5609 56.2256 26.8376 56.2189 26.0719C56.2112 25.3051 55.9085 24.5897 55.3652 24.0528L46.6146 15.4117C45.4925 14.3034 43.6874 14.3224 42.5874 15.4508L40.8599 17.2243L36.6853 13.1013L38.4128 11.3278C40.0394 9.65915 42.2149 8.72718 44.5367 8.70486C46.8641 8.687 49.0517 9.57098 50.7105 11.2095L59.461 19.8495C61.1187 21.4868 62.0445 23.6767 62.0667 26.015C62.0889 28.3522 61.2052 30.5599 59.5786 32.2285L58.6272 33.2051C55.2687 36.6507 49.7536 36.7042 46.3296 33.3235L28.6355 15.4686C27.5189 14.3235 25.7127 14.3067 24.5917 15.4117L15.84 24.0528C14.719 25.1589 14.7024 26.9771 15.8012 28.1055L16.7526 29.0821C17.8525 30.2117 19.6587 30.2273 20.7797 29.1212L30.5127 19.5113L34.6075 23.7146L24.8745 33.3235C23.1847 34.991 20.9848 35.8236 18.7861 35.8236L18.7872 35.8258Z" fill="white"></path>
</svg>