<svg width="178" height="29" viewBox="0 0 178 29" fill="none" xmlns="http://www.w3.org/2000/svg">
<g clip-path="url(#clip0_9589_1171)">
<path d="M104.146 8.7978C104.146 13.6491 100.201 17.5917 95.356 17.5917C90.5107 17.5917 86.6352 13.7146 86.5659 8.921H90.0835C90.1528 11.774 92.4927 14.0688 95.356 14.0688C98.2194 14.0688 100.629 11.7047 100.629 8.79395C100.629 5.88317 98.3079 3.56147 95.4369 3.51527V0C100.248 0.0462029 104.146 3.9773 104.146 8.7978Z" fill="white"></path>
<path d="M25.7779 0.0615234V17.3414H22.1025V0.0615234H25.7779Z" fill="white"></path>
<path d="M73.2266 0.0615234V3.02621V3.08396H79.1957V17.3452H82.8749V3.08396H88.8941V3.02621V0.0615234H73.2266Z" fill="white"></path>
<path d="M55.2729 14.3228V10.2146H66.1528V9.91428V7.34618V7.19217H55.2729V3.08396H66.1528V3.02621V0.0615234H51.6206V3.08396V7.19217V10.2146V14.3228V17.3414V17.3452H66.1528V17.3414V14.3806V14.3228H55.2729Z" fill="white"></path>
<path d="M36.981 24.033H37.8122L39.3016 26.0774L40.7679 24.033H41.6069V28.8997H40.6794V25.627L39.7596 26.9514H38.8321L37.9123 25.627V28.8997H36.9848V24.033H36.981Z" fill="white"></path>
<path d="M44.8281 28.6688C44.4625 28.4493 44.1739 28.149 43.966 27.764C43.7582 27.3789 43.6543 26.9477 43.6543 26.4703C43.6543 25.9929 43.7582 25.5578 43.966 25.1766C44.1739 24.7916 44.4586 24.4913 44.8281 24.2718C45.1937 24.0523 45.6055 23.9407 46.0597 23.9407C46.5138 23.9407 46.9256 24.0523 47.2912 24.2718C47.6568 24.4913 47.9454 24.7916 48.1533 25.1766C48.3611 25.5616 48.465 25.9929 48.465 26.4703C48.465 26.9477 48.3611 27.3828 48.1533 27.764C47.9454 28.149 47.6607 28.4493 47.2912 28.6688C46.9256 28.8882 46.5138 28.9999 46.0597 28.9999C45.6055 28.9999 45.1937 28.8882 44.8281 28.6688ZM46.7986 27.8602C47.0141 27.7216 47.1873 27.5291 47.3104 27.2865C47.4336 27.044 47.499 26.7706 47.499 26.4664C47.499 26.1623 47.4374 25.8889 47.3104 25.6425C47.1873 25.3961 47.0141 25.2074 46.7986 25.0649C46.5831 24.9263 46.3367 24.857 46.0597 24.857C45.7826 24.857 45.5401 24.9263 45.3207 25.0649C45.1052 25.2036 44.9359 25.3961 44.8127 25.6425C44.6896 25.8889 44.628 26.1623 44.628 26.4664C44.628 26.7706 44.6896 27.044 44.8127 27.2865C44.9359 27.5291 45.1052 27.7178 45.3207 27.8602C45.5362 27.9988 45.7826 28.0681 46.0597 28.0681C46.3367 28.0681 46.5792 27.9988 46.7986 27.8602Z" fill="white"></path>
<path d="M50.52 24.033H52.833C53.2871 24.033 53.6989 24.1369 54.0645 24.3487C54.4302 24.5604 54.7188 24.8492 54.9266 25.2188C55.1344 25.5885 55.2384 26.0043 55.2384 26.4702C55.2384 26.936 55.1344 27.3442 54.9266 27.7176C54.7188 28.0911 54.434 28.3799 54.0645 28.5916C53.6951 28.8034 53.2871 28.9074 52.833 28.9074H50.52V24.0407V24.033ZM52.833 28.0257C53.1063 28.0257 53.3526 27.9602 53.5719 27.8254C53.7874 27.6945 53.9568 27.5097 54.0799 27.271C54.2031 27.0323 54.2647 26.7666 54.2647 26.4663C54.2647 26.166 54.2031 25.9042 54.0799 25.6693C53.9568 25.4306 53.7874 25.2458 53.5719 25.111C53.3564 24.9763 53.1101 24.907 52.833 24.907H51.4475V28.0218H52.833V28.0257Z" fill="white"></path>
<path d="M58.7791 24.033H60.1646L62.0581 28.8997H61.0613L60.5841 27.656H58.3327L57.8593 28.8997H56.8779L58.7791 24.033ZM60.2685 26.782L59.4449 24.7684L58.6521 26.782H60.2685Z" fill="white"></path>
<path d="M68.0771 28.6688C67.7115 28.4493 67.4229 28.149 67.2151 27.764C67.0072 27.3789 66.9033 26.9477 66.9033 26.4703C66.9033 25.9929 67.0072 25.5578 67.2151 25.1766C67.4229 24.7916 67.7077 24.4913 68.0771 24.2718C68.4427 24.0523 68.8545 23.9407 69.3087 23.9407C69.7166 23.9407 70.0938 24.0292 70.4325 24.2025C70.7711 24.3758 71.0482 24.6222 71.2676 24.9417C71.487 25.2613 71.6217 25.6232 71.6832 26.0314H70.6942C70.6133 25.681 70.4479 25.3999 70.2015 25.1843C69.9514 24.9687 69.655 24.8609 69.3125 24.8609C69.0393 24.8609 68.793 24.9302 68.5736 25.0688C68.3581 25.2074 68.1887 25.3999 68.0656 25.6463C67.9424 25.8927 67.8809 26.1661 67.8809 26.4703C67.8809 26.7744 67.9424 27.0478 68.0656 27.2904C68.1887 27.5329 68.3581 27.7216 68.5736 27.8641C68.7891 28.0027 69.0354 28.072 69.3125 28.072C69.655 28.072 69.9552 27.9642 70.2015 27.7486C70.4517 27.5329 70.6172 27.2519 70.6942 26.9015H71.6832C71.6217 27.3096 71.4831 27.6754 71.2676 27.995C71.0521 28.3145 70.7711 28.561 70.4325 28.7381C70.0938 28.9113 69.7205 28.9999 69.3087 28.9999C68.8545 28.9999 68.4427 28.8882 68.0771 28.6688Z" fill="white"></path>
<path d="M74.6816 28.6688C74.316 28.4493 74.0274 28.149 73.8195 27.764C73.6117 27.3789 73.5078 26.9477 73.5078 26.4703C73.5078 25.9929 73.6117 25.5578 73.8195 25.1766C74.0274 24.7916 74.3122 24.4913 74.6816 24.2718C75.0472 24.0523 75.459 23.9407 75.9132 23.9407C76.3673 23.9407 76.7791 24.0523 77.1447 24.2718C77.5103 24.4913 77.799 24.7916 78.0068 25.1766C78.2146 25.5616 78.3185 25.9929 78.3185 26.4703C78.3185 26.9477 78.2146 27.3828 78.0068 27.764C77.799 28.149 77.5142 28.4493 77.1447 28.6688C76.7791 28.8882 76.3673 28.9999 75.9132 28.9999C75.459 28.9999 75.0472 28.8882 74.6816 28.6688ZM76.6482 27.8602C76.8638 27.7216 77.0369 27.5291 77.1601 27.2865C77.2833 27.044 77.3487 26.7706 77.3487 26.4664C77.3487 26.1623 77.2871 25.8889 77.1601 25.6425C77.0369 25.3961 76.8638 25.2074 76.6482 25.0649C76.4327 24.9263 76.1864 24.857 75.9093 24.857C75.6322 24.857 75.3898 24.9263 75.1704 25.0649C74.9549 25.2036 74.7855 25.3961 74.6624 25.6425C74.5392 25.8889 74.4777 26.1623 74.4777 26.4664C74.4777 26.7706 74.5392 27.044 74.6624 27.2865C74.7855 27.5291 74.9549 27.7178 75.1704 27.8602C75.3859 27.9988 75.6322 28.0681 75.9093 28.0681C76.1864 28.0681 76.4289 27.9988 76.6482 27.8602Z" fill="white"></path>
<path d="M80.3735 24.033H83.7064C84.122 24.033 84.453 24.1677 84.7109 24.4334C84.9649 24.6991 85.0919 25.0533 85.0919 25.4922C85.0919 25.8811 84.9803 26.2006 84.7571 26.4548C84.5338 26.7089 84.2413 26.8513 83.8757 26.8937L85.088 28.8997H84.0412L82.8751 26.9014H81.3049V28.8997H80.3774V24.033H80.3735ZM83.7025 26.0274C83.8411 26.0274 83.9527 25.9812 84.0374 25.8926C84.1182 25.8041 84.1605 25.6847 84.1605 25.5423V25.3998C84.1605 25.2535 84.1182 25.138 84.0374 25.0494C83.9566 24.9609 83.8449 24.9147 83.7025 24.9147H81.301V26.0312H83.7025V26.0274Z" fill="white"></path>
<path d="M87.1855 24.033H90.5184C90.9341 24.033 91.265 24.1677 91.5229 24.4334C91.7769 24.6991 91.9039 25.0533 91.9039 25.4922C91.9039 25.9311 91.7769 26.2507 91.5229 26.5125C91.2689 26.7705 90.9341 26.9014 90.5184 26.9014H88.1169V28.8997H87.1894V24.033H87.1855ZM90.5146 26.0274C90.6531 26.0274 90.7647 25.9812 90.8494 25.8926C90.9302 25.8041 90.9725 25.6847 90.9725 25.5423V25.3998C90.9725 25.2535 90.9302 25.138 90.8494 25.0494C90.7686 24.9609 90.657 24.9147 90.5146 24.9147H88.1131V26.0312H90.5146V26.0274Z" fill="white"></path>
<path d="M94.8442 28.6688C94.4786 28.4493 94.19 28.149 93.9821 27.764C93.7743 27.3789 93.6704 26.9477 93.6704 26.4703C93.6704 25.9929 93.7743 25.5578 93.9821 25.1766C94.19 24.7916 94.4748 24.4913 94.8442 24.2718C95.2098 24.0523 95.6216 23.9407 96.0758 23.9407C96.5299 23.9407 96.9417 24.0523 97.3073 24.2718C97.6729 24.4913 97.9616 24.7916 98.1694 25.1766C98.3772 25.5616 98.4811 25.9929 98.4811 26.4703C98.4811 26.9477 98.3772 27.3828 98.1694 27.764C97.9616 28.149 97.6768 28.4493 97.3073 28.6688C96.9417 28.8882 96.5299 28.9999 96.0758 28.9999C95.6216 28.9999 95.2098 28.8882 94.8442 28.6688ZM96.8147 27.8602C97.0302 27.7216 97.2034 27.5291 97.3265 27.2865C97.4497 27.044 97.5151 26.7706 97.5151 26.4664C97.5151 26.1623 97.4535 25.8889 97.3265 25.6425C97.2034 25.3961 97.0302 25.2074 96.8147 25.0649C96.5992 24.9263 96.3529 24.857 96.0758 24.857C95.7987 24.857 95.5562 24.9263 95.3368 25.0649C95.1213 25.2036 94.952 25.3961 94.8288 25.6425C94.7057 25.8889 94.6441 26.1623 94.6441 26.4664C94.6441 26.7706 94.7057 27.044 94.8288 27.2865C94.952 27.5291 95.1213 27.7178 95.3368 27.8602C95.5524 27.9988 95.7987 28.0681 96.0758 28.0681C96.3529 28.0681 96.5953 27.9988 96.8147 27.8602Z" fill="white"></path>
<path d="M100.536 24.033H103.869C104.285 24.033 104.616 24.1677 104.873 24.4334C105.127 24.6991 105.254 25.0533 105.254 25.4922C105.254 25.8811 105.143 26.2006 104.92 26.4548C104.696 26.7089 104.404 26.8513 104.038 26.8937L105.251 28.8997H104.204L103.038 26.9014H101.467V28.8997H100.54V24.033H100.536ZM103.869 26.0274C104.008 26.0274 104.119 25.9812 104.204 25.8926C104.285 25.8041 104.327 25.6847 104.327 25.5423V25.3998C104.327 25.2535 104.285 25.138 104.204 25.0494C104.123 24.9609 104.011 24.9147 103.869 24.9147H101.467V26.0312H103.869V26.0274Z" fill="white"></path>
<path d="M108.83 24.033H110.215L112.109 28.8997H111.112L110.635 27.656H108.383L107.91 28.8997H106.929L108.83 24.033ZM110.319 26.782L109.496 24.7684L108.703 26.782H110.319Z" fill="white"></path>
<path d="M115.499 24.9108H113.652V24.033H118.278V24.9108H116.431V28.9035H115.503V24.9108H115.499Z" fill="white"></path>
<path d="M120.237 24.033H121.164V28.8997H120.237V24.033Z" fill="white"></path>
<path d="M123.031 24.033H124.028L125.587 28.0257H125.675L127.234 24.033H128.215L126.322 28.8997H124.936L123.035 24.033H123.031Z" fill="white"></path>
<path d="M131.563 24.033H132.949L134.842 28.8997H133.845L133.368 27.656H131.117L130.643 28.8997H129.662L131.563 24.033ZM133.053 26.782L132.229 24.7684L131.436 26.782H133.053Z" fill="white"></path>
<path d="M18.3615 0.0615234V17.3414H14.7054V15.2777L3.55223 4.02727V17.3414H0V0.0615234H4.75298L14.7823 10.1838V0.0615234H18.3615Z" fill="white"></path>
<path d="M47.8801 0.0615234V17.3414H44.2239V15.2777L33.0708 4.02727V17.3414H29.5186V0.0615234H34.2715L44.3009 10.1838V0.0615234H47.8801Z" fill="white"></path>
<path d="M137.625 0.0615234V17.3414H133.949V0.0615234H137.625Z" fill="white"></path>
<path d="M167.12 14.3228V10.2146H178V9.91428V7.34618V7.19217H167.12V3.08396H178V3.02621V0.0615234H163.468V3.08396V7.19217V10.2146V14.3228V17.3414V17.3452H178V17.3414V14.3806V14.3228H167.12Z" fill="white"></path>
<path d="M130.209 0.0615234V17.3414H126.553V15.2777L115.399 4.02727V17.3414H111.847V0.0615234H116.6L126.63 10.1838V0.0615234H130.209Z" fill="white"></path>
<path d="M159.727 0.0615234V17.3414H156.071V15.2777L144.918 4.02727V17.3414H141.366V0.0615234H146.119L156.148 10.1838V0.0615234H159.727Z" fill="white"></path>
</g>
<defs>
<clipPath id="clip0_9589_1171">
<rect width="178" height="29" fill="white"></rect>
</clipPath>
</defs>
</svg>