<svg width="158" height="46" viewBox="0 0 158 46" fill="none" xmlns="http://www.w3.org/2000/svg">
<g clip-path="url(#clip0_9589_586)">
<mask id="mask0_9589_586" style="mask-type:luminance" maskUnits="userSpaceOnUse" x="0" y="0" width="158" height="46">
<path d="M157.012 0H0V45.5241H157.012V0Z" fill="white"></path>
</mask>
<g mask="url(#mask0_9589_586)">
<path d="M9.1522 33.9393C9.67174 34.2046 10.2196 34.4698 10.8147 34.6498C13.0534 35.3225 15.4244 35.616 17.8614 35.6918C21.5926 35.8056 25.0309 35.2846 27.9215 33.6079C28.1387 33.4752 28.3087 33.3143 28.507 33.1626C27.7986 33.1817 27.1564 33.1721 26.5423 33.4564C25.9851 33.7122 25.286 33.8731 24.6247 33.9867C21.791 34.4698 18.9005 34.5172 16.01 34.3184C13.5729 34.1479 11.1642 33.8826 8.90661 33.2005C8.79324 33.1626 8.66101 33.1626 8.49097 33.1248C8.56655 33.4848 8.79324 33.7595 9.16163 33.9488L9.1522 33.9393Z" fill="white"></path>
<path d="M13.0722 41.214C13.3745 41.8867 13.6579 42.5307 13.9507 43.2034C14.697 43.2034 15.5566 43.0708 16.2461 43.5348C16.1233 43.5348 16.0005 43.5539 15.8777 43.5444C15.3676 43.5348 14.8576 43.5253 14.3569 43.497C13.6768 43.4591 13.3367 43.7906 12.9495 44.0653C14.4703 44.122 15.9816 44.1601 17.4646 43.8853C17.4646 43.7622 17.4458 43.6484 17.4646 43.5253C17.5119 43.3074 17.5969 43.0896 17.6252 42.8717C17.6725 42.5212 17.6724 42.1803 17.7102 41.8298C17.748 41.5171 17.8142 41.1952 17.8708 40.8162C16.265 41.1857 14.6686 41.2805 13.0817 41.214H13.0722Z" fill="white"></path>
<path d="M18.0784 26.0108C17.4455 25.9824 16.8032 25.9634 16.123 25.9446C16.6331 26.3329 17.0866 26.6834 17.5683 27.0527C17.88 26.9013 18.1728 26.7591 18.4562 26.617C18.3806 26.4465 18.3145 26.2855 18.2295 26.1246C18.2012 26.0772 18.1351 26.0015 18.0784 26.0015V26.0108Z" fill="white"></path>
<path d="M14.9992 30.4156C14.8197 30.984 14.6591 31.5618 14.4985 32.1302C15.2542 32.2628 16.6428 31.884 17.0395 31.4292C17.3229 31.1071 17.2473 30.7947 16.7561 30.6242C16.2933 30.463 15.7643 30.3777 15.2637 30.2737C15.1975 30.2642 15.0181 30.3494 14.9992 30.4063V30.4156Z" fill="white"></path>
<path d="M19.817 33.6268C19.647 32.9732 19.4864 32.3384 19.3353 31.7039C19.0236 32.4615 17.6161 33.0111 16.4637 32.8406C15.9442 32.7646 15.4813 32.7646 14.9901 32.812C14.8673 32.8215 14.7351 32.8215 14.6123 32.831C14.2439 32.831 12.4586 33.1058 12.043 33.2289C14.6595 33.5508 17.2288 33.712 19.8265 33.6268H19.817Z" fill="white"></path>
<path d="M35.7717 10.2774C35.7717 10.2206 35.7717 10.1638 35.7529 10.1164C35.3845 8.80921 34.6854 7.59676 33.5048 6.52639C31.8989 5.05817 29.8018 3.95939 27.4687 3.05949C26.5147 2.69008 25.5511 2.32066 24.4459 2.15016C21.5555 1.71443 18.6556 1.57235 15.7179 1.87546C14.5088 1.9986 13.2902 2.09333 12.1662 2.4438C10.5225 2.96478 8.9923 3.58997 7.56595 4.34773C5.23277 5.58861 3.40969 7.06631 2.5501 9.00815C2.37063 9.42493 2.22894 9.8417 2.06836 10.2774C6.49855 10.8837 10.9098 11.2436 15.3589 11.3194C22.1978 11.4425 29.0083 11.272 35.7624 10.268L35.7717 10.2774ZM20.8281 3.08792C21.4516 3.08792 22.075 3.13528 22.689 3.21107C23.303 3.28684 23.9171 3.38155 24.5217 3.5047C25.126 3.62785 25.7118 3.7794 26.288 3.94991C26.8641 4.12042 27.4215 4.3288 27.9504 4.54667C29.0179 5.00133 29.9813 5.56968 30.7559 6.24221L30.8976 6.36536C30.9447 6.40324 30.9921 6.4506 31.0298 6.49796C31.1148 6.58322 31.2093 6.66846 31.2943 6.76321L31.5305 7.03788C31.5684 7.08527 31.6155 7.12315 31.6439 7.17051L31.7477 7.31258C32.0406 7.682 32.2485 8.07985 32.4278 8.4777C32.1539 8.10826 31.8894 7.72939 31.5493 7.38837L31.4267 7.25575C31.3888 7.20839 31.3417 7.17051 31.2943 7.13262L31.0298 6.87685L30.7464 6.63058C30.6992 6.5927 30.6521 6.54534 30.6047 6.50743L30.4537 6.39376C30.3497 6.318 30.2554 6.24221 30.1513 6.16645L29.8301 5.94858C29.7263 5.87279 29.6034 5.80648 29.4996 5.74019L29.3296 5.63597L29.15 5.54126C29.0274 5.47494 28.9233 5.40866 28.8007 5.34234L28.4416 5.15291C28.3187 5.09607 28.1961 5.03924 28.0637 4.97292C27.9411 4.91609 27.8087 4.85925 27.6765 4.80242C27.1665 4.58455 26.6281 4.37616 26.0706 4.20566C25.5227 4.02567 24.9467 3.87412 24.3705 3.73204C23.2086 3.45734 22.0183 3.23948 20.7904 3.0974L20.8281 3.08792Z" fill="white"></path>
<path d="M28.5452 34.0435C27.4967 34.7823 26.3349 35.2559 25.0503 35.5778C22.1125 36.3262 19.0803 36.5819 15.9631 36.2883C13.4599 36.0516 11.0323 35.6442 8.89749 34.6875C8.87858 34.6875 8.85025 34.6875 8.80303 34.6875C8.51964 35.0475 8.51019 35.4452 8.65189 35.8242C8.85025 36.3452 9.12418 36.8471 9.36033 37.3586C9.71929 38.1543 10.6072 38.827 10.5789 39.6794C11.089 39.6415 11.5896 39.5941 12.0808 39.5563C12.0808 39.5846 12.0902 39.6132 12.0997 39.6415C11.703 39.7172 11.2968 39.8025 10.9 39.8784C10.6167 39.9351 10.3805 40.0204 10.3805 40.2573C10.3805 40.4751 10.6356 40.5604 10.8717 40.5982C11.5424 40.7025 12.213 40.8066 12.8931 40.854C14.3101 40.9678 15.7175 40.7971 17.1155 40.693C17.3422 40.674 17.6634 40.7213 17.7673 40.6361C17.8807 40.5508 17.7862 40.3425 17.7862 40.1908C17.7862 39.4046 17.7862 38.6186 17.7862 37.8134C17.1533 37.766 16.5865 37.7281 16.0198 37.6807C15.8214 37.6619 15.6136 37.6429 15.4247 37.5955C15.3397 37.5765 15.2074 37.4724 15.2263 37.4441C15.2641 37.3776 15.3869 37.3303 15.4814 37.2924C15.538 37.2733 15.6325 37.2924 15.7081 37.2924C16.6338 37.3588 17.5595 37.406 18.4852 37.4819C19.0992 37.5293 19.7037 37.605 20.3177 37.6712C20.3177 37.6998 20.3177 37.7376 20.3177 37.766C19.6943 37.7943 19.0709 37.8324 18.4663 37.8607C18.4663 38.0312 18.4663 38.2017 18.4663 38.3722C18.4474 38.9501 18.4285 39.528 18.4096 40.1056C18.4096 40.1815 18.438 40.2951 18.5041 40.3235C18.9008 40.4751 19.2975 40.6266 19.7226 40.7309C21.1017 41.053 22.5281 41.053 23.9545 40.9678C24.3228 40.9487 24.6912 40.8444 25.0312 40.7309C25.2203 40.6647 25.3336 40.513 25.4563 40.4087C24.9841 40.1908 24.5874 40.0015 24.1811 39.812C24.2095 39.7646 24.2473 39.7268 24.2757 39.6794C24.6912 39.7551 25.0974 39.8311 25.447 39.8973C25.9475 39.291 26.42 38.6374 26.9867 38.0312C27.5251 37.4534 28.1297 36.9136 28.4697 36.2695C28.7057 35.8147 28.8757 35.3599 28.8002 34.8771C28.7531 34.6118 28.649 34.3559 28.5547 34.0339L28.5452 34.0435ZM27.3455 36.6009C27.2227 36.8945 27.0622 37.1788 26.8733 37.4534C26.6843 37.7281 26.4483 37.9934 26.1742 38.2396C26.108 38.2965 26.0325 38.3627 25.9663 38.4196C25.8909 38.4765 25.8154 38.5334 25.7396 38.5901L25.617 38.6753C25.5696 38.7039 25.532 38.7227 25.4941 38.7513C25.4091 38.7984 25.3241 38.8553 25.2296 38.8932C25.4375 38.6186 25.6737 38.3722 25.872 38.1069C26.0797 37.8512 26.2783 37.586 26.4576 37.3207C26.6466 37.0555 26.826 36.7905 27.0055 36.5252C27.185 36.2504 27.3643 35.9852 27.5534 35.7104C27.5534 36.0135 27.4589 36.3166 27.3455 36.6105V36.6009Z" fill="white"></path>
<path d="M21.3185 43.5444C21.1107 43.5444 20.9123 43.5632 20.7045 43.5632C20.4589 43.5632 20.2133 43.5349 19.9677 43.5158C20.0433 43.4022 20.1283 43.3075 20.2228 43.2979C20.7801 43.2413 21.3374 43.2127 21.9325 43.1653C21.5263 42.597 21.8569 42.0193 22.1781 41.3845C21.5263 41.3183 20.8745 41.2898 20.2606 41.1857C19.6371 41.0814 19.042 40.9109 18.4375 40.7783C18.4186 40.9109 18.3808 41.0719 18.3619 41.2236C18.2675 41.8676 18.0974 42.5024 18.0974 43.1465C18.0974 43.8853 18.3052 44.0937 19.3537 44.1506C20.5156 44.2073 21.6963 44.1884 22.8582 44.198C22.9054 44.198 22.9527 44.1789 23.0188 44.1694C22.811 44.0558 22.6032 43.9706 22.4615 43.8475C22.1592 43.5915 21.753 43.5349 21.3091 43.5349L21.3185 43.5444Z" fill="white"></path>
<path d="M28.1479 25.5942C26.7687 26.3426 25.4086 27.0814 24.0389 27.8298C25.1724 28.4077 26.098 28.7486 26.5516 28.7865C26.6082 28.5403 26.6742 28.2939 26.7309 28.0572C26.7876 28.0572 26.8442 28.0572 26.9104 28.0572C26.9766 28.3034 27.0709 28.5591 27.1088 28.8053C27.1276 28.9475 27.1843 29.0232 27.3733 29.0991C27.8172 29.2696 28.2422 29.4684 28.6768 29.658C28.658 29.6863 28.6389 29.7149 28.6106 29.7432C26.7687 29.8094 25.3424 29.1558 23.9256 28.5022C23.6515 28.8244 23.3965 29.1465 23.1037 29.4496C22.8014 29.762 22.4424 30.0558 22.0835 30.3778C23.1131 31.4104 24.5016 32.0923 26.2587 32.4616C26.4854 32.509 26.7309 32.5376 26.9671 32.5564C28.9602 32.7269 30.3677 31.8745 30.8116 30.6335C31.2273 29.4684 30.8589 28.3791 30.056 27.3372C29.5648 26.7026 28.9035 26.1438 28.1572 25.6038L28.1479 25.5942ZM30.1598 28.6539C30.2165 28.8053 30.2544 28.9665 30.2827 29.1179C30.3015 29.1939 30.3015 29.2696 30.311 29.3549C30.311 29.4306 30.311 29.5063 30.3203 29.5915C30.311 29.7432 30.292 29.9042 30.2636 30.0558C30.1977 29.9042 30.1503 29.7527 30.0936 29.6106C30.0653 29.5349 30.037 29.4589 30.0086 29.3927C29.9803 29.317 29.9615 29.241 29.9236 29.1748C29.8576 29.0327 29.8103 28.8813 29.7348 28.7391C29.6781 28.597 29.5931 28.4548 29.5269 28.3129C29.3664 28.0381 29.1964 27.7634 28.9885 27.4981C28.7806 27.2331 28.5446 26.9771 28.2518 26.7309C28.4689 26.7974 28.6485 26.9014 28.8185 27.0057L28.9506 27.091L29.0735 27.1762C29.1585 27.2331 29.2247 27.2993 29.3002 27.3657C29.5836 27.6215 29.801 27.9055 29.971 28.1991L30.0843 28.4265C30.122 28.5022 30.141 28.5782 30.1693 28.6539H30.1598Z" fill="white"></path>
<path d="M13.6488 16.785C12.8365 16.5577 12.0241 16.3398 11.2307 16.0936C10.5506 15.8852 9.91768 15.582 9.20922 15.44C6.94219 14.9948 4.63735 14.5969 2.35141 14.1896C2.23806 14.1707 2.11527 14.1517 1.93579 14.1233C2.20973 14.3791 2.43642 14.5875 2.66314 14.7958C3.76833 15.8473 4.97741 16.8513 6.37542 17.7417C8.22683 18.9258 10.3994 19.5604 12.9876 19.4373C14.0267 19.3804 15.0563 19.2573 16.0765 19.1058C17.7295 18.8595 19.3731 18.7648 21.0451 19.0016C21.8574 19.1152 22.6604 19.2384 23.4822 19.3426C26.2687 19.6741 28.8192 19.3426 30.9823 18.0638C31.7757 17.5902 32.541 17.0787 33.2304 16.5387C34.0807 15.8662 34.8458 15.1368 35.6392 14.4359C35.6959 14.3885 35.6959 14.3033 35.7242 14.237C35.6204 14.237 35.507 14.2086 35.403 14.218C35.2613 14.2275 35.1291 14.2654 34.9968 14.2843C33.1832 14.6253 31.3697 14.9758 29.5464 15.2884C28.8097 15.4115 28.1296 15.601 27.459 15.8283C26.5049 16.1504 25.5224 16.4251 24.5497 16.7187C24.3796 16.7661 24.2001 16.7945 24.0301 16.8324C24.011 16.8134 23.9922 16.785 23.9827 16.7661C24.3135 16.6051 24.644 16.4345 24.984 16.2735C25.3148 16.122 25.6641 15.9704 26.0043 15.8283C21.3096 16.3872 16.6432 16.3872 11.8636 15.7715C12.6381 16.1314 13.3182 16.444 13.9889 16.7566C13.97 16.7756 13.9511 16.804 13.9322 16.8229C13.8472 16.8134 13.7622 16.804 13.6866 16.7756L13.6488 16.785ZM11.5896 18.6984C11.0323 18.689 10.56 18.3574 10.5694 17.988C10.5789 17.4386 10.9284 17.145 11.5424 17.1639C12.4209 17.1829 12.8176 17.4197 12.7987 17.9217C12.7798 18.4143 12.3075 18.7174 11.5896 18.7079V18.6984ZM27.2133 17.0503C27.7991 17.0503 28.1391 17.3439 28.1484 17.8743C28.1484 18.2627 27.6667 18.5848 27.0811 18.5848C26.3727 18.5848 25.9193 18.2722 25.9193 17.7701C25.9193 17.2871 26.3444 17.0503 27.2133 17.0408V17.0503Z" fill="white"></path>
<path d="M7.36699 35.4644C5.85564 36.7811 4.6371 38.1926 3.91919 39.8407C4.03256 39.7933 4.07978 39.7743 4.11757 39.7555C5.38332 38.9219 6.6491 38.0787 7.90543 37.2358C7.97153 37.1885 8.00932 37.0842 7.98098 37.018C7.79206 36.5063 7.59371 36.0044 7.37644 35.4644H7.36699Z" fill="white"></path>
<path d="M30.1503 24.5901C29.6781 24.7322 29.2056 24.8744 28.6768 25.0354C28.8656 25.1301 28.9885 25.1963 29.1301 25.2627C29.4985 25.0449 29.8481 24.8365 30.1881 24.628C30.1786 24.6091 30.1598 24.5996 30.1503 24.5808V24.5901Z" fill="white"></path>
<path d="M18.9575 30.2262C18.8252 30.1693 18.6552 30.0272 18.4568 30.0176C17.7484 29.961 17.0399 29.9514 16.3315 29.9231C16.322 29.9514 16.3032 29.9705 16.2937 29.9893C17.0399 30.1503 17.7767 30.3398 17.9845 30.8986C18.1829 31.4386 17.7673 31.8744 17.2478 32.2627C17.8051 32.1017 18.2396 31.8839 18.2868 31.4386C18.3152 31.1734 18.5324 31.0217 18.9575 31.0217C19.0236 31.0217 19.0897 31.0029 19.1558 30.9934C18.7969 30.9177 18.3057 30.9365 18.2963 30.605C18.2963 30.4915 18.6741 30.3681 18.948 30.2167L18.9575 30.2262Z" fill="white"></path>
<path d="M13.2425 32.2342C13.337 32.225 13.4503 32.1585 13.4881 32.1016C13.9699 31.4671 14.0454 30.7566 14.2627 30.0746C13.762 30.0368 13.3086 30.0177 12.8741 29.9704C11.9201 29.8663 10.966 29.762 10.0214 29.6199C9.55855 29.5537 9.10515 29.421 8.65174 29.3075C8.42505 29.2506 8.23612 29.137 8.37781 28.9475C8.51006 28.7674 8.73675 28.7958 8.96346 28.8622C9.12405 28.9096 9.28462 28.9475 9.47354 28.9948C9.74748 28.3508 9.89861 27.6972 10.6165 27.2236C10.6637 27.2236 10.711 27.2424 10.7582 27.2519C10.5599 27.8581 10.3615 28.4548 10.1631 29.0896C11.3344 29.2315 12.4774 29.421 13.6392 29.4872C14.7917 29.5537 15.963 29.5063 17.2476 29.5063C16.4731 29.0515 16.3503 28.5117 16.7186 28.0191C17.0681 27.555 16.8603 27.2519 16.4353 26.9202C16.2652 26.7878 16.1141 26.6552 15.9535 26.5226C15.4151 26.0869 14.82 25.7173 13.8848 25.7552C13.7809 25.7552 13.6865 25.7364 13.5826 25.7269C11.4667 25.5278 9.40742 25.1868 7.50878 24.4954C7.45211 24.4766 7.39541 24.467 7.31986 24.448C6.90424 25.0259 6.46972 25.5847 6.08244 26.1531C5.43065 27.1193 4.96779 28.1234 5.02447 29.2032C5.1095 30.9271 6.64919 32.1111 9.19961 32.3954C10.5599 32.5469 11.8917 32.3859 13.2236 32.225L13.2425 32.2342Z" fill="white"></path>
<path d="M20.2608 31.4198C20.1758 31.4483 20.1002 31.5524 20.1097 31.6093C20.2514 32.2629 20.412 32.9165 20.5725 33.5889C22.2728 33.5322 23.9638 33.2765 25.7206 32.9922C23.8788 32.4903 22.3201 31.8081 21.2904 30.6621C21.1393 30.7095 20.9787 30.7474 20.8087 30.7947C20.8654 31.0978 20.6387 31.2778 20.2608 31.4102V31.4198Z" fill="white"></path>
<path d="M19.3069 27.0529C18.9386 27.2141 18.5418 27.3655 18.2112 27.5551C17.7767 27.8013 17.4933 28.1329 17.4744 28.5308C17.4555 28.9192 17.7767 29.1463 18.4001 29.1749C18.4001 29.0896 18.3718 29.0044 18.3812 28.9192C18.3812 28.758 18.3623 28.5496 18.6835 28.5401C19.0236 28.5308 18.9952 28.7296 19.033 28.8906C19.0991 29.1937 19.1558 29.4968 19.2786 29.7906C19.4959 30.2925 20.3177 30.5295 20.9883 30.2925C20.8939 30.2073 20.7994 30.1221 20.705 30.0273C20.0721 29.3927 19.5998 28.7201 19.6092 27.9434C19.6092 26.9298 20.4877 26.6172 21.6307 26.8636C21.6307 26.8636 21.6496 26.8636 21.6684 26.8541C21.3851 26.2005 21.1017 25.5659 20.8278 24.9312C20.7144 25.0069 20.6483 25.0828 20.6388 25.1585C20.5822 25.5564 20.5633 25.9543 20.4971 26.3426C20.4782 26.4374 20.3649 26.5226 20.2988 26.6079C20.1854 26.5415 20.0059 26.4941 19.9682 26.4088C19.8265 26.1057 19.7415 25.7838 19.6187 25.4712C19.5431 25.2912 19.4297 25.1112 19.3258 24.9312L19.1936 24.9597C18.8346 25.4333 18.9763 25.9164 19.1464 26.3805C19.3731 26.4562 19.6564 26.5319 19.7226 26.6646C19.8359 26.8731 19.5148 26.9584 19.288 27.0529H19.3069Z" fill="white"></path>
<path d="M26.4666 25.49C25.0024 25.6417 23.5853 25.7836 22.0835 25.9448C22.3858 26.4088 22.6786 26.8636 22.9714 27.3277C24.1806 26.6931 25.3141 26.1057 26.4666 25.4995V25.49Z" fill="white"></path>
<path d="M20.5446 27.6685C20.384 28.4548 20.9508 29.0705 21.612 29.7715C22.0749 29.2884 22.4905 28.8622 22.8872 28.4455C22.9155 28.4169 22.9155 28.3412 22.8778 28.3129C22.3866 27.9433 21.867 27.5833 21.1491 27.4128C20.7713 27.3276 20.5918 27.4128 20.5352 27.6685H20.5446Z" fill="white"></path>
<path d="M30.3774 25.8877L30.0657 25.2437C29.8862 25.3479 29.6974 25.4425 29.5178 25.5468C29.735 25.7363 29.9145 25.8877 30.0562 26.0108C30.16 25.973 30.2734 25.9351 30.3774 25.8877Z" fill="white"></path>
<path d="M35.2897 24.0314C35.384 23.9366 35.5824 23.823 35.554 23.7378C35.4314 23.3683 35.0535 23.0842 34.7134 22.7905C34.6756 22.8 34.6377 22.8095 34.6001 22.8284C34.7796 23.2262 34.9685 23.6147 35.148 24.0123C35.1952 24.0123 35.2423 24.0219 35.2802 24.0314H35.2897Z" fill="white"></path>
<path d="M32.9656 23.6334L33.5133 24.7227C33.6173 24.6848 33.7118 24.647 33.8157 24.6091L33.2299 23.4817C33.1449 23.5291 33.0506 23.5765 32.9656 23.6334Z" fill="white"></path>
<path d="M33.2961 23.4535L33.9007 24.5807C34.1179 24.4954 34.3446 24.4197 34.562 24.3345C34.3163 23.9366 34.0803 23.5768 33.8157 23.1599C33.6362 23.2547 33.4662 23.3589 33.2866 23.4535H33.2961Z" fill="white"></path>
<path d="M35.9032 10.7891C24.5774 12.2857 13.3084 12.2857 1.99202 10.7891C1.81254 11.7268 1.78421 12.6362 1.87867 13.555C1.87867 13.6118 2.0298 13.7066 2.14315 13.7255C5.53428 14.3222 8.92541 14.8906 12.3826 15.2884C16.9167 15.7999 21.4508 15.8189 25.9566 15.2316C29.2439 14.8053 32.4838 14.2465 35.752 13.7444C35.9789 13.7066 36.0639 13.6402 36.0544 13.4792C36.0356 12.7404 36.026 12.0015 35.9977 11.2627C35.9977 11.1111 35.941 10.9501 35.9127 10.7985L35.9032 10.7891Z" fill="white"></path>
<path d="M42.648 25.9637C42.5346 25.1775 42.6008 24.4196 43.3659 23.7944C42.7992 23.4346 42.2229 23.1125 41.7317 22.743C40.3715 21.7295 39.5781 20.5076 38.9923 19.2193C38.5673 18.2816 38.1894 17.3249 37.7739 16.3776C37.6889 16.1787 37.5565 15.9893 37.4526 15.7998C37.481 16.0556 37.5848 16.2829 37.6793 16.5197C38.4068 18.2058 38.3689 19.9203 38.1894 21.6537C38.1044 22.5062 38.0101 23.3682 38.0194 24.2208C38.0384 25.3101 38.6711 26.2195 40.022 26.8731C41.1838 27.4319 42.5251 27.735 43.8476 28.0571C43.8948 28.0664 43.9421 28.0571 44.046 28.0571C43.243 27.4414 42.7518 26.75 42.6384 25.9637H42.648Z" fill="white"></path>
<path d="M30.1704 25.1868L30.4914 25.85C30.5859 25.8121 30.6805 25.7838 30.7748 25.7457L30.4538 25.0354C30.3592 25.0921 30.2647 25.1395 30.1704 25.1964V25.1868Z" fill="white"></path>
<path d="M35.5827 15.5629C34.5907 16.368 33.6461 17.2111 32.5884 17.9688C30.8691 19.2003 28.7911 20.0054 26.2027 20.1286C24.6063 20.2043 23.0478 20.0338 21.5175 19.7686C19.8361 19.475 18.1737 19.456 16.4923 19.7497C16.0105 19.8349 15.5288 19.9012 15.0376 19.9675C11.4481 20.4601 8.29311 19.9486 5.64823 18.1962C4.45803 17.41 3.37174 16.5669 2.41769 15.6481C2.29489 15.5345 2.17209 15.4208 2.04929 15.3071C2.02096 15.3071 1.98317 15.3261 1.95483 15.3355C2.05874 15.9607 2.06818 16.6048 2.276 17.2205C2.58771 18.1394 3.03168 19.0392 3.43785 19.9391C4.15576 21.5399 5.55377 22.7808 7.8397 23.5102C9.42664 24.0122 11.0608 24.4479 12.6761 24.9027C12.8461 24.95 13.0445 24.9784 13.2334 24.9879C14.7447 25.0636 16.2561 25.1393 17.7675 25.2153C18.0792 25.2341 18.2303 25.1679 18.3153 24.95C18.5704 24.3153 19.1371 24.1922 19.9117 24.571C20.1384 24.2964 20.4407 24.0691 20.9697 24.1448C21.4797 24.2205 21.6025 24.5331 21.7253 24.8174C21.782 24.9405 21.8198 25.0541 21.8859 25.2246C23.01 25.1205 24.1718 25.13 25.1921 24.8931C26.9868 24.4669 28.7344 23.9364 30.4441 23.3681C32.1064 22.8092 33.2968 21.9094 33.9864 20.7632C34.3831 20.1001 34.6757 19.4181 34.997 18.7361C35.5165 17.6279 35.9604 16.5196 35.8754 15.3071C35.7621 15.4113 35.677 15.4871 35.5827 15.5629Z" fill="white"></path>
<path d="M32.5691 23.8609L33.1075 24.8838C33.1925 24.8555 33.2775 24.8176 33.3625 24.7893L32.9279 23.6621C32.8051 23.7283 32.6917 23.7945 32.5691 23.8609Z" fill="white"></path>
<path d="M47.6166 21.1991C47.475 21.1991 47.3899 21.2086 47.3049 21.218C46.4925 21.2938 45.7369 21.1991 45.0283 20.9149C44.0648 20.5265 43.3659 19.9772 42.7992 19.333C41.8263 18.2532 41.42 17.0597 41.1933 15.8283C41.0516 15.0705 40.8626 14.3127 40.1732 13.6686C39.4174 12.9581 38.3783 12.5982 37.056 12.5129C37.0181 13.0718 36.971 13.6022 36.9426 14.1327C36.9426 14.1895 36.9898 14.2653 37.0465 14.3127C38.0761 15.0515 38.5766 15.9609 39.0019 16.9081C39.512 18.0258 39.9842 19.1625 40.5887 20.2518C41.2026 21.3601 42.1851 22.3452 43.6114 23.0841C44.8206 23.7092 46.1524 23.8039 47.6355 23.4251C47.0499 22.6862 47.0404 21.9569 47.6071 21.1991H47.6166ZM44.1405 21.5969C43.857 21.4927 43.5926 21.3696 43.3564 21.2275C43.1109 21.0854 42.8842 20.9339 42.6856 20.7633C42.2889 20.4318 41.9679 20.0529 41.7412 19.6645C41.5145 19.2762 41.3443 18.8594 41.3067 18.4426C41.5334 18.831 41.7789 19.2004 42.0622 19.5603C42.3456 19.9203 42.6668 20.2613 43.0447 20.5644C43.2335 20.716 43.4319 20.8675 43.6493 21.0001C43.7531 21.0665 43.8665 21.1328 43.9798 21.1991C44.0365 21.2275 44.0932 21.2559 44.1594 21.2938C44.216 21.3222 44.2822 21.3506 44.3389 21.379C44.8206 21.6159 45.3778 21.7864 45.9636 21.9284C45.34 21.919 44.7073 21.7958 44.1498 21.5874L44.1405 21.5969Z" fill="white"></path>
<path d="M30.5193 24.9976L30.8972 25.6986C31.0105 25.6608 31.1144 25.6134 31.2277 25.5753L30.8877 24.7893C30.7648 24.8555 30.6422 24.9312 30.5098 24.9976H30.5193Z" fill="white"></path>
<path d="M49.3071 22.0137C49.43 21.8621 49.5717 21.6727 49.685 21.4359C49.855 21.0665 49.8362 20.6781 49.6283 20.3655C49.4112 20.0245 49.0333 19.854 48.5232 19.854C48.0132 19.854 48.4854 19.854 48.4666 19.854C48.4192 19.854 48.372 19.854 48.3249 19.854C47.0307 19.854 45.9634 19.5035 45.0564 18.7836C44.3671 18.2342 43.9134 17.5427 43.6113 16.605C43.5263 16.3398 43.4508 16.0745 43.3751 15.7904C43.2617 15.3641 43.1391 14.9189 42.9688 14.4642C42.2983 12.6645 40.7207 11.632 38.2931 11.3668C38.1609 11.3573 38.0381 11.3384 37.9059 11.3289C37.9059 11.1963 37.9059 11.0731 37.8871 10.9405C37.698 8.68609 36.6874 6.74425 34.902 5.14343C33.4568 3.85519 31.6054 2.72798 29.2345 1.6955C28.0915 1.20294 26.5518 0.606181 24.7571 0.416733C23.9918 0.331482 23.2173 0.265177 22.5561 0.19887C21.4509 0.0946743 20.1662 -0.00952148 18.891 -0.00952148C17.6158 -0.00952148 17.8709 0.00942321 17.3797 0.0473127C16.4162 0.123092 15.4432 0.19887 14.5081 0.284121L13.8847 0.340956C12.3261 0.473569 10.8053 0.833518 9.36945 1.41133C7.99978 1.9702 6.67733 2.62379 5.44934 3.36262C1.85987 5.5034 0.0273376 8.203 -0.00100053 11.3762C-0.0104465 12.7213 0.0745677 14.1137 0.254042 15.6388C0.471301 17.5049 0.830249 19.0015 1.37812 20.3655C2.08657 22.1179 3.22953 23.4156 4.88259 24.3154C4.89204 24.3154 4.91093 24.3344 4.92038 24.3344C3.88131 25.4807 3.2201 26.7498 2.9556 28.1139C2.48331 30.5199 3.94744 32.6417 6.70567 33.5984C6.72457 33.6457 6.734 33.7027 6.75291 33.75C4.66533 35.313 3.15397 37.0652 2.26604 38.9693C2.05823 39.4238 1.96377 39.8691 1.87876 40.267C1.86931 40.3239 1.85987 40.3805 1.84097 40.4279C1.76541 40.7784 1.84097 41.1479 2.03934 41.4225C2.24715 41.7163 2.57777 41.8961 2.9556 41.9434C3.03117 41.9434 3.10673 41.953 3.18231 41.953C3.50346 41.953 3.81519 41.8773 4.0419 41.8299C4.33472 41.7634 4.52365 41.612 4.63699 41.5172C4.64644 41.5077 4.66533 41.4984 4.67478 41.4889C5.83664 40.6836 6.98906 39.8881 8.15092 39.0829C8.36818 39.3955 8.57599 39.6986 8.7838 40.0017C8.70824 40.6363 8.92548 41.3846 10.1724 41.7163C10.503 41.8015 10.8336 41.8582 11.1547 41.9151C11.2964 41.9434 11.4381 41.9625 11.5704 41.9908C11.7121 42.2466 11.8443 42.5023 11.9293 42.7297C11.9104 42.7297 11.8065 42.7675 11.8065 42.7675C11.4948 42.8718 11.1547 42.9854 10.8525 43.1466C10.4179 43.3737 10.1629 43.7716 10.1818 44.2169C10.2007 44.6621 10.4841 45.0314 10.9469 45.221C11.287 45.3631 11.7404 45.5145 12.2127 45.5241C12.7228 45.5241 13.1762 45.5241 13.5918 45.5241C14.6876 45.5241 15.6416 45.505 16.5201 45.4767C16.8696 45.4672 17.1719 45.3819 17.4363 45.3062C17.6253 45.2493 17.8047 45.2019 17.937 45.2019H17.9464C18.107 45.2019 18.3054 45.2493 18.5226 45.2967C18.7777 45.3536 19.0705 45.4198 19.3917 45.4388C20.3174 45.4767 21.2525 45.4862 22.046 45.4862H22.7922C23.1134 45.4862 23.4724 45.4388 23.8313 45.3536C24.7571 45.1262 24.9271 44.52 24.9554 44.2738C24.9838 44.0842 24.9931 43.4402 24.1997 43.0044C24.0296 42.9192 23.8691 42.8435 23.7084 42.777C23.6613 42.7582 23.6141 42.7392 23.5667 42.7109C23.6424 42.597 23.7463 42.5023 23.8691 42.4077C23.8784 42.4077 23.9163 42.3982 24.0013 42.3887H24.0487C24.5397 42.3225 25.0497 42.2561 25.541 42.1139C27.0052 41.6782 27.3264 40.8067 27.3736 40.267C27.8836 39.746 28.422 39.225 28.9416 38.7228L29.1778 38.4862C29.1871 38.4862 29.2154 38.4576 29.2345 38.4483C29.3666 38.3535 29.565 38.2209 29.7067 37.984C29.9807 37.5295 30.1884 37.1411 30.3491 36.7716C30.538 36.3359 31.1142 35.0098 30.1884 33.7784C30.1696 33.7593 30.1601 33.7405 30.1508 33.7215C30.1601 33.7119 30.1791 33.6931 30.1884 33.6836C30.2451 33.6267 30.3017 33.5793 30.3491 33.5226C30.4718 33.3995 30.5663 33.3048 30.6796 33.2384C31.4354 32.7933 31.9926 32.2059 32.3422 31.4954C33.0127 30.103 32.9184 28.6253 32.0493 27.1098C32.0493 27.1003 32.0305 27.0815 32.0305 27.0719C32.7201 26.7879 33.4378 26.4941 34.1369 26.2005L34.2407 26.1531C34.8641 25.8878 35.5066 25.6226 36.13 25.329C36.3662 26.1626 36.8951 26.9014 37.7075 27.4981C39.3794 28.7296 41.297 29.3549 43.4129 29.3549C43.9042 29.3549 44.4142 29.3168 44.9243 29.2506C45.236 29.2127 45.8217 29.0044 46.0389 28.4834C46.2277 28.0191 46.0577 27.4981 45.6139 27.1193C45.4722 27.0057 45.3305 26.9014 45.1981 26.8162C45.0943 26.7405 44.9714 26.6645 44.9243 26.6172C44.5087 26.1814 44.3385 25.6985 44.3859 25.0542C44.3859 25.0542 44.3954 25.0354 44.4047 25.0354C44.9809 25.168 45.5665 25.2342 46.1334 25.2342C46.7002 25.2342 47.6448 25.1111 48.3625 24.8742C48.7687 24.7418 49.2695 24.5711 49.4679 24.0501C49.6567 23.5482 49.4205 23.1314 49.2505 22.8283C49.0049 22.3831 49.1088 22.241 49.2033 22.1179C49.2221 22.0895 49.2505 22.061 49.2695 22.0326L49.3071 22.0137ZM48.8537 21.0759C48.7783 21.2464 48.6366 21.398 48.5137 21.559C48.0791 22.1274 48.1737 22.6957 48.4949 23.2639C48.7594 23.7282 48.7783 23.7851 48.1075 24.003C46.9362 24.3913 45.7272 24.4102 44.5087 24.1071C44.1968 24.0313 44.0175 24.0692 43.8946 24.2492C43.753 24.448 43.5546 24.6471 43.5358 24.8554C43.4508 25.689 43.6208 26.5036 44.3102 27.2236C44.5087 27.4319 44.8297 27.5929 45.0659 27.7917C45.1698 27.877 45.2738 28.0286 45.236 28.1234C45.1981 28.2182 44.9905 28.3222 44.8297 28.3413C42.1661 28.6918 40.0218 28.0477 38.2647 26.7498C37.3108 26.0395 36.9046 25.168 36.9141 24.2397C36.9329 23.2072 37.0558 22.1747 37.188 21.1422C37.3768 19.6077 37.4525 18.0921 36.8384 16.586C36.8008 16.4913 36.7629 16.3966 36.6874 16.2924C36.1771 18.4426 35.9316 20.6402 33.9764 22.5536C34.5935 22.3768 35.0911 22.4715 35.4687 22.8378C35.7049 23.0651 35.9504 23.302 36.215 23.5104C36.6024 23.823 36.6024 24.1071 36.1112 24.344C35.3649 24.7037 34.5903 25.0259 33.8157 25.3481C32.7861 25.7838 31.7376 26.2005 30.6892 26.6267C30.9063 26.9488 31.1237 27.2329 31.2937 27.5267C31.9548 28.6822 32.1438 29.8663 31.5581 31.0692C31.303 31.5997 30.878 32.0638 30.2546 32.4238C29.9712 32.5848 29.8012 32.7933 29.5933 32.9922C29.1304 33.4279 29.1304 33.7972 29.4895 34.2803C29.99 34.9434 29.8484 35.6727 29.5462 36.3737C29.3855 36.7432 29.1778 37.1126 28.9604 37.4726C28.8944 37.5861 28.7054 37.6714 28.592 37.7757C27.9591 38.3914 27.3264 39.0071 26.7123 39.6322C26.5894 39.7648 26.5139 39.9353 26.5044 40.0869C26.4856 40.6458 26.0134 40.9963 25.3143 41.2046C24.8797 41.3372 24.3887 41.3941 23.9163 41.451C23.6801 41.4794 23.5196 41.5172 23.3496 41.6499C22.9623 41.9434 22.7356 42.2656 22.6033 42.6349C22.49 42.9571 22.6222 43.2033 23 43.4023C23.255 43.5349 23.5384 43.6297 23.7841 43.7621C24.228 44.0085 24.162 44.3116 23.6234 44.4443C23.3684 44.5104 23.0756 44.5483 22.8017 44.5483C21.6776 44.5483 20.5535 44.5483 19.4389 44.5104C18.9288 44.4916 18.4376 44.2738 17.937 44.2738C17.4552 44.2738 16.9829 44.539 16.5012 44.5578C15.0843 44.6052 13.6485 44.6147 12.2316 44.5957C11.9104 44.5957 11.5798 44.4726 11.287 44.359C11.0225 44.2547 11.0225 44.0559 11.2681 43.9328C11.5137 43.8002 11.7971 43.7054 12.0805 43.6106C12.9967 43.3171 13.0439 43.3171 12.8645 42.6635C12.7228 42.1804 12.4394 41.7068 12.1938 41.2332C12.156 41.1667 11.9671 41.1194 11.8254 41.1006C11.3531 41.0058 10.8525 40.9489 10.3991 40.8258C9.73785 40.6458 9.58672 40.4279 9.69061 39.9638C9.70951 39.8881 9.73785 39.8027 9.69061 39.7365C9.26554 39.1112 8.83102 38.4862 8.35873 37.804C8.08479 37.9935 7.85808 38.164 7.62193 38.325C6.46007 39.1302 5.30766 39.926 4.1458 40.731C4.0419 40.8067 3.94744 40.911 3.81519 40.9394C3.56959 40.9963 3.27677 41.0627 3.03117 41.0341C2.7289 40.9963 2.65332 40.7784 2.69111 40.5984C2.77612 40.1722 2.8517 39.7365 3.04063 39.3291C3.94744 37.3778 5.51547 35.6823 7.60305 34.2046C7.81086 34.0624 7.88641 33.9584 7.72585 33.75C7.56526 33.5322 7.53692 33.2669 7.42358 33.0205C7.38579 32.9448 7.31966 32.8405 7.2252 32.8121C4.58032 32.0071 3.41845 30.1694 3.78685 28.2748C4.07967 26.7783 4.92038 25.4047 6.2806 24.1923C6.31839 24.164 6.34672 24.1261 6.39394 24.0787C6.00666 23.8797 5.61938 23.6997 5.26044 23.5008C3.5885 22.5915 2.71 21.3601 2.16214 20.0055C1.56704 18.5279 1.27421 17.0218 1.09474 15.5062C0.934156 14.1232 0.839696 12.7403 0.849142 11.3573C0.877478 8.44929 2.61553 6.04332 5.85553 4.11096C7.03627 3.41001 8.2926 2.77534 9.65282 2.22595C10.9658 1.6955 12.3733 1.34503 13.9035 1.21241C15.0654 1.11769 16.2273 1.01349 17.3891 0.928241C19.08 0.8051 20.7519 0.928241 22.4144 1.0798C23.1418 1.14611 23.8784 1.21241 24.6059 1.29766C26.1644 1.46817 27.5248 1.94178 28.8187 2.51012C30.897 3.41001 32.7484 4.4709 34.2407 5.8065C35.9695 7.35049 36.7629 9.10289 36.9234 11.0068C36.9517 11.3857 36.9234 11.7646 36.9234 12.1625C37.3768 12.2003 37.7547 12.2193 38.1231 12.2572C40.3052 12.4845 41.5332 13.3939 42.0432 14.7673C42.2983 15.4588 42.4495 16.1693 42.6666 16.8702C42.9691 17.8174 43.4696 18.7268 44.4047 19.4751C45.4343 20.2897 46.7378 20.7728 48.4004 20.7349C48.7499 20.7349 48.8728 20.8202 48.7783 21.0475L48.8537 21.0759ZM36.3283 20.8012C36.3283 20.877 36.3095 20.9528 36.3 21.0286C36.2529 21.4264 36.1962 21.8337 36.1583 22.241C36.1395 22.2221 36.0921 22.1747 36.0921 22.1747C35.9695 22.061 35.8561 21.9474 35.7428 21.8527C35.9695 21.5022 36.1678 21.1612 36.3379 20.8012H36.3283Z" fill="white"></path>
<path d="M32.2102 24.0596L32.7486 25.0163C32.8431 24.9785 32.9281 24.9501 33.0224 24.9123L32.4936 23.9082C32.399 23.9649 32.3045 24.0123 32.2102 24.0596Z" fill="white"></path>
<path d="M31.842 24.2586L32.2576 25.1963C32.39 25.1489 32.5126 25.1017 32.645 25.0544L32.1537 24.0977C32.0499 24.1543 31.9459 24.2112 31.842 24.2681V24.2586Z" fill="white"></path>
<path d="M30.9727 24.7415L31.322 25.5373C31.4637 25.4899 31.5961 25.4332 31.7377 25.3859L31.3598 24.5237C31.2277 24.5901 31.1048 24.6658 30.9727 24.7323V24.7415Z" fill="white"></path>
<path d="M31.4451 24.4766L31.8039 25.3576C31.9268 25.3102 32.0401 25.2721 32.163 25.225L31.738 24.3154C31.6434 24.3723 31.5396 24.4292 31.4451 24.4766Z" fill="white"></path>
<path d="M59.9257 19.6265C59.9257 19.6833 59.8407 19.8159 59.6707 20.0338C59.5006 20.2517 59.4156 20.4127 59.4156 20.5074C59.4156 20.659 59.3873 20.7348 59.3306 20.7348C59.2739 20.7348 59.1323 20.8579 59.0284 21.0947C58.9151 21.3315 58.8679 21.502 58.8963 21.5968C58.9529 21.7104 58.8868 21.8999 58.6789 22.1651C58.4617 22.4303 58.2538 22.6198 58.0459 22.7145C57.9043 22.7713 57.8288 22.8092 57.8288 22.8566C57.8288 22.9039 57.7533 22.9986 57.6021 23.1029C57.4416 23.2071 57.3187 23.2638 57.2337 23.2638C57.092 23.2638 57.007 23.3019 56.9787 23.3776C56.837 23.6428 56.5158 23.5669 56.0341 23.1786C55.6374 22.8755 55.4011 22.6103 55.3161 22.3735C55.2311 22.1461 55.184 21.6915 55.184 21.0095C55.184 19.8823 55.1083 19.096 54.9666 18.6129C54.9099 18.414 54.9382 18.3193 55.0516 18.3193C55.2216 18.3193 55.3161 18.253 55.3257 18.1299C55.3349 18.0067 55.2783 17.9025 55.1366 17.8078C55.0232 17.7131 54.9666 17.6562 54.9666 17.6468C54.9666 17.6373 54.9949 17.6184 55.0516 17.5899C55.1083 17.5615 55.1366 17.5236 55.1366 17.4668C55.1366 17.41 55.1083 17.4194 55.0516 17.4384V17.211C55.1366 17.0026 55.2123 16.8985 55.269 16.8985C55.4011 16.8795 55.3916 16.7848 55.2216 16.6143C55.1083 16.5385 55.0799 16.3964 55.1366 16.188C55.1744 16.0459 55.2123 15.9891 55.269 15.9891C55.3257 16.027 55.3823 15.9891 55.439 15.9039C55.4673 15.8281 55.439 15.7428 55.3823 15.6671C55.3066 15.5913 55.2595 15.5344 55.2499 15.4965C55.2406 15.4587 55.3066 15.4018 55.4766 15.326C55.6845 15.2503 55.7695 15.1745 55.7317 15.0987C55.7033 15.0608 55.6466 15.0608 55.5616 15.0987C55.4483 15.1366 55.3916 15.1176 55.3916 15.0419C55.4295 15.0135 55.4766 14.9566 55.5616 14.8429C55.7033 14.6535 55.7507 14.5398 55.694 14.502C55.6374 14.4451 55.6374 14.2367 55.694 13.8673C55.7224 13.7915 55.7695 13.5358 55.8357 13.1095C55.9112 12.6833 55.9962 12.2759 56.0812 11.897C56.1662 11.5182 56.2229 11.2719 56.2891 11.1582C56.3458 11.0635 56.4308 10.8172 56.5725 10.4289C56.7046 10.0405 56.7803 9.80366 56.818 9.73735C56.903 9.52896 56.9408 9.22585 56.9408 8.84696C56.9408 8.46806 56.903 8.24072 56.818 8.16496C56.6386 8.03233 56.903 7.89973 57.6116 7.77658C58.301 7.65344 58.8017 7.58712 59.0946 7.58712C59.3213 7.61555 59.5668 7.64396 59.8219 7.7008C60.0202 7.75763 60.3226 7.94709 60.7477 8.24072C61.1632 8.54385 61.3711 8.76172 61.3711 8.87536C61.3711 8.98904 61.4656 9.05535 61.6732 9.17849C61.8716 9.32057 62.0983 9.42477 62.3533 9.49108C62.7784 9.61422 63.232 9.86997 63.7042 10.2678C64.1766 10.6656 64.5166 11.073 64.7526 11.4897C64.8943 11.7265 65.1305 12.096 65.4422 12.6075C65.7446 13.119 65.9618 13.4884 66.0847 13.7157C66.3397 14.1894 66.8026 14.8903 67.4636 15.7902C68.1344 16.6995 68.5311 17.1447 68.6445 17.1447C68.7578 17.1447 68.8145 17.0026 68.975 16.7185C69.1357 16.4343 69.3057 16.0933 69.485 15.7144C69.6646 15.3355 69.7875 15.0987 69.8536 15.004C70.137 14.5493 70.5054 13.64 70.9683 12.2949C71.0816 11.9539 71.1476 11.3666 71.1855 10.5141C71.2138 9.66158 71.195 9.10271 71.1383 8.81855C71.1005 8.51542 71.0626 8.30703 71.025 8.21231C70.9871 8.12705 70.8831 8.02286 70.713 7.92814C70.4863 7.77658 70.2975 7.7008 70.1937 7.7008C70.0896 7.7008 69.8913 7.63451 69.712 7.50188C69.5324 7.36928 69.4284 7.25561 69.4284 7.16087C69.4284 7.00932 69.712 6.81988 70.2787 6.59254C70.9683 6.38415 71.7239 6.34627 72.5363 6.48834C73.3486 6.63042 73.906 6.83881 74.227 7.10406C74.2837 7.14194 74.567 7.27454 75.0773 7.50188C75.474 7.69134 75.7479 7.83342 75.88 7.91866C76.0124 8.00393 76.2201 8.16496 76.5037 8.4207C76.7113 8.57226 76.8813 8.78065 77.023 9.00799C77.1554 9.24481 77.2025 9.37741 77.1459 9.42477C77.0892 9.46267 77.0987 9.55739 77.1837 9.70894C77.2687 9.85102 77.3064 10.4004 77.2971 11.3666C77.2876 12.3423 77.2404 13.0053 77.1554 13.3937C76.8437 14.7293 76.6546 15.4397 76.598 15.5344C76.5413 15.6102 76.3524 15.9702 76.0407 16.6238C75.729 17.2773 75.5307 17.6562 75.4457 17.7604C75.3607 17.8552 75.2378 18.0067 75.1056 18.2056C74.9637 18.4046 74.8221 18.5656 74.6899 18.6982C74.5577 18.8403 74.4065 18.954 74.2365 19.0676C74.1232 19.1623 73.991 19.3139 73.8493 19.4939C73.6226 19.7496 73.4147 19.8823 73.2069 19.9201C73.2069 19.8065 73.1502 19.7875 73.0369 19.8633C72.9802 19.9012 72.9423 19.958 72.914 20.0338C72.8573 20.1759 72.744 20.2232 72.5835 20.2043C72.423 20.1854 72.338 20.2327 72.3001 20.318C72.2434 20.4411 72.1868 20.4979 72.1301 20.4979C72.0734 20.4979 72.0356 20.5358 72.0072 20.6116C71.9694 20.6874 71.9505 20.7442 71.9317 20.7821C71.9222 20.82 71.8467 20.8105 71.7334 20.7537C71.6484 20.7158 71.5917 20.7063 71.5538 20.7253C71.5067 20.7537 71.4593 20.82 71.3933 20.9621C71.28 21.1515 71.1288 21.2463 70.9209 21.2463C70.713 21.2463 70.7414 21.2747 70.6092 21.3221C70.4771 21.3694 70.3825 21.4262 70.2975 21.4925C70.2125 21.5683 70.1842 21.6062 70.2504 21.6252C69.5986 21.9472 69.2395 22.1082 69.1829 22.1082C69.1262 22.1082 69.0883 22.1082 69.0695 22.1367C69.06 22.1651 69.0317 22.1746 68.994 22.203C68.9657 22.2598 68.9374 22.2598 68.8712 22.203C68.7862 22.1272 68.739 22.1272 68.739 22.203C68.739 22.2788 68.7011 22.2882 68.6445 22.203C68.569 22.1177 68.5311 22.1177 68.5311 22.2314C68.4933 22.3829 68.2194 22.4777 67.6715 22.5155C67.1236 22.5535 66.7269 22.5155 66.4719 22.3735C66.2735 22.2598 66.1318 22.1177 66.0468 21.9472C65.9618 21.7767 65.9618 21.6346 66.0468 21.5304C66.1318 21.4262 66.179 21.3315 66.179 21.2368C66.179 21.1421 66.1885 21.1705 66.2073 21.1515C66.2168 21.1326 66.2356 21.1326 66.264 21.1515C66.2923 21.18 66.3302 21.1515 66.3868 21.0947C66.4435 21.0379 66.5002 20.9716 66.5569 20.8958C66.6135 20.82 66.6419 20.7537 66.6419 20.6969C66.6419 20.64 66.3114 20.3843 65.6501 19.9012C64.9793 19.4276 64.6393 19.1339 64.6393 19.0297C64.6393 18.9255 64.5826 18.8403 64.4409 18.7835C64.3088 18.7266 64.0159 18.4424 63.553 17.9309C62.24 16.4627 61.5032 15.7334 61.3332 15.7334C61.1632 15.7334 61.2482 15.7997 61.2482 15.9323C61.2482 16.0649 61.2199 16.1028 61.1632 16.1028C61.1065 16.1028 60.9553 16.5006 60.8232 17.2963C60.7853 17.4857 60.7381 17.6562 60.6531 17.8173C60.5681 17.9783 60.4926 18.1772 60.436 18.4046C60.351 18.7835 60.2752 19.0392 60.2186 19.1813C60.2186 19.2192 60.2186 19.2665 60.2093 19.3329C60.1998 19.3992 60.1714 19.4465 60.1619 19.4749C60.1526 19.5034 60.1243 19.5223 60.1052 19.5223C60.0202 19.5223 59.9731 19.5697 59.9731 19.6644L59.9257 19.6265ZM92.0422 20.3369C92.4389 20.3748 92.864 20.4601 93.3269 20.5832C93.7803 20.7063 94.007 20.8105 94.007 20.8863C94.007 20.9621 93.9315 21.0284 93.7803 21.1894C93.6198 21.3505 93.5536 21.4452 93.5819 21.4925C93.5819 21.5494 93.5253 21.663 93.4119 21.8241C93.2986 21.9851 93.1947 22.0704 93.1097 22.0704C93.0247 22.0704 92.968 22.1367 92.9302 22.2598C92.883 22.4019 92.7602 22.5061 92.5618 22.6198C92.3539 22.724 92.2784 22.7997 92.3444 22.8376C92.4011 22.9134 92.3918 22.9892 92.3161 23.0839C92.2406 23.1691 92.1744 23.2071 92.0894 23.1786C91.9667 23.1597 91.9101 23.1976 91.9101 23.2638C91.9101 23.3302 91.8344 23.3776 91.6834 23.3776C91.5322 23.3776 91.4284 23.4059 91.3905 23.4628C91.3433 23.5197 91.1921 23.5954 90.9559 23.6807C90.7104 23.7659 90.5687 23.7659 90.5025 23.6995C90.4459 23.6238 90.4175 23.6333 90.4175 23.7281C90.3797 23.8702 89.4351 24.0881 87.5553 24.4195C86.6674 24.571 85.9118 24.5143 85.326 24.249C85.0427 24.1352 84.901 24.0974 84.901 24.1352C84.901 24.1733 84.6743 24.0881 84.2114 23.8795C83.9092 23.7281 83.588 23.6333 83.2763 23.5764C82.9646 23.529 82.6529 23.4533 82.379 23.3585C82.0012 23.2071 81.7366 23.1123 81.5666 23.0744C81.3587 22.9986 81.1699 22.8376 80.9715 22.6008C80.7636 22.364 80.6693 22.1367 80.6693 21.9283L80.622 21.5588H81.0944C81.1794 21.5399 81.6611 21.5588 82.5774 21.6346C83.4746 21.7009 83.9847 21.7104 84.098 21.6725C84.1547 21.6725 84.5233 21.6157 85.1939 21.502C85.8647 21.3883 86.5164 21.2747 87.1493 21.161C87.7727 21.0474 88.0937 20.9716 88.1221 20.9242C88.2449 20.8484 88.4907 20.8105 88.859 20.8105C89.2274 20.8105 89.6241 20.7348 90.0492 20.5832C90.4742 20.4411 90.8142 20.3653 91.0409 20.3369C91.2676 20.3085 91.6077 20.3085 92.061 20.3559L92.0422 20.3369ZM96.718 7.15142C96.5953 7.15142 96.6237 7.10406 96.803 7.00932C96.8313 7.00932 96.8408 7.03775 96.8408 7.0851C96.8408 7.13246 96.803 7.16087 96.718 7.16087V7.15142ZM87.3382 19.6265C87.3382 19.6833 87.2627 19.778 87.1115 19.9296C86.9507 20.0812 86.8657 20.1759 86.8657 20.2232C86.8657 20.299 86.8281 20.3369 86.7431 20.3369C86.6581 20.3369 86.6957 20.3653 86.6957 20.4127V20.5548C86.6957 20.6021 86.6864 20.6211 86.6486 20.6021C86.6202 20.6021 86.6014 20.6306 86.5731 20.6874C86.5352 20.7442 86.4974 20.8105 86.4597 20.8768C86.4123 20.9526 86.3747 20.981 86.3464 20.981C86.2614 21 85.9685 20.6685 85.4868 19.977L84.7217 18.9824V18.1488C84.6838 17.6184 84.646 16.8132 84.6083 15.7428C84.5705 14.6819 84.6083 13.8294 84.7405 13.2137C84.8634 12.5885 84.9388 12.1054 84.9672 11.755L85.005 11.2435L84.1547 11.2719C83.588 11.3003 83.1253 11.2529 82.7851 11.1582C81.217 10.6656 79.989 10.0215 79.1106 9.24481C78.9027 9.04587 78.7989 8.75224 78.7801 8.35439C78.7706 7.95657 78.8177 7.74815 78.9218 7.72922C79.0446 7.7008 79.2901 7.76711 79.6585 7.91866C80.0174 8.07021 80.2536 8.20284 80.3386 8.28808C80.3953 8.34492 80.537 8.37334 80.7636 8.38282C80.9903 8.38282 81.132 8.38282 81.1887 8.31651C81.2265 8.27863 81.302 8.25967 81.4344 8.26915C81.5666 8.26915 81.6421 8.26915 81.6799 8.23127C81.7083 8.19336 82.0483 8.146 82.6908 8.08917C83.333 8.03233 83.6637 8.0134 83.6825 8.0134C83.7392 7.9755 84.1076 7.89973 84.7784 7.79554C85.4489 7.69134 86.0156 7.62503 86.4785 7.58712C86.9319 7.54924 87.3382 7.47348 87.7161 7.35981C87.7727 7.33138 88.3678 7.27454 89.5108 7.17982C90.6538 7.09458 91.2488 7.03775 91.296 7.03775C91.3434 7.03775 91.466 7.03775 91.6927 7.01879C91.9194 7.01879 92.1272 6.99039 92.3351 6.97143C92.5335 6.95248 92.6373 6.93355 92.6752 6.89565C92.7035 6.85776 92.8735 6.83881 93.1852 6.83881L93.4402 6.78197C93.1569 6.70621 93.2231 6.66833 93.6198 6.66833C93.9032 6.64937 94.3282 6.66833 94.8949 6.69673C96.0096 6.78197 96.5101 6.94303 96.3968 7.17982C96.3968 7.21771 96.3875 7.27454 96.3684 7.35981C96.3591 7.44505 96.3213 7.50188 96.2834 7.54924C96.2458 7.58712 96.1701 7.61555 96.0851 7.61555C95.9434 7.61555 95.83 7.68187 95.745 7.81447C95.6883 7.89025 95.6507 7.89973 95.6129 7.8429C95.5845 7.80499 95.5562 7.78606 95.5183 7.78606C95.4807 7.78606 95.4428 7.81447 95.4428 7.85237C95.4428 7.89026 95.4333 7.93761 95.405 7.98497C95.32 8.02286 95.2823 8.07024 95.32 8.12705C95.3483 8.18389 95.2916 8.22179 95.1878 8.24072C95.0178 8.27863 94.7628 8.27863 94.4227 8.24072C94.2999 8.24072 94.2432 8.26915 94.2432 8.32599C94.2432 8.38282 94.2053 8.35439 94.1203 8.36387C94.0353 8.36387 93.9786 8.40175 93.9503 8.45859C93.9127 8.58173 93.7331 8.62909 93.3931 8.60069C93.1852 8.60069 93.0531 8.60069 92.9964 8.61962C92.9207 8.61962 92.9019 8.65752 92.9207 8.71436C92.9585 8.79012 92.9114 8.86591 92.798 8.96063C92.6752 9.04587 92.5806 9.09323 92.4956 9.09323C92.4106 9.09323 92.3727 9.13114 92.4106 9.22585C92.4389 9.31109 92.4201 9.35848 92.3635 9.35848C92.3068 9.35848 92.2689 9.39636 92.2406 9.47212C92.2027 9.54791 92.1839 9.54791 92.1556 9.47212C92.0327 9.30164 91.9477 9.33005 91.891 9.5858C91.8627 9.64263 91.8627 9.67106 91.891 9.67106C91.891 9.70894 91.8627 9.73735 91.806 9.7563C91.7493 9.78473 91.6834 9.78473 91.5984 9.78473C91.5134 9.78473 91.4567 9.76578 91.4284 9.7279C91.3717 9.67106 91.3433 9.67106 91.3433 9.7279C91.3055 9.74683 91.296 9.78473 91.296 9.84157C91.296 9.97417 91.2488 10.0405 91.1638 10.0405C91.0788 10.0405 91.0881 10.012 91.126 9.96469C91.1543 9.92681 91.1543 9.89838 91.126 9.89838C91.0409 9.89838 90.9559 9.95521 90.8993 10.0689C90.8238 10.1826 90.6442 10.2678 90.3513 10.3247C90.0963 10.3625 89.9642 10.4099 89.9546 10.4762C89.9453 10.5425 90.0113 10.732 90.1813 11.054C90.408 11.4519 90.3987 12.3138 90.1437 13.6494C89.917 14.7861 89.7563 15.4965 89.6713 15.7428C89.5863 15.9986 89.4729 16.1785 89.3691 16.2733C89.2557 16.3491 89.1991 16.4154 89.1991 16.4722C89.2367 16.6427 89.1991 16.7185 89.1141 16.6995C89.0857 16.6711 89.0574 16.6711 88.9912 16.6995C88.9345 16.7279 88.8683 16.7564 88.8307 16.8037C88.7928 16.8511 88.7833 16.889 88.8212 16.9363C88.8495 16.9742 88.8212 17.0405 88.7457 17.1353C88.67 17.23 88.6607 17.2868 88.7173 17.3152L88.6323 17.3437C88.5473 17.3437 88.4907 17.4384 88.4245 17.6278C88.3678 17.8268 88.3111 18.0257 88.2544 18.2341C88.1978 18.4424 88.1411 18.5656 88.1221 18.6035C87.8387 18.8119 87.697 18.9445 87.697 19.0013C87.697 19.0582 87.6403 19.1434 87.4987 19.3139C87.3665 19.4844 87.3003 19.5886 87.3003 19.6265H87.3382ZM99.4573 19.6265C99.4573 19.6833 99.3723 19.8159 99.2023 20.0338C99.0323 20.2517 98.9473 20.4127 98.9473 20.5074C98.9473 20.659 98.9189 20.7348 98.8623 20.7348C98.8056 20.7348 98.6639 20.8579 98.5601 21.0947C98.4467 21.3315 98.3994 21.502 98.4277 21.5968C98.4844 21.7104 98.4184 21.8999 98.2105 22.1651C97.9934 22.4303 97.7855 22.6198 97.5776 22.7145C97.4359 22.7713 97.3604 22.8092 97.3604 22.8566C97.3604 22.9039 97.2847 22.9986 97.1337 23.1029C96.973 23.2071 96.8504 23.2638 96.7654 23.2638C96.6237 23.2638 96.5387 23.3019 96.5101 23.3776C96.3684 23.6428 96.0474 23.5669 95.5657 23.1786C95.1688 22.8755 94.9328 22.6103 94.8478 22.3735C94.7628 22.1461 94.7154 21.6915 94.7154 21.0095C94.7154 19.8823 94.6399 19.096 94.4982 18.6129C94.4415 18.414 94.4699 18.3193 94.5832 18.3193C94.7532 18.3193 94.8478 18.253 94.8666 18.1299C94.8761 18.0067 94.8194 17.9025 94.6682 17.8078C94.5549 17.7131 94.4982 17.6562 94.4982 17.6468C94.4982 17.6373 94.5266 17.6184 94.5832 17.5899C94.6399 17.5615 94.6682 17.5236 94.6682 17.4668C94.6682 17.41 94.6399 17.4194 94.5832 17.4384V17.211C94.6682 17.0026 94.7437 16.8985 94.8004 16.8985C94.9328 16.8795 94.9233 16.7848 94.7532 16.6143C94.6399 16.5385 94.6116 16.3964 94.6682 16.188C94.7061 16.0459 94.7437 15.9891 94.8004 15.9891C94.8571 16.027 94.9137 15.9891 94.9704 15.9039C94.9987 15.8281 94.9704 15.7428 94.9137 15.6671C94.8383 15.5913 94.7911 15.5344 94.7816 15.4965C94.7721 15.4587 94.8383 15.4018 95.0083 15.326C95.2162 15.2503 95.3012 15.1745 95.2633 15.0987C95.235 15.0608 95.1783 15.0608 95.0933 15.0987C94.9799 15.1366 94.9233 15.1176 94.9233 15.0419C94.9611 15.0135 95.0083 14.9566 95.0933 14.8429C95.235 14.6535 95.2916 14.5398 95.2254 14.502C95.1688 14.4451 95.1688 14.2367 95.2254 13.8673C95.254 13.7915 95.3012 13.5358 95.3674 13.1095C95.4428 12.6833 95.5279 12.2759 95.6129 11.897C95.6979 11.5182 95.7545 11.2719 95.8207 11.1582C95.8774 11.0635 95.9624 10.8172 96.1041 10.4289C96.2363 10.0405 96.3117 9.80366 96.3496 9.73735C96.4346 9.52896 96.4725 9.22585 96.4725 8.84696C96.4725 8.46806 96.4346 8.24072 96.3496 8.16496C96.1701 8.03233 96.4346 7.89973 97.1337 7.77658C97.8233 7.65344 98.3239 7.58712 98.6168 7.58712C98.8434 7.61555 99.089 7.64396 99.344 7.7008C99.5423 7.75763 99.8447 7.94709 100.27 8.24072C100.685 8.54385 100.893 8.76172 100.893 8.87536C100.893 8.98904 100.988 9.05535 101.195 9.17849C101.394 9.32057 101.62 9.42477 101.875 9.49108C102.301 9.61422 102.745 9.86997 103.226 10.2678C103.699 10.6656 104.039 11.073 104.275 11.4897C104.416 11.7265 104.653 12.096 104.964 12.6075C105.267 13.119 105.484 13.4884 105.607 13.7157C105.862 14.1894 106.325 14.8903 106.995 15.7902C107.666 16.6995 108.063 17.1447 108.176 17.1447C108.289 17.1447 108.346 17.0026 108.507 16.7185C108.667 16.4343 108.837 16.0933 109.017 15.7144C109.196 15.3355 109.319 15.0987 109.385 15.004C109.668 14.5493 110.037 13.64 110.5 12.2949C110.613 11.9539 110.679 11.3666 110.717 10.5141C110.745 9.66158 110.726 9.10271 110.67 8.81855C110.632 8.51542 110.594 8.30703 110.556 8.21231C110.519 8.12705 110.415 8.02286 110.245 7.92814C110.018 7.77658 109.829 7.7008 109.725 7.7008C109.621 7.7008 109.423 7.63451 109.243 7.50188C109.064 7.36928 108.96 7.25561 108.96 7.16087C108.96 7.00932 109.243 6.81988 109.81 6.59254C110.5 6.38415 111.256 6.34627 112.068 6.48834C112.88 6.63042 113.437 6.83881 113.759 7.10406C113.815 7.14194 114.099 7.27454 114.609 7.50188C115.005 7.69134 115.28 7.83342 115.412 7.91866C115.544 8.00393 115.752 8.16496 116.035 8.4207C116.243 8.57226 116.413 8.78065 116.555 9.00799C116.687 9.24481 116.734 9.37741 116.678 9.42477C116.621 9.46267 116.63 9.55739 116.715 9.70894C116.8 9.85102 116.838 10.4004 116.829 11.3666C116.819 12.3423 116.772 13.0053 116.687 13.3937C116.375 14.7293 116.186 15.4397 116.13 15.5344C116.073 15.6102 115.884 15.9702 115.572 16.6238C115.26 17.2773 115.062 17.6562 114.977 17.7604C114.892 17.8552 114.769 18.0067 114.637 18.2056C114.486 18.4046 114.354 18.5656 114.222 18.6982C114.089 18.8403 113.938 18.954 113.768 19.0676C113.655 19.1623 113.522 19.3139 113.381 19.4939C113.145 19.7496 112.946 19.8823 112.739 19.9201C112.739 19.8065 112.682 19.7875 112.569 19.8633C112.512 19.9012 112.474 19.958 112.446 20.0338C112.389 20.1759 112.276 20.2232 112.115 20.2043C111.954 20.1854 111.869 20.2327 111.832 20.318C111.766 20.4411 111.718 20.4979 111.662 20.4979C111.605 20.4979 111.567 20.5358 111.539 20.6116C111.501 20.6874 111.482 20.7442 111.463 20.7821C111.454 20.82 111.378 20.8105 111.265 20.7537C111.18 20.7158 111.123 20.7063 111.085 20.7253C111.038 20.7537 110.991 20.82 110.925 20.9621C110.811 21.1515 110.66 21.2463 110.453 21.2463C110.245 21.2463 110.273 21.2747 110.141 21.3221C110.008 21.3694 109.914 21.4262 109.829 21.4925C109.744 21.5683 109.716 21.6062 109.782 21.6252C109.13 21.9472 108.771 22.1082 108.715 22.1082C108.658 22.1082 108.62 22.1082 108.601 22.1367C108.592 22.1651 108.563 22.1746 108.525 22.203C108.497 22.2598 108.469 22.2598 108.403 22.203C108.318 22.1272 108.27 22.1272 108.27 22.203C108.27 22.2788 108.233 22.2882 108.176 22.203C108.1 22.1177 108.063 22.1177 108.063 22.2314C108.025 22.3829 107.751 22.4777 107.203 22.5155C106.655 22.5535 106.259 22.5155 106.004 22.3735C105.805 22.2598 105.663 22.1177 105.578 21.9472C105.493 21.7767 105.493 21.6346 105.578 21.5304C105.663 21.4262 105.711 21.3315 105.711 21.2368C105.711 21.1421 105.72 21.1705 105.739 21.1515C105.748 21.1326 105.767 21.1326 105.796 21.1515C105.824 21.18 105.852 21.1515 105.918 21.0947C105.975 21.0379 106.032 20.9716 106.089 20.8958C106.145 20.82 106.174 20.7537 106.174 20.6969C106.174 20.64 105.843 20.3843 105.182 19.9012C104.511 19.4276 104.171 19.1339 104.171 19.0297C104.171 18.9255 104.114 18.8403 103.973 18.7835C103.84 18.7266 103.548 18.4424 103.085 17.9309C101.772 16.4627 101.035 15.7334 100.865 15.7334C100.695 15.7334 100.78 15.7997 100.78 15.9323C100.78 16.0649 100.752 16.1028 100.695 16.1028C100.61 16.1028 100.487 16.5006 100.355 17.2963C100.317 17.4857 100.27 17.6562 100.185 17.8173C100.1 17.9783 100.024 18.1772 99.9674 18.4046C99.8824 18.7835 99.8069 19.0392 99.7502 19.1813C99.7502 19.2192 99.7502 19.2665 99.7407 19.3329C99.7314 19.3992 99.7031 19.4465 99.6935 19.4749C99.684 19.5034 99.6557 19.5223 99.6369 19.5223C99.5519 19.5223 99.5047 19.5697 99.5047 19.6644L99.4573 19.6265ZM132.008 23.8416C131.971 23.8416 131.81 23.9081 131.536 24.0407C131.253 24.1733 131.101 24.2395 131.064 24.2395C130.979 24.2395 130.809 24.2774 130.554 24.3531C129.902 24.59 129.42 24.5995 129.137 24.3817C129.052 24.3438 128.853 24.3059 128.532 24.2869C128.202 24.2586 128.013 24.2017 127.947 24.1259C127.833 24.0121 127.767 23.9459 127.748 23.9364C127.739 23.9364 127.635 23.9647 127.465 24.0407C127.257 24.1164 127.134 24.1259 127.077 24.069C127.049 24.05 126.992 24.05 126.907 24.069C126.822 24.069 126.766 24.069 126.737 24.0217C126.681 23.9647 126.567 23.9364 126.397 23.9364C126.227 23.9364 126.114 23.9081 125.916 23.8512C125.698 23.7943 125.585 23.7564 125.585 23.709C125.613 23.6524 125.594 23.6333 125.538 23.6524C125.538 23.6524 125.509 23.6712 125.453 23.6902C125.396 23.7185 125.358 23.7847 125.321 23.8795C125.264 23.9555 125.217 23.9269 125.151 23.7943C125.066 23.6428 124.971 23.5954 124.839 23.6333C124.706 23.6807 124.593 23.6807 124.508 23.6333C124.451 23.5764 124.376 23.5954 124.281 23.6995C124.187 23.8038 124.111 23.8038 124.055 23.6995C124.017 23.6238 123.941 23.605 123.838 23.6238C123.734 23.6524 123.611 23.6524 123.498 23.605C123.413 23.5481 123.337 23.529 123.308 23.529C123.271 23.529 123.195 23.5007 123.11 23.4345C123.025 23.3397 122.94 23.3207 122.855 23.3871C122.77 23.4628 122.657 23.4628 122.553 23.4059C122.44 23.349 122.345 23.3585 122.26 23.425C122.175 23.4912 122.128 23.4912 122.128 23.425C122.128 23.3585 121.958 23.3397 121.618 23.3397C121.278 23.3397 121.032 23.2828 120.588 23.1691C120.125 23.0555 119.899 22.9702 119.899 22.9134C119.899 22.8566 119.842 22.8566 119.729 22.8566C119.615 22.8566 119.483 22.7808 119.332 22.6292C119.171 22.4777 119.086 22.3451 119.086 22.2314C119.086 21.9756 119.162 21.8051 119.304 21.6915C119.36 21.6346 119.398 21.6441 119.436 21.7199C119.492 21.8146 119.549 21.862 119.606 21.862C119.738 21.8335 119.889 21.843 120.031 21.8904C120.182 21.9283 120.248 21.9756 120.248 22.0135C120.248 22.0514 120.324 22.0704 120.475 22.0704C120.626 22.0704 120.72 22.0988 120.758 22.1556C120.843 22.2314 121.108 22.2788 121.561 22.2882C121.995 22.2882 122.373 22.2693 122.685 22.2124C123.063 22.1367 123.45 22.1082 123.875 22.1367C124.225 22.1367 124.65 22.0798 125.151 21.9756C125.651 21.8714 126.029 21.7578 126.284 21.6157C126.426 21.5399 126.681 21.4262 127.059 21.2747C127.512 21.1042 127.994 20.839 128.495 20.4885C128.995 20.138 129.392 19.797 129.713 19.4465C129.968 19.1245 130.233 18.594 130.516 17.8741C130.78 17.1542 130.931 16.5006 130.969 15.9039C130.998 15.847 131.045 15.4965 131.111 14.8619C131.186 14.2273 131.243 13.6305 131.309 13.0716C131.366 12.5222 131.385 12.1623 131.347 11.9918C131.234 11.234 131.139 10.8551 131.054 10.8551C130.969 10.8551 130.743 10.9119 130.28 11.0256C129.968 11.0824 129.401 11.1866 128.617 11.3287C127.814 11.4708 127.257 11.575 126.945 11.6318C125.661 11.935 124.546 12.0392 123.611 11.9255C123.044 11.8497 122.723 11.8023 122.666 11.7834C122.61 11.7644 122.44 11.736 122.156 11.6981C121.608 11.6223 121.013 11.3856 120.361 10.9877C120.012 10.7793 119.719 10.4951 119.474 10.1257C119.228 9.76578 119.105 9.43424 119.105 9.15006C119.105 8.86591 119.171 8.75224 119.284 8.67645C119.398 8.61014 119.606 8.61962 119.88 8.6954C119.965 8.6954 120.125 8.71433 120.361 8.73329C120.607 8.76172 120.824 8.7996 121.004 8.81855C121.183 8.84696 121.306 8.87539 121.372 8.91327C121.457 8.97011 121.589 8.99851 121.759 8.98903C121.93 8.98903 122.015 8.95115 122.015 8.90379C122.015 8.85643 122.128 8.83748 122.355 8.83748C122.581 8.83748 123.176 8.74276 124.3 8.54385C125.406 8.35439 126.001 8.25967 126.086 8.25967C126.265 8.24072 126.52 8.20284 126.851 8.12705C127.182 8.06076 127.417 8.03233 127.588 8.03233C127.843 8.00393 128.003 7.98497 128.06 7.94709C128.192 7.89025 128.589 7.81447 129.26 7.71975C129.911 7.62503 130.629 7.52084 131.423 7.41664C132.207 7.31245 132.717 7.24614 132.972 7.20825C133.01 7.17982 133.151 7.16087 133.406 7.12299C133.661 7.09458 133.888 7.06615 134.115 7.03775C134.323 7.00932 134.427 6.98091 134.427 6.94303C134.427 6.90512 134.483 6.88619 134.606 6.88619C134.729 6.88619 134.87 6.83881 135.069 6.74409C135.466 6.57359 136.231 6.52623 137.336 6.60202C138.479 6.68726 139.282 6.83881 139.735 7.01879L140.16 7.19878C139.764 7.44505 139.518 7.55872 139.433 7.55872C139.348 7.55872 139.14 7.64396 138.819 7.81447C138.498 7.98497 138.214 8.15548 137.978 8.31651C137.751 8.47754 137.563 8.57226 137.421 8.61962C137.223 8.65752 137.223 8.71436 137.411 8.79012C137.591 8.86591 137.563 8.91327 137.308 8.9322C137.194 8.95115 137.071 8.95115 136.939 8.9322C136.807 8.9322 136.731 8.95115 136.693 9.00799C136.608 9.04587 136.523 9.0743 136.429 9.08378C136.325 9.08378 136.25 9.15006 136.183 9.23533C136.127 9.33005 136.032 9.37741 135.9 9.37741C135.768 9.37741 135.683 9.40584 135.617 9.46267C135.56 9.54791 135.503 9.55739 135.447 9.49108C135.362 9.37741 135.248 9.39636 135.145 9.54791C135.116 9.60475 135.107 9.65211 135.107 9.68999C135.069 9.82261 135.097 9.99312 135.163 10.1731C135.239 10.3625 135.305 10.4762 135.4 10.5141C135.522 10.5899 135.579 10.6656 135.579 10.7604C135.579 10.8551 135.617 10.9025 135.702 10.9498C136.023 11.1961 136.155 12.4275 136.117 14.644C136.07 16.8606 135.872 18.6129 135.532 19.9107C135.428 20.3464 135.315 20.7158 135.23 21.0284C135.116 21.3883 134.776 21.843 134.238 22.3924C133.68 22.9418 133.104 23.3585 132.537 23.6428C132.254 23.7847 132.084 23.8416 132.027 23.8416H132.008ZM148.615 22.9324C148.615 22.9892 148.539 23.065 148.378 23.1597C148.218 23.2545 148.152 23.349 148.152 23.4154C148.152 23.4816 148.095 23.5764 147.953 23.6807C147.821 23.7847 147.745 23.8607 147.708 23.8986C147.708 23.9174 147.623 23.9933 147.453 24.1448C147.282 24.2774 147.122 24.4195 146.99 24.5617C146.848 24.7036 146.782 24.77 146.81 24.7888C146.848 24.8269 146.81 24.8457 146.725 24.8457C146.64 24.8457 146.631 25.0067 146.499 25.3288C146.366 25.651 146.291 25.812 146.253 25.812C146.026 25.9067 145.582 25.7077 144.931 25.2153C144.128 24.6091 143.74 23.9555 143.778 23.245C143.835 22.0419 143.939 21.2179 144.071 20.7632C144.298 20.1191 144.335 19.7591 144.165 19.7023C143.873 19.5697 144.071 19.3707 144.761 19.1055C145.393 18.8782 145.894 18.7361 146.244 18.6793C146.593 18.6224 146.971 18.6414 147.377 18.7077C148.114 18.8403 148.595 19.0866 148.794 19.456C148.907 19.7023 149.021 19.8822 149.134 20.0243C149.332 20.2517 149.389 20.6495 149.332 21.2084C149.257 21.7767 149.087 22.2219 148.832 22.544C148.69 22.7334 148.615 22.866 148.615 22.9418V22.9324ZM143.003 10.6941C143.003 10.6562 143.088 10.552 143.249 10.4004C143.41 10.2489 143.485 10.1447 143.485 10.0878C143.485 10.031 143.57 9.92681 143.74 9.76578C143.91 9.60475 144.052 9.43424 144.175 9.26374C144.26 9.11218 144.26 9.01746 144.175 8.96063C144.09 8.91327 143.825 8.87536 143.4 8.82801C142.975 8.79012 142.758 8.75224 142.758 8.71436C142.758 8.67645 142.73 8.68593 142.701 8.67645C142.663 8.67645 142.588 8.67645 142.493 8.67645C142.38 8.70488 142.267 8.72381 142.106 8.75224C141.945 8.78065 141.728 8.81855 141.473 8.85643C140.925 8.94168 140.425 8.89432 139.952 8.6954C139.48 8.49649 139.244 8.27863 139.244 8.02285C139.244 7.76711 139.509 7.71027 140.037 7.56819C140.557 7.42612 141.152 7.36928 141.823 7.36928C142.493 7.36928 142.323 7.33138 142.72 7.23666C143.117 7.15142 143.533 7.06615 143.958 6.97143C144.383 6.87672 144.666 6.81988 144.77 6.80093C144.912 6.76305 145.204 6.68726 145.629 6.58306C146.055 6.47887 146.385 6.41256 146.612 6.37467C147.037 6.29891 147.33 6.24207 147.462 6.20417C147.575 6.16628 148.114 6.06209 149.077 5.90106C150.041 5.74003 150.749 5.62636 151.241 5.56952C151.637 5.53164 152.176 5.45585 152.865 5.34218C154.14 5.15275 155.198 5.14327 156.03 5.31378C156.285 5.38954 156.511 5.48428 156.738 5.59795C156.946 5.72108 157.04 5.79687 157.021 5.8537C156.965 5.91054 156.766 5.9579 156.417 5.99578C156.077 6.01473 155.69 6.08104 155.255 6.20417C154.802 6.32731 154.584 6.42203 154.584 6.48834C154.584 6.55466 154.49 6.63042 154.282 6.68726C154.074 6.72516 153.385 6.99039 152.185 7.48293C152.534 7.65344 152.705 7.75763 152.705 7.79554C152.724 7.83342 152.865 7.9755 153.092 8.21231C153.319 8.44911 153.432 8.60069 153.432 8.65752C153.432 8.7996 153.507 8.87539 153.64 8.91327C153.725 8.95115 153.782 9.13114 153.8 9.46267C153.81 9.79418 153.829 10.7035 153.857 12.1907C153.857 14.303 153.885 15.506 153.942 15.7902C154.112 16.9269 154.244 17.5899 154.329 17.7604C154.414 17.912 154.547 18.3667 154.726 19.1245C154.905 19.8728 154.934 20.2801 154.783 20.3369C154.669 20.3748 154.688 20.4411 154.83 20.5358C154.943 20.6211 154.962 20.7348 154.877 20.839C154.792 20.9621 154.679 21.0379 154.575 21.0947C154.537 21.1231 154.49 21.2841 154.405 21.5968C154.32 21.9093 154.244 22.0704 154.207 22.0893C154.169 22.1177 154.169 22.1651 154.235 22.2314C154.292 22.3072 154.292 22.3545 154.235 22.3735C154.15 22.4114 154.103 22.5155 154.103 22.6766C154.103 22.8376 154.055 22.9608 153.97 22.9986C153.885 23.0365 153.592 22.885 153.092 22.5535C152.591 22.2219 152.1 21.8241 151.609 21.3599C151.127 20.9053 150.881 20.5643 150.881 20.3369C150.853 20.1664 150.834 20.0433 150.806 19.9675C150.768 19.8917 150.721 19.8065 150.636 19.7118C150.551 19.6265 150.475 19.5128 150.419 19.4086C150.362 19.2665 150.258 19.1339 150.116 18.9824C149.975 18.8308 149.871 18.6793 149.814 18.5277C149.786 18.3856 149.72 18.2435 149.587 18.0825C149.455 17.9215 149.37 17.751 149.304 17.5805C149.247 17.3152 149.162 17.1258 149.049 17.0121C148.728 16.6143 148.407 15.2882 148.067 13.0432C148.029 12.6833 147.972 12.5128 147.887 12.5601C147.802 12.598 147.585 12.9106 147.207 13.4979C146.829 14.0852 146.574 14.4451 146.442 14.5588C146.319 14.6725 146.262 14.7672 146.262 14.8429C146.262 14.9187 145.998 15.326 145.469 16.0554C144.949 16.7943 144.543 17.3531 144.288 17.732C143.91 18.3382 143.514 18.8498 143.088 19.2476C142.862 19.456 142.692 19.6928 142.578 19.9391C142.465 20.1948 142.38 20.3274 142.323 20.3274C142.267 20.3274 142.238 20.4127 142.238 20.5927C142.238 20.7726 142.182 20.8863 142.068 20.9242C141.983 20.9621 141.898 21.1515 141.823 21.4831C141.747 21.8146 141.69 22.0041 141.624 22.0419C141.511 22.0988 141.454 22.1556 141.454 22.2219C141.454 22.2882 141.398 22.3451 141.284 22.364C141.171 22.3924 141.114 22.4966 141.114 22.6955C141.114 22.8944 141.039 22.9608 140.907 23.0365C140.765 23.1123 140.68 23.1786 140.642 23.2354C140.529 23.3681 140.359 23.4345 140.16 23.4345C139.962 23.4345 139.688 23.3585 139.386 23.226C139.084 23.0839 138.8 22.9039 138.545 22.6671C137.978 22.1556 137.695 21.5115 137.695 20.7253C137.695 19.9391 137.742 19.9391 137.827 19.7307C137.912 19.5223 137.95 19.3613 137.95 19.2476C137.95 19.1339 138.026 18.9634 138.167 18.7266C138.281 18.5751 138.422 18.2814 138.583 17.8552C138.743 17.4289 138.885 17.1163 139.017 16.9363C139.244 16.6332 139.357 16.4343 139.357 16.3396C139.357 16.1312 139.679 15.6386 140.302 14.8619C140.387 14.7672 140.434 14.663 140.434 14.5682C140.434 14.4735 140.529 14.3693 140.717 14.1325C140.897 13.8957 140.982 13.7536 140.982 13.7157C140.982 13.6779 141.114 13.4789 141.398 13.0621C141.681 12.6454 141.813 12.4275 141.813 12.4086C141.813 12.3896 142.012 12.1054 142.408 11.5466C142.805 10.9972 143.003 10.713 143.003 10.6941Z" fill="white"></path>
<path d="M55.2686 39.4903V28.5592H63.5999C65.3287 28.5592 66.5943 28.8432 67.3877 29.4306C68.1719 30.0083 68.5781 30.6809 68.5781 31.4293C68.5781 32.1776 68.3514 32.4617 67.8885 32.9069C67.4256 33.3522 66.736 33.6553 65.8197 33.8163C67.9452 34.1572 69.0127 35.0096 69.0127 36.3642C69.0127 37.7188 68.6348 37.9083 67.8885 38.5429C67.1422 39.1777 65.5363 39.4996 63.0899 39.4996H55.2686V39.4903ZM59.916 32.7457H62.2493C62.8348 32.7457 63.2504 32.6512 63.4961 32.4522C63.7323 32.2533 63.855 32.045 63.855 31.8176C63.855 31.2114 63.2978 30.8988 62.1736 30.8988H59.9255V32.7457H59.916ZM59.916 37.0557H62.3627C62.967 37.0557 63.4204 36.9516 63.7133 36.7526C63.9966 36.5537 64.1383 36.3264 64.1383 36.0802C64.1383 35.834 63.9966 35.597 63.7228 35.3887C63.4394 35.1804 62.9387 35.0761 62.1926 35.0761H59.9067V37.0652L59.916 37.0557ZM85.7037 39.4903H80.1117L77.7217 35.3035H76.1349V39.4903H71.0907V28.5496H79.6581C81.5473 28.5496 83.0211 28.8432 84.0695 29.4306C85.1084 30.0178 85.6375 30.7945 85.6375 31.7702C85.6375 32.7457 85.4487 32.9543 85.0613 33.4374C84.6741 33.9205 83.8995 34.3468 82.7187 34.7161L85.6942 39.4808L85.7037 39.4903ZM76.1349 32.9636H78.2884C78.9213 32.9636 79.4314 32.8784 79.8188 32.6986C80.206 32.5186 80.3951 32.2629 80.3951 31.9217C80.3951 31.2209 79.7431 30.8704 78.4584 30.8704H76.1444V32.9636H76.1349ZM93.1281 28.5496V39.4808H88.084V28.5496H93.1281ZM110.018 39.4903H105.918L101.422 34.6594C100.846 34.0437 100.26 33.2858 99.6743 32.4048C99.9389 33.1058 100.071 33.7027 100.071 34.1951V39.4903H95.9808V28.5496H100.742L104.567 32.5565C105.333 33.3522 105.909 34.0529 106.296 34.6594C106.041 33.7215 105.909 32.7743 105.909 31.789V28.5496H110.008V39.4808L110.018 39.4903ZM112.88 39.4903V28.5496H119.228C121.986 28.5496 124.055 29.0897 125.424 30.1787C126.794 31.2681 127.474 32.5279 127.474 33.9584C127.474 35.3887 126.737 36.9233 125.263 37.9462C123.79 38.9691 121.882 39.4808 119.53 39.4808H112.87L112.88 39.4903ZM117.915 36.9704H119.218C120.059 36.9704 120.758 36.6959 121.334 36.1654C121.91 35.6254 122.194 34.8865 122.194 33.9584C122.194 33.03 121.939 32.4807 121.429 31.9029C120.919 31.325 120.182 31.0409 119.218 31.0409H117.915V36.98V36.9704ZM141.955 36.8759V39.4903H129.609V28.5496H141.955V31.0693H134.549V32.6512H140.538V35.0761H134.549V36.8664H141.955V36.8759ZM142.247 36.3264L146.923 35.7675C147.32 36.6485 148.321 37.0842 149.955 37.0842C151.59 37.0842 151.854 36.8569 151.854 36.4116C151.854 35.9663 151.703 35.9949 151.42 35.8623C151.127 35.7297 150.607 35.6161 149.852 35.5213C146.971 35.1518 145.129 34.6687 144.307 34.072C143.494 33.4848 143.079 32.7838 143.079 31.9881C143.079 31.1924 143.665 30.103 144.845 29.4116C146.016 28.7296 147.707 28.3887 149.908 28.3887C153.252 28.3887 155.462 29.2789 156.53 31.0693L152.364 31.9029C151.93 31.1735 151.051 30.804 149.729 30.804C148.406 30.804 148.085 31.0314 148.085 31.4859C148.085 31.9407 148.208 31.846 148.454 31.9598C148.699 32.0733 149.181 32.1869 149.899 32.2817C151.864 32.5564 153.252 32.8122 154.083 33.0205C154.905 33.2384 155.595 33.5984 156.152 34.1098C156.7 34.6308 156.974 35.2275 156.974 35.938C156.974 37.0369 156.303 37.9367 154.952 38.6188C153.602 39.3103 151.835 39.6512 149.644 39.6512C145.648 39.6512 143.183 38.5429 142.238 36.3168L142.247 36.3264Z" fill="white"></path>
</g>
</g>
<defs>
<clipPath id="clip0_9589_586">
<rect width="157.012" height="45.5241" fill="white"></rect>
</clipPath>
</defs>
</svg>