<svg width="168" height="55" viewBox="0 0 168 55" fill="none" xmlns="http://www.w3.org/2000/svg">
<g clip-path="url(#clip0_9589_574)">
<path d="M14.5491 8.15638L7.40008 15.3045C5.10762 17.5967 5.10762 21.3128 7.40008 23.6049L14.5491 30.7531C16.8004 33.0041 16.8004 36.6543 14.5491 38.9095L3.46956 27.8313C-1.15652 23.2058 -1.15652 15.7078 3.46956 11.0823L14.5491 0C16.8004 2.25103 16.8004 5.90123 14.5491 8.15638Z" fill="white"></path>
<path d="M14.6357 46.5844L21.7848 39.4362C24.0772 37.1441 24.0772 33.428 21.7848 31.1358L14.6357 23.9877C12.3844 21.7366 12.3844 18.0864 14.6357 15.8313L25.7153 26.9095C30.3414 31.535 30.3414 39.0329 25.7153 43.6585L14.6357 54.7366C12.3844 52.4856 12.3844 48.8354 14.6357 46.5803V46.5844Z" fill="white"></path>
<path d="M102.852 20.5269C96.1269 20.5392 91.756 25.1318 91.7148 32.2347V41.7244C91.7148 42.6668 92.1552 43.7943 94.2584 43.7943C96.3615 43.7943 96.699 42.6668 96.699 41.7244V32.2347C96.699 27.5063 99.0491 24.568 102.823 24.568H102.881C106.663 24.568 109.013 27.5063 109.013 32.2347V41.7244C109.013 42.6668 109.437 43.7943 111.454 43.7943C113.471 43.7943 113.997 42.6668 113.997 41.7244V32.2347C113.956 25.1359 109.585 20.5392 102.86 20.531" fill="white"></path>
<path d="M166.012 20.5269H165.905C159.18 20.5392 154.809 25.1318 154.768 32.2347V41.7244C154.768 42.6668 155.208 43.7943 157.312 43.7943C159.415 43.7943 159.752 42.6668 159.752 41.7244V32.2347C159.752 27.5063 162.102 24.568 165.876 24.568H165.95C166.477 24.5721 167.025 24.3581 167.416 23.9672C167.794 23.5886 168.004 23.0865 168.004 22.5515C168.004 21.4446 167.111 20.5392 166.012 20.5269Z" fill="white"></path>
<path d="M54.2248 24.3868C50.7182 22.893 47.689 21.6049 47.689 18.7901C47.689 16.2058 49.9609 14.535 53.4799 14.535C55.3772 14.535 57.0276 15.0247 58.995 16.1687C59.2049 16.2881 59.386 16.3992 59.5506 16.498C60.1762 16.8766 60.5507 17.1029 60.9911 17.1029C62.1929 17.1029 63.1601 15.7531 63.1601 14.6379C63.1601 13.6584 62.2793 12.9465 61.3245 12.3251C59.1966 10.9383 56.3362 10.144 53.4758 10.144C47.0923 10.144 42.8037 13.7161 42.8037 19.0329C42.8037 24.6379 47.6561 26.7161 51.9365 28.5473C55.6818 30.1523 58.9168 31.535 58.9168 34.7984C58.9168 37.7572 56.3321 39.7449 52.4839 39.7449C50.3848 39.7449 48.5575 39.1235 46.5449 37.7243L46.0963 37.4198C45.3472 36.9095 44.9356 36.6296 44.3306 36.6296C43.1617 36.6296 42.1616 37.9589 42.1616 39.0453C42.1616 39.8642 42.709 40.6214 43.9314 41.4938C46.302 43.2181 49.2407 44.1276 52.4345 44.1276C59.2296 44.1276 63.798 40.2757 63.798 34.5432C63.798 28.4527 58.711 26.284 54.2207 24.3745" fill="white"></path>
<path d="M73.0298 33.8108H84.0805C85.8626 33.8108 87.6818 33.424 87.6818 30.5557C87.6818 24.6503 83.7019 20.5269 78.0016 20.5269C71.758 20.5269 67.7246 25.1606 67.7246 32.3334C67.7246 39.5063 71.9062 43.9425 78.6436 43.9425C81.3929 43.9425 83.7513 43.2923 85.6486 42.0083C86.7475 41.2923 87.2373 40.6133 87.2373 39.7943C87.2373 38.7532 86.4265 37.6256 85.1177 37.6256C84.5415 37.6256 84.0229 37.9713 83.3026 38.4528L83.1998 38.5227C82.0268 39.3046 80.5616 39.6997 78.8412 39.6997C75.3264 39.6997 73.2356 37.8766 72.6223 34.2841C72.6017 34.1647 72.6347 34.0454 72.7129 33.9548C72.7911 33.8602 72.9063 33.8067 73.0298 33.8067M72.6758 29.5515C73.2562 26.3046 75.1123 24.5186 77.9028 24.5186C80.6933 24.5186 82.6565 26.4075 82.9199 29.5762C82.9281 29.6915 82.8911 29.7985 82.8129 29.8849C82.7347 29.9672 82.6318 30.0166 82.5165 30.0166H73.0627C72.9475 30.0166 72.8363 29.9672 72.7623 29.8766C72.6882 29.7861 72.6553 29.6709 72.6758 29.5557" fill="white"></path>
<path d="M121.369 10.8396C119.595 10.8396 118.311 12.1071 118.311 13.8478C118.311 15.5886 119.595 16.9054 121.369 16.9054C123.143 16.9054 124.427 15.6174 124.427 13.8478C124.427 12.0783 123.143 10.8396 121.369 10.8396Z" fill="white"></path>
<path d="M121.319 20.7737C119.364 20.7737 118.953 21.9013 118.953 22.8436V41.7243C118.953 42.6667 119.381 43.7943 121.418 43.7943C123.455 43.7943 123.785 42.6667 123.785 41.7243V22.8436C123.785 21.9013 123.357 20.7737 121.319 20.7737Z" fill="white"></path>
<path d="M139.326 20.5269C132.543 20.5269 128.16 25.1606 128.16 32.3334C128.16 39.5063 132.502 44.0413 139.227 44.0413C145.952 44.0413 150.442 39.4075 150.442 32.2347C150.442 25.0618 146.08 20.5269 139.326 20.5269ZM139.326 39.9507C135.568 39.9507 133.14 36.9219 133.14 32.2347C133.14 27.5474 135.49 24.568 139.272 24.568C143.055 24.568 145.409 27.5433 145.409 32.3334C145.409 37.1236 143.075 39.9507 139.322 39.9507" fill="white"></path>
</g>
<defs>
<clipPath id="clip0_9589_574">
<rect width="168" height="55" fill="white"></rect>
</clipPath>
</defs>
</svg>