<svg width="190" height="48" viewBox="0 0 190 48" fill="none" xmlns="http://www.w3.org/2000/svg">
<g clip-path="url(#clip0_9589_911)">
<path d="M41.7572 41.0589C41.4889 40.4685 41.3279 39.8781 41.2205 39.2877C41.1132 38.6973 41.0595 38.2142 41.0595 37.9995C41.0595 37.6238 41.0595 37.3555 41.0595 37.0871C41.0595 36.8187 41.0595 36.5504 41.0595 36.3357C40.2007 36.5504 39.342 36.6577 38.4832 36.7114C38.4832 36.7114 38.4296 36.7114 38.3759 36.7114C38.3222 36.7114 38.2685 36.7114 38.2149 36.7114C38.1075 36.7114 38.0002 36.7114 37.8928 36.7114C37.7855 36.7114 37.7318 36.7114 37.6245 36.7114C37.6245 36.7114 37.6245 36.7114 37.5708 36.7114C37.4635 36.7114 37.4098 36.7114 37.3024 36.7114C37.1951 36.7114 37.0878 36.7114 36.9804 36.7114C36.7657 36.7114 36.551 36.7114 36.3363 36.7114C36.2827 36.7114 36.1753 36.7114 36.1217 36.7114C35.5313 36.7114 34.8872 36.6041 34.2968 36.5504V36.9798H34.2431C34.1358 37.5702 34.0821 38.3216 33.9211 39.234C33.5991 41.2199 33.0087 43.2058 32.1499 45.138C35.6386 44.6012 39.0736 43.2057 41.8646 41.1662V41.0589H41.7572Z" fill="white"></path>
<path d="M33.2229 36.7652V36.4432C31.8811 36.1748 30.5393 35.7454 29.3048 35.155C29.1438 35.6918 28.8754 36.2821 28.4461 36.9799C27.5336 38.4827 26.9432 38.6974 26.0845 40.2002C25.1721 41.8641 24.85 43.5279 24.7427 44.7624C24.85 44.7624 25.011 44.816 25.1184 44.8697C25.3867 44.9234 25.6551 44.9771 25.9235 45.0307C26.1918 45.0307 26.4602 45.1381 26.7286 45.1918C26.7286 45.1918 26.8359 45.1918 26.8896 45.1918C26.9969 45.1918 27.0506 45.1918 27.1579 45.1918C27.3189 45.1918 27.4263 45.1918 27.5873 45.1918C27.641 45.1918 27.7483 45.1918 27.802 45.1918C27.8557 45.1918 27.963 45.1918 28.0167 45.1918C28.3924 45.1918 28.7681 45.1918 29.1975 45.1918C29.7879 45.1918 30.3246 45.1918 30.915 45.1381C30.915 45.0307 31.0223 44.9771 31.0223 44.8697V44.7087C31.9348 42.8838 32.5252 40.898 32.8472 38.9658C33.0082 37.9997 33.1156 37.1946 33.1692 36.6042L33.2229 36.7652Z" fill="white"></path>
<path d="M42.8305 37.0339C42.7231 36.6045 42.6695 36.2825 42.6158 35.9604C42.4011 36.0141 42.2401 36.0678 42.0254 36.1215C42.0254 36.1215 42.0254 36.1215 42.0254 36.1751C42.0254 36.5508 42.0254 36.8192 42.0254 37.1412C42.0254 37.4096 42.0254 37.6243 42.0254 37.9463C42.0254 38.1073 42.0254 38.5367 42.1864 39.0734C42.2937 39.6102 42.4548 40.0932 42.6695 40.6299C43.1525 40.2542 43.6356 39.8249 44.1186 39.3955C43.8502 39.0734 43.5282 38.5904 43.2599 37.9463C43.2599 37.8927 43.0452 37.4633 42.8841 36.9802L42.8305 37.0339Z" fill="white"></path>
<path d="M26.5677 37.9461C26.8898 37.5704 27.2118 37.1947 27.6412 36.497C28.0169 35.7993 28.2852 35.2625 28.4463 34.7258C24.2061 32.5789 20.8248 28.8218 19.1609 24.1524C19.1073 23.9913 19.1609 23.7767 19.2683 23.6693C19.3756 23.562 19.5367 23.4546 19.7513 23.5083C19.966 23.5083 20.127 23.562 20.3417 23.6156C20.4491 23.6156 20.5564 23.6156 20.6638 23.6693C20.4491 23.3473 20.1807 23.0252 19.966 22.7032C19.8587 22.4885 19.8587 22.3275 19.9124 22.1665C19.966 22.0055 20.127 21.8981 20.2881 21.8444C20.8785 21.7371 21.4689 21.6834 22.0593 21.6834C22.3813 18.9461 23.6694 16.4772 25.548 14.4913C25.6553 14.384 25.709 14.3303 25.8163 14.223C25.4943 13.5789 25.1722 12.9348 24.6892 12.2908C24.0988 11.432 23.3474 10.5733 22.435 9.82185C22.0056 9.44614 20.3417 8.21168 18.2485 7.51394C16.9604 7.08456 15.6186 6.86987 14.3304 6.86987C9.1779 6.86987 4.34739 10.0902 2.46886 15.1354V15.3501H2.36151C2.36151 15.3501 2.36151 15.4038 2.36151 15.4574C2.36151 15.4574 2.36151 15.5648 2.36151 15.6185C2.36151 15.6185 2.36151 15.7258 2.36151 15.7795C2.25417 16.1552 2.2005 16.5309 2.14682 16.9603C1.82479 20.449 4.34739 23.562 7.88976 23.9377C8.10445 23.9377 8.31914 23.9377 8.53383 23.9377C8.96321 23.9377 9.39259 23.9377 9.76829 23.8303C9.82196 23.8303 9.87564 23.8303 9.92931 23.8303C10.3587 23.723 10.7881 23.562 11.1638 23.2936C11.1638 23.1863 11.1638 23.0252 11.2711 22.9179C11.6468 22.3812 11.9152 21.8444 12.0225 21.2541C12.3982 19.4829 11.5395 17.658 10.627 17.0676C10.2513 16.8529 9.39259 16.4235 8.64117 16.7993C8.31914 16.9603 7.83609 17.3896 7.83609 18.0337C7.83609 18.4094 8.05078 18.7315 8.26547 18.8925C8.53383 19.1072 8.53383 19.5365 8.26547 19.8049C8.05078 20.0733 7.6214 20.0733 7.35304 19.8049C6.86999 19.3219 6.54795 18.7315 6.54795 18.0874C6.54795 16.9066 7.29937 16.0478 8.05078 15.6721C9.33891 14.9744 10.7344 15.6721 11.2174 15.9405C11.2174 15.9405 11.2711 15.9405 11.3248 15.9942C12.6666 16.8529 13.7937 19.1608 13.3107 21.5224C13.1496 22.2738 12.8276 23.0252 12.3446 23.6693C12.2909 23.7767 12.1835 23.8303 12.1299 23.884C11.8615 25.4405 11.8615 26.7823 11.8615 26.7823C11.8615 27.5874 11.8615 29.6269 12.5593 32.0959C14.3304 38.3755 18.9999 41.8105 19.7513 42.3473C20.127 42.6156 21.7909 43.7964 23.9378 44.6015C24.0988 42.884 24.6355 41.3275 25.3869 39.8783C25.87 39.0196 26.2994 38.5365 26.6751 38.0535L26.5677 37.9461Z" fill="white"></path>
<path d="M43.582 35.5844C43.582 35.9065 43.6357 36.2822 43.7967 36.7115C43.7967 36.8726 43.9577 37.1946 44.1188 37.5166C44.3334 37.946 44.5481 38.3217 44.8165 38.6974C46.856 36.5505 48.3052 34.0816 48.5736 32.7935C48.2515 33.0081 47.9832 33.2765 47.6611 33.4912C46.373 34.35 45.0312 35.0477 43.6357 35.5844H43.582Z" fill="white"></path>
<path d="M38.3219 9.76824C38.3219 9.60723 38.4829 9.44621 38.6439 9.33886H38.7513C38.8049 9.23152 38.9123 9.17785 38.966 9.12417C39.288 8.90948 39.6637 8.64112 39.9321 8.15807L39.9857 8.05073C40.3078 7.514 40.3614 6.97728 40.3614 6.5479C40.3614 6.11852 40.3614 6.38689 40.3614 6.27954H40.3078C38.8586 6.92361 37.6242 7.514 36.6581 8.05073C36.6581 8.1044 36.5507 8.1044 36.5507 8.1044C36.497 8.1044 36.4434 8.15807 36.3897 8.21174C34.8332 9.01683 33.8134 9.6609 33.062 10.1976C34.2965 9.87559 35.6383 9.71457 36.9801 9.71457C38.3219 9.71457 37.8925 9.71457 38.3219 9.76824Z" fill="white"></path>
<path d="M46.5877 12.8275C46.7487 12.9348 46.9097 13.0958 47.0708 13.2032C47.4465 7.03087 47.3928 4.07889 47.1781 2.84443C47.1244 2.5224 47.0171 2.30771 46.9634 2.20036C46.9634 2.20036 46.9634 2.14669 46.9097 2.14669C46.9097 2.14669 46.8561 2.14669 46.8024 2.09302C46.8024 2.09302 46.8024 2.09302 46.8024 2.25403C46.8024 2.46872 46.8024 2.95177 46.7487 4.13257C46.6414 6.06477 46.5877 6.54782 46.4804 7.67494C46.4804 7.67494 46.4804 8.21166 46.4267 8.85573C46.4267 9.66081 46.373 10.9489 46.4267 12.6128C46.534 12.6665 46.6414 12.7738 46.7487 12.8275H46.5877Z" fill="white"></path>
<path d="M48.0903 13.9548C49.0564 11.4858 48.8417 8.4802 48.3587 6.06494C48.3587 6.27963 48.3587 6.54799 48.3587 6.76268C48.3587 8.58754 48.2513 10.8954 48.0903 13.6864C48.0903 13.7938 48.0903 13.9011 48.0903 14.0084C48.0903 14.0084 48.0903 13.9548 48.0903 13.9011V13.9548Z" fill="white"></path>
<path d="M43.1526 10.8954C43.904 11.2175 44.6018 11.5395 45.2995 11.9689C45.2995 10.6807 45.2995 9.60728 45.2995 8.8022C45.2995 8.15813 45.3532 7.62141 45.3532 7.62141C45.3532 7.29938 45.4068 6.97734 45.4605 6.70898C45.5142 6.06491 45.5679 5.42084 45.6215 4.13271C45.6215 4.07904 45.6215 3.97169 45.6215 3.91802C45.6215 3.81068 45.6215 3.70333 45.6215 3.64966C45.5142 3.81068 45.4068 4.02536 45.2995 4.18638C44.2797 5.95757 43.743 6.97734 43.3136 8.15813C43.3136 8.26548 43.3136 8.37282 43.3136 8.42649C43.421 9.12423 43.3136 9.82197 43.0453 10.466C42.9916 10.6271 42.9379 10.7881 42.8306 10.8954C42.8306 10.8954 42.8306 10.8954 42.8842 10.8954C42.8842 10.8954 42.9379 10.8954 42.9916 10.8954H43.1526Z" fill="white"></path>
<path d="M30.2174 11.1638C30.2174 11.1638 30.2174 11.1638 30.2711 11.1638C30.2711 11.1638 30.3784 11.1638 30.4321 11.1102C30.4321 10.2514 30.2711 9.44632 30.0027 8.69491C29.7344 7.83615 29.4123 7.29943 29.0366 6.60169C28.6609 5.90395 28.1779 5.15253 27.6948 3.8644C27.6411 3.70338 27.5875 3.54236 27.5338 3.38135C27.5338 3.38135 27.5338 3.43502 27.5338 3.48869C27.3728 4.93784 27.1581 7.7288 26.9971 13.096C27.9632 12.3446 28.9829 11.7006 30.1637 11.1638C30.1637 11.1638 30.1637 11.1638 30.2174 11.1638Z" fill="white"></path>
<path d="M30.0026 18.5168C29.4659 18.5168 28.9828 18.8925 28.8755 19.3756C28.8755 19.4829 28.8755 19.5366 28.8755 19.6439C28.8755 19.966 28.9828 20.2343 29.1975 20.449C29.4122 20.6637 29.6806 20.771 30.0026 20.771C30.3246 20.771 30.1636 20.771 30.271 20.771C30.6467 20.6637 30.9687 20.3953 31.1297 19.966C31.1297 19.8586 31.1297 19.7513 31.1297 19.6439C31.1297 18.9999 30.593 18.4631 29.9489 18.4631L30.0026 18.5168Z" fill="white"></path>
<path d="M40.1469 10.0363C40.6836 10.1437 41.1667 10.251 41.7034 10.412C41.7571 9.92899 41.8644 9.44594 42.0254 8.96289C41.3814 9.3386 40.6836 9.7143 40.0396 10.09C40.0396 10.09 40.0395 10.09 40.0932 10.09L40.1469 10.0363Z" fill="white"></path>
<path d="M52.277 24.7966C52.1697 24.7966 52.116 24.7966 52.0087 24.6893C51.955 24.6356 51.9013 24.5283 51.8476 24.4746C51.794 24.3136 51.8476 24.0989 51.955 23.9379L52.0623 23.8305L53.1894 22.7034C52.8137 22.5961 52.438 22.5424 52.0623 22.5424C51.6866 22.5424 51.5256 22.5424 51.2572 22.6497C51.2036 22.6497 51.0962 22.6497 51.0426 22.6497C51.0426 22.3277 51.0426 22.0057 50.9352 21.6836C50.8279 20.9322 50.6132 20.1808 50.3985 19.4294C50.2375 18.8927 49.9691 18.4096 49.7544 17.9266C49.4324 17.2825 49.0567 16.6921 48.5736 16.1554C48.4663 16.0481 48.4126 15.9407 48.3053 15.8334C48.1979 15.726 48.0906 15.565 47.9832 15.4577C47.9832 15.4577 47.9832 15.404 47.9296 15.3503C47.9296 15.3503 47.8759 15.2966 47.8222 15.243C47.7685 15.1893 47.7149 15.1356 47.6612 15.0283C47.6075 14.9746 47.5002 14.8673 47.4465 14.8136C47.3392 14.7062 47.2318 14.5989 47.1245 14.4916C47.0171 14.3842 46.8561 14.2769 46.7488 14.1695C46.6414 14.0622 46.5341 14.0085 46.4267 13.9012C46.212 13.7401 45.9437 13.5255 45.729 13.3644C45.6217 13.3108 45.568 13.2571 45.4606 13.2034C44.7092 12.7204 43.9041 12.291 43.0991 11.969C43.0991 11.969 43.0454 11.969 42.9917 11.969C42.938 11.969 42.8844 11.969 42.777 11.9153C42.6697 11.9153 42.616 11.8616 42.5087 11.8079C42.455 11.8079 42.4013 11.8079 42.3476 11.7543C42.2403 11.7543 42.1329 11.7006 41.9719 11.6469C41.7572 11.5932 41.5426 11.5396 41.3279 11.4322C41.3279 11.4322 41.2205 11.4322 41.1668 11.4322C39.9324 11.1102 38.6443 10.9492 37.3024 10.8955H37.0878C35.2092 10.8955 33.438 11.2175 31.8279 11.8079C31.4522 11.969 31.0765 12.13 30.7544 12.291C30.7544 12.291 30.7544 12.291 30.7007 12.291C30.7007 12.291 30.5934 12.291 30.5397 12.3447C30.5397 12.3447 30.5397 12.3447 30.4861 12.3447C29.3053 12.9351 28.2318 13.6328 27.2657 14.4916C27.2657 14.4916 27.2657 14.4916 27.212 14.4916C27.212 14.4916 27.1584 14.5452 27.1047 14.5989C27.051 14.5989 26.9974 14.7062 26.9437 14.7599C26.8363 14.8673 26.729 14.9746 26.6216 15.0819C26.568 15.1356 26.5143 15.1893 26.4606 15.243C26.3533 15.3503 26.2459 15.4577 26.1923 15.565C24.6358 17.3362 23.616 19.4294 23.294 21.7373C23.294 22.0593 23.2403 22.3814 23.1866 22.7034C22.8646 22.7034 22.4889 22.7034 22.1668 22.7034C21.9522 22.7034 21.6838 22.7034 21.4691 22.7034C21.6838 23.0255 21.9522 23.3475 22.1668 23.6695C22.2742 23.7769 22.3279 23.9379 22.4352 24.0452C22.5426 24.2062 22.5426 24.4209 22.4352 24.5819C22.4352 24.6356 22.3279 24.743 22.2205 24.743C22.1132 24.743 22.0058 24.7966 21.8985 24.743L20.9324 24.5819C20.825 24.5819 20.7177 24.5819 20.6104 24.5819C21.4691 26.7288 22.7572 28.6074 24.3137 30.2175C25.6555 31.613 27.212 32.7401 28.8759 33.6526C29.1979 33.8136 29.4663 33.9746 29.7883 34.1356C29.8957 34.1356 30.003 34.243 30.1104 34.2966C30.2177 34.2966 30.3787 34.404 30.4861 34.4577C30.5397 34.4577 30.6471 34.5113 30.7007 34.565C30.7544 34.565 30.8618 34.6187 30.9154 34.6723C30.9154 34.6723 31.0228 34.6723 31.0765 34.726C31.1301 34.726 31.1838 34.726 31.2911 34.7797C31.3985 34.7797 31.5058 34.8334 31.6132 34.887C31.7205 34.887 31.7742 34.9407 31.8815 34.9944C32.2572 35.1017 32.633 35.2091 33.0087 35.3164C33.116 35.3164 33.2233 35.3164 33.3307 35.3701C33.438 35.3701 33.5454 35.3701 33.6527 35.4238C33.8137 35.4238 33.9748 35.4774 34.1358 35.5311C35.1019 35.6921 36.1217 35.7995 37.1951 35.7995C38.6443 35.7995 40.0934 35.6384 41.4889 35.2627C41.6499 35.2627 41.8109 35.1554 41.9719 35.1554C42.2403 35.1017 42.5623 34.9944 42.8307 34.887C43.1527 34.7797 43.4748 34.6723 43.7968 34.5113C45.568 33.8136 47.2318 32.7938 48.681 31.5593C48.9493 31.3447 49.2177 31.0763 49.4861 30.8616C49.7544 30.5932 50.0228 30.3786 50.2375 30.1102C51.633 28.6074 52.7601 26.8899 53.6188 25.0113C53.4578 25.0113 53.3505 25.0113 53.1894 24.9577L52.438 24.8503L52.277 24.7966ZM34.3505 21.0932C34.3505 21.4153 34.3505 21.791 34.1894 22.113C33.7601 23.4548 32.4719 24.4746 30.9691 24.4746C29.4663 24.4746 27.6414 22.9718 27.6414 21.1469C27.6414 19.3221 27.6414 20.5029 27.8024 20.1808C27.9098 19.8588 28.0708 19.5368 28.2318 19.2684C28.8222 18.356 29.842 17.7656 31.0228 17.7656C32.8476 17.7656 34.3505 19.2684 34.3505 21.0932ZM43.5284 31.3447C42.8844 31.3447 42.294 30.8079 41.9719 30.0029C41.8646 30.2175 41.7036 30.3786 41.5426 30.5396C41.3815 30.7006 41.2205 30.8616 41.0595 30.969C40.7375 31.1836 40.3618 31.3983 39.9861 31.5057C39.7177 31.5593 39.3957 31.613 39.1273 31.613C38.2149 31.613 37.3024 31.2373 36.6584 30.5396C36.6584 30.4859 36.551 30.4322 36.4974 30.3786C36.229 30.0565 36.0143 29.6808 35.907 29.3051C35.7996 29.0367 35.7459 28.7684 35.7459 28.5C35.5313 28.5537 35.3166 28.661 35.0482 28.7147C35.1019 28.2853 35.4239 27.9633 35.7996 27.8023C35.8533 27.6413 36.0143 27.5876 36.1753 27.5876C36.229 27.5876 36.2827 27.5876 36.3363 27.6413C36.6584 27.6413 37.0341 27.6949 37.3024 27.9633C37.0341 28.0706 36.8194 28.1243 36.551 28.2317C36.551 28.661 36.6584 29.0904 36.8731 29.4661C36.9804 29.6808 37.0878 29.8418 37.2488 30.0029C37.7318 30.5396 38.3759 30.8079 39.0736 30.8079C39.7714 30.8079 39.825 30.7006 40.1471 30.5396C40.4154 30.3786 40.6838 30.2175 40.8985 30.0029C41.2742 29.5735 41.5426 29.0367 41.5962 28.5C40.2007 27.9633 39.4493 26.8362 39.6104 25.9774C39.7177 25.4944 40.0397 25.1187 40.5228 24.904C40.9522 24.6893 41.3815 24.5283 41.8109 24.4746H41.9183C42.8844 24.4209 44.2262 24.743 44.5482 25.7091C44.6019 25.8701 44.6019 26.0311 44.6019 26.2458C44.6019 26.5678 44.4945 26.8899 44.2798 27.2119C43.9578 27.8023 43.3137 28.3927 42.4013 28.7147C42.5087 29.8955 43.0454 30.6469 43.4211 30.6469C43.7968 30.6469 44.4945 29.5735 44.4945 28.1243C44.4945 26.6752 44.6555 27.6949 44.9239 27.6949C45.1386 27.6949 45.2996 27.856 45.3533 28.017C45.3533 28.017 45.3533 28.0706 45.3533 28.1243C45.3533 30.0565 44.5482 31.5057 43.4211 31.5057L43.5284 31.3447ZM46.1584 24.4209C45.7827 24.4209 45.407 24.3673 45.0313 24.2062C43.7431 23.7232 42.777 22.4887 42.777 21.0396C42.777 19.5904 43.7431 18.3023 45.0849 17.8729C45.407 17.7656 45.7827 17.7119 46.1584 17.7119C47.9832 17.7119 49.4861 19.2147 49.4861 21.0396C49.4861 22.8644 47.9832 24.3673 46.1584 24.3673V24.4209Z" fill="white"></path>
<path d="M44.9772 18.4094C44.9772 18.4094 44.9772 18.4094 44.9235 18.4094C44.9235 18.4094 44.9235 18.4631 44.9235 18.5167C44.9235 18.5167 44.9235 18.4631 44.9235 18.4094C44.3331 18.4094 43.8501 18.9461 43.8501 19.5902C43.8501 20.2342 44.2258 20.5563 44.7089 20.7173C44.7089 20.7173 44.7089 20.6636 44.7089 20.61C44.7089 20.61 44.7089 20.6636 44.7089 20.7173C44.8162 20.7173 44.9235 20.7173 44.9772 20.7173C45.6213 20.7173 46.158 20.1806 46.158 19.5365C46.158 18.8924 45.6213 18.3557 44.9772 18.3557V18.4094Z" fill="white"></path>
<path d="M44.9238 18.3555C44.9238 18.2481 44.9775 18.1408 45.0312 18.0334C45.0312 18.1408 44.9775 18.2481 44.9238 18.3555Z" fill="white"></path>
<path d="M55.2288 23.5083C55.6045 23.1326 55.7119 22.5959 55.6045 22.1128C55.4972 21.6298 55.1215 21.2004 54.6384 21.0394C54.6384 21.0394 54.6384 21.0394 54.5847 21.0394C53.9943 20.8247 53.4576 20.7173 52.8672 20.61C52.4378 18.4631 51.4717 16.4236 50.0226 14.6524C52.0085 9.5535 49.8616 2.84447 48.7345 1.12695C48.7345 1.12695 48.7344 1.07328 48.6808 1.01961C48.6808 1.01961 48.6808 1.01961 48.6808 0.965935C48.4661 0.697573 48.1977 0.429212 47.8757 0.268195C47.822 0.268195 47.7684 0.268195 47.7147 0.214522C47.7147 0.214522 47.6073 0.214522 47.5537 0.16085C47.5537 0.16085 47.5 0.16085 47.4463 0.16085H47.339H47.2316C47.1243 0.16085 47.0169 0.16085 46.9096 0.16085C46.8022 0.16085 46.8559 0.16085 46.8022 0.16085C45.6751 0.214522 45.0847 1.12695 44.7627 1.55633C44.4943 1.93204 44.226 2.41509 43.7966 3.1665C43.3672 3.97158 42.9915 4.61565 42.6695 5.25972C42.6695 5.15238 42.6158 5.04503 42.5621 4.93769C42.5621 4.83034 42.5085 4.77667 42.4548 4.66932C42.2938 4.34729 42.0254 4.07893 41.6497 3.91791C41.435 3.81057 41.2203 3.7569 41.0056 3.7569C40.7909 3.7569 40.7373 3.7569 40.6299 3.7569C40.5226 3.7569 40.4689 3.7569 40.3616 3.86424C39.3418 4.29362 38.4294 4.723 37.6243 5.15238C37.1412 5.36706 36.6045 5.63543 36.1215 5.90379C34.5113 6.70887 33.2768 7.46028 32.3107 8.10435C31.9887 7.03091 31.5593 6.33317 31.1836 5.58175C30.8079 4.93769 30.4322 4.23995 29.9491 3.11283C29.7345 2.52243 29.5734 2.09305 29.4661 1.77102C29.3051 1.2343 28.9294 0.107178 27.6949 0.107178C26.0847 0.107178 25.87 1.87836 25.709 3.00548C25.709 3.32752 25.6554 3.64955 25.6017 3.97158C25.6017 4.40096 25.548 4.83034 25.4943 5.25972C25.387 6.44051 25.3333 7.88966 25.2796 9.60718C24.8503 9.1778 24.4209 8.74842 23.9378 8.31904C23.5621 7.99701 21.6299 6.49418 19.1073 5.63543C17.6582 5.15238 16.1554 4.93769 14.6525 4.93769C14.6525 4.93769 14.6525 4.93769 14.5989 4.93769C8.10451 4.88401 2.57626 8.80209 0.53671 14.6524C0.53671 14.706 0.53671 14.7597 0.53671 14.7597C0.53671 14.8134 0.53671 14.9207 0.483038 14.9744C0.483038 14.9744 0.483038 15.0818 0.483038 15.1354C0.483038 15.1891 0.483038 15.2428 0.483038 15.2964C0.322021 15.7795 0.268348 16.2625 0.214676 16.7993C-1.31872e-05 18.9998 0.644055 21.2004 2.09321 22.9179C3.48869 24.6354 5.52824 25.7089 7.7288 25.9236C7.99716 25.9236 8.26552 25.9236 8.58756 25.9236C9.07061 25.9236 9.49999 25.9236 9.98304 25.8162C9.98304 26.3529 9.98304 26.675 9.98304 26.675C9.98304 28.0168 10.0904 30.1637 10.7881 32.5253C12.6667 39.0733 17.3361 42.8303 18.7316 43.8501C19.5904 44.4405 21.7909 45.9433 24.4209 46.6947C24.4209 46.6947 24.4209 46.6947 24.4746 46.6947C24.5282 46.6947 24.5819 46.6947 24.6893 46.7484C24.7966 46.7484 24.9039 46.8021 25.0113 46.8021C25.387 46.9094 25.8164 46.9631 26.2458 47.0705C26.4604 47.0705 26.6751 47.1241 26.8361 47.1778C26.9972 47.1778 27.1582 47.1778 27.3192 47.2315C27.3192 47.2315 27.4265 47.2315 27.4802 47.2315C27.4802 47.2315 27.5339 47.2315 27.5876 47.2315H27.8022C27.9096 47.2315 28.0169 47.2315 28.1243 47.2315C28.339 47.2315 28.5537 47.2315 28.7683 47.2315C28.9294 47.2315 29.0904 47.2315 29.2514 47.2315C29.3051 47.2315 29.3587 47.2315 29.4124 47.2315C29.5198 47.2315 29.5734 47.2315 29.6808 47.2315C29.6808 47.2315 29.6808 47.2315 29.7345 47.2315C29.8418 47.2315 29.8955 47.2315 30.0028 47.2315C30.1102 47.2315 30.2175 47.2315 30.3248 47.2315C30.3785 47.2315 30.4859 47.2315 30.5395 47.2315C30.5932 47.2315 30.5932 47.2315 30.6469 47.2315L31.5593 47.1241C32.4181 47.0168 33.3305 46.9094 34.2966 46.6947H34.4039C34.4039 46.6947 34.4576 46.6947 34.5113 46.6947H34.565C34.6723 46.6947 34.7796 46.6411 34.8333 46.5874C34.887 46.5874 34.9407 46.5874 34.9943 46.5874H35.1554L35.2627 46.5337C35.5311 46.4801 35.7994 46.3727 36.0678 46.319C36.1751 46.319 36.3361 46.2654 36.4435 46.2117C36.6582 46.1044 36.9265 46.0507 37.1412 45.9433H37.3022C37.4096 45.836 37.5169 45.7823 37.6243 45.7823L37.839 45.675H37.9463H38L38.322 45.514C38.8051 45.2993 39.2881 45.0846 39.7712 44.8699C41.1667 44.1721 42.5085 43.3671 43.7429 42.401C44.387 41.9179 44.9774 41.3812 45.5678 40.8445C47.7684 38.6976 50.291 35.2089 50.613 32.9546C50.613 32.7399 50.613 32.5789 50.613 32.3642C52.8135 30.3247 54.4237 27.9094 55.5508 25.1185C55.7119 24.6891 55.7119 24.206 55.4435 23.7767C55.3898 23.6693 55.3361 23.6157 55.2288 23.5083ZM53.887 24.045H54.1554C54.3164 24.0987 54.4237 24.206 54.5311 24.3134C54.5847 24.4207 54.6384 24.5818 54.5311 24.7428C53.4576 27.5337 51.7401 30.0027 49.4859 31.9349C49.4859 32.2569 49.4859 32.5253 49.4859 32.7936C49.2175 34.5648 47.0706 37.8388 44.709 40.0931C44.1723 40.6298 43.5819 41.1128 42.9378 41.5959C41.7571 42.5083 40.4689 43.2597 39.1271 43.9575C38.6977 44.1721 38.2147 44.3868 37.7853 44.6015C37.678 44.6015 37.5706 44.6552 37.5169 44.7089C37.5169 44.7089 37.4633 44.7089 37.4096 44.7089C37.3559 44.7089 37.3022 44.7089 37.2486 44.7625C37.1949 44.7625 37.1412 44.7625 37.0876 44.8162C36.9265 44.8162 36.8192 44.9236 36.6582 44.9772C36.4435 45.0309 36.2288 45.1382 35.9604 45.1919C35.8531 45.1919 35.6921 45.2456 35.5847 45.2993C35.3164 45.3529 35.1017 45.4603 34.8333 45.514C34.8333 45.514 34.7796 45.514 34.726 45.514C34.726 45.514 34.6723 45.514 34.6186 45.514C34.565 45.514 34.5113 45.514 34.4039 45.514C34.2966 45.514 34.1893 45.5676 34.0819 45.6213C34.0819 45.6213 34.0819 45.6213 34.0282 45.6213C34.0282 45.6213 33.9209 45.6213 33.8672 45.6213C33.0085 45.836 32.1497 45.9433 31.2909 46.0507L30.3785 46.158C30.2712 46.158 30.1638 46.158 30.0565 46.158C29.9491 46.158 29.8418 46.158 29.7345 46.158C29.6271 46.158 29.5198 46.158 29.4124 46.158C29.3051 46.158 29.2514 46.158 29.1441 46.158C29.0367 46.158 29.0367 46.158 28.983 46.158C28.822 46.158 28.661 46.158 28.5 46.158C28.2853 46.158 28.0706 46.158 27.9096 46.158C27.8022 46.158 27.6949 46.158 27.5876 46.158C27.5339 46.158 27.4265 46.158 27.3729 46.158C27.3729 46.158 27.3729 46.158 27.3192 46.158C27.3192 46.158 27.2119 46.158 27.1582 46.158C26.9972 46.158 26.8361 46.158 26.7288 46.158C26.5141 46.158 26.3531 46.1044 26.1921 46.0507C25.8164 45.997 25.4407 45.8897 25.065 45.7823C24.9576 45.7823 24.9039 45.7823 24.7966 45.7286C24.6893 45.7286 24.6356 45.7286 24.5282 45.675H24.4746C22.0056 44.9236 19.8587 43.5281 19.0537 42.9377C17.7119 41.9716 13.257 38.3755 11.4859 32.1495C10.8418 29.8953 10.7345 27.8558 10.7345 26.5676C10.7345 26.514 10.7344 25.5479 10.8955 24.3134C10.6271 24.4207 10.3587 24.5281 10.0367 24.5818C9.98304 24.5818 9.92937 24.5818 9.82202 24.5818C9.33897 24.6891 8.85592 24.7428 8.37287 24.7428C7.88982 24.7428 7.88982 24.7428 7.62146 24.7428C5.68925 24.5281 3.91807 23.6157 2.62993 22.1128C1.39547 20.61 0.805072 18.6778 1.01976 16.7456C1.01976 16.3162 1.12711 15.8332 1.28812 15.4038C1.28812 15.4038 1.28812 15.2964 1.28812 15.2428C1.28812 15.2428 1.28812 15.1354 1.28812 15.0818C1.28812 15.0818 1.28812 15.0818 1.28812 15.0281V14.9744C3.22033 9.5535 8.37287 5.85012 14.1158 5.85012C15.565 5.85012 16.9604 6.0648 18.3559 6.54786C20.8248 7.35294 22.6497 8.85576 22.8644 9.07045C23.2938 9.44616 23.7232 9.82187 24.0989 10.2512C24.3672 10.5196 24.5819 10.8416 24.8503 11.11C25.1723 11.5394 25.4943 11.9688 25.7627 12.3981C25.7627 12.3445 25.7627 12.2371 25.7627 12.1834C25.87 9.28514 25.9774 6.97723 26.0847 5.25972C26.0847 4.77667 26.1384 4.40096 26.1921 4.02526C26.1921 3.64955 26.2458 3.32752 26.2994 3.05915C26.5141 1.50266 26.7288 1.01961 27.3192 1.01961C27.8559 1.01961 28.0169 1.44899 28.178 1.98571C28.2853 2.30774 28.4463 2.79079 28.661 3.38119C29.1441 4.61565 29.5734 5.36706 29.9491 6.01113C30.3785 6.70887 30.7006 7.35294 31.0226 8.31904C31.1836 8.80209 31.291 9.33881 31.3446 9.82187C32.3107 8.96311 33.9209 7.94334 36.2288 6.76254C36.7119 6.54786 37.1949 6.27949 37.7316 6.01113C38.5904 5.63543 39.4491 5.20605 40.4689 4.77667C40.4689 4.77667 40.5226 4.77667 40.5763 4.77667C40.7373 4.77667 40.8446 4.77667 41.0056 4.77667C41.113 4.83034 41.2203 4.93769 41.3277 5.04503C41.3277 5.04503 41.3277 5.0987 41.3277 5.15238C41.4887 5.58175 41.7034 6.60153 41.3813 7.72865C41.6497 7.56763 41.9181 7.40661 42.2401 7.2456C42.2401 7.2456 42.2938 7.2456 42.3474 7.2456C42.4011 7.2456 42.5085 7.2456 42.5621 7.2456C42.9915 6.22582 43.5819 5.15238 44.4407 3.64955C44.87 2.89814 45.1384 2.41509 45.3531 2.09305C45.6215 1.71735 45.9972 1.12695 46.6412 1.12695C46.6412 1.12695 46.7486 1.12695 46.8022 1.12695C46.8022 1.12695 46.8022 1.12695 46.8559 1.12695C46.8559 1.12695 46.9096 1.12695 46.9633 1.12695C46.9633 1.12695 46.9633 1.12695 47.0169 1.12695C47.0169 1.12695 47.0169 1.12695 47.0706 1.12695C47.2316 1.2343 47.3926 1.34164 47.5 1.50266C47.5 1.50266 47.5 1.55633 47.5537 1.61C48.5198 3.00548 50.6667 9.44616 48.7345 14.223C48.6808 14.384 48.5734 14.545 48.5198 14.706C48.6271 14.8134 48.7345 14.9207 48.8418 15.0818C50.3446 16.9066 51.3644 19.1072 51.6864 21.4688C52.3842 21.4688 53.0819 21.5761 53.887 21.8445H53.9943C54.1554 21.8981 54.2627 22.0592 54.3164 22.2202C54.3164 22.3812 54.3164 22.5422 54.209 22.7032C54.1017 22.8106 54.048 22.8642 53.9407 22.9716L53.0819 23.8303C53.2429 23.8303 53.4039 23.8303 53.6186 23.884L53.887 24.045Z" fill="white"></path>
<path d="M43.7429 25.8698C43.7429 25.6014 43.0451 25.3867 42.1864 25.3867C41.3276 25.3867 40.6299 25.6014 40.6299 25.8698C40.6299 26.1381 41.3276 26.3528 42.1864 26.3528C43.0451 26.3528 43.7429 26.1381 43.7429 25.8698Z" fill="white"></path>
<path d="M70.8473 19.6975C70.5253 19.3218 70.0959 18.9998 69.5592 18.8388C69.0225 18.6241 68.5394 18.5704 68.0563 18.5704C67.5733 18.5704 67.466 18.5704 67.1976 18.6778C66.9292 18.7314 66.6072 18.8388 66.3388 18.9998C66.0705 19.1608 65.8558 19.3218 65.6948 19.5365C65.5337 19.7512 65.4264 20.0732 65.4264 20.3953C65.4264 20.932 65.6411 21.3077 66.0168 21.5761C66.3925 21.8444 66.9292 22.1128 67.5196 22.2738C68.11 22.4348 68.7541 22.6495 69.4518 22.8642C70.1496 23.0789 70.7936 23.3472 71.384 23.723C71.9744 24.0987 72.4575 24.5817 72.8869 25.1721C73.3162 25.7625 73.4772 26.5676 73.4772 27.5874C73.4772 28.6071 73.3162 29.4122 72.9405 30.11C72.5648 30.8077 72.0818 31.4518 71.4914 31.9348C70.901 32.4179 70.1496 32.7399 69.3445 33.0083C68.5394 33.2766 67.6806 33.3303 66.7682 33.3303C65.8558 33.3303 64.5676 33.1693 63.6015 32.7936C62.6354 32.4715 61.723 31.8811 60.8643 31.1297L63.6015 28.1241C63.9773 28.6608 64.514 29.0365 65.1044 29.3585C65.6948 29.6269 66.3388 29.7879 66.9829 29.7879C67.627 29.7879 67.627 29.7879 67.949 29.6806C68.271 29.6269 68.5394 29.5196 68.8078 29.3585C69.0761 29.1975 69.2908 29.0365 69.3982 28.7681C69.5592 28.5535 69.6128 28.2851 69.6128 27.9631C69.6128 27.4263 69.3982 26.997 69.0225 26.7286C68.5931 26.4066 68.11 26.1382 67.5196 25.9772C66.9292 25.7625 66.2315 25.5478 65.5337 25.3331C64.836 25.1184 64.1919 24.8501 63.5479 24.4744C62.9575 24.0987 62.4208 23.6156 62.045 23.0252C61.6157 22.4348 61.4547 21.6297 61.4547 20.6636C61.4547 19.6975 61.6157 18.8924 61.9914 18.1947C62.3671 17.497 62.8501 16.9066 63.4942 16.4235C64.0846 15.9405 64.836 15.5648 65.6411 15.3501C66.4462 15.1354 67.2513 14.9744 68.11 14.9744C68.9688 14.9744 70.0422 15.1354 70.9547 15.4037C71.8671 15.6721 72.7258 16.1552 73.4236 16.7992L70.7936 19.6975H70.8473Z" fill="white"></path>
<path d="M74.5507 20.8782H78.0931V22.4884C78.2004 22.2737 78.3614 22.0053 78.5761 21.7907C78.7908 21.576 79.0592 21.3613 79.3275 21.2003C79.6496 21.0392 79.9716 20.8782 80.3473 20.7709C80.723 20.6635 81.1524 20.6099 81.5818 20.6099C82.4405 20.6099 83.1383 20.7709 83.836 21.1466C84.5338 21.5223 84.9631 22.059 85.2852 22.7568C85.7145 22.0053 86.2513 21.4149 86.8417 21.0929C87.4321 20.7709 88.1835 20.6099 89.0959 20.6099C90.0083 20.6099 90.5987 20.7709 91.1355 21.0392C91.6722 21.3076 92.1016 21.6833 92.4236 22.1664C92.7456 22.6494 92.9603 23.1861 93.1213 23.8302C93.2823 24.4743 93.336 25.1183 93.336 25.8697V32.9545H89.6326V25.9771C89.6326 25.4404 89.5253 24.9573 89.2569 24.5279C89.0422 24.0986 88.6129 23.9375 87.9688 23.9375C87.3247 23.9375 87.1637 23.9912 86.8953 24.1522C86.627 24.3133 86.3586 24.4743 86.1976 24.7426C86.0366 25.011 85.8756 25.2794 85.8219 25.6014C85.7682 25.9234 85.7145 26.2991 85.7145 26.6212V32.9545H82.0112V26.6212C82.0112 26.4065 82.0112 26.1381 82.0112 25.8161C82.0112 25.494 81.9575 25.2257 81.8501 24.9036C81.7428 24.6353 81.5818 24.3669 81.3671 24.2059C81.1524 23.9912 80.8304 23.9375 80.401 23.9375C79.9716 23.9375 79.5422 24.0449 79.2202 24.2059C78.8982 24.3669 78.6835 24.6353 78.5225 24.9036C78.3614 25.172 78.2541 25.494 78.2004 25.8697C78.2004 26.2455 78.1468 26.6212 78.1468 26.9969V32.9545H74.4434V20.9856L74.5507 20.8782Z" fill="white"></path>
<path d="M102.514 31.398C102.084 32.0421 101.548 32.5251 100.85 32.7935C100.152 33.0618 99.4544 33.2229 98.703 33.2229C97.9516 33.2229 97.6296 33.1692 97.0929 33.0082C96.5561 32.8471 96.1268 32.6325 95.7511 32.3104C95.3754 31.9884 95.0533 31.6127 94.8386 31.1296C94.6239 30.6466 94.5166 30.1099 94.5166 29.5195C94.5166 28.9291 94.6239 28.2313 94.8923 27.7483C95.1607 27.2652 95.4827 26.8895 95.9121 26.5675C96.3415 26.2455 96.8245 26.0308 97.4149 25.8161C97.9516 25.6551 98.542 25.494 99.1324 25.4404C99.7228 25.333 100.313 25.333 100.957 25.2794C101.548 25.2794 102.084 25.2794 102.621 25.2794C102.621 24.6353 102.406 24.0986 101.923 23.7229C101.44 23.3472 100.904 23.1325 100.26 23.1325C99.6155 23.1325 99.0787 23.2398 98.5957 23.5082C98.1126 23.7765 97.6296 24.0986 97.2539 24.5816L95.268 22.5421C95.9658 21.898 96.7708 21.4149 97.6833 21.0929C98.5957 20.7709 99.5618 20.6099 100.528 20.6099C101.494 20.6099 102.514 20.7709 103.212 21.0392C103.909 21.3076 104.446 21.6833 104.875 22.22C105.305 22.7568 105.573 23.4008 105.734 24.1522C105.895 24.9036 106.002 25.8161 106.002 26.7822V32.8472H102.621V31.3443L102.514 31.398ZM101.601 27.6409C101.333 27.6409 100.957 27.6409 100.528 27.6409C100.099 27.6409 99.7228 27.7483 99.3471 27.8556C98.9714 27.963 98.6494 28.124 98.381 28.3923C98.1126 28.607 97.9516 28.9291 97.9516 29.3585C97.9516 29.7878 98.1663 30.1099 98.542 30.3246C98.9177 30.5392 99.2934 30.6466 99.7228 30.6466C100.152 30.6466 100.421 30.6466 100.796 30.4856C101.118 30.3782 101.44 30.2709 101.709 30.0562C101.977 29.8952 102.192 29.6268 102.353 29.3585C102.514 29.0901 102.567 28.7681 102.567 28.3923V27.5873H101.655L101.601 27.6409Z" fill="white"></path>
<path d="M111.8 21.7907C115.503 20.6099 119.206 20.8246 119.206 20.8246C122.319 20.8246 121.783 23.7766 119.797 23.7766C114.322 23.7766 112.175 24.7963 111.692 27.8557C111.477 29.0901 111.692 32.8472 111.692 32.8472H107.989V20.8783H111.692" fill="white"></path>
<path d="M115.342 17.2822H119.045V20.8246H121.729C122.051 20.8246 122.319 21.093 122.319 21.415V23.7766H119.045V27.7483C119.045 28.0704 119.045 28.3924 119.045 28.6608C119.045 28.9291 119.153 29.1438 119.26 29.3585C119.367 29.5732 119.528 29.7342 119.797 29.8415C120.065 29.9489 120.333 30.0026 120.763 30.0026C121.192 30.0026 121.246 30.0026 121.514 29.9489C121.836 29.9489 122.105 29.7879 122.266 29.6805V32.7399C121.836 32.9009 121.407 33.0082 120.977 33.0082C120.548 33.0082 120.119 33.0619 119.689 33.0619C119.045 33.0619 118.508 33.0082 117.972 32.8472C117.435 32.7399 117.006 32.5252 116.576 32.2031C116.201 31.9348 115.879 31.5591 115.664 31.076C115.449 30.593 115.342 30.0562 115.342 29.4122L115.449 23.1862" fill="white"></path>
<path d="M123.875 14.3838H127.579V33.0081H123.875V14.3838Z" fill="white"></path>
<path d="M149.692 31.2369C149.263 31.8809 148.726 32.364 148.028 32.6323C147.33 32.9007 146.633 33.0617 145.881 33.0617C145.13 33.0617 144.808 33.0081 144.271 32.847C143.734 32.686 143.305 32.4713 142.929 32.1493C142.554 31.8273 142.232 31.4516 142.017 30.9685C141.802 30.4855 141.695 29.9487 141.695 29.3583C141.695 28.7679 141.802 28.0702 142.071 27.5871C142.339 27.1041 142.661 26.7284 143.09 26.4064C143.52 26.0843 144.003 25.8696 144.593 25.6549C145.184 25.4403 145.72 25.3329 146.311 25.2792C146.901 25.1719 147.491 25.1719 148.082 25.1182C148.672 25.1182 149.209 25.1182 149.746 25.1182C149.746 24.4742 149.531 23.9374 149.048 23.5617C148.565 23.186 148.028 22.9713 147.384 22.9713C146.74 22.9713 146.203 23.0787 145.72 23.347C145.237 23.6154 144.754 23.9374 144.378 24.4205L142.393 22.3809C143.09 21.7369 143.895 21.2538 144.808 20.9318C145.72 20.6097 146.686 20.4487 147.652 20.4487C148.619 20.4487 149.638 20.6097 150.336 20.8781C151.034 21.1465 151.571 21.5222 152 22.0589C152.429 22.5956 152.698 23.2397 152.859 23.9911C153.02 24.7425 153.127 25.6549 153.127 26.621V32.686H149.746V31.1832L149.692 31.2369ZM148.78 27.4798C148.511 27.4798 148.136 27.4798 147.706 27.4798C147.277 27.4798 146.901 27.5871 146.525 27.6945C146.15 27.8018 145.828 27.9629 145.559 28.2312C145.291 28.4459 145.13 28.7679 145.13 29.1973C145.13 29.6267 145.345 29.9487 145.72 30.1634C146.096 30.3781 146.472 30.4855 146.901 30.4855C147.33 30.4855 147.599 30.4855 147.974 30.3244C148.297 30.2171 148.619 30.1097 148.887 29.8951C149.155 29.734 149.37 29.4657 149.531 29.1973C149.692 28.929 149.746 28.6069 149.746 28.2312V27.4261H148.833L148.78 27.4798Z" fill="white"></path>
<path d="M167.028 32.7398H163.647V31.1833C163.486 31.398 163.325 31.6127 163.056 31.8274C162.788 32.0421 162.52 32.2568 162.198 32.4178C161.876 32.5788 161.5 32.7398 161.124 32.8472C160.749 32.9545 160.319 33.0082 159.944 33.0082C159.031 33.0082 158.226 32.8472 157.528 32.5788C156.831 32.2568 156.186 31.8274 155.65 31.2907C155.113 30.7539 154.737 30.1099 154.469 29.3585C154.201 28.607 154.04 27.7483 154.04 26.8895C154.04 26.0308 154.147 25.2257 154.415 24.4743C154.684 23.7229 155.006 23.0251 155.489 22.4347C155.972 21.8443 156.508 21.3613 157.206 21.0392C157.904 20.6635 158.655 20.5025 159.514 20.5025C160.373 20.5025 161.017 20.6099 161.661 20.8782C162.305 21.0929 162.895 21.5223 163.325 22.1127V14.1692H167.028V32.7935V32.7398ZM163.647 26.7285C163.647 25.8161 163.379 25.1183 162.895 24.5279C162.359 23.9912 161.661 23.6692 160.695 23.6692C159.729 23.6692 159.031 23.9376 158.494 24.5279C157.958 25.1183 157.743 25.8161 157.743 26.7285C157.743 27.6409 158.011 28.3387 158.494 28.9291C158.977 29.5195 159.729 29.7878 160.695 29.7878C161.661 29.7878 162.359 29.5195 162.895 28.9291C163.432 28.3924 163.647 27.6409 163.647 26.7285Z" fill="white"></path>
<path d="M179.748 30.6465C179.158 31.3979 178.407 31.9883 177.494 32.4177C176.582 32.847 175.669 33.0081 174.703 33.0081C173.737 33.0081 172.932 32.847 172.127 32.5787C171.322 32.3103 170.624 31.8809 170.034 31.2905C169.443 30.7001 168.96 30.0561 168.638 29.3047C168.316 28.5532 168.102 27.6945 168.102 26.7284C168.102 25.7623 168.263 24.9035 168.638 24.1521C168.96 23.4007 169.443 22.703 170.034 22.1662C170.624 21.6295 171.322 21.2001 172.127 20.8781C172.932 20.6097 173.791 20.4487 174.703 20.4487C175.616 20.4487 176.313 20.6097 177.011 20.8781C177.709 21.2001 178.299 21.5758 178.782 22.1662C179.265 22.703 179.641 23.4007 179.909 24.1521C180.178 24.9035 180.285 25.7623 180.285 26.7284V27.9092H171.698C171.859 28.6069 172.181 29.1973 172.664 29.573C173.147 30.0024 173.791 30.2171 174.489 30.2171C175.186 30.2171 175.616 30.0561 176.045 29.7877C176.474 29.5194 176.85 29.1436 177.119 28.7143L179.695 30.5928L179.748 30.6465ZM176.582 25.3866C176.582 24.7425 176.367 24.2058 175.991 23.7764C175.562 23.347 175.025 23.1323 174.328 23.1323C173.63 23.1323 173.576 23.186 173.254 23.347C172.932 23.4544 172.664 23.6691 172.449 23.8301C172.234 24.0448 172.073 24.2595 171.912 24.5278C171.805 24.7962 171.698 25.0645 171.698 25.3866H176.582Z" fill="white"></path>
<path d="M181.573 20.7708H185.277V22.703C185.652 21.9516 186.135 21.4149 186.672 21.0392C187.209 20.6635 187.907 20.5024 188.712 20.5024C189.517 20.5024 189.141 20.5024 189.356 20.5024C189.57 20.5024 189.785 20.5024 189.946 20.6098V23.9911C189.678 23.8838 189.409 23.8301 189.195 23.8301C188.98 23.8301 188.658 23.7765 188.39 23.7765C187.692 23.7765 187.101 23.8838 186.726 24.0448C186.296 24.2595 185.974 24.5279 185.76 24.8499C185.545 25.2256 185.384 25.6013 185.33 26.138C185.277 26.6748 185.223 27.1578 185.223 27.7482V32.7397H181.52V20.7708H181.573Z" fill="white"></path>
<path d="M140.461 30.8613C139.87 31.6127 139.172 32.2031 138.26 32.6325C137.401 33.0619 136.489 33.2229 135.523 33.2229C134.557 33.2229 133.751 33.0619 133 32.7935C132.195 32.5252 131.497 32.0958 130.907 31.5054C130.316 30.9687 129.833 30.2709 129.511 29.5195C129.189 28.7681 129.028 27.9093 129.028 26.9432C129.028 25.9771 129.189 25.1184 129.511 24.367C129.833 23.6156 130.316 22.9178 130.907 22.3811C131.497 21.8444 132.195 21.415 133 21.093C133.805 20.8246 134.664 20.6636 135.523 20.6636C136.381 20.6636 137.133 20.8246 137.777 21.093C138.475 21.415 139.011 21.7907 139.494 22.3811C139.977 22.9178 140.353 23.6156 140.568 24.367C140.836 25.1184 140.944 25.9771 140.944 26.9432V28.124H132.571C132.732 28.8218 133.054 29.4122 133.537 29.7879C134.02 30.2172 134.61 30.4319 135.308 30.4319C136.006 30.4319 136.381 30.2709 136.811 30.0026C137.24 29.7342 137.562 29.3585 137.884 28.9291L140.407 30.8076L140.461 30.8613ZM137.455 25.6014C137.455 24.9574 137.294 24.4206 136.864 23.9913C136.435 23.5619 135.898 23.3472 135.254 23.3472C134.61 23.3472 134.503 23.4009 134.181 23.5619C133.859 23.6692 133.59 23.8839 133.376 24.0449C133.161 24.2059 133 24.4743 132.893 24.7427C132.785 25.011 132.678 25.2794 132.678 25.6014H137.455Z" fill="white"></path>
</g>
<defs>
<clipPath id="clip0_9589_911">
<rect width="190" height="47.3927" fill="white"></rect>
</clipPath>
</defs>
</svg>