<svg width="203" height="50" viewBox="0 0 203 50" fill="none" xmlns="http://www.w3.org/2000/svg">
<g clip-path="url(#clip0_9589_895)">
<path d="M199.923 13.2617C200.33 13.2558 200.726 13.2558 201.11 13.3735C202.356 13.7675 202.952 14.8378 203 15.8023C203.041 16.6668 202.734 17.3843 202.078 17.943C201.671 18.2958 201.246 18.6252 200.827 18.9663C194.171 24.3709 187.51 29.7696 180.855 35.1742C175.097 39.8496 169.34 44.5191 163.576 49.1944C163.452 49.2944 163.334 49.3944 163.204 49.4885C162.708 49.8355 162.159 50.0237 161.55 50.0001C160.003 49.9413 158.745 48.671 158.793 47.1243C158.805 46.7891 158.887 46.4716 158.993 46.154C159.283 45.3012 159.566 44.4485 159.856 43.5958C161.214 39.5497 162.578 35.5094 163.936 31.4633C163.948 31.4339 163.96 31.4045 163.972 31.3751C164.096 31.0046 164.09 31.0164 163.759 30.8223C161.202 29.3521 158.651 27.8759 156.1 26.3998C154.151 25.2765 152.202 24.1533 150.248 23.0241C150.094 22.9359 149.941 22.8536 149.799 22.7536C148.895 22.1008 148.518 21.2187 148.647 20.113C148.712 19.5838 148.919 19.1074 149.256 18.6957C149.675 18.1841 150.212 17.8783 150.862 17.7548C151.015 17.7254 151.175 17.7019 151.334 17.6901C151.807 17.6489 152.285 17.6078 152.758 17.5666C153.277 17.5195 153.803 17.4666 154.322 17.4196C154.7 17.3843 155.078 17.349 155.462 17.3137C155.952 17.2725 156.442 17.2314 156.933 17.1843C157.452 17.1373 157.978 17.0843 158.497 17.0373C158.893 17.002 159.289 16.9608 159.684 16.9256C160.192 16.8785 160.694 16.8432 161.202 16.7962C161.692 16.7491 162.182 16.7021 162.672 16.655C163.068 16.6198 163.464 16.5786 163.859 16.5433C164.367 16.4963 164.869 16.461 165.377 16.4139C165.885 16.3669 166.387 16.3139 166.895 16.2669C167.29 16.2316 167.686 16.1963 168.082 16.161C168.938 16.0846 169.788 16.014 170.645 15.9376C171.483 15.8611 172.322 15.7788 173.154 15.6964C173.532 15.6612 173.91 15.6259 174.294 15.5906C175.15 15.5141 176.001 15.4436 176.857 15.3671C177.696 15.2907 178.534 15.2083 179.367 15.126C179.857 15.0789 180.347 15.0437 180.837 14.9966C181.357 14.9496 181.882 14.8966 182.402 14.8496C182.798 14.8143 183.193 14.7731 183.589 14.7378C184.097 14.6908 184.599 14.6555 185.107 14.6085C185.597 14.5614 186.087 14.5144 186.577 14.4673C186.99 14.4262 187.398 14.3909 187.811 14.3556C188.319 14.3085 188.821 14.2732 189.329 14.2262C189.819 14.1792 190.309 14.1321 190.799 14.0851C191.148 14.0498 191.496 14.0204 191.845 13.991C192.335 13.9498 192.825 13.9086 193.315 13.8616C193.835 13.8145 194.36 13.7616 194.88 13.7146C195.258 13.6793 195.636 13.644 196.02 13.6087C196.51 13.5675 197 13.5264 197.49 13.4793C198.01 13.4323 198.535 13.3793 199.055 13.3323C199.356 13.3029 199.657 13.2852 199.947 13.2617H199.923Z" fill="white"></path>
<path d="M18.5485 19.6014C18.5957 19.619 18.637 19.6543 18.6843 19.6543C18.826 19.6661 18.9677 19.6661 19.1095 19.6661C21.5543 19.6661 23.999 19.6661 26.4438 19.6661C26.6033 19.6661 26.7627 19.6896 26.9163 19.6367C26.9517 19.6249 26.9635 19.6073 26.9694 19.5661C26.9753 19.5132 26.9635 19.472 26.9222 19.4485C26.8808 19.425 26.8336 19.4073 26.7863 19.4014C26.6151 19.3838 26.4379 19.372 26.2667 19.3603C25.9655 19.3368 25.6702 19.2603 25.3927 19.1486C24.7963 18.9192 24.3829 18.5075 24.1526 17.9136C24.0581 17.6783 23.9931 17.4313 23.9636 17.1784C23.9341 16.8962 23.9046 16.6139 23.9046 16.3257C23.8987 15.6435 23.9046 14.9672 23.9046 14.285C23.9046 14.2085 23.9046 14.1262 23.9282 14.0498C23.94 14.0086 23.9695 13.9615 24.0227 13.9557C24.0699 13.9498 24.1171 13.938 24.1644 13.938C25.4517 13.938 26.7391 13.938 28.0205 13.938C28.0678 13.938 28.115 13.9439 28.1623 13.9615C28.1918 13.9733 28.2154 13.9968 28.2272 14.0262C28.2449 14.0674 28.2449 14.1203 28.2449 14.1674C28.2449 14.3085 28.2449 14.4497 28.2449 14.5967C28.2449 16.0846 28.2449 17.5666 28.2449 19.0545C28.2449 19.1956 28.2449 19.3368 28.2508 19.4838C28.2508 19.5896 28.3158 19.6484 28.4339 19.6543C28.5756 19.6543 28.7174 19.6543 28.865 19.6543C29.9102 19.6543 30.9614 19.6543 32.0066 19.6543C32.1483 19.6543 32.2901 19.6543 32.4377 19.6543C32.4672 19.6543 32.5026 19.6602 32.5322 19.6779C32.5558 19.6896 32.5853 19.719 32.5971 19.7425C32.6089 19.7719 32.6148 19.8014 32.6208 19.8366C32.6208 19.9131 32.6208 19.9954 32.6208 20.0719C32.6208 21.0658 32.6208 22.0655 32.6208 23.0594C32.6208 23.1065 32.6208 23.1535 32.6208 23.2006C32.6208 23.4652 32.5853 23.5005 32.3196 23.5005C31.174 23.5005 30.0342 23.5005 28.8886 23.5005C28.7292 23.5005 28.5697 23.5005 28.4103 23.5064C28.3276 23.5064 28.2567 23.5769 28.2567 23.6534C28.2567 23.7769 28.2449 23.9063 28.2449 24.0298C28.2449 26.6233 28.2449 29.2168 28.2449 31.8103C28.2449 32.0926 28.2449 32.3749 28.3217 32.6572C28.4221 33.0453 28.6524 33.2923 29.0422 33.3982C29.2784 33.4628 29.5087 33.4805 29.7508 33.4805C30.5126 33.4805 31.2743 33.4805 32.0361 33.4805C32.1779 33.4805 32.3196 33.4805 32.4613 33.4923C32.544 33.4923 32.603 33.5628 32.603 33.651C32.603 33.7275 32.6089 33.8098 32.6089 33.8863C32.6089 34.8802 32.6089 35.8799 32.6089 36.8738C32.6089 36.9503 32.6089 37.0326 32.6089 37.109C32.6089 37.2149 32.5381 37.2737 32.42 37.2737C32.296 37.2737 32.166 37.2737 32.0361 37.2737C31.0204 37.2737 30.0047 37.2737 28.989 37.2737C28.7646 37.2737 28.5461 37.2737 28.3217 37.2678C27.8139 37.2561 27.3119 37.1855 26.81 37.0796C26.5147 37.015 26.2312 36.9209 25.9537 36.7974C25.2628 36.4857 24.749 35.9858 24.4183 35.3036C24.2589 34.9743 24.1526 34.6273 24.0758 34.2685C24.0109 33.9568 23.9518 33.651 23.94 33.3335C23.9223 32.8277 23.8927 32.3219 23.8927 31.8162C23.8927 29.2697 23.8927 26.7233 23.8927 24.1768C23.8927 23.3946 23.9872 23.4946 23.2136 23.4946C22.0857 23.4946 20.9578 23.4946 19.8299 23.4946C19.6882 23.4946 19.5465 23.4946 19.3988 23.4946C19.2984 23.4946 19.2276 23.424 19.204 23.3241C19.198 23.2946 19.1921 23.2594 19.1862 23.23C19.0268 22.4419 18.8674 21.648 18.7079 20.8599C18.643 20.5365 18.578 20.2071 18.513 19.8837C18.4717 19.6955 18.4245 19.6602 18.2178 19.6543C18.0879 19.6543 17.9638 19.6543 17.8339 19.6543C16.8477 19.6543 15.8675 19.6543 14.8813 19.6543C14.7573 19.6543 14.6274 19.6543 14.5033 19.6367C14.462 19.6367 14.4148 19.5955 14.3971 19.5544C14.3616 19.4838 14.3498 19.4014 14.3321 19.3309C14.273 19.1192 14.2258 18.9016 14.1549 18.6898C13.8124 17.7018 13.1628 16.9726 12.2475 16.4786C11.7397 16.2081 11.1964 16.0375 10.6295 15.9434C9.66102 15.7788 8.69846 15.8082 7.7418 16.0199C7.35205 16.1022 6.98002 16.2316 6.6198 16.4022C6.31863 16.5492 6.03517 16.7256 5.78715 16.9491C5.23205 17.4372 4.89545 18.0488 4.78325 18.7839C4.7242 19.1486 4.7242 19.5073 4.78325 19.866C4.88955 20.5541 5.22024 21.1128 5.76353 21.548C6.11194 21.8303 6.5076 22.0302 6.92097 22.1949C7.45244 22.4066 8.00754 22.5478 8.56263 22.6713C9.27717 22.8242 9.99762 22.93 10.7181 23.0476C11.781 23.2241 12.844 23.4123 13.8833 23.7122C14.4915 23.8886 15.0939 24.1003 15.6667 24.3709C15.9974 24.5296 16.3163 24.7061 16.6174 24.906C17.8989 25.747 18.7197 26.9114 19.0445 28.3993C19.3398 29.7343 19.3102 31.0693 18.9264 32.3866C18.5248 33.7687 17.7394 34.8919 16.5997 35.7741C15.7907 36.4033 14.8813 36.8444 13.901 37.1561C13.0388 37.4325 12.1471 37.5913 11.2436 37.6736C10.6413 37.7265 10.039 37.756 9.43662 37.7442C8.45043 37.7207 7.47606 37.6089 6.5135 37.3737C5.64542 37.162 4.81869 36.8503 4.03919 36.4092C2.72231 35.6682 1.67707 34.6626 0.950725 33.3276C0.537355 32.5689 0.265712 31.7632 0.112175 30.9223C0.0472166 30.5635 0.0117849 30.2048 -0.0118362 29.8402C-0.0177415 29.7343 0.0472166 29.6696 0.159417 29.6637C0.253901 29.6637 0.348386 29.6579 0.442871 29.6579C1.55306 29.6579 2.66326 29.6579 3.77936 29.6579C3.85612 29.6579 3.9388 29.6579 4.01557 29.6579C4.21044 29.6637 4.26359 29.7108 4.28721 29.9107C4.32264 30.2283 4.3876 30.5341 4.48208 30.8399C4.81278 31.9161 5.47417 32.7336 6.44854 33.3041C7.00364 33.6275 7.60007 33.8333 8.22603 33.9568C9.15316 34.1392 10.0862 34.1568 11.0251 34.0451C11.592 33.9745 12.1471 33.8392 12.6727 33.5981C13.0979 33.404 13.4817 33.157 13.8065 32.8218C14.2258 32.3925 14.4915 31.875 14.6155 31.2928C14.71 30.8223 14.7218 30.3577 14.6333 29.8813C14.4974 29.158 14.1313 28.5934 13.5526 28.1523C13.2455 27.923 12.9089 27.7465 12.5546 27.5995C12.0822 27.3996 11.5979 27.2643 11.1019 27.1526C10.3874 26.9879 9.66692 26.8703 8.94648 26.7585C7.81857 26.5821 6.69066 26.3939 5.58637 26.094C5.01946 25.9411 4.46437 25.7588 3.92108 25.5235C3.45456 25.3236 3.00576 25.0825 2.59239 24.7884C1.37 23.9416 0.614124 22.7889 0.336575 21.3422C0.0885536 20.0542 0.129891 18.7604 0.496018 17.4901C0.909388 16.0611 1.72432 14.9025 2.92309 14.0086C3.7203 13.4146 4.60609 13.0029 5.55685 12.7207C6.21233 12.5266 6.87963 12.3972 7.55874 12.3149C8.44453 12.209 9.33623 12.1973 10.222 12.2502C11.468 12.3266 12.6727 12.5854 13.8242 13.0794C14.3971 13.3264 14.9344 13.6263 15.4364 13.991C16.9481 15.0907 17.893 16.5668 18.3241 18.3723C18.4008 18.7075 18.4481 19.0545 18.5071 19.4014C18.5189 19.4603 18.5308 19.5249 18.5426 19.5896L18.5485 19.6014Z" fill="white"></path>
<path d="M110.452 28.4756C110.452 25.7586 110.452 23.0357 110.452 20.3187C110.452 20.1599 110.458 20.0011 110.464 19.8423C110.464 19.7835 110.529 19.7247 110.588 19.7188C110.682 19.713 110.777 19.7012 110.871 19.7012C112.029 19.7012 113.192 19.7012 114.35 19.7012C114.444 19.7012 114.539 19.713 114.633 19.7188C114.692 19.7188 114.751 19.7835 114.751 19.8423C114.751 19.9835 114.763 20.1246 114.763 20.2658C114.763 21.1362 114.763 22.0065 114.763 22.8769C114.763 23.0651 114.763 23.2592 114.763 23.4474C114.763 23.5121 114.769 23.5709 114.775 23.6356C114.775 23.6885 114.852 23.7414 114.917 23.7355C114.97 23.7355 115.011 23.7003 115.023 23.6591C115.041 23.565 115.046 23.4709 115.052 23.3768C115.094 22.871 115.17 22.3712 115.318 21.8889C115.513 21.2655 115.861 20.7539 116.357 20.3305C116.901 19.8718 117.521 19.5601 118.212 19.4013C119.534 19.0896 120.828 19.1896 122.074 19.7541C122.647 20.0129 123.137 20.3775 123.55 20.8539C124.005 21.389 124.276 22.0007 124.377 22.6887C124.418 22.971 124.43 23.2533 124.459 23.5356C124.459 23.5826 124.477 23.6297 124.483 23.6767C124.489 23.712 124.548 23.7532 124.595 23.7414C124.643 23.7355 124.696 23.7297 124.708 23.6709C124.725 23.5944 124.737 23.518 124.743 23.4415C124.755 23.1886 124.772 22.9357 124.82 22.6887C124.967 21.8419 125.393 21.1538 126.018 20.5833C126.627 20.0305 127.353 19.6777 128.144 19.4601C128.906 19.2543 129.68 19.2131 130.459 19.2601C131.197 19.3013 131.9 19.466 132.585 19.7365C133.258 20.007 133.837 20.4069 134.321 20.948C134.953 21.6654 135.378 22.4829 135.615 23.4003C135.792 24.0766 135.851 24.7706 135.88 25.4646C135.88 25.5763 135.88 25.688 135.88 25.7939C135.88 29.4283 135.88 33.0686 135.88 36.7031C135.88 36.8619 135.874 37.0207 135.868 37.1794C135.868 37.2324 135.798 37.2971 135.739 37.3029C135.662 37.3029 135.579 37.3147 135.502 37.3147C134.298 37.3147 133.087 37.3147 131.882 37.3147C131.788 37.3147 131.693 37.3029 131.599 37.2912C131.575 37.2912 131.54 37.2559 131.534 37.2265C131.516 37.1853 131.516 37.1324 131.51 37.0853C131.51 36.9266 131.51 36.7678 131.51 36.609C131.51 33.3686 131.51 30.1282 131.51 26.8819C131.51 26.4878 131.493 26.0938 131.434 25.6998C131.38 25.3705 131.292 25.0529 131.144 24.753C130.796 24.0237 130.229 23.5474 129.449 23.3415C128.776 23.1651 128.097 23.1592 127.424 23.3356C126.55 23.565 125.942 24.1002 125.599 24.9294C125.446 25.2999 125.357 25.6821 125.333 26.0821C125.322 26.3349 125.316 26.5878 125.316 26.8407C125.316 30.1164 125.316 33.3862 125.316 36.6619C125.316 36.8207 125.316 36.9795 125.31 37.1383C125.31 37.2441 125.245 37.3029 125.127 37.3088C125.032 37.3088 124.938 37.3088 124.843 37.3088C123.715 37.3088 122.588 37.3088 121.46 37.3088C121.383 37.3088 121.3 37.3088 121.223 37.3088C121.017 37.3029 120.975 37.2618 120.975 37.0501C120.975 36.8913 120.975 36.7325 120.975 36.5737C120.975 33.3627 120.975 30.1517 120.975 26.9466C120.975 26.676 120.975 26.4114 120.964 26.1409C120.952 25.8057 120.887 25.4822 120.786 25.1646C120.45 24.1178 119.741 23.4827 118.666 23.2768C118.088 23.1651 117.497 23.1769 116.918 23.3298C116.027 23.565 115.413 24.1119 115.064 24.9588C114.869 25.4351 114.81 25.935 114.787 26.4408C114.781 26.5996 114.787 26.7584 114.787 26.9172C114.787 30.1576 114.787 33.398 114.787 36.6443C114.787 36.8207 114.781 36.9913 114.775 37.1677C114.775 37.2324 114.716 37.2912 114.663 37.2971C114.586 37.3029 114.503 37.3088 114.426 37.3088C113.222 37.3088 112.011 37.3088 110.806 37.3088C110.742 37.3088 110.682 37.3088 110.618 37.2971C110.535 37.2912 110.476 37.2324 110.476 37.1442C110.476 36.9854 110.47 36.8266 110.47 36.6678C110.47 33.9331 110.47 31.1985 110.47 28.4638L110.452 28.4756Z" fill="white"></path>
<path d="M68.4478 25.6175C68.4478 21.9478 68.4478 18.2781 68.4478 14.6142C68.4478 14.4378 68.4537 14.2673 68.4596 14.0908C68.4596 14.032 68.5187 13.9673 68.5777 13.9673C68.6545 13.9673 68.7372 13.9556 68.8139 13.9556C70.0186 13.9556 71.2292 13.9556 72.4339 13.9556C72.5106 13.9556 72.5933 13.9556 72.6701 13.9673C72.7527 13.9673 72.8118 14.0379 72.8118 14.1261C72.8118 14.2849 72.8177 14.4437 72.8177 14.6025C72.8177 17.4665 72.8177 20.3247 72.8177 23.1887C72.8177 23.3475 72.8295 23.5004 72.8354 23.6592C72.8354 23.6945 72.9004 23.7415 72.9417 23.7356C72.9831 23.7239 73.0303 23.7062 73.0657 23.6768C73.0894 23.6592 73.0953 23.6239 73.1012 23.5945C73.2901 22.6006 73.7566 21.7537 74.4535 21.0245C75.1621 20.2835 76.0184 19.7954 76.9986 19.5072C77.5833 19.3367 78.1797 19.2602 78.782 19.2367C79.7741 19.2073 80.7485 19.3073 81.6993 19.6013C83.4886 20.1659 84.9176 21.2186 85.9688 22.7711C86.6951 23.8474 87.1616 25.0353 87.4097 26.3056C87.6104 27.323 87.6518 28.3463 87.5809 29.3755C87.4746 30.9927 87.0435 32.5159 86.1755 33.9038C84.9826 35.8093 83.2937 37.0325 81.0969 37.5441C80.1166 37.7735 79.1186 37.8264 78.1147 37.7147C77.3057 37.6265 76.5203 37.4324 75.7763 37.1031C74.7133 36.6385 73.8688 35.9269 73.2429 34.9506C73.1838 34.8565 73.1248 34.7624 73.048 34.686C73.0244 34.6566 72.9594 34.6566 72.9122 34.6566C72.8886 34.6566 72.8472 34.686 72.8413 34.7036C72.8236 34.7801 72.8118 34.8565 72.8118 34.9389C72.8118 35.5387 72.8118 36.1386 72.8118 36.7443C72.8118 36.8855 72.8118 37.0266 72.8 37.1678C72.8 37.2266 72.7409 37.2913 72.6819 37.2971C72.6051 37.303 72.5224 37.3148 72.4457 37.3148C71.2233 37.3148 70.0009 37.3148 68.7785 37.3148C68.7313 37.3148 68.684 37.3148 68.6368 37.3148C68.495 37.3089 68.4419 37.256 68.4419 37.1089C68.4419 36.9502 68.4419 36.7914 68.4419 36.6326C68.4419 32.9629 68.4419 29.2931 68.4419 25.6293L68.4478 25.6175ZM83.0634 28.3169C83.0693 27.7935 82.9807 27.0878 82.7386 26.4115C82.1717 24.8471 81.0851 23.8121 79.4611 23.3886C78.3687 23.1005 77.2585 23.124 76.1719 23.4475C74.92 23.818 74.0047 24.6001 73.4082 25.7528C73.1661 26.2174 73.0185 26.7173 72.924 27.2348C72.8118 27.8464 72.8 28.458 72.8413 29.0755C72.8945 29.8224 73.0657 30.5399 73.3964 31.2162C73.8334 32.116 74.5007 32.7864 75.3983 33.2334C75.7113 33.3863 76.0361 33.5098 76.3786 33.598C77.2171 33.8097 78.0675 33.8332 78.9297 33.7097C80.9257 33.4216 82.4079 32.0101 82.8626 30.1988C83.0043 29.6401 83.0575 29.0814 83.0634 28.3169Z" fill="white"></path>
<path d="M53.3185 28.505C53.3185 31.2397 53.3185 33.9743 53.3185 36.709C53.3185 37.3677 53.3835 37.303 52.7457 37.303C51.665 37.303 50.5844 37.303 49.5096 37.303C49.3679 37.303 49.2262 37.2971 49.0844 37.2853C49.0254 37.2853 48.9663 37.2206 48.9663 37.1618C48.9604 37.0383 48.9545 36.9089 48.9545 36.7854C48.9545 36.2326 48.9545 35.6798 48.9545 35.127C48.9545 35.0035 48.9545 34.8741 48.9427 34.7506C48.9427 34.7036 48.9073 34.6565 48.8541 34.6565C48.8069 34.6565 48.7655 34.6683 48.7183 34.6801C48.7065 34.6801 48.6888 34.6977 48.6829 34.7095C48.6533 34.7506 48.6297 34.7859 48.6061 34.8271C47.7557 36.2326 46.4861 37.0619 44.9212 37.4794C43.8701 37.7617 42.7953 37.8323 41.7146 37.7146C40.9351 37.6323 40.1793 37.4618 39.4588 37.1736C37.9293 36.5561 36.707 35.5622 35.7857 34.1978C35.0594 33.1216 34.5988 31.9337 34.3626 30.6575C34.1913 29.7342 34.1382 28.805 34.1854 27.8699C34.2622 26.3703 34.6106 24.9353 35.3192 23.6003C36.0397 22.2418 37.0436 21.148 38.3781 20.3599C39.2344 19.8541 40.1556 19.5248 41.1359 19.3601C41.9686 19.219 42.813 19.1896 43.6516 19.2837C45.0511 19.4425 46.2853 19.96 47.2833 20.9774C47.986 21.6949 48.4644 22.5359 48.6652 23.5297C48.677 23.5768 48.6888 23.618 48.7065 23.665C48.7183 23.7062 48.8069 23.7356 48.8718 23.7238C48.9309 23.7121 48.9486 23.665 48.9545 23.6238C48.9663 23.4827 48.9663 23.3416 48.9663 23.2004C48.9663 22.2359 48.9663 21.2715 48.9663 20.307C48.9663 20.1658 48.9663 20.0247 48.9663 19.8777C48.9663 19.7424 49.0313 19.6836 49.173 19.6777C49.2498 19.6777 49.3324 19.6777 49.4092 19.6777C50.5667 19.6777 51.7241 19.6777 52.8874 19.6777C52.9524 19.6777 53.0173 19.6777 53.0764 19.6777C53.2831 19.6836 53.3244 19.7248 53.3303 19.9306C53.3303 20.0717 53.3303 20.2129 53.3303 20.3599C53.3303 23.0769 53.3303 25.7998 53.3303 28.5168L53.3185 28.505ZM48.9309 28.4992C48.9309 28.3227 48.9309 28.1522 48.9309 27.9758C48.9132 27.4347 48.8128 26.9054 48.6356 26.3997C48.0923 24.8588 47.0471 23.8356 45.4586 23.4062C44.3307 23.1004 43.1969 23.1181 42.0808 23.4592C40.9233 23.812 40.0375 24.5177 39.4293 25.5646C39.1281 26.088 38.9332 26.6525 38.8151 27.2465C38.7147 27.764 38.7088 28.2816 38.7147 28.805C38.7207 29.299 38.7915 29.7812 38.9273 30.2517C39.4057 31.9101 40.4568 33.0216 42.1162 33.545C42.8957 33.792 43.7047 33.8391 44.5196 33.7568C45.0275 33.7038 45.5235 33.598 45.996 33.4098C47.1416 32.9511 47.9683 32.1689 48.4644 31.0397C48.5352 30.881 48.5943 30.7163 48.6474 30.5516C48.8718 29.8871 48.9604 29.199 48.9368 28.4992H48.9309Z" fill="white"></path>
<path d="M103.561 31.5279C103.968 31.4808 105.433 31.4691 107.458 31.4985C107.553 31.4985 107.647 31.5161 107.736 31.5338C107.748 31.5338 107.766 31.5514 107.789 31.5632C107.777 31.6514 107.777 31.7455 107.76 31.8337C107.447 33.2334 106.738 34.4095 105.699 35.3917C104.878 36.1621 103.921 36.709 102.876 37.1089C102.055 37.4206 101.211 37.6088 100.337 37.697C99.7993 37.7499 99.2619 37.7793 98.7186 37.7617C97.4077 37.7146 96.1321 37.4735 94.9333 36.9207C92.3173 35.7092 90.6756 33.6979 89.9788 30.9162C89.7249 29.8988 89.654 28.8579 89.719 27.8111C89.7898 26.6525 90.032 25.5234 90.5162 24.4648C91.6736 21.9301 93.6224 20.3187 96.2975 19.5719C97.2837 19.2955 98.2935 19.219 99.3151 19.2425C100.112 19.2661 100.898 19.3601 101.665 19.5719C103.526 20.0776 105.096 21.048 106.295 22.5594C107.187 23.6827 107.76 24.9588 108.002 26.3703C108.149 27.1995 108.203 28.0346 108.108 28.8697C108.084 29.0755 108.067 29.2755 108.043 29.4813C108.037 29.5401 107.972 29.5989 107.913 29.6048C107.771 29.6107 107.63 29.6166 107.488 29.6166C106.443 29.6166 105.392 29.6166 104.346 29.6166C101.187 29.6166 98.0277 29.6166 94.8684 29.6166C94.7267 29.6166 94.5849 29.6166 94.4373 29.6166C94.2188 29.6166 94.1893 29.6577 94.2247 29.8694C94.3074 30.387 94.4432 30.8868 94.6676 31.3632C95.2877 32.6982 96.3211 33.5392 97.762 33.8744C98.7009 34.092 99.6517 34.0861 100.597 33.892C101.329 33.7391 101.972 33.4215 102.539 32.9393C102.929 32.6041 103.248 32.2159 103.437 31.7337C103.461 31.6749 103.496 31.622 103.526 31.569C103.531 31.5573 103.549 31.5455 103.561 31.5338V31.5279ZM99.1143 26.5467C100.508 26.5467 101.907 26.5467 103.301 26.5467C103.443 26.5467 103.585 26.5467 103.726 26.5349C103.779 26.5349 103.833 26.4467 103.821 26.3938C103.809 26.3291 103.803 26.2703 103.779 26.2115C103.266 24.6354 102.215 23.6062 100.608 23.1534C100.036 22.9946 99.4568 22.9534 98.8663 22.9593C98.3879 22.9652 97.9155 23.0299 97.4608 23.1651C96.0258 23.5944 95.0396 24.5001 94.5318 25.9057C94.4845 26.0409 94.4432 26.1762 94.4019 26.3115C94.3546 26.4761 94.4019 26.5349 94.5908 26.5408C94.7326 26.5408 94.8743 26.5408 95.0219 26.5408C96.3861 26.5408 97.7502 26.5408 99.1143 26.5408V26.5467Z" fill="white"></path>
<path d="M194.72 47.1948C194.75 48.5239 193.805 49.6237 192.618 49.9177C191.921 50.0883 191.26 49.9883 190.646 49.6413C190.315 49.4531 189.996 49.2414 189.677 49.0356C186.813 47.1654 183.943 45.2894 181.079 43.4193C179.951 42.6841 178.823 41.9431 177.696 41.208C177.577 41.1316 177.459 41.0492 177.341 40.9669C177.282 40.9257 177.27 40.8493 177.323 40.8081C177.418 40.7258 177.512 40.6434 177.613 40.5611C181.304 37.5677 184.994 34.5684 188.685 31.575C188.786 31.4926 188.886 31.4221 188.986 31.3456C189.034 31.3103 189.122 31.3456 189.14 31.4044C189.211 31.5809 189.276 31.7573 189.341 31.9337C191.047 36.6444 192.754 41.3492 194.467 46.0598C194.585 46.3891 194.709 46.7126 194.715 47.0655C194.715 47.1301 194.72 47.189 194.72 47.189V47.1948Z" fill="white"></path>
<path d="M175.824 8.53163e-05C176.739 -0.0234386 177.861 0.458801 178.363 1.67616C178.44 1.86435 178.511 2.05842 178.581 2.2525C179.78 5.55172 180.973 8.85094 182.166 12.1502C182.408 12.8147 182.42 12.703 181.788 12.7853C181.41 12.8324 181.032 12.8559 180.648 12.8912C180.14 12.9323 179.638 12.9735 179.131 13.0206C178.611 13.0676 178.085 13.1205 177.566 13.1676C177.188 13.2029 176.81 13.2381 176.426 13.2734C175.918 13.3146 175.416 13.3558 174.908 13.4028C174.389 13.4499 173.863 13.5028 173.343 13.5498C172.853 13.5969 172.363 13.6381 171.873 13.6792C171.306 13.7321 170.733 13.7851 170.166 13.8321C170.072 13.838 169.977 13.8439 169.883 13.8498C169.847 13.8498 169.794 13.791 169.8 13.7557C169.8 13.7263 169.8 13.691 169.812 13.6616C169.836 13.5675 169.859 13.4793 169.889 13.3852C170.981 9.62135 172.068 5.85753 173.16 2.09371C173.184 2.01726 173.202 1.94081 173.231 1.86435C173.656 0.570539 174.82 -0.0116766 175.83 0.00596629L175.824 8.53163e-05Z" fill="white"></path>
<path d="M56.4307 28.4698C56.4307 25.7351 56.4307 23.0005 56.4307 20.2658C56.4307 19.6248 56.3717 19.6777 57.0212 19.6777C58.1019 19.6777 59.1767 19.6777 60.2573 19.6777C60.3813 19.6777 60.5113 19.6777 60.6353 19.6954C60.6766 19.6954 60.7298 19.7307 60.7357 19.7836C60.7475 19.8953 60.7593 20.0012 60.7593 20.1129C60.7593 20.901 60.7593 21.6949 60.7593 22.483C60.7593 22.8123 60.7593 23.1475 60.7593 23.4769C60.7593 23.5357 60.7652 23.6062 60.7947 23.6592C60.8124 23.6886 60.8656 23.7121 60.9069 23.718C60.966 23.7356 61.0073 23.6886 61.0132 23.6474C61.0486 23.4592 61.0782 23.271 61.1018 23.0887C61.1667 22.6182 61.2908 22.1595 61.4738 21.7243C61.586 21.4597 61.7218 21.2127 61.8872 20.9774C62.3891 20.2776 63.086 19.8601 63.9186 19.666C64.6331 19.5013 65.3654 19.4837 66.0977 19.5013C66.1272 19.5013 66.1626 19.5131 66.1921 19.519C66.2571 19.5307 66.3162 19.5837 66.3162 19.6425C66.3162 19.7072 66.328 19.766 66.328 19.8307C66.328 21.048 66.328 22.2654 66.328 23.4827C66.328 23.8121 66.3102 23.8297 65.9796 23.8297C65.3123 23.8297 64.645 23.8297 63.9777 23.8297C63.6765 23.8297 63.3753 23.8591 63.0801 23.9179C62.3065 24.0767 61.71 24.4884 61.3203 25.1765C61.0368 25.6822 60.8833 26.2233 60.8183 26.7937C60.7711 27.2172 60.7475 27.6406 60.7475 28.0699C60.7475 30.928 60.7475 33.7921 60.7475 36.6502C60.7475 36.8267 60.7416 36.9972 60.7357 37.1678C60.7357 37.2266 60.6707 37.2854 60.6176 37.2913C60.5408 37.2913 60.4581 37.303 60.3813 37.303C59.1885 37.303 58.0015 37.303 56.8086 37.303C56.7319 37.303 56.6492 37.303 56.5724 37.2913C56.4898 37.2913 56.4307 37.2266 56.4307 37.1383C56.4307 36.9796 56.4248 36.8208 56.4248 36.662C56.4248 33.9273 56.4248 31.1927 56.4248 28.458L56.4307 28.4698Z" fill="white"></path>
</g>
<defs>
<clipPath id="clip0_9589_895">
<rect width="203" height="50" fill="white"></rect>
</clipPath>
</defs>
</svg>