<svg width="97" height="35" viewBox="0 0 97 35" fill="none" xmlns="http://www.w3.org/2000/svg">
<path fill-rule="evenodd" clip-rule="evenodd" d="M0 0H45.4219V8.47507H0V0ZM18.562 14.4984V34.5499H26.8599V14.4984H18.562ZM96.7398 17.275C96.7398 15.2934 96.3245 13.4112 95.5752 11.7144C95.0553 10.5353 94.3771 9.44658 93.5653 8.47507C93.3126 8.1725 89.4788 4.00319 89.4788 4.00319C87.0958 1.44761 83.7905 0 80.3343 0H51.3179V8.47507H79.4194C81.1882 8.47507 82.88 9.21519 84.0999 10.5234L86.8431 13.4646H86.8445C87.71 14.4865 88.2328 15.8185 88.2328 17.2735C88.2328 18.7285 87.7173 20.0397 86.8649 21.0557L84.097 24.0236C82.8771 25.3318 81.1853 26.0719 79.4165 26.0719H51.3179V34.5484H80.3299C83.7862 34.5484 87.0899 33.1023 89.4745 30.5453C89.4745 30.5453 93.3097 26.3774 93.5653 26.0719C94.3771 25.1004 95.0567 24.0102 95.5766 22.8311C96.323 21.1358 96.7398 19.2536 96.7398 17.272V17.275Z" fill="white"></path>
</svg>