<svg width="65" height="58" viewBox="0 0 65 58" fill="none" xmlns="http://www.w3.org/2000/svg">
<path d="M27.011 0.0382681C29.4762 -0.0877986 31.9479 0.0979068 34.3665 0.591002C41.7441 2.13814 48.2099 6.54256 52.3499 12.842C55.8619 18.1776 57.4761 24.5402 56.9329 30.9045C56.8058 32.4307 56.574 33.6819 56.2659 35.1662C55.8574 34.6478 55.537 34.0769 55.2307 33.4963C54.0621 31.2806 54.251 29.161 54.2503 26.7463L56.1282 26.7473C56.2718 25.9826 56.4944 24.9391 56.5637 24.1906L54.2971 24.1974L54.2991 20.0998C53.1899 20.5713 52.0259 21.0234 50.9055 21.4758L50.9085 26.5715C50.9081 28.494 50.7811 30.4864 51.3382 32.3273C51.7018 33.5286 52.204 34.3641 52.8352 35.4162C53.9327 35.3945 55.0934 35.4112 56.1946 35.4172C54.9497 40.1633 52.7957 44.2744 49.4407 47.8869C44.3074 53.4434 37.172 56.7256 29.6126 57.006C27.6116 57.0818 25.6078 56.9496 23.6341 56.6115C16.1838 55.316 9.55263 51.1146 5.19851 44.9318C1.55222 39.7595 -0.266232 33.5178 0.0315221 27.1965C0.0978146 25.7452 0.276659 24.47 0.521756 23.0471L3.43777 23.051L3.43582 35.4162C4.63808 35.4023 5.85905 35.4124 7.06277 35.4113L7.05789 23.049L11.4837 23.0529C11.6374 22.052 11.7657 21.0109 11.9055 20.0041L1.28836 20.0002C2.62463 15.9028 4.53635 12.4971 7.44754 9.29315C12.4897 3.74456 19.5232 0.417486 27.011 0.0382681ZM22.9241 23.7668C19.8586 23.9276 17.57 25.5535 17.1487 28.7297C16.5947 32.9091 19.4543 35.9198 23.6702 35.6262C24.3684 35.5842 25.0536 35.4159 25.6917 35.1291L25.7757 34.3508C25.8474 33.7087 25.912 33.0095 25.9993 32.3742C24.8875 32.8562 23.5994 33.0845 22.4397 32.6193C21.735 32.3378 21.172 31.786 20.8762 31.0871C20.5152 30.2385 20.5196 29.0801 20.8743 28.2307C21.147 27.563 21.6796 27.0343 22.3499 26.7678C23.4177 26.3357 24.5952 26.5029 25.5804 27.0627C25.874 26.2884 26.2281 25.2493 26.5452 24.5119C25.3815 23.9897 24.209 23.7109 22.9241 23.7668ZM43.7454 23.7668C42.0054 23.8596 40.4734 24.3753 39.2776 25.6965C37.2105 27.9811 37.418 32.0428 39.7454 34.0715C41.7935 35.8563 45.2163 35.9991 47.6663 35.0861C47.7195 34.5209 47.8921 33.0704 47.8802 32.5871L47.8323 32.5627L47.6907 32.6164C47.2713 32.7821 46.8946 32.9234 46.4505 33.0021C44.249 33.393 42.1283 32.8664 41.5169 30.5305L50.1751 30.5324C50.1732 30.194 50.1686 29.8684 50.1487 29.5314C49.9287 25.8293 47.5377 23.7139 43.887 23.7639C43.8398 23.7645 43.7926 23.7653 43.7454 23.7668ZM12.6516 35.4191L16.0559 35.4133C16.024 31.6618 16.0162 27.7382 16.054 23.9865L12.6516 23.9807V35.4191ZM27.1565 20.006L27.1575 35.4142L30.4964 35.4123L30.4934 30.6896C32.0265 30.6829 33.0096 30.3597 33.468 32.1525C33.7375 33.2083 34.1616 34.4004 34.554 35.4162L38.1526 35.4142C37.7396 34.623 37.4024 33.7946 37.1468 32.9396L36.6985 31.4318C36.2135 29.7837 35.9942 28.691 33.9866 28.6955C35.2439 27.175 36.5012 25.5316 37.7356 23.9807C36.535 23.9808 35.2434 24.0061 34.0511 23.9787C33.3261 24.9987 32.6076 26.0238 31.8958 27.0529C31.5805 27.5046 31.2733 27.9738 30.928 28.4015C30.8414 28.5082 30.6488 28.5279 30.5266 28.4826C30.4697 28.2768 30.4918 26.3768 30.4944 26.009C30.509 24.0147 30.4737 21.9981 30.4973 20.006C29.4061 20.0006 28.2428 19.9819 27.1565 20.006ZM43.8333 26.1262C45.4112 25.9869 46.2877 26.8273 46.6067 28.3078C45.8279 28.2992 45.0487 28.2956 44.2698 28.2971L41.4378 28.2961C41.7752 27.0232 42.518 26.2889 43.8333 26.1262ZM12.6516 22.5148L16.054 22.5129C16.0461 21.6776 16.046 20.8423 16.054 20.007L12.6507 20.0031L12.6516 22.5148Z" fill="white"></path>
<path d="M60.6788 18.1799C62.3792 18.0154 63.8913 19.259 64.0596 20.9592C64.2274 22.6591 62.9879 24.1742 61.2882 24.3459C59.5838 24.518 58.0625 23.2736 57.8936 21.5686C57.7253 19.8634 58.9732 18.3449 60.6788 18.1799ZM60.7462 18.9035C59.4421 19.0313 58.4883 20.1931 58.6173 21.4973C58.7459 22.8014 59.9088 23.7541 61.213 23.6242C62.515 23.4944 63.4657 22.3339 63.337 21.0315C63.2084 19.7287 62.0488 18.7759 60.7462 18.9035Z" fill="white"></path>
<path d="M59.7744 19.637C60.3667 19.6435 61.1776 19.5556 61.7422 19.7053C62.2436 19.8384 62.5596 20.5621 62.2744 21.0198C62.0724 21.3436 62.0478 21.3384 61.7119 21.4846C62.2259 22.0622 62.112 22.28 62.4678 22.8567L62.4941 22.8997L61.8223 22.8958C61.7905 22.8894 61.7593 22.8826 61.7275 22.8762C61.4468 22.4529 61.5098 22.1386 61.1348 21.7337C60.8555 21.7146 60.7166 21.7034 60.4434 21.6468L60.459 22.885L59.7734 22.8821L59.7744 19.637ZM60.4473 20.1946C60.4428 20.4643 60.3983 20.8816 60.5752 21.0843C60.6483 21.1674 60.7534 21.215 60.8643 21.2141C61.0461 21.2139 61.3671 21.1414 61.5283 21.0452C62.2295 20.1517 60.9579 20.1809 60.4473 20.1946Z" fill="white"></path>
</svg>