<svg width="159" height="46" viewBox="0 0 159 46" fill="none" xmlns="http://www.w3.org/2000/svg">
<g clip-path="url(#clip0_9589_484)">
<path d="M36.9758 9.63143C36.7356 8.73823 36.1642 7.92929 35.3527 7.31416C31.1209 4.06998 26.0777 1.65158 20.5955 0.210661C20.0655 0.0674116 19.5106 0 18.9641 0C18.4175 0 17.8627 0.0674116 17.3327 0.210661C11.8422 1.65158 6.80719 4.06998 2.56719 7.31416C1.75562 7.92929 1.18422 8.73823 0.944062 9.63143C0.314687 11.9824 0 14.3755 0 16.7686V29.2229C0 31.616 0.314687 34.0176 0.944062 36.3686C1.18422 37.2618 1.75562 38.0707 2.56719 38.6858C6.80719 41.9216 11.8422 44.3484 17.3244 45.7893C17.8544 45.9326 18.4092 46 18.9558 46C19.5023 46 20.0572 45.9326 20.5872 45.7893C26.0694 44.3484 31.1127 41.9216 35.3444 38.6858C36.1559 38.0707 36.7273 37.2618 36.9675 36.3686C37.5969 34.0176 37.9116 31.6245 37.9116 29.2229V16.7686C37.9116 14.3755 37.5969 11.974 36.9675 9.62301M36.4541 23.8216C36.2387 24.6137 35.7336 25.3383 34.9966 25.9029C32.918 27.4955 30.6241 28.8943 28.1811 30.074C25.7381 31.2537 23.1295 32.2059 20.4381 32.9137C19.9578 33.0401 19.4692 33.0991 18.9641 33.0991C18.4589 33.0991 17.9703 33.0317 17.49 32.9137C14.7986 32.2059 12.1983 31.2537 9.74703 30.074C7.30406 28.8943 5.01016 27.4955 2.93156 25.9029C2.18625 25.3383 1.68109 24.6137 1.47406 23.8216C1.33328 23.2907 1.33328 22.7261 1.47406 22.1868C1.68937 21.3948 2.19453 20.6701 2.93156 20.1055C5.01016 18.5129 7.30406 17.1141 9.74703 15.9344C12.19 14.7547 14.7986 13.8025 17.49 13.0947C17.9703 12.9683 18.4589 12.9093 18.9641 12.9093C19.4692 12.9093 19.9578 12.9767 20.4381 13.0947C23.1295 13.8025 25.7298 14.7547 28.1811 15.9344C30.6241 17.1141 32.918 18.5129 34.9966 20.1055C35.7419 20.6701 36.247 21.3948 36.4541 22.1868C36.5948 22.7177 36.5948 23.2823 36.4541 23.8216Z" fill="white"></path>
<path d="M54.3581 16.3306H48.8428C47.9153 16.3306 47.4019 15.8166 47.4019 14.9149V11.4685H66.8048V14.9149C66.8048 15.825 66.2914 16.3306 65.3639 16.3306H59.8486V34.5401H54.3664V16.3306H54.3581Z" fill="white"></path>
<path d="M80.9574 29.5346C82.2989 28.9364 83.2596 28.2454 84.4024 27.3522C85.2471 26.6865 85.6777 25.7849 85.7771 24.7568C85.9261 23.2906 85.9261 22.7092 85.7771 21.2514C85.6777 20.274 85.2222 19.3386 84.4024 18.6898C83.2761 17.746 82.3238 17.0719 80.9574 16.4736C80.535 16.2883 80.0299 16.1787 79.4999 16.1787C78.9699 16.1787 78.4564 16.2798 78.0424 16.4736C76.6843 17.0719 75.7236 17.746 74.5974 18.6898C73.7775 19.3471 73.3221 20.274 73.2227 21.2514C73.0736 22.7176 73.0736 23.2991 73.2227 24.7568C73.3304 25.7849 73.7527 26.6781 74.5974 27.3522C75.7319 28.2538 76.6925 28.9364 78.0424 29.5346C78.4813 29.72 78.9699 29.7959 79.4999 29.7959C80.0299 29.7959 80.5268 29.7285 80.9574 29.5346ZM75.9224 34.4894C74.3241 33.8574 72.4443 32.8884 71.0861 31.8603C69.1069 30.3604 67.8647 28.06 67.5914 25.5658C67.3927 23.7962 67.3927 22.2121 67.5914 20.4425C67.8647 17.9483 69.1069 15.6394 71.0861 14.1817C72.4443 13.1115 74.3241 12.134 75.9224 11.502C77.0238 11.0639 78.2246 10.7268 79.4999 10.7268C80.7752 10.7268 81.976 11.0639 83.0774 11.502C84.6922 12.1425 86.5555 13.1199 87.9136 14.1817C89.8928 15.6479 91.135 17.9483 91.4083 20.4425C91.6071 22.2121 91.6071 23.7962 91.4083 25.5658C91.135 28.06 89.8928 30.3689 87.9136 31.8603C86.5555 32.8884 84.6922 33.8574 83.0774 34.4894C81.9346 34.936 80.7752 35.2815 79.4999 35.2815C78.2246 35.2815 77.0652 34.9444 75.9224 34.4894Z" fill="white"></path>
<path d="M99.1516 16.3306H93.6362C92.7087 16.3306 92.1953 15.8166 92.1953 14.9149V11.4685H111.598V14.9149C111.598 15.825 111.085 16.3306 110.157 16.3306H104.642V34.5401H99.1598V16.3306H99.1516Z" fill="white"></path>
<path d="M122.207 33.6975L116.186 25.785C115.747 25.2289 115.606 24.7317 115.606 24.0408V11.4685H119.59C120.484 11.4685 120.981 11.9657 120.981 12.8841V22.9201C120.981 23.611 121.13 24.1419 121.561 24.6812L125.577 29.7539L129.411 24.6812C129.817 24.125 129.991 23.611 129.991 22.9201V12.8841C129.991 11.9741 130.48 11.4685 131.382 11.4685H135.366V24.0408C135.366 24.7317 135.192 25.2458 134.786 25.8019L128.823 33.6975C128.384 34.2873 127.854 34.5401 127.126 34.5401H123.904C123.159 34.5401 122.637 34.2958 122.207 33.6975Z" fill="white"></path>
<path d="M138.901 27.0994H143.117C144.102 27.0994 144.268 27.4365 144.541 28.3887C144.93 29.7453 146.081 30.4616 148.441 30.4616H149.692C152.118 30.4616 153.369 29.7032 153.369 28.1865V27.6893C153.369 26.7624 152.574 26.1557 151 25.8608L145.667 24.8749C141.858 24.1839 139.299 22.3385 139.299 18.9426V17.6113C139.299 13.3559 143.042 10.9207 147.514 10.9207H150.073C155.431 10.9207 158.445 13.8194 158.445 18.3696H154.172C153.327 18.3696 153.079 18.1674 152.905 17.4596C152.582 16.1872 151.688 15.5468 149.766 15.5468H148.309C146.595 15.5468 144.922 16.0271 144.922 17.5944V18.1253C144.922 18.9511 145.651 19.5409 147.141 19.7937L152.714 20.8133C156.424 21.4874 159 23.2233 159 26.7961V28.178C159 32.7957 154.984 35.0877 150.172 35.0877H147.87C142.636 35.0877 138.91 32.6778 138.91 27.091" fill="white"></path>
</g>
<defs>
<clipPath id="clip0_9589_484">
<rect width="159" height="46" fill="white"></rect>
</clipPath>
</defs>
</svg>