<svg width="151" height="47" viewBox="0 0 151 47" fill="none" xmlns="http://www.w3.org/2000/svg">
<path d="M142.016 0C142.562 0.094955 143.182 0.271284 143.727 0.413086C144.536 2.52371 145.794 5.06567 146.473 7.15234C147.401 7.40162 150.632 8.09917 150.69 9.21484C150.111 10.1625 147.005 9.30453 146.187 8.88281C144.776 9.83167 143.474 10.981 142.023 11.9482C144.983 13.7946 147.253 16.7285 148.468 19.9863C149.981 24.1559 149.8 28.7524 147.963 32.79C146.127 36.7584 142.786 39.8334 138.68 41.3359C134.527 42.8389 129.948 42.6557 125.93 40.8242C121.925 38.9608 118.83 35.5759 117.332 31.4219C115.841 27.2809 116.053 22.7181 117.922 18.7334C119.79 14.7314 123.187 11.6458 127.35 10.168C131.622 8.63899 136.065 8.94062 140.152 10.8613C140.687 10.1555 141.884 8.47278 142.463 7.9502C141.375 7.51586 139.476 7.09581 138.645 6.69336C137.871 7.2084 137.388 7.59723 136.671 8.18262C136.12 8.07207 135.639 7.90186 135.107 7.72559C135.643 7.09032 136.216 6.39442 136.679 5.70898C131.167 4.64322 124.764 6.69286 120.473 10.2031C116.309 13.6328 113.658 18.559 113.088 23.9219C112.53 29.6785 114.096 34.7761 117.738 39.291C120.615 42.8588 125.959 46.0276 130.573 46.4756L130.574 46.4766C131.696 46.5936 132.987 46.724 134.091 46.9531C133.401 47.0086 131.066 47.0437 130.391 46.8984C129.307 46.6737 128.22 46.5966 127.059 46.332C121.674 45.0704 117.003 41.7367 114.063 37.0547C111.058 32.2363 110.099 26.4194 111.396 20.8916C112.678 15.4843 116.036 10.7975 120.744 7.84277C125.529 4.89272 131.282 3.94111 136.763 5.19336C136.734 4.34968 136.604 3.55606 136.483 2.72266C137.08 2.85895 137.441 2.97503 138.02 3.17969C138.316 3.93532 138.629 4.68507 138.957 5.42773C139.771 5.4679 142.023 6.08271 142.938 6.31543C142.603 4.9986 142.261 1.56313 142.016 0ZM106.688 12.0576C105.392 16.8408 103.466 22.4427 101.961 27.2334L96.1446 45.668C94.0501 45.5885 91.5568 45.6486 89.4317 45.6455C90.2248 42.5247 91.3027 39.1152 92.2012 35.9902L89.9336 35.9639C87.6462 28.0763 85.0237 19.932 82.584 12.0625C84.9461 12.1125 87.4907 12.0639 89.8682 12.0635C90.0549 13.1584 91.0497 16.3049 91.4102 17.5576L94.6895 28.9004C95.6322 24.9606 97.0627 20.8028 98.1055 16.8584C98.4723 15.4712 99.2023 13.3848 99.4258 12.0576H106.688ZM132.145 33.667C131.941 33.4906 131.853 33.558 131.502 33.5586C129.64 33.728 128.754 34.0277 127.019 34.6523C127.885 36.4909 128.494 37.6616 129.72 39.3174C130.529 40.3737 130.737 40.8076 132.121 40.998L132.173 41.0049L132.192 36.3604C132.193 35.5669 132.227 34.433 132.145 33.667ZM133.601 33.542C133.601 36.0092 133.57 38.541 133.605 41.0029C134.056 40.9239 134.549 40.8491 134.989 40.7373C135.519 40.0892 136.104 39.405 136.577 38.7197C137.46 37.4335 138.221 36.0672 138.85 34.6396C137.027 33.9965 135.586 33.5297 133.601 33.542ZM140.164 35.2637C139.465 36.802 138.253 39.0907 137.147 40.3545C137.831 40.1046 138.65 39.8294 139.293 39.5107C141.023 38.6471 141.508 38.1264 142.978 37.2041C142.064 36.5581 141.105 35.857 140.164 35.2637ZM125.659 35.3057C124.591 35.9634 123.95 36.407 122.946 37.1885C124.229 38.1706 125.191 38.8882 126.7 39.5615C127.354 39.8371 128.015 40.0971 128.681 40.3398C127.799 39.1836 127.03 37.9467 126.38 36.6465C126.245 36.3767 125.823 35.409 125.659 35.3057ZM8.53615 11.6572C17.0478 10.7124 22.4687 14.2073 21.6856 23.2607C21.5014 25.3907 21.9144 27.3976 21.3946 29.7109C21.132 30.9286 20.6048 32.0741 19.8516 33.0664C18.0877 35.3497 15.6502 36.0157 12.9424 36.373C9.95512 36.7794 5.8778 36.3388 3.38967 34.5127C-0.158474 31.8833 0.130684 28.1072 0.0215052 24.2881C-0.172176 17.5152 0.80816 12.7604 8.53615 11.6572ZM142.086 26.4902C142.092 29.0069 141.434 31.5223 140.697 33.9111C142 34.6912 142.785 35.2328 143.966 36.1875C144.383 35.6788 144.856 35.1285 145.233 34.5967C146.874 32.2069 147.955 29.4113 148.061 26.4922L142.086 26.4902ZM117.77 26.4844C118.237 30.3577 119.162 33.2657 121.957 36.1768C122.629 35.5793 123.116 35.2088 123.862 34.6992C124.244 34.4736 124.823 34.1087 125.205 33.9219C124.163 31.4674 124.038 29.0403 123.759 26.4883C121.864 26.4901 119.637 26.55 117.77 26.4844ZM79.1787 1.36719C79.3408 1.90794 79.215 8.28433 79.2158 9.31445V35.9883C76.8798 35.9683 74.5435 35.9661 72.208 35.9824L72.1221 35.9131C71.9134 35.1466 72.0672 28.9163 72.0674 27.624L72.0606 2.23535C74.3784 1.99472 76.7384 1.53863 79.0889 1.31836L79.1787 1.36719ZM40.3653 11.6611C46.4649 10.9102 47.8879 14.0077 47.9024 19.7549C47.9061 21.2578 47.9028 22.8511 47.9024 24.3613L47.8946 35.9854C45.49 35.9676 43.0853 35.9676 40.6807 35.9854C40.6784 34.2094 40.8584 19.8796 40.5655 19.2441C40.4365 18.9647 40.1348 18.7106 39.8496 18.6045C38.3577 18.0498 35.6219 19.3855 34.2217 20.0371L34.0488 20.167C33.8142 20.5836 33.9252 34.1013 33.9278 35.9854C31.5745 35.9459 29.1523 35.976 26.794 35.9785L26.7881 12.0674C28.565 12.044 30.3938 12.0663 32.1748 12.0684C32.3925 12.6356 32.5952 13.2088 32.7813 13.7871C35.6197 12.6848 37.2749 12.0591 40.3653 11.6611ZM62.542 1.30273C64.2132 1.09517 67.0975 1.48265 68.6553 1.92383C68.3938 3.76899 68.0836 5.64943 67.7979 7.49414C66.5751 7.23936 64.7338 7.20751 63.5127 7.37598C63.2002 7.6101 62.9597 7.88723 62.6944 8.17188C62.4224 9.82319 62.481 10.862 62.4981 12.5381C64.2757 12.5262 66.0535 12.5302 67.8311 12.5488C67.7072 14.6093 67.5937 16.2972 67.3272 18.3467L62.4942 18.3232L62.4893 34.96L62.4951 35.9854C60.1442 35.968 57.7925 35.9677 55.4414 35.9844L55.4444 18.3135C54.3004 18.37 52.8342 18.3303 51.666 18.332L51.6592 12.5361L55.4463 12.5391C55.4079 6.40693 54.9787 2.00898 62.542 1.30273ZM133.591 31.9756C135.111 32.1604 138.053 32.5455 139.381 33.3359L139.656 32.5059C140.316 30.0361 140.454 29.0541 140.678 26.4922L133.606 26.4902L133.591 31.9756ZM125.272 26.4863C125.31 29.2709 125.709 30.691 126.461 33.3115C127.763 32.7988 129.695 32.1953 131.087 32.1465L132.216 31.9805C132.191 30.1505 132.179 28.3194 132.182 26.4893C129.894 26.4909 127.557 26.5174 125.272 26.4863ZM14.6289 23.124C14.839 19.4676 14.3211 17.3072 10.0996 17.5947C6.35889 18.2978 7.22657 21.6413 7.14455 24.5791C7.03364 28.5514 7.18292 30.5615 11.7334 30.4316C15.6283 29.6415 14.4609 26.0502 14.6289 23.124ZM121.727 15.6445C119.924 17.6003 118.686 20.0092 118.147 22.6133C117.963 23.4936 117.903 24.2649 117.758 25.1055C118.928 25.0937 120.098 25.088 121.267 25.0879C122.092 25.0965 122.93 25.0971 123.754 25.1162C123.964 22.9811 124.261 19.6622 125.189 17.6982C123.648 17.0647 122.645 16.0629 121.727 15.6445ZM126.472 18.2354C125.799 20.554 125.238 22.6375 125.279 25.0879L131.112 25.0947L132.196 25.1143L132.185 19.46C130.297 19.2431 128.234 19.005 126.472 18.2354ZM139.212 18.3008C137.203 19.0547 135.701 19.2764 133.595 19.4541V25.0869L135.362 25.0889C137.088 25.09 138.976 25.0589 140.689 25.1074C140.529 23.596 140.111 19.5439 139.349 18.3447L139.212 18.3008ZM144.109 15.665C143.062 16.3708 141.863 17.2182 140.696 17.6865C141.444 19.8982 142.12 22.7572 142.075 25.0938L144.811 25.0898C145.897 25.0871 147.004 25.0966 148.088 25.0811C147.797 22.2604 147.131 19.7897 145.554 17.3936C145.328 17.0503 144.468 15.7894 144.109 15.665ZM130.909 10.8438C129.092 12.8473 128.156 14.5464 126.97 16.9463C127.447 17.0698 127.874 17.1769 128.341 17.3408C129.807 17.7667 130.694 17.8171 132.205 17.9648C132.202 17.1773 132.285 10.9638 132.041 10.6582L131.827 10.6514L130.909 10.8438ZM133.601 17.9609C135.422 17.8076 136.402 17.7306 138.164 17.1387L138.885 16.9307C137.819 14.8434 136.661 12.529 134.98 10.8486C134.588 10.776 133.972 10.6449 133.596 10.6064L133.601 17.9609ZM137.254 11.3457C138.265 12.6645 139.634 14.7737 140.136 16.376C140.814 16.0179 141.918 15.4346 142.52 14.9727C142.766 14.7985 142.918 14.7562 143.015 14.5156C142.634 14.0895 141.359 13.1927 140.821 12.875C140.376 13.29 140.357 13.2893 139.76 13.2686C139.369 13.2549 138.908 13.1926 138.778 12.7461C138.924 12.3481 139.044 12.242 138.918 11.9033C138.622 11.6248 137.665 11.4097 137.254 11.3457ZM128.324 11.3555C126.253 12.1403 124.404 13.0174 122.788 14.5977L124.165 15.502C124.71 15.8382 125.112 16.059 125.686 16.3447C126.171 15.2865 126.707 14.2519 127.292 13.2451C127.506 12.8801 128.441 11.628 128.466 11.4082L128.324 11.3555Z" fill="white"></path>
</svg>