<svg width="79" height="51" viewBox="0 0 79 51" fill="none" xmlns="http://www.w3.org/2000/svg">
<path d="M28.1055 35.7017H30.905C32.0248 35.7017 32.9209 36.5965 32.9209 37.6588C32.9209 38.1058 32.7304 38.4415 32.5514 38.665C32.4505 38.7991 32.3276 38.9113 32.1933 39.0007C32.3838 39.1015 32.5514 39.2356 32.6971 39.403C32.9551 39.6826 33.2008 40.1077 33.2008 40.7343C33.2008 41.7966 32.2486 42.7476 30.9612 42.7476H28.1055V35.7017ZM30.905 38.6098C31.4763 38.6098 31.9125 38.1628 31.9125 37.6588C31.9125 37.1548 31.4755 36.7078 30.905 36.7078H29.1691V38.6089H30.905V38.6098ZM30.9612 41.7414C31.6334 41.7414 32.1372 41.2383 32.1372 40.623C32.1372 40.0077 31.6334 39.5046 30.9612 39.5046H29.1691V41.7414H30.9612Z" fill="white"></path>
<path d="M34.2646 37.7148H34.9921L35.2159 38.2179C35.3054 38.1171 35.4177 38.0163 35.5406 37.9383C35.753 37.8042 36.0671 37.6587 36.5033 37.6587C36.6262 37.6587 36.6937 37.6806 36.7499 37.692L36.8394 37.7139V38.7201L36.7385 38.6982C36.6604 38.6868 36.5814 38.6649 36.5033 38.6649C35.8205 38.6649 35.2712 39.2355 35.2712 39.8954V42.7475H34.2637V37.7148H34.2646Z" fill="white"></path>
<path d="M40.7045 42.2453C40.6036 42.3461 40.4921 42.4469 40.357 42.5249C40.1218 42.6704 39.7523 42.8045 39.2486 42.8045C38.1288 42.8045 37.5127 42.1892 37.5127 41.2944C37.5127 40.2882 38.1849 39.6168 40.6484 39.6168V39.4494C40.6484 38.9463 40.3237 38.6106 39.6962 38.6106C39.0239 38.6106 38.744 38.8788 38.6887 39.2259H37.6812C37.7374 38.331 38.4544 37.6597 39.697 37.6597C40.873 37.6597 41.6567 38.4424 41.6567 39.4494V42.7484H40.9292L40.7054 42.2453H40.7045ZM40.6484 40.5117C38.8563 40.5117 38.5202 40.8474 38.5202 41.3505C38.5202 41.6301 38.8001 41.9097 39.3039 41.9097C40.1551 41.9097 40.6475 41.4066 40.6475 40.7799V40.5117H40.6484Z" fill="white"></path>
<path d="M43.6716 41.1269C43.7278 41.5739 43.9964 41.8535 44.5677 41.8535C45.1952 41.8535 45.4637 41.5853 45.4637 41.2382C45.4637 40.3433 42.7756 40.9472 42.7756 39.1688C42.7756 38.3301 43.4479 37.6587 44.5115 37.6587C45.6875 37.6587 46.3036 38.274 46.3597 39.2249H45.3523C45.2961 38.8779 45.0161 38.6097 44.5124 38.6097C44.0086 38.6097 43.7287 38.8892 43.7287 39.1688C43.7287 40.0637 46.4168 39.4598 46.4168 41.2382C46.4168 42.1331 45.7445 42.8044 44.5686 42.8044C43.3259 42.8044 42.7203 42.2005 42.665 41.1269H43.6725H43.6716Z" fill="white"></path>
<path d="M48.5993 36.3169C48.5993 36.664 48.3308 36.9322 47.9833 36.9322C47.6357 36.9322 47.3672 36.664 47.3672 36.3169C47.3672 35.9699 47.6357 35.7017 47.9833 35.7017C48.3308 35.7017 48.5993 35.9699 48.5993 36.3169ZM47.4795 37.7149H48.487V42.7476H47.4795V37.7149Z" fill="white"></path>
<path d="M49.8867 35.7017H50.8942V42.7476H49.8867V35.7017Z" fill="white"></path>
<path d="M73.9798 16.0007C73.5164 14.9822 72.8775 14.0935 72.064 13.3318C71.2505 12.5711 70.3184 11.9794 69.268 11.5579C68.2175 11.1363 67.1161 10.925 65.9629 10.925C64.8097 10.925 63.7075 11.1363 62.6579 11.5579C61.6074 11.9794 60.6754 12.5711 59.8618 13.3318C59.0483 14.0926 58.4094 14.9822 57.946 16.0007C57.4827 17.0191 57.251 18.1042 57.251 19.2559C57.251 19.269 57.2518 19.2822 57.2518 19.2962H57.251V32.6456L60.958 32.1732V26.0529C61.4854 26.4096 62.0506 26.7111 62.657 26.9547C63.7075 27.3763 64.8089 27.5875 65.962 27.5875C67.1152 27.5875 68.2175 27.3763 69.2671 26.9547C70.3176 26.5332 71.2487 25.9415 72.0631 25.1808C72.8766 24.42 73.5155 23.5304 73.9789 22.5119C74.4423 21.4935 74.674 20.4093 74.674 19.2567C74.674 18.1051 74.4423 17.02 73.9789 16.0015L73.9798 16.0007ZM70.5659 21.1061C70.2983 21.6819 69.927 22.1911 69.454 22.6329C68.9801 23.0755 68.4448 23.4147 67.848 23.6513C67.2504 23.888 66.6229 24.0063 65.9638 24.0063C65.3047 24.0063 64.6764 23.888 64.0796 23.6513C63.4819 23.4147 62.9466 23.0755 62.4736 22.6329C61.9997 22.1911 61.6284 21.6819 61.3617 21.1061C61.094 20.5302 60.9597 19.9132 60.9597 19.255C60.9597 18.5968 61.0931 17.9797 61.3617 17.4039C61.6293 16.828 61.9997 16.3188 62.4736 15.8762C62.9475 15.4345 63.4819 15.0944 64.0796 14.8578C64.6764 14.6211 65.3047 14.5028 65.9638 14.5028C66.6229 14.5028 67.2504 14.6211 67.848 14.8578C68.4448 15.0944 68.9801 15.4336 69.454 15.8762C69.9279 16.3188 70.2983 16.828 70.5659 17.4039C70.8336 17.9797 70.9679 18.5968 70.9679 19.255C70.9679 19.9132 70.8336 20.5302 70.5659 21.1061Z" fill="white"></path>
<path d="M51.9317 8.82486V19.5151C51.9317 19.7824 51.9062 20.0436 51.8597 20.2978C51.6184 22.361 49.7763 23.9667 47.5384 23.9667C45.1364 23.9667 43.1899 22.1182 43.1899 19.8385C43.1899 19.8096 43.1916 19.7816 43.1925 19.7535C43.1881 19.6746 43.1855 19.5958 43.1855 19.516V8.19556L39.4785 8.82574V19.516C39.4785 23.9728 43.096 27.5856 47.5586 27.5856C52.0212 27.5856 55.6386 23.9728 55.6386 19.516V8.19556L51.9317 8.82574V8.82486Z" fill="white"></path>
<path d="M34.5218 19.2409C34.5218 23.8537 30.6287 27.6067 25.8432 27.6067C24.1512 27.6067 22.5118 27.137 21.1006 26.2482C20.0668 25.597 18.782 25.597 17.7473 26.2482C16.3361 27.137 14.6968 27.6067 13.0048 27.6067C8.21921 27.6067 4.32617 23.8537 4.32617 19.2409C4.32617 14.628 8.21921 10.875 13.0048 10.875C14.6968 10.875 16.3361 11.3448 17.7473 12.2335C18.7811 12.8847 20.0659 12.8847 21.1006 12.2335C22.5118 11.3448 24.1512 10.875 25.8432 10.875C30.6287 10.875 34.5218 14.628 34.5218 19.2409ZM30.8885 19.2409C30.8885 16.6281 28.6252 14.5036 25.8432 14.5036C24.8383 14.5036 23.8695 14.7797 23.0392 15.3029C20.8093 16.7079 18.0387 16.7079 15.8096 15.3029C14.9802 14.7805 14.0105 14.5036 13.0056 14.5036C10.2236 14.5036 7.96032 16.629 7.96032 19.2409C7.96032 21.8527 10.2236 23.9782 13.0056 23.9782C14.0105 23.9782 14.9794 23.7021 15.8096 23.1788C18.0396 21.7739 20.8101 21.7739 23.0392 23.1788C23.8686 23.7012 24.8383 23.9782 25.8432 23.9782C28.6252 23.9782 30.8885 21.8527 30.8885 19.2409Z" fill="white"></path>
</svg>