<svg width="196" height="46" viewBox="0 0 196 46" fill="none" xmlns="http://www.w3.org/2000/svg">
<path d="M76.1959 0C75.5478 0 74.9859 0.245936 74.5105 0.737766C74.0347 1.22968 73.7969 1.8037 73.797 2.45928C73.797 3.11548 74.0348 3.68422 74.511 4.1655C74.9864 4.64727 75.5482 4.88793 76.1964 4.88793C76.8646 4.88793 77.4363 4.64727 77.9123 4.1655C78.3877 3.68422 78.6259 3.11548 78.6257 2.45928C78.6257 1.8037 78.3874 1.22968 77.912 0.737766C77.4358 0.245936 76.8641 0 76.1959 0ZM68.3772 18.0607C67.7596 18.4194 67.0563 18.5986 66.2666 18.5986C65.0922 18.5986 64.1203 18.2043 63.351 17.4152C62.5812 16.6264 62.1968 15.6273 62.1966 14.4178C62.1965 13.1881 62.5807 12.179 63.3503 11.3897C64.1195 10.6011 65.0912 10.2062 66.2657 10.2062C67.0349 10.2062 67.7283 10.3906 68.3461 10.7596C68.9634 11.1284 69.4243 11.6308 69.7282 12.2659L73.099 10.2676C72.4711 9.05871 71.5499 8.09561 70.335 7.37791C69.1201 6.66088 67.7734 6.30193 66.2957 6.30193C64.0075 6.30193 62.0995 7.08112 60.5713 8.63842C59.0424 10.196 58.2786 12.1228 58.279 14.4178C58.2791 16.7133 59.0434 18.64 60.5725 20.1973C62.101 21.755 64.0092 22.5336 66.2974 22.5336C67.7751 22.5336 69.1218 22.1695 70.3365 21.4423C71.5513 20.7151 72.4927 19.7466 73.1606 18.5373L69.759 16.5697C69.4554 17.2052 68.9948 17.7024 68.3772 18.0607ZM74.253 6.73243L74.2547 22.1032H78.1724L78.1707 6.73243H74.253ZM102.725 8.02361C101.682 6.87603 100.29 6.30193 98.5487 6.30193C96.5443 6.30193 95.0359 7.03978 94.0238 8.51544C93.1324 7.03978 91.7558 6.30193 89.8932 6.30193C87.9899 6.30193 86.583 6.98897 85.6722 8.36174L85.6718 6.73243H81.7542L81.7559 22.1032H85.6736L85.6726 13.4648C85.6725 12.338 85.9306 11.4771 86.4468 10.8824C86.963 10.2883 87.6563 9.99093 88.5271 9.99093C89.3366 9.99093 89.9643 10.2475 90.4101 10.7596C90.8552 11.272 91.0782 11.9892 91.0784 12.9115L91.0794 22.1032H94.9972L94.9962 13.4648C94.9961 12.338 95.2437 11.4771 95.7399 10.8824C96.2359 10.2883 96.929 9.99093 97.8202 9.99093C98.6297 9.99093 99.2576 10.2475 99.7032 10.7596C100.148 11.272 100.372 11.9892 100.372 12.9115L100.373 22.1032H104.29L104.289 12.6348C104.289 10.7086 103.768 9.17147 102.725 8.02361ZM191.563 28.5951C190.195 28.5951 189.205 29.3205 188.563 30.395C188.507 29.8229 188.493 29.2648 188.493 28.7486H187.349C187.349 29.7949 187.447 31.1344 187.754 32.39C187.433 33.6596 187.349 35.0409 187.349 36.143V39.3659H188.493V36.143C188.493 35.6268 188.507 35.0409 188.563 34.4409C189.205 35.5431 190.167 36.3105 191.577 36.3105C193.879 36.3105 195.134 34.2735 195.134 32.39C195.134 30.367 193.697 28.5951 191.563 28.5951ZM191.535 35.1664C190.084 35.1664 189.219 33.9386 188.814 32.39C189.219 30.9112 190.084 29.7392 191.688 29.7392C192.944 29.7392 193.99 30.8692 193.99 32.404C193.99 33.8828 193.028 35.1664 191.535 35.1664ZM129.193 22.1032L129.192 13.8029C129.192 12.5325 129.496 11.5795 130.103 10.9439C130.71 10.309 131.52 9.99093 132.533 9.99093C133.444 9.99093 134.173 10.2629 134.719 10.8057C135.266 11.349 135.539 12.1328 135.54 13.1574L135.541 22.1032H139.458L139.457 12.6656C139.457 10.678 138.915 9.1202 137.832 7.99277C136.748 6.86598 135.376 6.30193 133.717 6.30193C131.651 6.30193 130.143 7.01963 129.192 8.45394L129.191 6.73243H125.274L125.275 22.1032H129.193ZM10.0985 18.0607C9.48062 18.4194 8.77741 18.5986 7.98783 18.5986C6.81336 18.5986 5.84147 18.2043 5.07221 17.4152C4.30244 16.6264 3.91789 15.6273 3.91772 14.4178C3.91755 13.1881 4.30197 12.179 5.07158 11.3897C5.84072 10.6011 6.8124 10.2062 7.98687 10.2062C8.75601 10.2062 9.44933 10.3906 10.0673 10.7596C10.6847 11.1284 11.1455 11.6308 11.4492 12.2659L14.82 10.2676C14.1922 9.05871 13.2709 8.09561 12.0562 7.37791C10.8413 6.66088 9.49449 6.30193 8.01678 6.30193C5.72871 6.30193 3.82066 7.08112 2.2923 8.63842C0.763487 10.196 -0.000125651 12.1228 1.55079e-08 14.4178C0.000335148 16.7133 0.76445 18.64 2.29356 20.1973C3.82225 21.755 5.73042 22.5336 8.01849 22.5336C9.49621 22.5336 10.8431 22.1695 12.0578 21.4423C13.2723 20.7151 14.2137 19.7466 14.8818 18.5373L11.4801 16.5697C11.1765 17.2052 10.7158 17.7024 10.0985 18.0607ZM115.162 22.5336C118.078 22.5336 120.285 21.4375 121.783 19.2443L118.624 17.3998C117.855 18.4248 116.721 18.9368 115.223 18.9368C112.894 18.9368 111.467 17.9737 110.94 16.0471H122.39C122.491 15.4736 122.542 14.9304 122.542 14.4178C122.541 12.1228 121.817 10.196 120.369 8.63842C118.921 7.08112 117.084 6.30193 114.857 6.30193C112.508 6.30193 110.585 7.0758 109.087 8.62301C107.589 10.1707 106.84 12.1021 106.84 14.4178C106.841 16.7541 107.6 18.6909 109.119 20.2279C110.637 21.7651 112.652 22.5336 115.162 22.5336ZM112.246 10.6827C112.934 10.1399 113.804 9.86811 114.857 9.86811C115.748 9.86811 116.543 10.1245 117.242 10.6366C117.94 11.149 118.401 11.9278 118.624 12.9729H110.879C111.102 11.9892 111.557 11.226 112.246 10.6827ZM34.529 6.30193C32.1801 6.30193 30.2569 7.0758 28.7591 8.62301C27.2606 10.1707 26.5121 12.1021 26.5122 14.4178C26.5126 16.7541 27.272 18.6909 28.7907 20.2279C30.3093 21.7651 32.3239 22.5336 34.8344 22.5336C37.7501 22.5336 39.9565 21.4375 41.4548 19.2443L38.2962 17.3998C37.5266 18.4248 36.393 18.9368 34.8949 18.9368C32.5664 18.9368 31.1388 17.9737 30.6124 16.0471H42.0618C42.1629 15.4736 42.2135 14.9304 42.2135 14.4178C42.2132 12.1228 41.4889 10.196 40.0414 8.63842C38.5934 7.08112 36.756 6.30193 34.529 6.30193ZM30.5514 12.9729C30.7738 11.9892 31.2293 11.226 31.9177 10.6827C32.6057 10.1399 33.4764 9.86811 34.5294 9.86811C35.4202 9.86811 36.2149 10.1245 36.9136 10.6366C37.6121 11.149 38.0725 11.9278 38.2957 12.9729H30.5514ZM22.7918 7.16277C21.9514 7.6546 21.3493 8.39245 20.985 9.37611L20.9847 6.73243H17.0669L17.0686 22.1032H20.9865L20.9855 14.756C20.9854 13.2804 21.456 12.225 22.3975 11.5896C23.3388 10.9546 24.4065 10.7086 25.6014 10.8518L25.6009 6.42492C24.5683 6.42492 23.6316 6.67094 22.7918 7.16277ZM53.6324 13.5109C52.8626 13.2141 52.0933 12.9682 51.3242 12.7732C50.5545 12.5786 49.9014 12.3534 49.3652 12.0969C48.8284 11.8408 48.5604 11.508 48.5602 11.0977C48.5602 10.7086 48.7273 10.4012 49.0613 10.1755C49.3954 9.95021 49.8154 9.83727 50.3217 9.83727C51.4552 9.83727 52.2652 10.3599 52.7514 11.4051L56.0919 9.56059C55.5043 8.51544 54.7046 7.7114 53.6923 7.14735C52.6797 6.58393 51.5559 6.30193 50.3212 6.30193C48.6813 6.30193 47.3093 6.73763 46.2061 7.60852C45.1026 8.47987 44.5513 9.67353 44.5515 11.1899C44.5516 12.1944 44.8198 13.0295 45.3566 13.6953C45.8928 14.3616 46.5458 14.8483 47.3156 15.1556C48.0848 15.4631 48.854 15.7195 49.6238 15.9241C50.3929 16.1292 51.046 16.3598 51.5826 16.6159C52.1188 16.8724 52.3876 17.2052 52.3876 17.6149C52.3878 18.4964 51.6893 18.9368 50.2923 18.9368C48.7534 18.9368 47.761 18.2712 47.3158 16.9386L43.9144 18.8753C45.0485 21.3145 47.1745 22.5336 50.2926 22.5336C52.0336 22.5336 53.4861 22.108 54.6507 21.2579C55.8144 20.4075 56.3967 19.1933 56.3964 17.6149C56.3964 16.5697 56.1276 15.6989 55.5914 15.0019C55.0546 14.3055 54.4015 13.8083 53.6324 13.5109ZM168.429 6.73243H164.511L164.512 15.0326C164.513 16.3036 164.209 17.2566 163.602 17.8916C162.994 18.5271 162.184 18.8446 161.172 18.8446C160.261 18.8446 159.532 18.5733 158.985 18.03C158.439 17.4872 158.165 16.7033 158.165 15.6782L158.164 6.73243H154.246L154.248 16.1701C154.248 18.1582 154.789 19.716 155.873 20.8428C156.956 21.9702 158.328 22.5336 159.988 22.5336C162.053 22.5336 163.561 21.8166 164.513 20.3818L164.513 22.1032H168.431L168.429 6.73243ZM149.732 32.3837C149.394 32.1346 149.028 31.9424 148.632 31.8044C148.13 31.6293 147.627 31.4562 147.126 31.2755C147.03 31.2408 146.936 31.187 146.858 31.1211C146.699 30.986 146.709 30.7533 146.881 30.6357C146.97 30.5742 147.08 30.527 147.187 30.5068C147.815 30.388 148.361 30.5512 148.806 31.017C148.873 31.0873 148.912 31.0941 148.99 31.0352C149.443 30.6925 149.901 30.3553 150.357 30.0159C150.385 29.9949 150.412 29.9712 150.444 29.9446C150.136 29.5348 149.76 29.218 149.305 28.9982C148.571 28.6434 147.795 28.5368 146.991 28.6416C146.478 28.7085 146 28.8765 145.563 29.165C144.34 29.9727 144.334 31.6723 145.34 32.514C145.711 32.8244 146.129 33.0406 146.582 33.1986C147.092 33.376 147.599 33.5602 148.104 33.7496C148.199 33.7851 148.291 33.847 148.364 33.9171C148.524 34.0696 148.517 34.3182 148.347 34.4591C148.266 34.5261 148.165 34.5785 148.064 34.6098C147.321 34.8416 146.452 34.5284 146.022 33.8808C145.999 33.8454 145.975 33.8104 145.947 33.7689C145.394 34.1671 144.85 34.5589 144.301 34.9546C144.338 35.003 144.362 35.0391 144.391 35.0722C144.472 35.1662 144.549 35.2637 144.636 35.3516C145.456 36.1783 146.459 36.5522 147.614 36.5404C148.286 36.5335 148.92 36.3838 149.503 36.0358C150.846 35.2342 150.98 33.3032 149.732 32.3837ZM149.601 18.5219C149.095 18.491 148.71 18.3528 148.447 18.1068C148.184 17.8609 148.052 17.4718 148.052 16.9386L148.052 10.5444H151.483L151.483 6.73243H148.051L148.051 2.42861L144.133 3.62742L144.133 6.73243H141.491L141.492 10.5444H144.134L144.135 16.9386C144.135 19.0497 144.686 20.5153 145.79 21.3346C146.894 22.1541 148.792 22.4106 151.485 22.1032L151.484 18.5064C150.735 18.5478 150.107 18.5525 149.601 18.5219ZM165.89 30.5763V28.7486H164.746V36.143H165.89V35.864C165.89 31.7621 166.741 29.8926 168.917 29.8926V28.5951C167.383 28.5951 166.518 29.4182 165.89 30.5763ZM139.292 28.5789C137.082 28.5789 135.291 30.3699 135.291 32.5792C135.291 34.7885 137.082 36.5795 139.292 36.5795C141.501 36.5795 143.292 34.7885 143.292 32.5792C143.292 30.3699 141.501 28.5789 139.292 28.5789ZM139.292 34.5164C138.222 34.5164 137.354 33.6491 137.354 32.5792C137.354 31.5093 138.222 30.642 139.292 30.642C140.361 30.642 141.229 31.5093 141.229 32.5792C141.229 33.6491 140.361 34.5164 139.292 34.5164ZM161.453 28.7625C161.453 29.3345 161.439 29.8648 161.411 30.3391C160.769 29.2927 159.806 28.5393 158.453 28.5393C156.165 28.5393 155.007 30.5345 155.007 32.4737C155.007 34.5805 156.388 36.157 158.425 36.157C159.904 36.157 160.769 35.5013 161.411 34.5247V35.5291C161.411 37.1476 160.448 38.0684 159.22 38.3335C158.369 38.5009 157.114 38.2359 156.402 37.5661L155.802 38.5567C156.835 39.4078 158.383 39.645 159.444 39.4217C161.146 39.0729 162.555 37.7475 162.555 35.5291C162.555 34.4688 162.499 33.4504 162.248 32.4318C162.541 31.2041 162.597 29.8787 162.597 28.7625H161.453ZM158.299 35.0129C157.072 35.0129 156.151 33.9526 156.151 32.4737C156.151 30.8972 157.03 29.6694 158.453 29.6694C159.709 29.6694 160.741 30.8273 161.202 32.418C160.532 34.9292 159.039 35.0129 158.299 35.0129ZM173.215 28.4696C171.094 28.4835 169.406 30.2555 169.378 32.39C169.364 34.5385 171.052 36.3105 173.159 36.3105C175.294 36.3105 176.982 34.5385 177.01 32.404C177.024 30.2555 175.336 28.4835 173.215 28.4696ZM173.173 35.1942C171.722 35.1942 170.55 33.9386 170.564 32.404C170.578 30.8553 171.764 29.5857 173.215 29.5857C174.666 29.5857 175.838 30.8413 175.824 32.39C175.81 33.9386 174.624 35.1942 173.173 35.1942ZM188.079 9.99093C188.888 9.99093 189.516 10.2475 189.962 10.7596C190.407 11.272 190.63 11.9892 190.63 12.9115L190.631 22.1032H194.549L194.548 12.6348C194.548 10.7086 194.026 9.17147 192.983 8.02361C191.94 6.87603 190.548 6.30193 188.807 6.30193C186.803 6.30193 185.295 7.03978 184.282 8.51544C183.391 7.03978 182.014 6.30193 180.152 6.30193C178.249 6.30193 176.842 6.98897 175.931 8.36174L175.93 6.73243H172.013L172.014 22.1032H175.932L175.931 13.4648C175.931 12.338 176.189 11.4771 176.705 10.8824C177.222 10.2883 177.915 9.99093 178.786 9.99093C179.595 9.99093 180.223 10.2475 180.669 10.7596C181.114 11.272 181.337 11.9892 181.337 12.9115L181.338 22.1032H185.256L185.255 13.4648C185.255 12.338 185.502 11.4771 185.999 10.8824C186.494 10.2883 187.188 9.99093 188.079 9.99093ZM120.841 33.8901C120.811 33.9285 120.786 33.9592 120.762 33.9901C120.596 34.2005 120.402 34.3792 120.156 34.4899C119.514 34.7794 118.857 34.7933 118.206 34.5371C117.662 34.3235 117.212 33.6521 117.224 33.1072C117.274 33.1072 117.324 33.1072 117.375 33.1072C119.117 33.1072 120.859 33.1068 122.602 33.1083C122.686 33.1084 122.739 33.1052 122.752 32.9959C123.028 30.6834 121.372 28.625 119.012 28.6049C117.95 28.5959 117.028 28.9403 116.28 29.6911C115.313 30.6615 114.966 31.8593 115.165 33.1903C115.389 34.6878 116.242 35.7226 117.66 36.278C118.363 36.5533 119.094 36.5927 119.834 36.5008C120.404 36.43 120.941 36.2557 121.416 35.9191C121.799 35.6475 122.109 35.3063 122.383 34.9099C121.865 34.5671 121.355 34.2301 120.841 33.8901ZM118.974 30.3763C119.844 30.3837 120.566 30.9775 120.622 31.7395C119.508 31.7395 118.395 31.7395 117.282 31.7395C117.352 30.974 118.106 30.369 118.974 30.3763ZM110.84 34.4383C109.778 34.435 108.968 33.6028 108.971 32.5197C108.974 31.4587 109.796 30.6465 110.86 30.6517C111.494 30.6548 112.063 30.9763 112.409 31.4587L114.186 30.2991C114.146 30.2441 114.106 30.1894 114.063 30.1357C113.286 29.1606 112.261 28.6566 111.013 28.6099C110.124 28.5767 109.292 28.7751 108.558 29.2842C107.319 30.144 106.858 31.1584 106.857 32.6114C106.857 33.647 107.192 34.5677 107.913 35.3146C109.015 36.456 110.383 36.7681 111.89 36.4178C112.886 36.1862 113.689 35.6115 114.21 34.7996L112.386 33.6491C112.035 34.1266 111.469 34.4402 110.84 34.4383ZM131.988 38.2753C132.331 37.0679 132.504 35.7801 132.449 34.466C133.756 32.751 134.175 30.4023 134.412 29.0726L132.366 28.7086C132.208 29.5946 132.031 30.3967 131.812 31.1034C131.223 29.6319 129.785 28.5921 128.103 28.5921C125.896 28.5921 124.107 30.381 124.107 32.5877C124.107 34.7944 125.896 36.5832 128.103 36.5832C128.274 36.5832 128.443 36.5712 128.609 36.5503C129.247 36.503 129.813 36.3642 130.316 36.1542C130.244 36.7179 130.127 37.2667 129.97 37.7932C126.577 37.0896 124.171 38.4517 122.999 40.0792C121.943 41.547 121.812 43.3298 122.675 44.5156C123.245 45.2996 124.062 45.7002 124.993 45.7002C125.652 45.7002 126.369 45.4992 127.095 45.0913C128.67 44.2074 130.223 42.4532 131.249 40.2565C132.888 40.5946 135.798 40.8129 137.558 38.0229L135.8 36.9145C135.011 38.1667 133.872 38.5896 131.988 38.2753ZM128.396 34.4806C128.213 34.4922 128.024 34.4938 127.824 34.4827C126.899 34.347 126.185 33.5501 126.185 32.5877C126.185 31.5302 127.045 30.6699 128.103 30.6699C128.791 30.6699 129.394 31.0359 129.733 31.5822C129.835 31.834 129.925 32.0858 130.002 32.3372C130.013 32.4194 130.02 32.5026 130.02 32.5877C130.02 33.5453 129.314 34.3389 128.396 34.4806ZM126.078 43.2793C125.262 43.738 124.682 43.7426 124.355 43.2936C124.032 42.8493 124.171 42.008 124.686 41.293C125.527 40.1236 126.849 39.6962 128.188 39.6962C128.515 39.6962 128.843 39.7217 129.166 39.7682C128.293 41.4358 127.1 42.706 126.078 43.2793ZM184.07 28.8741C184.07 33.8549 182.242 35.1804 181.182 35.1804C180.122 35.1804 179.494 34.3711 179.494 33.3806V28.7486H178.35V33.3806C178.35 34.8456 179.34 36.3244 181.098 36.3244C182.34 36.3244 183.358 35.585 184.07 34.148V36.143H185.214V28.7486H184.07V28.8741Z" fill="white"></path>
</svg>