<svg width="123" height="43" viewBox="0 0 123 43" fill="none" xmlns="http://www.w3.org/2000/svg">
<path d="M95.1521 39.299C95.1521 41.1898 96.5484 42.5185 98.3583 42.5185C100.168 42.5185 101.565 41.1387 101.565 39.299V26.1141C101.565 20.7993 104.616 17.9375 109.27 17.9375C113.924 17.9375 115.837 20.3905 115.837 24.7854V39.3501C115.837 41.2409 117.234 42.5696 119.044 42.5696C120.854 42.5696 122.25 41.1898 122.25 39.3501V24.1211C122.25 16.8643 117.958 12.0094 110.769 12.0094C103.581 12.0094 103.943 13.4403 102.237 15.7911C101.927 16.2 101.513 16.0977 101.513 15.5356V3.27065C101.513 1.37981 100.117 0.051104 98.3066 0.051104C96.4967 0.051104 95.1004 1.43091 95.1004 3.27065V39.299H95.1521ZM68.5199 21.0548C68.5199 25.6542 71.7261 28.1072 75.8114 29.3337L81.1896 30.8668C83.5167 31.5311 84.7061 32.2977 84.7061 33.8819C84.7061 35.4662 82.7927 37.2037 79.3796 37.2037C75.9666 37.2037 75.2426 36.3349 73.9497 34.9551C72.8121 33.8308 71.0021 33.5753 69.6059 34.6485C68.2096 35.7217 67.951 37.7147 69.2439 39.1456C71.6227 41.7519 75.5529 42.9784 79.3796 42.9784C85.1198 42.9784 91.0151 40.2699 91.0151 33.6264C91.0151 26.9829 87.964 26.6252 83.3098 25.2454L77.9317 23.7122C75.5529 22.9968 74.8289 22.1791 74.8289 20.7993C74.8289 19.4195 76.6388 17.8353 79.4313 17.8353C82.2238 17.8353 83.465 18.7041 85.0163 19.8283C86.5677 20.9526 88.5328 20.7482 89.5154 19.4706C90.4462 18.2441 90.5497 16.4555 89.05 15.1779C86.7746 13.2359 83.6718 12.0605 79.3796 12.0605C75.0874 12.0605 68.5199 15.2801 68.5199 21.1059M39.1985 27.4939C39.1985 21.8725 43.0253 17.9375 48.5586 17.9375C54.0919 17.9375 57.9187 21.9236 57.9187 27.4939C57.9187 33.0643 54.0919 37.0504 48.5586 37.0504C43.0253 37.0504 39.1985 33.0643 39.1985 27.4939ZM32.631 27.4939C32.631 36.2327 39.0951 42.9273 47.4726 42.9273C55.8502 42.9273 55.1262 41.2409 57.143 38.4813C57.505 38.0213 57.867 38.1747 57.867 38.7368V39.3501C57.867 41.2409 59.2632 42.5696 61.0732 42.5696C62.8831 42.5696 64.2794 41.1898 64.2794 39.3501V15.6378C64.2794 13.747 62.8831 12.4183 61.0732 12.4183C59.2632 12.4183 57.867 13.7981 57.867 15.6378V16.0977C57.867 16.6088 57.505 16.8132 57.143 16.3533C55.1262 13.6959 52.0751 12.0605 47.5243 12.0605C39.1468 12.0605 32.631 18.9085 32.631 27.4939ZM22.0298 39.299C22.0298 41.1898 23.426 42.5185 25.236 42.5185C27.046 42.5185 28.4422 41.1387 28.4422 39.299V3.27065C28.4422 1.37981 27.046 0.051104 25.236 0.051104C23.426 0.051104 22.0298 1.43091 22.0298 3.27065V39.299ZM7.75697 42.5696C9.61864 42.5696 10.9632 41.1898 10.9632 39.3501V19.3684C10.9632 19.0107 11.2217 18.7552 11.5837 18.7552H15.1519C16.9619 18.7552 18.3064 17.4776 18.3064 15.74C18.3064 14.0025 16.9102 12.7249 15.1519 12.7249H11.5837C11.2217 12.7249 10.9632 12.4694 10.9632 12.1116V10.6296C10.9632 7.92112 12.4629 6.33689 15.1519 6.08137C17.3239 5.92806 18.5133 4.80377 18.5133 2.96403C18.5133 1.12429 17.4273 0 15.0485 0C8.94637 0.051104 4.55075 4.65046 4.55075 10.834V12.1116C4.55075 12.4694 4.29219 12.7249 3.9302 12.7249H3.1545C1.34454 12.7249 0 14.0025 0 15.74C0 17.4776 1.39625 18.7552 3.1545 18.7552H3.9302C4.29219 18.7552 4.55075 19.0107 4.55075 19.3684V39.3501C4.55075 41.2409 5.94701 42.5696 7.75697 42.5696Z" fill="white"></path>
</svg>