<svg width="138" height="26" viewBox="0 0 138 26" fill="none" xmlns="http://www.w3.org/2000/svg">
<g clip-path="url(#clip0_9589_1077)">
<mask id="mask0_9589_1077" style="mask-type:luminance" maskUnits="userSpaceOnUse" x="0" y="0" width="138" height="26">
<path d="M0 9.53674e-07H138V26H0V9.53674e-07Z" fill="white"></path>
</mask>
<g mask="url(#mask0_9589_1077)">
<path d="M21.2742 9.53674e-07H5.35573C2.3978 9.53674e-07 0 2.34117 0 5.22925V20.7713C0 21.1362 0.0387457 21.4925 0.111442 21.8364L11.8243 10.4001H5.71189C5.49872 10.4001 5.32604 10.2315 5.32604 10.0234V7.46031C5.32604 6.21218 6.36243 5.20026 7.64075 5.20026H19.3744C20.4396 5.20026 21.3032 6.04357 21.3032 7.0837V18.5402C21.3032 19.7883 20.2669 20.8003 18.9885 20.8003H16.3634C16.1504 20.8003 15.9777 20.6315 15.9777 20.4235V14.4555L4.26541 25.8912C4.61691 25.9627 4.98199 26 5.35573 26H21.2742C24.2317 26 26.6294 23.6591 26.6294 20.7713V5.22873C26.6294 2.34091 24.2317 9.53674e-07 21.2742 9.53674e-07Z" fill="white"></path>
</g>
<mask id="mask1_9589_1077" style="mask-type:luminance" maskUnits="userSpaceOnUse" x="0" y="0" width="138" height="26">
<path d="M0 9.53674e-07H138V26H0V9.53674e-07Z" fill="white"></path>
</mask>
<g mask="url(#mask1_9589_1077)">
<path d="M43.2645 5.20199H47.6634C47.9291 5.20199 48.1153 5.45822 48.0274 5.70314L42.7232 20.5C42.669 20.6511 42.5231 20.7522 42.359 20.7522H39.2956C38.1469 20.7522 37.1238 20.0425 36.7457 18.9834L32.0043 5.70262C31.9168 5.45783 32.1029 5.20199 32.3685 5.20199H36.9279C37.0997 5.20199 37.2507 5.31275 37.2985 5.47382L40.107 14.932L42.8937 5.47447C42.9414 5.31314 43.0925 5.20199 43.2645 5.20199Z" fill="white"></path>
</g>
<mask id="mask2_9589_1077" style="mask-type:luminance" maskUnits="userSpaceOnUse" x="0" y="0" width="138" height="26">
<path d="M0 9.53674e-07H138V26H0V9.53674e-07Z" fill="white"></path>
</mask>
<g mask="url(#mask2_9589_1077)">
<path d="M54.4186 16.6424H61.2223C61.4353 16.6424 61.608 16.811 61.608 17.019V20.3755C61.608 20.5835 61.4353 20.7522 61.2223 20.7522H52.0681C50.5766 20.7522 49.3677 19.5717 49.3677 18.1154V5.5786C49.3677 5.3706 49.5404 5.20199 49.7534 5.20199H60.9948C61.2078 5.20199 61.3805 5.3706 61.3805 5.5786V8.93507C61.3805 9.14307 61.2078 9.31168 60.9948 9.31168H54.4186V10.9778H60.1304C60.3436 10.9778 60.5162 11.1464 60.5162 11.3544V14.3775C60.5162 14.5855 60.3436 14.7543 60.1304 14.7543H54.4186V16.6424Z" fill="white"></path>
</g>
<mask id="mask3_9589_1077" style="mask-type:luminance" maskUnits="userSpaceOnUse" x="0" y="0" width="138" height="26">
<path d="M0 9.53674e-07H138V26H0V9.53674e-07Z" fill="white"></path>
</mask>
<g mask="url(#mask3_9589_1077)">
<path d="M74.2124 5.20199H78.3777C78.5907 5.20199 78.7635 5.3706 78.7635 5.57873V20.3755C78.7635 20.5836 78.5907 20.7522 78.3777 20.7522H75.3894C74.4595 20.7522 73.595 20.285 73.1012 19.5156L68.6619 12.5994V20.3755C68.6619 20.5836 68.489 20.7522 68.276 20.7522H64.1103C63.8973 20.7522 63.7246 20.5836 63.7246 20.3755V5.57873C63.7246 5.3706 63.8973 5.20199 64.1103 5.20199H67.0796C68.0076 5.20199 68.8706 5.66726 69.365 6.43413L73.8265 13.3548V5.57873C73.8265 5.3706 73.9994 5.20199 74.2124 5.20199Z" fill="white"></path>
</g>
<mask id="mask4_9589_1077" style="mask-type:luminance" maskUnits="userSpaceOnUse" x="0" y="0" width="138" height="26">
<path d="M0 9.53674e-07H138V26H0V9.53674e-07Z" fill="white"></path>
</mask>
<g mask="url(#mask4_9589_1077)">
<path d="M86.3632 16.4205H87.5692C89.344 16.4205 90.8454 14.9542 90.8454 12.9773C90.8454 11.0223 89.344 9.53385 87.5692 9.53385H86.3632V16.4205ZM81.3125 20.3756V5.57873C81.3125 5.37073 81.4853 5.20199 81.6984 5.20199H87.5692C92.4834 5.20199 95.8963 8.53415 95.8963 12.9773C95.8963 17.42 92.4834 20.7522 87.5692 20.7522H81.6984C81.4853 20.7522 81.3125 20.5836 81.3125 20.3756Z" fill="white"></path>
</g>
<mask id="mask5_9589_1077" style="mask-type:luminance" maskUnits="userSpaceOnUse" x="0" y="0" width="138" height="26">
<path d="M0 9.53674e-07H138V26H0V9.53674e-07Z" fill="white"></path>
</mask>
<g mask="url(#mask5_9589_1077)">
<path d="M102.973 16.6424H109.777C109.99 16.6424 110.162 16.811 110.162 17.019V20.3755C110.162 20.5835 109.99 20.7522 109.777 20.7522H100.622C99.131 20.7522 97.9219 19.5717 97.9219 18.1154V5.5786C97.9219 5.3706 98.0947 5.20199 98.3077 5.20199H109.549C109.762 5.20199 109.935 5.3706 109.935 5.5786V8.93507C109.935 9.14307 109.762 9.31168 109.549 9.31168H102.973V10.9778H108.684C108.897 10.9778 109.07 11.1464 109.07 11.3544V14.3775C109.07 14.5855 108.897 14.7543 108.684 14.7543H102.973V16.6424Z" fill="white"></path>
</g>
<mask id="mask6_9589_1077" style="mask-type:luminance" maskUnits="userSpaceOnUse" x="0" y="0" width="138" height="26">
<path d="M0 9.53674e-07H138V26H0V9.53674e-07Z" fill="white"></path>
</mask>
<g mask="url(#mask6_9589_1077)">
<path d="M112.029 14.7109V13.5035C112.029 12.0472 113.238 10.8667 114.729 10.8667H119.743C119.956 10.8667 120.128 11.0354 120.128 11.2434V12.4509C120.128 13.9071 118.919 15.0876 117.428 15.0876H112.415C112.201 15.0876 112.029 14.9189 112.029 14.7109Z" fill="white"></path>
</g>
<mask id="mask7_9589_1077" style="mask-type:luminance" maskUnits="userSpaceOnUse" x="0" y="0" width="138" height="26">
<path d="M0 9.53674e-07H138V26H0V9.53674e-07Z" fill="white"></path>
</mask>
<g mask="url(#mask7_9589_1077)">
<path d="M121.903 12.9772C121.903 8.55644 125.475 4.86873 130.208 4.86873C135.639 4.86873 137.522 8.67019 137.988 10.4617C138.046 10.6858 137.887 10.9076 137.652 10.9304L133.313 11.3501C133.151 11.3659 132.994 11.2814 132.926 11.1363C132.583 10.3987 131.797 9.31187 130.208 9.31187C128.433 9.31187 126.954 10.7556 126.954 12.9772C126.954 15.1987 128.433 16.6424 130.208 16.6424C131.232 16.6424 131.936 16.1786 132.4 15.6396C132.97 14.9762 133.861 14.6608 134.744 14.7502L137.649 15.044C137.886 15.0679 138.045 15.2912 137.983 15.5148C137.52 17.1784 135.583 21.0854 130.208 21.0854C125.475 21.0854 121.903 17.3979 121.903 12.9772Z" fill="white"></path>
</g>
</g>
<defs>
<clipPath id="clip0_9589_1077">
<rect width="138" height="26" fill="white"></rect>
</clipPath>
</defs>
</svg>