<svg width="61" height="61" viewBox="0 0 61 61" fill="none" xmlns="http://www.w3.org/2000/svg">
<g clip-path="url(#clip0_9589_571)">
<path d="M0.000194175 26.143C0.000194175 55.029 -0.0423979 52.9164 0.545373 54.569C1.5761 57.4397 3.86756 59.5608 6.90863 60.4552L7.70937 60.6937L34.2272 60.7193L60.7365 60.7363L60.7195 34.227L60.694 7.70915L60.4554 6.90842C59.561 3.86734 57.4399 1.57589 54.5692 0.545158C52.9166 -0.042613 55.0292 -2.08952e-05 26.1432 -2.08952e-05H0.000194175V26.143ZM45.6163 18.042C49.7563 18.8342 52.1415 20.8957 52.9507 24.4053C53.1807 25.3764 53.1807 27.9745 52.9507 28.8348C52.7463 29.6441 52.0733 31.0156 51.5878 31.663C51.0681 32.3529 50.2078 33.1281 49.4411 33.6222L48.8278 34.0055L49.2111 34.8744C49.4241 35.3429 49.9607 36.6633 50.3952 37.8047C52.1074 42.2428 53.2233 44.4235 54.5692 45.8972L55.0548 46.4424L50.8041 46.3998C47.3456 46.3658 46.4511 46.3317 45.9912 46.2295C44.0575 45.7695 42.7456 44.6961 41.8001 42.805C41.6382 42.4728 40.5053 39.5851 39.2872 36.3736C38.069 33.1622 37.0468 30.4789 37.0127 30.4107C36.9701 30.2915 37.132 30.283 38.3672 30.3085C40.4542 30.3596 41.5956 30.0615 42.3793 29.2608C42.8649 28.7582 43.0608 28.1448 42.9842 27.4123C42.9245 26.833 42.7712 26.4838 42.3879 26.0834C41.7234 25.3678 40.9397 25.1975 38.3416 25.1804L36.3483 25.1719L32.2935 35.7774L28.2388 46.3828L22.6166 46.4083C16.3641 46.4339 15.6996 46.3998 14.8393 45.9995C14.1237 45.6672 13.4934 45.0113 13.1015 44.2021C12.846 43.6739 5.85235 25.8108 5.73309 25.3593C5.6905 25.223 5.92902 25.2145 9.82193 25.2145C12.5393 25.2145 14.1152 25.2486 14.4134 25.3082C15.4611 25.5297 16.3896 26.2197 16.8837 27.1312C17.0115 27.3697 17.6333 29.0904 18.2722 30.9644C18.9026 32.8385 19.6607 35.0533 19.9418 35.8796L20.4614 37.3959H21.1174H21.7648L25.2488 27.7871C27.1654 22.5057 28.7754 18.1016 28.8265 17.9909L28.9117 17.795L36.7913 17.829C44.3812 17.8631 44.7134 17.8716 45.6163 18.042Z" fill="white"></path>
</g>
<defs>
<clipPath id="clip0_9589_571">
<rect width="60.8215" height="60.8215" fill="white"></rect>
</clipPath>
</defs>
</svg>