<svg width="187" height="80" viewBox="0 0 187 80" fill="none" xmlns="http://www.w3.org/2000/svg">
<path d="M37.6425 20.1358C35.4824 17.9992 32.5113 16.6819 29.2312 16.6819C29.1802 16.6819 29.1278 16.6819 29.0768 16.6833C29.0092 16.6833 28.943 16.686 28.8754 16.6888L27.474 18.3136L28.8754 19.9399C28.943 19.9371 29.0092 19.9358 29.0768 19.9344C29.1278 19.933 29.1802 19.933 29.2312 19.933C31.612 19.933 33.7707 20.8875 35.3431 22.4365C36.9514 24.0172 37.9487 26.2173 37.9487 28.6518C37.9487 28.6863 37.9487 28.7222 37.9487 28.7553C37.9211 31.1746 36.9087 33.3554 35.2921 34.9182C33.7238 36.4368 31.5872 37.3693 29.2312 37.3693C29.1802 37.3693 29.1278 37.3693 29.0768 37.3679C26.7043 37.3279 24.5635 36.3375 23.0159 34.7637L20.7166 37.0617C22.8504 39.2245 25.8049 40.5762 29.0754 40.6176C29.1264 40.619 29.1788 40.619 29.2299 40.619C32.4823 40.619 35.4314 39.3224 37.5887 37.2162C39.7929 35.0658 41.1695 32.0712 41.197 28.7539C41.197 28.7194 41.197 28.6849 41.197 28.6504C41.197 25.3193 39.8356 22.3055 37.6397 20.1371" fill="white"></path>
<path d="M39.856 17.9468C37.1346 15.2515 33.3897 13.5867 29.2558 13.5867C29.2047 13.5867 29.1523 13.5867 29.1013 13.5867C24.9495 13.6281 21.2018 15.3495 18.5024 18.1013C15.8362 20.8172 14.1934 24.5414 14.1934 28.6491C14.1934 28.6836 14.1934 28.7181 14.1934 28.7525C14.2196 32.8451 15.7699 36.5513 18.4431 39.2493C21.1397 41.9708 24.8074 43.6701 28.882 43.7115V40.6149C25.8709 40.5749 22.766 39.2218 20.6321 37.0603C18.5176 34.9223 17.2596 31.9912 17.2334 28.7525C17.2334 28.7181 17.2596 28.6836 17.2596 28.6491C17.2596 25.3966 18.57 22.4476 20.6763 20.2903C22.8156 18.0971 25.7978 16.7247 29.0944 16.6833C29.1468 16.6819 29.2006 16.6819 29.2516 16.6819C32.5303 16.6819 35.5042 17.9992 37.6643 20.1358C39.8616 22.3041 41.223 25.3469 41.223 28.6781C41.223 28.7125 41.223 28.656 41.223 28.8105L42.7761 30.2091L44.3182 28.8105C44.3182 28.656 44.3182 28.7125 44.3182 28.6781C44.3182 24.4931 42.6106 20.6765 39.8547 17.9454" fill="white"></path>
<path d="M41.9928 15.7506C38.7114 12.4954 34.1099 10.4829 29.1222 10.4829C29.0698 10.4829 28.8849 10.4829 28.8849 10.4829V13.5782C28.8849 13.5782 29.0974 13.5782 29.1484 13.5782C33.2823 13.5782 37.081 15.243 39.8038 17.9383C42.5597 20.6694 44.295 24.4557 44.295 28.642C44.295 28.6764 44.3087 28.7109 44.3074 28.7454C44.2812 32.9165 42.5639 36.6849 39.7997 39.3967C37.0824 42.063 33.3623 43.7058 29.2546 43.7058C29.2022 43.7058 29.1525 43.7058 29.1015 43.7058C24.9773 43.6644 21.2503 41.994 18.5523 39.2726C15.8791 36.5746 14.2211 32.8324 14.1935 28.8047L12.6349 27.4737L11.0969 28.8047C11.1245 33.6076 13.1301 38.2022 16.3646 41.4616C19.6213 44.743 24.1221 46.7748 29.1015 46.8162C29.1525 46.8162 29.2036 46.8093 29.256 46.8093C34.2175 46.8093 38.6617 44.8161 41.9404 41.5898C45.2646 38.3194 47.3102 33.7731 47.3102 28.7468V28.6433C47.3102 23.6032 45.3088 19.0417 41.9928 15.752" fill="white"></path>
<path d="M90.3538 29.6199C88.1469 29.002 87.1993 28.1771 87.1993 26.8613C87.1993 25.5454 88.2669 24.6722 89.8173 24.6722C91.3676 24.6722 92.4904 25.6612 92.4904 26.973V27.0833C92.4904 27.2351 92.4794 27.5909 93.376 27.5909C94.2725 27.5909 94.2615 27.2613 94.2615 27.0833V26.8061C94.2615 24.7909 92.2794 23.2129 89.7193 23.2129C86.7344 23.2129 85.3882 25.1191 85.3882 26.8888C85.3882 28.882 86.5482 30.0682 89.2531 30.8572C91.7166 31.5648 92.6808 32.3938 92.6808 33.8104C92.6808 35.1401 91.6104 35.9994 89.9414 35.9994C88.4131 35.9994 87.1744 34.9925 87.1744 33.7552V33.6449C87.1744 33.4931 87.1855 33.1373 86.2889 33.1373C85.3923 33.1373 85.4034 33.4931 85.4034 33.6449V33.8669C85.4034 35.9153 87.3634 37.4601 89.9814 37.4601C92.5994 37.4601 94.4836 35.9484 94.4836 33.7842C94.4836 31.62 93.2118 30.431 90.3524 29.6213" fill="white"></path>
<path d="M105.124 32.8091C105.124 34.7181 103.887 35.9996 102.111 35.9996C100.336 35.9996 99.099 34.7471 99.099 32.8091V27.8614C99.099 25.9235 100.309 24.671 102.111 24.671C103.914 24.671 105.124 25.9524 105.124 27.8614V32.8091ZM102.111 23.2117C98.8231 23.2117 97.3279 25.5055 97.3279 27.7773V32.8933C97.3279 35.1664 98.8231 37.4589 102.111 37.4589C105.4 37.4589 106.895 35.1651 106.895 32.8933V27.7773C106.895 25.5041 105.4 23.2117 102.111 23.2117Z" fill="white"></path>
<path d="M114.25 35.8218C112.516 34.9983 111.628 33.4424 111.628 31.1968V17.8531C111.628 17.7068 111.639 17.3179 110.742 17.3179C109.845 17.3179 109.856 17.7068 109.856 17.8531V31.3637C109.856 34.1776 111.068 36.2204 113.368 37.2687C113.494 37.3225 113.663 37.3487 113.775 37.3487C114.196 37.3487 114.63 36.9956 114.63 36.3404C114.63 36.2645 114.64 36.0356 114.251 35.8218" fill="white"></path>
<path d="M125.625 23.3235C124.728 23.3235 124.739 23.6794 124.739 23.8311V32.8092C124.739 34.7182 123.502 35.9996 121.727 35.9996C119.952 35.9996 118.716 34.7472 118.716 32.8092V23.8311C118.716 23.6794 118.727 23.3235 117.83 23.3235C116.934 23.3235 116.943 23.6532 116.943 23.8311V32.8934C116.943 35.1665 118.439 37.459 121.727 37.459C125.015 37.459 126.51 35.1651 126.51 32.8934V23.8311C126.51 23.6794 126.522 23.3235 125.625 23.3235Z" fill="white"></path>
<path d="M149.191 32.8091C149.191 34.7181 147.954 35.9996 146.179 35.9996C144.403 35.9996 143.166 34.7471 143.166 32.8091V27.8614C143.166 25.9235 144.376 24.671 146.179 24.671C147.981 24.671 149.191 25.9524 149.191 27.8614V32.8091ZM146.179 23.2117C142.89 23.2117 141.395 25.5055 141.395 27.7773V32.8933C141.395 35.1664 142.89 37.4589 146.179 37.4589C149.467 37.4589 150.962 35.1651 150.962 32.8933V27.7773C150.962 25.5041 149.467 23.2117 146.179 23.2117Z" fill="white"></path>
<path d="M143.358 21.5097C143.893 21.5097 143.875 21.3511 143.875 21.1966V21.0297C143.875 20.2559 144.354 19.98 144.768 19.98C145.13 19.98 145.427 20.2187 145.675 20.4656C145.774 20.5538 145.879 20.6573 145.984 20.7649C146.427 21.2201 146.941 21.787 147.904 21.787C148.922 21.787 149.544 20.9883 149.544 19.7511V19.5C149.544 19.3648 149.562 19.1593 148.999 19.1593C148.437 19.1593 148.482 19.318 148.482 19.4724V19.6393C148.482 20.4132 148.06 20.689 147.648 20.689C147.283 20.689 147.079 20.4945 146.843 20.2587C146.744 20.1704 146.642 20.0656 146.534 19.9552C146.07 19.4766 145.471 18.8821 144.507 18.8821C143.489 18.8821 142.812 19.6821 142.812 20.918V21.169C142.812 21.3042 142.794 21.5097 143.356 21.5097" fill="white"></path>
<path d="M155.622 30.3331V27.6668C155.622 26.1757 156.485 24.6709 158.477 24.6709C160.469 24.6709 161.403 25.9702 161.403 27.1937C161.403 28.4172 160.819 29.133 159.633 29.453L156.815 30.1496C155.996 30.3827 155.623 30.7262 155.623 30.7262V30.3317L155.622 30.3331ZM162.266 32.6917C161.931 32.6917 161.292 32.751 161.292 33.1442V33.3386C161.292 34.6283 160.335 36.0008 158.444 36.0008C156.718 36.0008 155.623 34.8421 155.623 33.1166V32.5883C155.623 31.7938 156.569 31.5814 156.986 31.4917L159.884 30.7979C162.176 30.2586 163.211 29.173 163.211 27.2792C163.211 24.9233 161.245 23.2129 158.518 23.2129C155.791 23.2129 153.852 25.0171 153.852 27.8075V32.5331C153.852 35.6187 155.615 37.4615 158.561 37.4615C161.227 37.4615 163.243 35.7249 163.243 33.4242V33.2297C163.243 33.0559 163.165 32.6945 162.269 32.6945" fill="white"></path>
<path d="M170.985 29.6199C168.778 29.002 167.832 28.1771 167.832 26.8613C167.832 25.5454 168.892 24.6722 170.443 24.6722C171.993 24.6722 173.11 25.6612 173.11 26.973V27.0833C173.11 27.2351 173.099 27.5909 173.996 27.5909C174.893 27.5909 174.881 27.2613 174.881 27.0833V26.8061C174.881 24.7909 172.906 23.2129 170.346 23.2129C167.361 23.2129 166.018 25.1191 166.018 26.8888C166.018 28.882 167.181 30.0682 169.886 30.8572C172.349 31.5648 173.313 32.3938 173.313 33.8104C173.313 35.1401 172.236 35.9994 170.568 35.9994C169.04 35.9994 167.794 34.9925 167.794 33.7552V33.6449C167.794 33.4931 167.805 33.1373 166.909 33.1373C166.012 33.1373 166.023 33.4931 166.023 33.6449V33.8669C166.023 35.9153 167.99 37.4601 170.608 37.4601C173.226 37.4601 175.115 35.9484 175.115 33.7842C175.115 31.62 173.844 30.431 170.985 29.6213" fill="white"></path>
<path d="M134.13 23.2117C130.842 23.2117 129.347 25.5194 129.347 27.805V32.892C129.347 35.9031 131.591 37.2052 133.497 37.4038L134.038 37.459L134.136 37.4645C134.163 37.4879 134.18 37.4962 134.206 37.5224C134.394 37.7114 134.49 37.9211 134.49 38.1514C134.49 38.4314 134.412 38.6314 134.243 38.8176C134.056 39.0245 133.552 39.1018 133.552 39.1018C133.325 39.1018 133.067 39.2549 133.067 39.4894V39.5514C133.067 39.7873 133.325 39.9873 133.552 39.9873C133.552 39.9873 133.646 39.979 133.657 39.979C134.177 39.9735 134.554 39.797 134.903 39.448C135.256 39.0949 135.417 38.6631 135.417 38.1514C135.417 37.9197 135.368 37.6976 135.282 37.5155C135.254 37.4562 135.217 37.3555 135.217 37.3555L135.351 37.31C137.479 36.8369 138.914 35.1817 138.914 33.1678V33.0009C138.914 32.8699 138.925 32.5209 138.028 32.5209C137.132 32.5209 137.143 32.903 137.143 33.0285V33.1403C137.143 34.7693 135.823 35.9969 134.13 35.9969C132.355 35.9969 131.118 34.7155 131.118 32.8065V27.8863C131.118 25.9622 132.355 24.6683 134.13 24.6683C135.905 24.6683 137.143 25.8959 137.143 27.5249V27.6353C137.143 27.7608 137.132 28.1429 138.028 28.1429C138.925 28.1429 138.914 27.7953 138.914 27.6643V27.4974C138.914 25.0932 136.799 23.209 134.13 23.209" fill="white"></path>
<path d="M78.5081 34.8865C78.3384 34.8865 78.1687 34.943 78.0267 35.0561C77.6308 35.3679 77.1011 35.5375 76.5342 35.5375C75.09 35.5375 74.4197 34.4892 74.4197 33.3002V25.1055H78.4515C78.9053 25.1055 79.2446 24.7745 79.2446 23.9538C79.2446 23.1331 78.9053 22.802 78.4515 22.802H74.4197V19.1164C74.4197 18.6075 74.0252 18.2102 73.0914 18.2102C72.1576 18.2102 71.7617 18.6061 71.7617 19.1164V22.802H67.9919C67.0747 22.802 66.6236 23.2145 66.6236 23.7152V28.1911C66.6236 29.4422 66.4319 30.6367 65.9036 31.7774C65.4305 32.834 64.7381 34.0851 63.9587 35.0299C63.1808 34.0851 62.4194 32.834 61.9463 31.7774C61.418 30.6381 61.1297 29.4422 61.1297 28.1911V23.7152C61.1297 23.2145 60.8069 22.8531 59.8897 22.8531C58.9724 22.8531 58.6497 23.2145 58.6497 23.7152V28.4408C58.6497 30.0532 59.1366 31.5816 59.8593 33.0285C60.6649 34.612 61.687 35.9748 62.716 36.9486C63.1615 37.3927 63.5325 37.5886 63.9781 37.5886C64.4236 37.5886 64.7891 37.3941 65.2346 36.9486C66.2636 35.9761 67.1974 34.6134 68.003 33.0285C68.7258 31.5829 69.1037 30.0532 69.1037 28.4408V25.0586L69.9244 25.1055H71.7603V33.3292C71.7603 35.7927 73.2224 37.7458 76.3646 37.7458C77.6667 37.7458 79.5867 37.2369 79.5867 36.1886C79.5867 35.5941 78.9867 34.8865 78.5053 34.8865" fill="white"></path>
<path d="M12.5051 67.0845C12.0748 67.0845 11.7327 66.959 11.4775 66.7079C11.2224 66.4569 11.0955 66.119 11.0955 65.6955C11.0955 65.4169 11.1548 65.1824 11.2734 64.9907C11.392 64.7989 11.5479 64.6568 11.7396 64.5644C12.0831 64.3989 12.4445 64.3162 12.821 64.3162C13.1976 64.3162 13.5493 64.3327 13.8735 64.3658V63.592C13.8735 63.2085 13.8086 62.9451 13.6803 62.803C13.5507 62.6609 13.3052 62.5892 12.941 62.5892C12.5769 62.5892 12.1438 62.6789 11.6417 62.8568L11.4334 62.232C11.6251 62.1133 11.8775 62.0168 12.192 61.9437C12.5065 61.8706 12.7796 61.8347 13.0114 61.8347C13.6528 61.8347 14.1066 61.974 14.3714 62.2513C14.6362 62.5285 14.7686 62.9961 14.7686 63.6499V66.061C14.7686 66.2928 14.8487 66.4086 15.0073 66.4086C15.1135 66.4086 15.2583 66.3783 15.4445 66.319L15.5935 66.8748C15.3687 67.0197 15.0776 67.0928 14.7204 67.0928C14.3631 67.0928 14.1052 66.9245 13.9466 66.5866C13.8004 66.7259 13.5976 66.8431 13.3369 66.9383C13.0762 67.0335 12.7989 67.0817 12.5079 67.0817L12.5051 67.0845ZM12.6941 66.3796C13.1107 66.3796 13.5038 66.261 13.8748 66.0224V64.8706C13.7162 64.8444 13.4583 64.8306 13.101 64.8306C12.3272 64.8306 11.9369 65.0886 11.93 65.6045C11.93 66.1203 12.1851 66.3783 12.6941 66.3783V66.3796Z" fill="white"></path>
<path d="M19.9288 61.7465L20.8019 61.7962C21.3178 61.7962 21.864 61.7465 22.4392 61.6472L22.5578 62.4114C22.4323 62.4445 22.0874 62.501 21.5261 62.5797C21.7578 62.9038 21.8737 63.2707 21.8737 63.6817C21.8737 64.2514 21.7095 64.7135 21.3826 65.0707C21.0557 65.428 20.584 65.6059 19.9688 65.6059C19.7508 65.6059 19.5757 65.5894 19.4433 65.5563C19.4032 65.6749 19.3839 65.7784 19.3839 65.8639C19.3839 66.0818 19.5729 66.1908 19.9495 66.1908H20.8033C21.3123 66.1908 21.7095 66.3053 21.9937 66.5329C22.2778 66.7618 22.4199 67.0777 22.4199 67.4805C22.4199 68.0694 22.195 68.5329 21.7454 68.8695C21.2957 69.2074 20.7136 69.3757 19.9991 69.3757C19.2846 69.3757 18.7439 69.2543 18.377 69.0129C18.0101 68.7715 17.8267 68.4294 17.8267 67.9853C17.8267 67.7274 17.9122 67.4818 18.0846 67.2515C18.257 67.0198 18.4984 66.8349 18.8088 66.6956C18.5963 66.5563 18.4915 66.3563 18.4915 66.0956C18.4915 65.8349 18.5908 65.5714 18.7894 65.3066C18.5508 65.1342 18.366 64.9052 18.2336 64.6169C18.1011 64.3287 18.0349 64.0169 18.0349 63.679C18.0349 63.1038 18.1949 62.6376 18.5163 62.2803C18.8377 61.9231 19.3081 61.7452 19.9302 61.7452L19.9288 61.7465ZM20.4847 67.1839H19.4819C19.1439 67.297 18.9757 67.4984 18.9757 67.7894C18.9757 68.1605 19.3522 68.3453 20.1067 68.3453C20.8612 68.3453 21.2378 68.1039 21.2378 67.6212C21.2378 67.4749 21.1826 67.366 21.0736 67.2942C20.9647 67.2211 20.7674 67.1853 20.4833 67.1853L20.4847 67.1839ZM19.9591 62.7976C19.5026 62.7976 19.275 63.0955 19.275 63.69C19.275 63.9811 19.3301 64.1935 19.4391 64.3259C19.5481 64.4583 19.7219 64.5245 19.9605 64.5245C20.1991 64.5245 20.3702 64.4583 20.4764 64.3259C20.5826 64.1935 20.635 63.9769 20.635 63.6762C20.635 63.3755 20.5826 63.1535 20.4764 63.0114C20.3702 62.8693 20.1991 62.7976 19.9605 62.7976H19.9591Z" fill="white"></path>
<path d="M24.1359 64.5549C24.1496 65.5466 24.5855 66.0432 25.4462 66.0432C25.8504 66.0432 26.2504 65.9673 26.6476 65.8156L26.8863 66.759C26.3773 66.977 25.8104 67.0859 25.1897 67.0859C23.6214 67.0859 22.8379 66.1632 22.8379 64.3176C22.8379 63.5893 23.0324 62.9852 23.4241 62.501C23.8145 62.0182 24.3772 61.7769 25.111 61.7769C25.7 61.7769 26.1552 61.9341 26.4752 62.2486C26.7966 62.5631 26.9566 63.0017 26.9566 63.5631C26.9566 63.8941 26.9138 64.2252 26.827 64.5549H24.1372H24.1359ZM25.8435 63.8004V63.741C25.8435 63.0859 25.6117 62.7589 25.1483 62.7589C24.5924 62.7589 24.2586 63.1065 24.1455 63.8004H25.8421H25.8435Z" fill="white"></path>
<path d="M29.6243 62.847C29.1747 62.847 28.9498 62.996 28.9498 63.2939C28.9498 63.4526 29.0257 63.5877 29.1774 63.7008C29.3292 63.8139 29.5126 63.9105 29.7278 63.9933C29.943 64.076 30.1582 64.1684 30.3733 64.2719C30.5885 64.374 30.772 64.5216 30.9237 64.7133C31.0754 64.905 31.1513 65.1395 31.1513 65.4181C31.1513 65.9147 30.983 66.3161 30.6451 66.6237C30.3071 66.9313 29.8119 67.0857 29.1568 67.0857C28.8588 67.0857 28.5471 67.0526 28.2188 66.9864C27.8919 66.9202 27.6519 66.8444 27.4988 66.7588L27.8367 65.7657C28.3526 65.9381 28.8174 66.0237 29.2312 66.0237C29.645 66.0237 29.8519 65.8623 29.8519 65.5367C29.8519 65.3974 29.7761 65.2719 29.6243 65.1602C29.4726 65.0471 29.2892 64.9436 29.074 64.8471C28.8588 64.7519 28.6436 64.6471 28.4285 64.534C28.2133 64.4222 28.0298 64.2622 27.8781 64.0581C27.7264 63.8526 27.6491 63.6153 27.6491 63.3436C27.6491 62.8346 27.8174 62.4443 28.1553 62.1725C28.4933 61.9008 28.9761 61.7656 29.6037 61.7656C30.2313 61.7656 30.7251 61.8677 31.0823 62.0732L30.7554 63.0553C30.2988 62.916 29.9223 62.847 29.6243 62.847Z" fill="white"></path>
<path d="M32.4725 65.3188V62.8277L31.5801 62.7684V61.9546L32.5029 61.876V60.7146L33.8919 60.5959V61.8663H35.3402L35.2602 62.8291H33.8808V65.4485C33.8808 65.6402 33.9112 65.7781 33.9705 65.8609C34.0298 65.9437 34.1553 65.985 34.347 65.985C34.5388 65.985 34.7539 65.9547 34.9926 65.8954L35.2009 66.8775C34.8767 67.0168 34.547 67.0858 34.2132 67.0858C33.8794 67.0858 33.6284 67.0664 33.4587 67.0264C33.2905 66.9864 33.1512 66.9409 33.0422 66.8871C32.9332 66.8347 32.8408 66.7561 32.7649 66.654C32.6891 66.552 32.6325 66.4609 32.5967 66.3809C32.5608 66.3009 32.5318 66.1892 32.5125 66.043C32.4863 65.8443 32.4725 65.603 32.4725 65.3188Z" fill="white"></path>
<path d="M40.55 66.7865C40.2121 66.9714 39.8438 67.0638 39.4438 67.0638C39.0438 67.0638 38.7472 66.9121 38.5555 66.6072C38.172 66.9245 37.7224 67.0831 37.2065 67.0831C36.6906 67.0831 36.3003 66.9521 36.0354 66.6914C35.7706 66.4307 35.6382 66.0748 35.6382 65.6251C35.6382 65.3272 35.7003 65.0734 35.8272 64.861C35.9527 64.6499 36.1154 64.4941 36.3141 64.3948C36.6782 64.2223 37.0562 64.1368 37.4506 64.1368C37.8451 64.1368 38.1596 64.1465 38.3983 64.1672V63.6803C38.3983 63.3368 38.3293 63.1147 38.19 63.0154C38.0507 62.9161 37.8148 62.8664 37.481 62.8664C37.1472 62.8664 36.772 62.9354 36.3541 63.0747L36.0658 62.2016C36.3099 62.0568 36.6106 61.945 36.9637 61.8692C37.3168 61.7933 37.6203 61.7547 37.8713 61.7547C38.5458 61.7547 39.0272 61.8981 39.3155 62.1864C39.6038 62.4747 39.7472 62.9658 39.7472 63.6596V65.7438C39.7472 65.9286 39.83 66.021 39.9955 66.021C40.081 66.021 40.2038 66.0017 40.3624 65.9617L40.5514 66.7852L40.55 66.7865ZM37.1072 59.7312C37.2851 59.7312 37.5237 59.8029 37.8217 59.945C38.1196 60.0871 38.3445 60.1588 38.4962 60.1588C38.6479 60.1588 38.8203 60.0429 39.0121 59.8112L39.499 60.3464C39.3803 60.545 39.219 60.7188 39.0176 60.8678C38.8162 61.0167 38.6245 61.0912 38.4424 61.0912C38.2603 61.0912 38.0244 61.0209 37.7334 60.8774C37.4424 60.7354 37.2217 60.6636 37.0741 60.6636C36.9265 60.6636 36.7555 60.7795 36.5623 61.0112L36.0768 60.476C36.1954 60.2774 36.3527 60.1036 36.5486 59.9547C36.743 59.8057 36.9306 59.7312 37.1099 59.7312H37.1072ZM37.5831 66.1617C37.8603 66.1617 38.132 66.0762 38.3969 65.9038V64.8624C38.212 64.8486 38.0493 64.843 37.91 64.843C37.2548 64.843 36.9279 65.0555 36.9279 65.4789C36.9279 65.9355 37.1458 66.1631 37.5831 66.1631V66.1617Z" fill="white"></path>
<path d="M44.6191 66.4445C44.2094 66.8707 43.6701 67.0845 43.0011 67.0845C42.3321 67.0845 41.8025 66.8734 41.408 66.45C41.0149 66.0265 40.8176 65.3548 40.8176 64.4348C40.8176 63.5147 41.0218 62.8416 41.4273 62.4154C41.8342 61.9892 42.368 61.7754 43.0301 61.7754C44.4991 61.7754 45.2329 62.6582 45.2329 64.4251C45.2329 65.3451 45.0274 66.0183 44.6177 66.4445H44.6191ZM43.8839 64.4099C43.8839 63.8044 43.8108 63.3934 43.666 63.174C43.5198 62.9561 43.3073 62.8471 43.026 62.8471C42.7446 62.8471 42.5294 62.9561 42.3804 63.174C42.2315 63.392 42.157 63.8127 42.157 64.4348C42.157 65.4927 42.4453 66.0224 43.0204 66.0224C43.2922 66.0224 43.5032 65.9051 43.6549 65.6707C43.8067 65.4362 43.8825 65.0155 43.8825 64.4099H43.8839Z" fill="white"></path>
<path d="M47.9227 66.0431C48.3323 66.2348 48.7199 66.3314 49.0841 66.3314C49.4482 66.3314 49.7227 66.2624 49.9075 66.1231C50.1393 65.9645 50.2551 65.7631 50.2551 65.5176C50.2551 65.2072 50.0165 64.9589 49.5406 64.7727C49.3227 64.6927 49.1034 64.6072 48.8854 64.5148C48.6675 64.4224 48.502 64.2886 48.3889 64.1134C48.2758 63.9382 48.2206 63.781 48.2206 63.6417C48.2206 63.0403 48.4427 62.5699 48.8854 62.232C49.2427 61.9671 49.6924 61.8347 50.2344 61.8347C50.7765 61.8347 51.2 61.9313 51.5048 62.123L51.1876 62.7878C50.8303 62.6554 50.4882 62.5892 50.1599 62.5892C49.8317 62.5892 49.582 62.6485 49.411 62.7671C49.193 62.9134 49.0841 63.1079 49.0841 63.352C49.0841 63.6568 49.3254 63.8941 49.8082 64.0665C50.0262 64.1465 50.2455 64.2334 50.4634 64.3299C50.6813 64.4265 50.8482 64.5603 50.9641 64.7313C51.08 64.9038 51.1379 65.0582 51.1379 65.1976C51.1379 65.7727 50.9131 66.2459 50.4634 66.6169C50.0868 66.9286 49.5972 67.0831 48.9944 67.0831C48.7172 67.0831 48.444 67.0473 48.1751 66.9741C47.9075 66.901 47.7102 66.8155 47.5847 66.7162L47.9227 66.0417V66.0431Z" fill="white"></path>
<path d="M53.6191 61.8843L52.8246 66.9548H51.9211L52.7046 61.9726L53.6177 61.883L53.6191 61.8843ZM52.9888 60.0539C53.1446 59.9243 53.3046 59.8608 53.4701 59.8608C53.6357 59.8608 53.7612 59.9119 53.8467 60.0153C53.9322 60.1174 53.9764 60.2084 53.9764 60.2884C53.9764 60.5271 53.9005 60.7174 53.7488 60.8595C53.597 61.0016 53.437 61.0733 53.2729 61.0733C53.1088 61.0733 52.9805 61.0181 52.8908 60.9091C52.8012 60.8002 52.757 60.705 52.757 60.6264C52.757 60.3753 52.8343 60.185 52.9901 60.0553L52.9888 60.0539Z" fill="white"></path>
<path d="M60.4665 63.1945C60.4665 62.7917 60.3037 62.589 59.9796 62.589C59.7478 62.589 59.4954 62.6524 59.2209 62.778C58.9464 62.9035 58.7037 63.0497 58.4913 63.2152C58.4913 63.3283 58.4816 63.44 58.4609 63.5531L57.9257 66.9574H57.0333L57.5685 63.5642C57.5947 63.4318 57.6085 63.309 57.6085 63.1973C57.6085 62.7945 57.4499 62.5917 57.1326 62.5917C56.8816 62.5917 56.6154 62.6552 56.334 62.7807C56.0526 62.9062 55.8167 63.0649 55.625 63.2566L55.0401 66.9587H54.1477L54.9422 61.9379H55.6871V62.5435C55.905 62.3642 56.1753 62.2028 56.4953 62.0566C56.8167 61.9117 57.1188 61.8386 57.403 61.8386C58.0112 61.8386 58.3685 62.0828 58.4747 62.5724C58.6995 62.3876 58.9823 62.2193 59.323 62.0662C59.6637 61.9145 59.9727 61.8386 60.2513 61.8386C60.992 61.8386 61.363 62.2262 61.363 63C61.363 63.1587 61.3465 63.3311 61.3134 63.5159L60.7782 66.9601H59.8858L60.421 63.5669C60.4541 63.4345 60.4706 63.3118 60.4706 63.2L60.4665 63.1945Z" fill="white"></path>
<path d="M65.0913 61.8346C65.6872 61.8346 66.0996 62.0595 66.3313 62.5091C66.483 62.8002 66.5589 63.1105 66.5589 63.4416C66.5589 63.7726 66.5327 64.1009 66.4789 64.4292C66.4265 64.7561 66.3382 65.0761 66.2154 65.3864C66.0927 65.6968 65.9327 65.9851 65.7341 66.2499C65.3175 66.8058 64.6954 67.083 63.8678 67.083C63.5299 67.083 63.2292 67.0168 62.9643 66.8844L62.6167 69.0776L61.7036 69.1769L62.8554 61.9229H63.6099V62.3395C64.0926 62.0015 64.5851 61.8333 65.0885 61.8333L65.0913 61.8346ZM64.0002 66.3313C64.8333 66.3313 65.3534 65.6733 65.5589 64.3561C65.5989 64.0981 65.6182 63.8664 65.6182 63.6609C65.6182 62.9464 65.3561 62.5891 64.8347 62.5891C64.4637 62.5891 64.0444 62.7353 63.574 63.025L63.0774 66.1906C63.3947 66.283 63.7023 66.3299 64.0002 66.3299V66.3313Z" fill="white"></path>
<path d="M68.2568 66.0623C68.2568 66.2403 68.3534 66.3299 68.5451 66.3299C68.7369 66.3299 68.9424 66.2968 69.1603 66.2306L69.21 66.8858C68.912 67.0182 68.5644 67.0844 68.1686 67.0844C67.6127 67.0844 67.3354 66.8072 67.3354 66.2513C67.3354 66.1589 67.3423 66.0596 67.3548 65.9534L68.2969 60.0098H69.2003L68.2679 65.9437C68.261 65.9837 68.2582 66.0237 68.2582 66.0623H68.2568Z" fill="white"></path>
<path d="M71.4721 61.8843L70.6776 66.9548H69.7742L70.5576 61.9726L71.4708 61.883L71.4721 61.8843ZM70.8418 60.0539C70.9977 59.9243 71.1577 59.8608 71.3232 59.8608C71.4887 59.8608 71.6142 59.9119 71.6997 60.0153C71.7853 60.1174 71.8294 60.2084 71.8294 60.2884C71.8294 60.5271 71.7535 60.7174 71.6018 60.8595C71.4501 61.0016 71.2901 61.0733 71.1259 61.0733C70.9618 61.0733 70.8335 61.0181 70.7438 60.9091C70.6542 60.8002 70.6101 60.705 70.6101 60.6264C70.6101 60.3753 70.6873 60.185 70.8432 60.0553L70.8418 60.0539Z" fill="white"></path>
<path d="M75.4211 59.7903C75.7977 59.7903 76.1853 59.8496 76.5825 59.9682L76.2749 60.6731C76.017 60.6069 75.6928 60.5737 75.3025 60.5737C74.9121 60.5737 74.6459 60.6427 74.5038 60.782C74.3618 60.9213 74.2638 61.1724 74.2114 61.5365L74.1521 61.9338H75.5121L75.2942 62.6386H74.0335L73.061 68.8015L72.1672 68.7119L73.13 62.6386L72.2169 62.589L72.4059 62.0028L73.25 61.9338L73.3093 61.5669C73.4086 60.9379 73.6155 60.4855 73.93 60.2068C74.2445 59.9296 74.7425 59.7903 75.4239 59.7903H75.4211Z" fill="white"></path>
<path d="M77.446 61.8843L76.6515 66.9548H75.748L76.5315 61.9726L77.4446 61.883L77.446 61.8843ZM76.8157 60.0539C76.9715 59.9243 77.1315 59.8608 77.2971 59.8608C77.4626 59.8608 77.5881 59.9119 77.6736 60.0153C77.7591 60.1174 77.8033 60.2084 77.8033 60.2884C77.8033 60.5271 77.7274 60.7174 77.5757 60.8595C77.4239 61.0016 77.264 61.0733 77.0998 61.0733C76.9357 61.0733 76.8074 61.0181 76.7177 60.9091C76.6281 60.8002 76.5839 60.705 76.5839 60.6264C76.5839 60.3753 76.6612 60.185 76.817 60.0553L76.8157 60.0539Z" fill="white"></path>
<path d="M81.2766 66.8665C80.8338 67.0251 80.4352 67.1051 80.0807 67.1051C79.7262 67.1051 79.4241 67.0555 79.1731 66.9561C78.6103 66.7313 78.2627 66.2982 78.1317 65.6568C78.0986 65.4844 78.082 65.2996 78.082 65.1009C78.082 64.9023 78.0986 64.6913 78.1317 64.4664C78.271 63.5933 78.5938 62.9367 79.0986 62.4967C79.6048 62.0567 80.1759 61.8374 80.8104 61.8374C81.26 61.8374 81.6573 61.934 82.0007 62.1257L81.6242 62.7602C81.3 62.6485 80.9952 62.5919 80.7111 62.5919C80.3207 62.5919 79.9717 62.7409 79.6641 63.0388C79.3565 63.3367 79.1496 63.8126 79.0434 64.4678C79.0103 64.6733 78.9938 64.8582 78.9938 65.0237C78.9938 65.9037 79.4241 66.3437 80.2835 66.3437C80.5814 66.3437 80.8959 66.301 81.2256 66.2141L81.2752 66.8692L81.2766 66.8665Z" fill="white"></path>
<path d="M83.2212 67.0843C82.7908 67.0843 82.4708 66.9588 82.2584 66.7078C82.0998 66.516 82.0198 66.2747 82.0198 65.9836C82.0198 65.5933 82.1094 65.2829 82.2874 65.0512C82.4653 64.8195 82.6584 64.6581 82.8626 64.5643C83.2267 64.3988 83.5964 64.316 83.9743 64.316C84.3522 64.316 84.7026 64.3326 85.0267 64.3657L85.1454 63.5918C85.1647 63.4525 85.1757 63.3091 85.1757 63.1601C85.1757 63.0111 85.1426 62.8939 85.0764 62.8084C84.9702 62.6635 84.7371 62.5904 84.3771 62.5904C84.0171 62.5904 83.5688 62.6801 83.0322 62.858L82.9232 62.2332C83.1343 62.1146 83.4033 62.018 83.7274 61.9449C84.0515 61.8718 84.3288 61.8359 84.5605 61.8359C85.2019 61.8359 85.635 61.9753 85.8612 62.2525C86.0061 62.4373 86.0792 62.7118 86.0792 63.076C86.0792 63.2484 86.0626 63.4401 86.0295 63.6512L85.653 66.0622C85.6392 66.1147 85.6337 66.1616 85.6337 66.2016C85.6337 66.3409 85.6999 66.4098 85.8323 66.4098C85.9385 66.4098 86.0902 66.3795 86.2888 66.3202L86.3482 66.8761C86.0971 67.0209 85.813 67.094 85.4943 67.094C85.0971 67.094 84.846 66.9257 84.7398 66.5878C84.5743 66.7271 84.3522 66.8443 84.075 66.9395C83.7978 67.0347 83.5122 67.083 83.2212 67.083V67.0843ZM82.8639 65.8043C82.8639 66.1878 83.0791 66.3795 83.5095 66.3795C83.9398 66.3795 84.3564 66.2609 84.7591 66.0222L84.9481 64.8705C84.7895 64.8443 84.5316 64.8305 84.1743 64.8305C83.4005 64.8305 82.9701 65.0884 82.8846 65.6043C82.8708 65.6774 82.8653 65.7436 82.8653 65.8029L82.8639 65.8043Z" fill="white"></path>
<path d="M89.7511 61.8348C90.1084 61.8348 90.416 61.9107 90.6739 62.0624L90.9912 60.0085H91.8946L90.7829 67.0349H90.078L90.0284 66.548C89.558 66.8791 89.0477 67.0446 88.4946 67.0446C87.9414 67.0446 87.5497 66.8197 87.318 66.3701C87.1593 66.079 87.0793 65.7687 87.0793 65.4376C87.0793 65.1066 87.1028 64.8087 87.1483 64.5452C87.4325 62.7396 88.3001 61.8362 89.7484 61.8362L89.7511 61.8348ZM89.6229 62.5796C88.7952 62.5796 88.2794 63.2321 88.0752 64.5342C88.0352 64.7921 88.0159 65.0238 88.0159 65.2294C88.0159 65.9632 88.2766 66.3315 88.7994 66.3315C89.2891 66.3315 89.7084 66.1866 90.0601 65.8942L90.5567 62.7576C90.2987 62.639 89.987 62.5796 89.6242 62.5796H89.6229Z" fill="white"></path>
<path d="M93.165 67.0843C92.7347 67.0843 92.4147 66.9588 92.2023 66.7078C92.0436 66.516 91.9636 66.2747 91.9636 65.9836C91.9636 65.5933 92.0533 65.2829 92.2312 65.0512C92.4092 64.8195 92.6023 64.6581 92.8064 64.5643C93.1706 64.3988 93.5402 64.316 93.9182 64.316C94.2961 64.316 94.6465 64.3326 94.9706 64.3657L95.0892 63.5918C95.1085 63.4525 95.1196 63.3091 95.1196 63.1601C95.1196 63.0111 95.0865 62.8939 95.0203 62.8084C94.914 62.6635 94.6809 62.5904 94.3209 62.5904C93.9609 62.5904 93.5126 62.6801 92.9761 62.858L92.8671 62.2332C93.0781 62.1146 93.3471 62.018 93.6713 61.9449C93.9954 61.8718 94.2726 61.8359 94.5044 61.8359C95.1458 61.8359 95.5789 61.9753 95.8051 62.2525C95.9499 62.4373 96.023 62.7118 96.023 63.076C96.023 63.2484 96.0065 63.4401 95.9734 63.6512L95.5968 66.0622C95.583 66.1147 95.5775 66.1616 95.5775 66.2016C95.5775 66.3409 95.6437 66.4098 95.7761 66.4098C95.8823 66.4098 96.0341 66.3795 96.2327 66.3202L96.292 66.8761C96.041 67.0209 95.7568 67.094 95.4382 67.094C95.0409 67.094 94.7899 66.9257 94.6837 66.5878C94.5182 66.7271 94.2961 66.8443 94.0188 66.9395C93.7416 67.0347 93.4561 67.083 93.165 67.083V67.0843ZM92.8078 65.8043C92.8078 66.1878 93.023 66.3795 93.4533 66.3795C93.8837 66.3795 94.3002 66.2609 94.703 66.0222L94.892 64.8705C94.7333 64.8443 94.4754 64.8305 94.1182 64.8305C93.3444 64.8305 92.914 65.0884 92.8285 65.6043C92.8147 65.6774 92.8092 65.7436 92.8092 65.8029L92.8078 65.8043Z" fill="white"></path>
<path d="M99.2686 64.545C99.2686 62.7395 99.9927 61.836 101.442 61.836C101.807 61.836 102.124 61.9119 102.396 62.0636V60.0098H103.299V67.0361H102.594L102.464 66.5492C102.048 66.8803 101.562 67.0458 101.011 67.0458C100.459 67.0458 100.03 66.821 99.7251 66.3713C99.4203 65.9216 99.2686 65.3133 99.2686 64.545ZM101.431 62.5795C100.604 62.5795 100.191 63.2319 100.191 64.534C100.191 65.7313 100.529 66.3299 101.204 66.3299C101.687 66.3299 102.084 66.1851 102.394 65.8927V62.756C102.116 62.6374 101.796 62.5781 101.431 62.5781V62.5795Z" fill="white"></path>
<path d="M106.592 67.0845C105.851 67.0845 105.299 66.8321 104.939 66.3259C104.578 65.8196 104.398 65.1851 104.398 64.421C104.398 63.6568 104.59 63.0347 104.974 62.5547C105.357 62.0747 105.883 61.8347 106.552 61.8347C107.114 61.8347 107.542 61.992 107.837 62.3064C108.131 62.6209 108.279 63.0361 108.279 63.552C108.279 63.7837 108.229 64.0817 108.13 64.4444H105.212C105.226 65.0072 105.347 65.4638 105.579 65.8141C105.811 66.1645 106.156 66.3397 106.616 66.3397C107.077 66.3397 107.512 66.2472 107.921 66.0624L108.149 66.6776C107.673 66.9493 107.153 67.0845 106.59 67.0845H106.592ZM107.465 63.7203C107.465 63.363 107.392 63.0816 107.247 62.8761C107.101 62.6706 106.899 62.5685 106.641 62.5685C106.383 62.5685 106.17 62.6127 106.001 62.7023C105.833 62.792 105.702 62.9065 105.61 63.0444C105.451 63.3092 105.352 63.5534 105.312 63.7782L107.465 63.7975V63.7175V63.7203Z" fill="white"></path>
<path d="M114.054 61.945H114.977L113.37 66.9561H112.367L110.77 61.9353H111.732L112.873 66.0637L114.054 61.945Z" fill="white"></path>
<path d="M116.853 67.0845C116.422 67.0845 116.08 66.959 115.825 66.7079C115.57 66.4569 115.443 66.119 115.443 65.6955C115.443 65.4169 115.502 65.1824 115.621 64.9907C115.739 64.7989 115.895 64.6568 116.087 64.5644C116.43 64.3989 116.792 64.3162 117.168 64.3162C117.545 64.3162 117.897 64.3327 118.221 64.3658V63.592C118.221 63.2085 118.156 62.9451 118.028 62.803C117.898 62.6609 117.653 62.5892 117.288 62.5892C116.924 62.5892 116.491 62.6789 115.989 62.8568L115.781 62.232C115.973 62.1133 116.225 62.0168 116.539 61.9437C116.854 61.8706 117.127 61.8347 117.359 61.8347C118 61.8347 118.454 61.974 118.719 62.2513C118.984 62.5285 119.116 62.9961 119.116 63.6499V66.061C119.116 66.2928 119.196 66.4086 119.355 66.4086C119.461 66.4086 119.606 66.3783 119.792 66.319L119.941 66.8748C119.716 67.0197 119.425 67.0928 119.068 67.0928C118.711 67.0928 118.453 66.9245 118.294 66.5866C118.148 66.7259 117.945 66.8431 117.684 66.9383C117.424 67.0335 117.146 67.0817 116.855 67.0817L116.853 67.0845ZM117.042 66.3796C117.458 66.3796 117.851 66.261 118.222 66.0224V64.8706C118.064 64.8444 117.806 64.8306 117.448 64.8306C116.675 64.8306 116.284 65.0886 116.277 65.6045C116.277 66.1203 116.533 66.3783 117.042 66.3783V66.3796Z" fill="white"></path>
<path d="M120.624 60.0098H121.527V65.9437C121.527 66.2016 121.646 66.3313 121.884 66.3313C122.069 66.3313 122.265 66.2982 122.469 66.232L122.618 66.8872C122.346 67.0196 122.013 67.0858 121.615 67.0858C120.953 67.0858 120.622 66.7092 120.622 65.9547V60.0111L120.624 60.0098Z" fill="white"></path>
<path d="M125.209 67.0845C124.468 67.0845 123.916 66.8321 123.556 66.3259C123.195 65.8196 123.015 65.1851 123.015 64.421C123.015 63.6568 123.207 63.0347 123.591 62.5547C123.974 62.0747 124.5 61.8347 125.169 61.8347C125.731 61.8347 126.159 61.992 126.454 62.3064C126.748 62.6209 126.895 63.0361 126.895 63.552C126.895 63.7837 126.846 64.0817 126.747 64.4444H123.829C123.843 65.0072 123.964 65.4638 124.196 65.8141C124.428 66.1645 124.773 66.3397 125.233 66.3397C125.694 66.3397 126.129 66.2472 126.538 66.0624L126.766 66.6776C126.29 66.9493 125.77 67.0845 125.207 67.0845H125.209ZM126.082 63.7203C126.082 63.363 126.009 63.0816 125.864 62.8761C125.718 62.6706 125.516 62.5685 125.258 62.5685C125 62.5685 124.786 62.6127 124.618 62.7023C124.45 62.792 124.319 62.9065 124.226 63.0444C124.068 63.3092 123.969 63.5534 123.929 63.7782L126.082 63.7975V63.7175V63.7203Z" fill="white"></path>
<path d="M131.729 63.8003V64.5838H127.927V63.8003H131.729Z" fill="white"></path>
<path d="M134.577 67.0843C134.061 67.0843 133.72 66.9767 133.555 66.7615C133.389 66.5464 133.307 66.1781 133.307 65.6553V62.6387L132.324 62.589L132.414 62.0028L133.327 61.9338L133.417 60.7435L134.221 60.5945V61.9338H135.69L135.6 62.6387H134.211V65.745C134.211 65.8843 134.217 65.9877 134.227 66.0581C134.236 66.127 134.272 66.1905 134.336 66.247C134.399 66.3036 134.536 66.3312 134.748 66.3312C134.96 66.3312 135.171 66.2953 135.384 66.2222L135.552 66.887C135.242 67.0195 134.918 67.0857 134.58 67.0857L134.577 67.0843Z" fill="white"></path>
<path d="M137.395 66.9561H136.503V61.9353H137.248L137.347 62.6801C137.465 62.4815 137.663 62.2911 137.937 62.109C138.212 61.927 138.525 61.8359 138.875 61.8359C139.067 61.8359 139.213 61.8525 139.311 61.8856L139.133 62.6001C139.074 62.5932 138.987 62.5904 138.875 62.5904C138.154 62.5904 137.661 62.8511 137.396 63.3739V66.9561H137.395Z" fill="white"></path>
<path d="M141.096 67.0845C140.665 67.0845 140.323 66.959 140.068 66.7079C139.813 66.4569 139.686 66.119 139.686 65.6955C139.686 65.4169 139.745 65.1824 139.864 64.9907C139.983 64.7989 140.138 64.6568 140.33 64.5644C140.674 64.3989 141.035 64.3162 141.412 64.3162C141.788 64.3162 142.14 64.3327 142.464 64.3658V63.592C142.464 63.2085 142.399 62.9451 142.271 62.803C142.141 62.6609 141.896 62.5892 141.532 62.5892C141.167 62.5892 140.734 62.6789 140.232 62.8568L140.024 62.232C140.216 62.1133 140.468 62.0168 140.783 61.9437C141.097 61.8706 141.37 61.8347 141.602 61.8347C142.243 61.8347 142.697 61.974 142.962 62.2513C143.227 62.5285 143.359 62.9961 143.359 63.6499V66.061C143.359 66.2928 143.439 66.4086 143.598 66.4086C143.704 66.4086 143.849 66.3783 144.035 66.319L144.184 66.8748C143.959 67.0197 143.668 67.0928 143.311 67.0928C142.954 67.0928 142.696 66.9245 142.537 66.5866C142.391 66.7259 142.188 66.8431 141.927 66.9383C141.667 67.0335 141.39 67.0817 141.098 67.0817L141.096 67.0845ZM141.285 66.3796C141.701 66.3796 142.094 66.261 142.465 66.0224V64.8706C142.307 64.8444 142.049 64.8306 141.692 64.8306C140.918 64.8306 140.527 65.0886 140.521 65.6045C140.521 66.1203 140.776 66.3783 141.285 66.3783V66.3796Z" fill="white"></path>
<path d="M148.688 63.5119V66.9561H147.795V63.563C147.795 63.2581 147.755 63.0209 147.677 62.8485C147.597 62.676 147.437 62.5905 147.195 62.5905C146.954 62.5905 146.692 62.6554 146.412 62.7836C146.13 62.9133 145.911 63.0705 145.753 63.2554V66.9575H144.86V61.9367H145.605L145.704 62.5422C145.889 62.3629 146.139 62.2016 146.453 62.0553C146.768 61.9105 147.07 61.8374 147.361 61.8374C147.857 61.8374 148.202 61.985 148.398 62.2788C148.593 62.5726 148.691 62.985 148.691 63.5147L148.688 63.5119Z" fill="white"></path>
<path d="M149.928 66.0431C150.365 66.2348 150.765 66.3314 151.129 66.3314C151.493 66.3314 151.759 66.2638 151.928 66.1272C152.096 65.9921 152.18 65.8224 152.18 65.621C152.18 65.4196 152.099 65.2486 151.937 65.1093C151.775 64.97 151.579 64.8596 151.347 64.7769C151.115 64.6941 150.882 64.6072 150.648 64.5134C150.413 64.421 150.215 64.2734 150.052 64.072C149.889 63.8706 149.809 63.6168 149.809 63.3134C149.809 62.8637 149.968 62.5051 150.285 62.2361C150.602 61.9685 151.033 61.8347 151.575 61.8347C152.117 61.8347 152.554 61.9313 152.885 62.123L152.677 62.7878C152.293 62.6554 151.939 62.5892 151.615 62.5892C151.29 62.5892 151.049 62.6485 150.89 62.7671C150.732 62.8858 150.652 63.0472 150.652 63.2485C150.652 63.4499 150.735 63.6168 150.9 63.7492C151.066 63.8817 151.266 63.9879 151.5 64.0665C151.735 64.1465 151.968 64.2334 152.199 64.3299C152.431 64.4265 152.63 64.5727 152.795 64.7713C152.961 64.97 153.044 65.2182 153.044 65.5162C153.044 65.9521 152.881 66.3231 152.557 66.6279C152.233 66.9328 151.769 67.0845 151.168 67.0845C150.89 67.0845 150.61 67.0486 150.329 66.9755C150.048 66.9024 149.838 66.8169 149.699 66.7176L149.926 66.0431H149.928Z" fill="white"></path>
<path d="M154.91 62.3409C155.347 62.003 155.835 61.8347 156.379 61.8347C156.922 61.8347 157.344 62.0595 157.649 62.5092C157.954 62.9589 158.106 63.5713 158.106 64.3451C158.106 66.1714 157.378 67.0845 155.922 67.0845C155.579 67.0845 155.264 67.0183 154.979 66.8859V69.079L154.086 69.1783V61.9244H154.841L154.91 62.3409ZM155.932 66.3314C156.76 66.3314 157.172 65.6734 157.172 64.3562C157.172 63.1782 156.838 62.5892 156.169 62.5892C155.793 62.5892 155.395 62.7354 154.979 63.0251V66.1907C155.31 66.2831 155.627 66.33 155.932 66.33V66.3314Z" fill="white"></path>
<path d="M162.561 66.45C162.178 66.8735 161.674 67.0845 161.052 67.0845C160.43 67.0845 159.934 66.8762 159.564 66.4597C159.193 66.0431 159.008 65.3796 159.008 64.4693C159.008 63.5589 159.201 62.8927 159.589 62.4692C159.976 62.0458 160.48 61.8347 161.102 61.8347C161.724 61.8347 162.218 62.043 162.586 62.4596C162.953 62.8761 163.136 63.5396 163.136 64.4499C163.136 65.3603 162.945 66.0265 162.561 66.45ZM161.083 62.5699C160.309 62.5699 159.921 63.2003 159.921 64.461C159.921 65.7217 160.305 66.3521 161.073 66.3521C161.39 66.3521 161.662 66.2031 161.887 65.9052C162.112 65.6072 162.225 65.1107 162.225 64.4168C162.225 63.723 162.127 63.2403 161.932 62.9727C161.736 62.7051 161.454 62.5713 161.084 62.5713L161.083 62.5699Z" fill="white"></path>
<path d="M165.161 66.9561H164.269V61.9353H165.014L165.113 62.6801C165.232 62.4815 165.429 62.2911 165.703 62.109C165.978 61.927 166.291 61.8359 166.641 61.8359C166.833 61.8359 166.979 61.8525 167.077 61.8856L166.899 62.6001C166.84 62.5932 166.753 62.5904 166.641 62.5904C165.92 62.5904 165.427 62.8511 165.163 63.3739V66.9561H165.161Z" fill="white"></path>
<path d="M169.597 67.0843C169.081 67.0843 168.741 66.9767 168.575 66.7615C168.41 66.5464 168.327 66.1781 168.327 65.6553V62.6387L167.345 62.589L167.434 62.0028L168.348 61.9338L168.437 60.7435L169.241 60.5945V61.9338H170.71L170.621 62.6387H169.232V65.745C169.232 65.8843 169.237 65.9877 169.247 66.0581C169.257 66.127 169.292 66.1905 169.356 66.247C169.419 66.3036 169.556 66.3312 169.768 66.3312C169.981 66.3312 170.192 66.2953 170.404 66.2222L170.572 66.887C170.262 67.0195 169.938 67.0857 169.6 67.0857L169.597 67.0843Z" fill="white"></path>
<path d="M173.428 67.0845C172.687 67.0845 172.135 66.8321 171.775 66.3259C171.414 65.8196 171.234 65.1851 171.234 64.421C171.234 63.6568 171.426 63.0347 171.81 62.5547C172.193 62.0747 172.719 61.8347 173.388 61.8347C173.95 61.8347 174.378 61.992 174.673 62.3064C174.967 62.6209 175.114 63.0361 175.114 63.552C175.114 63.7837 175.065 64.0817 174.965 64.4444H172.048C172.062 65.0072 172.183 65.4638 172.415 65.8141C172.647 66.1645 172.992 66.3397 173.452 66.3397C173.913 66.3397 174.348 66.2472 174.757 66.0624L174.985 66.6776C174.509 66.9493 173.989 67.0845 173.426 67.0845H173.428ZM174.301 63.7203C174.301 63.363 174.228 63.0816 174.083 62.8761C173.936 62.6706 173.735 62.5685 173.477 62.5685C173.219 62.5685 173.005 62.6127 172.837 62.7023C172.669 62.792 172.538 62.9065 172.445 63.0444C172.287 63.3092 172.188 63.5534 172.147 63.7782L174.301 63.7975V63.7175V63.7203Z" fill="white"></path>
</svg>