<svg width="239" height="44" viewBox="0 0 239 44" fill="none" xmlns="http://www.w3.org/2000/svg">
<g clip-path="url(#clip0_9589_560)">
<path d="M209.087 0C209.053 0.169401 209.17 0.105627 209.27 0.133528C211.566 0.737393 214.348 4.01381 215.709 5.91907C217.826 8.8806 219.994 13.1894 219.171 16.9261C219.05 17.4822 218.583 18.2734 218.87 18.7617C219.452 19.7541 220.811 18.8115 221.296 18.1777C223.356 15.4912 221.034 9.32702 220.321 6.31168C220.231 5.93701 220.114 5.53642 220.084 5.15178C219.608 -1.00046 228.211 -1.36916 228.582 4.45226C228.913 9.65785 225.927 18.8613 220.722 21.0376C220.142 21.2808 218.912 21.4302 219.354 22.4068C219.699 23.1661 221.114 23.3554 221.842 23.2637C225.126 22.8512 228.444 17.1553 230.441 14.8136C232.893 11.9378 237.064 12.2766 238.222 16.0532C238.252 16.1509 238.18 16.2745 238.353 16.2386V17.9266C238.17 17.8907 238.258 18.0183 238.232 18.1219C237.843 19.5907 236.819 20.4397 235.637 21.2907C231.573 24.2184 223.534 27.1779 218.8 24.6488C218.408 24.4396 217.804 23.8756 217.391 23.9314C216.355 24.0729 216.799 25.6254 217.16 26.2293C218.645 28.7125 224.564 28.4733 227.095 28.4036C228.805 28.3557 230.365 28.009 232.008 28.7224C235.147 30.0876 235.334 34.4621 232.398 36.1502C230.941 36.9872 229.532 36.762 227.982 36.3554C223.241 35.1118 215.717 30.7214 214.743 25.5018C214.669 25.1052 214.667 24.1765 214.466 23.9154C213.794 23.0425 212.728 24.3997 212.485 25.0255C211.496 27.5825 214.529 31.3033 216.09 33.1727C217.212 34.514 219.145 36.2239 219.653 37.8721C220.411 40.3354 219.105 42.4898 216.712 43.2232C216.614 43.2531 216.491 43.1813 216.526 43.3547H214.781C214.816 43.1713 214.689 43.259 214.585 43.2331C212.541 42.703 211.678 41.0688 210.952 39.2393C209.164 34.7252 208.08 26.6896 211.548 22.7535C211.969 22.2752 213.031 21.6913 212.419 20.9519C212.002 20.4497 210.567 20.6749 210.025 20.94C206.972 22.4347 206.319 29.2725 205.625 32.25C205.005 34.9086 203.01 36.8377 200.114 36.0505C197.199 35.2573 196.449 32.3297 197.601 29.7568C199.674 25.1272 206.327 18.3113 211.783 18.6202C212.303 18.6501 213.011 18.951 213.407 18.4448C214.041 17.6416 212.812 16.5973 212.122 16.3024C209.579 15.2162 205.272 17.4802 202.964 18.6501C200.451 19.9236 197.318 22.1078 194.821 19.2898C192.418 16.5794 194.084 13.0917 197.368 12.2387C202.203 10.9832 211.191 11.7066 214.693 15.7124C214.97 16.0293 215.586 17.0816 215.807 17.2171C216.381 17.5679 216.931 17.2131 217.124 16.6312C218.151 13.5361 213.38 11.1625 211.153 10.1162C209.224 9.20944 206.277 8.4262 204.915 6.80992C202.877 4.38848 204.254 0.91078 207.205 0.133528C207.307 0.107619 207.425 0.169401 207.389 0H209.077L209.087 0Z" fill="white"></path>
<path d="M0 15.6546L7.96384 15.6645L11.9776 25.7608C12.5456 26.8271 14.1061 26.8271 14.6741 25.7608L18.7457 15.6626L25.7988 15.6526L30.3068 26.0538C30.9306 27.0124 32.3596 26.9606 32.9116 25.9581L36.9812 15.6546H44.6342L35.4287 36.6802L35.3829 36.752H28.1644L23.483 25.9522C22.8632 24.9039 21.3585 24.9298 20.8024 26.01L16.2844 36.7679L9.19349 36.75L0 15.8858V15.6526V15.6546Z" fill="white"></path>
<path d="M165.792 6.80786V17.0795C165.792 17.2729 166.2 17.6714 166.393 17.7591C167.272 18.1557 167.643 17.5379 168.277 17.1194C173.441 13.7015 181.809 14.3333 185.809 19.2917C189.312 23.6344 188.896 30.7313 184.705 34.48C180.759 38.0095 173.64 38.5994 169.048 36.0525C168.496 35.7475 167.785 35.0879 167.159 35.0859C166.264 35.0839 165.505 35.8791 165.616 36.7779H157.993V6.80786H165.792ZM172.47 20.3839C163.536 20.7984 163.288 31.4288 171.755 32.2957C175.944 32.7242 180.179 30.8748 180.045 26.0996C179.928 21.8766 176.231 20.2105 172.468 20.3839H172.47Z" fill="white"></path>
<path d="M105.621 6.80786V16.8464C105.621 17.2071 106.123 17.7273 106.478 17.793C107.281 17.9425 107.49 17.5001 108.046 17.1194C114.216 12.8983 124.406 15.0427 124.823 23.5985C124.95 27.987 124.849 32.3874 124.883 36.7779H117.144V25.4579C116.919 21.7729 114.131 20.2005 110.663 20.6091C107.422 20.9897 105.782 23.2358 105.619 26.3886V36.7779H97.8242V6.80786H105.623H105.621Z" fill="white"></path>
<path d="M72.5653 27.6423H52.4006C52.3129 27.6423 51.9263 27.8814 51.8485 27.9631C50.9059 28.9437 52.4245 30.552 53.2257 31.1239C56.0278 33.1189 61.881 32.9634 64.4759 30.6416C64.8147 30.3387 65.0439 29.9461 65.3767 29.681L72.2504 30.7812C72.4278 30.7812 72.1388 31.2455 72.087 31.3292C67.6905 38.4361 55.4279 39.1854 48.7236 35.3351C41.7044 31.3053 41.3656 21.9703 48.2433 17.6097C54.9535 13.3568 68.4817 14.0443 71.8339 22.4068C72.5135 24.1008 72.641 25.8287 72.5613 27.6442L72.5653 27.6423ZM57.3072 19.8618C55.7607 19.9674 53.8993 20.5135 52.7533 21.5916C51.8107 22.4765 52.1455 23.5507 53.3891 23.746H63.1685C64.2048 23.5926 64.6014 22.5403 63.8939 21.7371C62.4112 20.0531 59.4118 19.7183 57.3072 19.8618Z" fill="white"></path>
<path d="M135.298 15.6546V26.568C135.806 33.6988 146.365 33.7905 146.823 26.3926V15.6546H154.56V36.7779H146.937C147.14 35.3509 145.819 34.472 144.569 35.1955C143.134 36.0265 142.423 36.6224 140.701 37.029C134.104 38.5875 127.683 35.5203 127.557 28.1962V15.6526H135.3L135.298 15.6546Z" fill="white"></path>
<path d="M82.5181 6.80786H74.7197V36.7779H82.5181V6.80786Z" fill="white"></path>
<path d="M94.0973 6.80786H86.2988V36.7779H94.0973V6.80786Z" fill="white"></path>
</g>
<defs>
<clipPath id="clip0_9589_560">
<rect width="238.357" height="43.3527" fill="white"></rect>
</clipPath>
</defs>
</svg>